<?xml version="1.0" encoding="utf-8" standalone="no"?>
<!DOCTYPE svg PUBLIC "-//W3C//DTD SVG 1.1//EN"
  "http://www.w3.org/Graphics/SVG/1.1/DTD/svg11.dtd">
<svg xmlns:xlink="http://www.w3.org/1999/xlink" width="1000.318125pt" height="388.844525pt" viewBox="0 0 1000.318125 388.844525" xmlns="http://www.w3.org/2000/svg" version="1.1">
 <metadata>
  <rdf:RDF xmlns:dc="http://purl.org/dc/elements/1.1/" xmlns:cc="http://creativecommons.org/ns#" xmlns:rdf="http://www.w3.org/1999/02/22-rdf-syntax-ns#">
   <cc:Work>
    <dc:type rdf:resource="http://purl.org/dc/dcmitype/StillImage"/>
    <dc:date>2024-09-01T20:21:53.968682</dc:date>
    <dc:format>image/svg+xml</dc:format>
    <dc:creator>
     <cc:Agent>
      <dc:title>Matplotlib v3.8.2, https://matplotlib.org/</dc:title>
     </cc:Agent>
    </dc:creator>
   </cc:Work>
  </rdf:RDF>
 </metadata>
 <defs>
  <style type="text/css">*{stroke-linejoin: round; stroke-linecap: butt}</style>
 </defs>
 <g id="figure_1">
  <g id="axes_1">
   <g id="patch_1">
    <path d="M 38.058125 353.2239 
L 993.118125 353.2239 
L 993.118125 35.2559 
L 38.058125 35.2559 
z
" style="fill: #ffffff"/>
   </g>
   <g id="patch_2">
    <path d="M 38.058125 111.221054 
L 955.533397 111.221054 
L 955.533397 -511.071979 
L 38.058125 -511.071979 
z
" clip-path="url(#pf9c926378a)" style="fill: #c3e6c3"/>
   </g>
   <g id="patch_3">
    <path d="M 38.058125 180.364724 
L 955.533397 180.364724 
L 955.533397 111.221054 
L 38.058125 111.221054 
z
" clip-path="url(#pf9c926378a)" style="fill: #e6dcc3"/>
   </g>
   <g id="patch_4">
    <path d="M 38.058125 353.2239 
L 955.533397 353.2239 
L 955.533397 180.364724 
L 38.058125 180.364724 
z
" clip-path="url(#pf9c926378a)" style="fill: #e6c3c3"/>
   </g>
   <g id="matplotlib.axis_1">
    <g id="xtick_1">
     <g id="text_1">
      <!-- 0 -->
      <g transform="translate(73.097853 366.30265) scale(0.08 -0.08)">
       <defs>
        <path id="DejaVuSans-30" d="M 2034 4250 
Q 1547 4250 1301 3770 
Q 1056 3291 1056 2328 
Q 1056 1369 1301 889 
Q 1547 409 2034 409 
Q 2525 409 2770 889 
Q 3016 1369 3016 2328 
Q 3016 3291 2770 3770 
Q 2525 4250 2034 4250 
z
M 2034 4750 
Q 2819 4750 3233 4129 
Q 3647 3509 3647 2328 
Q 3647 1150 3233 529 
Q 2819 -91 2034 -91 
Q 1250 -91 836 529 
Q 422 1150 422 2328 
Q 422 3509 836 4129 
Q 1250 4750 2034 4750 
z
" transform="scale(0.015625)"/>
       </defs>
       <use xlink:href="#DejaVuSans-30"/>
      </g>
     </g>
    </g>
    <g id="xtick_2">
     <g id="text_2">
      <!-- 20 -->
      <g transform="translate(187.094647 366.30265) scale(0.08 -0.08)">
       <defs>
        <path id="DejaVuSans-32" d="M 1228 531 
L 3431 531 
L 3431 0 
L 469 0 
L 469 531 
Q 828 903 1448 1529 
Q 2069 2156 2228 2338 
Q 2531 2678 2651 2914 
Q 2772 3150 2772 3378 
Q 2772 3750 2511 3984 
Q 2250 4219 1831 4219 
Q 1534 4219 1204 4116 
Q 875 4013 500 3803 
L 500 4441 
Q 881 4594 1212 4672 
Q 1544 4750 1819 4750 
Q 2544 4750 2975 4387 
Q 3406 4025 3406 3419 
Q 3406 3131 3298 2873 
Q 3191 2616 2906 2266 
Q 2828 2175 2409 1742 
Q 1991 1309 1228 531 
z
" transform="scale(0.015625)"/>
       </defs>
       <use xlink:href="#DejaVuSans-32"/>
       <use xlink:href="#DejaVuSans-30" x="63.623047"/>
      </g>
     </g>
    </g>
    <g id="xtick_3">
     <g id="text_3">
      <!-- 40 -->
      <g transform="translate(303.636441 366.30265) scale(0.08 -0.08)">
       <defs>
        <path id="DejaVuSans-34" d="M 2419 4116 
L 825 1625 
L 2419 1625 
L 2419 4116 
z
M 2253 4666 
L 3047 4666 
L 3047 1625 
L 3713 1625 
L 3713 1100 
L 3047 1100 
L 3047 0 
L 2419 0 
L 2419 1100 
L 313 1100 
L 313 1709 
L 2253 4666 
z
" transform="scale(0.015625)"/>
       </defs>
       <use xlink:href="#DejaVuSans-34"/>
       <use xlink:href="#DejaVuSans-30" x="63.623047"/>
      </g>
     </g>
    </g>
    <g id="xtick_4">
     <g id="text_4">
      <!-- 60 -->
      <g transform="translate(420.178235 366.30265) scale(0.08 -0.08)">
       <defs>
        <path id="DejaVuSans-36" d="M 2113 2584 
Q 1688 2584 1439 2293 
Q 1191 2003 1191 1497 
Q 1191 994 1439 701 
Q 1688 409 2113 409 
Q 2538 409 2786 701 
Q 3034 994 3034 1497 
Q 3034 2003 2786 2293 
Q 2538 2584 2113 2584 
z
M 3366 4563 
L 3366 3988 
Q 3128 4100 2886 4159 
Q 2644 4219 2406 4219 
Q 1781 4219 1451 3797 
Q 1122 3375 1075 2522 
Q 1259 2794 1537 2939 
Q 1816 3084 2150 3084 
Q 2853 3084 3261 2657 
Q 3669 2231 3669 1497 
Q 3669 778 3244 343 
Q 2819 -91 2113 -91 
Q 1303 -91 875 529 
Q 447 1150 447 2328 
Q 447 3434 972 4092 
Q 1497 4750 2381 4750 
Q 2619 4750 2861 4703 
Q 3103 4656 3366 4563 
z
" transform="scale(0.015625)"/>
       </defs>
       <use xlink:href="#DejaVuSans-36"/>
       <use xlink:href="#DejaVuSans-30" x="63.623047"/>
      </g>
     </g>
    </g>
    <g id="xtick_5">
     <g id="text_5">
      <!-- 80 -->
      <g transform="translate(536.720029 366.30265) scale(0.08 -0.08)">
       <defs>
        <path id="DejaVuSans-38" d="M 2034 2216 
Q 1584 2216 1326 1975 
Q 1069 1734 1069 1313 
Q 1069 891 1326 650 
Q 1584 409 2034 409 
Q 2484 409 2743 651 
Q 3003 894 3003 1313 
Q 3003 1734 2745 1975 
Q 2488 2216 2034 2216 
z
M 1403 2484 
Q 997 2584 770 2862 
Q 544 3141 544 3541 
Q 544 4100 942 4425 
Q 1341 4750 2034 4750 
Q 2731 4750 3128 4425 
Q 3525 4100 3525 3541 
Q 3525 3141 3298 2862 
Q 3072 2584 2669 2484 
Q 3125 2378 3379 2068 
Q 3634 1759 3634 1313 
Q 3634 634 3220 271 
Q 2806 -91 2034 -91 
Q 1263 -91 848 271 
Q 434 634 434 1313 
Q 434 1759 690 2068 
Q 947 2378 1403 2484 
z
M 1172 3481 
Q 1172 3119 1398 2916 
Q 1625 2713 2034 2713 
Q 2441 2713 2670 2916 
Q 2900 3119 2900 3481 
Q 2900 3844 2670 4047 
Q 2441 4250 2034 4250 
Q 1625 4250 1398 4047 
Q 1172 3844 1172 3481 
z
" transform="scale(0.015625)"/>
       </defs>
       <use xlink:href="#DejaVuSans-38"/>
       <use xlink:href="#DejaVuSans-30" x="63.623047"/>
      </g>
     </g>
    </g>
    <g id="xtick_6">
     <g id="text_6">
      <!-- 100 -->
      <g transform="translate(650.716822 366.30265) scale(0.08 -0.08)">
       <defs>
        <path id="DejaVuSans-31" d="M 794 531 
L 1825 531 
L 1825 4091 
L 703 3866 
L 703 4441 
L 1819 4666 
L 2450 4666 
L 2450 531 
L 3481 531 
L 3481 0 
L 794 0 
L 794 531 
z
" transform="scale(0.015625)"/>
       </defs>
       <use xlink:href="#DejaVuSans-31"/>
       <use xlink:href="#DejaVuSans-30" x="63.623047"/>
       <use xlink:href="#DejaVuSans-30" x="127.246094"/>
      </g>
     </g>
    </g>
    <g id="xtick_7">
     <g id="text_7">
      <!-- 120 -->
      <g transform="translate(767.258616 366.30265) scale(0.08 -0.08)">
       <use xlink:href="#DejaVuSans-31"/>
       <use xlink:href="#DejaVuSans-32" x="63.623047"/>
       <use xlink:href="#DejaVuSans-30" x="127.246094"/>
      </g>
     </g>
    </g>
    <g id="xtick_8">
     <g id="text_8">
      <!-- 140 -->
      <g transform="translate(883.80041 366.30265) scale(0.08 -0.08)">
       <use xlink:href="#DejaVuSans-31"/>
       <use xlink:href="#DejaVuSans-34" x="63.623047"/>
       <use xlink:href="#DejaVuSans-30" x="127.246094"/>
      </g>
     </g>
    </g>
    <g id="text_9">
     <!-- Position (bp) -->
     <g transform="translate(484.285 379.564837) scale(0.1 -0.1)">
      <defs>
       <path id="DejaVuSans-50" d="M 1259 4147 
L 1259 2394 
L 2053 2394 
Q 2494 2394 2734 2622 
Q 2975 2850 2975 3272 
Q 2975 3691 2734 3919 
Q 2494 4147 2053 4147 
L 1259 4147 
z
M 628 4666 
L 2053 4666 
Q 2838 4666 3239 4311 
Q 3641 3956 3641 3272 
Q 3641 2581 3239 2228 
Q 2838 1875 2053 1875 
L 1259 1875 
L 1259 0 
L 628 0 
L 628 4666 
z
" transform="scale(0.015625)"/>
       <path id="DejaVuSans-6f" d="M 1959 3097 
Q 1497 3097 1228 2736 
Q 959 2375 959 1747 
Q 959 1119 1226 758 
Q 1494 397 1959 397 
Q 2419 397 2687 759 
Q 2956 1122 2956 1747 
Q 2956 2369 2687 2733 
Q 2419 3097 1959 3097 
z
M 1959 3584 
Q 2709 3584 3137 3096 
Q 3566 2609 3566 1747 
Q 3566 888 3137 398 
Q 2709 -91 1959 -91 
Q 1206 -91 779 398 
Q 353 888 353 1747 
Q 353 2609 779 3096 
Q 1206 3584 1959 3584 
z
" transform="scale(0.015625)"/>
       <path id="DejaVuSans-73" d="M 2834 3397 
L 2834 2853 
Q 2591 2978 2328 3040 
Q 2066 3103 1784 3103 
Q 1356 3103 1142 2972 
Q 928 2841 928 2578 
Q 928 2378 1081 2264 
Q 1234 2150 1697 2047 
L 1894 2003 
Q 2506 1872 2764 1633 
Q 3022 1394 3022 966 
Q 3022 478 2636 193 
Q 2250 -91 1575 -91 
Q 1294 -91 989 -36 
Q 684 19 347 128 
L 347 722 
Q 666 556 975 473 
Q 1284 391 1588 391 
Q 1994 391 2212 530 
Q 2431 669 2431 922 
Q 2431 1156 2273 1281 
Q 2116 1406 1581 1522 
L 1381 1569 
Q 847 1681 609 1914 
Q 372 2147 372 2553 
Q 372 3047 722 3315 
Q 1072 3584 1716 3584 
Q 2034 3584 2315 3537 
Q 2597 3491 2834 3397 
z
" transform="scale(0.015625)"/>
       <path id="DejaVuSans-69" d="M 603 3500 
L 1178 3500 
L 1178 0 
L 603 0 
L 603 3500 
z
M 603 4863 
L 1178 4863 
L 1178 4134 
L 603 4134 
L 603 4863 
z
" transform="scale(0.015625)"/>
       <path id="DejaVuSans-74" d="M 1172 4494 
L 1172 3500 
L 2356 3500 
L 2356 3053 
L 1172 3053 
L 1172 1153 
Q 1172 725 1289 603 
Q 1406 481 1766 481 
L 2356 481 
L 2356 0 
L 1766 0 
Q 1100 0 847 248 
Q 594 497 594 1153 
L 594 3053 
L 172 3053 
L 172 3500 
L 594 3500 
L 594 4494 
L 1172 4494 
z
" transform="scale(0.015625)"/>
       <path id="DejaVuSans-6e" d="M 3513 2113 
L 3513 0 
L 2938 0 
L 2938 2094 
Q 2938 2591 2744 2837 
Q 2550 3084 2163 3084 
Q 1697 3084 1428 2787 
Q 1159 2491 1159 1978 
L 1159 0 
L 581 0 
L 581 3500 
L 1159 3500 
L 1159 2956 
Q 1366 3272 1645 3428 
Q 1925 3584 2291 3584 
Q 2894 3584 3203 3211 
Q 3513 2838 3513 2113 
z
" transform="scale(0.015625)"/>
       <path id="DejaVuSans-20" transform="scale(0.015625)"/>
       <path id="DejaVuSans-28" d="M 1984 4856 
Q 1566 4138 1362 3434 
Q 1159 2731 1159 2009 
Q 1159 1288 1364 580 
Q 1569 -128 1984 -844 
L 1484 -844 
Q 1016 -109 783 600 
Q 550 1309 550 2009 
Q 550 2706 781 3412 
Q 1013 4119 1484 4856 
L 1984 4856 
z
" transform="scale(0.015625)"/>
       <path id="DejaVuSans-62" d="M 3116 1747 
Q 3116 2381 2855 2742 
Q 2594 3103 2138 3103 
Q 1681 3103 1420 2742 
Q 1159 2381 1159 1747 
Q 1159 1113 1420 752 
Q 1681 391 2138 391 
Q 2594 391 2855 752 
Q 3116 1113 3116 1747 
z
M 1159 2969 
Q 1341 3281 1617 3432 
Q 1894 3584 2278 3584 
Q 2916 3584 3314 3078 
Q 3713 2572 3713 1747 
Q 3713 922 3314 415 
Q 2916 -91 2278 -91 
Q 1894 -91 1617 61 
Q 1341 213 1159 525 
L 1159 0 
L 581 0 
L 581 4863 
L 1159 4863 
L 1159 2969 
z
" transform="scale(0.015625)"/>
       <path id="DejaVuSans-70" d="M 1159 525 
L 1159 -1331 
L 581 -1331 
L 581 3500 
L 1159 3500 
L 1159 2969 
Q 1341 3281 1617 3432 
Q 1894 3584 2278 3584 
Q 2916 3584 3314 3078 
Q 3713 2572 3713 1747 
Q 3713 922 3314 415 
Q 2916 -91 2278 -91 
Q 1894 -91 1617 61 
Q 1341 213 1159 525 
z
M 3116 1747 
Q 3116 2381 2855 2742 
Q 2594 3103 2138 3103 
Q 1681 3103 1420 2742 
Q 1159 2381 1159 1747 
Q 1159 1113 1420 752 
Q 1681 391 2138 391 
Q 2594 391 2855 752 
Q 3116 1113 3116 1747 
z
" transform="scale(0.015625)"/>
       <path id="DejaVuSans-29" d="M 513 4856 
L 1013 4856 
Q 1481 4119 1714 3412 
Q 1947 2706 1947 2009 
Q 1947 1309 1714 600 
Q 1481 -109 1013 -844 
L 513 -844 
Q 928 -128 1133 580 
Q 1338 1288 1338 2009 
Q 1338 2731 1133 3434 
Q 928 4138 513 4856 
z
" transform="scale(0.015625)"/>
      </defs>
      <use xlink:href="#DejaVuSans-50"/>
      <use xlink:href="#DejaVuSans-6f" x="56.677734"/>
      <use xlink:href="#DejaVuSans-73" x="117.859375"/>
      <use xlink:href="#DejaVuSans-69" x="169.958984"/>
      <use xlink:href="#DejaVuSans-74" x="197.742188"/>
      <use xlink:href="#DejaVuSans-69" x="236.951172"/>
      <use xlink:href="#DejaVuSans-6f" x="264.734375"/>
      <use xlink:href="#DejaVuSans-6e" x="325.916016"/>
      <use xlink:href="#DejaVuSans-20" x="389.294922"/>
      <use xlink:href="#DejaVuSans-28" x="421.082031"/>
      <use xlink:href="#DejaVuSans-62" x="460.095703"/>
      <use xlink:href="#DejaVuSans-70" x="523.572266"/>
      <use xlink:href="#DejaVuSans-29" x="587.048828"/>
     </g>
    </g>
   </g>
   <g id="matplotlib.axis_2">
    <g id="ytick_1">
     <g id="line2d_1">
      <path d="M 38.058125 353.2239 
L 993.118125 353.2239 
" clip-path="url(#pf9c926378a)" style="fill: none; stroke: #dedede; stroke-linecap: square"/>
     </g>
     <g id="text_10">
      <!-- 0 -->
      <g transform="translate(25.968125 356.263275) scale(0.08 -0.08)">
       <use xlink:href="#DejaVuSans-30"/>
      </g>
     </g>
    </g>
    <g id="ytick_2">
     <g id="line2d_2">
      <path d="M 38.058125 310.009106 
L 993.118125 310.009106 
" clip-path="url(#pf9c926378a)" style="fill: none; stroke: #dedede; stroke-linecap: square"/>
     </g>
     <g id="text_11">
      <!-- 5 -->
      <g transform="translate(25.968125 313.048481) scale(0.08 -0.08)">
       <defs>
        <path id="DejaVuSans-35" d="M 691 4666 
L 3169 4666 
L 3169 4134 
L 1269 4134 
L 1269 2991 
Q 1406 3038 1543 3061 
Q 1681 3084 1819 3084 
Q 2600 3084 3056 2656 
Q 3513 2228 3513 1497 
Q 3513 744 3044 326 
Q 2575 -91 1722 -91 
Q 1428 -91 1123 -41 
Q 819 9 494 109 
L 494 744 
Q 775 591 1075 516 
Q 1375 441 1709 441 
Q 2250 441 2565 725 
Q 2881 1009 2881 1497 
Q 2881 1984 2565 2268 
Q 2250 2553 1709 2553 
Q 1456 2553 1204 2497 
Q 953 2441 691 2322 
L 691 4666 
z
" transform="scale(0.015625)"/>
       </defs>
       <use xlink:href="#DejaVuSans-35"/>
      </g>
     </g>
    </g>
    <g id="ytick_3">
     <g id="line2d_3">
      <path d="M 38.058125 266.794312 
L 993.118125 266.794312 
" clip-path="url(#pf9c926378a)" style="fill: none; stroke: #dedede; stroke-linecap: square"/>
     </g>
     <g id="text_12">
      <!-- 10 -->
      <g transform="translate(20.878125 269.833687) scale(0.08 -0.08)">
       <use xlink:href="#DejaVuSans-31"/>
       <use xlink:href="#DejaVuSans-30" x="63.623047"/>
      </g>
     </g>
    </g>
    <g id="ytick_4">
     <g id="line2d_4">
      <path d="M 38.058125 223.579518 
L 993.118125 223.579518 
" clip-path="url(#pf9c926378a)" style="fill: none; stroke: #dedede; stroke-linecap: square"/>
     </g>
     <g id="text_13">
      <!-- 15 -->
      <g transform="translate(20.878125 226.618893) scale(0.08 -0.08)">
       <use xlink:href="#DejaVuSans-31"/>
       <use xlink:href="#DejaVuSans-35" x="63.623047"/>
      </g>
     </g>
    </g>
    <g id="ytick_5">
     <g id="line2d_5">
      <path d="M 38.058125 180.364724 
L 993.118125 180.364724 
" clip-path="url(#pf9c926378a)" style="fill: none; stroke: #dedede; stroke-linecap: square"/>
     </g>
     <g id="text_14">
      <!-- 20 -->
      <g transform="translate(20.878125 183.404099) scale(0.08 -0.08)">
       <use xlink:href="#DejaVuSans-32"/>
       <use xlink:href="#DejaVuSans-30" x="63.623047"/>
      </g>
     </g>
    </g>
    <g id="ytick_6">
     <g id="line2d_6">
      <path d="M 38.058125 137.14993 
L 993.118125 137.14993 
" clip-path="url(#pf9c926378a)" style="fill: none; stroke: #dedede; stroke-linecap: square"/>
     </g>
     <g id="text_15">
      <!-- 25 -->
      <g transform="translate(20.878125 140.189305) scale(0.08 -0.08)">
       <use xlink:href="#DejaVuSans-32"/>
       <use xlink:href="#DejaVuSans-35" x="63.623047"/>
      </g>
     </g>
    </g>
    <g id="ytick_7">
     <g id="line2d_7">
      <path d="M 38.058125 93.935136 
L 993.118125 93.935136 
" clip-path="url(#pf9c926378a)" style="fill: none; stroke: #dedede; stroke-linecap: square"/>
     </g>
     <g id="text_16">
      <!-- 30 -->
      <g transform="translate(20.878125 96.974511) scale(0.08 -0.08)">
       <defs>
        <path id="DejaVuSans-33" d="M 2597 2516 
Q 3050 2419 3304 2112 
Q 3559 1806 3559 1356 
Q 3559 666 3084 287 
Q 2609 -91 1734 -91 
Q 1441 -91 1130 -33 
Q 819 25 488 141 
L 488 750 
Q 750 597 1062 519 
Q 1375 441 1716 441 
Q 2309 441 2620 675 
Q 2931 909 2931 1356 
Q 2931 1769 2642 2001 
Q 2353 2234 1838 2234 
L 1294 2234 
L 1294 2753 
L 1863 2753 
Q 2328 2753 2575 2939 
Q 2822 3125 2822 3475 
Q 2822 3834 2567 4026 
Q 2313 4219 1838 4219 
Q 1578 4219 1281 4162 
Q 984 4106 628 3988 
L 628 4550 
Q 988 4650 1302 4700 
Q 1616 4750 1894 4750 
Q 2613 4750 3031 4423 
Q 3450 4097 3450 3541 
Q 3450 3153 3228 2886 
Q 3006 2619 2597 2516 
z
" transform="scale(0.015625)"/>
       </defs>
       <use xlink:href="#DejaVuSans-33"/>
       <use xlink:href="#DejaVuSans-30" x="63.623047"/>
      </g>
     </g>
    </g>
    <g id="ytick_8">
     <g id="line2d_8">
      <path d="M 38.058125 50.720342 
L 993.118125 50.720342 
" clip-path="url(#pf9c926378a)" style="fill: none; stroke: #dedede; stroke-linecap: square"/>
     </g>
     <g id="text_17">
      <!-- 35 -->
      <g transform="translate(20.878125 53.759717) scale(0.08 -0.08)">
       <use xlink:href="#DejaVuSans-33"/>
       <use xlink:href="#DejaVuSans-35" x="63.623047"/>
      </g>
     </g>
    </g>
    <g id="text_18">
     <!-- Phred Score -->
     <g transform="translate(14.798438 224.20865) rotate(-90) scale(0.1 -0.1)">
      <defs>
       <path id="DejaVuSans-68" d="M 3513 2113 
L 3513 0 
L 2938 0 
L 2938 2094 
Q 2938 2591 2744 2837 
Q 2550 3084 2163 3084 
Q 1697 3084 1428 2787 
Q 1159 2491 1159 1978 
L 1159 0 
L 581 0 
L 581 4863 
L 1159 4863 
L 1159 2956 
Q 1366 3272 1645 3428 
Q 1925 3584 2291 3584 
Q 2894 3584 3203 3211 
Q 3513 2838 3513 2113 
z
" transform="scale(0.015625)"/>
       <path id="DejaVuSans-72" d="M 2631 2963 
Q 2534 3019 2420 3045 
Q 2306 3072 2169 3072 
Q 1681 3072 1420 2755 
Q 1159 2438 1159 1844 
L 1159 0 
L 581 0 
L 581 3500 
L 1159 3500 
L 1159 2956 
Q 1341 3275 1631 3429 
Q 1922 3584 2338 3584 
Q 2397 3584 2469 3576 
Q 2541 3569 2628 3553 
L 2631 2963 
z
" transform="scale(0.015625)"/>
       <path id="DejaVuSans-65" d="M 3597 1894 
L 3597 1613 
L 953 1613 
Q 991 1019 1311 708 
Q 1631 397 2203 397 
Q 2534 397 2845 478 
Q 3156 559 3463 722 
L 3463 178 
Q 3153 47 2828 -22 
Q 2503 -91 2169 -91 
Q 1331 -91 842 396 
Q 353 884 353 1716 
Q 353 2575 817 3079 
Q 1281 3584 2069 3584 
Q 2775 3584 3186 3129 
Q 3597 2675 3597 1894 
z
M 3022 2063 
Q 3016 2534 2758 2815 
Q 2500 3097 2075 3097 
Q 1594 3097 1305 2825 
Q 1016 2553 972 2059 
L 3022 2063 
z
" transform="scale(0.015625)"/>
       <path id="DejaVuSans-64" d="M 2906 2969 
L 2906 4863 
L 3481 4863 
L 3481 0 
L 2906 0 
L 2906 525 
Q 2725 213 2448 61 
Q 2172 -91 1784 -91 
Q 1150 -91 751 415 
Q 353 922 353 1747 
Q 353 2572 751 3078 
Q 1150 3584 1784 3584 
Q 2172 3584 2448 3432 
Q 2725 3281 2906 2969 
z
M 947 1747 
Q 947 1113 1208 752 
Q 1469 391 1925 391 
Q 2381 391 2643 752 
Q 2906 1113 2906 1747 
Q 2906 2381 2643 2742 
Q 2381 3103 1925 3103 
Q 1469 3103 1208 2742 
Q 947 2381 947 1747 
z
" transform="scale(0.015625)"/>
       <path id="DejaVuSans-53" d="M 3425 4513 
L 3425 3897 
Q 3066 4069 2747 4153 
Q 2428 4238 2131 4238 
Q 1616 4238 1336 4038 
Q 1056 3838 1056 3469 
Q 1056 3159 1242 3001 
Q 1428 2844 1947 2747 
L 2328 2669 
Q 3034 2534 3370 2195 
Q 3706 1856 3706 1288 
Q 3706 609 3251 259 
Q 2797 -91 1919 -91 
Q 1588 -91 1214 -16 
Q 841 59 441 206 
L 441 856 
Q 825 641 1194 531 
Q 1563 422 1919 422 
Q 2459 422 2753 634 
Q 3047 847 3047 1241 
Q 3047 1584 2836 1778 
Q 2625 1972 2144 2069 
L 1759 2144 
Q 1053 2284 737 2584 
Q 422 2884 422 3419 
Q 422 4038 858 4394 
Q 1294 4750 2059 4750 
Q 2388 4750 2728 4690 
Q 3069 4631 3425 4513 
z
" transform="scale(0.015625)"/>
       <path id="DejaVuSans-63" d="M 3122 3366 
L 3122 2828 
Q 2878 2963 2633 3030 
Q 2388 3097 2138 3097 
Q 1578 3097 1268 2742 
Q 959 2388 959 1747 
Q 959 1106 1268 751 
Q 1578 397 2138 397 
Q 2388 397 2633 464 
Q 2878 531 3122 666 
L 3122 134 
Q 2881 22 2623 -34 
Q 2366 -91 2075 -91 
Q 1284 -91 818 406 
Q 353 903 353 1747 
Q 353 2603 823 3093 
Q 1294 3584 2113 3584 
Q 2378 3584 2631 3529 
Q 2884 3475 3122 3366 
z
" transform="scale(0.015625)"/>
      </defs>
      <use xlink:href="#DejaVuSans-50"/>
      <use xlink:href="#DejaVuSans-68" x="60.302734"/>
      <use xlink:href="#DejaVuSans-72" x="123.681641"/>
      <use xlink:href="#DejaVuSans-65" x="162.544922"/>
      <use xlink:href="#DejaVuSans-64" x="224.068359"/>
      <use xlink:href="#DejaVuSans-20" x="287.544922"/>
      <use xlink:href="#DejaVuSans-53" x="319.332031"/>
      <use xlink:href="#DejaVuSans-63" x="382.808594"/>
      <use xlink:href="#DejaVuSans-6f" x="437.789062"/>
      <use xlink:href="#DejaVuSans-72" x="498.970703"/>
      <use xlink:href="#DejaVuSans-65" x="537.833984"/>
     </g>
    </g>
   </g>
   <g id="line2d_9">
    <path d="M 81.469943 44.163481 
L 87.297033 43.27422 
L 93.124123 39.967412 
L 98.951212 38.994819 
L 104.778302 38.224903 
L 110.605392 37.894291 
L 116.432481 38.858875 
L 122.259571 38.648639 
L 128.086661 37.714222 
L 145.56793 38.076491 
L 174.703378 37.996714 
L 203.838827 38.472911 
L 232.974275 38.999157 
L 262.109724 39.651551 
L 291.245172 39.866162 
L 320.38062 40.423935 
L 349.516069 41.415809 
L 378.651517 41.476366 
L 407.786966 41.985926 
L 436.922414 42.750088 
L 466.057863 43.372868 
L 495.193311 45.861202 
L 524.32876 42.734058 
L 553.464208 42.859279 
L 582.599656 43.079446 
L 611.735105 43.99874 
L 640.870553 44.923841 
L 670.006002 44.229715 
L 699.14145 44.613579 
L 728.276899 44.987378 
L 757.412347 45.545522 
L 786.547796 46.177777 
L 815.683244 46.615925 
L 844.818692 47.627225 
L 873.954141 48.191862 
L 903.089589 48.793647 
L 932.225038 48.9864 
L 949.706307 45.008422 
" clip-path="url(#pf9c926378a)" style="fill: none; stroke: #5cb85c; stroke-linecap: square"/>
   </g>
   <g id="line2d_10">
    <path d="M 81.469943 45.578951 
L 87.297033 42.483146 
L 93.124123 42.824476 
L 98.951212 42.343021 
L 104.778302 42.139713 
L 110.605392 42.293993 
L 116.432481 43.200303 
L 122.259571 43.775973 
L 128.086661 43.905501 
L 145.56793 44.736157 
L 174.703378 45.56034 
L 203.838827 46.265875 
L 232.974275 49.158657 
L 262.109724 49.945554 
L 291.245172 51.332075 
L 320.38062 51.538218 
L 349.516069 52.415086 
L 378.651517 54.687558 
L 407.786966 52.985562 
L 436.922414 52.09328 
L 466.057863 53.470262 
L 495.193311 56.878631 
L 524.32876 60.22017 
L 553.464208 55.616248 
L 582.599656 52.713325 
L 611.735105 51.133194 
L 640.870553 50.508361 
L 670.006002 50.733862 
L 699.14145 50.871617 
L 728.276899 51.702374 
L 757.412347 52.538116 
L 786.547796 53.188096 
L 815.683244 54.278105 
L 844.818692 55.176151 
L 873.954141 56.336509 
L 903.089589 57.211561 
L 932.225038 57.794851 
L 949.706307 50.682767 
" clip-path="url(#pf9c926378a)" style="fill: none; stroke: #5cb85c; stroke-linecap: square"/>
   </g>
   <g id="line2d_11">
    <path d="M 81.469943 43.353841 
L 87.297033 43.578235 
L 93.124123 40.304681 
L 98.951212 39.373095 
L 104.778302 38.673874 
L 110.605392 38.348879 
L 116.432481 39.350189 
L 122.259571 39.108719 
L 128.086661 38.098276 
L 145.56793 38.545756 
L 174.703378 38.50835 
L 203.838827 39.03104 
L 232.974275 39.508381 
L 262.109724 40.177829 
L 291.245172 40.340336 
L 320.38062 40.793707 
L 349.516069 41.88148 
L 378.651517 42.152925 
L 407.786966 42.684919 
L 436.922414 43.534914 
L 466.057863 44.036326 
L 495.193311 46.036685 
L 524.32876 43.397602 
L 553.464208 43.561028 
L 582.599656 43.765776 
L 611.735105 44.566206 
L 640.870553 45.40733 
L 670.006002 45.102386 
L 699.14145 45.574282 
L 728.276899 45.954909 
L 757.412347 46.547149 
L 786.547796 47.146794 
L 815.683244 47.59428 
L 844.818692 48.554317 
L 873.954141 49.183568 
L 903.089589 49.74385 
L 932.225038 49.95561 
L 949.706307 45.490484 
" clip-path="url(#pf9c926378a)" style="fill: none; stroke: #5cb85c; stroke-linecap: square"/>
   </g>
   <g id="line2d_12">
    <path d="M 81.469943 44.264166 
L 87.297033 41.911927 
L 93.124123 41.795141 
L 98.951212 41.283563 
L 104.778302 41.17601 
L 110.605392 41.452525 
L 116.432481 42.237096 
L 122.259571 42.402293 
L 128.086661 42.914641 
L 145.56793 43.569718 
L 174.703378 44.297295 
L 203.838827 45.142892 
L 232.974275 47.829858 
L 262.109724 48.667226 
L 291.245172 49.840867 
L 320.38062 50.239543 
L 349.516069 51.118486 
L 378.651517 53.177334 
L 407.786966 51.875134 
L 436.922414 50.97112 
L 466.057863 52.139715 
L 495.193311 55.480417 
L 524.32876 58.376605 
L 553.464208 54.443456 
L 582.599656 51.799743 
L 611.735105 50.166066 
L 640.870553 49.890646 
L 670.006002 50.136703 
L 699.14145 50.408824 
L 728.276899 50.969363 
L 757.412347 51.867712 
L 786.547796 52.521847 
L 815.683244 53.50102 
L 844.818692 54.500091 
L 873.954141 55.689756 
L 903.089589 56.451267 
L 932.225038 56.845564 
L 949.706307 49.873005 
" clip-path="url(#pf9c926378a)" style="fill: none; stroke: #5cb85c; stroke-linecap: square"/>
   </g>
   <g id="line2d_13">
    <path d="M 81.469943 45.820033 
L 87.297033 44.453328 
L 93.124123 41.044557 
L 98.951212 39.616665 
L 104.778302 38.665323 
L 110.605392 38.097419 
L 116.432481 39.051243 
L 122.259571 39.165661 
L 128.086661 37.730844 
L 145.56793 38.308581 
L 174.703378 38.097077 
L 203.838827 38.582077 
L 232.974275 39.275188 
L 262.109724 39.807222 
L 291.245172 40.494865 
L 320.38062 40.807323 
L 349.516069 42.465446 
L 378.651517 42.395925 
L 407.786966 43.156189 
L 436.922414 43.995883 
L 466.057863 44.315528 
L 495.193311 47.882303 
L 524.32876 44.194091 
L 553.464208 44.219292 
L 582.599656 44.301542 
L 611.735105 45.362027 
L 640.870553 46.271945 
L 670.006002 45.552705 
L 699.14145 45.785979 
L 728.276899 46.466728 
L 757.412347 46.957216 
L 786.547796 47.762008 
L 815.683244 48.257018 
L 844.818692 49.360217 
L 873.954141 50.075875 
L 903.089589 50.485789 
L 932.225038 50.516784 
L 949.706307 45.910853 
" clip-path="url(#pf9c926378a)" style="fill: none; stroke: #5cb85c; stroke-linecap: square"/>
   </g>
   <g id="line2d_14">
    <path d="M 81.469943 44.96875 
L 87.297033 41.463311 
L 93.124123 41.31354 
L 98.951212 40.875856 
L 104.778302 40.675362 
L 110.605392 40.676883 
L 116.432481 41.527534 
L 122.259571 42.223543 
L 128.086661 42.390342 
L 145.56793 43.63051 
L 174.703378 44.292655 
L 203.838827 44.921146 
L 232.974275 48.490048 
L 262.109724 49.432864 
L 291.245172 51.287043 
L 320.38062 51.969585 
L 349.516069 52.79604 
L 378.651517 55.465556 
L 407.786966 53.650326 
L 436.922414 52.536349 
L 466.057863 53.90209 
L 495.193311 57.877232 
L 524.32876 61.895404 
L 553.464208 56.717435 
L 582.599656 53.742331 
L 611.735105 52.301098 
L 640.870553 51.57391 
L 670.006002 51.485991 
L 699.14145 51.509919 
L 728.276899 52.610333 
L 757.412347 53.596845 
L 786.547796 54.102709 
L 815.683244 55.122036 
L 844.818692 55.827336 
L 873.954141 57.090315 
L 903.089589 58.080372 
L 932.225038 58.685493 
L 949.706307 50.977955 
" clip-path="url(#pf9c926378a)" style="fill: none; stroke: #5cb85c; stroke-linecap: square"/>
   </g>
   <g id="line2d_15">
    <path d="M 81.469943 48.240881 
L 87.297033 46.606491 
L 93.124123 42.104876 
L 98.951212 40.038661 
L 104.778302 38.968113 
L 110.605392 38.440993 
L 116.432481 39.515893 
L 122.259571 39.514638 
L 128.086661 37.988896 
L 145.56793 38.139245 
L 174.703378 37.902986 
L 203.838827 38.284798 
L 232.974275 38.816157 
L 262.109724 39.616874 
L 291.245172 39.966134 
L 320.38062 40.52434 
L 349.516069 42.548027 
L 378.651517 46.18354 
L 407.786966 46.538805 
L 436.922414 47.205326 
L 466.057863 47.24289 
L 495.193311 49.093374 
L 524.32876 43.918367 
L 553.464208 43.650429 
L 582.599656 43.753709 
L 611.735105 44.834913 
L 640.870553 46.407035 
L 670.006002 44.618474 
L 699.14145 44.975605 
L 728.276899 45.491279 
L 757.412347 46.079709 
L 786.547796 46.912363 
L 815.683244 47.389968 
L 844.818692 48.706826 
L 873.954141 49.283529 
L 903.089589 49.761226 
L 932.225038 49.895785 
L 949.706307 45.777208 
" clip-path="url(#pf9c926378a)" style="fill: none; stroke: #5cb85c; stroke-linecap: square"/>
   </g>
   <g id="line2d_16">
    <path d="M 81.469943 45.883984 
L 87.297033 42.588818 
L 93.124123 42.578256 
L 98.951212 41.954219 
L 104.778302 41.834903 
L 110.605392 41.576217 
L 116.432481 42.900169 
L 122.259571 43.835405 
L 128.086661 43.750994 
L 145.56793 45.603428 
L 174.703378 46.04916 
L 203.838827 46.676651 
L 232.974275 50.628617 
L 262.109724 51.604297 
L 291.245172 54.2378 
L 320.38062 53.397603 
L 349.516069 54.86805 
L 378.651517 58.219188 
L 407.786966 55.720663 
L 436.922414 54.473348 
L 466.057863 56.28556 
L 495.193311 61.016173 
L 524.32876 65.771492 
L 553.464208 59.277942 
L 582.599656 55.205109 
L 611.735105 53.214122 
L 640.870553 51.889836 
L 670.006002 51.851714 
L 699.14145 51.901481 
L 728.276899 53.298201 
L 757.412347 54.102678 
L 786.547796 54.386417 
L 815.683244 55.856051 
L 844.818692 56.778917 
L 873.954141 58.260287 
L 903.089589 59.452934 
L 932.225038 60.35001 
L 949.706307 51.878737 
" clip-path="url(#pf9c926378a)" style="fill: none; stroke: #5cb85c; stroke-linecap: square"/>
   </g>
   <g id="line2d_17">
    <path d="M 81.469943 46.549565 
L 87.297033 43.833121 
L 93.124123 39.713622 
L 98.951212 38.555812 
L 104.778302 37.59345 
L 110.605392 37.303222 
L 116.432481 38.358895 
L 122.259571 38.255025 
L 128.086661 37.023672 
L 145.56793 37.358987 
L 174.703378 37.218959 
L 203.838827 37.619758 
L 232.974275 38.127746 
L 262.109724 38.923834 
L 291.245172 39.318514 
L 320.38062 40.120917 
L 349.516069 41.180374 
L 378.651517 41.166486 
L 407.786966 41.636174 
L 436.922414 42.453453 
L 466.057863 43.824812 
L 495.193311 47.746957 
L 524.32876 42.793688 
L 553.464208 43.062515 
L 582.599656 43.336286 
L 611.735105 44.426811 
L 640.870553 45.926469 
L 670.006002 44.602283 
L 699.14145 44.989275 
L 728.276899 45.585114 
L 757.412347 46.132176 
L 786.547796 46.962559 
L 815.683244 47.543444 
L 844.818692 48.761398 
L 873.954141 49.433841 
L 903.089589 49.932585 
L 932.225038 49.998768 
L 949.706307 45.683422 
" clip-path="url(#pf9c926378a)" style="fill: none; stroke: #5cb85c; stroke-linecap: square"/>
   </g>
   <g id="line2d_18">
    <path d="M 81.469943 46.217272 
L 87.297033 41.769574 
L 93.124123 41.679256 
L 98.951212 41.409802 
L 104.778302 41.167355 
L 110.605392 40.888287 
L 116.432481 41.894961 
L 122.259571 42.617312 
L 128.086661 42.43849 
L 145.56793 44.073904 
L 174.703378 44.621936 
L 203.838827 45.241826 
L 232.974275 48.925147 
L 262.109724 49.888297 
L 291.245172 52.9292 
L 320.38062 52.940227 
L 349.516069 53.762211 
L 378.651517 56.790209 
L 407.786966 54.394381 
L 436.922414 53.341488 
L 466.057863 55.028645 
L 495.193311 59.722677 
L 524.32876 64.434612 
L 553.464208 58.339471 
L 582.599656 54.508634 
L 611.735105 52.703781 
L 640.870553 51.627938 
L 670.006002 51.681061 
L 699.14145 52.12105 
L 728.276899 53.528539 
L 757.412347 54.451188 
L 786.547796 55.009253 
L 815.683244 56.627663 
L 844.818692 57.634668 
L 873.954141 59.177872 
L 903.089589 60.481817 
L 932.225038 61.425943 
L 949.706307 52.643935 
" clip-path="url(#pf9c926378a)" style="fill: none; stroke: #5cb85c; stroke-linecap: square"/>
   </g>
   <g id="line2d_19">
    <path d="M 81.469943 47.270102 
L 87.297033 45.231847 
L 93.124123 41.14424 
L 98.951212 39.402546 
L 104.778302 38.403048 
L 110.605392 37.917098 
L 116.432481 38.7841 
L 122.259571 38.834571 
L 128.086661 37.51843 
L 145.56793 37.68651 
L 174.703378 37.405525 
L 203.838827 37.661695 
L 232.974275 38.076801 
L 262.109724 38.677728 
L 291.245172 38.982033 
L 320.38062 39.491941 
L 349.516069 41.002276 
L 378.651517 40.82369 
L 407.786966 41.265436 
L 436.922414 42.083238 
L 466.057863 42.552557 
L 495.193311 46.70505 
L 524.32876 41.723086 
L 553.464208 41.665178 
L 582.599656 41.773588 
L 611.735105 42.730672 
L 640.870553 44.106266 
L 670.006002 42.314223 
L 699.14145 42.642766 
L 728.276899 43.070613 
L 757.412347 43.563469 
L 786.547796 44.276218 
L 815.683244 44.704494 
L 844.818692 45.868821 
L 873.954141 46.411211 
L 903.089589 46.935414 
L 932.225038 47.227423 
L 949.706307 44.113473 
" clip-path="url(#pf9c926378a)" style="fill: none; stroke: #5cb85c; stroke-linecap: square"/>
   </g>
   <g id="line2d_20">
    <path d="M 81.469943 43.681902 
L 87.297033 40.800385 
L 93.124123 40.790703 
L 98.951212 40.262108 
L 104.778302 40.103556 
L 110.605392 39.809309 
L 116.432481 40.992716 
L 122.259571 41.753474 
L 128.086661 41.686511 
L 145.56793 43.473562 
L 174.703378 43.950259 
L 203.838827 44.425452 
L 232.974275 48.09201 
L 262.109724 48.710618 
L 291.245172 50.691009 
L 320.38062 50.34159 
L 349.516069 51.343414 
L 378.651517 54.421418 
L 407.786966 51.954373 
L 436.922414 50.459264 
L 466.057863 52.101577 
L 495.193311 56.545151 
L 524.32876 61.146958 
L 553.464208 54.602044 
L 582.599656 50.53715 
L 611.735105 48.825369 
L 640.870553 47.540633 
L 670.006002 47.675096 
L 699.14145 47.195408 
L 728.276899 48.149045 
L 757.412347 48.804933 
L 786.547796 49.073422 
L 815.683244 50.216442 
L 844.818692 51.063366 
L 873.954141 52.379078 
L 903.089589 53.448486 
L 932.225038 54.434687 
L 949.706307 48.663692 
" clip-path="url(#pf9c926378a)" style="fill: none; stroke: #5cb85c; stroke-linecap: square"/>
   </g>
   <g id="line2d_21">
    <path d="M 81.469943 42.811633 
L 87.297033 43.566024 
L 93.124123 40.651635 
L 98.951212 39.815947 
L 104.778302 39.006566 
L 110.605392 38.690263 
L 116.432481 39.740453 
L 122.259571 39.53005 
L 128.086661 38.621353 
L 145.56793 39.043633 
L 174.703378 39.009123 
L 203.838827 39.71387 
L 232.974275 40.660766 
L 262.109724 41.495999 
L 291.245172 41.871893 
L 320.38062 42.283415 
L 349.516069 43.529906 
L 378.651517 44.125529 
L 407.786966 44.571387 
L 436.922414 45.361914 
L 466.057863 46.345166 
L 495.193311 47.907883 
L 524.32876 45.920146 
L 553.464208 46.390677 
L 582.599656 46.436063 
L 611.735105 47.766897 
L 640.870553 48.24681 
L 670.006002 48.480303 
L 699.14145 49.279636 
L 728.276899 49.493929 
L 757.412347 50.509129 
L 786.547796 51.208876 
L 815.683244 51.66032 
L 844.818692 52.654989 
L 873.954141 53.439789 
L 903.089589 54.400059 
L 932.225038 54.52743 
L 949.706307 48.394174 
" clip-path="url(#pf9c926378a)" style="fill: none; stroke: #5cb85c; stroke-linecap: square"/>
   </g>
   <g id="line2d_22">
    <path d="M 81.469943 45.968705 
L 87.297033 42.522481 
L 93.124123 42.678775 
L 98.951212 42.453269 
L 104.778302 42.102346 
L 110.605392 42.348427 
L 116.432481 43.24412 
L 122.259571 43.504773 
L 128.086661 43.506351 
L 145.56793 43.785722 
L 174.703378 44.657351 
L 203.838827 45.542953 
L 232.974275 47.827644 
L 262.109724 48.553282 
L 291.245172 49.649858 
L 320.38062 50.109107 
L 349.516069 51.228184 
L 378.651517 53.098732 
L 407.786966 51.7581 
L 436.922414 51.128096 
L 466.057863 52.387044 
L 495.193311 55.295072 
L 524.32876 58.197331 
L 553.464208 54.663087 
L 582.599656 52.851336 
L 611.735105 51.552307 
L 640.870553 51.242519 
L 670.006002 51.930722 
L 699.14145 52.091342 
L 728.276899 52.556997 
L 757.412347 53.784185 
L 786.547796 54.735057 
L 815.683244 56.247632 
L 844.818692 57.395706 
L 873.954141 58.661398 
L 903.089589 59.834604 
L 932.225038 59.964889 
L 949.706307 51.777983 
" clip-path="url(#pf9c926378a)" style="fill: none; stroke: #5cb85c; stroke-linecap: square"/>
   </g>
   <g id="line2d_23">
    <path d="M 81.469943 43.721027 
L 87.297033 44.051112 
L 93.124123 40.65364 
L 98.951212 39.750201 
L 104.778302 38.908915 
L 110.605392 38.514474 
L 116.432481 39.535721 
L 122.259571 39.320495 
L 128.086661 38.277733 
L 145.56793 38.848428 
L 174.703378 38.719574 
L 203.838827 39.337606 
L 232.974275 40.284651 
L 262.109724 41.178269 
L 291.245172 41.560189 
L 320.38062 41.91073 
L 349.516069 43.324594 
L 378.651517 44.497304 
L 407.786966 44.781871 
L 436.922414 45.685559 
L 466.057863 47.112533 
L 495.193311 48.696456 
L 524.32876 46.181175 
L 553.464208 46.592855 
L 582.599656 46.441558 
L 611.735105 47.625658 
L 640.870553 48.339991 
L 670.006002 48.220007 
L 699.14145 49.266489 
L 728.276899 49.502033 
L 757.412347 50.566825 
L 786.547796 51.230146 
L 815.683244 51.584148 
L 844.818692 52.55228 
L 873.954141 53.305785 
L 903.089589 54.20606 
L 932.225038 54.275287 
L 949.706307 48.297518 
" clip-path="url(#pf9c926378a)" style="fill: none; stroke: #5cb85c; stroke-linecap: square"/>
   </g>
   <g id="line2d_24">
    <path d="M 81.469943 44.273534 
L 87.297033 41.569172 
L 93.124123 41.505296 
L 98.951212 41.035412 
L 104.778302 40.925221 
L 110.605392 41.094866 
L 116.432481 42.012445 
L 122.259571 42.037749 
L 128.086661 42.246586 
L 145.56793 43.015163 
L 174.703378 43.410912 
L 203.838827 44.191992 
L 232.974275 46.923136 
L 262.109724 47.467569 
L 291.245172 48.670769 
L 320.38062 49.10724 
L 349.516069 50.296779 
L 378.651517 52.427859 
L 407.786966 50.740173 
L 436.922414 50.022423 
L 466.057863 51.442536 
L 495.193311 55.226499 
L 524.32876 58.741157 
L 553.464208 53.841857 
L 582.599656 51.288348 
L 611.735105 49.82601 
L 640.870553 49.416643 
L 670.006002 50.037433 
L 699.14145 50.114632 
L 728.276899 50.518803 
L 757.412347 51.919883 
L 786.547796 52.628109 
L 815.683244 54.20845 
L 844.818692 55.560061 
L 873.954141 57.158463 
L 903.089589 58.52464 
L 932.225038 58.68958 
L 949.706307 50.877154 
" clip-path="url(#pf9c926378a)" style="fill: none; stroke: #5cb85c; stroke-linecap: square"/>
   </g>
   <g id="line2d_25">
    <path d="M 81.469943 42.982046 
L 87.297033 43.224223 
L 93.124123 40.039552 
L 98.951212 39.266936 
L 104.778302 38.643031 
L 110.605392 38.200564 
L 116.432481 39.248353 
L 122.259571 38.974433 
L 128.086661 37.978187 
L 145.56793 38.711486 
L 174.703378 38.536632 
L 203.838827 39.097799 
L 232.974275 40.021665 
L 262.109724 40.898446 
L 291.245172 41.379831 
L 320.38062 41.72552 
L 349.516069 42.91976 
L 378.651517 43.708596 
L 407.786966 44.35496 
L 436.922414 45.013595 
L 466.057863 46.978403 
L 495.193311 48.739294 
L 524.32876 45.975126 
L 553.464208 46.804592 
L 582.599656 46.688858 
L 611.735105 47.828033 
L 640.870553 48.680637 
L 670.006002 48.538601 
L 699.14145 50.025257 
L 728.276899 49.896255 
L 757.412347 51.022163 
L 786.547796 51.865162 
L 815.683244 52.340501 
L 844.818692 52.891429 
L 873.954141 53.774768 
L 903.089589 54.87232 
L 932.225038 54.801916 
L 949.706307 48.748581 
" clip-path="url(#pf9c926378a)" style="fill: none; stroke: #5cb85c; stroke-linecap: square"/>
   </g>
   <g id="line2d_26">
    <path d="M 81.469943 42.860909 
L 87.297033 40.441989 
L 93.124123 40.49239 
L 98.951212 40.372231 
L 104.778302 40.288529 
L 110.605392 40.31569 
L 116.432481 41.11257 
L 122.259571 41.090588 
L 128.086661 41.246397 
L 145.56793 42.037828 
L 174.703378 42.666571 
L 203.838827 43.635624 
L 232.974275 46.289861 
L 262.109724 46.80691 
L 291.245172 47.952596 
L 320.38062 48.129139 
L 349.516069 49.785963 
L 378.651517 51.6743 
L 407.786966 50.103999 
L 436.922414 49.343609 
L 466.057863 50.537057 
L 495.193311 54.144332 
L 524.32876 57.775382 
L 553.464208 52.45856 
L 582.599656 50.17865 
L 611.735105 49.002947 
L 640.870553 48.625686 
L 670.006002 49.244758 
L 699.14145 48.956646 
L 728.276899 49.338473 
L 757.412347 50.924106 
L 786.547796 51.377013 
L 815.683244 53.304694 
L 844.818692 54.537128 
L 873.954141 56.56824 
L 903.089589 58.29474 
L 932.225038 58.014707 
L 949.706307 50.299112 
" clip-path="url(#pf9c926378a)" style="fill: none; stroke: #5cb85c; stroke-linecap: square"/>
   </g>
   <g id="line2d_27">
    <path d="M 81.469943 42.348295 
L 87.297033 42.940319 
L 93.124123 39.7306 
L 98.951212 39.02555 
L 104.778302 38.37382 
L 110.605392 38.0547 
L 116.432481 39.295118 
L 122.259571 39.017352 
L 128.086661 37.999912 
L 145.56793 38.724293 
L 174.703378 38.476104 
L 203.838827 39.083742 
L 232.974275 39.914416 
L 262.109724 40.72622 
L 291.245172 41.126209 
L 320.38062 41.42732 
L 349.516069 42.604453 
L 378.651517 43.178902 
L 407.786966 44.054953 
L 436.922414 44.739177 
L 466.057863 46.648772 
L 495.193311 48.209607 
L 524.32876 45.603862 
L 553.464208 46.380793 
L 582.599656 46.398017 
L 611.735105 47.497006 
L 640.870553 48.308081 
L 670.006002 48.122344 
L 699.14145 49.436567 
L 728.276899 49.193159 
L 757.412347 50.413754 
L 786.547796 51.081673 
L 815.683244 51.393776 
L 844.818692 51.922919 
L 873.954141 52.77522 
L 903.089589 53.878429 
L 932.225038 53.958272 
L 949.706307 48.121465 
" clip-path="url(#pf9c926378a)" style="fill: none; stroke: #5cb85c; stroke-linecap: square"/>
   </g>
   <g id="line2d_28">
    <path d="M 81.469943 43.195332 
L 87.297033 41.178392 
L 93.124123 41.152842 
L 98.951212 40.695343 
L 104.778302 40.477695 
L 110.605392 40.484968 
L 116.432481 41.12651 
L 122.259571 41.284173 
L 128.086661 41.27396 
L 145.56793 41.759975 
L 174.703378 42.343417 
L 203.838827 43.051273 
L 232.974275 45.414716 
L 262.109724 45.91475 
L 291.245172 47.382198 
L 320.38062 47.44844 
L 349.516069 48.843866 
L 378.651517 50.642668 
L 407.786966 49.088437 
L 436.922414 48.340846 
L 466.057863 49.797573 
L 495.193311 53.007177 
L 524.32876 56.574645 
L 553.464208 51.381487 
L 582.599656 49.306151 
L 611.735105 48.339557 
L 640.870553 47.932627 
L 670.006002 48.772289 
L 699.14145 48.304518 
L 728.276899 48.646498 
L 757.412347 50.19848 
L 786.547796 50.711819 
L 815.683244 52.618511 
L 844.818692 53.796216 
L 873.954141 55.824392 
L 903.089589 57.405384 
L 932.225038 57.198968 
L 949.706307 49.982492 
" clip-path="url(#pf9c926378a)" style="fill: none; stroke: #5cb85c; stroke-linecap: square"/>
   </g>
   <g id="line2d_29">
    <path d="M 81.469943 42.766963 
L 87.297033 42.8713 
L 93.124123 39.783561 
L 98.951212 39.071987 
L 104.778302 38.402647 
L 110.605392 38.041646 
L 116.432481 39.27803 
L 122.259571 39.115914 
L 128.086661 38.044497 
L 145.56793 38.652878 
L 174.703378 38.425466 
L 203.838827 39.026626 
L 232.974275 39.897241 
L 262.109724 40.695173 
L 291.245172 41.152238 
L 320.38062 41.475749 
L 349.516069 42.787916 
L 378.651517 43.583937 
L 407.786966 44.290005 
L 436.922414 44.967861 
L 466.057863 46.630213 
L 495.193311 48.264595 
L 524.32876 45.565507 
L 553.464208 46.202966 
L 582.599656 46.081855 
L 611.735105 47.294884 
L 640.870553 48.107535 
L 670.006002 47.97949 
L 699.14145 49.288517 
L 728.276899 49.140009 
L 757.412347 50.259885 
L 786.547796 50.985873 
L 815.683244 51.541296 
L 844.818692 52.018629 
L 873.954141 52.892746 
L 903.089589 54.061203 
L 932.225038 54.114955 
L 949.706307 48.190248 
" clip-path="url(#pf9c926378a)" style="fill: none; stroke: #5cb85c; stroke-linecap: square"/>
   </g>
   <g id="line2d_30">
    <path d="M 81.469943 43.831713 
L 87.297033 40.859063 
L 93.124123 41.215297 
L 98.951212 40.84455 
L 104.778302 40.62272 
L 110.605392 40.640108 
L 116.432481 41.398223 
L 122.259571 41.648569 
L 128.086661 41.647224 
L 145.56793 42.032601 
L 174.703378 42.778765 
L 203.838827 43.548947 
L 232.974275 46.112716 
L 262.109724 46.487588 
L 291.245172 47.595793 
L 320.38062 47.796492 
L 349.516069 49.40062 
L 378.651517 51.275049 
L 407.786966 49.502117 
L 436.922414 48.803471 
L 466.057863 50.177523 
L 495.193311 53.308826 
L 524.32876 57.006633 
L 553.464208 51.891406 
L 582.599656 49.744578 
L 611.735105 48.923247 
L 640.870553 48.43121 
L 670.006002 49.122756 
L 699.14145 48.629506 
L 728.276899 48.974009 
L 757.412347 50.490167 
L 786.547796 50.978545 
L 815.683244 52.89314 
L 844.818692 54.056002 
L 873.954141 55.993208 
L 903.089589 57.701746 
L 932.225038 57.540959 
L 949.706307 50.061662 
" clip-path="url(#pf9c926378a)" style="fill: none; stroke: #5cb85c; stroke-linecap: square"/>
   </g>
   <g id="line2d_31">
    <path d="M 81.469943 42.221695 
L 87.297033 40.519999 
L 93.124123 39.83212 
L 98.951212 38.881531 
L 104.778302 38.355074 
L 110.605392 38.144765 
L 116.432481 39.266649 
L 122.259571 39.179782 
L 128.086661 38.083049 
L 145.56793 38.578993 
L 174.703378 38.33205 
L 203.838827 38.528308 
L 232.974275 38.881167 
L 262.109724 39.18804 
L 291.245172 39.207339 
L 320.38062 39.484165 
L 349.516069 40.123475 
L 378.651517 40.015998 
L 407.786966 40.541726 
L 436.922414 41.067604 
L 466.057863 41.332711 
L 495.193311 43.24538 
L 524.32876 40.286605 
L 553.464208 40.396163 
L 582.599656 40.353332 
L 611.735105 40.730268 
L 640.870553 41.685332 
L 670.006002 41.072919 
L 699.14145 41.719495 
L 728.276899 41.777448 
L 757.412347 42.224522 
L 786.547796 42.634308 
L 815.683244 42.976232 
L 844.818692 43.754932 
L 873.954141 44.372269 
L 903.089589 44.706315 
L 932.225038 45.221291 
L 949.706307 44.021336 
" clip-path="url(#pf9c926378a)" style="fill: none; stroke: #5cb85c; stroke-linecap: square"/>
   </g>
   <g id="line2d_32">
    <path d="M 81.469943 41.201603 
L 87.297033 37.434778 
L 93.124123 38.233083 
L 98.951212 37.691562 
L 104.778302 37.902528 
L 110.605392 37.947713 
L 116.432481 38.553583 
L 122.259571 38.151783 
L 128.086661 38.220216 
L 145.56793 38.860037 
L 174.703378 38.904185 
L 203.838827 39.136789 
L 232.974275 41.087949 
L 262.109724 41.46163 
L 291.245172 42.079629 
L 320.38062 42.506839 
L 349.516069 43.10122 
L 378.651517 44.629447 
L 407.786966 43.340534 
L 436.922414 42.448212 
L 466.057863 43.47279 
L 495.193311 46.47848 
L 524.32876 49.410952 
L 553.464208 45.469066 
L 582.599656 42.945233 
L 611.735105 41.88035 
L 640.870553 41.772469 
L 670.006002 41.93301 
L 699.14145 42.127707 
L 728.276899 42.378831 
L 757.412347 43.395536 
L 786.547796 44.060846 
L 815.683244 44.841641 
L 844.818692 45.964326 
L 873.954141 47.202225 
L 903.089589 48.471644 
L 932.225038 49.335729 
L 949.706307 47.139839 
" clip-path="url(#pf9c926378a)" style="fill: none; stroke: #5cb85c; stroke-linecap: square"/>
   </g>
   <g id="line2d_33">
    <path d="M 81.469943 40.683772 
L 87.297033 39.589681 
L 93.124123 39.120282 
L 98.951212 38.321522 
L 104.778302 38.010727 
L 110.605392 37.861199 
L 116.432481 38.694489 
L 122.259571 38.752923 
L 128.086661 37.847261 
L 145.56793 38.269436 
L 174.703378 38.116299 
L 203.838827 38.272598 
L 232.974275 38.700084 
L 262.109724 38.949927 
L 291.245172 38.958562 
L 320.38062 39.279456 
L 349.516069 39.690732 
L 378.651517 39.699919 
L 407.786966 40.086938 
L 436.922414 40.522328 
L 466.057863 40.937615 
L 495.193311 42.29313 
L 524.32876 40.008076 
L 553.464208 40.063354 
L 582.599656 40.028278 
L 611.735105 40.328032 
L 640.870553 41.032192 
L 670.006002 40.869075 
L 699.14145 41.599959 
L 728.276899 41.417985 
L 757.412347 41.869536 
L 786.547796 42.182747 
L 815.683244 42.613157 
L 844.818692 43.222102 
L 873.954141 43.841729 
L 903.089589 44.252652 
L 932.225038 44.594752 
L 949.706307 43.346395 
" clip-path="url(#pf9c926378a)" style="fill: none; stroke: #5cb85c; stroke-linecap: square"/>
   </g>
   <g id="line2d_34">
    <path d="M 81.469943 40.834194 
L 87.297033 38.774428 
L 93.124123 39.166032 
L 98.951212 38.43198 
L 104.778302 38.490568 
L 110.605392 38.504881 
L 116.432481 38.843226 
L 122.259571 38.850056 
L 128.086661 38.684199 
L 145.56793 38.724888 
L 174.703378 39.003331 
L 203.838827 39.225595 
L 232.974275 40.749108 
L 262.109724 41.148044 
L 291.245172 41.550103 
L 320.38062 41.893971 
L 349.516069 42.552949 
L 378.651517 43.773941 
L 407.786966 42.763973 
L 436.922414 42.232224 
L 466.057863 43.112745 
L 495.193311 45.402647 
L 524.32876 47.703246 
L 553.464208 44.993026 
L 582.599656 43.276112 
L 611.735105 42.492068 
L 640.870553 42.471275 
L 670.006002 42.68393 
L 699.14145 43.043525 
L 728.276899 43.442889 
L 757.412347 44.455277 
L 786.547796 45.423088 
L 815.683244 46.276667 
L 844.818692 47.353659 
L 873.954141 48.54091 
L 903.089589 49.814566 
L 932.225038 50.486362 
L 949.706307 48.203557 
" clip-path="url(#pf9c926378a)" style="fill: none; stroke: #5cb85c; stroke-linecap: square"/>
   </g>
   <g id="line2d_35">
    <path d="M 81.469943 41.905107 
L 87.297033 40.129997 
L 93.124123 39.244541 
L 98.951212 38.417773 
L 104.778302 37.855635 
L 110.605392 37.688585 
L 116.432481 38.676201 
L 122.259571 38.637391 
L 128.086661 37.547499 
L 145.56793 38.030591 
L 174.703378 37.730075 
L 203.838827 37.769504 
L 232.974275 38.143837 
L 262.109724 38.309 
L 291.245172 38.300813 
L 320.38062 38.606639 
L 349.516069 39.08766 
L 378.651517 39.001319 
L 407.786966 39.439074 
L 436.922414 39.848264 
L 466.057863 40.139839 
L 495.193311 42.228598 
L 524.32876 39.096612 
L 553.464208 39.132451 
L 582.599656 39.097081 
L 611.735105 39.274392 
L 640.870553 40.388399 
L 670.006002 39.518864 
L 699.14145 40.312838 
L 728.276899 40.194863 
L 757.412347 40.563697 
L 786.547796 40.864378 
L 815.683244 41.28637 
L 844.818692 41.892825 
L 873.954141 42.491146 
L 903.089589 42.713453 
L 932.225038 43.12252 
L 949.706307 42.750765 
" clip-path="url(#pf9c926378a)" style="fill: none; stroke: #5cb85c; stroke-linecap: square"/>
   </g>
   <g id="line2d_36">
    <path d="M 81.469943 38.50862 
L 87.297033 37.353642 
L 93.124123 37.273434 
L 98.951212 36.709023 
L 104.778302 36.952359 
L 110.605392 36.918541 
L 116.432481 37.449568 
L 122.259571 37.160894 
L 128.086661 37.236355 
L 145.56793 37.884512 
L 174.703378 37.803368 
L 203.838827 37.944856 
L 232.974275 39.594029 
L 262.109724 39.957881 
L 291.245172 40.464845 
L 320.38062 40.746114 
L 349.516069 41.262662 
L 378.651517 42.567195 
L 407.786966 41.322811 
L 436.922414 40.613779 
L 466.057863 41.456114 
L 495.193311 44.344583 
L 524.32876 47.284997 
L 553.464208 43.471849 
L 582.599656 40.944666 
L 611.735105 40.217443 
L 640.870553 40.114575 
L 670.006002 40.128679 
L 699.14145 40.292201 
L 728.276899 40.437395 
L 757.412347 41.445163 
L 786.547796 42.109297 
L 815.683244 42.745132 
L 844.818692 43.765685 
L 873.954141 44.963282 
L 903.089589 46.389747 
L 932.225038 47.154241 
L 949.706307 46.062485 
" clip-path="url(#pf9c926378a)" style="fill: none; stroke: #5cb85c; stroke-linecap: square"/>
   </g>
   <g id="line2d_37">
    <path d="M 81.469943 42.457089 
L 87.297033 40.591873 
L 93.124123 39.815893 
L 98.951212 38.84409 
L 104.778302 38.394313 
L 110.605392 38.190472 
L 116.432481 39.085031 
L 122.259571 39.157891 
L 128.086661 37.96479 
L 145.56793 38.465797 
L 174.703378 38.173336 
L 203.838827 38.338064 
L 232.974275 38.780204 
L 262.109724 39.02804 
L 291.245172 39.018049 
L 320.38062 39.32892 
L 349.516069 39.868582 
L 378.651517 39.811576 
L 407.786966 40.256073 
L 436.922414 40.842709 
L 466.057863 41.125571 
L 495.193311 43.051089 
L 524.32876 40.004764 
L 553.464208 40.032482 
L 582.599656 39.977714 
L 611.735105 40.210767 
L 640.870553 41.202042 
L 670.006002 40.629002 
L 699.14145 41.49497 
L 728.276899 41.307967 
L 757.412347 41.787143 
L 786.547796 42.073016 
L 815.683244 42.503002 
L 844.818692 43.132076 
L 873.954141 43.760466 
L 903.089589 43.993089 
L 932.225038 44.370781 
L 949.706307 43.475582 
" clip-path="url(#pf9c926378a)" style="fill: none; stroke: #5cb85c; stroke-linecap: square"/>
   </g>
   <g id="line2d_38">
    <path d="M 81.469943 39.894278 
L 87.297033 37.305162 
L 93.124123 37.809182 
L 98.951212 37.265785 
L 104.778302 37.470241 
L 110.605392 37.518046 
L 116.432481 38.028479 
L 122.259571 37.750223 
L 128.086661 37.7484 
L 145.56793 38.407442 
L 174.703378 38.360842 
L 203.838827 38.595724 
L 232.974275 40.31418 
L 262.109724 40.765899 
L 291.245172 41.24085 
L 320.38062 41.676403 
L 349.516069 42.410865 
L 378.651517 43.773997 
L 407.786966 42.466829 
L 436.922414 41.761307 
L 466.057863 42.647965 
L 495.193311 45.663387 
L 524.32876 48.541422 
L 553.464208 44.709211 
L 582.599656 42.403589 
L 611.735105 41.620199 
L 640.870553 41.726147 
L 670.006002 41.780676 
L 699.14145 42.132268 
L 728.276899 42.261435 
L 757.412347 43.515089 
L 786.547796 44.089384 
L 815.683244 44.786849 
L 844.818692 46.229425 
L 873.954141 47.117828 
L 903.089589 48.313255 
L 932.225038 49.014356 
L 949.706307 46.827108 
" clip-path="url(#pf9c926378a)" style="fill: none; stroke: #5cb85c; stroke-linecap: square"/>
   </g>
   <g id="line2d_39">
    <path d="M 81.469943 42.671334 
L 87.297033 39.653336 
L 93.124123 39.607131 
L 98.951212 38.670904 
L 104.778302 38.173682 
L 110.605392 38.011209 
L 116.432481 38.864969 
L 122.259571 38.884002 
L 128.086661 38.010202 
L 145.56793 38.333887 
L 174.703378 38.141762 
L 203.838827 38.236408 
L 232.974275 38.733961 
L 262.109724 38.879076 
L 291.245172 38.905424 
L 320.38062 39.278088 
L 349.516069 39.496988 
L 378.651517 39.336458 
L 407.786966 39.70954 
L 436.922414 40.009833 
L 466.057863 40.461758 
L 495.193311 41.606788 
L 524.32876 39.671074 
L 553.464208 39.655744 
L 582.599656 39.461682 
L 611.735105 39.77025 
L 640.870553 40.481721 
L 670.006002 40.152502 
L 699.14145 40.650485 
L 728.276899 40.546289 
L 757.412347 41.050323 
L 786.547796 41.312395 
L 815.683244 41.790418 
L 844.818692 42.375805 
L 873.954141 42.940066 
L 903.089589 43.450305 
L 932.225038 43.811648 
L 949.706307 43.231842 
" clip-path="url(#pf9c926378a)" style="fill: none; stroke: #5cb85c; stroke-linecap: square"/>
   </g>
   <g id="line2d_40">
    <path d="M 81.469943 42.409148 
L 87.297033 38.596272 
L 93.124123 39.512958 
L 98.951212 38.767457 
L 104.778302 38.779606 
L 110.605392 38.83083 
L 116.432481 39.058883 
L 122.259571 39.490631 
L 128.086661 38.94274 
L 145.56793 38.805854 
L 174.703378 39.189532 
L 203.838827 39.303458 
L 232.974275 40.526434 
L 262.109724 40.860217 
L 291.245172 41.19423 
L 320.38062 41.447648 
L 349.516069 42.121274 
L 378.651517 43.013855 
L 407.786966 42.26765 
L 436.922414 41.722215 
L 466.057863 42.584415 
L 495.193311 44.252565 
L 524.32876 46.419205 
L 553.464208 43.998122 
L 582.599656 42.611084 
L 611.735105 42.334097 
L 640.870553 42.042467 
L 670.006002 42.085049 
L 699.14145 42.208897 
L 728.276899 42.516777 
L 757.412347 43.466547 
L 786.547796 44.485932 
L 815.683244 45.295203 
L 844.818692 46.227435 
L 873.954141 47.308335 
L 903.089589 48.800115 
L 932.225038 49.56418 
L 949.706307 48.279952 
" clip-path="url(#pf9c926378a)" style="fill: none; stroke: #5cb85c; stroke-linecap: square"/>
   </g>
   <g id="line2d_41">
    <path d="M 38.058125 353.2239 
L 993.118125 353.2239 
" clip-path="url(#pf9c926378a)" style="fill: none; stroke: #dedede; stroke-width: 2; stroke-linecap: square"/>
   </g>
   <g id="text_19">
    <!-- FastQC: Mean Quality Scores -->
    <g transform="translate(400.349375 19.3575) scale(0.16 -0.16)">
     <defs>
      <path id="DejaVuSans-46" d="M 628 4666 
L 3309 4666 
L 3309 4134 
L 1259 4134 
L 1259 2759 
L 3109 2759 
L 3109 2228 
L 1259 2228 
L 1259 0 
L 628 0 
L 628 4666 
z
" transform="scale(0.015625)"/>
      <path id="DejaVuSans-61" d="M 2194 1759 
Q 1497 1759 1228 1600 
Q 959 1441 959 1056 
Q 959 750 1161 570 
Q 1363 391 1709 391 
Q 2188 391 2477 730 
Q 2766 1069 2766 1631 
L 2766 1759 
L 2194 1759 
z
M 3341 1997 
L 3341 0 
L 2766 0 
L 2766 531 
Q 2569 213 2275 61 
Q 1981 -91 1556 -91 
Q 1019 -91 701 211 
Q 384 513 384 1019 
Q 384 1609 779 1909 
Q 1175 2209 1959 2209 
L 2766 2209 
L 2766 2266 
Q 2766 2663 2505 2880 
Q 2244 3097 1772 3097 
Q 1472 3097 1187 3025 
Q 903 2953 641 2809 
L 641 3341 
Q 956 3463 1253 3523 
Q 1550 3584 1831 3584 
Q 2591 3584 2966 3190 
Q 3341 2797 3341 1997 
z
" transform="scale(0.015625)"/>
      <path id="DejaVuSans-51" d="M 2522 4238 
Q 1834 4238 1429 3725 
Q 1025 3213 1025 2328 
Q 1025 1447 1429 934 
Q 1834 422 2522 422 
Q 3209 422 3611 934 
Q 4013 1447 4013 2328 
Q 4013 3213 3611 3725 
Q 3209 4238 2522 4238 
z
M 3406 84 
L 4238 -825 
L 3475 -825 
L 2784 -78 
Q 2681 -84 2626 -87 
Q 2572 -91 2522 -91 
Q 1538 -91 948 567 
Q 359 1225 359 2328 
Q 359 3434 948 4092 
Q 1538 4750 2522 4750 
Q 3503 4750 4090 4092 
Q 4678 3434 4678 2328 
Q 4678 1516 4351 937 
Q 4025 359 3406 84 
z
" transform="scale(0.015625)"/>
      <path id="DejaVuSans-43" d="M 4122 4306 
L 4122 3641 
Q 3803 3938 3442 4084 
Q 3081 4231 2675 4231 
Q 1875 4231 1450 3742 
Q 1025 3253 1025 2328 
Q 1025 1406 1450 917 
Q 1875 428 2675 428 
Q 3081 428 3442 575 
Q 3803 722 4122 1019 
L 4122 359 
Q 3791 134 3420 21 
Q 3050 -91 2638 -91 
Q 1578 -91 968 557 
Q 359 1206 359 2328 
Q 359 3453 968 4101 
Q 1578 4750 2638 4750 
Q 3056 4750 3426 4639 
Q 3797 4528 4122 4306 
z
" transform="scale(0.015625)"/>
      <path id="DejaVuSans-3a" d="M 750 794 
L 1409 794 
L 1409 0 
L 750 0 
L 750 794 
z
M 750 3309 
L 1409 3309 
L 1409 2516 
L 750 2516 
L 750 3309 
z
" transform="scale(0.015625)"/>
      <path id="DejaVuSans-4d" d="M 628 4666 
L 1569 4666 
L 2759 1491 
L 3956 4666 
L 4897 4666 
L 4897 0 
L 4281 0 
L 4281 4097 
L 3078 897 
L 2444 897 
L 1241 4097 
L 1241 0 
L 628 0 
L 628 4666 
z
" transform="scale(0.015625)"/>
      <path id="DejaVuSans-75" d="M 544 1381 
L 544 3500 
L 1119 3500 
L 1119 1403 
Q 1119 906 1312 657 
Q 1506 409 1894 409 
Q 2359 409 2629 706 
Q 2900 1003 2900 1516 
L 2900 3500 
L 3475 3500 
L 3475 0 
L 2900 0 
L 2900 538 
Q 2691 219 2414 64 
Q 2138 -91 1772 -91 
Q 1169 -91 856 284 
Q 544 659 544 1381 
z
M 1991 3584 
L 1991 3584 
z
" transform="scale(0.015625)"/>
      <path id="DejaVuSans-6c" d="M 603 4863 
L 1178 4863 
L 1178 0 
L 603 0 
L 603 4863 
z
" transform="scale(0.015625)"/>
      <path id="DejaVuSans-79" d="M 2059 -325 
Q 1816 -950 1584 -1140 
Q 1353 -1331 966 -1331 
L 506 -1331 
L 506 -850 
L 844 -850 
Q 1081 -850 1212 -737 
Q 1344 -625 1503 -206 
L 1606 56 
L 191 3500 
L 800 3500 
L 1894 763 
L 2988 3500 
L 3597 3500 
L 2059 -325 
z
" transform="scale(0.015625)"/>
     </defs>
     <use xlink:href="#DejaVuSans-46"/>
     <use xlink:href="#DejaVuSans-61" x="48.394531"/>
     <use xlink:href="#DejaVuSans-73" x="109.673828"/>
     <use xlink:href="#DejaVuSans-74" x="161.773438"/>
     <use xlink:href="#DejaVuSans-51" x="200.982422"/>
     <use xlink:href="#DejaVuSans-43" x="279.693359"/>
     <use xlink:href="#DejaVuSans-3a" x="349.517578"/>
     <use xlink:href="#DejaVuSans-20" x="383.208984"/>
     <use xlink:href="#DejaVuSans-4d" x="414.996094"/>
     <use xlink:href="#DejaVuSans-65" x="501.275391"/>
     <use xlink:href="#DejaVuSans-61" x="562.798828"/>
     <use xlink:href="#DejaVuSans-6e" x="624.078125"/>
     <use xlink:href="#DejaVuSans-20" x="687.457031"/>
     <use xlink:href="#DejaVuSans-51" x="719.244141"/>
     <use xlink:href="#DejaVuSans-75" x="797.955078"/>
     <use xlink:href="#DejaVuSans-61" x="861.333984"/>
     <use xlink:href="#DejaVuSans-6c" x="922.613281"/>
     <use xlink:href="#DejaVuSans-69" x="950.396484"/>
     <use xlink:href="#DejaVuSans-74" x="978.179688"/>
     <use xlink:href="#DejaVuSans-79" x="1017.388672"/>
     <use xlink:href="#DejaVuSans-20" x="1076.568359"/>
     <use xlink:href="#DejaVuSans-53" x="1108.355469"/>
     <use xlink:href="#DejaVuSans-63" x="1171.832031"/>
     <use xlink:href="#DejaVuSans-6f" x="1226.8125"/>
     <use xlink:href="#DejaVuSans-72" x="1287.994141"/>
     <use xlink:href="#DejaVuSans-65" x="1326.857422"/>
     <use xlink:href="#DejaVuSans-73" x="1388.380859"/>
    </g>
   </g>
  </g>
 </g>
 <defs>
  <clipPath id="pf9c926378a">
   <rect x="38.058125" y="35.2559" width="955.06" height="317.968"/>
  </clipPath>
 </defs>
</svg>
