<?xml version="1.0" encoding="utf-8" standalone="no"?>
<!DOCTYPE svg PUBLIC "-//W3C//DTD SVG 1.1//EN"
  "http://www.w3.org/Graphics/SVG/1.1/DTD/svg11.dtd">
<svg xmlns:xlink="http://www.w3.org/1999/xlink" width="1000.358125pt" height="388.844525pt" viewBox="0 0 1000.358125 388.844525" xmlns="http://www.w3.org/2000/svg" version="1.1">
 <metadata>
  <rdf:RDF xmlns:dc="http://purl.org/dc/elements/1.1/" xmlns:cc="http://creativecommons.org/ns#" xmlns:rdf="http://www.w3.org/1999/02/22-rdf-syntax-ns#">
   <cc:Work>
    <dc:type rdf:resource="http://purl.org/dc/dcmitype/StillImage"/>
    <dc:date>2024-09-01T20:21:44.987288</dc:date>
    <dc:format>image/svg+xml</dc:format>
    <dc:creator>
     <cc:Agent>
      <dc:title>Matplotlib v3.8.2, https://matplotlib.org/</dc:title>
     </cc:Agent>
    </dc:creator>
   </cc:Work>
  </rdf:RDF>
 </metadata>
 <defs>
  <style type="text/css">*{stroke-linejoin: round; stroke-linecap: butt}</style>
 </defs>
 <g id="figure_1">
  <g id="axes_1">
   <g id="patch_1">
    <path d="M 32.968125 353.2239 
L 993.158125 353.2239 
L 993.158125 35.2559 
L 32.968125 35.2559 
z
" style="fill: #ffffff"/>
   </g>
   <g id="matplotlib.axis_1">
    <g id="xtick_1">
     <g id="text_1">
      <!-- 0 -->
      <g transform="translate(68.248792 366.30265) scale(0.08 -0.08)">
       <defs>
        <path id="DejaVuSans-30" d="M 2034 4250 
Q 1547 4250 1301 3770 
Q 1056 3291 1056 2328 
Q 1056 1369 1301 889 
Q 1547 409 2034 409 
Q 2525 409 2770 889 
Q 3016 1369 3016 2328 
Q 3016 3291 2770 3770 
Q 2525 4250 2034 4250 
z
M 2034 4750 
Q 2819 4750 3233 4129 
Q 3647 3509 3647 2328 
Q 3647 1150 3233 529 
Q 2819 -91 2034 -91 
Q 1250 -91 836 529 
Q 422 1150 422 2328 
Q 422 3509 836 4129 
Q 1250 4750 2034 4750 
z
" transform="scale(0.015625)"/>
       </defs>
       <use xlink:href="#DejaVuSans-30"/>
      </g>
     </g>
    </g>
    <g id="xtick_2">
     <g id="text_2">
      <!-- 20 -->
      <g transform="translate(182.090458 366.30265) scale(0.08 -0.08)">
       <defs>
        <path id="DejaVuSans-32" d="M 1228 531 
L 3431 531 
L 3431 0 
L 469 0 
L 469 531 
Q 828 903 1448 1529 
Q 2069 2156 2228 2338 
Q 2531 2678 2651 2914 
Q 2772 3150 2772 3378 
Q 2772 3750 2511 3984 
Q 2250 4219 1831 4219 
Q 1534 4219 1204 4116 
Q 875 4013 500 3803 
L 500 4441 
Q 881 4594 1212 4672 
Q 1544 4750 1819 4750 
Q 2544 4750 2975 4387 
Q 3406 4025 3406 3419 
Q 3406 3131 3298 2873 
Q 3191 2616 2906 2266 
Q 2828 2175 2409 1742 
Q 1991 1309 1228 531 
z
" transform="scale(0.015625)"/>
       </defs>
       <use xlink:href="#DejaVuSans-32"/>
       <use xlink:href="#DejaVuSans-30" x="63.623047"/>
      </g>
     </g>
    </g>
    <g id="xtick_3">
     <g id="text_3">
      <!-- 40 -->
      <g transform="translate(298.477125 366.30265) scale(0.08 -0.08)">
       <defs>
        <path id="DejaVuSans-34" d="M 2419 4116 
L 825 1625 
L 2419 1625 
L 2419 4116 
z
M 2253 4666 
L 3047 4666 
L 3047 1625 
L 3713 1625 
L 3713 1100 
L 3047 1100 
L 3047 0 
L 2419 0 
L 2419 1100 
L 313 1100 
L 313 1709 
L 2253 4666 
z
" transform="scale(0.015625)"/>
       </defs>
       <use xlink:href="#DejaVuSans-34"/>
       <use xlink:href="#DejaVuSans-30" x="63.623047"/>
      </g>
     </g>
    </g>
    <g id="xtick_4">
     <g id="text_4">
      <!-- 60 -->
      <g transform="translate(414.863792 366.30265) scale(0.08 -0.08)">
       <defs>
        <path id="DejaVuSans-36" d="M 2113 2584 
Q 1688 2584 1439 2293 
Q 1191 2003 1191 1497 
Q 1191 994 1439 701 
Q 1688 409 2113 409 
Q 2538 409 2786 701 
Q 3034 994 3034 1497 
Q 3034 2003 2786 2293 
Q 2538 2584 2113 2584 
z
M 3366 4563 
L 3366 3988 
Q 3128 4100 2886 4159 
Q 2644 4219 2406 4219 
Q 1781 4219 1451 3797 
Q 1122 3375 1075 2522 
Q 1259 2794 1537 2939 
Q 1816 3084 2150 3084 
Q 2853 3084 3261 2657 
Q 3669 2231 3669 1497 
Q 3669 778 3244 343 
Q 2819 -91 2113 -91 
Q 1303 -91 875 529 
Q 447 1150 447 2328 
Q 447 3434 972 4092 
Q 1497 4750 2381 4750 
Q 2619 4750 2861 4703 
Q 3103 4656 3366 4563 
z
" transform="scale(0.015625)"/>
       </defs>
       <use xlink:href="#DejaVuSans-36"/>
       <use xlink:href="#DejaVuSans-30" x="63.623047"/>
      </g>
     </g>
    </g>
    <g id="xtick_5">
     <g id="text_5">
      <!-- 80 -->
      <g transform="translate(531.250458 366.30265) scale(0.08 -0.08)">
       <defs>
        <path id="DejaVuSans-38" d="M 2034 2216 
Q 1584 2216 1326 1975 
Q 1069 1734 1069 1313 
Q 1069 891 1326 650 
Q 1584 409 2034 409 
Q 2484 409 2743 651 
Q 3003 894 3003 1313 
Q 3003 1734 2745 1975 
Q 2488 2216 2034 2216 
z
M 1403 2484 
Q 997 2584 770 2862 
Q 544 3141 544 3541 
Q 544 4100 942 4425 
Q 1341 4750 2034 4750 
Q 2731 4750 3128 4425 
Q 3525 4100 3525 3541 
Q 3525 3141 3298 2862 
Q 3072 2584 2669 2484 
Q 3125 2378 3379 2068 
Q 3634 1759 3634 1313 
Q 3634 634 3220 271 
Q 2806 -91 2034 -91 
Q 1263 -91 848 271 
Q 434 634 434 1313 
Q 434 1759 690 2068 
Q 947 2378 1403 2484 
z
M 1172 3481 
Q 1172 3119 1398 2916 
Q 1625 2713 2034 2713 
Q 2441 2713 2670 2916 
Q 2900 3119 2900 3481 
Q 2900 3844 2670 4047 
Q 2441 4250 2034 4250 
Q 1625 4250 1398 4047 
Q 1172 3844 1172 3481 
z
" transform="scale(0.015625)"/>
       </defs>
       <use xlink:href="#DejaVuSans-38"/>
       <use xlink:href="#DejaVuSans-30" x="63.623047"/>
      </g>
     </g>
    </g>
    <g id="xtick_6">
     <g id="text_6">
      <!-- 100 -->
      <g transform="translate(645.092125 366.30265) scale(0.08 -0.08)">
       <defs>
        <path id="DejaVuSans-31" d="M 794 531 
L 1825 531 
L 1825 4091 
L 703 3866 
L 703 4441 
L 1819 4666 
L 2450 4666 
L 2450 531 
L 3481 531 
L 3481 0 
L 794 0 
L 794 531 
z
" transform="scale(0.015625)"/>
       </defs>
       <use xlink:href="#DejaVuSans-31"/>
       <use xlink:href="#DejaVuSans-30" x="63.623047"/>
       <use xlink:href="#DejaVuSans-30" x="127.246094"/>
      </g>
     </g>
    </g>
    <g id="xtick_7">
     <g id="text_7">
      <!-- 120 -->
      <g transform="translate(761.478792 366.30265) scale(0.08 -0.08)">
       <use xlink:href="#DejaVuSans-31"/>
       <use xlink:href="#DejaVuSans-32" x="63.623047"/>
       <use xlink:href="#DejaVuSans-30" x="127.246094"/>
      </g>
     </g>
    </g>
    <g id="xtick_8">
     <g id="text_8">
      <!-- 140 -->
      <g transform="translate(877.865458 366.30265) scale(0.08 -0.08)">
       <use xlink:href="#DejaVuSans-31"/>
       <use xlink:href="#DejaVuSans-34" x="63.623047"/>
       <use xlink:href="#DejaVuSans-30" x="127.246094"/>
      </g>
     </g>
    </g>
    <g id="text_9">
     <!-- Length Trimmed (bp) -->
     <g transform="translate(460.635781 379.564837) scale(0.1 -0.1)">
      <defs>
       <path id="DejaVuSans-4c" d="M 628 4666 
L 1259 4666 
L 1259 531 
L 3531 531 
L 3531 0 
L 628 0 
L 628 4666 
z
" transform="scale(0.015625)"/>
       <path id="DejaVuSans-65" d="M 3597 1894 
L 3597 1613 
L 953 1613 
Q 991 1019 1311 708 
Q 1631 397 2203 397 
Q 2534 397 2845 478 
Q 3156 559 3463 722 
L 3463 178 
Q 3153 47 2828 -22 
Q 2503 -91 2169 -91 
Q 1331 -91 842 396 
Q 353 884 353 1716 
Q 353 2575 817 3079 
Q 1281 3584 2069 3584 
Q 2775 3584 3186 3129 
Q 3597 2675 3597 1894 
z
M 3022 2063 
Q 3016 2534 2758 2815 
Q 2500 3097 2075 3097 
Q 1594 3097 1305 2825 
Q 1016 2553 972 2059 
L 3022 2063 
z
" transform="scale(0.015625)"/>
       <path id="DejaVuSans-6e" d="M 3513 2113 
L 3513 0 
L 2938 0 
L 2938 2094 
Q 2938 2591 2744 2837 
Q 2550 3084 2163 3084 
Q 1697 3084 1428 2787 
Q 1159 2491 1159 1978 
L 1159 0 
L 581 0 
L 581 3500 
L 1159 3500 
L 1159 2956 
Q 1366 3272 1645 3428 
Q 1925 3584 2291 3584 
Q 2894 3584 3203 3211 
Q 3513 2838 3513 2113 
z
" transform="scale(0.015625)"/>
       <path id="DejaVuSans-67" d="M 2906 1791 
Q 2906 2416 2648 2759 
Q 2391 3103 1925 3103 
Q 1463 3103 1205 2759 
Q 947 2416 947 1791 
Q 947 1169 1205 825 
Q 1463 481 1925 481 
Q 2391 481 2648 825 
Q 2906 1169 2906 1791 
z
M 3481 434 
Q 3481 -459 3084 -895 
Q 2688 -1331 1869 -1331 
Q 1566 -1331 1297 -1286 
Q 1028 -1241 775 -1147 
L 775 -588 
Q 1028 -725 1275 -790 
Q 1522 -856 1778 -856 
Q 2344 -856 2625 -561 
Q 2906 -266 2906 331 
L 2906 616 
Q 2728 306 2450 153 
Q 2172 0 1784 0 
Q 1141 0 747 490 
Q 353 981 353 1791 
Q 353 2603 747 3093 
Q 1141 3584 1784 3584 
Q 2172 3584 2450 3431 
Q 2728 3278 2906 2969 
L 2906 3500 
L 3481 3500 
L 3481 434 
z
" transform="scale(0.015625)"/>
       <path id="DejaVuSans-74" d="M 1172 4494 
L 1172 3500 
L 2356 3500 
L 2356 3053 
L 1172 3053 
L 1172 1153 
Q 1172 725 1289 603 
Q 1406 481 1766 481 
L 2356 481 
L 2356 0 
L 1766 0 
Q 1100 0 847 248 
Q 594 497 594 1153 
L 594 3053 
L 172 3053 
L 172 3500 
L 594 3500 
L 594 4494 
L 1172 4494 
z
" transform="scale(0.015625)"/>
       <path id="DejaVuSans-68" d="M 3513 2113 
L 3513 0 
L 2938 0 
L 2938 2094 
Q 2938 2591 2744 2837 
Q 2550 3084 2163 3084 
Q 1697 3084 1428 2787 
Q 1159 2491 1159 1978 
L 1159 0 
L 581 0 
L 581 4863 
L 1159 4863 
L 1159 2956 
Q 1366 3272 1645 3428 
Q 1925 3584 2291 3584 
Q 2894 3584 3203 3211 
Q 3513 2838 3513 2113 
z
" transform="scale(0.015625)"/>
       <path id="DejaVuSans-20" transform="scale(0.015625)"/>
       <path id="DejaVuSans-54" d="M -19 4666 
L 3928 4666 
L 3928 4134 
L 2272 4134 
L 2272 0 
L 1638 0 
L 1638 4134 
L -19 4134 
L -19 4666 
z
" transform="scale(0.015625)"/>
       <path id="DejaVuSans-72" d="M 2631 2963 
Q 2534 3019 2420 3045 
Q 2306 3072 2169 3072 
Q 1681 3072 1420 2755 
Q 1159 2438 1159 1844 
L 1159 0 
L 581 0 
L 581 3500 
L 1159 3500 
L 1159 2956 
Q 1341 3275 1631 3429 
Q 1922 3584 2338 3584 
Q 2397 3584 2469 3576 
Q 2541 3569 2628 3553 
L 2631 2963 
z
" transform="scale(0.015625)"/>
       <path id="DejaVuSans-69" d="M 603 3500 
L 1178 3500 
L 1178 0 
L 603 0 
L 603 3500 
z
M 603 4863 
L 1178 4863 
L 1178 4134 
L 603 4134 
L 603 4863 
z
" transform="scale(0.015625)"/>
       <path id="DejaVuSans-6d" d="M 3328 2828 
Q 3544 3216 3844 3400 
Q 4144 3584 4550 3584 
Q 5097 3584 5394 3201 
Q 5691 2819 5691 2113 
L 5691 0 
L 5113 0 
L 5113 2094 
Q 5113 2597 4934 2840 
Q 4756 3084 4391 3084 
Q 3944 3084 3684 2787 
Q 3425 2491 3425 1978 
L 3425 0 
L 2847 0 
L 2847 2094 
Q 2847 2600 2669 2842 
Q 2491 3084 2119 3084 
Q 1678 3084 1418 2786 
Q 1159 2488 1159 1978 
L 1159 0 
L 581 0 
L 581 3500 
L 1159 3500 
L 1159 2956 
Q 1356 3278 1631 3431 
Q 1906 3584 2284 3584 
Q 2666 3584 2933 3390 
Q 3200 3197 3328 2828 
z
" transform="scale(0.015625)"/>
       <path id="DejaVuSans-64" d="M 2906 2969 
L 2906 4863 
L 3481 4863 
L 3481 0 
L 2906 0 
L 2906 525 
Q 2725 213 2448 61 
Q 2172 -91 1784 -91 
Q 1150 -91 751 415 
Q 353 922 353 1747 
Q 353 2572 751 3078 
Q 1150 3584 1784 3584 
Q 2172 3584 2448 3432 
Q 2725 3281 2906 2969 
z
M 947 1747 
Q 947 1113 1208 752 
Q 1469 391 1925 391 
Q 2381 391 2643 752 
Q 2906 1113 2906 1747 
Q 2906 2381 2643 2742 
Q 2381 3103 1925 3103 
Q 1469 3103 1208 2742 
Q 947 2381 947 1747 
z
" transform="scale(0.015625)"/>
       <path id="DejaVuSans-28" d="M 1984 4856 
Q 1566 4138 1362 3434 
Q 1159 2731 1159 2009 
Q 1159 1288 1364 580 
Q 1569 -128 1984 -844 
L 1484 -844 
Q 1016 -109 783 600 
Q 550 1309 550 2009 
Q 550 2706 781 3412 
Q 1013 4119 1484 4856 
L 1984 4856 
z
" transform="scale(0.015625)"/>
       <path id="DejaVuSans-62" d="M 3116 1747 
Q 3116 2381 2855 2742 
Q 2594 3103 2138 3103 
Q 1681 3103 1420 2742 
Q 1159 2381 1159 1747 
Q 1159 1113 1420 752 
Q 1681 391 2138 391 
Q 2594 391 2855 752 
Q 3116 1113 3116 1747 
z
M 1159 2969 
Q 1341 3281 1617 3432 
Q 1894 3584 2278 3584 
Q 2916 3584 3314 3078 
Q 3713 2572 3713 1747 
Q 3713 922 3314 415 
Q 2916 -91 2278 -91 
Q 1894 -91 1617 61 
Q 1341 213 1159 525 
L 1159 0 
L 581 0 
L 581 4863 
L 1159 4863 
L 1159 2969 
z
" transform="scale(0.015625)"/>
       <path id="DejaVuSans-70" d="M 1159 525 
L 1159 -1331 
L 581 -1331 
L 581 3500 
L 1159 3500 
L 1159 2969 
Q 1341 3281 1617 3432 
Q 1894 3584 2278 3584 
Q 2916 3584 3314 3078 
Q 3713 2572 3713 1747 
Q 3713 922 3314 415 
Q 2916 -91 2278 -91 
Q 1894 -91 1617 61 
Q 1341 213 1159 525 
z
M 3116 1747 
Q 3116 2381 2855 2742 
Q 2594 3103 2138 3103 
Q 1681 3103 1420 2742 
Q 1159 2381 1159 1747 
Q 1159 1113 1420 752 
Q 1681 391 2138 391 
Q 2594 391 2855 752 
Q 3116 1113 3116 1747 
z
" transform="scale(0.015625)"/>
       <path id="DejaVuSans-29" d="M 513 4856 
L 1013 4856 
Q 1481 4119 1714 3412 
Q 1947 2706 1947 2009 
Q 1947 1309 1714 600 
Q 1481 -109 1013 -844 
L 513 -844 
Q 928 -128 1133 580 
Q 1338 1288 1338 2009 
Q 1338 2731 1133 3434 
Q 928 4138 513 4856 
z
" transform="scale(0.015625)"/>
      </defs>
      <use xlink:href="#DejaVuSans-4c"/>
      <use xlink:href="#DejaVuSans-65" x="53.962891"/>
      <use xlink:href="#DejaVuSans-6e" x="115.486328"/>
      <use xlink:href="#DejaVuSans-67" x="178.865234"/>
      <use xlink:href="#DejaVuSans-74" x="242.341797"/>
      <use xlink:href="#DejaVuSans-68" x="281.550781"/>
      <use xlink:href="#DejaVuSans-20" x="344.929688"/>
      <use xlink:href="#DejaVuSans-54" x="376.716797"/>
      <use xlink:href="#DejaVuSans-72" x="423.050781"/>
      <use xlink:href="#DejaVuSans-69" x="464.164062"/>
      <use xlink:href="#DejaVuSans-6d" x="491.947266"/>
      <use xlink:href="#DejaVuSans-6d" x="589.359375"/>
      <use xlink:href="#DejaVuSans-65" x="686.771484"/>
      <use xlink:href="#DejaVuSans-64" x="748.294922"/>
      <use xlink:href="#DejaVuSans-20" x="811.771484"/>
      <use xlink:href="#DejaVuSans-28" x="843.558594"/>
      <use xlink:href="#DejaVuSans-62" x="882.572266"/>
      <use xlink:href="#DejaVuSans-70" x="946.048828"/>
      <use xlink:href="#DejaVuSans-29" x="1009.525391"/>
     </g>
    </g>
   </g>
   <g id="matplotlib.axis_2">
    <g id="ytick_1">
     <g id="line2d_1">
      <path d="M 32.968125 353.2239 
L 993.158125 353.2239 
" clip-path="url(#p465237f920)" style="fill: none; stroke: #dedede; stroke-linecap: square"/>
     </g>
     <g id="text_10">
      <!-- 0 -->
      <g transform="translate(20.878125 356.263275) scale(0.08 -0.08)">
       <use xlink:href="#DejaVuSans-30"/>
      </g>
     </g>
    </g>
    <g id="ytick_2">
     <g id="line2d_2">
      <path d="M 32.968125 298.766127 
L 993.158125 298.766127 
" clip-path="url(#p465237f920)" style="fill: none; stroke: #dedede; stroke-linecap: square"/>
     </g>
     <g id="text_11">
      <!-- 1 -->
      <g transform="translate(20.878125 301.805502) scale(0.08 -0.08)">
       <use xlink:href="#DejaVuSans-31"/>
      </g>
     </g>
    </g>
    <g id="ytick_3">
     <g id="line2d_3">
      <path d="M 32.968125 244.308354 
L 993.158125 244.308354 
" clip-path="url(#p465237f920)" style="fill: none; stroke: #dedede; stroke-linecap: square"/>
     </g>
     <g id="text_12">
      <!-- 2 -->
      <g transform="translate(20.878125 247.347729) scale(0.08 -0.08)">
       <use xlink:href="#DejaVuSans-32"/>
      </g>
     </g>
    </g>
    <g id="ytick_4">
     <g id="line2d_4">
      <path d="M 32.968125 189.85058 
L 993.158125 189.85058 
" clip-path="url(#p465237f920)" style="fill: none; stroke: #dedede; stroke-linecap: square"/>
     </g>
     <g id="text_13">
      <!-- 3 -->
      <g transform="translate(20.878125 192.889955) scale(0.08 -0.08)">
       <defs>
        <path id="DejaVuSans-33" d="M 2597 2516 
Q 3050 2419 3304 2112 
Q 3559 1806 3559 1356 
Q 3559 666 3084 287 
Q 2609 -91 1734 -91 
Q 1441 -91 1130 -33 
Q 819 25 488 141 
L 488 750 
Q 750 597 1062 519 
Q 1375 441 1716 441 
Q 2309 441 2620 675 
Q 2931 909 2931 1356 
Q 2931 1769 2642 2001 
Q 2353 2234 1838 2234 
L 1294 2234 
L 1294 2753 
L 1863 2753 
Q 2328 2753 2575 2939 
Q 2822 3125 2822 3475 
Q 2822 3834 2567 4026 
Q 2313 4219 1838 4219 
Q 1578 4219 1281 4162 
Q 984 4106 628 3988 
L 628 4550 
Q 988 4650 1302 4700 
Q 1616 4750 1894 4750 
Q 2613 4750 3031 4423 
Q 3450 4097 3450 3541 
Q 3450 3153 3228 2886 
Q 3006 2619 2597 2516 
z
" transform="scale(0.015625)"/>
       </defs>
       <use xlink:href="#DejaVuSans-33"/>
      </g>
     </g>
    </g>
    <g id="ytick_5">
     <g id="line2d_5">
      <path d="M 32.968125 135.392807 
L 993.158125 135.392807 
" clip-path="url(#p465237f920)" style="fill: none; stroke: #dedede; stroke-linecap: square"/>
     </g>
     <g id="text_14">
      <!-- 4 -->
      <g transform="translate(20.878125 138.432182) scale(0.08 -0.08)">
       <use xlink:href="#DejaVuSans-34"/>
      </g>
     </g>
    </g>
    <g id="ytick_6">
     <g id="line2d_6">
      <path d="M 32.968125 80.935034 
L 993.158125 80.935034 
" clip-path="url(#p465237f920)" style="fill: none; stroke: #dedede; stroke-linecap: square"/>
     </g>
     <g id="text_15">
      <!-- 5 -->
      <g transform="translate(20.878125 83.974409) scale(0.08 -0.08)">
       <defs>
        <path id="DejaVuSans-35" d="M 691 4666 
L 3169 4666 
L 3169 4134 
L 1269 4134 
L 1269 2991 
Q 1406 3038 1543 3061 
Q 1681 3084 1819 3084 
Q 2600 3084 3056 2656 
Q 3513 2228 3513 1497 
Q 3513 744 3044 326 
Q 2575 -91 1722 -91 
Q 1428 -91 1123 -41 
Q 819 9 494 109 
L 494 744 
Q 775 591 1075 516 
Q 1375 441 1709 441 
Q 2250 441 2565 725 
Q 2881 1009 2881 1497 
Q 2881 1984 2565 2268 
Q 2250 2553 1709 2553 
Q 1456 2553 1204 2497 
Q 953 2441 691 2322 
L 691 4666 
z
" transform="scale(0.015625)"/>
       </defs>
       <use xlink:href="#DejaVuSans-35"/>
      </g>
     </g>
    </g>
    <g id="text_16">
     <!-- Observed / Expected -->
     <g transform="translate(14.798438 246.489119) rotate(-90) scale(0.1 -0.1)">
      <defs>
       <path id="DejaVuSans-4f" d="M 2522 4238 
Q 1834 4238 1429 3725 
Q 1025 3213 1025 2328 
Q 1025 1447 1429 934 
Q 1834 422 2522 422 
Q 3209 422 3611 934 
Q 4013 1447 4013 2328 
Q 4013 3213 3611 3725 
Q 3209 4238 2522 4238 
z
M 2522 4750 
Q 3503 4750 4090 4092 
Q 4678 3434 4678 2328 
Q 4678 1225 4090 567 
Q 3503 -91 2522 -91 
Q 1538 -91 948 565 
Q 359 1222 359 2328 
Q 359 3434 948 4092 
Q 1538 4750 2522 4750 
z
" transform="scale(0.015625)"/>
       <path id="DejaVuSans-73" d="M 2834 3397 
L 2834 2853 
Q 2591 2978 2328 3040 
Q 2066 3103 1784 3103 
Q 1356 3103 1142 2972 
Q 928 2841 928 2578 
Q 928 2378 1081 2264 
Q 1234 2150 1697 2047 
L 1894 2003 
Q 2506 1872 2764 1633 
Q 3022 1394 3022 966 
Q 3022 478 2636 193 
Q 2250 -91 1575 -91 
Q 1294 -91 989 -36 
Q 684 19 347 128 
L 347 722 
Q 666 556 975 473 
Q 1284 391 1588 391 
Q 1994 391 2212 530 
Q 2431 669 2431 922 
Q 2431 1156 2273 1281 
Q 2116 1406 1581 1522 
L 1381 1569 
Q 847 1681 609 1914 
Q 372 2147 372 2553 
Q 372 3047 722 3315 
Q 1072 3584 1716 3584 
Q 2034 3584 2315 3537 
Q 2597 3491 2834 3397 
z
" transform="scale(0.015625)"/>
       <path id="DejaVuSans-76" d="M 191 3500 
L 800 3500 
L 1894 563 
L 2988 3500 
L 3597 3500 
L 2284 0 
L 1503 0 
L 191 3500 
z
" transform="scale(0.015625)"/>
       <path id="DejaVuSans-2f" d="M 1625 4666 
L 2156 4666 
L 531 -594 
L 0 -594 
L 1625 4666 
z
" transform="scale(0.015625)"/>
       <path id="DejaVuSans-45" d="M 628 4666 
L 3578 4666 
L 3578 4134 
L 1259 4134 
L 1259 2753 
L 3481 2753 
L 3481 2222 
L 1259 2222 
L 1259 531 
L 3634 531 
L 3634 0 
L 628 0 
L 628 4666 
z
" transform="scale(0.015625)"/>
       <path id="DejaVuSans-78" d="M 3513 3500 
L 2247 1797 
L 3578 0 
L 2900 0 
L 1881 1375 
L 863 0 
L 184 0 
L 1544 1831 
L 300 3500 
L 978 3500 
L 1906 2253 
L 2834 3500 
L 3513 3500 
z
" transform="scale(0.015625)"/>
       <path id="DejaVuSans-63" d="M 3122 3366 
L 3122 2828 
Q 2878 2963 2633 3030 
Q 2388 3097 2138 3097 
Q 1578 3097 1268 2742 
Q 959 2388 959 1747 
Q 959 1106 1268 751 
Q 1578 397 2138 397 
Q 2388 397 2633 464 
Q 2878 531 3122 666 
L 3122 134 
Q 2881 22 2623 -34 
Q 2366 -91 2075 -91 
Q 1284 -91 818 406 
Q 353 903 353 1747 
Q 353 2603 823 3093 
Q 1294 3584 2113 3584 
Q 2378 3584 2631 3529 
Q 2884 3475 3122 3366 
z
" transform="scale(0.015625)"/>
      </defs>
      <use xlink:href="#DejaVuSans-4f"/>
      <use xlink:href="#DejaVuSans-62" x="78.710938"/>
      <use xlink:href="#DejaVuSans-73" x="142.1875"/>
      <use xlink:href="#DejaVuSans-65" x="194.287109"/>
      <use xlink:href="#DejaVuSans-72" x="255.810547"/>
      <use xlink:href="#DejaVuSans-76" x="296.923828"/>
      <use xlink:href="#DejaVuSans-65" x="356.103516"/>
      <use xlink:href="#DejaVuSans-64" x="417.626953"/>
      <use xlink:href="#DejaVuSans-20" x="481.103516"/>
      <use xlink:href="#DejaVuSans-2f" x="512.890625"/>
      <use xlink:href="#DejaVuSans-20" x="546.582031"/>
      <use xlink:href="#DejaVuSans-45" x="578.369141"/>
      <use xlink:href="#DejaVuSans-78" x="641.552734"/>
      <use xlink:href="#DejaVuSans-70" x="700.732422"/>
      <use xlink:href="#DejaVuSans-65" x="764.208984"/>
      <use xlink:href="#DejaVuSans-63" x="825.732422"/>
      <use xlink:href="#DejaVuSans-74" x="880.712891"/>
      <use xlink:href="#DejaVuSans-65" x="919.921875"/>
      <use xlink:href="#DejaVuSans-64" x="981.445312"/>
     </g>
    </g>
    <g id="text_17">
     <!-- 1e7 -->
     <g transform="translate(32.968125 32.2559) scale(0.1 -0.1)">
      <defs>
       <path id="DejaVuSans-37" d="M 525 4666 
L 3525 4666 
L 3525 4397 
L 1831 0 
L 1172 0 
L 2766 4134 
L 525 4134 
L 525 4666 
z
" transform="scale(0.015625)"/>
      </defs>
      <use xlink:href="#DejaVuSans-31"/>
      <use xlink:href="#DejaVuSans-65" x="63.623047"/>
      <use xlink:href="#DejaVuSans-37" x="125.146484"/>
     </g>
    </g>
   </g>
   <g id="line2d_7">
    <path d="M 76.613125 353.223898 
L 140.625792 353.121038 
L 146.445125 352.823732 
L 175.541792 352.856921 
L 187.180458 352.85631 
L 210.457792 352.863208 
L 280.289792 352.961117 
L 286.109125 352.908813 
L 291.928458 352.980256 
L 303.567125 352.983989 
L 344.302458 352.900052 
L 350.121792 353.108564 
L 355.941125 353.009439 
L 408.315125 353.064284 
L 449.050458 353.080954 
L 652.727125 353.196375 
L 937.874458 353.169654 
L 943.693792 352.861048 
L 949.513125 160.111245 
L 949.513125 160.111245 
" clip-path="url(#p465237f920)" style="fill: none; stroke: #7cb5ec; stroke-linecap: square"/>
   </g>
   <g id="line2d_8">
    <path d="M 76.613125 353.223898 
L 140.625792 353.122098 
L 146.445125 352.798234 
L 204.638458 352.870336 
L 251.193125 352.91392 
L 291.928458 352.96502 
L 518.882458 353.128557 
L 530.521125 353.169751 
L 577.075792 353.170616 
L 862.223125 353.206607 
L 949.513125 353.209457 
L 949.513125 353.209457 
" clip-path="url(#p465237f920)" style="fill: none; stroke: #434348; stroke-linecap: square"/>
   </g>
   <g id="line2d_9">
    <path d="M 76.613125 353.223897 
L 134.806458 353.184166 
L 140.625792 353.071087 
L 146.445125 352.653395 
L 175.541792 352.695959 
L 181.361125 352.754545 
L 192.999792 352.678805 
L 204.638458 352.699412 
L 239.554458 352.75094 
L 338.483125 352.917123 
L 344.302458 352.745461 
L 350.121792 353.063369 
L 361.760458 352.899615 
L 390.857125 352.986878 
L 402.495792 352.907593 
L 408.315125 353.020625 
L 419.953792 352.986671 
L 489.785792 353.115137 
L 495.605125 353.212355 
L 565.437125 352.975001 
L 571.256458 353.14517 
L 937.874458 353.178923 
L 943.693792 352.952325 
L 949.513125 246.752522 
L 949.513125 246.752522 
" clip-path="url(#p465237f920)" style="fill: none; stroke: #90ed7d; stroke-linecap: square"/>
   </g>
   <g id="line2d_10">
    <path d="M 76.613125 353.223897 
L 134.806458 353.185578 
L 140.625792 353.07189 
L 146.445125 352.615138 
L 175.541792 352.748576 
L 187.180458 352.669275 
L 192.999792 352.760029 
L 216.277125 352.691913 
L 227.915792 352.75088 
L 257.012458 352.811252 
L 280.289792 352.794778 
L 291.928458 352.863019 
L 315.205792 352.875071 
L 379.218458 352.962356 
L 437.411792 353.02654 
L 483.966458 353.070487 
L 518.882458 353.102252 
L 530.521125 353.149669 
L 565.437125 353.146477 
L 710.920458 353.201665 
L 949.513125 353.213346 
L 949.513125 353.213346 
" clip-path="url(#p465237f920)" style="fill: none; stroke: #f7a35c; stroke-linecap: square"/>
   </g>
   <g id="line2d_11">
    <path d="M 76.613125 353.223898 
L 140.625792 353.150238 
L 146.445125 352.926548 
L 175.541792 352.939449 
L 187.180458 352.942801 
L 216.277125 352.956288 
L 297.747792 353.027186 
L 315.205792 352.975669 
L 321.025125 353.070734 
L 332.663792 353.016658 
L 338.483125 353.056793 
L 344.302458 352.937446 
L 350.121792 353.14542 
L 361.760458 353.056515 
L 489.785792 353.094236 
L 495.605125 353.207327 
L 559.617792 353.134129 
L 565.437125 352.814626 
L 571.256458 353.141094 
L 699.281792 353.205257 
L 705.101125 353.129482 
L 716.739792 353.203484 
L 856.403792 353.2087 
L 937.874458 353.17113 
L 943.693792 352.853466 
L 949.513125 106.371637 
L 949.513125 106.371637 
" clip-path="url(#p465237f920)" style="fill: none; stroke: #8085e9; stroke-linecap: square"/>
   </g>
   <g id="line2d_12">
    <path d="M 76.613125 353.223899 
L 140.625792 353.150878 
L 146.445125 352.90122 
L 181.361125 352.936103 
L 216.277125 352.924624 
L 227.915792 352.967434 
L 280.289792 353.031924 
L 297.747792 353.015762 
L 501.424458 353.070589 
L 507.243792 352.952839 
L 524.701792 353.178603 
L 559.617792 353.145445 
L 740.017125 353.208603 
L 949.513125 353.210697 
L 949.513125 353.210697 
" clip-path="url(#p465237f920)" style="fill: none; stroke: #f15c80; stroke-linecap: square"/>
   </g>
   <g id="line2d_13">
    <path d="M 76.613125 353.223899 
L 140.625792 353.186192 
L 152.264458 353.065657 
L 344.302458 353.060892 
L 350.121792 353.171588 
L 367.579792 353.090217 
L 373.399125 353.183345 
L 379.218458 353.01018 
L 385.037792 353.177616 
L 425.773125 353.076265 
L 431.592458 353.199824 
L 466.508458 353.115747 
L 472.327792 353.201491 
L 489.785792 353.139409 
L 501.424458 353.218155 
L 536.340458 353.163506 
L 635.269125 353.203032 
L 937.874458 353.170101 
L 943.693792 352.821729 
L 949.513125 50.397233 
L 949.513125 50.397233 
" clip-path="url(#p465237f920)" style="fill: none; stroke: #e4d354; stroke-linecap: square"/>
   </g>
   <g id="line2d_14">
    <path d="M 76.613125 353.223899 
L 140.625792 353.186449 
L 146.445125 353.065063 
L 291.928458 353.112087 
L 367.579792 353.124509 
L 419.953792 353.152326 
L 507.243792 353.092553 
L 530.521125 353.185829 
L 577.075792 353.188187 
L 920.416458 353.219734 
L 949.513125 353.213755 
L 949.513125 353.213755 
" clip-path="url(#p465237f920)" style="fill: none; stroke: #2b908f; stroke-linecap: square"/>
   </g>
   <g id="line2d_15">
    <path d="M 76.613125 353.223898 
L 140.625792 353.147649 
L 146.445125 352.921877 
L 338.483125 353.037546 
L 344.302458 352.942269 
L 350.121792 353.134831 
L 355.941125 353.034 
L 414.134458 353.0731 
L 431.592458 353.077524 
L 460.689125 353.102725 
L 478.147125 352.895217 
L 483.966458 353.058548 
L 501.424458 353.192738 
L 513.063125 353.056575 
L 559.617792 353.131576 
L 565.437125 353.037412 
L 571.256458 353.150225 
L 937.874458 353.184339 
L 943.693792 352.931716 
L 949.513125 98.021463 
L 949.513125 98.021463 
" clip-path="url(#p465237f920)" style="fill: none; stroke: #f45b5b; stroke-linecap: square"/>
   </g>
   <g id="line2d_16">
    <path d="M 76.613125 353.223899 
L 140.625792 353.147069 
L 146.445125 352.90416 
L 169.722458 352.958624 
L 216.277125 352.905134 
L 227.915792 352.97524 
L 332.663792 353.013239 
L 344.302458 353.03786 
L 350.121792 352.990536 
L 355.941125 353.079793 
L 385.037792 353.050531 
L 414.134458 353.08493 
L 513.063125 353.020391 
L 530.521125 353.153159 
L 547.979125 353.118627 
L 582.895125 353.152929 
L 635.269125 353.185774 
L 792.391125 353.212845 
L 949.513125 353.208228 
L 949.513125 353.208228 
" clip-path="url(#p465237f920)" style="fill: none; stroke: #91e8e1; stroke-linecap: square"/>
   </g>
   <g id="line2d_17">
    <path d="M 76.613125 353.223899 
L 140.625792 353.159362 
L 146.445125 352.95457 
L 460.689125 353.126523 
L 472.327792 353.096802 
L 483.966458 353.108141 
L 553.798458 353.158533 
L 559.617792 353.16396 
L 565.437125 352.972323 
L 571.256458 353.165382 
L 769.113792 353.214346 
L 937.874458 353.176582 
L 943.693792 352.860818 
L 949.513125 56.715756 
L 949.513125 56.715756 
" clip-path="url(#p465237f920)" style="fill: none; stroke: #7cb5ec; stroke-linecap: square"/>
   </g>
   <g id="line2d_18">
    <path d="M 76.613125 353.223899 
L 140.625792 353.159858 
L 146.445125 352.935891 
L 158.083792 352.984256 
L 163.903125 352.894884 
L 169.722458 353.024052 
L 187.180458 352.933882 
L 198.819125 352.973001 
L 466.508458 353.136768 
L 513.063125 353.127964 
L 571.256458 353.176056 
L 949.513125 353.214666 
L 949.513125 353.214666 
" clip-path="url(#p465237f920)" style="fill: none; stroke: #434348; stroke-linecap: square"/>
   </g>
   <g id="line2d_19">
    <path d="M 76.613125 353.223896 
L 134.806458 353.168847 
L 140.625792 352.986408 
L 146.445125 352.231856 
L 163.903125 352.387696 
L 169.722458 352.270149 
L 175.541792 352.542606 
L 181.361125 352.570438 
L 187.180458 352.407796 
L 192.999792 352.376855 
L 198.819125 352.494098 
L 204.638458 352.344697 
L 222.096458 352.469923 
L 227.915792 352.312772 
L 257.012458 352.621411 
L 297.747792 352.648785 
L 303.567125 352.731643 
L 315.205792 352.641061 
L 338.483125 352.756398 
L 344.302458 352.531206 
L 350.121792 353.009341 
L 355.941125 352.816306 
L 402.495792 352.784707 
L 408.315125 352.892075 
L 419.953792 352.821008 
L 437.411792 352.993594 
L 443.231125 352.86388 
L 460.689125 352.977814 
L 466.508458 352.692034 
L 472.327792 352.855729 
L 478.147125 352.801712 
L 483.966458 353.009173 
L 489.785792 353.047725 
L 495.605125 353.202916 
L 513.063125 353.029649 
L 530.521125 353.033965 
L 559.617792 353.058121 
L 571.256458 353.016357 
L 792.391125 353.190576 
L 809.849125 353.182349 
L 868.042458 353.202825 
L 937.874458 353.188811 
L 943.693792 353.045288 
L 949.513125 285.260381 
L 949.513125 285.260381 
" clip-path="url(#p465237f920)" style="fill: none; stroke: #90ed7d; stroke-linecap: square"/>
   </g>
   <g id="line2d_20">
    <path d="M 76.613125 353.223896 
L 134.806458 353.171915 
L 140.625792 352.978894 
L 146.445125 352.14309 
L 158.083792 352.413169 
L 163.903125 352.336365 
L 175.541792 352.598688 
L 181.361125 352.372389 
L 187.180458 352.355308 
L 192.999792 352.533484 
L 204.638458 352.400989 
L 239.554458 352.488443 
L 280.289792 352.644374 
L 297.747792 352.585324 
L 303.567125 352.293366 
L 309.386458 352.559624 
L 315.205792 352.662567 
L 332.663792 352.730649 
L 402.495792 352.858951 
L 414.134458 352.821852 
L 425.773125 352.89876 
L 489.785792 352.972051 
L 501.424458 352.993621 
L 507.243792 352.874603 
L 518.882458 352.953771 
L 524.701792 353.144864 
L 547.979125 353.073583 
L 577.075792 353.027589 
L 594.533792 353.041984 
L 617.811125 353.11773 
L 716.739792 353.194266 
L 949.513125 353.214111 
L 949.513125 353.214111 
" clip-path="url(#p465237f920)" style="fill: none; stroke: #f7a35c; stroke-linecap: square"/>
   </g>
   <g id="line2d_21">
    <path d="M 76.613125 353.223897 
L 134.806458 353.163289 
L 140.625792 352.96061 
L 146.445125 352.003508 
L 158.083792 352.197119 
L 163.903125 352.270766 
L 169.722458 352.137066 
L 175.541792 352.4674 
L 181.361125 352.477209 
L 187.180458 352.258663 
L 192.999792 352.217861 
L 198.819125 352.377061 
L 210.457792 352.140075 
L 222.096458 352.30419 
L 227.915792 352.073765 
L 233.735125 352.243306 
L 245.373792 352.410675 
L 251.193125 352.528992 
L 274.470458 352.442009 
L 280.289792 352.647226 
L 286.109125 352.45629 
L 291.928458 352.591455 
L 297.747792 352.563069 
L 303.567125 352.409089 
L 309.386458 352.603272 
L 315.205792 352.50403 
L 321.025125 352.608132 
L 326.844458 352.46175 
L 338.483125 352.638125 
L 344.302458 352.217153 
L 350.121792 352.956192 
L 355.941125 352.609072 
L 361.760458 348.546923 
L 367.579792 352.292638 
L 373.399125 353.140818 
L 379.218458 352.382813 
L 390.857125 353.147012 
L 396.676458 352.81966 
L 402.495792 352.888318 
L 408.315125 353.122772 
L 460.689125 353.071772 
L 466.508458 352.972223 
L 472.327792 353.187808 
L 489.785792 353.09363 
L 501.424458 353.211184 
L 542.159792 353.025469 
L 670.185125 353.144848 
L 757.475125 353.192709 
L 815.668458 353.192512 
L 937.874458 353.17966 
L 943.693792 352.98112 
L 949.513125 262.094569 
L 949.513125 262.094569 
" clip-path="url(#p465237f920)" style="fill: none; stroke: #8085e9; stroke-linecap: square"/>
   </g>
   <g id="line2d_22">
    <path d="M 76.613125 353.223896 
L 134.806458 353.166791 
L 140.625792 352.948479 
L 146.445125 351.902033 
L 158.083792 352.259181 
L 163.903125 352.20392 
L 175.541792 352.516943 
L 181.361125 352.242251 
L 187.180458 352.183212 
L 192.999792 352.402983 
L 204.638458 352.243442 
L 210.457792 352.244668 
L 216.277125 352.056155 
L 222.096458 352.272291 
L 227.915792 352.110422 
L 245.373792 352.415611 
L 251.193125 352.410389 
L 257.012458 352.55392 
L 268.651125 352.482008 
L 280.289792 352.53083 
L 291.928458 352.324013 
L 297.747792 352.422105 
L 303.567125 352.268806 
L 309.386458 352.409232 
L 315.205792 352.416734 
L 321.025125 352.577064 
L 344.302458 352.606519 
L 350.121792 352.569168 
L 355.941125 352.83904 
L 367.579792 352.69794 
L 379.218458 352.754835 
L 443.231125 352.845616 
L 449.050458 352.692712 
L 454.869792 352.874805 
L 466.508458 352.906098 
L 472.327792 352.786012 
L 518.882458 352.864492 
L 524.701792 353.12395 
L 542.159792 353.044959 
L 664.365792 353.13237 
L 745.836458 353.197685 
L 833.126458 353.191307 
L 949.513125 353.213573 
L 949.513125 353.213573 
" clip-path="url(#p465237f920)" style="fill: none; stroke: #f15c80; stroke-linecap: square"/>
   </g>
   <g id="line2d_23">
    <path d="M 76.613125 353.223897 
L 134.806458 353.14607 
L 140.625792 352.869848 
L 146.445125 351.625168 
L 152.264458 351.841989 
L 163.903125 352.021779 
L 169.722458 351.865951 
L 175.541792 352.378389 
L 181.361125 352.312282 
L 187.180458 351.993149 
L 192.999792 351.971371 
L 198.819125 352.236571 
L 210.457792 351.739129 
L 222.096458 352.157379 
L 227.915792 351.75202 
L 233.735125 351.987402 
L 239.554458 351.990778 
L 251.193125 352.410647 
L 262.831792 352.436059 
L 268.651125 352.29289 
L 274.470458 352.560639 
L 280.289792 352.372606 
L 286.109125 352.442183 
L 303.567125 352.265775 
L 321.025125 352.462768 
L 338.483125 352.410969 
L 344.302458 352.16833 
L 350.121792 352.899525 
L 355.941125 352.653093 
L 367.579792 352.61676 
L 373.399125 352.732518 
L 379.218458 352.573392 
L 385.037792 352.787441 
L 425.773125 352.712888 
L 437.411792 352.832814 
L 443.231125 352.65595 
L 460.689125 352.76036 
L 466.508458 352.373542 
L 472.327792 352.535158 
L 478.147125 352.448951 
L 483.966458 352.827967 
L 489.785792 352.858978 
L 495.605125 353.192339 
L 501.424458 353.16066 
L 518.882458 352.616874 
L 524.701792 352.645821 
L 536.340458 352.881935 
L 559.617792 352.928293 
L 571.256458 352.861345 
L 641.088458 353.114569 
L 792.391125 353.205058 
L 798.210458 353.142892 
L 809.849125 353.182616 
L 838.945792 353.213449 
L 937.874458 353.193592 
L 943.693792 353.027911 
L 949.513125 267.354888 
L 949.513125 267.354888 
" clip-path="url(#p465237f920)" style="fill: none; stroke: #e4d354; stroke-linecap: square"/>
   </g>
   <g id="line2d_24">
    <path d="M 76.613125 353.223896 
L 134.806458 353.152258 
L 140.625792 352.84897 
L 146.445125 351.496722 
L 152.264458 351.869679 
L 169.722458 352.203837 
L 175.541792 352.397815 
L 181.361125 352.04985 
L 187.180458 351.854688 
L 192.999792 352.224362 
L 198.819125 352.048766 
L 210.457792 351.986728 
L 216.277125 351.6782 
L 222.096458 351.994164 
L 227.915792 351.900061 
L 233.735125 351.952831 
L 239.554458 352.154557 
L 251.193125 352.296806 
L 257.012458 352.445401 
L 268.651125 352.440768 
L 274.470458 352.335387 
L 280.289792 352.440807 
L 291.928458 352.261473 
L 297.747792 352.262587 
L 303.567125 352.108035 
L 315.205792 352.187945 
L 321.025125 352.502839 
L 332.663792 352.468907 
L 338.483125 352.519756 
L 344.302458 352.426242 
L 350.121792 352.456303 
L 355.941125 352.730839 
L 367.579792 352.595977 
L 379.218458 352.666332 
L 402.495792 352.720646 
L 408.315125 352.645796 
L 431.592458 352.722522 
L 449.050458 352.509176 
L 454.869792 352.717765 
L 466.508458 352.76295 
L 472.327792 352.614027 
L 478.147125 352.64689 
L 483.966458 352.845656 
L 489.785792 352.768366 
L 501.424458 352.828452 
L 507.243792 352.512216 
L 513.063125 352.402291 
L 518.882458 352.405974 
L 524.701792 353.050061 
L 536.340458 352.94218 
L 565.437125 352.918535 
L 582.895125 352.87183 
L 617.811125 353.07327 
L 792.391125 353.206899 
L 798.210458 353.143704 
L 809.849125 353.18325 
L 838.945792 353.21385 
L 949.513125 353.218335 
L 949.513125 353.218335 
" clip-path="url(#p465237f920)" style="fill: none; stroke: #2b908f; stroke-linecap: square"/>
   </g>
   <g id="line2d_25">
    <path d="M 76.613125 353.223897 
L 134.806458 353.15011 
L 140.625792 352.882344 
L 146.445125 351.597094 
L 163.903125 351.956096 
L 169.722458 351.783574 
L 175.541792 352.329987 
L 181.361125 352.303351 
L 187.180458 351.951423 
L 192.999792 351.93232 
L 198.819125 352.106601 
L 210.457792 351.666827 
L 216.277125 351.786868 
L 222.096458 352.110772 
L 227.915792 351.597121 
L 251.193125 352.428648 
L 268.651125 352.489973 
L 280.289792 352.221855 
L 286.109125 352.434894 
L 291.928458 352.469616 
L 297.747792 352.360047 
L 303.567125 352.083189 
L 309.386458 352.281928 
L 315.205792 352.312713 
L 321.025125 352.499851 
L 326.844458 352.558878 
L 332.663792 352.393947 
L 338.483125 352.490484 
L 344.302458 352.138426 
L 350.121792 352.920113 
L 355.941125 352.719659 
L 367.579792 352.632135 
L 373.399125 352.764195 
L 379.218458 352.600843 
L 385.037792 352.781654 
L 396.676458 352.689691 
L 402.495792 352.613641 
L 408.315125 352.750313 
L 419.953792 352.646403 
L 437.411792 352.855515 
L 443.231125 352.659957 
L 460.689125 352.778795 
L 466.508458 352.255211 
L 472.327792 352.442415 
L 478.147125 352.391099 
L 483.966458 352.850706 
L 489.785792 352.908633 
L 495.605125 353.191775 
L 501.424458 353.159204 
L 518.882458 352.664428 
L 530.521125 352.84024 
L 542.159792 352.968852 
L 600.353125 353.055059 
L 652.727125 353.154385 
L 943.693792 353.055266 
L 949.513125 284.536175 
L 949.513125 284.536175 
" clip-path="url(#p465237f920)" style="fill: none; stroke: #f45b5b; stroke-linecap: square"/>
   </g>
   <g id="line2d_26">
    <path d="M 76.613125 353.223896 
L 134.806458 353.156125 
L 140.625792 352.86426 
L 146.445125 351.409411 
L 152.264458 351.828381 
L 158.083792 351.879697 
L 163.903125 351.809648 
L 169.722458 352.323506 
L 181.361125 352.035185 
L 187.180458 351.833397 
L 192.999792 352.09493 
L 198.819125 351.949517 
L 210.457792 351.924113 
L 216.277125 351.593102 
L 222.096458 351.899863 
L 227.915792 351.667001 
L 239.554458 352.086849 
L 245.373792 352.30034 
L 251.193125 352.263368 
L 257.012458 352.509719 
L 268.651125 352.48035 
L 274.470458 352.334234 
L 291.928458 352.304114 
L 303.567125 352.115031 
L 315.205792 352.252782 
L 326.844458 352.508869 
L 332.663792 352.433696 
L 338.483125 352.549424 
L 344.302458 352.42636 
L 350.121792 352.455261 
L 355.941125 352.767419 
L 367.579792 352.596851 
L 373.399125 352.707673 
L 385.037792 352.705734 
L 402.495792 352.714954 
L 408.315125 352.643897 
L 419.953792 352.735637 
L 443.231125 352.737652 
L 449.050458 352.493186 
L 454.869792 352.721396 
L 460.689125 352.787241 
L 466.508458 352.724969 
L 472.327792 352.507279 
L 478.147125 352.531551 
L 483.966458 352.812629 
L 489.785792 352.735027 
L 501.424458 352.857356 
L 507.243792 352.549887 
L 513.063125 352.475699 
L 518.882458 352.539251 
L 524.701792 353.071293 
L 536.340458 352.979314 
L 565.437125 352.977043 
L 588.714458 353.001625 
L 641.088458 353.153143 
L 792.391125 353.206593 
L 798.210458 353.079756 
L 804.029792 353.212159 
L 815.668458 353.20667 
L 949.513125 353.219473 
L 949.513125 353.219473 
" clip-path="url(#p465237f920)" style="fill: none; stroke: #91e8e1; stroke-linecap: square"/>
   </g>
   <g id="line2d_27">
    <path d="M 76.613125 353.223897 
L 134.806458 353.167466 
L 140.625792 352.966958 
L 146.445125 352.066925 
L 163.903125 352.347061 
L 169.722458 352.224837 
L 175.541792 352.607389 
L 181.361125 352.577234 
L 187.180458 352.367071 
L 192.999792 352.317678 
L 198.819125 352.48022 
L 210.457792 352.185608 
L 216.277125 352.245007 
L 222.096458 352.421351 
L 227.915792 352.124625 
L 245.373792 352.530464 
L 262.831792 352.665995 
L 274.470458 352.616825 
L 280.289792 352.693803 
L 286.109125 352.520865 
L 291.928458 352.684372 
L 297.747792 352.561094 
L 303.567125 352.6745 
L 309.386458 352.502572 
L 315.205792 352.507993 
L 321.025125 352.715022 
L 332.663792 352.567872 
L 338.483125 352.751261 
L 344.302458 352.408712 
L 350.121792 353.007312 
L 355.941125 352.807085 
L 367.579792 352.759979 
L 373.399125 352.923055 
L 379.218458 352.689476 
L 385.037792 352.921021 
L 396.676458 352.771811 
L 402.495792 352.683317 
L 408.315125 352.851186 
L 414.134458 352.765885 
L 425.773125 352.761004 
L 431.592458 352.979652 
L 437.411792 352.97435 
L 443.231125 352.75687 
L 454.869792 352.923224 
L 460.689125 352.861578 
L 466.508458 352.432247 
L 472.327792 352.833631 
L 478.147125 352.713636 
L 483.966458 352.927273 
L 489.785792 352.946735 
L 495.605125 353.204676 
L 507.243792 353.069938 
L 518.882458 352.813378 
L 530.521125 352.918936 
L 547.979125 352.997425 
L 565.437125 352.939937 
L 885.500458 353.219845 
L 937.874458 353.184784 
L 943.693792 352.944472 
L 949.513125 230.385882 
L 949.513125 230.385882 
" clip-path="url(#p465237f920)" style="fill: none; stroke: #7cb5ec; stroke-linecap: square"/>
   </g>
   <g id="line2d_28">
    <path d="M 76.613125 353.223896 
L 134.806458 353.171586 
L 140.625792 352.951859 
L 146.445125 351.973144 
L 158.083792 352.315148 
L 163.903125 352.301979 
L 175.541792 352.632157 
L 181.361125 352.363982 
L 187.180458 352.273805 
L 192.999792 352.505072 
L 204.638458 352.330892 
L 210.457792 352.323124 
L 216.277125 352.076905 
L 222.096458 352.324654 
L 227.915792 352.193455 
L 262.831792 352.623944 
L 280.289792 352.706403 
L 286.109125 352.483715 
L 291.928458 352.574149 
L 297.747792 352.516672 
L 303.567125 352.29088 
L 309.386458 352.506255 
L 326.844458 352.656717 
L 338.483125 352.717987 
L 350.121792 352.668698 
L 355.941125 352.862122 
L 373.399125 352.835359 
L 454.869792 352.850666 
L 466.508458 352.860345 
L 472.327792 352.68102 
L 478.147125 352.693966 
L 483.966458 352.900386 
L 495.605125 352.918907 
L 501.424458 352.92866 
L 507.243792 352.718636 
L 518.882458 352.691184 
L 524.701792 353.100632 
L 542.159792 353.023461 
L 600.353125 353.042902 
L 652.727125 353.126742 
L 949.513125 353.219251 
L 949.513125 353.219251 
" clip-path="url(#p465237f920)" style="fill: none; stroke: #434348; stroke-linecap: square"/>
   </g>
   <g id="line2d_29">
    <path d="M 76.613125 353.223897 
L 128.987125 353.174649 
L 134.806458 353.023975 
L 140.625792 352.38999 
L 152.264458 352.413082 
L 158.083792 352.419787 
L 163.903125 352.276333 
L 169.722458 352.540152 
L 187.180458 352.410101 
L 192.999792 352.382499 
L 198.819125 352.534166 
L 204.638458 352.323467 
L 216.277125 352.35529 
L 222.096458 352.33289 
L 227.915792 352.423831 
L 239.554458 352.299792 
L 245.373792 352.461786 
L 251.193125 352.346507 
L 262.831792 352.368441 
L 268.651125 352.198525 
L 274.470458 352.466638 
L 280.289792 352.28198 
L 286.109125 352.505737 
L 297.747792 352.40826 
L 303.567125 352.549033 
L 321.025125 352.506066 
L 326.844458 352.581141 
L 332.663792 352.525659 
L 338.483125 352.621188 
L 344.302458 352.243868 
L 350.121792 352.962749 
L 361.760458 352.34643 
L 373.399125 352.963285 
L 379.218458 352.513246 
L 385.037792 352.919035 
L 390.857125 352.904453 
L 396.676458 352.666529 
L 402.495792 352.693659 
L 408.315125 352.980337 
L 414.134458 352.893737 
L 419.953792 352.990197 
L 425.773125 352.870229 
L 431.592458 353.10419 
L 437.411792 353.097671 
L 443.231125 352.914203 
L 454.869792 353.108764 
L 466.508458 352.962489 
L 472.327792 353.157125 
L 483.966458 353.120828 
L 577.075792 353.180267 
L 809.849125 353.223731 
L 937.874458 353.21893 
L 943.693792 351.09848 
L 949.513125 353.196131 
L 949.513125 353.196131 
" clip-path="url(#p465237f920)" style="fill: none; stroke: #90ed7d; stroke-linecap: square"/>
   </g>
   <g id="line2d_30">
    <path d="M 76.613125 353.223896 
L 128.987125 353.175419 
L 134.806458 353.022118 
L 140.625792 352.430721 
L 146.445125 352.349528 
L 158.083792 352.416711 
L 163.903125 352.364936 
L 169.722458 352.510539 
L 198.819125 352.434815 
L 216.277125 352.265826 
L 222.096458 352.447354 
L 280.289792 352.405468 
L 338.483125 352.582767 
L 350.121792 352.644451 
L 361.760458 352.736432 
L 414.134458 352.904646 
L 425.773125 352.954288 
L 472.327792 353.056567 
L 594.533792 353.190854 
L 763.294458 353.222996 
L 937.874458 353.218351 
L 943.693792 351.109403 
L 949.513125 353.19731 
L 949.513125 353.19731 
" clip-path="url(#p465237f920)" style="fill: none; stroke: #f7a35c; stroke-linecap: square"/>
   </g>
   <g id="line2d_31">
    <path d="M 76.613125 353.223897 
L 128.987125 353.189488 
L 134.806458 353.083087 
L 140.625792 352.644848 
L 152.264458 352.668369 
L 198.819125 352.738028 
L 204.638458 352.572867 
L 216.277125 352.583556 
L 239.554458 352.519351 
L 245.373792 352.610519 
L 268.651125 352.399271 
L 286.109125 352.542692 
L 297.747792 352.480729 
L 338.483125 352.463001 
L 344.302458 352.110696 
L 350.121792 352.830296 
L 355.941125 352.493956 
L 367.579792 352.433368 
L 373.399125 352.700823 
L 379.218458 352.313319 
L 385.037792 352.6499 
L 396.676458 352.435072 
L 402.495792 352.33342 
L 408.315125 352.658625 
L 414.134458 352.476927 
L 419.953792 352.552206 
L 425.773125 352.48979 
L 431.592458 352.804327 
L 437.411792 352.833559 
L 443.231125 352.40738 
L 454.869792 352.752631 
L 460.689125 352.739188 
L 466.508458 352.281883 
L 472.327792 352.848131 
L 478.147125 352.684866 
L 483.966458 352.874085 
L 489.785792 352.931026 
L 495.605125 353.195712 
L 507.243792 353.028442 
L 518.882458 352.941473 
L 606.172458 353.13243 
L 681.823792 353.208431 
L 937.874458 353.217067 
L 943.693792 350.480757 
L 949.513125 353.04786 
L 949.513125 353.04786 
" clip-path="url(#p465237f920)" style="fill: none; stroke: #8085e9; stroke-linecap: square"/>
   </g>
   <g id="line2d_32">
    <path d="M 76.613125 353.223897 
L 128.987125 353.19032 
L 134.806458 353.078945 
L 140.625792 352.679053 
L 146.445125 352.605429 
L 158.083792 352.671698 
L 163.903125 352.622855 
L 169.722458 352.72414 
L 222.096458 352.641807 
L 257.012458 352.535517 
L 268.651125 352.43822 
L 274.470458 352.545556 
L 291.928458 352.382358 
L 297.747792 352.610541 
L 309.386458 352.505138 
L 315.205792 352.575455 
L 321.025125 352.458521 
L 326.844458 352.564433 
L 350.121792 352.452118 
L 355.941125 352.603203 
L 385.037792 352.495027 
L 390.857125 352.58556 
L 408.315125 352.546929 
L 431.592458 352.676433 
L 449.050458 352.524765 
L 466.508458 352.794579 
L 478.147125 352.739864 
L 489.785792 352.854693 
L 501.424458 352.827207 
L 507.243792 352.642158 
L 524.701792 353.115321 
L 536.340458 352.988054 
L 716.739792 353.216285 
L 937.874458 353.213359 
L 943.693792 350.494831 
L 949.513125 353.052463 
L 949.513125 353.052463 
" clip-path="url(#p465237f920)" style="fill: none; stroke: #f15c80; stroke-linecap: square"/>
   </g>
   <g id="line2d_33">
    <path d="M 76.613125 353.223897 
L 128.987125 353.18023 
L 134.806458 353.044844 
L 140.625792 352.502207 
L 146.445125 352.412075 
L 152.264458 352.538889 
L 192.999792 352.480439 
L 198.819125 352.618374 
L 204.638458 352.434145 
L 216.277125 352.426726 
L 222.096458 352.398284 
L 227.915792 352.49727 
L 239.554458 352.320926 
L 245.373792 352.445263 
L 257.012458 352.362924 
L 262.831792 352.366104 
L 268.651125 352.200097 
L 274.470458 352.333733 
L 280.289792 352.335996 
L 286.109125 352.456263 
L 291.928458 352.301009 
L 297.747792 352.384869 
L 309.386458 352.424747 
L 326.844458 352.48977 
L 338.483125 352.459349 
L 344.302458 352.140827 
L 350.121792 352.870103 
L 355.941125 352.561238 
L 361.760458 352.645238 
L 367.579792 352.602345 
L 373.399125 352.704688 
L 379.218458 352.613687 
L 390.857125 352.706612 
L 460.689125 353.012066 
L 466.508458 352.858043 
L 489.785792 353.115621 
L 501.424458 353.195864 
L 518.882458 353.116856 
L 792.391125 353.223431 
L 937.874458 353.210205 
L 943.693792 346.811804 
L 949.513125 353.013952 
L 949.513125 353.013952 
" clip-path="url(#p465237f920)" style="fill: none; stroke: #e4d354; stroke-linecap: square"/>
   </g>
   <g id="line2d_34">
    <path d="M 76.613125 353.223897 
L 128.987125 353.180954 
L 134.806458 353.042621 
L 140.625792 352.521223 
L 146.445125 352.418626 
L 152.264458 352.549775 
L 181.361125 352.5587 
L 198.819125 352.55734 
L 216.277125 352.352873 
L 222.096458 352.496283 
L 239.554458 352.423399 
L 268.651125 352.368387 
L 280.289792 352.393559 
L 286.109125 351.903134 
L 291.928458 352.780043 
L 297.747792 352.372664 
L 303.567125 352.317322 
L 309.386458 352.521297 
L 321.025125 352.477597 
L 332.663792 352.538191 
L 344.302458 352.457948 
L 350.121792 352.493286 
L 355.941125 352.655354 
L 379.218458 352.664105 
L 396.676458 352.745475 
L 431.592458 352.906693 
L 454.869792 352.925468 
L 466.508458 353.02203 
L 483.966458 353.04744 
L 501.424458 353.065548 
L 507.243792 352.99961 
L 530.521125 353.150352 
L 559.617792 353.15342 
L 937.874458 353.211013 
L 943.693792 346.836023 
L 949.513125 353.02203 
L 949.513125 353.02203 
" clip-path="url(#p465237f920)" style="fill: none; stroke: #2b908f; stroke-linecap: square"/>
   </g>
   <g id="line2d_35">
    <path d="M 76.613125 353.223897 
L 128.987125 353.18113 
L 134.806458 353.052014 
L 140.625792 352.516443 
L 146.445125 352.437224 
L 158.083792 352.54103 
L 163.903125 352.437686 
L 169.722458 352.646952 
L 175.541792 352.556876 
L 181.361125 352.625328 
L 192.999792 352.509814 
L 198.819125 352.624299 
L 204.638458 352.424397 
L 251.193125 352.444106 
L 280.289792 352.348978 
L 286.109125 352.535174 
L 291.928458 352.369116 
L 297.747792 352.471242 
L 309.386458 352.444229 
L 315.205792 352.533573 
L 321.025125 352.357997 
L 326.844458 352.628891 
L 332.663792 352.463144 
L 338.483125 352.501078 
L 344.302458 352.150511 
L 350.121792 352.838025 
L 355.941125 352.618578 
L 373.399125 352.76517 
L 379.218458 352.560931 
L 385.037792 352.747247 
L 402.495792 352.656109 
L 408.315125 352.826176 
L 419.953792 352.787369 
L 437.411792 352.967555 
L 443.231125 352.804194 
L 460.689125 352.976562 
L 466.508458 352.787649 
L 472.327792 352.980952 
L 478.147125 352.931276 
L 495.605125 353.211545 
L 565.437125 353.139435 
L 937.874458 353.210443 
L 943.693792 348.257853 
L 949.513125 352.802662 
L 949.513125 352.802662 
" clip-path="url(#p465237f920)" style="fill: none; stroke: #f45b5b; stroke-linecap: square"/>
   </g>
   <g id="line2d_36">
    <path d="M 76.613125 353.223896 
L 128.987125 353.18164 
L 134.806458 353.051246 
L 140.625792 352.558168 
L 146.445125 352.438051 
L 152.264458 352.549929 
L 163.903125 352.498954 
L 169.722458 352.638515 
L 181.361125 352.59793 
L 204.638458 352.494865 
L 216.277125 352.374502 
L 222.096458 352.514711 
L 239.554458 352.513351 
L 257.012458 352.415384 
L 262.831792 352.441165 
L 268.651125 352.283812 
L 274.470458 352.311394 
L 280.289792 352.495637 
L 291.928458 352.354775 
L 297.747792 352.49801 
L 303.567125 352.4372 
L 309.386458 352.581221 
L 315.205792 352.441541 
L 332.663792 352.548584 
L 344.302458 352.448676 
L 355.941125 352.640004 
L 379.218458 352.677092 
L 408.315125 352.7631 
L 443.231125 352.902489 
L 449.050458 352.806219 
L 466.508458 353.016761 
L 478.147125 352.984147 
L 495.605125 353.054533 
L 518.882458 353.102291 
L 524.701792 353.196705 
L 542.159792 353.123109 
L 629.449792 353.190407 
L 937.874458 353.21184 
L 943.693792 348.274124 
L 949.513125 352.815613 
L 949.513125 352.815613 
" clip-path="url(#p465237f920)" style="fill: none; stroke: #91e8e1; stroke-linecap: square"/>
   </g>
   <g id="line2d_37">
    <path d="M 76.613125 353.223897 
L 128.987125 353.181748 
L 134.806458 353.050012 
L 140.625792 352.559576 
L 146.445125 352.450256 
L 152.264458 352.577017 
L 175.541792 352.560627 
L 181.361125 352.623995 
L 192.999792 352.510734 
L 198.819125 352.630048 
L 204.638458 352.469576 
L 227.915792 352.503978 
L 239.554458 352.349227 
L 245.373792 352.424147 
L 268.651125 352.135256 
L 274.470458 352.372576 
L 280.289792 352.182519 
L 286.109125 352.443247 
L 291.928458 352.187561 
L 297.747792 352.439924 
L 303.567125 352.338627 
L 332.663792 352.429954 
L 338.483125 352.363516 
L 344.302458 351.978578 
L 350.121792 352.83803 
L 355.941125 352.462981 
L 367.579792 352.438238 
L 373.399125 352.712771 
L 379.218458 352.400507 
L 385.037792 352.647479 
L 396.676458 352.575388 
L 402.495792 352.504182 
L 408.315125 352.773099 
L 414.134458 352.649037 
L 437.411792 352.945478 
L 443.231125 352.660309 
L 454.869792 352.91421 
L 460.689125 352.950704 
L 466.508458 352.659756 
L 472.327792 352.98728 
L 478.147125 352.922058 
L 495.605125 353.205677 
L 547.979125 353.110361 
L 850.584458 353.223542 
L 937.874458 353.214106 
L 943.693792 350.183655 
L 949.513125 352.938062 
L 949.513125 352.938062 
" clip-path="url(#p465237f920)" style="fill: none; stroke: #7cb5ec; stroke-linecap: square"/>
   </g>
   <g id="line2d_38">
    <path d="M 76.613125 353.223897 
L 128.987125 353.182112 
L 134.806458 353.044698 
L 140.625792 352.586276 
L 146.445125 352.458988 
L 152.264458 352.587347 
L 163.903125 352.49177 
L 169.722458 352.62991 
L 181.361125 352.583018 
L 198.819125 352.580739 
L 216.277125 352.355826 
L 222.096458 352.527021 
L 251.193125 352.376088 
L 257.012458 352.329944 
L 262.831792 352.156683 
L 268.651125 352.444602 
L 274.470458 352.291175 
L 280.289792 352.389775 
L 286.109125 352.319717 
L 291.928458 352.138415 
L 297.747792 352.437518 
L 303.567125 352.29726 
L 309.386458 352.473662 
L 321.025125 352.378937 
L 332.663792 352.461521 
L 344.302458 352.354263 
L 373.399125 352.587013 
L 385.037792 352.532331 
L 390.857125 352.639396 
L 408.315125 352.680641 
L 443.231125 352.830216 
L 449.050458 352.752674 
L 466.508458 352.967617 
L 478.147125 352.943724 
L 495.605125 353.014732 
L 646.907792 353.193876 
L 937.874458 353.211391 
L 943.693792 350.20052 
L 949.513125 352.946224 
L 949.513125 352.946224 
" clip-path="url(#p465237f920)" style="fill: none; stroke: #434348; stroke-linecap: square"/>
   </g>
   <g id="line2d_39">
    <path d="M 32.968125 353.2239 
L 993.158125 353.2239 
" clip-path="url(#p465237f920)" style="fill: none; stroke: #dedede; stroke-width: 2; stroke-linecap: square"/>
   </g>
   <g id="text_18">
    <!-- Cutadapt: Lengths of Trimmed Sequences (3' end) -->
    <g transform="translate(311.710625 19.3575) scale(0.16 -0.16)">
     <defs>
      <path id="DejaVuSans-43" d="M 4122 4306 
L 4122 3641 
Q 3803 3938 3442 4084 
Q 3081 4231 2675 4231 
Q 1875 4231 1450 3742 
Q 1025 3253 1025 2328 
Q 1025 1406 1450 917 
Q 1875 428 2675 428 
Q 3081 428 3442 575 
Q 3803 722 4122 1019 
L 4122 359 
Q 3791 134 3420 21 
Q 3050 -91 2638 -91 
Q 1578 -91 968 557 
Q 359 1206 359 2328 
Q 359 3453 968 4101 
Q 1578 4750 2638 4750 
Q 3056 4750 3426 4639 
Q 3797 4528 4122 4306 
z
" transform="scale(0.015625)"/>
      <path id="DejaVuSans-75" d="M 544 1381 
L 544 3500 
L 1119 3500 
L 1119 1403 
Q 1119 906 1312 657 
Q 1506 409 1894 409 
Q 2359 409 2629 706 
Q 2900 1003 2900 1516 
L 2900 3500 
L 3475 3500 
L 3475 0 
L 2900 0 
L 2900 538 
Q 2691 219 2414 64 
Q 2138 -91 1772 -91 
Q 1169 -91 856 284 
Q 544 659 544 1381 
z
M 1991 3584 
L 1991 3584 
z
" transform="scale(0.015625)"/>
      <path id="DejaVuSans-61" d="M 2194 1759 
Q 1497 1759 1228 1600 
Q 959 1441 959 1056 
Q 959 750 1161 570 
Q 1363 391 1709 391 
Q 2188 391 2477 730 
Q 2766 1069 2766 1631 
L 2766 1759 
L 2194 1759 
z
M 3341 1997 
L 3341 0 
L 2766 0 
L 2766 531 
Q 2569 213 2275 61 
Q 1981 -91 1556 -91 
Q 1019 -91 701 211 
Q 384 513 384 1019 
Q 384 1609 779 1909 
Q 1175 2209 1959 2209 
L 2766 2209 
L 2766 2266 
Q 2766 2663 2505 2880 
Q 2244 3097 1772 3097 
Q 1472 3097 1187 3025 
Q 903 2953 641 2809 
L 641 3341 
Q 956 3463 1253 3523 
Q 1550 3584 1831 3584 
Q 2591 3584 2966 3190 
Q 3341 2797 3341 1997 
z
" transform="scale(0.015625)"/>
      <path id="DejaVuSans-3a" d="M 750 794 
L 1409 794 
L 1409 0 
L 750 0 
L 750 794 
z
M 750 3309 
L 1409 3309 
L 1409 2516 
L 750 2516 
L 750 3309 
z
" transform="scale(0.015625)"/>
      <path id="DejaVuSans-6f" d="M 1959 3097 
Q 1497 3097 1228 2736 
Q 959 2375 959 1747 
Q 959 1119 1226 758 
Q 1494 397 1959 397 
Q 2419 397 2687 759 
Q 2956 1122 2956 1747 
Q 2956 2369 2687 2733 
Q 2419 3097 1959 3097 
z
M 1959 3584 
Q 2709 3584 3137 3096 
Q 3566 2609 3566 1747 
Q 3566 888 3137 398 
Q 2709 -91 1959 -91 
Q 1206 -91 779 398 
Q 353 888 353 1747 
Q 353 2609 779 3096 
Q 1206 3584 1959 3584 
z
" transform="scale(0.015625)"/>
      <path id="DejaVuSans-66" d="M 2375 4863 
L 2375 4384 
L 1825 4384 
Q 1516 4384 1395 4259 
Q 1275 4134 1275 3809 
L 1275 3500 
L 2222 3500 
L 2222 3053 
L 1275 3053 
L 1275 0 
L 697 0 
L 697 3053 
L 147 3053 
L 147 3500 
L 697 3500 
L 697 3744 
Q 697 4328 969 4595 
Q 1241 4863 1831 4863 
L 2375 4863 
z
" transform="scale(0.015625)"/>
      <path id="DejaVuSans-53" d="M 3425 4513 
L 3425 3897 
Q 3066 4069 2747 4153 
Q 2428 4238 2131 4238 
Q 1616 4238 1336 4038 
Q 1056 3838 1056 3469 
Q 1056 3159 1242 3001 
Q 1428 2844 1947 2747 
L 2328 2669 
Q 3034 2534 3370 2195 
Q 3706 1856 3706 1288 
Q 3706 609 3251 259 
Q 2797 -91 1919 -91 
Q 1588 -91 1214 -16 
Q 841 59 441 206 
L 441 856 
Q 825 641 1194 531 
Q 1563 422 1919 422 
Q 2459 422 2753 634 
Q 3047 847 3047 1241 
Q 3047 1584 2836 1778 
Q 2625 1972 2144 2069 
L 1759 2144 
Q 1053 2284 737 2584 
Q 422 2884 422 3419 
Q 422 4038 858 4394 
Q 1294 4750 2059 4750 
Q 2388 4750 2728 4690 
Q 3069 4631 3425 4513 
z
" transform="scale(0.015625)"/>
      <path id="DejaVuSans-71" d="M 947 1747 
Q 947 1113 1208 752 
Q 1469 391 1925 391 
Q 2381 391 2643 752 
Q 2906 1113 2906 1747 
Q 2906 2381 2643 2742 
Q 2381 3103 1925 3103 
Q 1469 3103 1208 2742 
Q 947 2381 947 1747 
z
M 2906 525 
Q 2725 213 2448 61 
Q 2172 -91 1784 -91 
Q 1150 -91 751 415 
Q 353 922 353 1747 
Q 353 2572 751 3078 
Q 1150 3584 1784 3584 
Q 2172 3584 2448 3432 
Q 2725 3281 2906 2969 
L 2906 3500 
L 3481 3500 
L 3481 -1331 
L 2906 -1331 
L 2906 525 
z
" transform="scale(0.015625)"/>
      <path id="DejaVuSans-27" d="M 1147 4666 
L 1147 2931 
L 616 2931 
L 616 4666 
L 1147 4666 
z
" transform="scale(0.015625)"/>
     </defs>
     <use xlink:href="#DejaVuSans-43"/>
     <use xlink:href="#DejaVuSans-75" x="69.824219"/>
     <use xlink:href="#DejaVuSans-74" x="133.203125"/>
     <use xlink:href="#DejaVuSans-61" x="172.412109"/>
     <use xlink:href="#DejaVuSans-64" x="233.691406"/>
     <use xlink:href="#DejaVuSans-61" x="297.167969"/>
     <use xlink:href="#DejaVuSans-70" x="358.447266"/>
     <use xlink:href="#DejaVuSans-74" x="421.923828"/>
     <use xlink:href="#DejaVuSans-3a" x="461.132812"/>
     <use xlink:href="#DejaVuSans-20" x="494.824219"/>
     <use xlink:href="#DejaVuSans-4c" x="526.611328"/>
     <use xlink:href="#DejaVuSans-65" x="580.574219"/>
     <use xlink:href="#DejaVuSans-6e" x="642.097656"/>
     <use xlink:href="#DejaVuSans-67" x="705.476562"/>
     <use xlink:href="#DejaVuSans-74" x="768.953125"/>
     <use xlink:href="#DejaVuSans-68" x="808.162109"/>
     <use xlink:href="#DejaVuSans-73" x="871.541016"/>
     <use xlink:href="#DejaVuSans-20" x="923.640625"/>
     <use xlink:href="#DejaVuSans-6f" x="955.427734"/>
     <use xlink:href="#DejaVuSans-66" x="1016.609375"/>
     <use xlink:href="#DejaVuSans-20" x="1051.814453"/>
     <use xlink:href="#DejaVuSans-54" x="1083.601562"/>
     <use xlink:href="#DejaVuSans-72" x="1129.935547"/>
     <use xlink:href="#DejaVuSans-69" x="1171.048828"/>
     <use xlink:href="#DejaVuSans-6d" x="1198.832031"/>
     <use xlink:href="#DejaVuSans-6d" x="1296.244141"/>
     <use xlink:href="#DejaVuSans-65" x="1393.65625"/>
     <use xlink:href="#DejaVuSans-64" x="1455.179688"/>
     <use xlink:href="#DejaVuSans-20" x="1518.65625"/>
     <use xlink:href="#DejaVuSans-53" x="1550.443359"/>
     <use xlink:href="#DejaVuSans-65" x="1613.919922"/>
     <use xlink:href="#DejaVuSans-71" x="1675.443359"/>
     <use xlink:href="#DejaVuSans-75" x="1738.919922"/>
     <use xlink:href="#DejaVuSans-65" x="1802.298828"/>
     <use xlink:href="#DejaVuSans-6e" x="1863.822266"/>
     <use xlink:href="#DejaVuSans-63" x="1927.201172"/>
     <use xlink:href="#DejaVuSans-65" x="1982.181641"/>
     <use xlink:href="#DejaVuSans-73" x="2043.705078"/>
     <use xlink:href="#DejaVuSans-20" x="2095.804688"/>
     <use xlink:href="#DejaVuSans-28" x="2127.591797"/>
     <use xlink:href="#DejaVuSans-33" x="2166.605469"/>
     <use xlink:href="#DejaVuSans-27" x="2230.228516"/>
     <use xlink:href="#DejaVuSans-20" x="2257.71875"/>
     <use xlink:href="#DejaVuSans-65" x="2289.505859"/>
     <use xlink:href="#DejaVuSans-6e" x="2351.029297"/>
     <use xlink:href="#DejaVuSans-64" x="2414.408203"/>
     <use xlink:href="#DejaVuSans-29" x="2477.884766"/>
    </g>
   </g>
  </g>
 </g>
 <defs>
  <clipPath id="p465237f920">
   <rect x="32.968125" y="35.2559" width="960.19" height="317.968"/>
  </clipPath>
 </defs>
</svg>
