<?xml version="1.0" encoding="utf-8" standalone="no"?>
<!DOCTYPE svg PUBLIC "-//W3C//DTD SVG 1.1//EN"
  "http://www.w3.org/Graphics/SVG/1.1/DTD/svg11.dtd">
<svg xmlns:xlink="http://www.w3.org/1999/xlink" width="1000.358125pt" height="388.844525pt" viewBox="0 0 1000.358125 388.844525" xmlns="http://www.w3.org/2000/svg" version="1.1">
 <metadata>
  <rdf:RDF xmlns:dc="http://purl.org/dc/elements/1.1/" xmlns:cc="http://creativecommons.org/ns#" xmlns:rdf="http://www.w3.org/1999/02/22-rdf-syntax-ns#">
   <cc:Work>
    <dc:type rdf:resource="http://purl.org/dc/dcmitype/StillImage"/>
    <dc:date>2024-09-01T20:20:56.332113</dc:date>
    <dc:format>image/svg+xml</dc:format>
    <dc:creator>
     <cc:Agent>
      <dc:title>Matplotlib v3.8.2, https://matplotlib.org/</dc:title>
     </cc:Agent>
    </dc:creator>
   </cc:Work>
  </rdf:RDF>
 </metadata>
 <defs>
  <style type="text/css">*{stroke-linejoin: round; stroke-linecap: butt}</style>
 </defs>
 <g id="figure_1">
  <g id="axes_1">
   <g id="patch_1">
    <path d="M 32.968125 353.2239 
L 993.158125 353.2239 
L 993.158125 35.2559 
L 32.968125 35.2559 
z
" style="fill: #ffffff"/>
   </g>
   <g id="matplotlib.axis_1">
    <g id="xtick_1">
     <g id="text_1">
      <!-- −200 -->
      <g transform="translate(149.389381 366.30265) scale(0.08 -0.08)">
       <defs>
        <path id="DejaVuSans-2212" d="M 678 2272 
L 4684 2272 
L 4684 1741 
L 678 1741 
L 678 2272 
z
" transform="scale(0.015625)"/>
        <path id="DejaVuSans-32" d="M 1228 531 
L 3431 531 
L 3431 0 
L 469 0 
L 469 531 
Q 828 903 1448 1529 
Q 2069 2156 2228 2338 
Q 2531 2678 2651 2914 
Q 2772 3150 2772 3378 
Q 2772 3750 2511 3984 
Q 2250 4219 1831 4219 
Q 1534 4219 1204 4116 
Q 875 4013 500 3803 
L 500 4441 
Q 881 4594 1212 4672 
Q 1544 4750 1819 4750 
Q 2544 4750 2975 4387 
Q 3406 4025 3406 3419 
Q 3406 3131 3298 2873 
Q 3191 2616 2906 2266 
Q 2828 2175 2409 1742 
Q 1991 1309 1228 531 
z
" transform="scale(0.015625)"/>
        <path id="DejaVuSans-30" d="M 2034 4250 
Q 1547 4250 1301 3770 
Q 1056 3291 1056 2328 
Q 1056 1369 1301 889 
Q 1547 409 2034 409 
Q 2525 409 2770 889 
Q 3016 1369 3016 2328 
Q 3016 3291 2770 3770 
Q 2525 4250 2034 4250 
z
M 2034 4750 
Q 2819 4750 3233 4129 
Q 3647 3509 3647 2328 
Q 3647 1150 3233 529 
Q 2819 -91 2034 -91 
Q 1250 -91 836 529 
Q 422 1150 422 2328 
Q 422 3509 836 4129 
Q 1250 4750 2034 4750 
z
" transform="scale(0.015625)"/>
       </defs>
       <use xlink:href="#DejaVuSans-2212"/>
       <use xlink:href="#DejaVuSans-32" x="83.789062"/>
       <use xlink:href="#DejaVuSans-30" x="147.412109"/>
       <use xlink:href="#DejaVuSans-30" x="211.035156"/>
      </g>
     </g>
    </g>
    <g id="xtick_2">
     <g id="text_2">
      <!-- −100 -->
      <g transform="translate(325.732816 366.30265) scale(0.08 -0.08)">
       <defs>
        <path id="DejaVuSans-31" d="M 794 531 
L 1825 531 
L 1825 4091 
L 703 3866 
L 703 4441 
L 1819 4666 
L 2450 4666 
L 2450 531 
L 3481 531 
L 3481 0 
L 794 0 
L 794 531 
z
" transform="scale(0.015625)"/>
       </defs>
       <use xlink:href="#DejaVuSans-2212"/>
       <use xlink:href="#DejaVuSans-31" x="83.789062"/>
       <use xlink:href="#DejaVuSans-30" x="147.412109"/>
       <use xlink:href="#DejaVuSans-30" x="211.035156"/>
      </g>
     </g>
    </g>
    <g id="xtick_3">
     <g id="text_3">
      <!-- 0 -->
      <g transform="translate(510.518125 366.30265) scale(0.08 -0.08)">
       <use xlink:href="#DejaVuSans-30"/>
      </g>
     </g>
    </g>
    <g id="xtick_4">
     <g id="text_4">
      <!-- 100 -->
      <g transform="translate(681.771559 366.30265) scale(0.08 -0.08)">
       <use xlink:href="#DejaVuSans-31"/>
       <use xlink:href="#DejaVuSans-30" x="63.623047"/>
       <use xlink:href="#DejaVuSans-30" x="127.246094"/>
      </g>
     </g>
    </g>
    <g id="xtick_5">
     <g id="text_5">
      <!-- 200 -->
      <g transform="translate(858.114994 366.30265) scale(0.08 -0.08)">
       <use xlink:href="#DejaVuSans-32"/>
       <use xlink:href="#DejaVuSans-30" x="63.623047"/>
       <use xlink:href="#DejaVuSans-30" x="127.246094"/>
      </g>
     </g>
    </g>
    <g id="text_6">
     <!-- Inner Distance (bp) -->
     <g transform="translate(464.827969 379.564837) scale(0.1 -0.1)">
      <defs>
       <path id="DejaVuSans-49" d="M 628 4666 
L 1259 4666 
L 1259 0 
L 628 0 
L 628 4666 
z
" transform="scale(0.015625)"/>
       <path id="DejaVuSans-6e" d="M 3513 2113 
L 3513 0 
L 2938 0 
L 2938 2094 
Q 2938 2591 2744 2837 
Q 2550 3084 2163 3084 
Q 1697 3084 1428 2787 
Q 1159 2491 1159 1978 
L 1159 0 
L 581 0 
L 581 3500 
L 1159 3500 
L 1159 2956 
Q 1366 3272 1645 3428 
Q 1925 3584 2291 3584 
Q 2894 3584 3203 3211 
Q 3513 2838 3513 2113 
z
" transform="scale(0.015625)"/>
       <path id="DejaVuSans-65" d="M 3597 1894 
L 3597 1613 
L 953 1613 
Q 991 1019 1311 708 
Q 1631 397 2203 397 
Q 2534 397 2845 478 
Q 3156 559 3463 722 
L 3463 178 
Q 3153 47 2828 -22 
Q 2503 -91 2169 -91 
Q 1331 -91 842 396 
Q 353 884 353 1716 
Q 353 2575 817 3079 
Q 1281 3584 2069 3584 
Q 2775 3584 3186 3129 
Q 3597 2675 3597 1894 
z
M 3022 2063 
Q 3016 2534 2758 2815 
Q 2500 3097 2075 3097 
Q 1594 3097 1305 2825 
Q 1016 2553 972 2059 
L 3022 2063 
z
" transform="scale(0.015625)"/>
       <path id="DejaVuSans-72" d="M 2631 2963 
Q 2534 3019 2420 3045 
Q 2306 3072 2169 3072 
Q 1681 3072 1420 2755 
Q 1159 2438 1159 1844 
L 1159 0 
L 581 0 
L 581 3500 
L 1159 3500 
L 1159 2956 
Q 1341 3275 1631 3429 
Q 1922 3584 2338 3584 
Q 2397 3584 2469 3576 
Q 2541 3569 2628 3553 
L 2631 2963 
z
" transform="scale(0.015625)"/>
       <path id="DejaVuSans-20" transform="scale(0.015625)"/>
       <path id="DejaVuSans-44" d="M 1259 4147 
L 1259 519 
L 2022 519 
Q 2988 519 3436 956 
Q 3884 1394 3884 2338 
Q 3884 3275 3436 3711 
Q 2988 4147 2022 4147 
L 1259 4147 
z
M 628 4666 
L 1925 4666 
Q 3281 4666 3915 4102 
Q 4550 3538 4550 2338 
Q 4550 1131 3912 565 
Q 3275 0 1925 0 
L 628 0 
L 628 4666 
z
" transform="scale(0.015625)"/>
       <path id="DejaVuSans-69" d="M 603 3500 
L 1178 3500 
L 1178 0 
L 603 0 
L 603 3500 
z
M 603 4863 
L 1178 4863 
L 1178 4134 
L 603 4134 
L 603 4863 
z
" transform="scale(0.015625)"/>
       <path id="DejaVuSans-73" d="M 2834 3397 
L 2834 2853 
Q 2591 2978 2328 3040 
Q 2066 3103 1784 3103 
Q 1356 3103 1142 2972 
Q 928 2841 928 2578 
Q 928 2378 1081 2264 
Q 1234 2150 1697 2047 
L 1894 2003 
Q 2506 1872 2764 1633 
Q 3022 1394 3022 966 
Q 3022 478 2636 193 
Q 2250 -91 1575 -91 
Q 1294 -91 989 -36 
Q 684 19 347 128 
L 347 722 
Q 666 556 975 473 
Q 1284 391 1588 391 
Q 1994 391 2212 530 
Q 2431 669 2431 922 
Q 2431 1156 2273 1281 
Q 2116 1406 1581 1522 
L 1381 1569 
Q 847 1681 609 1914 
Q 372 2147 372 2553 
Q 372 3047 722 3315 
Q 1072 3584 1716 3584 
Q 2034 3584 2315 3537 
Q 2597 3491 2834 3397 
z
" transform="scale(0.015625)"/>
       <path id="DejaVuSans-74" d="M 1172 4494 
L 1172 3500 
L 2356 3500 
L 2356 3053 
L 1172 3053 
L 1172 1153 
Q 1172 725 1289 603 
Q 1406 481 1766 481 
L 2356 481 
L 2356 0 
L 1766 0 
Q 1100 0 847 248 
Q 594 497 594 1153 
L 594 3053 
L 172 3053 
L 172 3500 
L 594 3500 
L 594 4494 
L 1172 4494 
z
" transform="scale(0.015625)"/>
       <path id="DejaVuSans-61" d="M 2194 1759 
Q 1497 1759 1228 1600 
Q 959 1441 959 1056 
Q 959 750 1161 570 
Q 1363 391 1709 391 
Q 2188 391 2477 730 
Q 2766 1069 2766 1631 
L 2766 1759 
L 2194 1759 
z
M 3341 1997 
L 3341 0 
L 2766 0 
L 2766 531 
Q 2569 213 2275 61 
Q 1981 -91 1556 -91 
Q 1019 -91 701 211 
Q 384 513 384 1019 
Q 384 1609 779 1909 
Q 1175 2209 1959 2209 
L 2766 2209 
L 2766 2266 
Q 2766 2663 2505 2880 
Q 2244 3097 1772 3097 
Q 1472 3097 1187 3025 
Q 903 2953 641 2809 
L 641 3341 
Q 956 3463 1253 3523 
Q 1550 3584 1831 3584 
Q 2591 3584 2966 3190 
Q 3341 2797 3341 1997 
z
" transform="scale(0.015625)"/>
       <path id="DejaVuSans-63" d="M 3122 3366 
L 3122 2828 
Q 2878 2963 2633 3030 
Q 2388 3097 2138 3097 
Q 1578 3097 1268 2742 
Q 959 2388 959 1747 
Q 959 1106 1268 751 
Q 1578 397 2138 397 
Q 2388 397 2633 464 
Q 2878 531 3122 666 
L 3122 134 
Q 2881 22 2623 -34 
Q 2366 -91 2075 -91 
Q 1284 -91 818 406 
Q 353 903 353 1747 
Q 353 2603 823 3093 
Q 1294 3584 2113 3584 
Q 2378 3584 2631 3529 
Q 2884 3475 3122 3366 
z
" transform="scale(0.015625)"/>
       <path id="DejaVuSans-28" d="M 1984 4856 
Q 1566 4138 1362 3434 
Q 1159 2731 1159 2009 
Q 1159 1288 1364 580 
Q 1569 -128 1984 -844 
L 1484 -844 
Q 1016 -109 783 600 
Q 550 1309 550 2009 
Q 550 2706 781 3412 
Q 1013 4119 1484 4856 
L 1984 4856 
z
" transform="scale(0.015625)"/>
       <path id="DejaVuSans-62" d="M 3116 1747 
Q 3116 2381 2855 2742 
Q 2594 3103 2138 3103 
Q 1681 3103 1420 2742 
Q 1159 2381 1159 1747 
Q 1159 1113 1420 752 
Q 1681 391 2138 391 
Q 2594 391 2855 752 
Q 3116 1113 3116 1747 
z
M 1159 2969 
Q 1341 3281 1617 3432 
Q 1894 3584 2278 3584 
Q 2916 3584 3314 3078 
Q 3713 2572 3713 1747 
Q 3713 922 3314 415 
Q 2916 -91 2278 -91 
Q 1894 -91 1617 61 
Q 1341 213 1159 525 
L 1159 0 
L 581 0 
L 581 4863 
L 1159 4863 
L 1159 2969 
z
" transform="scale(0.015625)"/>
       <path id="DejaVuSans-70" d="M 1159 525 
L 1159 -1331 
L 581 -1331 
L 581 3500 
L 1159 3500 
L 1159 2969 
Q 1341 3281 1617 3432 
Q 1894 3584 2278 3584 
Q 2916 3584 3314 3078 
Q 3713 2572 3713 1747 
Q 3713 922 3314 415 
Q 2916 -91 2278 -91 
Q 1894 -91 1617 61 
Q 1341 213 1159 525 
z
M 3116 1747 
Q 3116 2381 2855 2742 
Q 2594 3103 2138 3103 
Q 1681 3103 1420 2742 
Q 1159 2381 1159 1747 
Q 1159 1113 1420 752 
Q 1681 391 2138 391 
Q 2594 391 2855 752 
Q 3116 1113 3116 1747 
z
" transform="scale(0.015625)"/>
       <path id="DejaVuSans-29" d="M 513 4856 
L 1013 4856 
Q 1481 4119 1714 3412 
Q 1947 2706 1947 2009 
Q 1947 1309 1714 600 
Q 1481 -109 1013 -844 
L 513 -844 
Q 928 -128 1133 580 
Q 1338 1288 1338 2009 
Q 1338 2731 1133 3434 
Q 928 4138 513 4856 
z
" transform="scale(0.015625)"/>
      </defs>
      <use xlink:href="#DejaVuSans-49"/>
      <use xlink:href="#DejaVuSans-6e" x="29.492188"/>
      <use xlink:href="#DejaVuSans-6e" x="92.871094"/>
      <use xlink:href="#DejaVuSans-65" x="156.25"/>
      <use xlink:href="#DejaVuSans-72" x="217.773438"/>
      <use xlink:href="#DejaVuSans-20" x="258.886719"/>
      <use xlink:href="#DejaVuSans-44" x="290.673828"/>
      <use xlink:href="#DejaVuSans-69" x="367.675781"/>
      <use xlink:href="#DejaVuSans-73" x="395.458984"/>
      <use xlink:href="#DejaVuSans-74" x="447.558594"/>
      <use xlink:href="#DejaVuSans-61" x="486.767578"/>
      <use xlink:href="#DejaVuSans-6e" x="548.046875"/>
      <use xlink:href="#DejaVuSans-63" x="611.425781"/>
      <use xlink:href="#DejaVuSans-65" x="666.40625"/>
      <use xlink:href="#DejaVuSans-20" x="727.929688"/>
      <use xlink:href="#DejaVuSans-28" x="759.716797"/>
      <use xlink:href="#DejaVuSans-62" x="798.730469"/>
      <use xlink:href="#DejaVuSans-70" x="862.207031"/>
      <use xlink:href="#DejaVuSans-29" x="925.683594"/>
     </g>
    </g>
   </g>
   <g id="matplotlib.axis_2">
    <g id="ytick_1">
     <g id="line2d_1">
      <path d="M 32.968125 338.770809 
L 993.158125 338.770809 
" clip-path="url(#p65eec9bb91)" style="fill: none; stroke: #dedede; stroke-linecap: square"/>
     </g>
     <g id="text_7">
      <!-- 0 -->
      <g transform="translate(20.878125 341.810184) scale(0.08 -0.08)">
       <use xlink:href="#DejaVuSans-30"/>
      </g>
     </g>
    </g>
    <g id="ytick_2">
     <g id="line2d_2">
      <path d="M 32.968125 300.348375 
L 993.158125 300.348375 
" clip-path="url(#p65eec9bb91)" style="fill: none; stroke: #dedede; stroke-linecap: square"/>
     </g>
     <g id="text_8">
      <!-- 1 -->
      <g transform="translate(20.878125 303.38775) scale(0.08 -0.08)">
       <use xlink:href="#DejaVuSans-31"/>
      </g>
     </g>
    </g>
    <g id="ytick_3">
     <g id="line2d_3">
      <path d="M 32.968125 261.92594 
L 993.158125 261.92594 
" clip-path="url(#p65eec9bb91)" style="fill: none; stroke: #dedede; stroke-linecap: square"/>
     </g>
     <g id="text_9">
      <!-- 2 -->
      <g transform="translate(20.878125 264.965315) scale(0.08 -0.08)">
       <use xlink:href="#DejaVuSans-32"/>
      </g>
     </g>
    </g>
    <g id="ytick_4">
     <g id="line2d_4">
      <path d="M 32.968125 223.503506 
L 993.158125 223.503506 
" clip-path="url(#p65eec9bb91)" style="fill: none; stroke: #dedede; stroke-linecap: square"/>
     </g>
     <g id="text_10">
      <!-- 3 -->
      <g transform="translate(20.878125 226.542881) scale(0.08 -0.08)">
       <defs>
        <path id="DejaVuSans-33" d="M 2597 2516 
Q 3050 2419 3304 2112 
Q 3559 1806 3559 1356 
Q 3559 666 3084 287 
Q 2609 -91 1734 -91 
Q 1441 -91 1130 -33 
Q 819 25 488 141 
L 488 750 
Q 750 597 1062 519 
Q 1375 441 1716 441 
Q 2309 441 2620 675 
Q 2931 909 2931 1356 
Q 2931 1769 2642 2001 
Q 2353 2234 1838 2234 
L 1294 2234 
L 1294 2753 
L 1863 2753 
Q 2328 2753 2575 2939 
Q 2822 3125 2822 3475 
Q 2822 3834 2567 4026 
Q 2313 4219 1838 4219 
Q 1578 4219 1281 4162 
Q 984 4106 628 3988 
L 628 4550 
Q 988 4650 1302 4700 
Q 1616 4750 1894 4750 
Q 2613 4750 3031 4423 
Q 3450 4097 3450 3541 
Q 3450 3153 3228 2886 
Q 3006 2619 2597 2516 
z
" transform="scale(0.015625)"/>
       </defs>
       <use xlink:href="#DejaVuSans-33"/>
      </g>
     </g>
    </g>
    <g id="ytick_5">
     <g id="line2d_5">
      <path d="M 32.968125 185.081072 
L 993.158125 185.081072 
" clip-path="url(#p65eec9bb91)" style="fill: none; stroke: #dedede; stroke-linecap: square"/>
     </g>
     <g id="text_11">
      <!-- 4 -->
      <g transform="translate(20.878125 188.120447) scale(0.08 -0.08)">
       <defs>
        <path id="DejaVuSans-34" d="M 2419 4116 
L 825 1625 
L 2419 1625 
L 2419 4116 
z
M 2253 4666 
L 3047 4666 
L 3047 1625 
L 3713 1625 
L 3713 1100 
L 3047 1100 
L 3047 0 
L 2419 0 
L 2419 1100 
L 313 1100 
L 313 1709 
L 2253 4666 
z
" transform="scale(0.015625)"/>
       </defs>
       <use xlink:href="#DejaVuSans-34"/>
      </g>
     </g>
    </g>
    <g id="ytick_6">
     <g id="line2d_6">
      <path d="M 32.968125 146.658637 
L 993.158125 146.658637 
" clip-path="url(#p65eec9bb91)" style="fill: none; stroke: #dedede; stroke-linecap: square"/>
     </g>
     <g id="text_12">
      <!-- 5 -->
      <g transform="translate(20.878125 149.698012) scale(0.08 -0.08)">
       <defs>
        <path id="DejaVuSans-35" d="M 691 4666 
L 3169 4666 
L 3169 4134 
L 1269 4134 
L 1269 2991 
Q 1406 3038 1543 3061 
Q 1681 3084 1819 3084 
Q 2600 3084 3056 2656 
Q 3513 2228 3513 1497 
Q 3513 744 3044 326 
Q 2575 -91 1722 -91 
Q 1428 -91 1123 -41 
Q 819 9 494 109 
L 494 744 
Q 775 591 1075 516 
Q 1375 441 1709 441 
Q 2250 441 2565 725 
Q 2881 1009 2881 1497 
Q 2881 1984 2565 2268 
Q 2250 2553 1709 2553 
Q 1456 2553 1204 2497 
Q 953 2441 691 2322 
L 691 4666 
z
" transform="scale(0.015625)"/>
       </defs>
       <use xlink:href="#DejaVuSans-35"/>
      </g>
     </g>
    </g>
    <g id="ytick_7">
     <g id="line2d_7">
      <path d="M 32.968125 108.236203 
L 993.158125 108.236203 
" clip-path="url(#p65eec9bb91)" style="fill: none; stroke: #dedede; stroke-linecap: square"/>
     </g>
     <g id="text_13">
      <!-- 6 -->
      <g transform="translate(20.878125 111.275578) scale(0.08 -0.08)">
       <defs>
        <path id="DejaVuSans-36" d="M 2113 2584 
Q 1688 2584 1439 2293 
Q 1191 2003 1191 1497 
Q 1191 994 1439 701 
Q 1688 409 2113 409 
Q 2538 409 2786 701 
Q 3034 994 3034 1497 
Q 3034 2003 2786 2293 
Q 2538 2584 2113 2584 
z
M 3366 4563 
L 3366 3988 
Q 3128 4100 2886 4159 
Q 2644 4219 2406 4219 
Q 1781 4219 1451 3797 
Q 1122 3375 1075 2522 
Q 1259 2794 1537 2939 
Q 1816 3084 2150 3084 
Q 2853 3084 3261 2657 
Q 3669 2231 3669 1497 
Q 3669 778 3244 343 
Q 2819 -91 2113 -91 
Q 1303 -91 875 529 
Q 447 1150 447 2328 
Q 447 3434 972 4092 
Q 1497 4750 2381 4750 
Q 2619 4750 2861 4703 
Q 3103 4656 3366 4563 
z
" transform="scale(0.015625)"/>
       </defs>
       <use xlink:href="#DejaVuSans-36"/>
      </g>
     </g>
    </g>
    <g id="ytick_8">
     <g id="line2d_8">
      <path d="M 32.968125 69.813769 
L 993.158125 69.813769 
" clip-path="url(#p65eec9bb91)" style="fill: none; stroke: #dedede; stroke-linecap: square"/>
     </g>
     <g id="text_14">
      <!-- 7 -->
      <g transform="translate(20.878125 72.853144) scale(0.08 -0.08)">
       <defs>
        <path id="DejaVuSans-37" d="M 525 4666 
L 3525 4666 
L 3525 4397 
L 1831 0 
L 1172 0 
L 2766 4134 
L 525 4134 
L 525 4666 
z
" transform="scale(0.015625)"/>
       </defs>
       <use xlink:href="#DejaVuSans-37"/>
      </g>
     </g>
    </g>
    <g id="text_15">
     <!-- Percentage -->
     <g transform="translate(14.798437 222.362556) rotate(-90) scale(0.1 -0.1)">
      <defs>
       <path id="DejaVuSans-50" d="M 1259 4147 
L 1259 2394 
L 2053 2394 
Q 2494 2394 2734 2622 
Q 2975 2850 2975 3272 
Q 2975 3691 2734 3919 
Q 2494 4147 2053 4147 
L 1259 4147 
z
M 628 4666 
L 2053 4666 
Q 2838 4666 3239 4311 
Q 3641 3956 3641 3272 
Q 3641 2581 3239 2228 
Q 2838 1875 2053 1875 
L 1259 1875 
L 1259 0 
L 628 0 
L 628 4666 
z
" transform="scale(0.015625)"/>
       <path id="DejaVuSans-67" d="M 2906 1791 
Q 2906 2416 2648 2759 
Q 2391 3103 1925 3103 
Q 1463 3103 1205 2759 
Q 947 2416 947 1791 
Q 947 1169 1205 825 
Q 1463 481 1925 481 
Q 2391 481 2648 825 
Q 2906 1169 2906 1791 
z
M 3481 434 
Q 3481 -459 3084 -895 
Q 2688 -1331 1869 -1331 
Q 1566 -1331 1297 -1286 
Q 1028 -1241 775 -1147 
L 775 -588 
Q 1028 -725 1275 -790 
Q 1522 -856 1778 -856 
Q 2344 -856 2625 -561 
Q 2906 -266 2906 331 
L 2906 616 
Q 2728 306 2450 153 
Q 2172 0 1784 0 
Q 1141 0 747 490 
Q 353 981 353 1791 
Q 353 2603 747 3093 
Q 1141 3584 1784 3584 
Q 2172 3584 2450 3431 
Q 2728 3278 2906 2969 
L 2906 3500 
L 3481 3500 
L 3481 434 
z
" transform="scale(0.015625)"/>
      </defs>
      <use xlink:href="#DejaVuSans-50"/>
      <use xlink:href="#DejaVuSans-65" x="56.677734"/>
      <use xlink:href="#DejaVuSans-72" x="118.201172"/>
      <use xlink:href="#DejaVuSans-63" x="157.064453"/>
      <use xlink:href="#DejaVuSans-65" x="212.044922"/>
      <use xlink:href="#DejaVuSans-6e" x="273.568359"/>
      <use xlink:href="#DejaVuSans-74" x="336.947266"/>
      <use xlink:href="#DejaVuSans-61" x="376.15625"/>
      <use xlink:href="#DejaVuSans-67" x="437.435547"/>
      <use xlink:href="#DejaVuSans-65" x="500.912109"/>
     </g>
    </g>
   </g>
   <g id="line2d_9">
    <path d="M 76.613125 338.770809 
L 85.430297 338.770809 
L 94.247468 338.770809 
L 103.06464 338.770809 
L 111.881812 338.770809 
L 120.698984 338.770809 
L 129.516155 338.770809 
L 138.333327 338.770809 
L 147.150499 338.770809 
L 155.96767 338.770809 
L 164.784842 338.770809 
L 173.602014 338.770809 
L 182.419186 338.770809 
L 191.236357 338.770809 
L 200.053529 338.770809 
L 208.870701 338.770809 
L 217.687872 338.770809 
L 226.505044 338.770809 
L 235.322216 338.770809 
L 244.139388 329.447417 
L 252.956559 251.459794 
L 261.773731 239.5581 
L 270.590903 238.025488 
L 279.408074 236.796205 
L 288.225246 234.640969 
L 297.042418 233.559359 
L 305.85959 231.751356 
L 314.676761 231.160661 
L 323.493933 230.609879 
L 332.311105 230.218743 
L 341.128277 232.729194 
L 349.945448 233.45958 
L 358.76262 234.269789 
L 367.579792 236.448973 
L 376.396963 238.751882 
L 385.214135 241.394042 
L 394.031307 244.630888 
L 402.848479 249.376399 
L 411.66565 249.975076 
L 420.482822 253.607048 
L 429.299994 255.997764 
L 438.117165 258.564091 
L 446.934337 260.76323 
L 455.751509 261.900716 
L 464.568681 262.255931 
L 473.385852 265.444882 
L 482.203024 271.814803 
L 491.020196 273.890216 
L 499.837367 277.402452 
L 508.654539 274.153633 
L 517.471711 282.403399 
L 526.288883 283.481017 
L 535.106054 285.424721 
L 543.923226 288.633628 
L 552.740398 290.820794 
L 561.557569 292.736559 
L 570.374741 295.578278 
L 579.191913 296.855455 
L 588.009085 299.856821 
L 596.826256 300.42756 
L 605.643428 301.824472 
L 614.4606 304.163303 
L 623.277771 306.134945 
L 632.094943 307.03296 
L 640.912115 308.377987 
L 649.729287 309.950511 
L 658.546458 312.31728 
L 667.36363 312.86008 
L 676.180802 314.580278 
L 684.997973 315.821534 
L 693.815145 317.545723 
L 702.632317 318.343959 
L 711.449489 318.78698 
L 720.26666 320.323583 
L 729.083832 321.177695 
L 737.901004 322.470837 
L 746.718176 322.941796 
L 755.535347 323.344905 
L 764.352519 324.458444 
L 773.169691 325.404353 
L 781.986862 325.512115 
L 790.804034 326.493945 
L 799.621206 327.056701 
L 808.438378 327.759148 
L 817.255549 328.062478 
L 826.072721 328.904616 
L 834.889893 329.535223 
L 843.707064 329.603073 
L 852.524236 330.233679 
L 861.341408 330.616832 
L 870.15858 331.227482 
L 878.975751 331.770282 
L 887.792923 331.590679 
L 896.610095 332.432818 
L 905.427266 332.688253 
L 914.244438 332.780051 
L 923.06161 333.330833 
L 931.878782 333.211098 
L 940.695953 333.430613 
L 949.513125 333.813766 
" clip-path="url(#p65eec9bb91)" style="fill: none; stroke: #7cb5ec; stroke-linecap: square"/>
   </g>
   <g id="line2d_10">
    <path d="M 76.613125 338.770809 
L 85.430297 338.770809 
L 94.247468 338.770809 
L 103.06464 338.770809 
L 111.881812 338.770809 
L 120.698984 338.770809 
L 129.516155 338.770809 
L 138.333327 338.770809 
L 147.150499 338.770809 
L 155.96767 338.770809 
L 164.784842 338.770809 
L 173.602014 338.770809 
L 182.419186 338.770809 
L 191.236357 338.770809 
L 200.053529 338.770809 
L 208.870701 338.770809 
L 217.687872 338.770809 
L 226.505044 338.770809 
L 235.322216 338.770809 
L 244.139388 329.609095 
L 252.956559 249.967713 
L 261.773731 236.098511 
L 270.590903 235.833187 
L 279.408074 233.059346 
L 288.225246 232.6091 
L 297.042418 231.358862 
L 305.85959 228.082514 
L 314.676761 228.669442 
L 323.493933 228.894566 
L 332.311105 230.096563 
L 341.128277 231.326701 
L 349.945448 232.387997 
L 358.76262 233.224169 
L 367.579792 236.922623 
L 376.396963 238.406024 
L 385.214135 241.851215 
L 394.031307 244.685356 
L 402.848479 248.516472 
L 411.66565 253.336522 
L 420.482822 254.767663 
L 429.299994 257.690246 
L 438.117165 258.864103 
L 446.934337 261.332419 
L 455.751509 261.119356 
L 464.568681 263.861036 
L 473.385852 266.20473 
L 482.203024 272.508182 
L 491.020196 276.737284 
L 499.837367 278.739273 
L 508.654539 275.579507 
L 517.471711 284.150272 
L 526.288883 285.115086 
L 535.106054 287.45476 
L 543.923226 289.042683 
L 552.740398 291.712002 
L 561.557569 294.200419 
L 570.374741 296.443611 
L 579.191913 298.312939 
L 588.009085 299.518956 
L 596.826256 301.492805 
L 605.643428 303.583236 
L 614.4606 305.28372 
L 623.277771 306.529939 
L 632.094943 308.628409 
L 640.912115 309.561063 
L 649.729287 311.092705 
L 658.546458 311.237427 
L 667.36363 313.086654 
L 676.180802 315.036383 
L 684.997973 315.494669 
L 693.815145 317.106713 
L 702.632317 318.035346 
L 711.449489 319.028301 
L 720.26666 320.495622 
L 729.083832 320.945869 
L 737.901004 322.111686 
L 746.718176 322.883537 
L 755.535347 323.530767 
L 764.352519 324.354879 
L 773.169691 325.14683 
L 781.986862 325.729739 
L 790.804034 326.316667 
L 799.621206 327.060378 
L 808.438378 327.699568 
L 817.255549 328.290516 
L 826.072721 328.342777 
L 834.889893 328.768903 
L 843.707064 329.307591 
L 852.524236 330.023161 
L 861.341408 330.344766 
L 870.15858 330.702551 
L 878.975751 331.192998 
L 887.792923 331.562844 
L 896.610095 331.96083 
L 905.427266 332.01309 
L 914.244438 332.6965 
L 923.06161 333.194988 
L 931.878782 333.178907 
L 940.695953 333.440211 
L 949.513125 333.408051 
" clip-path="url(#p65eec9bb91)" style="fill: none; stroke: #434348; stroke-linecap: square"/>
   </g>
   <g id="line2d_11">
    <path d="M 76.613125 338.770809 
L 85.430297 338.770809 
L 94.247468 338.770809 
L 103.06464 338.770809 
L 111.881812 338.770809 
L 120.698984 338.770809 
L 129.516155 338.770809 
L 138.333327 338.770809 
L 147.150499 338.770809 
L 155.96767 338.770809 
L 164.784842 338.770809 
L 173.602014 338.770809 
L 182.419186 338.770809 
L 191.236357 338.770809 
L 200.053529 338.770809 
L 208.870701 338.770809 
L 217.687872 338.770809 
L 226.505044 338.770809 
L 235.322216 338.770809 
L 244.139388 329.512821 
L 252.956559 253.803231 
L 261.773731 240.674237 
L 270.590903 240.1554 
L 279.408074 236.900512 
L 288.225246 235.656115 
L 297.042418 232.964651 
L 305.85959 232.91601 
L 314.676761 231.829696 
L 323.493933 230.111051 
L 332.311105 232.462028 
L 341.128277 231.201418 
L 349.945448 234.521161 
L 358.76262 234.525214 
L 367.579792 237.455829 
L 376.396963 239.968943 
L 385.214135 243.134657 
L 394.031307 246.50304 
L 402.848479 249.660646 
L 411.66565 252.793932 
L 420.482822 255.590785 
L 429.299994 256.632511 
L 438.117165 259.088878 
L 446.934337 262.023547 
L 455.751509 262.104615 
L 464.568681 262.591024 
L 473.385852 264.629889 
L 482.203024 271.670662 
L 491.020196 275.513295 
L 499.837367 278.796557 
L 508.654539 273.68926 
L 517.471711 283.336376 
L 526.288883 284.82803 
L 535.106054 286.37238 
L 543.923226 290.219066 
L 552.740398 292.140382 
L 561.557569 293.323978 
L 570.374741 294.495413 
L 579.191913 296.992314 
L 588.009085 298.946057 
L 596.826256 301.301088 
L 605.643428 302.034755 
L 614.4606 303.964178 
L 623.277771 305.889548 
L 632.094943 307.352829 
L 640.912115 308.001375 
L 649.729287 309.484923 
L 658.546458 310.794174 
L 667.36363 313.193793 
L 676.180802 313.899086 
L 684.997973 315.402901 
L 693.815145 316.193316 
L 702.632317 316.926983 
L 711.449489 318.609148 
L 720.26666 319.014489 
L 729.083832 320.234566 
L 737.901004 321.280345 
L 746.718176 321.787022 
L 755.535347 322.253164 
L 764.352519 323.493507 
L 773.169691 324.559554 
L 781.986862 325.491838 
L 790.804034 325.467518 
L 799.621206 325.836378 
L 808.438378 326.732182 
L 817.255549 327.486116 
L 826.072721 327.571238 
L 834.889893 328.608911 
L 843.707064 329.006145 
L 852.524236 329.407432 
L 861.341408 329.841147 
L 870.15858 329.881681 
L 878.975751 330.911247 
L 887.792923 330.931514 
L 896.610095 331.373336 
L 905.427266 331.624647 
L 914.244438 331.839478 
L 923.06161 332.394795 
L 931.878782 332.577199 
L 940.695953 332.751495 
L 949.513125 333.051448 
" clip-path="url(#p65eec9bb91)" style="fill: none; stroke: #90ed7d; stroke-linecap: square"/>
   </g>
   <g id="line2d_12">
    <path d="M 76.613125 338.770809 
L 85.430297 338.770809 
L 94.247468 338.770809 
L 103.06464 338.770809 
L 111.881812 338.770809 
L 120.698984 338.770809 
L 129.516155 338.770809 
L 138.333327 338.770809 
L 147.150499 338.770809 
L 155.96767 338.770809 
L 164.784842 338.770809 
L 173.602014 338.770809 
L 182.419186 338.770809 
L 191.236357 338.770809 
L 200.053529 338.770809 
L 208.870701 338.770809 
L 217.687872 338.770809 
L 226.505044 338.770809 
L 235.322216 338.770809 
L 244.139388 330.836208 
L 252.956559 263.934017 
L 261.773731 251.809689 
L 270.590903 250.495343 
L 279.408074 248.570333 
L 288.225246 246.422895 
L 297.042418 244.417002 
L 305.85959 243.248246 
L 314.676761 240.821763 
L 323.493933 240.631688 
L 332.311105 239.673227 
L 341.128277 240.643821 
L 349.945448 240.591247 
L 358.76262 240.732792 
L 367.579792 242.512213 
L 376.396963 244.607077 
L 385.214135 247.187238 
L 394.031307 249.132468 
L 402.848479 252.040204 
L 411.66565 253.916685 
L 420.482822 257.164129 
L 429.299994 258.219649 
L 438.117165 261.078855 
L 446.934337 262.668202 
L 455.751509 262.017095 
L 464.568681 262.377024 
L 473.385852 265.252406 
L 482.203024 270.570449 
L 491.020196 273.005021 
L 499.837367 274.48922 
L 508.654539 271.46016 
L 517.471711 280.502855 
L 526.288883 281.542198 
L 535.106054 281.550287 
L 543.923226 284.599567 
L 552.740398 286.035237 
L 561.557569 289.408049 
L 570.374741 290.572761 
L 579.191913 292.287476 
L 588.009085 293.702924 
L 596.826256 295.518743 
L 605.643428 298.090815 
L 614.4606 300.400018 
L 623.277771 301.119875 
L 632.094943 303.287534 
L 640.912115 304.003346 
L 649.729287 305.738282 
L 658.546458 307.052627 
L 667.36363 308.799695 
L 676.180802 310.704485 
L 684.997973 311.173605 
L 693.815145 312.354493 
L 702.632317 313.822516 
L 711.449489 315.504878 
L 720.26666 316.536133 
L 729.083832 317.280255 
L 737.901004 318.190186 
L 746.718176 319.593502 
L 755.535347 320.220344 
L 764.352519 321.530645 
L 773.169691 322.064471 
L 781.986862 322.578077 
L 790.804034 323.455655 
L 799.621206 324.248306 
L 808.438378 325.182502 
L 817.255549 325.760814 
L 826.072721 326.233978 
L 834.889893 326.610083 
L 843.707064 326.755672 
L 852.524236 327.96487 
L 861.341408 328.660462 
L 870.15858 329.230685 
L 878.975751 329.42076 
L 887.792923 329.752379 
L 896.610095 330.079954 
L 905.427266 330.650178 
L 914.244438 331.010106 
L 923.06161 331.240622 
L 931.878782 331.786581 
L 940.695953 331.790625 
L 949.513125 332.065627 
" clip-path="url(#p65eec9bb91)" style="fill: none; stroke: #f7a35c; stroke-linecap: square"/>
   </g>
   <g id="line2d_13">
    <path d="M 76.613125 338.770809 
L 85.430297 338.770809 
L 94.247468 338.770809 
L 103.06464 338.770809 
L 111.881812 338.770809 
L 120.698984 338.770809 
L 129.516155 338.770809 
L 138.333327 338.770809 
L 147.150499 338.770809 
L 155.96767 338.770809 
L 164.784842 338.770809 
L 173.602014 338.770809 
L 182.419186 338.770809 
L 191.236357 338.770809 
L 200.053529 338.770809 
L 208.870701 338.770809 
L 217.687872 338.770809 
L 226.505044 338.770809 
L 235.322216 338.770809 
L 244.139388 328.633169 
L 252.956559 247.970144 
L 261.773731 233.390121 
L 270.590903 230.229274 
L 279.408074 227.584316 
L 288.225246 225.205491 
L 297.042418 223.133744 
L 305.85959 222.945404 
L 314.676761 222.458175 
L 323.493933 221.512377 
L 332.311105 224.087731 
L 341.128277 224.067259 
L 349.945448 226.552536 
L 358.76262 228.812624 
L 367.579792 233.607122 
L 376.396963 235.384075 
L 385.214135 238.123203 
L 394.031307 243.069193 
L 402.848479 247.249536 
L 411.66565 251.315238 
L 420.482822 253.084002 
L 429.299994 256.486417 
L 438.117165 259.823322 
L 446.934337 261.391462 
L 455.751509 262.505129 
L 464.568681 263.553286 
L 473.385852 265.981242 
L 482.203024 275.246783 
L 491.020196 279.058634 
L 499.837367 281.306439 
L 508.654539 277.359474 
L 517.471711 287.955683 
L 526.288883 287.71821 
L 535.106054 290.633396 
L 543.923226 294.117698 
L 552.740398 294.830117 
L 561.557569 297.597905 
L 570.374741 298.740232 
L 579.191913 300.861112 
L 588.009085 302.638065 
L 596.826256 303.489692 
L 605.643428 306.802031 
L 614.4606 307.584054 
L 623.277771 309.991539 
L 632.094943 310.257672 
L 640.912115 311.412282 
L 649.729287 313.520879 
L 658.546458 314.171882 
L 667.36363 315.764589 
L 676.180802 317.308164 
L 684.997973 317.885469 
L 693.815145 318.868116 
L 702.632317 319.424949 
L 711.449489 320.579559 
L 720.26666 321.529451 
L 729.083832 322.843741 
L 737.901004 323.474273 
L 746.718176 323.965596 
L 755.535347 324.968715 
L 764.352519 325.513265 
L 773.169691 326.819367 
L 781.986862 327.01999 
L 790.804034 327.073217 
L 799.621206 327.331162 
L 808.438378 328.362941 
L 817.255549 329.14087 
L 826.072721 329.415192 
L 834.889893 329.738647 
L 843.707064 330.033441 
L 852.524236 330.16446 
L 861.341408 330.827747 
L 870.15858 331.531977 
L 878.975751 331.716223 
L 887.792923 332.293528 
L 896.610095 331.99464 
L 905.427266 332.21983 
L 914.244438 333.042797 
L 923.06161 333.190194 
L 931.878782 333.100118 
L 940.695953 333.681517 
L 949.513125 333.91899 
" clip-path="url(#p65eec9bb91)" style="fill: none; stroke: #8085e9; stroke-linecap: square"/>
   </g>
   <g id="line2d_14">
    <path d="M 76.613125 338.770809 
L 85.430297 338.770809 
L 94.247468 338.770809 
L 103.06464 338.770809 
L 111.881812 338.770809 
L 120.698984 338.770809 
L 129.516155 338.770809 
L 138.333327 338.770809 
L 147.150499 338.770809 
L 155.96767 338.770809 
L 164.784842 338.770809 
L 173.602014 338.770809 
L 182.419186 338.770809 
L 191.236357 338.770809 
L 200.053529 338.770809 
L 208.870701 338.770809 
L 217.687872 338.770809 
L 226.505044 338.770809 
L 235.322216 338.770809 
L 244.139388 320.26481 
L 252.956559 211.093214 
L 261.773731 199.000263 
L 270.590903 200.19458 
L 279.408074 198.491792 
L 288.225246 201.562329 
L 297.042418 202.535914 
L 305.85959 205.496085 
L 314.676761 208.818888 
L 323.493933 212.263881 
L 332.311105 216.311945 
L 341.128277 221.361185 
L 349.945448 225.07421 
L 358.76262 229.788411 
L 367.579792 233.91925 
L 376.396963 238.921191 
L 385.214135 243.828532 
L 394.031307 246.87542 
L 402.848479 253.185985 
L 411.66565 256.449663 
L 420.482822 260.809116 
L 429.299994 263.501256 
L 438.117165 268.652979 
L 446.934337 271.510668 
L 455.751509 272.724693 
L 464.568681 273.757403 
L 473.385852 275.152743 
L 482.203024 281.211044 
L 491.020196 285.113267 
L 499.837367 286.989488 
L 508.654539 282.984782 
L 517.471711 291.727339 
L 526.288883 293.000488 
L 535.106054 294.115972 
L 543.923226 296.638622 
L 552.740398 297.951188 
L 561.557569 301.053258 
L 570.374741 303.386709 
L 579.191913 304.415477 
L 588.009085 305.661035 
L 596.826256 306.879002 
L 605.643428 309.464717 
L 614.4606 309.795815 
L 623.277771 312.125324 
L 632.094943 313.378766 
L 640.912115 314.297168 
L 649.729287 316.299521 
L 658.546458 317.371647 
L 667.36363 318.43589 
L 676.180802 319.149326 
L 684.997973 320.883648 
L 693.815145 321.660151 
L 702.632317 322.653444 
L 711.449489 323.465422 
L 720.26666 323.792578 
L 729.083832 324.99872 
L 737.901004 326.118145 
L 746.718176 326.606909 
L 755.535347 327.154797 
L 764.352519 327.552902 
L 773.169691 328.38853 
L 781.986862 329.011309 
L 790.804034 329.405473 
L 799.621206 329.90212 
L 808.438378 330.343583 
L 817.255549 330.899354 
L 826.072721 331.084612 
L 834.889893 331.82564 
L 843.707064 331.920239 
L 852.524236 332.251337 
L 861.341408 332.803166 
L 870.15858 332.885941 
L 878.975751 333.548136 
L 887.792923 334.040841 
L 896.610095 333.954125 
L 905.427266 334.076316 
L 914.244438 334.383764 
L 923.06161 334.655737 
L 931.878782 334.773986 
L 940.695953 335.010485 
L 949.513125 335.148442 
" clip-path="url(#p65eec9bb91)" style="fill: none; stroke: #f15c80; stroke-linecap: square"/>
   </g>
   <g id="line2d_15">
    <path d="M 76.613125 338.770809 
L 85.430297 338.770809 
L 94.247468 338.770809 
L 103.06464 338.770809 
L 111.881812 338.770809 
L 120.698984 338.770809 
L 129.516155 338.770809 
L 138.333327 338.770809 
L 147.150499 338.770809 
L 155.96767 338.770809 
L 164.784842 338.770809 
L 173.602014 338.770809 
L 182.419186 338.770809 
L 191.236357 338.770809 
L 200.053529 338.770809 
L 208.870701 338.770809 
L 217.687872 338.770809 
L 226.505044 338.770809 
L 235.322216 338.770809 
L 244.139388 326.055111 
L 252.956559 239.650607 
L 261.773731 228.858024 
L 270.590903 227.082534 
L 279.408074 226.476075 
L 288.225246 229.348777 
L 297.042418 228.203686 
L 305.85959 230.932753 
L 314.676761 233.214956 
L 323.493933 235.050293 
L 332.311105 238.469607 
L 341.128277 241.31837 
L 349.945448 244.773593 
L 358.76262 247.363015 
L 367.579792 250.247687 
L 376.396963 254.632548 
L 385.214135 258.211456 
L 394.031307 259.260791 
L 402.848479 262.269149 
L 411.66565 264.455594 
L 420.482822 265.640584 
L 429.299994 266.997138 
L 438.117165 268.864394 
L 446.934337 268.521266 
L 455.751509 268.888334 
L 464.568681 268.473388 
L 473.385852 271.334121 
L 482.203024 274.609799 
L 491.020196 276.233674 
L 499.837367 277.638106 
L 508.654539 273.12557 
L 517.471711 281.236964 
L 526.288883 281.081359 
L 535.106054 282.330187 
L 543.923226 284.544562 
L 552.740398 286.830754 
L 561.557569 288.175338 
L 570.374741 289.619669 
L 579.191913 291.474956 
L 588.009085 293.904784 
L 596.826256 295.325175 
L 605.643428 297.675205 
L 614.4606 299.275141 
L 623.277771 301.142398 
L 632.094943 303.392681 
L 640.912115 304.645499 
L 649.729287 306.440938 
L 658.546458 308.056833 
L 667.36363 309.03435 
L 676.180802 309.808383 
L 684.997973 311.500086 
L 693.815145 312.892548 
L 702.632317 314.62016 
L 711.449489 315.741312 
L 720.26666 317.512811 
L 729.083832 317.716295 
L 737.901004 318.813507 
L 746.718176 319.340169 
L 755.535347 320.704703 
L 764.352519 321.821865 
L 773.169691 322.935037 
L 781.986862 323.605334 
L 790.804034 324.299571 
L 799.621206 324.710527 
L 808.438378 325.7838 
L 817.255549 326.3743 
L 826.072721 327.331868 
L 834.889893 328.293425 
L 843.707064 328.712361 
L 852.524236 328.760239 
L 861.341408 329.729776 
L 870.15858 329.873411 
L 878.975751 330.368155 
L 887.792923 331.309763 
L 896.610095 331.150168 
L 905.427266 331.68481 
L 914.244438 331.900263 
L 923.06161 332.315208 
L 931.878782 332.478793 
L 940.695953 332.622428 
L 949.513125 333.093232 
" clip-path="url(#p65eec9bb91)" style="fill: none; stroke: #e4d354; stroke-linecap: square"/>
   </g>
   <g id="line2d_16">
    <path d="M 76.613125 338.770809 
L 85.430297 338.770809 
L 94.247468 338.770809 
L 103.06464 338.770809 
L 111.881812 338.770809 
L 120.698984 338.770809 
L 129.516155 338.770809 
L 138.333327 338.770809 
L 147.150499 338.770809 
L 155.96767 338.770809 
L 164.784842 338.770809 
L 173.602014 338.770809 
L 182.419186 338.770809 
L 191.236357 338.770809 
L 200.053529 338.770809 
L 208.870701 338.770809 
L 217.687872 338.770809 
L 226.505044 338.770809 
L 235.322216 338.770809 
L 244.139388 324.688234 
L 252.956559 230.37225 
L 261.773731 218.375102 
L 270.590903 218.311667 
L 279.408074 218.109468 
L 288.225246 219.885648 
L 297.042418 219.92133 
L 305.85959 222.859165 
L 314.676761 224.223018 
L 323.493933 226.189503 
L 332.311105 230.598238 
L 341.128277 233.480566 
L 349.945448 238.634662 
L 358.76262 240.894535 
L 367.579792 245.86229 
L 376.396963 249.402757 
L 385.214135 254.537029 
L 394.031307 257.010995 
L 402.848479 261.047048 
L 411.66565 262.795476 
L 420.482822 265.138607 
L 429.299994 266.431096 
L 438.117165 268.66718 
L 446.934337 269.127084 
L 455.751509 269.218272 
L 464.568681 269.325319 
L 473.385852 271.78739 
L 482.203024 276.330924 
L 491.020196 278.54322 
L 499.837367 280.77534 
L 508.654539 275.60935 
L 517.471711 283.372211 
L 526.288883 283.503046 
L 535.106054 285.057204 
L 543.923226 287.91178 
L 552.740398 290.794109 
L 561.557569 291.012167 
L 570.374741 293.692296 
L 579.191913 295.805476 
L 588.009085 297.022635 
L 596.826256 299.472813 
L 605.643428 301.062653 
L 614.4606 303.092574 
L 623.277771 304.186828 
L 632.094943 306.038338 
L 640.912115 307.572672 
L 649.729287 309.566911 
L 658.546458 310.720635 
L 667.36363 311.937795 
L 676.180802 313.087554 
L 684.997973 314.677395 
L 693.815145 315.68839 
L 702.632317 317.214796 
L 711.449489 317.750029 
L 720.26666 319.581715 
L 729.083832 320.814733 
L 737.901004 321.381684 
L 746.718176 321.976387 
L 755.535347 323.122182 
L 764.352519 323.843755 
L 773.169691 324.918186 
L 781.986862 325.814206 
L 790.804034 326.694367 
L 799.621206 327.427834 
L 808.438378 327.281141 
L 817.255549 328.284207 
L 826.072721 328.815475 
L 834.889893 329.711495 
L 843.707064 330.08814 
L 852.524236 330.361704 
L 861.341408 331.031736 
L 870.15858 331.404417 
L 878.975751 331.614546 
L 887.792923 331.840533 
L 896.610095 332.348013 
L 905.427266 332.914964 
L 914.244438 333.136986 
L 923.06161 333.438303 
L 931.878782 333.906136 
L 940.695953 333.878383 
L 949.513125 334.167805 
" clip-path="url(#p65eec9bb91)" style="fill: none; stroke: #2b908f; stroke-linecap: square"/>
   </g>
   <g id="line2d_17">
    <path d="M 76.613125 338.770809 
L 85.430297 338.770809 
L 94.247468 338.770809 
L 103.06464 338.770809 
L 111.881812 338.770809 
L 120.698984 338.770809 
L 129.516155 338.770809 
L 138.333327 338.770809 
L 147.150499 338.770809 
L 155.96767 338.770809 
L 164.784842 338.770809 
L 173.602014 338.770809 
L 182.419186 338.770809 
L 191.236357 338.770809 
L 200.053529 338.770809 
L 208.870701 338.770809 
L 217.687872 338.770809 
L 226.505044 338.770809 
L 235.322216 338.770809 
L 244.139388 324.208167 
L 252.956559 226.215549 
L 261.773731 214.162469 
L 270.590903 213.879195 
L 279.408074 213.340577 
L 288.225246 213.512137 
L 297.042418 213.412393 
L 305.85959 215.650651 
L 314.676761 216.791724 
L 323.493933 220.530134 
L 332.311105 222.389364 
L 341.128277 227.783526 
L 349.945448 231.29053 
L 358.76262 235.380039 
L 367.579792 240.151798 
L 376.396963 244.903608 
L 385.214135 251.821861 
L 394.031307 254.698481 
L 402.848479 258.424922 
L 411.66565 262.482513 
L 420.482822 264.497344 
L 429.299994 269.388796 
L 438.117165 271.259996 
L 446.934337 271.730788 
L 455.751509 272.03002 
L 464.568681 273.498254 
L 473.385852 275.780399 
L 482.203024 278.844539 
L 491.020196 282.140085 
L 499.837367 283.085659 
L 508.654539 278.533337 
L 517.471711 287.470411 
L 526.288883 287.087393 
L 535.106054 288.567596 
L 543.923226 291.412299 
L 552.740398 292.625187 
L 561.557569 295.513777 
L 570.374741 296.794492 
L 579.191913 298.314592 
L 588.009085 299.076637 
L 596.826256 302.116838 
L 605.643428 303.688805 
L 614.4606 305.025377 
L 623.277771 305.907115 
L 632.094943 308.18926 
L 640.912115 309.254528 
L 649.729287 310.978106 
L 658.546458 311.915701 
L 667.36363 313.663218 
L 676.180802 314.684598 
L 684.997973 315.873548 
L 693.815145 316.978713 
L 702.632317 318.434977 
L 711.449489 319.045411 
L 720.26666 320.681215 
L 729.083832 321.195894 
L 737.901004 322.440701 
L 746.718176 323.47804 
L 755.535347 323.98474 
L 764.352519 324.631082 
L 773.169691 325.756196 
L 781.986862 326.53819 
L 790.804034 327.072818 
L 799.621206 327.54361 
L 808.438378 328.309645 
L 817.255549 328.967956 
L 826.072721 329.203353 
L 834.889893 330.073121 
L 843.707064 330.396292 
L 852.524236 330.679566 
L 861.341408 331.206215 
L 870.15858 331.649079 
L 878.975751 332.30739 
L 887.792923 332.722325 
L 896.610095 332.933783 
L 905.427266 332.961711 
L 914.244438 333.336749 
L 923.06161 333.687848 
L 931.878782 333.8235 
L 940.695953 333.919255 
L 949.513125 334.254395 
" clip-path="url(#p65eec9bb91)" style="fill: none; stroke: #f45b5b; stroke-linecap: square"/>
   </g>
   <g id="line2d_18">
    <path d="M 76.613125 338.770809 
L 85.430297 338.770809 
L 94.247468 338.770809 
L 103.06464 338.770809 
L 111.881812 338.770809 
L 120.698984 338.770809 
L 129.516155 338.770809 
L 138.333327 338.770809 
L 147.150499 338.770809 
L 155.96767 338.770809 
L 164.784842 338.770809 
L 173.602014 338.770809 
L 182.419186 338.770809 
L 191.236357 338.770809 
L 200.053529 338.770809 
L 208.870701 338.770809 
L 217.687872 338.770809 
L 226.505044 338.770809 
L 235.322216 338.770809 
L 244.139388 325.228215 
L 252.956559 235.23265 
L 261.773731 224.541972 
L 270.590903 223.252201 
L 279.408074 223.380377 
L 288.225246 223.997224 
L 297.042418 224.381752 
L 305.85959 225.415171 
L 314.676761 227.041404 
L 323.493933 230.25782 
L 332.311105 232.096344 
L 341.128277 236.778773 
L 349.945448 239.44243 
L 358.76262 242.935226 
L 367.579792 247.365309 
L 376.396963 251.807408 
L 385.214135 256.874365 
L 394.031307 259.037334 
L 402.848479 263.379296 
L 411.66565 265.794612 
L 420.482822 268.177884 
L 429.299994 270.140579 
L 438.117165 270.945685 
L 446.934337 271.338224 
L 455.751509 270.50508 
L 464.568681 270.489058 
L 473.385852 273.104649 
L 482.203024 276.96595 
L 491.020196 278.516079 
L 499.837367 280.486785 
L 508.654539 274.963201 
L 517.471711 282.745886 
L 526.288883 284.308031 
L 535.106054 284.960928 
L 543.923226 287.300139 
L 552.740398 289.158691 
L 561.557569 290.812963 
L 570.374741 292.463228 
L 579.191913 293.444576 
L 588.009085 294.710314 
L 596.826256 297.510158 
L 605.643428 299.33266 
L 614.4606 300.666492 
L 623.277771 302.112477 
L 632.094943 303.963018 
L 640.912115 305.841597 
L 649.729287 307.14739 
L 658.546458 308.405117 
L 667.36363 310.051377 
L 676.180802 311.269049 
L 684.997973 312.791139 
L 693.815145 313.824558 
L 702.632317 314.910048 
L 711.449489 315.939461 
L 720.26666 317.341386 
L 729.083832 317.910167 
L 737.901004 319.816785 
L 746.718176 320.137225 
L 755.535347 321.278792 
L 764.352519 322.18003 
L 773.169691 322.696739 
L 781.986862 324.18278 
L 790.804034 325.088023 
L 799.621206 325.456528 
L 808.438378 326.145474 
L 817.255549 326.806382 
L 826.072721 327.583449 
L 834.889893 328.580818 
L 843.707064 328.897253 
L 852.524236 328.949324 
L 861.341408 329.385924 
L 870.15858 329.894622 
L 878.975751 330.383293 
L 887.792923 331.156354 
L 896.610095 331.232459 
L 905.427266 332.249856 
L 914.244438 332.133696 
L 923.06161 332.337977 
L 931.878782 332.32596 
L 940.695953 333.195154 
L 949.513125 333.303302 
" clip-path="url(#p65eec9bb91)" style="fill: none; stroke: #91e8e1; stroke-linecap: square"/>
   </g>
   <g id="line2d_19">
    <path d="M 76.613125 338.770809 
L 85.430297 338.770809 
L 94.247468 338.770809 
L 103.06464 338.770809 
L 111.881812 338.770809 
L 120.698984 338.770809 
L 129.516155 338.770809 
L 138.333327 338.770809 
L 147.150499 338.770809 
L 155.96767 338.770809 
L 164.784842 338.770809 
L 173.602014 338.770809 
L 182.419186 338.770809 
L 191.236357 338.770809 
L 200.053529 338.770809 
L 208.870701 338.770809 
L 217.687872 338.770809 
L 226.505044 338.770809 
L 235.322216 338.770809 
L 244.139388 325.770266 
L 252.956559 240.273805 
L 261.773731 229.239021 
L 270.590903 227.365721 
L 279.408074 227.040104 
L 288.225246 226.541629 
L 297.042418 225.5487 
L 305.85959 227.265222 
L 314.676761 228.35865 
L 323.493933 229.476198 
L 332.311105 231.293219 
L 341.128277 235.610654 
L 349.945448 238.786421 
L 358.76262 241.499892 
L 367.579792 243.63449 
L 376.396963 248.510698 
L 385.214135 252.586935 
L 394.031307 256.349616 
L 402.848479 258.600792 
L 411.66565 263.388562 
L 420.482822 264.047835 
L 429.299994 266.43167 
L 438.117165 268.389389 
L 446.934337 269.438598 
L 455.751509 269.667736 
L 464.568681 270.519967 
L 473.385852 271.637515 
L 482.203024 276.196147 
L 491.020196 278.949818 
L 499.837367 280.549761 
L 508.654539 270.616446 
L 517.471711 284.075264 
L 526.288883 283.890346 
L 535.106054 285.325471 
L 543.923226 287.029933 
L 552.740398 290.028822 
L 561.557569 291.592585 
L 570.374741 291.970461 
L 579.191913 294.00054 
L 588.009085 295.85776 
L 596.826256 298.539072 
L 605.643428 299.925958 
L 614.4606 300.717889 
L 623.277771 302.076635 
L 632.094943 304.026314 
L 640.912115 306.418189 
L 649.729287 307.648296 
L 658.546458 309.614056 
L 667.36363 310.799943 
L 676.180802 311.845132 
L 684.997973 313.244078 
L 693.815145 314.823921 
L 702.632317 315.507314 
L 711.449489 316.492203 
L 720.26666 318.188626 
L 729.083832 319.422753 
L 737.901004 319.185575 
L 746.718176 320.857877 
L 755.535347 321.263893 
L 764.352519 322.144264 
L 773.169691 323.137193 
L 781.986862 324.708997 
L 790.804034 325.585348 
L 799.621206 326.160202 
L 808.438378 326.827515 
L 817.255549 326.891834 
L 826.072721 328.150081 
L 834.889893 328.089781 
L 843.707064 328.664635 
L 852.524236 329.026432 
L 861.341408 330.075641 
L 870.15858 330.393217 
L 878.975751 331.12083 
L 887.792923 330.972091 
L 896.610095 331.735883 
L 905.427266 332.093659 
L 914.244438 332.403196 
L 923.06161 332.342897 
L 931.878782 333.01423 
L 940.695953 333.307687 
L 949.513125 333.392106 
" clip-path="url(#p65eec9bb91)" style="fill: none; stroke: #7cb5ec; stroke-linecap: square"/>
   </g>
   <g id="line2d_20">
    <path d="M 76.613125 338.770809 
L 85.430297 338.770809 
L 94.247468 338.770809 
L 103.06464 338.770809 
L 111.881812 338.770809 
L 120.698984 338.770809 
L 129.516155 338.770809 
L 138.333327 338.770809 
L 147.150499 338.770809 
L 155.96767 338.770809 
L 164.784842 338.770809 
L 173.602014 338.770809 
L 182.419186 338.770809 
L 191.236357 338.770809 
L 200.053529 338.770809 
L 208.870701 338.770809 
L 217.687872 338.770809 
L 226.505044 338.770809 
L 235.322216 338.770809 
L 244.139388 323.251021 
L 252.956559 84.367031 
L 261.773731 58.510972 
L 270.590903 53.804277 
L 279.408074 49.708991 
L 288.225246 55.54237 
L 297.042418 54.823292 
L 305.85959 67.635961 
L 314.676761 76.980135 
L 323.493933 104.801162 
L 332.311105 127.538651 
L 341.128277 161.919826 
L 349.945448 186.837623 
L 358.76262 218.569359 
L 367.579792 238.553586 
L 376.396963 259.314571 
L 385.214135 272.792484 
L 394.031307 286.005068 
L 402.848479 293.607303 
L 411.66565 300.344337 
L 420.482822 306.204634 
L 429.299994 309.819252 
L 438.117165 314.083733 
L 446.934337 315.983331 
L 455.751509 318.090576 
L 464.568681 318.732748 
L 473.385852 321.36296 
L 482.203024 322.908786 
L 491.020196 324.966042 
L 499.837367 325.577451 
L 508.654539 319.351847 
L 517.471711 328.311487 
L 526.288883 329.13439 
L 535.106054 330.280301 
L 543.923226 330.764813 
L 552.740398 331.872271 
L 561.557569 332.26065 
L 570.374741 332.737472 
L 579.191913 333.268129 
L 588.009085 334.252536 
L 596.826256 334.498638 
L 605.643428 334.775502 
L 614.4606 335.394602 
L 623.277771 335.217716 
L 632.094943 335.83297 
L 640.912115 336.159824 
L 649.729287 336.348246 
L 658.546458 336.494368 
L 667.36363 336.813532 
L 676.180802 337.013489 
L 684.997973 337.228828 
L 693.815145 337.321116 
L 702.632317 337.471085 
L 711.449489 337.524919 
L 720.26666 337.609517 
L 729.083832 337.736413 
L 737.901004 337.786402 
L 746.718176 337.944061 
L 755.535347 338.009432 
L 764.352519 337.994051 
L 773.169691 338.028659 
L 781.986862 338.240152 
L 790.804034 338.251688 
L 799.621206 338.293987 
L 808.438378 338.33244 
L 817.255549 338.386275 
L 826.072721 338.405502 
L 834.889893 338.540089 
L 843.707064 338.501635 
L 852.524236 338.459337 
L 861.341408 338.532398 
L 870.15858 338.524707 
L 878.975751 338.601614 
L 887.792923 338.620841 
L 896.610095 338.578542 
L 905.427266 338.61315 
L 914.244438 338.624686 
L 923.06161 338.647758 
L 931.878782 338.666985 
L 940.695953 338.659294 
L 949.513125 338.636222 
" clip-path="url(#p65eec9bb91)" style="fill: none; stroke: #434348; stroke-linecap: square"/>
   </g>
   <g id="line2d_21">
    <path d="M 76.613125 338.770809 
L 85.430297 338.770809 
L 94.247468 338.770809 
L 103.06464 338.770809 
L 111.881812 338.770809 
L 120.698984 338.770809 
L 129.516155 338.770809 
L 138.333327 338.770809 
L 147.150499 338.770809 
L 155.96767 338.770809 
L 164.784842 338.770809 
L 173.602014 338.770809 
L 182.419186 338.770809 
L 191.236357 338.770809 
L 200.053529 338.770809 
L 208.870701 338.770809 
L 217.687872 338.770809 
L 226.505044 338.770809 
L 235.322216 338.770809 
L 244.139388 327.486586 
L 252.956559 159.811642 
L 261.773731 142.704544 
L 270.590903 136.943206 
L 279.408074 131.631852 
L 288.225246 131.120331 
L 297.042418 122.87831 
L 305.85959 119.274589 
L 314.676761 111.728697 
L 323.493933 117.874637 
L 332.311105 108.271125 
L 341.128277 120.066869 
L 349.945448 118.343852 
L 358.76262 139.996946 
L 367.579792 153.388788 
L 376.396963 185.733818 
L 385.214135 208.90609 
L 394.031307 240.593451 
L 402.848479 263.084977 
L 411.66565 283.215047 
L 420.482822 297.826078 
L 429.299994 306.725769 
L 438.117165 312.721714 
L 446.934337 314.55242 
L 455.751509 317.556162 
L 464.568681 318.286905 
L 473.385852 320.656054 
L 482.203024 322.229076 
L 491.020196 323.994399 
L 499.837367 324.678991 
L 508.654539 309.321832 
L 517.471711 327.06737 
L 526.288883 328.31348 
L 535.106054 328.513473 
L 543.923226 329.844196 
L 552.740398 330.586478 
L 561.557569 331.324914 
L 570.374741 331.767206 
L 579.191913 332.701789 
L 588.009085 333.182542 
L 596.826256 333.620988 
L 605.643428 334.170969 
L 614.4606 334.490189 
L 623.277771 334.8171 
L 632.094943 335.113244 
L 640.912115 335.397849 
L 649.729287 335.601688 
L 658.546458 336.178591 
L 667.36363 336.255512 
L 676.180802 336.578578 
L 684.997973 336.890105 
L 693.815145 336.924719 
L 702.632317 336.947796 
L 711.449489 337.278553 
L 720.26666 337.39778 
L 729.083832 337.636233 
L 737.901004 337.667001 
L 746.718176 337.720846 
L 755.535347 337.913147 
L 764.352519 337.905455 
L 773.169691 337.893916 
L 781.986862 338.078525 
L 790.804034 338.109294 
L 799.621206 338.213136 
L 808.438378 338.186214 
L 817.255549 338.26698 
L 826.072721 338.297749 
L 834.889893 338.466973 
L 843.707064 338.455435 
L 852.524236 338.478512 
L 861.341408 338.513126 
L 870.15858 338.493896 
L 878.975751 338.513126 
L 887.792923 338.56697 
L 896.610095 338.563124 
L 905.427266 338.543894 
L 914.244438 338.601584 
L 923.06161 338.601584 
L 931.878782 338.647736 
L 940.695953 338.663121 
L 949.513125 338.62466 
" clip-path="url(#p65eec9bb91)" style="fill: none; stroke: #90ed7d; stroke-linecap: square"/>
   </g>
   <g id="line2d_22">
    <path d="M 76.613125 338.770809 
L 85.430297 338.770809 
L 94.247468 338.770809 
L 103.06464 338.770809 
L 111.881812 338.770809 
L 120.698984 338.770809 
L 129.516155 338.770809 
L 138.333327 338.770809 
L 147.150499 338.770809 
L 155.96767 338.770809 
L 164.784842 338.770809 
L 173.602014 338.770809 
L 182.419186 338.770809 
L 191.236357 338.770809 
L 200.053529 338.770809 
L 208.870701 338.770809 
L 217.687872 338.770809 
L 226.505044 338.770809 
L 235.322216 338.770809 
L 244.139388 324.290132 
L 252.956559 111.75563 
L 261.773731 94.252699 
L 270.590903 85.601206 
L 279.408074 81.925282 
L 288.225246 80.029644 
L 297.042418 71.205121 
L 305.85959 73.231493 
L 314.676761 72.804686 
L 323.493933 88.727278 
L 332.311105 102.631189 
L 341.128277 133.165192 
L 349.945448 157.423979 
L 358.76262 193.175793 
L 367.579792 217.050069 
L 376.396963 245.811477 
L 385.214135 263.060632 
L 394.031307 279.456172 
L 402.848479 290.010994 
L 411.66565 298.881658 
L 420.482822 305.779782 
L 429.299994 310.178586 
L 438.117165 314.861927 
L 446.934337 316.915215 
L 455.751509 318.057212 
L 464.568681 319.510663 
L 473.385852 321.417837 
L 482.203024 323.148135 
L 491.020196 325.151436 
L 499.837367 326.281898 
L 508.654539 321.506274 
L 517.471711 328.377482 
L 526.288883 329.481028 
L 535.106054 330.407699 
L 543.923226 331.130579 
L 552.740398 331.799628 
L 561.557569 332.460987 
L 570.374741 333.083894 
L 579.191913 333.46456 
L 588.009085 334.17975 
L 596.826256 334.510429 
L 605.643428 334.88725 
L 614.4606 335.110266 
L 623.277771 335.886978 
L 632.094943 335.840837 
L 640.912115 336.202277 
L 649.729287 336.371462 
L 658.546458 336.736747 
L 667.36363 336.855945 
L 676.180802 337.194315 
L 684.997973 337.340429 
L 693.815145 337.471163 
L 702.632317 337.471163 
L 711.449489 337.663418 
L 720.26666 337.721095 
L 729.083832 337.878744 
L 737.901004 337.91335 
L 746.718176 338.051774 
L 755.535347 338.151747 
L 764.352519 338.190198 
L 773.169691 338.205578 
L 781.986862 338.28248 
L 790.804034 338.278635 
L 799.621206 338.397834 
L 808.438378 338.367073 
L 817.255549 338.474736 
L 826.072721 338.397834 
L 834.889893 338.478581 
L 843.707064 338.563173 
L 852.524236 338.547793 
L 861.341408 338.586244 
L 870.15858 338.582399 
L 878.975751 338.609315 
L 887.792923 338.582399 
L 896.610095 338.647766 
L 905.427266 338.643921 
L 914.244438 338.670836 
L 923.06161 338.655456 
L 931.878782 338.686217 
L 940.695953 338.678526 
L 949.513125 338.720823 
" clip-path="url(#p65eec9bb91)" style="fill: none; stroke: #f7a35c; stroke-linecap: square"/>
   </g>
   <g id="line2d_23">
    <path d="M 76.613125 338.770809 
L 85.430297 338.770809 
L 94.247468 338.770809 
L 103.06464 338.770809 
L 111.881812 338.770809 
L 120.698984 338.770809 
L 129.516155 338.770809 
L 138.333327 338.770809 
L 147.150499 338.770809 
L 155.96767 338.770809 
L 164.784842 338.770809 
L 173.602014 338.770809 
L 182.419186 338.770809 
L 191.236357 338.770809 
L 200.053529 338.770809 
L 208.870701 338.770809 
L 217.687872 338.770809 
L 226.505044 338.770809 
L 235.322216 338.770809 
L 244.139388 323.923008 
L 252.956559 115.404054 
L 261.773731 95.304545 
L 270.590903 89.637621 
L 279.408074 86.158268 
L 288.225246 84.005299 
L 297.042418 78.661321 
L 305.85959 85.53929 
L 314.676761 81.164148 
L 323.493933 98.599357 
L 332.311105 104.124031 
L 341.128277 139.348152 
L 349.945448 155.226303 
L 358.76262 191.442328 
L 367.579792 211.491858 
L 376.396963 240.068685 
L 385.214135 256.23518 
L 394.031307 273.770349 
L 402.848479 283.527915 
L 411.66565 293.958284 
L 420.482822 302.293352 
L 429.299994 306.872257 
L 438.117165 312.346951 
L 446.934337 314.334604 
L 455.751509 316.787451 
L 464.568681 318.563651 
L 473.385852 321.174127 
L 482.203024 322.873435 
L 491.020196 324.680392 
L 499.837367 325.418553 
L 508.654539 320.224514 
L 517.471711 328.217413 
L 526.288883 329.032466 
L 535.106054 329.824451 
L 543.923226 330.947071 
L 552.740398 331.419956 
L 561.557569 332.211941 
L 570.374741 332.684825 
L 579.191913 333.465277 
L 588.009085 333.85358 
L 596.826256 334.026587 
L 605.643428 334.491782 
L 614.4606 335.164585 
L 623.277771 335.452929 
L 632.094943 335.791253 
L 640.912115 335.995016 
L 649.729287 336.314117 
L 658.546458 336.556326 
L 667.36363 336.810069 
L 676.180802 337.102258 
L 684.997973 337.086879 
L 693.815145 337.348311 
L 702.632317 337.54823 
L 711.449489 337.609743 
L 720.26666 337.721236 
L 729.083832 337.813507 
L 737.901004 337.832729 
L 746.718176 337.905777 
L 755.535347 338.013425 
L 764.352519 338.105695 
L 773.169691 338.240256 
L 781.986862 338.232567 
L 790.804034 338.370972 
L 799.621206 338.305614 
L 808.438378 338.390195 
L 817.255549 338.370972 
L 826.072721 338.417107 
L 834.889893 338.424796 
L 843.707064 338.493999 
L 852.524236 338.517066 
L 861.341408 338.547823 
L 870.15858 338.57089 
L 878.975751 338.636248 
L 887.792923 338.613181 
L 896.610095 338.647782 
L 905.427266 338.601647 
L 914.244438 338.643938 
L 923.06161 338.651627 
L 931.878782 338.674694 
L 940.695953 338.682384 
L 949.513125 338.651627 
" clip-path="url(#p65eec9bb91)" style="fill: none; stroke: #8085e9; stroke-linecap: square"/>
   </g>
   <g id="line2d_24">
    <path d="M 76.613125 338.770809 
L 85.430297 338.770809 
L 94.247468 338.770809 
L 103.06464 338.770809 
L 111.881812 338.770809 
L 120.698984 338.770809 
L 129.516155 338.770809 
L 138.333327 338.770809 
L 147.150499 338.770809 
L 155.96767 338.770809 
L 164.784842 338.770809 
L 173.602014 338.770809 
L 182.419186 338.770809 
L 191.236357 338.770809 
L 200.053529 338.770809 
L 208.870701 338.770809 
L 217.687872 338.770809 
L 226.505044 338.770809 
L 235.322216 338.770809 
L 244.139388 325.416682 
L 252.956559 131.103175 
L 261.773731 112.488914 
L 270.590903 105.133185 
L 279.408074 98.227337 
L 288.225246 95.816442 
L 297.042418 85.972916 
L 305.85959 85.842182 
L 314.676761 79.13628 
L 323.493933 89.352783 
L 332.311105 94.08998 
L 341.128277 121.059703 
L 349.945448 138.766514 
L 358.76262 174.89533 
L 367.579792 202.061154 
L 376.396963 233.879582 
L 385.214135 252.801453 
L 394.031307 273.530535 
L 402.848479 285.408133 
L 411.66565 295.082473 
L 420.482822 302.791953 
L 429.299994 308.213583 
L 438.117165 313.589071 
L 446.934337 315.907682 
L 455.751509 317.618764 
L 464.568681 318.472382 
L 473.385852 322.121408 
L 482.203024 323.355694 
L 491.020196 324.701488 
L 499.837367 325.79735 
L 508.654539 318.876121 
L 517.471711 328.327443 
L 526.288883 329.000341 
L 535.106054 329.638632 
L 543.923226 330.915214 
L 552.740398 331.40739 
L 561.557569 332.276389 
L 570.374741 332.837778 
L 579.191913 333.35687 
L 588.009085 333.987471 
L 596.826256 334.387364 
L 605.643428 334.787257 
L 614.4606 335.160235 
L 623.277771 335.429393 
L 632.094943 335.740849 
L 640.912115 336.179193 
L 649.729287 336.359914 
L 658.546458 336.68675 
L 667.36363 336.782878 
L 676.180802 337.013586 
L 684.997973 337.309661 
L 693.815145 337.305816 
L 702.632317 337.478846 
L 711.449489 337.678793 
L 720.26666 337.759541 
L 729.083832 337.871049 
L 737.901004 337.90181 
L 746.718176 337.978713 
L 755.535347 338.205575 
L 764.352519 338.078686 
L 773.169691 338.178659 
L 781.986862 338.228646 
L 790.804034 338.309394 
L 799.621206 338.309394 
L 808.438378 338.290168 
L 817.255549 338.428593 
L 826.072721 338.447818 
L 834.889893 338.528566 
L 843.707064 338.524721 
L 852.524236 338.551637 
L 861.341408 338.551637 
L 870.15858 338.605469 
L 878.975751 338.624694 
L 887.792923 338.617004 
L 896.610095 338.663146 
L 905.427266 338.64392 
L 914.244438 338.624694 
L 923.06161 338.701597 
L 931.878782 338.6593 
L 940.695953 338.666991 
L 949.513125 338.682371 
" clip-path="url(#p65eec9bb91)" style="fill: none; stroke: #f15c80; stroke-linecap: square"/>
   </g>
   <g id="line2d_25">
    <path d="M 32.968125 338.770809 
L 993.158125 338.770809 
" clip-path="url(#p65eec9bb91)" style="fill: none; stroke: #dedede; stroke-width: 2; stroke-linecap: square"/>
   </g>
   <g id="text_16">
    <!-- RSeQC: Inner Distance -->
    <g transform="translate(422.148125 19.3575) scale(0.16 -0.16)">
     <defs>
      <path id="DejaVuSans-52" d="M 2841 2188 
Q 3044 2119 3236 1894 
Q 3428 1669 3622 1275 
L 4263 0 
L 3584 0 
L 2988 1197 
Q 2756 1666 2539 1819 
Q 2322 1972 1947 1972 
L 1259 1972 
L 1259 0 
L 628 0 
L 628 4666 
L 2053 4666 
Q 2853 4666 3247 4331 
Q 3641 3997 3641 3322 
Q 3641 2881 3436 2590 
Q 3231 2300 2841 2188 
z
M 1259 4147 
L 1259 2491 
L 2053 2491 
Q 2509 2491 2742 2702 
Q 2975 2913 2975 3322 
Q 2975 3731 2742 3939 
Q 2509 4147 2053 4147 
L 1259 4147 
z
" transform="scale(0.015625)"/>
      <path id="DejaVuSans-53" d="M 3425 4513 
L 3425 3897 
Q 3066 4069 2747 4153 
Q 2428 4238 2131 4238 
Q 1616 4238 1336 4038 
Q 1056 3838 1056 3469 
Q 1056 3159 1242 3001 
Q 1428 2844 1947 2747 
L 2328 2669 
Q 3034 2534 3370 2195 
Q 3706 1856 3706 1288 
Q 3706 609 3251 259 
Q 2797 -91 1919 -91 
Q 1588 -91 1214 -16 
Q 841 59 441 206 
L 441 856 
Q 825 641 1194 531 
Q 1563 422 1919 422 
Q 2459 422 2753 634 
Q 3047 847 3047 1241 
Q 3047 1584 2836 1778 
Q 2625 1972 2144 2069 
L 1759 2144 
Q 1053 2284 737 2584 
Q 422 2884 422 3419 
Q 422 4038 858 4394 
Q 1294 4750 2059 4750 
Q 2388 4750 2728 4690 
Q 3069 4631 3425 4513 
z
" transform="scale(0.015625)"/>
      <path id="DejaVuSans-51" d="M 2522 4238 
Q 1834 4238 1429 3725 
Q 1025 3213 1025 2328 
Q 1025 1447 1429 934 
Q 1834 422 2522 422 
Q 3209 422 3611 934 
Q 4013 1447 4013 2328 
Q 4013 3213 3611 3725 
Q 3209 4238 2522 4238 
z
M 3406 84 
L 4238 -825 
L 3475 -825 
L 2784 -78 
Q 2681 -84 2626 -87 
Q 2572 -91 2522 -91 
Q 1538 -91 948 567 
Q 359 1225 359 2328 
Q 359 3434 948 4092 
Q 1538 4750 2522 4750 
Q 3503 4750 4090 4092 
Q 4678 3434 4678 2328 
Q 4678 1516 4351 937 
Q 4025 359 3406 84 
z
" transform="scale(0.015625)"/>
      <path id="DejaVuSans-43" d="M 4122 4306 
L 4122 3641 
Q 3803 3938 3442 4084 
Q 3081 4231 2675 4231 
Q 1875 4231 1450 3742 
Q 1025 3253 1025 2328 
Q 1025 1406 1450 917 
Q 1875 428 2675 428 
Q 3081 428 3442 575 
Q 3803 722 4122 1019 
L 4122 359 
Q 3791 134 3420 21 
Q 3050 -91 2638 -91 
Q 1578 -91 968 557 
Q 359 1206 359 2328 
Q 359 3453 968 4101 
Q 1578 4750 2638 4750 
Q 3056 4750 3426 4639 
Q 3797 4528 4122 4306 
z
" transform="scale(0.015625)"/>
      <path id="DejaVuSans-3a" d="M 750 794 
L 1409 794 
L 1409 0 
L 750 0 
L 750 794 
z
M 750 3309 
L 1409 3309 
L 1409 2516 
L 750 2516 
L 750 3309 
z
" transform="scale(0.015625)"/>
     </defs>
     <use xlink:href="#DejaVuSans-52"/>
     <use xlink:href="#DejaVuSans-53" x="69.482422"/>
     <use xlink:href="#DejaVuSans-65" x="132.958984"/>
     <use xlink:href="#DejaVuSans-51" x="194.482422"/>
     <use xlink:href="#DejaVuSans-43" x="273.193359"/>
     <use xlink:href="#DejaVuSans-3a" x="343.017578"/>
     <use xlink:href="#DejaVuSans-20" x="376.708984"/>
     <use xlink:href="#DejaVuSans-49" x="408.496094"/>
     <use xlink:href="#DejaVuSans-6e" x="437.988281"/>
     <use xlink:href="#DejaVuSans-6e" x="501.367188"/>
     <use xlink:href="#DejaVuSans-65" x="564.746094"/>
     <use xlink:href="#DejaVuSans-72" x="626.269531"/>
     <use xlink:href="#DejaVuSans-20" x="667.382812"/>
     <use xlink:href="#DejaVuSans-44" x="699.169922"/>
     <use xlink:href="#DejaVuSans-69" x="776.171875"/>
     <use xlink:href="#DejaVuSans-73" x="803.955078"/>
     <use xlink:href="#DejaVuSans-74" x="856.054688"/>
     <use xlink:href="#DejaVuSans-61" x="895.263672"/>
     <use xlink:href="#DejaVuSans-6e" x="956.542969"/>
     <use xlink:href="#DejaVuSans-63" x="1019.921875"/>
     <use xlink:href="#DejaVuSans-65" x="1074.902344"/>
    </g>
   </g>
  </g>
 </g>
 <defs>
  <clipPath id="p65eec9bb91">
   <rect x="32.968125" y="35.2559" width="960.19" height="317.968"/>
  </clipPath>
 </defs>
</svg>
