<?xml version="1.0" encoding="utf-8" standalone="no"?>
<!DOCTYPE svg PUBLIC "-//W3C//DTD SVG 1.1//EN"
  "http://www.w3.org/Graphics/SVG/1.1/DTD/svg11.dtd">
<svg xmlns:xlink="http://www.w3.org/1999/xlink" width="1000.358125pt" height="388.844525pt" viewBox="0 0 1000.358125 388.844525" xmlns="http://www.w3.org/2000/svg" version="1.1">
 <metadata>
  <rdf:RDF xmlns:dc="http://purl.org/dc/elements/1.1/" xmlns:cc="http://creativecommons.org/ns#" xmlns:rdf="http://www.w3.org/1999/02/22-rdf-syntax-ns#">
   <cc:Work>
    <dc:type rdf:resource="http://purl.org/dc/dcmitype/StillImage"/>
    <dc:date>2024-09-01T20:21:34.714001</dc:date>
    <dc:format>image/svg+xml</dc:format>
    <dc:creator>
     <cc:Agent>
      <dc:title>Matplotlib v3.8.2, https://matplotlib.org/</dc:title>
     </cc:Agent>
    </dc:creator>
   </cc:Work>
  </rdf:RDF>
 </metadata>
 <defs>
  <style type="text/css">*{stroke-linejoin: round; stroke-linecap: butt}</style>
 </defs>
 <g id="figure_1">
  <g id="axes_1">
   <g id="patch_1">
    <path d="M 32.968125 353.2239 
L 993.158125 353.2239 
L 993.158125 35.2559 
L 32.968125 35.2559 
z
" style="fill: #ffffff"/>
   </g>
   <g id="patch_2">
    <path d="M 32.968125 -918.6481 
L 993.158125 -918.6481 
L 993.158125 -6006.1361 
L 32.968125 -6006.1361 
z
" clip-path="url(#p8265102077)" style="fill: #e6c3c3"/>
   </g>
   <g id="patch_3">
    <path d="M 32.968125 35.2559 
L 993.158125 35.2559 
L 993.158125 -918.6481 
L 32.968125 -918.6481 
z
" clip-path="url(#p8265102077)" style="fill: #e6dcc3"/>
   </g>
   <g id="patch_4">
    <path d="M 32.968125 353.2239 
L 993.158125 353.2239 
L 993.158125 35.2559 
L 32.968125 35.2559 
z
" clip-path="url(#p8265102077)" style="fill: #c3e6c3"/>
   </g>
   <g id="matplotlib.axis_1">
    <g id="xtick_1">
     <g id="text_1">
      <!-- 0 -->
      <g transform="translate(30.423125 366.30265) scale(0.08 -0.08)">
       <defs>
        <path id="DejaVuSans-30" d="M 2034 4250 
Q 1547 4250 1301 3770 
Q 1056 3291 1056 2328 
Q 1056 1369 1301 889 
Q 1547 409 2034 409 
Q 2525 409 2770 889 
Q 3016 1369 3016 2328 
Q 3016 3291 2770 3770 
Q 2525 4250 2034 4250 
z
M 2034 4750 
Q 2819 4750 3233 4129 
Q 3647 3509 3647 2328 
Q 3647 1150 3233 529 
Q 2819 -91 2034 -91 
Q 1250 -91 836 529 
Q 422 1150 422 2328 
Q 422 3509 836 4129 
Q 1250 4750 2034 4750 
z
" transform="scale(0.015625)"/>
       </defs>
       <use xlink:href="#DejaVuSans-30"/>
      </g>
     </g>
    </g>
    <g id="xtick_2">
     <g id="text_2">
      <!-- 20 -->
      <g transform="translate(149.845734 366.30265) scale(0.08 -0.08)">
       <defs>
        <path id="DejaVuSans-32" d="M 1228 531 
L 3431 531 
L 3431 0 
L 469 0 
L 469 531 
Q 828 903 1448 1529 
Q 2069 2156 2228 2338 
Q 2531 2678 2651 2914 
Q 2772 3150 2772 3378 
Q 2772 3750 2511 3984 
Q 2250 4219 1831 4219 
Q 1534 4219 1204 4116 
Q 875 4013 500 3803 
L 500 4441 
Q 881 4594 1212 4672 
Q 1544 4750 1819 4750 
Q 2544 4750 2975 4387 
Q 3406 4025 3406 3419 
Q 3406 3131 3298 2873 
Q 3191 2616 2906 2266 
Q 2828 2175 2409 1742 
Q 1991 1309 1228 531 
z
" transform="scale(0.015625)"/>
       </defs>
       <use xlink:href="#DejaVuSans-32"/>
       <use xlink:href="#DejaVuSans-30" x="63.623047"/>
      </g>
     </g>
    </g>
    <g id="xtick_3">
     <g id="text_3">
      <!-- 40 -->
      <g transform="translate(271.813343 366.30265) scale(0.08 -0.08)">
       <defs>
        <path id="DejaVuSans-34" d="M 2419 4116 
L 825 1625 
L 2419 1625 
L 2419 4116 
z
M 2253 4666 
L 3047 4666 
L 3047 1625 
L 3713 1625 
L 3713 1100 
L 3047 1100 
L 3047 0 
L 2419 0 
L 2419 1100 
L 313 1100 
L 313 1709 
L 2253 4666 
z
" transform="scale(0.015625)"/>
       </defs>
       <use xlink:href="#DejaVuSans-34"/>
       <use xlink:href="#DejaVuSans-30" x="63.623047"/>
      </g>
     </g>
    </g>
    <g id="xtick_4">
     <g id="text_4">
      <!-- 60 -->
      <g transform="translate(393.780951 366.30265) scale(0.08 -0.08)">
       <defs>
        <path id="DejaVuSans-36" d="M 2113 2584 
Q 1688 2584 1439 2293 
Q 1191 2003 1191 1497 
Q 1191 994 1439 701 
Q 1688 409 2113 409 
Q 2538 409 2786 701 
Q 3034 994 3034 1497 
Q 3034 2003 2786 2293 
Q 2538 2584 2113 2584 
z
M 3366 4563 
L 3366 3988 
Q 3128 4100 2886 4159 
Q 2644 4219 2406 4219 
Q 1781 4219 1451 3797 
Q 1122 3375 1075 2522 
Q 1259 2794 1537 2939 
Q 1816 3084 2150 3084 
Q 2853 3084 3261 2657 
Q 3669 2231 3669 1497 
Q 3669 778 3244 343 
Q 2819 -91 2113 -91 
Q 1303 -91 875 529 
Q 447 1150 447 2328 
Q 447 3434 972 4092 
Q 1497 4750 2381 4750 
Q 2619 4750 2861 4703 
Q 3103 4656 3366 4563 
z
" transform="scale(0.015625)"/>
       </defs>
       <use xlink:href="#DejaVuSans-36"/>
       <use xlink:href="#DejaVuSans-30" x="63.623047"/>
      </g>
     </g>
    </g>
    <g id="xtick_5">
     <g id="text_5">
      <!-- 80 -->
      <g transform="translate(515.74856 366.30265) scale(0.08 -0.08)">
       <defs>
        <path id="DejaVuSans-38" d="M 2034 2216 
Q 1584 2216 1326 1975 
Q 1069 1734 1069 1313 
Q 1069 891 1326 650 
Q 1584 409 2034 409 
Q 2484 409 2743 651 
Q 3003 894 3003 1313 
Q 3003 1734 2745 1975 
Q 2488 2216 2034 2216 
z
M 1403 2484 
Q 997 2584 770 2862 
Q 544 3141 544 3541 
Q 544 4100 942 4425 
Q 1341 4750 2034 4750 
Q 2731 4750 3128 4425 
Q 3525 4100 3525 3541 
Q 3525 3141 3298 2862 
Q 3072 2584 2669 2484 
Q 3125 2378 3379 2068 
Q 3634 1759 3634 1313 
Q 3634 634 3220 271 
Q 2806 -91 2034 -91 
Q 1263 -91 848 271 
Q 434 634 434 1313 
Q 434 1759 690 2068 
Q 947 2378 1403 2484 
z
M 1172 3481 
Q 1172 3119 1398 2916 
Q 1625 2713 2034 2713 
Q 2441 2713 2670 2916 
Q 2900 3119 2900 3481 
Q 2900 3844 2670 4047 
Q 2441 4250 2034 4250 
Q 1625 4250 1398 4047 
Q 1172 3844 1172 3481 
z
" transform="scale(0.015625)"/>
       </defs>
       <use xlink:href="#DejaVuSans-38"/>
       <use xlink:href="#DejaVuSans-30" x="63.623047"/>
      </g>
     </g>
    </g>
    <g id="xtick_6">
     <g id="text_6">
      <!-- 100 -->
      <g transform="translate(635.171169 366.30265) scale(0.08 -0.08)">
       <defs>
        <path id="DejaVuSans-31" d="M 794 531 
L 1825 531 
L 1825 4091 
L 703 3866 
L 703 4441 
L 1819 4666 
L 2450 4666 
L 2450 531 
L 3481 531 
L 3481 0 
L 794 0 
L 794 531 
z
" transform="scale(0.015625)"/>
       </defs>
       <use xlink:href="#DejaVuSans-31"/>
       <use xlink:href="#DejaVuSans-30" x="63.623047"/>
       <use xlink:href="#DejaVuSans-30" x="127.246094"/>
      </g>
     </g>
    </g>
    <g id="xtick_7">
     <g id="text_7">
      <!-- 120 -->
      <g transform="translate(757.138778 366.30265) scale(0.08 -0.08)">
       <use xlink:href="#DejaVuSans-31"/>
       <use xlink:href="#DejaVuSans-32" x="63.623047"/>
       <use xlink:href="#DejaVuSans-30" x="127.246094"/>
      </g>
     </g>
    </g>
    <g id="xtick_8">
     <g id="text_8">
      <!-- 140 -->
      <g transform="translate(879.106386 366.30265) scale(0.08 -0.08)">
       <use xlink:href="#DejaVuSans-31"/>
       <use xlink:href="#DejaVuSans-34" x="63.623047"/>
       <use xlink:href="#DejaVuSans-30" x="127.246094"/>
      </g>
     </g>
    </g>
    <g id="text_9">
     <!-- Position in Read (bp) -->
     <g transform="translate(461.46 379.564837) scale(0.1 -0.1)">
      <defs>
       <path id="DejaVuSans-50" d="M 1259 4147 
L 1259 2394 
L 2053 2394 
Q 2494 2394 2734 2622 
Q 2975 2850 2975 3272 
Q 2975 3691 2734 3919 
Q 2494 4147 2053 4147 
L 1259 4147 
z
M 628 4666 
L 2053 4666 
Q 2838 4666 3239 4311 
Q 3641 3956 3641 3272 
Q 3641 2581 3239 2228 
Q 2838 1875 2053 1875 
L 1259 1875 
L 1259 0 
L 628 0 
L 628 4666 
z
" transform="scale(0.015625)"/>
       <path id="DejaVuSans-6f" d="M 1959 3097 
Q 1497 3097 1228 2736 
Q 959 2375 959 1747 
Q 959 1119 1226 758 
Q 1494 397 1959 397 
Q 2419 397 2687 759 
Q 2956 1122 2956 1747 
Q 2956 2369 2687 2733 
Q 2419 3097 1959 3097 
z
M 1959 3584 
Q 2709 3584 3137 3096 
Q 3566 2609 3566 1747 
Q 3566 888 3137 398 
Q 2709 -91 1959 -91 
Q 1206 -91 779 398 
Q 353 888 353 1747 
Q 353 2609 779 3096 
Q 1206 3584 1959 3584 
z
" transform="scale(0.015625)"/>
       <path id="DejaVuSans-73" d="M 2834 3397 
L 2834 2853 
Q 2591 2978 2328 3040 
Q 2066 3103 1784 3103 
Q 1356 3103 1142 2972 
Q 928 2841 928 2578 
Q 928 2378 1081 2264 
Q 1234 2150 1697 2047 
L 1894 2003 
Q 2506 1872 2764 1633 
Q 3022 1394 3022 966 
Q 3022 478 2636 193 
Q 2250 -91 1575 -91 
Q 1294 -91 989 -36 
Q 684 19 347 128 
L 347 722 
Q 666 556 975 473 
Q 1284 391 1588 391 
Q 1994 391 2212 530 
Q 2431 669 2431 922 
Q 2431 1156 2273 1281 
Q 2116 1406 1581 1522 
L 1381 1569 
Q 847 1681 609 1914 
Q 372 2147 372 2553 
Q 372 3047 722 3315 
Q 1072 3584 1716 3584 
Q 2034 3584 2315 3537 
Q 2597 3491 2834 3397 
z
" transform="scale(0.015625)"/>
       <path id="DejaVuSans-69" d="M 603 3500 
L 1178 3500 
L 1178 0 
L 603 0 
L 603 3500 
z
M 603 4863 
L 1178 4863 
L 1178 4134 
L 603 4134 
L 603 4863 
z
" transform="scale(0.015625)"/>
       <path id="DejaVuSans-74" d="M 1172 4494 
L 1172 3500 
L 2356 3500 
L 2356 3053 
L 1172 3053 
L 1172 1153 
Q 1172 725 1289 603 
Q 1406 481 1766 481 
L 2356 481 
L 2356 0 
L 1766 0 
Q 1100 0 847 248 
Q 594 497 594 1153 
L 594 3053 
L 172 3053 
L 172 3500 
L 594 3500 
L 594 4494 
L 1172 4494 
z
" transform="scale(0.015625)"/>
       <path id="DejaVuSans-6e" d="M 3513 2113 
L 3513 0 
L 2938 0 
L 2938 2094 
Q 2938 2591 2744 2837 
Q 2550 3084 2163 3084 
Q 1697 3084 1428 2787 
Q 1159 2491 1159 1978 
L 1159 0 
L 581 0 
L 581 3500 
L 1159 3500 
L 1159 2956 
Q 1366 3272 1645 3428 
Q 1925 3584 2291 3584 
Q 2894 3584 3203 3211 
Q 3513 2838 3513 2113 
z
" transform="scale(0.015625)"/>
       <path id="DejaVuSans-20" transform="scale(0.015625)"/>
       <path id="DejaVuSans-52" d="M 2841 2188 
Q 3044 2119 3236 1894 
Q 3428 1669 3622 1275 
L 4263 0 
L 3584 0 
L 2988 1197 
Q 2756 1666 2539 1819 
Q 2322 1972 1947 1972 
L 1259 1972 
L 1259 0 
L 628 0 
L 628 4666 
L 2053 4666 
Q 2853 4666 3247 4331 
Q 3641 3997 3641 3322 
Q 3641 2881 3436 2590 
Q 3231 2300 2841 2188 
z
M 1259 4147 
L 1259 2491 
L 2053 2491 
Q 2509 2491 2742 2702 
Q 2975 2913 2975 3322 
Q 2975 3731 2742 3939 
Q 2509 4147 2053 4147 
L 1259 4147 
z
" transform="scale(0.015625)"/>
       <path id="DejaVuSans-65" d="M 3597 1894 
L 3597 1613 
L 953 1613 
Q 991 1019 1311 708 
Q 1631 397 2203 397 
Q 2534 397 2845 478 
Q 3156 559 3463 722 
L 3463 178 
Q 3153 47 2828 -22 
Q 2503 -91 2169 -91 
Q 1331 -91 842 396 
Q 353 884 353 1716 
Q 353 2575 817 3079 
Q 1281 3584 2069 3584 
Q 2775 3584 3186 3129 
Q 3597 2675 3597 1894 
z
M 3022 2063 
Q 3016 2534 2758 2815 
Q 2500 3097 2075 3097 
Q 1594 3097 1305 2825 
Q 1016 2553 972 2059 
L 3022 2063 
z
" transform="scale(0.015625)"/>
       <path id="DejaVuSans-61" d="M 2194 1759 
Q 1497 1759 1228 1600 
Q 959 1441 959 1056 
Q 959 750 1161 570 
Q 1363 391 1709 391 
Q 2188 391 2477 730 
Q 2766 1069 2766 1631 
L 2766 1759 
L 2194 1759 
z
M 3341 1997 
L 3341 0 
L 2766 0 
L 2766 531 
Q 2569 213 2275 61 
Q 1981 -91 1556 -91 
Q 1019 -91 701 211 
Q 384 513 384 1019 
Q 384 1609 779 1909 
Q 1175 2209 1959 2209 
L 2766 2209 
L 2766 2266 
Q 2766 2663 2505 2880 
Q 2244 3097 1772 3097 
Q 1472 3097 1187 3025 
Q 903 2953 641 2809 
L 641 3341 
Q 956 3463 1253 3523 
Q 1550 3584 1831 3584 
Q 2591 3584 2966 3190 
Q 3341 2797 3341 1997 
z
" transform="scale(0.015625)"/>
       <path id="DejaVuSans-64" d="M 2906 2969 
L 2906 4863 
L 3481 4863 
L 3481 0 
L 2906 0 
L 2906 525 
Q 2725 213 2448 61 
Q 2172 -91 1784 -91 
Q 1150 -91 751 415 
Q 353 922 353 1747 
Q 353 2572 751 3078 
Q 1150 3584 1784 3584 
Q 2172 3584 2448 3432 
Q 2725 3281 2906 2969 
z
M 947 1747 
Q 947 1113 1208 752 
Q 1469 391 1925 391 
Q 2381 391 2643 752 
Q 2906 1113 2906 1747 
Q 2906 2381 2643 2742 
Q 2381 3103 1925 3103 
Q 1469 3103 1208 2742 
Q 947 2381 947 1747 
z
" transform="scale(0.015625)"/>
       <path id="DejaVuSans-28" d="M 1984 4856 
Q 1566 4138 1362 3434 
Q 1159 2731 1159 2009 
Q 1159 1288 1364 580 
Q 1569 -128 1984 -844 
L 1484 -844 
Q 1016 -109 783 600 
Q 550 1309 550 2009 
Q 550 2706 781 3412 
Q 1013 4119 1484 4856 
L 1984 4856 
z
" transform="scale(0.015625)"/>
       <path id="DejaVuSans-62" d="M 3116 1747 
Q 3116 2381 2855 2742 
Q 2594 3103 2138 3103 
Q 1681 3103 1420 2742 
Q 1159 2381 1159 1747 
Q 1159 1113 1420 752 
Q 1681 391 2138 391 
Q 2594 391 2855 752 
Q 3116 1113 3116 1747 
z
M 1159 2969 
Q 1341 3281 1617 3432 
Q 1894 3584 2278 3584 
Q 2916 3584 3314 3078 
Q 3713 2572 3713 1747 
Q 3713 922 3314 415 
Q 2916 -91 2278 -91 
Q 1894 -91 1617 61 
Q 1341 213 1159 525 
L 1159 0 
L 581 0 
L 581 4863 
L 1159 4863 
L 1159 2969 
z
" transform="scale(0.015625)"/>
       <path id="DejaVuSans-70" d="M 1159 525 
L 1159 -1331 
L 581 -1331 
L 581 3500 
L 1159 3500 
L 1159 2969 
Q 1341 3281 1617 3432 
Q 1894 3584 2278 3584 
Q 2916 3584 3314 3078 
Q 3713 2572 3713 1747 
Q 3713 922 3314 415 
Q 2916 -91 2278 -91 
Q 1894 -91 1617 61 
Q 1341 213 1159 525 
z
M 3116 1747 
Q 3116 2381 2855 2742 
Q 2594 3103 2138 3103 
Q 1681 3103 1420 2742 
Q 1159 2381 1159 1747 
Q 1159 1113 1420 752 
Q 1681 391 2138 391 
Q 2594 391 2855 752 
Q 3116 1113 3116 1747 
z
" transform="scale(0.015625)"/>
       <path id="DejaVuSans-29" d="M 513 4856 
L 1013 4856 
Q 1481 4119 1714 3412 
Q 1947 2706 1947 2009 
Q 1947 1309 1714 600 
Q 1481 -109 1013 -844 
L 513 -844 
Q 928 -128 1133 580 
Q 1338 1288 1338 2009 
Q 1338 2731 1133 3434 
Q 928 4138 513 4856 
z
" transform="scale(0.015625)"/>
      </defs>
      <use xlink:href="#DejaVuSans-50"/>
      <use xlink:href="#DejaVuSans-6f" x="56.677734"/>
      <use xlink:href="#DejaVuSans-73" x="117.859375"/>
      <use xlink:href="#DejaVuSans-69" x="169.958984"/>
      <use xlink:href="#DejaVuSans-74" x="197.742188"/>
      <use xlink:href="#DejaVuSans-69" x="236.951172"/>
      <use xlink:href="#DejaVuSans-6f" x="264.734375"/>
      <use xlink:href="#DejaVuSans-6e" x="325.916016"/>
      <use xlink:href="#DejaVuSans-20" x="389.294922"/>
      <use xlink:href="#DejaVuSans-69" x="421.082031"/>
      <use xlink:href="#DejaVuSans-6e" x="448.865234"/>
      <use xlink:href="#DejaVuSans-20" x="512.244141"/>
      <use xlink:href="#DejaVuSans-52" x="544.03125"/>
      <use xlink:href="#DejaVuSans-65" x="609.013672"/>
      <use xlink:href="#DejaVuSans-61" x="670.537109"/>
      <use xlink:href="#DejaVuSans-64" x="731.816406"/>
      <use xlink:href="#DejaVuSans-20" x="795.292969"/>
      <use xlink:href="#DejaVuSans-28" x="827.080078"/>
      <use xlink:href="#DejaVuSans-62" x="866.09375"/>
      <use xlink:href="#DejaVuSans-70" x="929.570312"/>
      <use xlink:href="#DejaVuSans-29" x="993.046875"/>
     </g>
    </g>
   </g>
   <g id="matplotlib.axis_2">
    <g id="ytick_1">
     <g id="line2d_1">
      <path d="M 32.968125 353.2239 
L 993.158125 353.2239 
" clip-path="url(#p8265102077)" style="fill: none; stroke: #dedede; stroke-linecap: square"/>
     </g>
     <g id="text_10">
      <!-- 0 -->
      <g transform="translate(20.878125 356.263275) scale(0.08 -0.08)">
       <use xlink:href="#DejaVuSans-30"/>
      </g>
     </g>
    </g>
    <g id="ytick_2">
     <g id="line2d_2">
      <path d="M 32.968125 289.6303 
L 993.158125 289.6303 
" clip-path="url(#p8265102077)" style="fill: none; stroke: #dedede; stroke-linecap: square"/>
     </g>
     <g id="text_11">
      <!-- 1 -->
      <g transform="translate(20.878125 292.669675) scale(0.08 -0.08)">
       <use xlink:href="#DejaVuSans-31"/>
      </g>
     </g>
    </g>
    <g id="ytick_3">
     <g id="line2d_3">
      <path d="M 32.968125 226.0367 
L 993.158125 226.0367 
" clip-path="url(#p8265102077)" style="fill: none; stroke: #dedede; stroke-linecap: square"/>
     </g>
     <g id="text_12">
      <!-- 2 -->
      <g transform="translate(20.878125 229.076075) scale(0.08 -0.08)">
       <use xlink:href="#DejaVuSans-32"/>
      </g>
     </g>
    </g>
    <g id="ytick_4">
     <g id="line2d_4">
      <path d="M 32.968125 162.4431 
L 993.158125 162.4431 
" clip-path="url(#p8265102077)" style="fill: none; stroke: #dedede; stroke-linecap: square"/>
     </g>
     <g id="text_13">
      <!-- 3 -->
      <g transform="translate(20.878125 165.482475) scale(0.08 -0.08)">
       <defs>
        <path id="DejaVuSans-33" d="M 2597 2516 
Q 3050 2419 3304 2112 
Q 3559 1806 3559 1356 
Q 3559 666 3084 287 
Q 2609 -91 1734 -91 
Q 1441 -91 1130 -33 
Q 819 25 488 141 
L 488 750 
Q 750 597 1062 519 
Q 1375 441 1716 441 
Q 2309 441 2620 675 
Q 2931 909 2931 1356 
Q 2931 1769 2642 2001 
Q 2353 2234 1838 2234 
L 1294 2234 
L 1294 2753 
L 1863 2753 
Q 2328 2753 2575 2939 
Q 2822 3125 2822 3475 
Q 2822 3834 2567 4026 
Q 2313 4219 1838 4219 
Q 1578 4219 1281 4162 
Q 984 4106 628 3988 
L 628 4550 
Q 988 4650 1302 4700 
Q 1616 4750 1894 4750 
Q 2613 4750 3031 4423 
Q 3450 4097 3450 3541 
Q 3450 3153 3228 2886 
Q 3006 2619 2597 2516 
z
" transform="scale(0.015625)"/>
       </defs>
       <use xlink:href="#DejaVuSans-33"/>
      </g>
     </g>
    </g>
    <g id="ytick_5">
     <g id="line2d_5">
      <path d="M 32.968125 98.8495 
L 993.158125 98.8495 
" clip-path="url(#p8265102077)" style="fill: none; stroke: #dedede; stroke-linecap: square"/>
     </g>
     <g id="text_14">
      <!-- 4 -->
      <g transform="translate(20.878125 101.888875) scale(0.08 -0.08)">
       <use xlink:href="#DejaVuSans-34"/>
      </g>
     </g>
    </g>
    <g id="ytick_6">
     <g id="line2d_6">
      <path d="M 32.968125 35.2559 
L 993.158125 35.2559 
" clip-path="url(#p8265102077)" style="fill: none; stroke: #dedede; stroke-linecap: square"/>
     </g>
     <g id="text_15">
      <!-- 5 -->
      <g transform="translate(20.878125 38.295275) scale(0.08 -0.08)">
       <defs>
        <path id="DejaVuSans-35" d="M 691 4666 
L 3169 4666 
L 3169 4134 
L 1269 4134 
L 1269 2991 
Q 1406 3038 1543 3061 
Q 1681 3084 1819 3084 
Q 2600 3084 3056 2656 
Q 3513 2228 3513 1497 
Q 3513 744 3044 326 
Q 2575 -91 1722 -91 
Q 1428 -91 1123 -41 
Q 819 9 494 109 
L 494 744 
Q 775 591 1075 516 
Q 1375 441 1709 441 
Q 2250 441 2565 725 
Q 2881 1009 2881 1497 
Q 2881 1984 2565 2268 
Q 2250 2553 1709 2553 
Q 1456 2553 1204 2497 
Q 953 2441 691 2322 
L 691 4666 
z
" transform="scale(0.015625)"/>
       </defs>
       <use xlink:href="#DejaVuSans-35"/>
      </g>
     </g>
    </g>
    <g id="text_16">
     <!-- Percentage N-Count -->
     <g transform="translate(14.798438 244.344588) rotate(-90) scale(0.1 -0.1)">
      <defs>
       <path id="DejaVuSans-72" d="M 2631 2963 
Q 2534 3019 2420 3045 
Q 2306 3072 2169 3072 
Q 1681 3072 1420 2755 
Q 1159 2438 1159 1844 
L 1159 0 
L 581 0 
L 581 3500 
L 1159 3500 
L 1159 2956 
Q 1341 3275 1631 3429 
Q 1922 3584 2338 3584 
Q 2397 3584 2469 3576 
Q 2541 3569 2628 3553 
L 2631 2963 
z
" transform="scale(0.015625)"/>
       <path id="DejaVuSans-63" d="M 3122 3366 
L 3122 2828 
Q 2878 2963 2633 3030 
Q 2388 3097 2138 3097 
Q 1578 3097 1268 2742 
Q 959 2388 959 1747 
Q 959 1106 1268 751 
Q 1578 397 2138 397 
Q 2388 397 2633 464 
Q 2878 531 3122 666 
L 3122 134 
Q 2881 22 2623 -34 
Q 2366 -91 2075 -91 
Q 1284 -91 818 406 
Q 353 903 353 1747 
Q 353 2603 823 3093 
Q 1294 3584 2113 3584 
Q 2378 3584 2631 3529 
Q 2884 3475 3122 3366 
z
" transform="scale(0.015625)"/>
       <path id="DejaVuSans-67" d="M 2906 1791 
Q 2906 2416 2648 2759 
Q 2391 3103 1925 3103 
Q 1463 3103 1205 2759 
Q 947 2416 947 1791 
Q 947 1169 1205 825 
Q 1463 481 1925 481 
Q 2391 481 2648 825 
Q 2906 1169 2906 1791 
z
M 3481 434 
Q 3481 -459 3084 -895 
Q 2688 -1331 1869 -1331 
Q 1566 -1331 1297 -1286 
Q 1028 -1241 775 -1147 
L 775 -588 
Q 1028 -725 1275 -790 
Q 1522 -856 1778 -856 
Q 2344 -856 2625 -561 
Q 2906 -266 2906 331 
L 2906 616 
Q 2728 306 2450 153 
Q 2172 0 1784 0 
Q 1141 0 747 490 
Q 353 981 353 1791 
Q 353 2603 747 3093 
Q 1141 3584 1784 3584 
Q 2172 3584 2450 3431 
Q 2728 3278 2906 2969 
L 2906 3500 
L 3481 3500 
L 3481 434 
z
" transform="scale(0.015625)"/>
       <path id="DejaVuSans-4e" d="M 628 4666 
L 1478 4666 
L 3547 763 
L 3547 4666 
L 4159 4666 
L 4159 0 
L 3309 0 
L 1241 3903 
L 1241 0 
L 628 0 
L 628 4666 
z
" transform="scale(0.015625)"/>
       <path id="DejaVuSans-2d" d="M 313 2009 
L 1997 2009 
L 1997 1497 
L 313 1497 
L 313 2009 
z
" transform="scale(0.015625)"/>
       <path id="DejaVuSans-43" d="M 4122 4306 
L 4122 3641 
Q 3803 3938 3442 4084 
Q 3081 4231 2675 4231 
Q 1875 4231 1450 3742 
Q 1025 3253 1025 2328 
Q 1025 1406 1450 917 
Q 1875 428 2675 428 
Q 3081 428 3442 575 
Q 3803 722 4122 1019 
L 4122 359 
Q 3791 134 3420 21 
Q 3050 -91 2638 -91 
Q 1578 -91 968 557 
Q 359 1206 359 2328 
Q 359 3453 968 4101 
Q 1578 4750 2638 4750 
Q 3056 4750 3426 4639 
Q 3797 4528 4122 4306 
z
" transform="scale(0.015625)"/>
       <path id="DejaVuSans-75" d="M 544 1381 
L 544 3500 
L 1119 3500 
L 1119 1403 
Q 1119 906 1312 657 
Q 1506 409 1894 409 
Q 2359 409 2629 706 
Q 2900 1003 2900 1516 
L 2900 3500 
L 3475 3500 
L 3475 0 
L 2900 0 
L 2900 538 
Q 2691 219 2414 64 
Q 2138 -91 1772 -91 
Q 1169 -91 856 284 
Q 544 659 544 1381 
z
M 1991 3584 
L 1991 3584 
z
" transform="scale(0.015625)"/>
      </defs>
      <use xlink:href="#DejaVuSans-50"/>
      <use xlink:href="#DejaVuSans-65" x="56.677734"/>
      <use xlink:href="#DejaVuSans-72" x="118.201172"/>
      <use xlink:href="#DejaVuSans-63" x="157.064453"/>
      <use xlink:href="#DejaVuSans-65" x="212.044922"/>
      <use xlink:href="#DejaVuSans-6e" x="273.568359"/>
      <use xlink:href="#DejaVuSans-74" x="336.947266"/>
      <use xlink:href="#DejaVuSans-61" x="376.15625"/>
      <use xlink:href="#DejaVuSans-67" x="437.435547"/>
      <use xlink:href="#DejaVuSans-65" x="500.912109"/>
      <use xlink:href="#DejaVuSans-20" x="562.435547"/>
      <use xlink:href="#DejaVuSans-4e" x="594.222656"/>
      <use xlink:href="#DejaVuSans-2d" x="669.027344"/>
      <use xlink:href="#DejaVuSans-43" x="705.111328"/>
      <use xlink:href="#DejaVuSans-6f" x="774.935547"/>
      <use xlink:href="#DejaVuSans-75" x="836.117188"/>
      <use xlink:href="#DejaVuSans-6e" x="899.496094"/>
      <use xlink:href="#DejaVuSans-74" x="962.875"/>
     </g>
    </g>
   </g>
   <g id="line2d_7">
    <path d="M 39.066505 352.056119 
L 45.164886 352.478913 
L 51.263266 353.197431 
L 57.361647 353.182523 
L 63.460027 353.132222 
L 69.558408 353.216294 
L 75.656788 353.217308 
L 81.755169 353.204834 
L 87.853549 353.22319 
L 106.14869 353.217105 
L 136.640592 353.223677 
L 167.132495 353.223697 
L 197.624397 353.2239 
L 228.116299 353.22388 
L 258.608201 353.2239 
L 289.100103 353.223312 
L 319.592006 353.223859 
L 350.083908 353.2239 
L 380.57581 353.2239 
L 411.067712 353.2239 
L 441.559614 353.204165 
L 472.051517 353.223494 
L 502.543419 353.217105 
L 533.035321 353.219458 
L 563.527223 353.220898 
L 594.019125 353.222967 
L 624.511028 353.223089 
L 655.00293 353.2239 
L 685.494832 353.2239 
L 715.986734 353.220695 
L 746.478636 353.223636 
L 776.970538 353.2239 
L 807.462441 353.2239 
L 837.954343 353.2239 
L 868.446245 353.221385 
L 898.938147 353.223697 
L 929.430049 353.223413 
L 947.725191 353.2239 
" clip-path="url(#p8265102077)" style="fill: none; stroke: #5cb85c; stroke-linecap: square"/>
   </g>
   <g id="line2d_8">
    <path d="M 39.066505 353.217612 
L 45.164886 353.223596 
L 51.263266 353.2239 
L 57.361647 353.22319 
L 63.460027 353.222987 
L 69.558408 353.219134 
L 75.656788 353.221973 
L 81.755169 353.2239 
L 87.853549 353.2239 
L 106.14869 353.2239 
L 136.640592 353.209296 
L 167.132495 353.222561 
L 197.624397 353.218261 
L 228.116299 353.222298 
L 258.608201 353.2239 
L 289.100103 353.219316 
L 319.592006 353.2239 
L 350.083908 353.223596 
L 380.57581 353.219904 
L 411.067712 353.2239 
L 441.559614 353.214935 
L 472.051517 353.211386 
L 502.543419 353.223515 
L 533.035321 353.219884 
L 563.527223 353.2239 
L 594.019125 353.222724 
L 624.511028 353.2239 
L 655.00293 353.223859 
L 685.494832 353.2239 
L 715.986734 353.2239 
L 746.478636 353.2239 
L 776.970538 353.203556 
L 807.462441 353.22388 
L 837.954343 353.2239 
L 868.446245 353.2239 
L 898.938147 353.223596 
L 929.430049 353.223859 
L 947.725191 353.2239 
" clip-path="url(#p8265102077)" style="fill: none; stroke: #5cb85c; stroke-linecap: square"/>
   </g>
   <g id="line2d_9">
    <path d="M 39.066505 352.002767 
L 45.164886 352.172003 
L 51.263266 353.20797 
L 57.361647 353.2239 
L 63.460027 353.061941 
L 69.558408 353.210723 
L 75.656788 353.219475 
L 81.755169 353.2239 
L 87.853549 353.2239 
L 106.14869 353.219514 
L 136.640592 353.2239 
L 167.132495 353.2239 
L 197.624397 353.2239 
L 228.116299 353.2239 
L 258.608201 353.22388 
L 289.100103 353.2239 
L 319.592006 353.2239 
L 350.083908 353.2239 
L 380.57581 353.2239 
L 411.067712 353.2239 
L 441.559614 353.214243 
L 472.051517 353.223703 
L 502.543419 353.212237 
L 533.035321 353.216151 
L 563.527223 353.218649 
L 594.019125 353.222661 
L 624.511028 353.222287 
L 655.00293 353.2239 
L 685.494832 353.2239 
L 715.986734 353.221933 
L 746.478636 353.2239 
L 776.970538 353.2239 
L 807.462441 353.22388 
L 837.954343 353.2239 
L 868.446245 353.222563 
L 898.938147 353.22388 
L 929.430049 353.2239 
L 947.725191 353.2239 
" clip-path="url(#p8265102077)" style="fill: none; stroke: #5cb85c; stroke-linecap: square"/>
   </g>
   <g id="line2d_10">
    <path d="M 39.066505 353.2239 
L 45.164886 353.2239 
L 51.263266 353.2239 
L 57.361647 353.2239 
L 63.460027 353.2239 
L 69.558408 353.2239 
L 75.656788 353.222818 
L 81.755169 353.2239 
L 87.853549 353.2239 
L 106.14869 353.2239 
L 136.640592 353.21621 
L 167.132495 353.223094 
L 197.624397 353.220734 
L 228.116299 353.223035 
L 258.608201 353.2239 
L 289.100103 353.221402 
L 319.592006 353.2239 
L 350.083908 353.2239 
L 380.57581 353.2239 
L 411.067712 353.2239 
L 441.559614 353.219101 
L 472.051517 353.217646 
L 502.543419 353.2239 
L 533.035321 353.221874 
L 563.527223 353.2239 
L 594.019125 353.223172 
L 624.511028 353.2239 
L 655.00293 353.2239 
L 685.494832 353.2239 
L 715.986734 353.2239 
L 746.478636 353.2239 
L 776.970538 353.213103 
L 807.462441 353.2239 
L 837.954343 353.2239 
L 868.446245 353.2239 
L 898.938147 353.223408 
L 929.430049 353.223841 
L 947.725191 353.2239 
" clip-path="url(#p8265102077)" style="fill: none; stroke: #5cb85c; stroke-linecap: square"/>
   </g>
   <g id="line2d_11">
    <path d="M 39.066505 352.091026 
L 45.164886 352.623441 
L 51.263266 353.184773 
L 57.361647 353.203578 
L 63.460027 353.169203 
L 69.558408 353.21844 
L 75.656788 353.215407 
L 81.755169 353.215609 
L 87.853549 353.223698 
L 106.14869 353.220584 
L 136.640592 353.223839 
L 167.132495 353.223758 
L 197.624397 353.2239 
L 228.116299 353.2239 
L 258.608201 353.22386 
L 289.100103 353.223738 
L 319.592006 353.2239 
L 350.083908 353.2239 
L 380.57581 353.2239 
L 411.067712 353.2239 
L 441.559614 353.197916 
L 472.051517 353.223576 
L 502.543419 353.220119 
L 533.035321 353.221372 
L 563.527223 353.222141 
L 594.019125 353.223415 
L 624.511028 353.223435 
L 655.00293 353.2239 
L 685.494832 353.2239 
L 715.986734 353.219472 
L 746.478636 353.223819 
L 776.970538 353.22388 
L 807.462441 353.22388 
L 837.954343 353.2239 
L 868.446245 353.22024 
L 898.938147 353.223839 
L 929.430049 353.223576 
L 947.725191 353.2239 
" clip-path="url(#p8265102077)" style="fill: none; stroke: #5cb85c; stroke-linecap: square"/>
   </g>
   <g id="line2d_12">
    <path d="M 39.066505 353.221575 
L 45.164886 353.2239 
L 51.263266 353.2239 
L 57.361647 353.223698 
L 63.460027 353.223698 
L 69.558408 353.221676 
L 75.656788 353.220766 
L 81.755169 353.2239 
L 87.853549 353.2239 
L 106.14869 353.2239 
L 136.640592 353.204266 
L 167.132495 353.221939 
L 197.624397 353.216216 
L 228.116299 353.221959 
L 258.608201 353.2239 
L 289.100103 353.217854 
L 319.592006 353.2239 
L 350.083908 353.223698 
L 380.57581 353.222343 
L 411.067712 353.2239 
L 441.559614 353.211565 
L 472.051517 353.20647 
L 502.543419 353.223758 
L 533.035321 353.218703 
L 563.527223 353.2239 
L 594.019125 353.222222 
L 624.511028 353.2239 
L 655.00293 353.22388 
L 685.494832 353.2239 
L 715.986734 353.2239 
L 746.478636 353.2239 
L 776.970538 353.195773 
L 807.462441 353.22388 
L 837.954343 353.2239 
L 868.446245 353.2239 
L 898.938147 353.223738 
L 929.430049 353.223819 
L 947.725191 353.2239 
" clip-path="url(#p8265102077)" style="fill: none; stroke: #5cb85c; stroke-linecap: square"/>
   </g>
   <g id="line2d_13">
    <path d="M 39.066505 352.21262 
L 45.164886 352.827225 
L 51.263266 353.170103 
L 57.361647 353.2239 
L 63.460027 353.2239 
L 69.558408 353.2239 
L 75.656788 353.2123 
L 81.755169 353.2239 
L 87.853549 353.2239 
L 106.14869 353.2239 
L 136.640592 353.2239 
L 167.132495 353.2239 
L 197.624397 353.2239 
L 228.116299 353.2239 
L 258.608201 353.223809 
L 289.100103 353.2239 
L 319.592006 353.2239 
L 350.083908 353.2239 
L 380.57581 353.2239 
L 411.067712 353.2239 
L 441.559614 353.182762 
L 472.051517 353.223279 
L 502.543419 353.2239 
L 533.035321 353.223809 
L 563.527223 353.223845 
L 594.019125 353.2239 
L 624.511028 353.223882 
L 655.00293 353.2239 
L 685.494832 353.2239 
L 715.986734 353.216812 
L 746.478636 353.2239 
L 776.970538 353.2239 
L 807.462441 353.223845 
L 837.954343 353.2239 
L 868.446245 353.218365 
L 898.938147 353.223863 
L 929.430049 353.223809 
L 947.725191 353.2239 
" clip-path="url(#p8265102077)" style="fill: none; stroke: #5cb85c; stroke-linecap: square"/>
   </g>
   <g id="line2d_14">
    <path d="M 39.066505 353.2239 
L 45.164886 353.2239 
L 51.263266 353.2239 
L 57.361647 353.2239 
L 63.460027 353.2239 
L 69.558408 353.2239 
L 75.656788 353.220155 
L 81.755169 353.2239 
L 87.853549 353.2239 
L 106.14869 353.2239 
L 136.640592 353.192279 
L 167.132495 353.221288 
L 197.624397 353.211789 
L 228.116299 353.221069 
L 258.608201 353.2239 
L 289.100103 353.214511 
L 319.592006 353.2239 
L 350.083908 353.2239 
L 380.57581 353.2239 
L 411.067712 353.2239 
L 441.559614 353.204098 
L 472.051517 353.195768 
L 502.543419 353.2239 
L 533.035321 353.21599 
L 563.527223 353.2239 
L 594.019125 353.221361 
L 624.511028 353.2239 
L 655.00293 353.2239 
L 685.494832 353.2239 
L 715.986734 353.2239 
L 746.478636 353.2239 
L 776.970538 353.178908 
L 807.462441 353.2239 
L 837.954343 353.2239 
L 868.446245 353.2239 
L 898.938147 353.2239 
L 929.430049 353.223827 
L 947.725191 353.2239 
" clip-path="url(#p8265102077)" style="fill: none; stroke: #5cb85c; stroke-linecap: square"/>
   </g>
   <g id="line2d_15">
    <path d="M 39.066505 352.125964 
L 45.164886 352.786765 
L 51.263266 353.189264 
L 57.361647 353.216428 
L 63.460027 353.212187 
L 69.558408 353.222991 
L 75.656788 353.212489 
L 81.755169 353.21875 
L 87.853549 353.223799 
L 106.14869 353.222729 
L 136.640592 353.22386 
L 167.132495 353.22386 
L 197.624397 353.2239 
L 228.116299 353.2239 
L 258.608201 353.2239 
L 289.100103 353.223799 
L 319.592006 353.2239 
L 350.083908 353.2239 
L 380.57581 353.2239 
L 411.067712 353.2239 
L 441.559614 353.194212 
L 472.051517 353.223456 
L 502.543419 353.223032 
L 533.035321 353.223274 
L 563.527223 353.223436 
L 594.019125 353.223759 
L 624.511028 353.223759 
L 655.00293 353.2239 
L 685.494832 353.2239 
L 715.986734 353.217781 
L 746.478636 353.22388 
L 776.970538 353.22388 
L 807.462441 353.223819 
L 837.954343 353.2239 
L 868.446245 353.218891 
L 898.938147 353.223839 
L 929.430049 353.223738 
L 947.725191 353.2239 
" clip-path="url(#p8265102077)" style="fill: none; stroke: #5cb85c; stroke-linecap: square"/>
   </g>
   <g id="line2d_16">
    <path d="M 39.066505 353.222789 
L 45.164886 353.223799 
L 51.263266 353.2239 
L 57.361647 353.223799 
L 63.460027 353.223799 
L 69.558408 353.222688 
L 75.656788 353.219861 
L 81.755169 353.2239 
L 87.853549 353.2239 
L 106.14869 353.2239 
L 136.640592 353.199867 
L 167.132495 353.221295 
L 197.624397 353.214469 
L 228.116299 353.221355 
L 258.608201 353.2239 
L 289.100103 353.216125 
L 319.592006 353.2239 
L 350.083908 353.22386 
L 380.57581 353.223254 
L 411.067712 353.2239 
L 441.559614 353.208349 
L 472.051517 353.203745 
L 502.543419 353.223819 
L 533.035321 353.217276 
L 563.527223 353.2239 
L 594.019125 353.221981 
L 624.511028 353.2239 
L 655.00293 353.2239 
L 685.494832 353.2239 
L 715.986734 353.2239 
L 746.478636 353.2239 
L 776.970538 353.192112 
L 807.462441 353.22386 
L 837.954343 353.2239 
L 868.446245 353.2239 
L 898.938147 353.223839 
L 929.430049 353.22388 
L 947.725191 353.2239 
" clip-path="url(#p8265102077)" style="fill: none; stroke: #5cb85c; stroke-linecap: square"/>
   </g>
   <g id="line2d_17">
    <path d="M 39.066505 352.176068 
L 45.164886 352.782428 
L 51.263266 353.17061 
L 57.361647 353.2239 
L 63.460027 353.213563 
L 69.558408 353.222796 
L 75.656788 353.213664 
L 81.755169 353.2239 
L 87.853549 353.2239 
L 106.14869 353.223539 
L 136.640592 353.2239 
L 167.132495 353.2239 
L 197.624397 353.2239 
L 228.116299 353.2239 
L 258.608201 353.22386 
L 289.100103 353.2239 
L 319.592006 353.2239 
L 350.083908 353.2239 
L 380.57581 353.2239 
L 411.067712 353.2239 
L 441.559614 353.185584 
L 472.051517 353.223458 
L 502.543419 353.223218 
L 533.035321 353.223238 
L 563.527223 353.223478 
L 594.019125 353.22382 
L 624.511028 353.22378 
L 655.00293 353.22388 
L 685.494832 353.2239 
L 715.986734 353.217276 
L 746.478636 353.2239 
L 776.970538 353.22388 
L 807.462441 353.22384 
L 837.954343 353.2239 
L 868.446245 353.218942 
L 898.938147 353.2239 
L 929.430049 353.22384 
L 947.725191 353.2239 
" clip-path="url(#p8265102077)" style="fill: none; stroke: #5cb85c; stroke-linecap: square"/>
   </g>
   <g id="line2d_18">
    <path d="M 39.066505 353.2239 
L 45.164886 353.2239 
L 51.263266 353.2239 
L 57.361647 353.2239 
L 63.460027 353.2239 
L 69.558408 353.2239 
L 75.656788 353.220789 
L 81.755169 353.2239 
L 87.853549 353.2239 
L 106.14869 353.2239 
L 136.640592 353.194836 
L 167.132495 353.221311 
L 197.624397 353.212379 
L 228.116299 353.221271 
L 258.608201 353.2239 
L 289.100103 353.21537 
L 319.592006 353.2239 
L 350.083908 353.2239 
L 380.57581 353.2239 
L 411.067712 353.2239 
L 441.559614 353.205896 
L 472.051517 353.197305 
L 502.543419 353.2239 
L 533.035321 353.216514 
L 563.527223 353.2239 
L 594.019125 353.221792 
L 624.511028 353.2239 
L 655.00293 353.2239 
L 685.494832 353.2239 
L 715.986734 353.2239 
L 746.478636 353.2239 
L 776.970538 353.181951 
L 807.462441 353.2239 
L 837.954343 353.2239 
L 868.446245 353.2239 
L 898.938147 353.22386 
L 929.430049 353.22388 
L 947.725191 353.2239 
" clip-path="url(#p8265102077)" style="fill: none; stroke: #5cb85c; stroke-linecap: square"/>
   </g>
   <g id="line2d_19">
    <path d="M 39.066505 351.952429 
L 45.164886 352.318146 
L 51.263266 353.211761 
L 57.361647 353.126705 
L 63.460027 353.064713 
L 69.558408 353.20998 
L 75.656788 353.22042 
L 81.755169 353.179713 
L 87.853549 353.2222 
L 106.14869 353.21121 
L 136.640592 353.223431 
L 167.132495 353.223285 
L 197.624397 353.2239 
L 228.116299 353.223835 
L 258.608201 353.223868 
L 289.100103 353.222848 
L 319.592006 353.223835 
L 350.083908 353.2239 
L 380.57581 353.2239 
L 411.067712 353.2239 
L 441.559614 353.212732 
L 472.051517 353.223091 
L 502.543419 353.213622 
L 533.035321 353.217652 
L 563.527223 353.219141 
L 594.019125 353.2222 
L 624.511028 353.222281 
L 655.00293 353.223835 
L 685.494832 353.2239 
L 715.986734 353.222524 
L 746.478636 353.223463 
L 776.970538 353.223851 
L 807.462441 353.2239 
L 837.954343 353.2239 
L 868.446245 353.222783 
L 898.938147 353.223382 
L 929.430049 353.222735 
L 947.725191 353.2239 
" clip-path="url(#p8265102077)" style="fill: none; stroke: #5cb85c; stroke-linecap: square"/>
   </g>
   <g id="line2d_20">
    <path d="M 39.066505 353.210709 
L 45.164886 353.223253 
L 51.263266 353.2239 
L 57.361647 353.221958 
L 63.460027 353.221553 
L 69.558408 353.20909 
L 75.656788 353.222929 
L 81.755169 353.223819 
L 87.853549 353.2239 
L 106.14869 353.2239 
L 136.640592 353.217507 
L 167.132495 353.223398 
L 197.624397 353.221213 
L 228.116299 353.223188 
L 258.608201 353.2239 
L 289.100103 353.222055 
L 319.592006 353.2239 
L 350.083908 353.223139 
L 380.57581 353.215726 
L 411.067712 353.2239 
L 441.559614 353.219951 
L 472.051517 353.218284 
L 502.543419 353.222913 
L 533.035321 353.222136 
L 563.527223 353.2239 
L 594.019125 353.223528 
L 624.511028 353.2239 
L 655.00293 353.223706 
L 685.494832 353.2239 
L 715.986734 353.2239 
L 746.478636 353.2239 
L 776.970538 353.215014 
L 807.462441 353.223819 
L 837.954343 353.223884 
L 868.446245 353.2239 
L 898.938147 353.223512 
L 929.430049 353.2239 
L 947.725191 353.2239 
" clip-path="url(#p8265102077)" style="fill: none; stroke: #5cb85c; stroke-linecap: square"/>
   </g>
   <g id="line2d_21">
    <path d="M 39.066505 352.006032 
L 45.164886 352.210424 
L 51.263266 353.206344 
L 57.361647 353.2239 
L 63.460027 353.066827 
L 69.558408 353.209367 
L 75.656788 353.219714 
L 81.755169 353.2239 
L 87.853549 353.2239 
L 106.14869 353.220296 
L 136.640592 353.2239 
L 167.132495 353.2239 
L 197.624397 353.2239 
L 228.116299 353.2239 
L 258.608201 353.2239 
L 289.100103 353.2239 
L 319.592006 353.2239 
L 350.083908 353.2239 
L 380.57581 353.2239 
L 411.067712 353.2239 
L 441.559614 353.210646 
L 472.051517 353.22376 
L 502.543419 353.21239 
L 533.035321 353.216575 
L 563.527223 353.218436 
L 594.019125 353.222458 
L 624.511028 353.221993 
L 655.00293 353.2239 
L 685.494832 353.2239 
L 715.986734 353.221203 
L 746.478636 353.2239 
L 776.970538 353.223877 
L 807.462441 353.2239 
L 837.954343 353.2239 
L 868.446245 353.22183 
L 898.938147 353.2239 
L 929.430049 353.2239 
L 947.725191 353.2239 
" clip-path="url(#p8265102077)" style="fill: none; stroke: #5cb85c; stroke-linecap: square"/>
   </g>
   <g id="line2d_22">
    <path d="M 39.066505 353.2239 
L 45.164886 353.2239 
L 51.263266 353.2239 
L 57.361647 353.2239 
L 63.460027 353.2239 
L 69.558408 353.2239 
L 75.656788 353.222854 
L 81.755169 353.2239 
L 87.853549 353.2239 
L 106.14869 353.2239 
L 136.640592 353.212832 
L 167.132495 353.223063 
L 197.624397 353.219366 
L 228.116299 353.222923 
L 258.608201 353.2239 
L 289.100103 353.220389 
L 319.592006 353.2239 
L 350.083908 353.2239 
L 380.57581 353.2239 
L 411.067712 353.2239 
L 441.559614 353.216831 
L 472.051517 353.214366 
L 502.543419 353.2239 
L 533.035321 353.221086 
L 563.527223 353.2239 
L 594.019125 353.223086 
L 624.511028 353.2239 
L 655.00293 353.2239 
L 685.494832 353.2239 
L 715.986734 353.2239 
L 746.478636 353.2239 
L 776.970538 353.209576 
L 807.462441 353.2239 
L 837.954343 353.2239 
L 868.446245 353.2239 
L 898.938147 353.223458 
L 929.430049 353.223853 
L 947.725191 353.2239 
" clip-path="url(#p8265102077)" style="fill: none; stroke: #5cb85c; stroke-linecap: square"/>
   </g>
   <g id="line2d_23">
    <path d="M 39.066505 352.019674 
L 45.164886 352.174151 
L 51.263266 353.205284 
L 57.361647 353.2239 
L 63.460027 353.067275 
L 69.558408 353.211996 
L 75.656788 353.220051 
L 81.755169 353.2239 
L 87.853549 353.2239 
L 106.14869 353.219944 
L 136.640592 353.2239 
L 167.132495 353.2239 
L 197.624397 353.2239 
L 228.116299 353.2239 
L 258.608201 353.2239 
L 289.100103 353.2239 
L 319.592006 353.2239 
L 350.083908 353.2239 
L 380.57581 353.2239 
L 411.067712 353.2239 
L 441.559614 353.211119 
L 472.051517 353.223685 
L 502.543419 353.21248 
L 533.035321 353.216919 
L 563.527223 353.218906 
L 594.019125 353.222736 
L 624.511028 353.222486 
L 655.00293 353.2239 
L 685.494832 353.2239 
L 715.986734 353.221752 
L 746.478636 353.2239 
L 776.970538 353.223882 
L 807.462441 353.2239 
L 837.954343 353.2239 
L 868.446245 353.222235 
L 898.938147 353.2239 
L 929.430049 353.223882 
L 947.725191 353.2239 
" clip-path="url(#p8265102077)" style="fill: none; stroke: #5cb85c; stroke-linecap: square"/>
   </g>
   <g id="line2d_24">
    <path d="M 39.066505 353.2239 
L 45.164886 353.2239 
L 51.263266 353.2239 
L 57.361647 353.2239 
L 63.460027 353.2239 
L 69.558408 353.2239 
L 75.656788 353.223363 
L 81.755169 353.2239 
L 87.853549 353.2239 
L 106.14869 353.2239 
L 136.640592 353.214252 
L 167.132495 353.223148 
L 197.624397 353.220123 
L 228.116299 353.223184 
L 258.608201 353.2239 
L 289.100103 353.220911 
L 319.592006 353.2239 
L 350.083908 353.2239 
L 380.57581 353.2239 
L 411.067712 353.2239 
L 441.559614 353.218208 
L 472.051517 353.215201 
L 502.543419 353.2239 
L 533.035321 353.221573 
L 563.527223 353.2239 
L 594.019125 353.223202 
L 624.511028 353.2239 
L 655.00293 353.2239 
L 685.494832 353.2239 
L 715.986734 353.2239 
L 746.478636 353.2239 
L 776.970538 353.209992 
L 807.462441 353.2239 
L 837.954343 353.2239 
L 868.446245 353.2239 
L 898.938147 353.223399 
L 929.430049 353.223846 
L 947.725191 353.2239 
" clip-path="url(#p8265102077)" style="fill: none; stroke: #5cb85c; stroke-linecap: square"/>
   </g>
   <g id="line2d_25">
    <path d="M 39.066505 351.95815 
L 45.164886 352.241935 
L 51.263266 353.208385 
L 57.361647 353.16184 
L 63.460027 353.082477 
L 69.558408 353.210077 
L 75.656788 353.220515 
L 81.755169 353.196067 
L 87.853549 353.222772 
L 106.14869 353.214723 
L 136.640592 353.22375 
L 167.132495 353.223561 
L 197.624397 353.2239 
L 228.116299 353.2239 
L 258.608201 353.2239 
L 289.100103 353.223599 
L 319.592006 353.223881 
L 350.083908 353.2239 
L 380.57581 353.2239 
L 411.067712 353.2239 
L 441.559614 353.213707 
L 472.051517 353.223806 
L 502.543419 353.212898 
L 533.035321 353.216866 
L 563.527223 353.218615 
L 594.019125 353.222508 
L 624.511028 353.222226 
L 655.00293 353.2239 
L 685.494832 353.2239 
L 715.986734 353.22249 
L 746.478636 353.223806 
L 776.970538 353.2239 
L 807.462441 353.223881 
L 837.954343 353.2239 
L 868.446245 353.222847 
L 898.938147 353.223806 
L 929.430049 353.223674 
L 947.725191 353.2239 
" clip-path="url(#p8265102077)" style="fill: none; stroke: #5cb85c; stroke-linecap: square"/>
   </g>
   <g id="line2d_26">
    <path d="M 39.066505 353.21713 
L 45.164886 353.2239 
L 51.263266 353.2239 
L 57.361647 353.223618 
L 63.460027 353.22249 
L 69.558408 353.214779 
L 75.656788 353.222396 
L 81.755169 353.2239 
L 87.853549 353.2239 
L 106.14869 353.2239 
L 136.640592 353.217055 
L 167.132495 353.223373 
L 197.624397 353.221549 
L 228.116299 353.223449 
L 258.608201 353.2239 
L 289.100103 353.222057 
L 319.592006 353.2239 
L 350.083908 353.223279 
L 380.57581 353.219123 
L 411.067712 353.2239 
L 441.559614 353.22012 
L 472.051517 353.217581 
L 502.543419 353.223543 
L 533.035321 353.222377 
L 563.527223 353.2239 
L 594.019125 353.223486 
L 624.511028 353.2239 
L 655.00293 353.2239 
L 685.494832 353.2239 
L 715.986734 353.2239 
L 746.478636 353.2239 
L 776.970538 353.214215 
L 807.462441 353.223862 
L 837.954343 353.2239 
L 868.446245 353.2239 
L 898.938147 353.223411 
L 929.430049 353.2239 
L 947.725191 353.2239 
" clip-path="url(#p8265102077)" style="fill: none; stroke: #5cb85c; stroke-linecap: square"/>
   </g>
   <g id="line2d_27">
    <path d="M 39.066505 351.974785 
L 45.164886 352.358403 
L 51.263266 353.208376 
L 57.361647 353.145202 
L 63.460027 353.092528 
L 69.558408 353.212145 
L 75.656788 353.219503 
L 81.755169 353.192762 
L 87.853549 353.222913 
L 106.14869 353.214065 
L 136.640592 353.223595 
L 167.132495 353.223577 
L 197.624397 353.2239 
L 228.116299 353.223882 
L 258.608201 353.223882 
L 289.100103 353.223254 
L 319.592006 353.223846 
L 350.083908 353.2239 
L 380.57581 353.2239 
L 411.067712 353.2239 
L 441.559614 353.211911 
L 472.051517 353.223397 
L 502.543419 353.215106 
L 533.035321 353.218624 
L 563.527223 353.220059 
L 594.019125 353.222662 
L 624.511028 353.22268 
L 655.00293 353.2239 
L 685.494832 353.2239 
L 715.986734 353.222087 
L 746.478636 353.223667 
L 776.970538 353.2239 
L 807.462441 353.223882 
L 837.954343 353.2239 
L 868.446245 353.2225 
L 898.938147 353.223649 
L 929.430049 353.223218 
L 947.725191 353.2239 
" clip-path="url(#p8265102077)" style="fill: none; stroke: #5cb85c; stroke-linecap: square"/>
   </g>
   <g id="line2d_28">
    <path d="M 39.066505 353.21367 
L 45.164886 353.223541 
L 51.263266 353.2239 
L 57.361647 353.222105 
L 63.460027 353.222913 
L 69.558408 353.214478 
L 75.656788 353.223092 
L 81.755169 353.2239 
L 87.853549 353.2239 
L 106.14869 353.2239 
L 136.640592 353.216129 
L 167.132495 353.22338 
L 197.624397 353.220867 
L 228.116299 353.223272 
L 258.608201 353.2239 
L 289.100103 353.221513 
L 319.592006 353.2239 
L 350.083908 353.223254 
L 380.57581 353.21769 
L 411.067712 353.2239 
L 441.559614 353.219108 
L 472.051517 353.217116 
L 502.543419 353.223344 
L 533.035321 353.2218 
L 563.527223 353.2239 
L 594.019125 353.223362 
L 624.511028 353.2239 
L 655.00293 353.223828 
L 685.494832 353.2239 
L 715.986734 353.2239 
L 746.478636 353.2239 
L 776.970538 353.21315 
L 807.462441 353.223864 
L 837.954343 353.2239 
L 868.446245 353.2239 
L 898.938147 353.223505 
L 929.430049 353.2239 
L 947.725191 353.2239 
" clip-path="url(#p8265102077)" style="fill: none; stroke: #5cb85c; stroke-linecap: square"/>
   </g>
   <g id="line2d_29">
    <path d="M 39.066505 352.006384 
L 45.164886 352.232983 
L 51.263266 353.208608 
L 57.361647 353.2239 
L 63.460027 353.055967 
L 69.558408 353.210554 
L 75.656788 353.220703 
L 81.755169 353.223761 
L 87.853549 353.2239 
L 106.14869 353.219368 
L 136.640592 353.2239 
L 167.132495 353.2239 
L 197.624397 353.2239 
L 228.116299 353.2239 
L 258.608201 353.223872 
L 289.100103 353.2239 
L 319.592006 353.2239 
L 350.083908 353.2239 
L 380.57581 353.2239 
L 411.067712 353.2239 
L 441.559614 353.211527 
L 472.051517 353.223622 
L 502.543419 353.212584 
L 533.035321 353.216949 
L 563.527223 353.219146 
L 594.019125 353.222649 
L 624.511028 353.222426 
L 655.00293 353.2239 
L 685.494832 353.2239 
L 715.986734 353.221509 
L 746.478636 353.2239 
L 776.970538 353.2239 
L 807.462441 353.223817 
L 837.954343 353.2239 
L 868.446245 353.222315 
L 898.938147 353.2239 
L 929.430049 353.2239 
L 947.725191 353.2239 
" clip-path="url(#p8265102077)" style="fill: none; stroke: #5cb85c; stroke-linecap: square"/>
   </g>
   <g id="line2d_30">
    <path d="M 39.066505 353.2239 
L 45.164886 353.2239 
L 51.263266 353.2239 
L 57.361647 353.2239 
L 63.460027 353.2239 
L 69.558408 353.2239 
L 75.656788 353.222927 
L 81.755169 353.2239 
L 87.853549 353.2239 
L 106.14869 353.2239 
L 136.640592 353.213696 
L 167.132495 353.223177 
L 197.624397 353.219896 
L 228.116299 353.222955 
L 258.608201 353.2239 
L 289.100103 353.220675 
L 319.592006 353.2239 
L 350.083908 353.2239 
L 380.57581 353.223872 
L 411.067712 353.2239 
L 441.559614 353.217672 
L 472.051517 353.215253 
L 502.543419 353.2239 
L 533.035321 353.221398 
L 563.527223 353.2239 
L 594.019125 353.223233 
L 624.511028 353.2239 
L 655.00293 353.2239 
L 685.494832 353.2239 
L 715.986734 353.2239 
L 746.478636 353.2239 
L 776.970538 353.210832 
L 807.462441 353.2239 
L 837.954343 353.2239 
L 868.446245 353.2239 
L 898.938147 353.223539 
L 929.430049 353.223872 
L 947.725191 353.2239 
" clip-path="url(#p8265102077)" style="fill: none; stroke: #5cb85c; stroke-linecap: square"/>
   </g>
   <g id="line2d_31">
    <path d="M 39.066505 351.900776 
L 45.164886 352.251083 
L 51.263266 353.216977 
L 57.361647 353.112871 
L 63.460027 353.065477 
L 69.558408 353.207215 
L 75.656788 353.22248 
L 81.755169 353.17127 
L 87.853549 353.222214 
L 106.14869 353.209504 
L 136.640592 353.223403 
L 167.132495 353.223314 
L 197.624397 353.2239 
L 228.116299 353.223882 
L 258.608201 353.223882 
L 289.100103 353.222835 
L 319.592006 353.223811 
L 350.083908 353.2239 
L 380.57581 353.2239 
L 411.067712 353.2239 
L 441.559614 353.217421 
L 472.051517 353.223225 
L 502.543419 353.212788 
L 533.035321 353.216729 
L 563.527223 353.218717 
L 594.019125 353.222569 
L 624.511028 353.222675 
L 655.00293 353.223847 
L 685.494832 353.2239 
L 715.986734 353.223332 
L 746.478636 353.223403 
L 776.970538 353.223882 
L 807.462441 353.2239 
L 837.954343 353.2239 
L 868.446245 353.223438 
L 898.938147 353.223474 
L 929.430049 353.222728 
L 947.725191 353.2239 
" clip-path="url(#p8265102077)" style="fill: none; stroke: #5cb85c; stroke-linecap: square"/>
   </g>
   <g id="line2d_32">
    <path d="M 39.066505 353.21112 
L 45.164886 353.223456 
L 51.263266 353.2239 
L 57.361647 353.221592 
L 63.460027 353.221947 
L 69.558408 353.207925 
L 75.656788 353.223456 
L 81.755169 353.2239 
L 87.853549 353.2239 
L 106.14869 353.2239 
L 136.640592 353.221433 
L 167.132495 353.223669 
L 197.624397 353.222817 
L 228.116299 353.223598 
L 258.608201 353.2239 
L 289.100103 353.223083 
L 319.592006 353.2239 
L 350.083908 353.222693 
L 380.57581 353.214173 
L 411.067712 353.2239 
L 441.559614 353.222391 
L 472.051517 353.221504 
L 502.543419 353.222906 
L 533.035321 353.223154 
L 563.527223 353.2239 
L 594.019125 353.223722 
L 624.511028 353.2239 
L 655.00293 353.223722 
L 685.494832 353.2239 
L 715.986734 353.2239 
L 746.478636 353.2239 
L 776.970538 353.219711 
L 807.462441 353.223864 
L 837.954343 353.2239 
L 868.446245 353.2239 
L 898.938147 353.223545 
L 929.430049 353.2239 
L 947.725191 353.2239 
" clip-path="url(#p8265102077)" style="fill: none; stroke: #5cb85c; stroke-linecap: square"/>
   </g>
   <g id="line2d_33">
    <path d="M 39.066505 352.005687 
L 45.164886 352.299166 
L 51.263266 353.204098 
L 57.361647 353.2239 
L 63.460027 353.082426 
L 69.558408 353.211882 
L 75.656788 353.219436 
L 81.755169 353.2239 
L 87.853549 353.2239 
L 106.14869 353.220581 
L 136.640592 353.2239 
L 167.132495 353.2239 
L 197.624397 353.2239 
L 228.116299 353.2239 
L 258.608201 353.2239 
L 289.100103 353.2239 
L 319.592006 353.2239 
L 350.083908 353.2239 
L 380.57581 353.2239 
L 411.067712 353.2239 
L 441.559614 353.211012 
L 472.051517 353.22374 
L 502.543419 353.213644 
L 533.035321 353.217834 
L 563.527223 353.219688 
L 594.019125 353.222824 
L 624.511028 353.222618 
L 655.00293 353.2239 
L 685.494832 353.2239 
L 715.986734 353.221359 
L 746.478636 353.2239 
L 776.970538 353.2239 
L 807.462441 353.2239 
L 837.954343 353.2239 
L 868.446245 353.222229 
L 898.938147 353.223877 
L 929.430049 353.223854 
L 947.725191 353.2239 
" clip-path="url(#p8265102077)" style="fill: none; stroke: #5cb85c; stroke-linecap: square"/>
   </g>
   <g id="line2d_34">
    <path d="M 39.066505 353.2239 
L 45.164886 353.2239 
L 51.263266 353.2239 
L 57.361647 353.2239 
L 63.460027 353.2239 
L 69.558408 353.2239 
L 75.656788 353.221954 
L 81.755169 353.2239 
L 87.853549 353.2239 
L 106.14869 353.2239 
L 136.640592 353.213507 
L 167.132495 353.222961 
L 197.624397 353.219756 
L 228.116299 353.223007 
L 258.608201 353.2239 
L 289.100103 353.220489 
L 319.592006 353.2239 
L 350.083908 353.2239 
L 380.57581 353.2239 
L 411.067712 353.2239 
L 441.559614 353.21717 
L 472.051517 353.214652 
L 502.543419 353.2239 
L 533.035321 353.221038 
L 563.527223 353.2239 
L 594.019125 353.223213 
L 624.511028 353.2239 
L 655.00293 353.2239 
L 685.494832 353.2239 
L 715.986734 353.2239 
L 746.478636 353.2239 
L 776.970538 353.209798 
L 807.462441 353.2239 
L 837.954343 353.2239 
L 868.446245 353.2239 
L 898.938147 353.223442 
L 929.430049 353.223854 
L 947.725191 353.2239 
" clip-path="url(#p8265102077)" style="fill: none; stroke: #5cb85c; stroke-linecap: square"/>
   </g>
   <g id="line2d_35">
    <path d="M 39.066505 352.000273 
L 45.164886 352.236155 
L 51.263266 353.207145 
L 57.361647 353.2239 
L 63.460027 353.065966 
L 69.558408 353.21035 
L 75.656788 353.22033 
L 81.755169 353.2239 
L 87.853549 353.2239 
L 106.14869 353.219762 
L 136.640592 353.2239 
L 167.132495 353.2239 
L 197.624397 353.2239 
L 228.116299 353.2239 
L 258.608201 353.223885 
L 289.100103 353.2239 
L 319.592006 353.2239 
L 350.083908 353.2239 
L 380.57581 353.2239 
L 411.067712 353.2239 
L 441.559614 353.213089 
L 472.051517 353.223798 
L 502.543419 353.213235 
L 533.035321 353.217242 
L 563.527223 353.219267 
L 594.019125 353.222822 
L 624.511028 353.222458 
L 655.00293 353.2239 
L 685.494832 353.2239 
L 715.986734 353.221991 
L 746.478636 353.2239 
L 776.970538 353.223885 
L 807.462441 353.223885 
L 837.954343 353.2239 
L 868.446245 353.222443 
L 898.938147 353.223885 
L 929.430049 353.2239 
L 947.725191 353.223864 
" clip-path="url(#p8265102077)" style="fill: none; stroke: #5cb85c; stroke-linecap: square"/>
   </g>
   <g id="line2d_36">
    <path d="M 39.066505 353.2239 
L 45.164886 353.2239 
L 51.263266 353.2239 
L 57.361647 353.2239 
L 63.460027 353.2239 
L 69.558408 353.2239 
L 75.656788 353.22288 
L 81.755169 353.2239 
L 87.853549 353.2239 
L 106.14869 353.2239 
L 136.640592 353.215537 
L 167.132495 353.223099 
L 197.624397 353.220636 
L 228.116299 353.223099 
L 258.608201 353.2239 
L 289.100103 353.221292 
L 319.592006 353.2239 
L 350.083908 353.2239 
L 380.57581 353.2239 
L 411.067712 353.2239 
L 441.559614 353.218815 
L 472.051517 353.216513 
L 502.543419 353.2239 
L 533.035321 353.221671 
L 563.527223 353.2239 
L 594.019125 353.223288 
L 624.511028 353.2239 
L 655.00293 353.2239 
L 685.494832 353.2239 
L 715.986734 353.2239 
L 746.478636 353.2239 
L 776.970538 353.212026 
L 807.462441 353.2239 
L 837.954343 353.2239 
L 868.446245 353.2239 
L 898.938147 353.22339 
L 929.430049 353.223885 
L 947.725191 353.2239 
" clip-path="url(#p8265102077)" style="fill: none; stroke: #5cb85c; stroke-linecap: square"/>
   </g>
   <g id="line2d_37">
    <path d="M 39.066505 351.894706 
L 45.164886 352.652176 
L 51.263266 353.210689 
L 57.361647 352.979611 
L 63.460027 353.139117 
L 69.558408 353.211476 
L 75.656788 353.221052 
L 81.755169 353.1153 
L 87.853549 353.220021 
L 106.14869 353.199101 
L 136.640592 353.222688 
L 167.132495 353.22247 
L 197.624397 353.2239 
L 228.116299 353.223742 
L 258.608201 353.223852 
L 289.100103 353.221246 
L 319.592006 353.223609 
L 350.083908 353.2239 
L 380.57581 353.2239 
L 411.067712 353.2239 
L 441.559614 353.207756 
L 472.051517 353.222397 
L 502.543419 353.21784 
L 533.035321 353.220094 
L 563.527223 353.220567 
L 594.019125 353.221961 
L 624.511028 353.222906 
L 655.00293 353.223742 
L 685.494832 353.2239 
L 715.986734 353.222409 
L 746.478636 353.222736 
L 776.970538 353.223827 
L 807.462441 353.2239 
L 837.954343 353.2239 
L 868.446245 353.222749 
L 898.938147 353.222821 
L 929.430049 353.220918 
L 947.725191 353.2239 
" clip-path="url(#p8265102077)" style="fill: none; stroke: #5cb85c; stroke-linecap: square"/>
   </g>
   <g id="line2d_38">
    <path d="M 39.066505 353.191781 
L 45.164886 353.222506 
L 51.263266 353.2239 
L 57.361647 353.219173 
L 63.460027 353.218991 
L 69.558408 353.187478 
L 75.656788 353.222506 
L 81.755169 353.223779 
L 87.853549 353.2239 
L 106.14869 353.2239 
L 136.640592 353.217428 
L 167.132495 353.223367 
L 197.624397 353.22093 
L 228.116299 353.222894 
L 258.608201 353.2239 
L 289.100103 353.221997 
L 319.592006 353.2239 
L 350.083908 353.221743 
L 380.57581 353.203368 
L 411.067712 353.2239 
L 441.559614 353.219864 
L 472.051517 353.217864 
L 502.543419 353.221258 
L 533.035321 353.221973 
L 563.527223 353.2239 
L 594.019125 353.223512 
L 624.511028 353.2239 
L 655.00293 353.223476 
L 685.494832 353.2239 
L 715.986734 353.2239 
L 746.478636 353.2239 
L 776.970538 353.214107 
L 807.462441 353.223597 
L 837.954343 353.2239 
L 868.446245 353.2239 
L 898.938147 353.223597 
L 929.430049 353.223888 
L 947.725191 353.2239 
" clip-path="url(#p8265102077)" style="fill: none; stroke: #5cb85c; stroke-linecap: square"/>
   </g>
   <g id="line2d_39">
    <path d="M 32.968125 353.2239 
L 993.158125 353.2239 
" clip-path="url(#p8265102077)" style="fill: none; stroke: #dedede; stroke-width: 2; stroke-linecap: square"/>
   </g>
   <g id="text_17">
    <!-- FastQC: Per Base N Content -->
    <g transform="translate(402.209375 19.3575) scale(0.16 -0.16)">
     <defs>
      <path id="DejaVuSans-46" d="M 628 4666 
L 3309 4666 
L 3309 4134 
L 1259 4134 
L 1259 2759 
L 3109 2759 
L 3109 2228 
L 1259 2228 
L 1259 0 
L 628 0 
L 628 4666 
z
" transform="scale(0.015625)"/>
      <path id="DejaVuSans-51" d="M 2522 4238 
Q 1834 4238 1429 3725 
Q 1025 3213 1025 2328 
Q 1025 1447 1429 934 
Q 1834 422 2522 422 
Q 3209 422 3611 934 
Q 4013 1447 4013 2328 
Q 4013 3213 3611 3725 
Q 3209 4238 2522 4238 
z
M 3406 84 
L 4238 -825 
L 3475 -825 
L 2784 -78 
Q 2681 -84 2626 -87 
Q 2572 -91 2522 -91 
Q 1538 -91 948 567 
Q 359 1225 359 2328 
Q 359 3434 948 4092 
Q 1538 4750 2522 4750 
Q 3503 4750 4090 4092 
Q 4678 3434 4678 2328 
Q 4678 1516 4351 937 
Q 4025 359 3406 84 
z
" transform="scale(0.015625)"/>
      <path id="DejaVuSans-3a" d="M 750 794 
L 1409 794 
L 1409 0 
L 750 0 
L 750 794 
z
M 750 3309 
L 1409 3309 
L 1409 2516 
L 750 2516 
L 750 3309 
z
" transform="scale(0.015625)"/>
      <path id="DejaVuSans-42" d="M 1259 2228 
L 1259 519 
L 2272 519 
Q 2781 519 3026 730 
Q 3272 941 3272 1375 
Q 3272 1813 3026 2020 
Q 2781 2228 2272 2228 
L 1259 2228 
z
M 1259 4147 
L 1259 2741 
L 2194 2741 
Q 2656 2741 2882 2914 
Q 3109 3088 3109 3444 
Q 3109 3797 2882 3972 
Q 2656 4147 2194 4147 
L 1259 4147 
z
M 628 4666 
L 2241 4666 
Q 2963 4666 3353 4366 
Q 3744 4066 3744 3513 
Q 3744 3084 3544 2831 
Q 3344 2578 2956 2516 
Q 3422 2416 3680 2098 
Q 3938 1781 3938 1306 
Q 3938 681 3513 340 
Q 3088 0 2303 0 
L 628 0 
L 628 4666 
z
" transform="scale(0.015625)"/>
     </defs>
     <use xlink:href="#DejaVuSans-46"/>
     <use xlink:href="#DejaVuSans-61" x="48.394531"/>
     <use xlink:href="#DejaVuSans-73" x="109.673828"/>
     <use xlink:href="#DejaVuSans-74" x="161.773438"/>
     <use xlink:href="#DejaVuSans-51" x="200.982422"/>
     <use xlink:href="#DejaVuSans-43" x="279.693359"/>
     <use xlink:href="#DejaVuSans-3a" x="349.517578"/>
     <use xlink:href="#DejaVuSans-20" x="383.208984"/>
     <use xlink:href="#DejaVuSans-50" x="414.996094"/>
     <use xlink:href="#DejaVuSans-65" x="471.673828"/>
     <use xlink:href="#DejaVuSans-72" x="533.197266"/>
     <use xlink:href="#DejaVuSans-20" x="574.310547"/>
     <use xlink:href="#DejaVuSans-42" x="606.097656"/>
     <use xlink:href="#DejaVuSans-61" x="674.701172"/>
     <use xlink:href="#DejaVuSans-73" x="735.980469"/>
     <use xlink:href="#DejaVuSans-65" x="788.080078"/>
     <use xlink:href="#DejaVuSans-20" x="849.603516"/>
     <use xlink:href="#DejaVuSans-4e" x="881.390625"/>
     <use xlink:href="#DejaVuSans-20" x="956.195312"/>
     <use xlink:href="#DejaVuSans-43" x="987.982422"/>
     <use xlink:href="#DejaVuSans-6f" x="1057.806641"/>
     <use xlink:href="#DejaVuSans-6e" x="1118.988281"/>
     <use xlink:href="#DejaVuSans-74" x="1182.367188"/>
     <use xlink:href="#DejaVuSans-65" x="1221.576172"/>
     <use xlink:href="#DejaVuSans-6e" x="1283.099609"/>
     <use xlink:href="#DejaVuSans-74" x="1346.478516"/>
    </g>
   </g>
  </g>
 </g>
 <defs>
  <clipPath id="p8265102077">
   <rect x="32.968125" y="35.2559" width="960.19" height="317.968"/>
  </clipPath>
 </defs>
</svg>
