<?xml version="1.0" encoding="utf-8" standalone="no"?>
<!DOCTYPE svg PUBLIC "-//W3C//DTD SVG 1.1//EN"
  "http://www.w3.org/Graphics/SVG/1.1/DTD/svg11.dtd">
<svg xmlns:xlink="http://www.w3.org/1999/xlink" width="1000.358125pt" height="388.844525pt" viewBox="0 0 1000.358125 388.844525" xmlns="http://www.w3.org/2000/svg" version="1.1">
 <metadata>
  <rdf:RDF xmlns:dc="http://purl.org/dc/elements/1.1/" xmlns:cc="http://creativecommons.org/ns#" xmlns:rdf="http://www.w3.org/1999/02/22-rdf-syntax-ns#">
   <cc:Work>
    <dc:type rdf:resource="http://purl.org/dc/dcmitype/StillImage"/>
    <dc:date>2024-09-01T20:21:31.940913</dc:date>
    <dc:format>image/svg+xml</dc:format>
    <dc:creator>
     <cc:Agent>
      <dc:title>Matplotlib v3.8.2, https://matplotlib.org/</dc:title>
     </cc:Agent>
    </dc:creator>
   </cc:Work>
  </rdf:RDF>
 </metadata>
 <defs>
  <style type="text/css">*{stroke-linejoin: round; stroke-linecap: butt}</style>
 </defs>
 <g id="figure_1">
  <g id="axes_1">
   <g id="patch_1">
    <path d="M 32.968125 353.2239 
L 993.158125 353.2239 
L 993.158125 35.2559 
L 32.968125 35.2559 
z
" style="fill: #ffffff"/>
   </g>
   <g id="patch_2">
    <path d="M 734.934705 353.2239 
L 2539.991624 353.2239 
L 2539.991624 35.2559 
L 734.934705 35.2559 
z
" clip-path="url(#p92b88ab070)" style="fill: #c3e6c3"/>
   </g>
   <g id="patch_3">
    <path d="M 534.372825 353.2239 
L 734.934705 353.2239 
L 734.934705 35.2559 
L 534.372825 35.2559 
z
" clip-path="url(#p92b88ab070)" style="fill: #e6dcc3"/>
   </g>
   <g id="patch_4">
    <path d="M 32.968125 353.2239 
L 534.372825 353.2239 
L 534.372825 35.2559 
L 32.968125 35.2559 
z
" clip-path="url(#p92b88ab070)" style="fill: #e6c3c3"/>
   </g>
   <g id="matplotlib.axis_1">
    <g id="xtick_1">
     <g id="text_1">
      <!-- 0 -->
      <g transform="translate(30.423125 366.30265) scale(0.08 -0.08)">
       <defs>
        <path id="DejaVuSans-30" d="M 2034 4250 
Q 1547 4250 1301 3770 
Q 1056 3291 1056 2328 
Q 1056 1369 1301 889 
Q 1547 409 2034 409 
Q 2525 409 2770 889 
Q 3016 1369 3016 2328 
Q 3016 3291 2770 3770 
Q 2525 4250 2034 4250 
z
M 2034 4750 
Q 2819 4750 3233 4129 
Q 3647 3509 3647 2328 
Q 3647 1150 3233 529 
Q 2819 -91 2034 -91 
Q 1250 -91 836 529 
Q 422 1150 422 2328 
Q 422 3509 836 4129 
Q 1250 4750 2034 4750 
z
" transform="scale(0.015625)"/>
       </defs>
       <use xlink:href="#DejaVuSans-30"/>
      </g>
     </g>
    </g>
    <g id="xtick_2">
     <g id="text_2">
      <!-- 5 -->
      <g transform="translate(155.7743 366.30265) scale(0.08 -0.08)">
       <defs>
        <path id="DejaVuSans-35" d="M 691 4666 
L 3169 4666 
L 3169 4134 
L 1269 4134 
L 1269 2991 
Q 1406 3038 1543 3061 
Q 1681 3084 1819 3084 
Q 2600 3084 3056 2656 
Q 3513 2228 3513 1497 
Q 3513 744 3044 326 
Q 2575 -91 1722 -91 
Q 1428 -91 1123 -41 
Q 819 9 494 109 
L 494 744 
Q 775 591 1075 516 
Q 1375 441 1709 441 
Q 2250 441 2565 725 
Q 2881 1009 2881 1497 
Q 2881 1984 2565 2268 
Q 2250 2553 1709 2553 
Q 1456 2553 1204 2497 
Q 953 2441 691 2322 
L 691 4666 
z
" transform="scale(0.015625)"/>
       </defs>
       <use xlink:href="#DejaVuSans-35"/>
      </g>
     </g>
    </g>
    <g id="xtick_3">
     <g id="text_3">
      <!-- 10 -->
      <g transform="translate(278.580475 366.30265) scale(0.08 -0.08)">
       <defs>
        <path id="DejaVuSans-31" d="M 794 531 
L 1825 531 
L 1825 4091 
L 703 3866 
L 703 4441 
L 1819 4666 
L 2450 4666 
L 2450 531 
L 3481 531 
L 3481 0 
L 794 0 
L 794 531 
z
" transform="scale(0.015625)"/>
       </defs>
       <use xlink:href="#DejaVuSans-31"/>
       <use xlink:href="#DejaVuSans-30" x="63.623047"/>
      </g>
     </g>
    </g>
    <g id="xtick_4">
     <g id="text_4">
      <!-- 15 -->
      <g transform="translate(403.93165 366.30265) scale(0.08 -0.08)">
       <use xlink:href="#DejaVuSans-31"/>
       <use xlink:href="#DejaVuSans-35" x="63.623047"/>
      </g>
     </g>
    </g>
    <g id="xtick_5">
     <g id="text_5">
      <!-- 20 -->
      <g transform="translate(529.282825 366.30265) scale(0.08 -0.08)">
       <defs>
        <path id="DejaVuSans-32" d="M 1228 531 
L 3431 531 
L 3431 0 
L 469 0 
L 469 531 
Q 828 903 1448 1529 
Q 2069 2156 2228 2338 
Q 2531 2678 2651 2914 
Q 2772 3150 2772 3378 
Q 2772 3750 2511 3984 
Q 2250 4219 1831 4219 
Q 1534 4219 1204 4116 
Q 875 4013 500 3803 
L 500 4441 
Q 881 4594 1212 4672 
Q 1544 4750 1819 4750 
Q 2544 4750 2975 4387 
Q 3406 4025 3406 3419 
Q 3406 3131 3298 2873 
Q 3191 2616 2906 2266 
Q 2828 2175 2409 1742 
Q 1991 1309 1228 531 
z
" transform="scale(0.015625)"/>
       </defs>
       <use xlink:href="#DejaVuSans-32"/>
       <use xlink:href="#DejaVuSans-30" x="63.623047"/>
      </g>
     </g>
    </g>
    <g id="xtick_6">
     <g id="text_6">
      <!-- 25 -->
      <g transform="translate(654.634 366.30265) scale(0.08 -0.08)">
       <use xlink:href="#DejaVuSans-32"/>
       <use xlink:href="#DejaVuSans-35" x="63.623047"/>
      </g>
     </g>
    </g>
    <g id="xtick_7">
     <g id="text_7">
      <!-- 30 -->
      <g transform="translate(779.985175 366.30265) scale(0.08 -0.08)">
       <defs>
        <path id="DejaVuSans-33" d="M 2597 2516 
Q 3050 2419 3304 2112 
Q 3559 1806 3559 1356 
Q 3559 666 3084 287 
Q 2609 -91 1734 -91 
Q 1441 -91 1130 -33 
Q 819 25 488 141 
L 488 750 
Q 750 597 1062 519 
Q 1375 441 1716 441 
Q 2309 441 2620 675 
Q 2931 909 2931 1356 
Q 2931 1769 2642 2001 
Q 2353 2234 1838 2234 
L 1294 2234 
L 1294 2753 
L 1863 2753 
Q 2328 2753 2575 2939 
Q 2822 3125 2822 3475 
Q 2822 3834 2567 4026 
Q 2313 4219 1838 4219 
Q 1578 4219 1281 4162 
Q 984 4106 628 3988 
L 628 4550 
Q 988 4650 1302 4700 
Q 1616 4750 1894 4750 
Q 2613 4750 3031 4423 
Q 3450 4097 3450 3541 
Q 3450 3153 3228 2886 
Q 3006 2619 2597 2516 
z
" transform="scale(0.015625)"/>
       </defs>
       <use xlink:href="#DejaVuSans-33"/>
       <use xlink:href="#DejaVuSans-30" x="63.623047"/>
      </g>
     </g>
    </g>
    <g id="xtick_8">
     <g id="text_8">
      <!-- 35 -->
      <g transform="translate(905.33635 366.30265) scale(0.08 -0.08)">
       <use xlink:href="#DejaVuSans-33"/>
       <use xlink:href="#DejaVuSans-35" x="63.623047"/>
      </g>
     </g>
    </g>
    <g id="text_9">
     <!-- Mean Sequence Quality (Phred Score) -->
     <g transform="translate(418.270938 379.564837) scale(0.1 -0.1)">
      <defs>
       <path id="DejaVuSans-4d" d="M 628 4666 
L 1569 4666 
L 2759 1491 
L 3956 4666 
L 4897 4666 
L 4897 0 
L 4281 0 
L 4281 4097 
L 3078 897 
L 2444 897 
L 1241 4097 
L 1241 0 
L 628 0 
L 628 4666 
z
" transform="scale(0.015625)"/>
       <path id="DejaVuSans-65" d="M 3597 1894 
L 3597 1613 
L 953 1613 
Q 991 1019 1311 708 
Q 1631 397 2203 397 
Q 2534 397 2845 478 
Q 3156 559 3463 722 
L 3463 178 
Q 3153 47 2828 -22 
Q 2503 -91 2169 -91 
Q 1331 -91 842 396 
Q 353 884 353 1716 
Q 353 2575 817 3079 
Q 1281 3584 2069 3584 
Q 2775 3584 3186 3129 
Q 3597 2675 3597 1894 
z
M 3022 2063 
Q 3016 2534 2758 2815 
Q 2500 3097 2075 3097 
Q 1594 3097 1305 2825 
Q 1016 2553 972 2059 
L 3022 2063 
z
" transform="scale(0.015625)"/>
       <path id="DejaVuSans-61" d="M 2194 1759 
Q 1497 1759 1228 1600 
Q 959 1441 959 1056 
Q 959 750 1161 570 
Q 1363 391 1709 391 
Q 2188 391 2477 730 
Q 2766 1069 2766 1631 
L 2766 1759 
L 2194 1759 
z
M 3341 1997 
L 3341 0 
L 2766 0 
L 2766 531 
Q 2569 213 2275 61 
Q 1981 -91 1556 -91 
Q 1019 -91 701 211 
Q 384 513 384 1019 
Q 384 1609 779 1909 
Q 1175 2209 1959 2209 
L 2766 2209 
L 2766 2266 
Q 2766 2663 2505 2880 
Q 2244 3097 1772 3097 
Q 1472 3097 1187 3025 
Q 903 2953 641 2809 
L 641 3341 
Q 956 3463 1253 3523 
Q 1550 3584 1831 3584 
Q 2591 3584 2966 3190 
Q 3341 2797 3341 1997 
z
" transform="scale(0.015625)"/>
       <path id="DejaVuSans-6e" d="M 3513 2113 
L 3513 0 
L 2938 0 
L 2938 2094 
Q 2938 2591 2744 2837 
Q 2550 3084 2163 3084 
Q 1697 3084 1428 2787 
Q 1159 2491 1159 1978 
L 1159 0 
L 581 0 
L 581 3500 
L 1159 3500 
L 1159 2956 
Q 1366 3272 1645 3428 
Q 1925 3584 2291 3584 
Q 2894 3584 3203 3211 
Q 3513 2838 3513 2113 
z
" transform="scale(0.015625)"/>
       <path id="DejaVuSans-20" transform="scale(0.015625)"/>
       <path id="DejaVuSans-53" d="M 3425 4513 
L 3425 3897 
Q 3066 4069 2747 4153 
Q 2428 4238 2131 4238 
Q 1616 4238 1336 4038 
Q 1056 3838 1056 3469 
Q 1056 3159 1242 3001 
Q 1428 2844 1947 2747 
L 2328 2669 
Q 3034 2534 3370 2195 
Q 3706 1856 3706 1288 
Q 3706 609 3251 259 
Q 2797 -91 1919 -91 
Q 1588 -91 1214 -16 
Q 841 59 441 206 
L 441 856 
Q 825 641 1194 531 
Q 1563 422 1919 422 
Q 2459 422 2753 634 
Q 3047 847 3047 1241 
Q 3047 1584 2836 1778 
Q 2625 1972 2144 2069 
L 1759 2144 
Q 1053 2284 737 2584 
Q 422 2884 422 3419 
Q 422 4038 858 4394 
Q 1294 4750 2059 4750 
Q 2388 4750 2728 4690 
Q 3069 4631 3425 4513 
z
" transform="scale(0.015625)"/>
       <path id="DejaVuSans-71" d="M 947 1747 
Q 947 1113 1208 752 
Q 1469 391 1925 391 
Q 2381 391 2643 752 
Q 2906 1113 2906 1747 
Q 2906 2381 2643 2742 
Q 2381 3103 1925 3103 
Q 1469 3103 1208 2742 
Q 947 2381 947 1747 
z
M 2906 525 
Q 2725 213 2448 61 
Q 2172 -91 1784 -91 
Q 1150 -91 751 415 
Q 353 922 353 1747 
Q 353 2572 751 3078 
Q 1150 3584 1784 3584 
Q 2172 3584 2448 3432 
Q 2725 3281 2906 2969 
L 2906 3500 
L 3481 3500 
L 3481 -1331 
L 2906 -1331 
L 2906 525 
z
" transform="scale(0.015625)"/>
       <path id="DejaVuSans-75" d="M 544 1381 
L 544 3500 
L 1119 3500 
L 1119 1403 
Q 1119 906 1312 657 
Q 1506 409 1894 409 
Q 2359 409 2629 706 
Q 2900 1003 2900 1516 
L 2900 3500 
L 3475 3500 
L 3475 0 
L 2900 0 
L 2900 538 
Q 2691 219 2414 64 
Q 2138 -91 1772 -91 
Q 1169 -91 856 284 
Q 544 659 544 1381 
z
M 1991 3584 
L 1991 3584 
z
" transform="scale(0.015625)"/>
       <path id="DejaVuSans-63" d="M 3122 3366 
L 3122 2828 
Q 2878 2963 2633 3030 
Q 2388 3097 2138 3097 
Q 1578 3097 1268 2742 
Q 959 2388 959 1747 
Q 959 1106 1268 751 
Q 1578 397 2138 397 
Q 2388 397 2633 464 
Q 2878 531 3122 666 
L 3122 134 
Q 2881 22 2623 -34 
Q 2366 -91 2075 -91 
Q 1284 -91 818 406 
Q 353 903 353 1747 
Q 353 2603 823 3093 
Q 1294 3584 2113 3584 
Q 2378 3584 2631 3529 
Q 2884 3475 3122 3366 
z
" transform="scale(0.015625)"/>
       <path id="DejaVuSans-51" d="M 2522 4238 
Q 1834 4238 1429 3725 
Q 1025 3213 1025 2328 
Q 1025 1447 1429 934 
Q 1834 422 2522 422 
Q 3209 422 3611 934 
Q 4013 1447 4013 2328 
Q 4013 3213 3611 3725 
Q 3209 4238 2522 4238 
z
M 3406 84 
L 4238 -825 
L 3475 -825 
L 2784 -78 
Q 2681 -84 2626 -87 
Q 2572 -91 2522 -91 
Q 1538 -91 948 567 
Q 359 1225 359 2328 
Q 359 3434 948 4092 
Q 1538 4750 2522 4750 
Q 3503 4750 4090 4092 
Q 4678 3434 4678 2328 
Q 4678 1516 4351 937 
Q 4025 359 3406 84 
z
" transform="scale(0.015625)"/>
       <path id="DejaVuSans-6c" d="M 603 4863 
L 1178 4863 
L 1178 0 
L 603 0 
L 603 4863 
z
" transform="scale(0.015625)"/>
       <path id="DejaVuSans-69" d="M 603 3500 
L 1178 3500 
L 1178 0 
L 603 0 
L 603 3500 
z
M 603 4863 
L 1178 4863 
L 1178 4134 
L 603 4134 
L 603 4863 
z
" transform="scale(0.015625)"/>
       <path id="DejaVuSans-74" d="M 1172 4494 
L 1172 3500 
L 2356 3500 
L 2356 3053 
L 1172 3053 
L 1172 1153 
Q 1172 725 1289 603 
Q 1406 481 1766 481 
L 2356 481 
L 2356 0 
L 1766 0 
Q 1100 0 847 248 
Q 594 497 594 1153 
L 594 3053 
L 172 3053 
L 172 3500 
L 594 3500 
L 594 4494 
L 1172 4494 
z
" transform="scale(0.015625)"/>
       <path id="DejaVuSans-79" d="M 2059 -325 
Q 1816 -950 1584 -1140 
Q 1353 -1331 966 -1331 
L 506 -1331 
L 506 -850 
L 844 -850 
Q 1081 -850 1212 -737 
Q 1344 -625 1503 -206 
L 1606 56 
L 191 3500 
L 800 3500 
L 1894 763 
L 2988 3500 
L 3597 3500 
L 2059 -325 
z
" transform="scale(0.015625)"/>
       <path id="DejaVuSans-28" d="M 1984 4856 
Q 1566 4138 1362 3434 
Q 1159 2731 1159 2009 
Q 1159 1288 1364 580 
Q 1569 -128 1984 -844 
L 1484 -844 
Q 1016 -109 783 600 
Q 550 1309 550 2009 
Q 550 2706 781 3412 
Q 1013 4119 1484 4856 
L 1984 4856 
z
" transform="scale(0.015625)"/>
       <path id="DejaVuSans-50" d="M 1259 4147 
L 1259 2394 
L 2053 2394 
Q 2494 2394 2734 2622 
Q 2975 2850 2975 3272 
Q 2975 3691 2734 3919 
Q 2494 4147 2053 4147 
L 1259 4147 
z
M 628 4666 
L 2053 4666 
Q 2838 4666 3239 4311 
Q 3641 3956 3641 3272 
Q 3641 2581 3239 2228 
Q 2838 1875 2053 1875 
L 1259 1875 
L 1259 0 
L 628 0 
L 628 4666 
z
" transform="scale(0.015625)"/>
       <path id="DejaVuSans-68" d="M 3513 2113 
L 3513 0 
L 2938 0 
L 2938 2094 
Q 2938 2591 2744 2837 
Q 2550 3084 2163 3084 
Q 1697 3084 1428 2787 
Q 1159 2491 1159 1978 
L 1159 0 
L 581 0 
L 581 4863 
L 1159 4863 
L 1159 2956 
Q 1366 3272 1645 3428 
Q 1925 3584 2291 3584 
Q 2894 3584 3203 3211 
Q 3513 2838 3513 2113 
z
" transform="scale(0.015625)"/>
       <path id="DejaVuSans-72" d="M 2631 2963 
Q 2534 3019 2420 3045 
Q 2306 3072 2169 3072 
Q 1681 3072 1420 2755 
Q 1159 2438 1159 1844 
L 1159 0 
L 581 0 
L 581 3500 
L 1159 3500 
L 1159 2956 
Q 1341 3275 1631 3429 
Q 1922 3584 2338 3584 
Q 2397 3584 2469 3576 
Q 2541 3569 2628 3553 
L 2631 2963 
z
" transform="scale(0.015625)"/>
       <path id="DejaVuSans-64" d="M 2906 2969 
L 2906 4863 
L 3481 4863 
L 3481 0 
L 2906 0 
L 2906 525 
Q 2725 213 2448 61 
Q 2172 -91 1784 -91 
Q 1150 -91 751 415 
Q 353 922 353 1747 
Q 353 2572 751 3078 
Q 1150 3584 1784 3584 
Q 2172 3584 2448 3432 
Q 2725 3281 2906 2969 
z
M 947 1747 
Q 947 1113 1208 752 
Q 1469 391 1925 391 
Q 2381 391 2643 752 
Q 2906 1113 2906 1747 
Q 2906 2381 2643 2742 
Q 2381 3103 1925 3103 
Q 1469 3103 1208 2742 
Q 947 2381 947 1747 
z
" transform="scale(0.015625)"/>
       <path id="DejaVuSans-6f" d="M 1959 3097 
Q 1497 3097 1228 2736 
Q 959 2375 959 1747 
Q 959 1119 1226 758 
Q 1494 397 1959 397 
Q 2419 397 2687 759 
Q 2956 1122 2956 1747 
Q 2956 2369 2687 2733 
Q 2419 3097 1959 3097 
z
M 1959 3584 
Q 2709 3584 3137 3096 
Q 3566 2609 3566 1747 
Q 3566 888 3137 398 
Q 2709 -91 1959 -91 
Q 1206 -91 779 398 
Q 353 888 353 1747 
Q 353 2609 779 3096 
Q 1206 3584 1959 3584 
z
" transform="scale(0.015625)"/>
       <path id="DejaVuSans-29" d="M 513 4856 
L 1013 4856 
Q 1481 4119 1714 3412 
Q 1947 2706 1947 2009 
Q 1947 1309 1714 600 
Q 1481 -109 1013 -844 
L 513 -844 
Q 928 -128 1133 580 
Q 1338 1288 1338 2009 
Q 1338 2731 1133 3434 
Q 928 4138 513 4856 
z
" transform="scale(0.015625)"/>
      </defs>
      <use xlink:href="#DejaVuSans-4d"/>
      <use xlink:href="#DejaVuSans-65" x="86.279297"/>
      <use xlink:href="#DejaVuSans-61" x="147.802734"/>
      <use xlink:href="#DejaVuSans-6e" x="209.082031"/>
      <use xlink:href="#DejaVuSans-20" x="272.460938"/>
      <use xlink:href="#DejaVuSans-53" x="304.248047"/>
      <use xlink:href="#DejaVuSans-65" x="367.724609"/>
      <use xlink:href="#DejaVuSans-71" x="429.248047"/>
      <use xlink:href="#DejaVuSans-75" x="492.724609"/>
      <use xlink:href="#DejaVuSans-65" x="556.103516"/>
      <use xlink:href="#DejaVuSans-6e" x="617.626953"/>
      <use xlink:href="#DejaVuSans-63" x="681.005859"/>
      <use xlink:href="#DejaVuSans-65" x="735.986328"/>
      <use xlink:href="#DejaVuSans-20" x="797.509766"/>
      <use xlink:href="#DejaVuSans-51" x="829.296875"/>
      <use xlink:href="#DejaVuSans-75" x="908.007812"/>
      <use xlink:href="#DejaVuSans-61" x="971.386719"/>
      <use xlink:href="#DejaVuSans-6c" x="1032.666016"/>
      <use xlink:href="#DejaVuSans-69" x="1060.449219"/>
      <use xlink:href="#DejaVuSans-74" x="1088.232422"/>
      <use xlink:href="#DejaVuSans-79" x="1127.441406"/>
      <use xlink:href="#DejaVuSans-20" x="1186.621094"/>
      <use xlink:href="#DejaVuSans-28" x="1218.408203"/>
      <use xlink:href="#DejaVuSans-50" x="1257.421875"/>
      <use xlink:href="#DejaVuSans-68" x="1317.724609"/>
      <use xlink:href="#DejaVuSans-72" x="1381.103516"/>
      <use xlink:href="#DejaVuSans-65" x="1419.966797"/>
      <use xlink:href="#DejaVuSans-64" x="1481.490234"/>
      <use xlink:href="#DejaVuSans-20" x="1544.966797"/>
      <use xlink:href="#DejaVuSans-53" x="1576.753906"/>
      <use xlink:href="#DejaVuSans-63" x="1640.230469"/>
      <use xlink:href="#DejaVuSans-6f" x="1695.210938"/>
      <use xlink:href="#DejaVuSans-72" x="1756.392578"/>
      <use xlink:href="#DejaVuSans-65" x="1795.255859"/>
      <use xlink:href="#DejaVuSans-29" x="1856.779297"/>
     </g>
    </g>
   </g>
   <g id="matplotlib.axis_2">
    <g id="ytick_1">
     <g id="line2d_1">
      <path d="M 32.968125 353.2239 
L 993.158125 353.2239 
" clip-path="url(#p92b88ab070)" style="fill: none; stroke: #dedede; stroke-linecap: square"/>
     </g>
     <g id="text_10">
      <!-- 0 -->
      <g transform="translate(20.878125 356.263275) scale(0.08 -0.08)">
       <use xlink:href="#DejaVuSans-30"/>
      </g>
     </g>
    </g>
    <g id="ytick_2">
     <g id="line2d_2">
      <path d="M 32.968125 308.352943 
L 993.158125 308.352943 
" clip-path="url(#p92b88ab070)" style="fill: none; stroke: #dedede; stroke-linecap: square"/>
     </g>
     <g id="text_11">
      <!-- 1 -->
      <g transform="translate(20.878125 311.392318) scale(0.08 -0.08)">
       <use xlink:href="#DejaVuSans-31"/>
      </g>
     </g>
    </g>
    <g id="ytick_3">
     <g id="line2d_3">
      <path d="M 32.968125 263.481986 
L 993.158125 263.481986 
" clip-path="url(#p92b88ab070)" style="fill: none; stroke: #dedede; stroke-linecap: square"/>
     </g>
     <g id="text_12">
      <!-- 2 -->
      <g transform="translate(20.878125 266.521361) scale(0.08 -0.08)">
       <use xlink:href="#DejaVuSans-32"/>
      </g>
     </g>
    </g>
    <g id="ytick_4">
     <g id="line2d_4">
      <path d="M 32.968125 218.611029 
L 993.158125 218.611029 
" clip-path="url(#p92b88ab070)" style="fill: none; stroke: #dedede; stroke-linecap: square"/>
     </g>
     <g id="text_13">
      <!-- 3 -->
      <g transform="translate(20.878125 221.650404) scale(0.08 -0.08)">
       <use xlink:href="#DejaVuSans-33"/>
      </g>
     </g>
    </g>
    <g id="ytick_5">
     <g id="line2d_5">
      <path d="M 32.968125 173.740072 
L 993.158125 173.740072 
" clip-path="url(#p92b88ab070)" style="fill: none; stroke: #dedede; stroke-linecap: square"/>
     </g>
     <g id="text_14">
      <!-- 4 -->
      <g transform="translate(20.878125 176.779447) scale(0.08 -0.08)">
       <defs>
        <path id="DejaVuSans-34" d="M 2419 4116 
L 825 1625 
L 2419 1625 
L 2419 4116 
z
M 2253 4666 
L 3047 4666 
L 3047 1625 
L 3713 1625 
L 3713 1100 
L 3047 1100 
L 3047 0 
L 2419 0 
L 2419 1100 
L 313 1100 
L 313 1709 
L 2253 4666 
z
" transform="scale(0.015625)"/>
       </defs>
       <use xlink:href="#DejaVuSans-34"/>
      </g>
     </g>
    </g>
    <g id="ytick_6">
     <g id="line2d_6">
      <path d="M 32.968125 128.869115 
L 993.158125 128.869115 
" clip-path="url(#p92b88ab070)" style="fill: none; stroke: #dedede; stroke-linecap: square"/>
     </g>
     <g id="text_15">
      <!-- 5 -->
      <g transform="translate(20.878125 131.90849) scale(0.08 -0.08)">
       <use xlink:href="#DejaVuSans-35"/>
      </g>
     </g>
    </g>
    <g id="ytick_7">
     <g id="line2d_7">
      <path d="M 32.968125 83.998158 
L 993.158125 83.998158 
" clip-path="url(#p92b88ab070)" style="fill: none; stroke: #dedede; stroke-linecap: square"/>
     </g>
     <g id="text_16">
      <!-- 6 -->
      <g transform="translate(20.878125 87.037533) scale(0.08 -0.08)">
       <defs>
        <path id="DejaVuSans-36" d="M 2113 2584 
Q 1688 2584 1439 2293 
Q 1191 2003 1191 1497 
Q 1191 994 1439 701 
Q 1688 409 2113 409 
Q 2538 409 2786 701 
Q 3034 994 3034 1497 
Q 3034 2003 2786 2293 
Q 2538 2584 2113 2584 
z
M 3366 4563 
L 3366 3988 
Q 3128 4100 2886 4159 
Q 2644 4219 2406 4219 
Q 1781 4219 1451 3797 
Q 1122 3375 1075 2522 
Q 1259 2794 1537 2939 
Q 1816 3084 2150 3084 
Q 2853 3084 3261 2657 
Q 3669 2231 3669 1497 
Q 3669 778 3244 343 
Q 2819 -91 2113 -91 
Q 1303 -91 875 529 
Q 447 1150 447 2328 
Q 447 3434 972 4092 
Q 1497 4750 2381 4750 
Q 2619 4750 2861 4703 
Q 3103 4656 3366 4563 
z
" transform="scale(0.015625)"/>
       </defs>
       <use xlink:href="#DejaVuSans-36"/>
      </g>
     </g>
    </g>
    <g id="ytick_8">
     <g id="line2d_8">
      <path d="M 32.968125 39.127201 
L 993.158125 39.127201 
" clip-path="url(#p92b88ab070)" style="fill: none; stroke: #dedede; stroke-linecap: square"/>
     </g>
     <g id="text_17">
      <!-- 7 -->
      <g transform="translate(20.878125 42.166576) scale(0.08 -0.08)">
       <defs>
        <path id="DejaVuSans-37" d="M 525 4666 
L 3525 4666 
L 3525 4397 
L 1831 0 
L 1172 0 
L 2766 4134 
L 525 4134 
L 525 4666 
z
" transform="scale(0.015625)"/>
       </defs>
       <use xlink:href="#DejaVuSans-37"/>
      </g>
     </g>
    </g>
    <g id="text_18">
     <!-- Count -->
     <g transform="translate(14.798437 209.088338) rotate(-90) scale(0.1 -0.1)">
      <defs>
       <path id="DejaVuSans-43" d="M 4122 4306 
L 4122 3641 
Q 3803 3938 3442 4084 
Q 3081 4231 2675 4231 
Q 1875 4231 1450 3742 
Q 1025 3253 1025 2328 
Q 1025 1406 1450 917 
Q 1875 428 2675 428 
Q 3081 428 3442 575 
Q 3803 722 4122 1019 
L 4122 359 
Q 3791 134 3420 21 
Q 3050 -91 2638 -91 
Q 1578 -91 968 557 
Q 359 1206 359 2328 
Q 359 3453 968 4101 
Q 1578 4750 2638 4750 
Q 3056 4750 3426 4639 
Q 3797 4528 4122 4306 
z
" transform="scale(0.015625)"/>
      </defs>
      <use xlink:href="#DejaVuSans-43"/>
      <use xlink:href="#DejaVuSans-6f" x="69.824219"/>
      <use xlink:href="#DejaVuSans-75" x="131.005859"/>
      <use xlink:href="#DejaVuSans-6e" x="194.384766"/>
      <use xlink:href="#DejaVuSans-74" x="257.763672"/>
     </g>
    </g>
    <g id="text_19">
     <!-- 1e7 -->
     <g transform="translate(32.968125 32.2559) scale(0.1 -0.1)">
      <use xlink:href="#DejaVuSans-31"/>
      <use xlink:href="#DejaVuSans-65" x="63.623047"/>
      <use xlink:href="#DejaVuSans-37" x="125.146484"/>
     </g>
    </g>
   </g>
   <g id="line2d_9">
    <path d="M 333.810945 353.223896 
L 358.88118 353.223191 
L 383.951415 353.214037 
L 409.02165 353.175632 
L 434.091885 353.111911 
L 459.16212 353.04097 
L 484.232355 352.990513 
L 509.30259 352.947495 
L 534.372825 352.909503 
L 559.44306 352.850233 
L 584.513295 352.773032 
L 609.58353 352.655641 
L 634.653765 352.534399 
L 659.724 352.374915 
L 684.794235 352.201058 
L 709.86447 351.961097 
L 734.934705 351.701989 
L 760.00494 351.333244 
L 785.075175 350.916348 
L 810.14541 350.272477 
L 835.215645 349.324345 
L 860.28588 346.864012 
L 885.356115 339.606597 
L 910.42635 322.832433 
L 935.496585 166.773663 
L 960.56682 327.636587 
" clip-path="url(#p92b88ab070)" style="fill: none; stroke: #5cb85c; stroke-linecap: square"/>
   </g>
   <g id="line2d_10">
    <path d="M 308.74071 353.223756 
L 333.810945 353.221607 
L 358.88118 353.205148 
L 383.951415 353.148669 
L 409.02165 353.03157 
L 434.091885 352.872574 
L 459.16212 352.656596 
L 484.232355 352.420028 
L 509.30259 352.117512 
L 534.372825 351.816886 
L 559.44306 351.463249 
L 584.513295 351.126053 
L 609.58353 350.671164 
L 634.653765 350.07167 
L 659.724 349.231534 
L 684.794235 348.985973 
L 709.86447 349.05515 
L 734.934705 348.723545 
L 760.00494 347.288612 
L 785.075175 344.542097 
L 810.14541 338.849274 
L 835.215645 329.330963 
L 860.28588 316.387438 
L 885.356115 309.68312 
L 910.42635 306.519673 
L 935.496585 284.549461 
L 960.56682 351.479793 
" clip-path="url(#p92b88ab070)" style="fill: none; stroke: #5cb85c; stroke-linecap: square"/>
   </g>
   <g id="line2d_11">
    <path d="M 333.810945 353.223896 
L 358.88118 353.222868 
L 383.951415 353.210178 
L 409.02165 353.161431 
L 434.091885 353.082337 
L 459.16212 352.997584 
L 484.232355 352.929555 
L 509.30259 352.866996 
L 534.372825 352.812734 
L 559.44306 352.715086 
L 584.513295 352.604784 
L 609.58353 352.45028 
L 634.653765 352.294501 
L 659.724 352.086174 
L 684.794235 351.862264 
L 709.86447 351.536649 
L 734.934705 351.17332 
L 760.00494 350.671339 
L 785.075175 350.1176 
L 810.14541 349.256226 
L 835.215645 348.039855 
L 860.28588 345.28144 
L 885.356115 338.279471 
L 910.42635 310.167803 
L 935.496585 176.90413 
L 960.56682 330.692985 
" clip-path="url(#p92b88ab070)" style="fill: none; stroke: #5cb85c; stroke-linecap: square"/>
   </g>
   <g id="line2d_12">
    <path d="M 308.74071 353.223855 
L 333.810945 353.222334 
L 358.88118 353.210304 
L 383.951415 353.163405 
L 409.02165 353.062782 
L 434.091885 352.911881 
L 459.16212 352.692462 
L 484.232355 352.447655 
L 509.30259 352.152094 
L 534.372825 351.898829 
L 559.44306 351.639125 
L 584.513295 351.481834 
L 609.58353 351.360315 
L 634.653765 351.273718 
L 659.724 351.014575 
L 684.794235 350.662024 
L 709.86447 350.076395 
L 734.934705 349.336114 
L 760.00494 348.030648 
L 785.075175 345.946172 
L 810.14541 341.82608 
L 835.215645 335.127407 
L 860.28588 325.387977 
L 885.356115 317.055064 
L 910.42635 298.487255 
L 935.496585 249.934224 
L 960.56682 350.240856 
" clip-path="url(#p92b88ab070)" style="fill: none; stroke: #5cb85c; stroke-linecap: square"/>
   </g>
   <g id="line2d_13">
    <path d="M 333.810945 353.223896 
L 358.88118 353.223496 
L 383.951415 353.21786 
L 409.02165 353.195806 
L 434.091885 353.156145 
L 459.16212 353.113885 
L 484.232355 353.079178 
L 509.30259 353.041428 
L 534.372825 353.000869 
L 559.44306 352.927671 
L 584.513295 352.832253 
L 609.58353 352.69493 
L 634.653765 352.547879 
L 659.724 352.378459 
L 684.794235 352.220316 
L 709.86447 352.015741 
L 734.934705 351.786082 
L 760.00494 351.486506 
L 785.075175 351.132806 
L 810.14541 350.582594 
L 835.215645 349.803513 
L 860.28588 348.08425 
L 885.356115 342.423586 
L 910.42635 325.251637 
L 935.496585 157.724335 
L 960.56682 327.442614 
" clip-path="url(#p92b88ab070)" style="fill: none; stroke: #5cb85c; stroke-linecap: square"/>
   </g>
   <g id="line2d_14">
    <path d="M 308.74071 353.223761 
L 333.810945 353.221154 
L 358.88118 353.20675 
L 383.951415 353.163683 
L 409.02165 353.081735 
L 434.091885 352.964191 
L 459.16212 352.791371 
L 484.232355 352.572728 
L 509.30259 352.273798 
L 534.372825 351.97047 
L 559.44306 351.608864 
L 584.513295 351.230894 
L 609.58353 350.669571 
L 634.653765 349.947943 
L 659.724 349.222479 
L 684.794235 348.91531 
L 709.86447 348.12769 
L 734.934705 346.573854 
L 760.00494 343.325412 
L 785.075175 337.969085 
L 810.14541 329.485396 
L 835.215645 319.98861 
L 860.28588 310.49344 
L 885.356115 311.932492 
L 910.42635 320.199499 
L 935.496585 304.711001 
L 960.56682 351.940452 
" clip-path="url(#p92b88ab070)" style="fill: none; stroke: #5cb85c; stroke-linecap: square"/>
   </g>
   <g id="line2d_15">
    <path d="M 333.810945 353.223887 
L 358.88118 353.223698 
L 383.951415 353.22058 
L 409.02165 353.205391 
L 434.091885 353.176687 
L 459.16212 353.144492 
L 484.232355 353.118453 
L 509.30259 353.092599 
L 534.372825 353.060511 
L 559.44306 352.999034 
L 584.513295 352.908192 
L 609.58353 352.780167 
L 634.653765 352.644212 
L 659.724 352.47092 
L 684.794235 352.289269 
L 709.86447 352.049789 
L 734.934705 351.808401 
L 760.00494 351.44902 
L 785.075175 350.998184 
L 810.14541 350.168906 
L 835.215645 348.364757 
L 860.28588 341.310199 
L 885.356115 312.094162 
L 910.42635 214.085771 
L 935.496585 257.959632 
L 960.56682 346.558414 
" clip-path="url(#p92b88ab070)" style="fill: none; stroke: #5cb85c; stroke-linecap: square"/>
   </g>
   <g id="line2d_16">
    <path d="M 308.74071 353.22368 
L 333.810945 353.220947 
L 358.88118 353.207827 
L 383.951415 353.176305 
L 409.02165 353.111014 
L 434.091885 353.020724 
L 459.16212 352.894256 
L 484.232355 352.745603 
L 509.30259 352.550046 
L 534.372825 352.366102 
L 559.44306 352.182539 
L 584.513295 352.039002 
L 609.58353 351.863718 
L 634.653765 351.637375 
L 659.724 351.200121 
L 684.794235 350.638844 
L 709.86447 349.813416 
L 734.934705 348.796855 
L 760.00494 347.119117 
L 785.075175 344.488727 
L 810.14541 339.24989 
L 835.215645 329.34416 
L 860.28588 308.531592 
L 885.356115 278.800769 
L 910.42635 273.797254 
L 935.496585 313.049959 
L 960.56682 352.559384 
" clip-path="url(#p92b88ab070)" style="fill: none; stroke: #5cb85c; stroke-linecap: square"/>
   </g>
   <g id="line2d_17">
    <path d="M 333.810945 353.223896 
L 358.88118 353.223608 
L 383.951415 353.218991 
L 409.02165 353.199813 
L 434.091885 353.165402 
L 459.16212 353.129693 
L 484.232355 353.097602 
L 509.30259 353.068148 
L 534.372825 353.035321 
L 559.44306 352.980767 
L 584.513295 352.901632 
L 609.58353 352.788468 
L 634.653765 352.66496 
L 659.724 352.510209 
L 684.794235 352.351223 
L 709.86447 352.14461 
L 734.934705 351.951297 
L 760.00494 351.701572 
L 785.075175 351.416359 
L 810.14541 350.967039 
L 835.215645 350.345751 
L 860.28588 348.974602 
L 885.356115 345.172242 
L 910.42635 332.28975 
L 935.496585 153.932197 
L 960.56682 317.779923 
" clip-path="url(#p92b88ab070)" style="fill: none; stroke: #5cb85c; stroke-linecap: square"/>
   </g>
   <g id="line2d_18">
    <path d="M 308.74071 353.223779 
L 333.810945 353.22084 
L 358.88118 353.20321 
L 383.951415 353.158308 
L 409.02165 353.071666 
L 434.091885 352.949308 
L 459.16212 352.762828 
L 484.232355 352.531227 
L 509.30259 352.246144 
L 534.372825 352.004034 
L 559.44306 351.731357 
L 584.513295 351.456545 
L 609.58353 351.037518 
L 634.653765 350.491191 
L 659.724 349.672166 
L 684.794235 348.693441 
L 709.86447 346.837533 
L 734.934705 343.641362 
L 760.00494 337.139192 
L 785.075175 326.584807 
L 810.14541 312.41682 
L 835.215645 306.810176 
L 860.28588 318.402619 
L 885.356115 336.009687 
L 910.42635 330.934019 
L 935.496585 311.945886 
L 960.56682 352.283311 
" clip-path="url(#p92b88ab070)" style="fill: none; stroke: #5cb85c; stroke-linecap: square"/>
   </g>
   <g id="line2d_19">
    <path d="M 358.88118 353.223698 
L 383.951415 353.221001 
L 409.02165 353.209151 
L 434.091885 353.188039 
L 459.16212 353.163647 
L 484.232355 353.146412 
L 509.30259 353.129447 
L 534.372825 353.111202 
L 559.44306 353.073843 
L 584.513295 353.021164 
L 609.58353 352.935914 
L 634.653765 352.839648 
L 659.724 352.711725 
L 684.794235 352.580872 
L 709.86447 352.406562 
L 734.934705 352.224005 
L 760.00494 351.981504 
L 785.075175 351.708024 
L 810.14541 351.267472 
L 835.215645 350.602763 
L 860.28588 349.075571 
L 885.356115 344.973002 
L 910.42635 326.487738 
L 935.496585 151.014817 
L 960.56682 321.966002 
" clip-path="url(#p92b88ab070)" style="fill: none; stroke: #5cb85c; stroke-linecap: square"/>
   </g>
   <g id="line2d_20">
    <path d="M 308.74071 353.223743 
L 333.810945 353.221087 
L 358.88118 353.206495 
L 383.951415 353.169485 
L 409.02165 353.107931 
L 434.091885 353.038839 
L 459.16212 352.939804 
L 484.232355 352.81535 
L 509.30259 352.656255 
L 534.372825 352.499149 
L 559.44306 352.334688 
L 584.513295 352.211773 
L 609.58353 352.06771 
L 634.653765 351.861492 
L 659.724 351.461144 
L 684.794235 350.955817 
L 709.86447 350.233417 
L 734.934705 349.374766 
L 760.00494 347.904969 
L 785.075175 345.595878 
L 810.14541 341.093853 
L 835.215645 332.985887 
L 860.28588 316.664606 
L 885.356115 292.181912 
L 910.42635 279.667456 
L 935.496585 304.037995 
L 960.56682 352.199523 
" clip-path="url(#p92b88ab070)" style="fill: none; stroke: #5cb85c; stroke-linecap: square"/>
   </g>
   <g id="line2d_21">
    <path d="M 333.810945 353.223896 
L 358.88118 353.223079 
L 383.951415 353.211592 
L 409.02165 353.155772 
L 434.091885 353.041693 
L 459.16212 352.907353 
L 484.232355 352.692668 
L 509.30259 352.433606 
L 534.372825 352.326683 
L 559.44306 352.271065 
L 584.513295 352.18153 
L 609.58353 352.026752 
L 634.653765 351.816451 
L 659.724 351.481574 
L 684.794235 351.058248 
L 709.86447 350.521331 
L 734.934705 350.012683 
L 760.00494 349.212176 
L 785.075175 348.281351 
L 810.14541 346.871712 
L 835.215645 344.917119 
L 860.28588 339.9964 
L 885.356115 329.659661 
L 910.42635 306.123121 
L 935.496585 144.470558 
L 960.56682 334.108415 
" clip-path="url(#p92b88ab070)" style="fill: none; stroke: #5cb85c; stroke-linecap: square"/>
   </g>
   <g id="line2d_22">
    <path d="M 308.74071 353.223842 
L 333.810945 353.222137 
L 358.88118 353.205436 
L 383.951415 353.132924 
L 409.02165 352.958237 
L 434.091885 352.718568 
L 459.16212 352.471611 
L 484.232355 352.280183 
L 509.30259 352.025181 
L 534.372825 351.741682 
L 559.44306 351.342017 
L 584.513295 350.889439 
L 609.58353 350.271391 
L 634.653765 349.535687 
L 659.724 348.618919 
L 684.794235 348.407434 
L 709.86447 348.764894 
L 734.934705 348.73242 
L 760.00494 347.516772 
L 785.075175 345.690668 
L 810.14541 342.328047 
L 835.215645 336.197952 
L 860.28588 325.691718 
L 885.356115 312.805071 
L 910.42635 279.645115 
L 935.496585 221.017423 
L 960.56682 350.015622 
" clip-path="url(#p92b88ab070)" style="fill: none; stroke: #5cb85c; stroke-linecap: square"/>
   </g>
   <g id="line2d_23">
    <path d="M 333.810945 353.223896 
L 358.88118 353.223406 
L 383.951415 353.21712 
L 409.02165 353.186715 
L 434.091885 353.130183 
L 459.16212 353.055266 
L 484.232355 352.950228 
L 509.30259 352.820061 
L 534.372825 352.709495 
L 559.44306 352.586185 
L 584.513295 352.477548 
L 609.58353 352.332628 
L 634.653765 352.161607 
L 659.724 351.893436 
L 684.794235 351.597341 
L 709.86447 351.206488 
L 734.934705 350.84302 
L 760.00494 350.234817 
L 785.075175 349.441637 
L 810.14541 347.851837 
L 835.215645 342.531097 
L 860.28588 318.604283 
L 885.356115 321.301108 
L 910.42635 328.805255 
L 935.496585 246.803128 
L 960.56682 340.200894 
" clip-path="url(#p92b88ab070)" style="fill: none; stroke: #5cb85c; stroke-linecap: square"/>
   </g>
   <g id="line2d_24">
    <path d="M 308.74071 353.223851 
L 333.810945 353.222922 
L 358.88118 353.215119 
L 383.951415 353.185737 
L 409.02165 353.113567 
L 434.091885 353.001708 
L 459.16212 352.877335 
L 484.232355 352.76841 
L 509.30259 352.626187 
L 534.372825 352.479293 
L 559.44306 352.301869 
L 584.513295 352.142254 
L 609.58353 351.981428 
L 634.653765 351.847573 
L 659.724 351.60641 
L 684.794235 351.285946 
L 709.86447 350.772016 
L 734.934705 350.130864 
L 760.00494 348.947514 
L 785.075175 347.441335 
L 810.14541 344.743913 
L 835.215645 339.894569 
L 860.28588 331.320443 
L 885.356115 321.054937 
L 910.42635 299.508231 
L 935.496585 265.588063 
L 960.56682 351.331086 
" clip-path="url(#p92b88ab070)" style="fill: none; stroke: #5cb85c; stroke-linecap: square"/>
   </g>
   <g id="line2d_25">
    <path d="M 358.88118 353.223581 
L 383.951415 353.215375 
L 409.02165 353.173312 
L 434.091885 353.094434 
L 459.16212 352.985339 
L 484.232355 352.850704 
L 509.30259 352.68198 
L 534.372825 352.561134 
L 559.44306 352.450706 
L 584.513295 352.360937 
L 609.58353 352.244004 
L 634.653765 352.081073 
L 659.724 351.786665 
L 684.794235 351.40139 
L 709.86447 350.873505 
L 734.934705 350.333999 
L 760.00494 349.569757 
L 785.075175 348.689771 
L 810.14541 347.425832 
L 835.215645 345.820407 
L 860.28588 342.844319 
L 885.356115 336.20943 
L 910.42635 309.624205 
L 935.496585 158.553797 
L 960.56682 335.71541 
" clip-path="url(#p92b88ab070)" style="fill: none; stroke: #5cb85c; stroke-linecap: square"/>
   </g>
   <g id="line2d_26">
    <path d="M 308.74071 353.223846 
L 333.810945 353.22272 
L 358.88118 353.211758 
L 383.951415 353.157159 
L 409.02165 352.993586 
L 434.091885 352.731159 
L 459.16212 352.500867 
L 484.232355 352.414984 
L 509.30259 352.288161 
L 534.372825 352.12353 
L 559.44306 351.86637 
L 584.513295 351.624654 
L 609.58353 351.448491 
L 634.653765 351.389571 
L 659.724 351.17336 
L 684.794235 350.839704 
L 709.86447 350.227301 
L 734.934705 349.438371 
L 760.00494 347.901442 
L 785.075175 345.745217 
L 810.14541 341.955896 
L 835.215645 335.688613 
L 860.28588 326.565396 
L 885.356115 316.666831 
L 910.42635 286.02581 
L 935.496585 231.295039 
L 960.56682 350.49903 
" clip-path="url(#p92b88ab070)" style="fill: none; stroke: #5cb85c; stroke-linecap: square"/>
   </g>
   <g id="line2d_27">
    <path d="M 358.88118 353.223572 
L 383.951415 353.217273 
L 409.02165 353.184647 
L 434.091885 353.122501 
L 459.16212 353.035271 
L 484.232355 352.928972 
L 509.30259 352.799093 
L 534.372825 352.6962 
L 559.44306 352.601037 
L 584.513295 352.527027 
L 609.58353 352.424219 
L 634.653765 352.275974 
L 659.724 352.001866 
L 684.794235 351.628764 
L 709.86447 351.102814 
L 734.934705 350.517235 
L 760.00494 349.667616 
L 785.075175 348.722315 
L 810.14541 347.391936 
L 835.215645 345.708742 
L 860.28588 342.134972 
L 885.356115 334.960703 
L 910.42635 313.541767 
L 935.496585 168.294308 
L 960.56682 337.424087 
" clip-path="url(#p92b88ab070)" style="fill: none; stroke: #5cb85c; stroke-linecap: square"/>
   </g>
   <g id="line2d_28">
    <path d="M 308.74071 353.223846 
L 333.810945 353.223133 
L 358.88118 353.214127 
L 383.951415 353.162014 
L 409.02165 353.004809 
L 434.091885 352.785825 
L 459.16212 352.628637 
L 484.232355 352.573908 
L 509.30259 352.48326 
L 534.372825 352.341122 
L 559.44306 352.10222 
L 584.513295 351.808845 
L 609.58353 351.48647 
L 634.653765 351.189913 
L 659.724 350.68581 
L 684.794235 350.235965 
L 709.86447 350.204089 
L 734.934705 350.079541 
L 760.00494 349.015027 
L 785.075175 347.213175 
L 810.14541 343.890871 
L 835.215645 338.112842 
L 860.28588 329.58916 
L 885.356115 320.880739 
L 910.42635 288.753139 
L 935.496585 228.94788 
L 960.56682 350.744344 
" clip-path="url(#p92b88ab070)" style="fill: none; stroke: #5cb85c; stroke-linecap: square"/>
   </g>
   <g id="line2d_29">
    <path d="M 333.810945 353.223896 
L 358.88118 353.223734 
L 383.951415 353.218812 
L 409.02165 353.193334 
L 434.091885 353.139264 
L 459.16212 353.068754 
L 484.232355 352.97374 
L 509.30259 352.843533 
L 534.372825 352.740254 
L 559.44306 352.631563 
L 584.513295 352.530774 
L 609.58353 352.404592 
L 634.653765 352.238875 
L 659.724 351.945796 
L 684.794235 351.57951 
L 709.86447 351.086459 
L 734.934705 350.563025 
L 760.00494 349.792587 
L 785.075175 348.879669 
L 810.14541 347.509341 
L 835.215645 345.128955 
L 860.28588 336.661886 
L 885.356115 330.20321 
L 910.42635 300.791895 
L 935.496585 176.479274 
L 960.56682 337.777185 
" clip-path="url(#p92b88ab070)" style="fill: none; stroke: #5cb85c; stroke-linecap: square"/>
   </g>
   <g id="line2d_30">
    <path d="M 308.74071 353.223837 
L 333.810945 353.222374 
L 358.88118 353.209869 
L 383.951415 353.150379 
L 409.02165 352.985788 
L 434.091885 352.764673 
L 459.16212 352.591893 
L 484.232355 352.502738 
L 509.30259 352.341647 
L 534.372825 352.138337 
L 559.44306 351.823442 
L 584.513295 351.438521 
L 609.58353 350.88646 
L 634.653765 350.176444 
L 659.724 349.035111 
L 684.794235 348.253993 
L 709.86447 348.541562 
L 734.934705 348.838181 
L 760.00494 347.770338 
L 785.075175 345.60189 
L 810.14541 341.317849 
L 835.215645 333.411344 
L 860.28588 320.617652 
L 885.356115 309.928825 
L 910.42635 290.641479 
L 935.496585 251.384453 
L 960.56682 351.254738 
" clip-path="url(#p92b88ab070)" style="fill: none; stroke: #5cb85c; stroke-linecap: square"/>
   </g>
   <g id="line2d_31">
    <path d="M 358.88118 353.223896 
L 383.951415 353.223869 
L 409.02165 353.223721 
L 434.091885 353.223061 
L 459.16212 353.22044 
L 484.232355 353.213642 
L 509.30259 353.201666 
L 534.372825 353.187012 
L 559.44306 353.168691 
L 584.513295 353.150047 
L 609.58353 353.113495 
L 634.653765 353.063105 
L 659.724 352.96639 
L 684.794235 352.81128 
L 709.86447 352.55508 
L 734.934705 352.241738 
L 760.00494 351.819242 
L 785.075175 351.342277 
L 810.14541 350.597939 
L 835.215645 349.302883 
L 860.28588 345.221326 
L 885.356115 341.74494 
L 910.42635 331.072522 
L 935.496585 222.847162 
L 960.56682 332.599808 
" clip-path="url(#p92b88ab070)" style="fill: none; stroke: #5cb85c; stroke-linecap: square"/>
   </g>
   <g id="line2d_32">
    <path d="M 333.810945 353.223873 
L 358.88118 353.223721 
L 383.951415 353.22219 
L 409.02165 353.217784 
L 434.091885 353.209963 
L 459.16212 353.201303 
L 484.232355 353.189829 
L 509.30259 353.177885 
L 534.372825 353.163715 
L 559.44306 353.136823 
L 584.513295 353.099711 
L 609.58353 353.045906 
L 634.653765 352.98021 
L 659.724 352.897132 
L 684.794235 352.800462 
L 709.86447 352.666894 
L 734.934705 352.491525 
L 760.00494 352.214514 
L 785.075175 351.841224 
L 810.14541 351.203666 
L 835.215645 350.183951 
L 860.28588 347.922859 
L 885.356115 342.169222 
L 910.42635 316.244021 
L 935.496585 218.802 
L 960.56682 346.028748 
" clip-path="url(#p92b88ab070)" style="fill: none; stroke: #5cb85c; stroke-linecap: square"/>
   </g>
   <g id="line2d_33">
    <path d="M 358.88118 353.223896 
L 383.951415 353.223837 
L 409.02165 353.223496 
L 434.091885 353.222518 
L 459.16212 353.218457 
L 484.232355 353.209137 
L 509.30259 353.192347 
L 534.372825 353.173375 
L 559.44306 353.149755 
L 584.513295 353.11533 
L 609.58353 353.060852 
L 634.653765 352.976962 
L 659.724 352.819294 
L 684.794235 352.56357 
L 709.86447 352.164241 
L 734.934705 351.677826 
L 760.00494 351.021907 
L 785.075175 350.238689 
L 810.14541 349.06233 
L 835.215645 347.120714 
L 860.28588 340.924739 
L 885.356115 328.084861 
L 910.42635 313.242244 
L 935.496585 158.632914 
L 960.56682 323.541798 
" clip-path="url(#p92b88ab070)" style="fill: none; stroke: #5cb85c; stroke-linecap: square"/>
   </g>
   <g id="line2d_34">
    <path d="M 333.810945 353.22386 
L 358.88118 353.223128 
L 383.951415 353.219781 
L 409.02165 353.213153 
L 434.091885 353.204036 
L 459.16212 353.193702 
L 484.232355 353.182794 
L 509.30259 353.165415 
L 534.372825 353.137496 
L 559.44306 353.085549 
L 584.513295 353.013599 
L 609.58353 352.914326 
L 634.653765 352.802512 
L 659.724 352.667922 
L 684.794235 352.520193 
L 709.86447 352.301703 
L 734.934705 352.011128 
L 760.00494 351.528868 
L 785.075175 350.877907 
L 810.14541 349.775639 
L 835.215645 347.96418 
L 860.28588 344.04065 
L 885.356115 333.908891 
L 910.42635 290.882153 
L 935.496585 150.856454 
L 960.56682 342.393949 
" clip-path="url(#p92b88ab070)" style="fill: none; stroke: #5cb85c; stroke-linecap: square"/>
   </g>
   <g id="line2d_35">
    <path d="M 358.88118 353.223896 
L 383.951415 353.223873 
L 409.02165 353.223774 
L 434.091885 353.22324 
L 459.16212 353.221194 
L 484.232355 353.215832 
L 509.30259 353.207046 
L 534.372825 353.195124 
L 559.44306 353.180223 
L 584.513295 353.161668 
L 609.58353 353.129339 
L 634.653765 353.082247 
L 659.724 352.990549 
L 684.794235 352.841294 
L 709.86447 352.592911 
L 734.934705 352.281619 
L 760.00494 351.868698 
L 785.075175 351.400434 
L 810.14541 350.725193 
L 835.215645 349.75017 
L 860.28588 347.760323 
L 885.356115 342.294852 
L 910.42635 322.154742 
L 935.496585 193.17087 
L 960.56682 323.179909 
" clip-path="url(#p92b88ab070)" style="fill: none; stroke: #5cb85c; stroke-linecap: square"/>
   </g>
   <g id="line2d_36">
    <path d="M 333.810945 353.223878 
L 358.88118 353.223725 
L 383.951415 353.222307 
L 409.02165 353.217497 
L 434.091885 353.210623 
L 459.16212 353.202689 
L 484.232355 353.195344 
L 509.30259 353.187626 
L 534.372825 353.176969 
L 559.44306 353.155472 
L 584.513295 353.126131 
L 609.58353 353.078599 
L 634.653765 353.014523 
L 659.724 352.936811 
L 684.794235 352.855505 
L 709.86447 352.731159 
L 734.934705 352.577045 
L 760.00494 352.314227 
L 785.075175 351.960967 
L 810.14541 351.389499 
L 835.215645 350.409683 
L 860.28588 348.207978 
L 885.356115 342.336492 
L 910.42635 309.291895 
L 935.496585 183.013153 
L 960.56682 343.263126 
" clip-path="url(#p92b88ab070)" style="fill: none; stroke: #5cb85c; stroke-linecap: square"/>
   </g>
   <g id="line2d_37">
    <path d="M 383.951415 353.223837 
L 409.02165 353.223649 
L 434.091885 353.22246 
L 459.16212 353.217299 
L 484.232355 353.205893 
L 509.30259 353.186146 
L 534.372825 353.161166 
L 559.44306 353.131273 
L 584.513295 353.091881 
L 609.58353 353.021483 
L 634.653765 352.919594 
L 659.724 352.723616 
L 684.794235 352.412898 
L 709.86447 351.93565 
L 734.934705 351.357762 
L 760.00494 350.597132 
L 785.075175 349.736152 
L 810.14541 348.457577 
L 835.215645 346.536781 
L 860.28588 341.775107 
L 885.356115 327.578344 
L 910.42635 304.84302 
L 935.496585 110.081969 
L 960.56682 313.025827 
" clip-path="url(#p92b88ab070)" style="fill: none; stroke: #5cb85c; stroke-linecap: square"/>
   </g>
   <g id="line2d_38">
    <path d="M 333.810945 353.223873 
L 358.88118 353.223505 
L 383.951415 353.221024 
L 409.02165 353.212821 
L 434.091885 353.198521 
L 459.16212 353.181075 
L 484.232355 353.161404 
L 509.30259 353.139893 
L 534.372825 353.112629 
L 559.44306 353.06114 
L 584.513295 352.984316 
L 609.58353 352.862756 
L 634.653765 352.720434 
L 659.724 352.546743 
L 684.794235 352.367789 
L 709.86447 352.115408 
L 734.934705 351.789914 
L 760.00494 351.291743 
L 785.075175 350.643488 
L 810.14541 349.612012 
L 835.215645 347.918928 
L 860.28588 344.068493 
L 885.356115 334.178126 
L 910.42635 284.388747 
L 935.496585 92.073952 
L 960.56682 338.81558 
" clip-path="url(#p92b88ab070)" style="fill: none; stroke: #5cb85c; stroke-linecap: square"/>
   </g>
   <g id="line2d_39">
    <path d="M 358.88118 353.223891 
L 383.951415 353.223819 
L 409.02165 353.223537 
L 434.091885 353.222312 
L 459.16212 353.216514 
L 484.232355 353.202918 
L 509.30259 353.181847 
L 534.372825 353.158819 
L 559.44306 353.130223 
L 584.513295 353.095327 
L 609.58353 353.038964 
L 634.653765 352.949658 
L 659.724 352.771587 
L 684.794235 352.471154 
L 709.86447 351.988185 
L 734.934705 351.362563 
L 760.00494 350.491317 
L 785.075175 349.40246 
L 810.14541 347.761058 
L 835.215645 345.055362 
L 860.28588 337.170871 
L 885.356115 324.886684 
L 910.42635 299.108521 
L 935.496585 52.26159 
L 960.56682 307.141898 
" clip-path="url(#p92b88ab070)" style="fill: none; stroke: #5cb85c; stroke-linecap: square"/>
   </g>
   <g id="line2d_40">
    <path d="M 308.74071 353.223896 
L 333.810945 353.223716 
L 358.88118 353.221248 
L 383.951415 353.212987 
L 409.02165 353.200814 
L 434.091885 353.186172 
L 459.16212 353.172536 
L 484.232355 353.160677 
L 509.30259 353.144241 
L 534.372825 353.121626 
L 559.44306 353.077688 
L 584.513295 353.009403 
L 609.58353 352.897571 
L 634.653765 352.749533 
L 659.724 352.557741 
L 684.794235 352.352084 
L 709.86447 352.048936 
L 734.934705 351.648822 
L 760.00494 350.996402 
L 785.075175 350.072267 
L 810.14541 348.562723 
L 835.215645 346.085348 
L 860.28588 340.676755 
L 885.356115 326.642691 
L 910.42635 265.387265 
L 935.496585 50.397233 
L 960.56682 335.158503 
" clip-path="url(#p92b88ab070)" style="fill: none; stroke: #5cb85c; stroke-linecap: square"/>
   </g>
   <g id="line2d_41">
    <path d="M 32.968125 353.2239 
L 993.158125 353.2239 
" clip-path="url(#p92b88ab070)" style="fill: none; stroke: #dedede; stroke-width: 2; stroke-linecap: square"/>
   </g>
   <g id="text_20">
    <!-- FastQC: Per Sequence Quality Scores -->
    <g transform="translate(364.870625 19.3575) scale(0.16 -0.16)">
     <defs>
      <path id="DejaVuSans-46" d="M 628 4666 
L 3309 4666 
L 3309 4134 
L 1259 4134 
L 1259 2759 
L 3109 2759 
L 3109 2228 
L 1259 2228 
L 1259 0 
L 628 0 
L 628 4666 
z
" transform="scale(0.015625)"/>
      <path id="DejaVuSans-73" d="M 2834 3397 
L 2834 2853 
Q 2591 2978 2328 3040 
Q 2066 3103 1784 3103 
Q 1356 3103 1142 2972 
Q 928 2841 928 2578 
Q 928 2378 1081 2264 
Q 1234 2150 1697 2047 
L 1894 2003 
Q 2506 1872 2764 1633 
Q 3022 1394 3022 966 
Q 3022 478 2636 193 
Q 2250 -91 1575 -91 
Q 1294 -91 989 -36 
Q 684 19 347 128 
L 347 722 
Q 666 556 975 473 
Q 1284 391 1588 391 
Q 1994 391 2212 530 
Q 2431 669 2431 922 
Q 2431 1156 2273 1281 
Q 2116 1406 1581 1522 
L 1381 1569 
Q 847 1681 609 1914 
Q 372 2147 372 2553 
Q 372 3047 722 3315 
Q 1072 3584 1716 3584 
Q 2034 3584 2315 3537 
Q 2597 3491 2834 3397 
z
" transform="scale(0.015625)"/>
      <path id="DejaVuSans-3a" d="M 750 794 
L 1409 794 
L 1409 0 
L 750 0 
L 750 794 
z
M 750 3309 
L 1409 3309 
L 1409 2516 
L 750 2516 
L 750 3309 
z
" transform="scale(0.015625)"/>
     </defs>
     <use xlink:href="#DejaVuSans-46"/>
     <use xlink:href="#DejaVuSans-61" x="48.394531"/>
     <use xlink:href="#DejaVuSans-73" x="109.673828"/>
     <use xlink:href="#DejaVuSans-74" x="161.773438"/>
     <use xlink:href="#DejaVuSans-51" x="200.982422"/>
     <use xlink:href="#DejaVuSans-43" x="279.693359"/>
     <use xlink:href="#DejaVuSans-3a" x="349.517578"/>
     <use xlink:href="#DejaVuSans-20" x="383.208984"/>
     <use xlink:href="#DejaVuSans-50" x="414.996094"/>
     <use xlink:href="#DejaVuSans-65" x="471.673828"/>
     <use xlink:href="#DejaVuSans-72" x="533.197266"/>
     <use xlink:href="#DejaVuSans-20" x="574.310547"/>
     <use xlink:href="#DejaVuSans-53" x="606.097656"/>
     <use xlink:href="#DejaVuSans-65" x="669.574219"/>
     <use xlink:href="#DejaVuSans-71" x="731.097656"/>
     <use xlink:href="#DejaVuSans-75" x="794.574219"/>
     <use xlink:href="#DejaVuSans-65" x="857.953125"/>
     <use xlink:href="#DejaVuSans-6e" x="919.476562"/>
     <use xlink:href="#DejaVuSans-63" x="982.855469"/>
     <use xlink:href="#DejaVuSans-65" x="1037.835938"/>
     <use xlink:href="#DejaVuSans-20" x="1099.359375"/>
     <use xlink:href="#DejaVuSans-51" x="1131.146484"/>
     <use xlink:href="#DejaVuSans-75" x="1209.857422"/>
     <use xlink:href="#DejaVuSans-61" x="1273.236328"/>
     <use xlink:href="#DejaVuSans-6c" x="1334.515625"/>
     <use xlink:href="#DejaVuSans-69" x="1362.298828"/>
     <use xlink:href="#DejaVuSans-74" x="1390.082031"/>
     <use xlink:href="#DejaVuSans-79" x="1429.291016"/>
     <use xlink:href="#DejaVuSans-20" x="1488.470703"/>
     <use xlink:href="#DejaVuSans-53" x="1520.257812"/>
     <use xlink:href="#DejaVuSans-63" x="1583.734375"/>
     <use xlink:href="#DejaVuSans-6f" x="1638.714844"/>
     <use xlink:href="#DejaVuSans-72" x="1699.896484"/>
     <use xlink:href="#DejaVuSans-65" x="1738.759766"/>
     <use xlink:href="#DejaVuSans-73" x="1800.283203"/>
    </g>
   </g>
  </g>
 </g>
 <defs>
  <clipPath id="p92b88ab070">
   <rect x="32.968125" y="35.2559" width="960.19" height="317.968"/>
  </clipPath>
 </defs>
</svg>
