<?xml version="1.0" encoding="utf-8" standalone="no"?>
<!DOCTYPE svg PUBLIC "-//W3C//DTD SVG 1.1//EN"
  "http://www.w3.org/Graphics/SVG/1.1/DTD/svg11.dtd">
<svg xmlns:xlink="http://www.w3.org/1999/xlink" width="1000.358125pt" height="388.844525pt" viewBox="0 0 1000.358125 388.844525" xmlns="http://www.w3.org/2000/svg" version="1.1">
 <metadata>
  <rdf:RDF xmlns:dc="http://purl.org/dc/elements/1.1/" xmlns:cc="http://creativecommons.org/ns#" xmlns:rdf="http://www.w3.org/1999/02/22-rdf-syntax-ns#">
   <cc:Work>
    <dc:type rdf:resource="http://purl.org/dc/dcmitype/StillImage"/>
    <dc:date>2024-09-01T20:21:58.968666</dc:date>
    <dc:format>image/svg+xml</dc:format>
    <dc:creator>
     <cc:Agent>
      <dc:title>Matplotlib v3.8.2, https://matplotlib.org/</dc:title>
     </cc:Agent>
    </dc:creator>
   </cc:Work>
  </rdf:RDF>
 </metadata>
 <defs>
  <style type="text/css">*{stroke-linejoin: round; stroke-linecap: butt}</style>
 </defs>
 <g id="figure_1">
  <g id="axes_1">
   <g id="patch_1">
    <path d="M 32.968125 353.2239 
L 993.158125 353.2239 
L 993.158125 35.2559 
L 32.968125 35.2559 
z
" style="fill: #ffffff"/>
   </g>
   <g id="matplotlib.axis_1">
    <g id="xtick_1">
     <g id="text_1">
      <!-- 20 -->
      <g transform="translate(57.989792 366.30265) scale(0.08 -0.08)">
       <defs>
        <path id="DejaVuSans-32" d="M 1228 531 
L 3431 531 
L 3431 0 
L 469 0 
L 469 531 
Q 828 903 1448 1529 
Q 2069 2156 2228 2338 
Q 2531 2678 2651 2914 
Q 2772 3150 2772 3378 
Q 2772 3750 2511 3984 
Q 2250 4219 1831 4219 
Q 1534 4219 1204 4116 
Q 875 4013 500 3803 
L 500 4441 
Q 881 4594 1212 4672 
Q 1544 4750 1819 4750 
Q 2544 4750 2975 4387 
Q 3406 4025 3406 3419 
Q 3406 3131 3298 2873 
Q 3191 2616 2906 2266 
Q 2828 2175 2409 1742 
Q 1991 1309 1228 531 
z
" transform="scale(0.015625)"/>
        <path id="DejaVuSans-30" d="M 2034 4250 
Q 1547 4250 1301 3770 
Q 1056 3291 1056 2328 
Q 1056 1369 1301 889 
Q 1547 409 2034 409 
Q 2525 409 2770 889 
Q 3016 1369 3016 2328 
Q 3016 3291 2770 3770 
Q 2525 4250 2034 4250 
z
M 2034 4750 
Q 2819 4750 3233 4129 
Q 3647 3509 3647 2328 
Q 3647 1150 3233 529 
Q 2819 -91 2034 -91 
Q 1250 -91 836 529 
Q 422 1150 422 2328 
Q 422 3509 836 4129 
Q 1250 4750 2034 4750 
z
" transform="scale(0.015625)"/>
       </defs>
       <use xlink:href="#DejaVuSans-32"/>
       <use xlink:href="#DejaVuSans-30" x="63.623047"/>
      </g>
     </g>
    </g>
    <g id="xtick_2">
     <g id="text_2">
      <!-- 40 -->
      <g transform="translate(193.323125 366.30265) scale(0.08 -0.08)">
       <defs>
        <path id="DejaVuSans-34" d="M 2419 4116 
L 825 1625 
L 2419 1625 
L 2419 4116 
z
M 2253 4666 
L 3047 4666 
L 3047 1625 
L 3713 1625 
L 3713 1100 
L 3047 1100 
L 3047 0 
L 2419 0 
L 2419 1100 
L 313 1100 
L 313 1709 
L 2253 4666 
z
" transform="scale(0.015625)"/>
       </defs>
       <use xlink:href="#DejaVuSans-34"/>
       <use xlink:href="#DejaVuSans-30" x="63.623047"/>
      </g>
     </g>
    </g>
    <g id="xtick_3">
     <g id="text_3">
      <!-- 60 -->
      <g transform="translate(328.656458 366.30265) scale(0.08 -0.08)">
       <defs>
        <path id="DejaVuSans-36" d="M 2113 2584 
Q 1688 2584 1439 2293 
Q 1191 2003 1191 1497 
Q 1191 994 1439 701 
Q 1688 409 2113 409 
Q 2538 409 2786 701 
Q 3034 994 3034 1497 
Q 3034 2003 2786 2293 
Q 2538 2584 2113 2584 
z
M 3366 4563 
L 3366 3988 
Q 3128 4100 2886 4159 
Q 2644 4219 2406 4219 
Q 1781 4219 1451 3797 
Q 1122 3375 1075 2522 
Q 1259 2794 1537 2939 
Q 1816 3084 2150 3084 
Q 2853 3084 3261 2657 
Q 3669 2231 3669 1497 
Q 3669 778 3244 343 
Q 2819 -91 2113 -91 
Q 1303 -91 875 529 
Q 447 1150 447 2328 
Q 447 3434 972 4092 
Q 1497 4750 2381 4750 
Q 2619 4750 2861 4703 
Q 3103 4656 3366 4563 
z
" transform="scale(0.015625)"/>
       </defs>
       <use xlink:href="#DejaVuSans-36"/>
       <use xlink:href="#DejaVuSans-30" x="63.623047"/>
      </g>
     </g>
    </g>
    <g id="xtick_4">
     <g id="text_4">
      <!-- 80 -->
      <g transform="translate(463.989792 366.30265) scale(0.08 -0.08)">
       <defs>
        <path id="DejaVuSans-38" d="M 2034 2216 
Q 1584 2216 1326 1975 
Q 1069 1734 1069 1313 
Q 1069 891 1326 650 
Q 1584 409 2034 409 
Q 2484 409 2743 651 
Q 3003 894 3003 1313 
Q 3003 1734 2745 1975 
Q 2488 2216 2034 2216 
z
M 1403 2484 
Q 997 2584 770 2862 
Q 544 3141 544 3541 
Q 544 4100 942 4425 
Q 1341 4750 2034 4750 
Q 2731 4750 3128 4425 
Q 3525 4100 3525 3541 
Q 3525 3141 3298 2862 
Q 3072 2584 2669 2484 
Q 3125 2378 3379 2068 
Q 3634 1759 3634 1313 
Q 3634 634 3220 271 
Q 2806 -91 2034 -91 
Q 1263 -91 848 271 
Q 434 634 434 1313 
Q 434 1759 690 2068 
Q 947 2378 1403 2484 
z
M 1172 3481 
Q 1172 3119 1398 2916 
Q 1625 2713 2034 2713 
Q 2441 2713 2670 2916 
Q 2900 3119 2900 3481 
Q 2900 3844 2670 4047 
Q 2441 4250 2034 4250 
Q 1625 4250 1398 4047 
Q 1172 3844 1172 3481 
z
" transform="scale(0.015625)"/>
       </defs>
       <use xlink:href="#DejaVuSans-38"/>
       <use xlink:href="#DejaVuSans-30" x="63.623047"/>
      </g>
     </g>
    </g>
    <g id="xtick_5">
     <g id="text_5">
      <!-- 100 -->
      <g transform="translate(596.778125 366.30265) scale(0.08 -0.08)">
       <defs>
        <path id="DejaVuSans-31" d="M 794 531 
L 1825 531 
L 1825 4091 
L 703 3866 
L 703 4441 
L 1819 4666 
L 2450 4666 
L 2450 531 
L 3481 531 
L 3481 0 
L 794 0 
L 794 531 
z
" transform="scale(0.015625)"/>
       </defs>
       <use xlink:href="#DejaVuSans-31"/>
       <use xlink:href="#DejaVuSans-30" x="63.623047"/>
       <use xlink:href="#DejaVuSans-30" x="127.246094"/>
      </g>
     </g>
    </g>
    <g id="xtick_6">
     <g id="text_6">
      <!-- 120 -->
      <g transform="translate(732.111458 366.30265) scale(0.08 -0.08)">
       <use xlink:href="#DejaVuSans-31"/>
       <use xlink:href="#DejaVuSans-32" x="63.623047"/>
       <use xlink:href="#DejaVuSans-30" x="127.246094"/>
      </g>
     </g>
    </g>
    <g id="xtick_7">
     <g id="text_7">
      <!-- 140 -->
      <g transform="translate(867.444792 366.30265) scale(0.08 -0.08)">
       <use xlink:href="#DejaVuSans-31"/>
       <use xlink:href="#DejaVuSans-34" x="63.623047"/>
       <use xlink:href="#DejaVuSans-30" x="127.246094"/>
      </g>
     </g>
    </g>
    <g id="text_8">
     <!-- Sequence Length (bp) -->
     <g transform="translate(457.723281 379.564837) scale(0.1 -0.1)">
      <defs>
       <path id="DejaVuSans-53" d="M 3425 4513 
L 3425 3897 
Q 3066 4069 2747 4153 
Q 2428 4238 2131 4238 
Q 1616 4238 1336 4038 
Q 1056 3838 1056 3469 
Q 1056 3159 1242 3001 
Q 1428 2844 1947 2747 
L 2328 2669 
Q 3034 2534 3370 2195 
Q 3706 1856 3706 1288 
Q 3706 609 3251 259 
Q 2797 -91 1919 -91 
Q 1588 -91 1214 -16 
Q 841 59 441 206 
L 441 856 
Q 825 641 1194 531 
Q 1563 422 1919 422 
Q 2459 422 2753 634 
Q 3047 847 3047 1241 
Q 3047 1584 2836 1778 
Q 2625 1972 2144 2069 
L 1759 2144 
Q 1053 2284 737 2584 
Q 422 2884 422 3419 
Q 422 4038 858 4394 
Q 1294 4750 2059 4750 
Q 2388 4750 2728 4690 
Q 3069 4631 3425 4513 
z
" transform="scale(0.015625)"/>
       <path id="DejaVuSans-65" d="M 3597 1894 
L 3597 1613 
L 953 1613 
Q 991 1019 1311 708 
Q 1631 397 2203 397 
Q 2534 397 2845 478 
Q 3156 559 3463 722 
L 3463 178 
Q 3153 47 2828 -22 
Q 2503 -91 2169 -91 
Q 1331 -91 842 396 
Q 353 884 353 1716 
Q 353 2575 817 3079 
Q 1281 3584 2069 3584 
Q 2775 3584 3186 3129 
Q 3597 2675 3597 1894 
z
M 3022 2063 
Q 3016 2534 2758 2815 
Q 2500 3097 2075 3097 
Q 1594 3097 1305 2825 
Q 1016 2553 972 2059 
L 3022 2063 
z
" transform="scale(0.015625)"/>
       <path id="DejaVuSans-71" d="M 947 1747 
Q 947 1113 1208 752 
Q 1469 391 1925 391 
Q 2381 391 2643 752 
Q 2906 1113 2906 1747 
Q 2906 2381 2643 2742 
Q 2381 3103 1925 3103 
Q 1469 3103 1208 2742 
Q 947 2381 947 1747 
z
M 2906 525 
Q 2725 213 2448 61 
Q 2172 -91 1784 -91 
Q 1150 -91 751 415 
Q 353 922 353 1747 
Q 353 2572 751 3078 
Q 1150 3584 1784 3584 
Q 2172 3584 2448 3432 
Q 2725 3281 2906 2969 
L 2906 3500 
L 3481 3500 
L 3481 -1331 
L 2906 -1331 
L 2906 525 
z
" transform="scale(0.015625)"/>
       <path id="DejaVuSans-75" d="M 544 1381 
L 544 3500 
L 1119 3500 
L 1119 1403 
Q 1119 906 1312 657 
Q 1506 409 1894 409 
Q 2359 409 2629 706 
Q 2900 1003 2900 1516 
L 2900 3500 
L 3475 3500 
L 3475 0 
L 2900 0 
L 2900 538 
Q 2691 219 2414 64 
Q 2138 -91 1772 -91 
Q 1169 -91 856 284 
Q 544 659 544 1381 
z
M 1991 3584 
L 1991 3584 
z
" transform="scale(0.015625)"/>
       <path id="DejaVuSans-6e" d="M 3513 2113 
L 3513 0 
L 2938 0 
L 2938 2094 
Q 2938 2591 2744 2837 
Q 2550 3084 2163 3084 
Q 1697 3084 1428 2787 
Q 1159 2491 1159 1978 
L 1159 0 
L 581 0 
L 581 3500 
L 1159 3500 
L 1159 2956 
Q 1366 3272 1645 3428 
Q 1925 3584 2291 3584 
Q 2894 3584 3203 3211 
Q 3513 2838 3513 2113 
z
" transform="scale(0.015625)"/>
       <path id="DejaVuSans-63" d="M 3122 3366 
L 3122 2828 
Q 2878 2963 2633 3030 
Q 2388 3097 2138 3097 
Q 1578 3097 1268 2742 
Q 959 2388 959 1747 
Q 959 1106 1268 751 
Q 1578 397 2138 397 
Q 2388 397 2633 464 
Q 2878 531 3122 666 
L 3122 134 
Q 2881 22 2623 -34 
Q 2366 -91 2075 -91 
Q 1284 -91 818 406 
Q 353 903 353 1747 
Q 353 2603 823 3093 
Q 1294 3584 2113 3584 
Q 2378 3584 2631 3529 
Q 2884 3475 3122 3366 
z
" transform="scale(0.015625)"/>
       <path id="DejaVuSans-20" transform="scale(0.015625)"/>
       <path id="DejaVuSans-4c" d="M 628 4666 
L 1259 4666 
L 1259 531 
L 3531 531 
L 3531 0 
L 628 0 
L 628 4666 
z
" transform="scale(0.015625)"/>
       <path id="DejaVuSans-67" d="M 2906 1791 
Q 2906 2416 2648 2759 
Q 2391 3103 1925 3103 
Q 1463 3103 1205 2759 
Q 947 2416 947 1791 
Q 947 1169 1205 825 
Q 1463 481 1925 481 
Q 2391 481 2648 825 
Q 2906 1169 2906 1791 
z
M 3481 434 
Q 3481 -459 3084 -895 
Q 2688 -1331 1869 -1331 
Q 1566 -1331 1297 -1286 
Q 1028 -1241 775 -1147 
L 775 -588 
Q 1028 -725 1275 -790 
Q 1522 -856 1778 -856 
Q 2344 -856 2625 -561 
Q 2906 -266 2906 331 
L 2906 616 
Q 2728 306 2450 153 
Q 2172 0 1784 0 
Q 1141 0 747 490 
Q 353 981 353 1791 
Q 353 2603 747 3093 
Q 1141 3584 1784 3584 
Q 2172 3584 2450 3431 
Q 2728 3278 2906 2969 
L 2906 3500 
L 3481 3500 
L 3481 434 
z
" transform="scale(0.015625)"/>
       <path id="DejaVuSans-74" d="M 1172 4494 
L 1172 3500 
L 2356 3500 
L 2356 3053 
L 1172 3053 
L 1172 1153 
Q 1172 725 1289 603 
Q 1406 481 1766 481 
L 2356 481 
L 2356 0 
L 1766 0 
Q 1100 0 847 248 
Q 594 497 594 1153 
L 594 3053 
L 172 3053 
L 172 3500 
L 594 3500 
L 594 4494 
L 1172 4494 
z
" transform="scale(0.015625)"/>
       <path id="DejaVuSans-68" d="M 3513 2113 
L 3513 0 
L 2938 0 
L 2938 2094 
Q 2938 2591 2744 2837 
Q 2550 3084 2163 3084 
Q 1697 3084 1428 2787 
Q 1159 2491 1159 1978 
L 1159 0 
L 581 0 
L 581 4863 
L 1159 4863 
L 1159 2956 
Q 1366 3272 1645 3428 
Q 1925 3584 2291 3584 
Q 2894 3584 3203 3211 
Q 3513 2838 3513 2113 
z
" transform="scale(0.015625)"/>
       <path id="DejaVuSans-28" d="M 1984 4856 
Q 1566 4138 1362 3434 
Q 1159 2731 1159 2009 
Q 1159 1288 1364 580 
Q 1569 -128 1984 -844 
L 1484 -844 
Q 1016 -109 783 600 
Q 550 1309 550 2009 
Q 550 2706 781 3412 
Q 1013 4119 1484 4856 
L 1984 4856 
z
" transform="scale(0.015625)"/>
       <path id="DejaVuSans-62" d="M 3116 1747 
Q 3116 2381 2855 2742 
Q 2594 3103 2138 3103 
Q 1681 3103 1420 2742 
Q 1159 2381 1159 1747 
Q 1159 1113 1420 752 
Q 1681 391 2138 391 
Q 2594 391 2855 752 
Q 3116 1113 3116 1747 
z
M 1159 2969 
Q 1341 3281 1617 3432 
Q 1894 3584 2278 3584 
Q 2916 3584 3314 3078 
Q 3713 2572 3713 1747 
Q 3713 922 3314 415 
Q 2916 -91 2278 -91 
Q 1894 -91 1617 61 
Q 1341 213 1159 525 
L 1159 0 
L 581 0 
L 581 4863 
L 1159 4863 
L 1159 2969 
z
" transform="scale(0.015625)"/>
       <path id="DejaVuSans-70" d="M 1159 525 
L 1159 -1331 
L 581 -1331 
L 581 3500 
L 1159 3500 
L 1159 2969 
Q 1341 3281 1617 3432 
Q 1894 3584 2278 3584 
Q 2916 3584 3314 3078 
Q 3713 2572 3713 1747 
Q 3713 922 3314 415 
Q 2916 -91 2278 -91 
Q 1894 -91 1617 61 
Q 1341 213 1159 525 
z
M 3116 1747 
Q 3116 2381 2855 2742 
Q 2594 3103 2138 3103 
Q 1681 3103 1420 2742 
Q 1159 2381 1159 1747 
Q 1159 1113 1420 752 
Q 1681 391 2138 391 
Q 2594 391 2855 752 
Q 3116 1113 3116 1747 
z
" transform="scale(0.015625)"/>
       <path id="DejaVuSans-29" d="M 513 4856 
L 1013 4856 
Q 1481 4119 1714 3412 
Q 1947 2706 1947 2009 
Q 1947 1309 1714 600 
Q 1481 -109 1013 -844 
L 513 -844 
Q 928 -128 1133 580 
Q 1338 1288 1338 2009 
Q 1338 2731 1133 3434 
Q 928 4138 513 4856 
z
" transform="scale(0.015625)"/>
      </defs>
      <use xlink:href="#DejaVuSans-53"/>
      <use xlink:href="#DejaVuSans-65" x="63.476562"/>
      <use xlink:href="#DejaVuSans-71" x="125"/>
      <use xlink:href="#DejaVuSans-75" x="188.476562"/>
      <use xlink:href="#DejaVuSans-65" x="251.855469"/>
      <use xlink:href="#DejaVuSans-6e" x="313.378906"/>
      <use xlink:href="#DejaVuSans-63" x="376.757812"/>
      <use xlink:href="#DejaVuSans-65" x="431.738281"/>
      <use xlink:href="#DejaVuSans-20" x="493.261719"/>
      <use xlink:href="#DejaVuSans-4c" x="525.048828"/>
      <use xlink:href="#DejaVuSans-65" x="579.011719"/>
      <use xlink:href="#DejaVuSans-6e" x="640.535156"/>
      <use xlink:href="#DejaVuSans-67" x="703.914062"/>
      <use xlink:href="#DejaVuSans-74" x="767.390625"/>
      <use xlink:href="#DejaVuSans-68" x="806.599609"/>
      <use xlink:href="#DejaVuSans-20" x="869.978516"/>
      <use xlink:href="#DejaVuSans-28" x="901.765625"/>
      <use xlink:href="#DejaVuSans-62" x="940.779297"/>
      <use xlink:href="#DejaVuSans-70" x="1004.255859"/>
      <use xlink:href="#DejaVuSans-29" x="1067.732422"/>
     </g>
    </g>
   </g>
   <g id="matplotlib.axis_2">
    <g id="ytick_1">
     <g id="line2d_1">
      <path d="M 32.968125 353.2239 
L 993.158125 353.2239 
" clip-path="url(#pb2df9de93f)" style="fill: none; stroke: #dedede; stroke-linecap: square"/>
     </g>
     <g id="text_9">
      <!-- 0 -->
      <g transform="translate(20.878125 356.263275) scale(0.08 -0.08)">
       <use xlink:href="#DejaVuSans-30"/>
      </g>
     </g>
    </g>
    <g id="ytick_2">
     <g id="line2d_2">
      <path d="M 32.968125 286.175509 
L 993.158125 286.175509 
" clip-path="url(#pb2df9de93f)" style="fill: none; stroke: #dedede; stroke-linecap: square"/>
     </g>
     <g id="text_10">
      <!-- 1 -->
      <g transform="translate(20.878125 289.214884) scale(0.08 -0.08)">
       <use xlink:href="#DejaVuSans-31"/>
      </g>
     </g>
    </g>
    <g id="ytick_3">
     <g id="line2d_3">
      <path d="M 32.968125 219.127118 
L 993.158125 219.127118 
" clip-path="url(#pb2df9de93f)" style="fill: none; stroke: #dedede; stroke-linecap: square"/>
     </g>
     <g id="text_11">
      <!-- 2 -->
      <g transform="translate(20.878125 222.166493) scale(0.08 -0.08)">
       <use xlink:href="#DejaVuSans-32"/>
      </g>
     </g>
    </g>
    <g id="ytick_4">
     <g id="line2d_4">
      <path d="M 32.968125 152.078727 
L 993.158125 152.078727 
" clip-path="url(#pb2df9de93f)" style="fill: none; stroke: #dedede; stroke-linecap: square"/>
     </g>
     <g id="text_12">
      <!-- 3 -->
      <g transform="translate(20.878125 155.118102) scale(0.08 -0.08)">
       <defs>
        <path id="DejaVuSans-33" d="M 2597 2516 
Q 3050 2419 3304 2112 
Q 3559 1806 3559 1356 
Q 3559 666 3084 287 
Q 2609 -91 1734 -91 
Q 1441 -91 1130 -33 
Q 819 25 488 141 
L 488 750 
Q 750 597 1062 519 
Q 1375 441 1716 441 
Q 2309 441 2620 675 
Q 2931 909 2931 1356 
Q 2931 1769 2642 2001 
Q 2353 2234 1838 2234 
L 1294 2234 
L 1294 2753 
L 1863 2753 
Q 2328 2753 2575 2939 
Q 2822 3125 2822 3475 
Q 2822 3834 2567 4026 
Q 2313 4219 1838 4219 
Q 1578 4219 1281 4162 
Q 984 4106 628 3988 
L 628 4550 
Q 988 4650 1302 4700 
Q 1616 4750 1894 4750 
Q 2613 4750 3031 4423 
Q 3450 4097 3450 3541 
Q 3450 3153 3228 2886 
Q 3006 2619 2597 2516 
z
" transform="scale(0.015625)"/>
       </defs>
       <use xlink:href="#DejaVuSans-33"/>
      </g>
     </g>
    </g>
    <g id="ytick_5">
     <g id="line2d_5">
      <path d="M 32.968125 85.030336 
L 993.158125 85.030336 
" clip-path="url(#pb2df9de93f)" style="fill: none; stroke: #dedede; stroke-linecap: square"/>
     </g>
     <g id="text_13">
      <!-- 4 -->
      <g transform="translate(20.878125 88.069711) scale(0.08 -0.08)">
       <use xlink:href="#DejaVuSans-34"/>
      </g>
     </g>
    </g>
    <g id="text_14">
     <!-- Read Count -->
     <g transform="translate(14.798437 223.241463) rotate(-90) scale(0.1 -0.1)">
      <defs>
       <path id="DejaVuSans-52" d="M 2841 2188 
Q 3044 2119 3236 1894 
Q 3428 1669 3622 1275 
L 4263 0 
L 3584 0 
L 2988 1197 
Q 2756 1666 2539 1819 
Q 2322 1972 1947 1972 
L 1259 1972 
L 1259 0 
L 628 0 
L 628 4666 
L 2053 4666 
Q 2853 4666 3247 4331 
Q 3641 3997 3641 3322 
Q 3641 2881 3436 2590 
Q 3231 2300 2841 2188 
z
M 1259 4147 
L 1259 2491 
L 2053 2491 
Q 2509 2491 2742 2702 
Q 2975 2913 2975 3322 
Q 2975 3731 2742 3939 
Q 2509 4147 2053 4147 
L 1259 4147 
z
" transform="scale(0.015625)"/>
       <path id="DejaVuSans-61" d="M 2194 1759 
Q 1497 1759 1228 1600 
Q 959 1441 959 1056 
Q 959 750 1161 570 
Q 1363 391 1709 391 
Q 2188 391 2477 730 
Q 2766 1069 2766 1631 
L 2766 1759 
L 2194 1759 
z
M 3341 1997 
L 3341 0 
L 2766 0 
L 2766 531 
Q 2569 213 2275 61 
Q 1981 -91 1556 -91 
Q 1019 -91 701 211 
Q 384 513 384 1019 
Q 384 1609 779 1909 
Q 1175 2209 1959 2209 
L 2766 2209 
L 2766 2266 
Q 2766 2663 2505 2880 
Q 2244 3097 1772 3097 
Q 1472 3097 1187 3025 
Q 903 2953 641 2809 
L 641 3341 
Q 956 3463 1253 3523 
Q 1550 3584 1831 3584 
Q 2591 3584 2966 3190 
Q 3341 2797 3341 1997 
z
" transform="scale(0.015625)"/>
       <path id="DejaVuSans-64" d="M 2906 2969 
L 2906 4863 
L 3481 4863 
L 3481 0 
L 2906 0 
L 2906 525 
Q 2725 213 2448 61 
Q 2172 -91 1784 -91 
Q 1150 -91 751 415 
Q 353 922 353 1747 
Q 353 2572 751 3078 
Q 1150 3584 1784 3584 
Q 2172 3584 2448 3432 
Q 2725 3281 2906 2969 
z
M 947 1747 
Q 947 1113 1208 752 
Q 1469 391 1925 391 
Q 2381 391 2643 752 
Q 2906 1113 2906 1747 
Q 2906 2381 2643 2742 
Q 2381 3103 1925 3103 
Q 1469 3103 1208 2742 
Q 947 2381 947 1747 
z
" transform="scale(0.015625)"/>
       <path id="DejaVuSans-43" d="M 4122 4306 
L 4122 3641 
Q 3803 3938 3442 4084 
Q 3081 4231 2675 4231 
Q 1875 4231 1450 3742 
Q 1025 3253 1025 2328 
Q 1025 1406 1450 917 
Q 1875 428 2675 428 
Q 3081 428 3442 575 
Q 3803 722 4122 1019 
L 4122 359 
Q 3791 134 3420 21 
Q 3050 -91 2638 -91 
Q 1578 -91 968 557 
Q 359 1206 359 2328 
Q 359 3453 968 4101 
Q 1578 4750 2638 4750 
Q 3056 4750 3426 4639 
Q 3797 4528 4122 4306 
z
" transform="scale(0.015625)"/>
       <path id="DejaVuSans-6f" d="M 1959 3097 
Q 1497 3097 1228 2736 
Q 959 2375 959 1747 
Q 959 1119 1226 758 
Q 1494 397 1959 397 
Q 2419 397 2687 759 
Q 2956 1122 2956 1747 
Q 2956 2369 2687 2733 
Q 2419 3097 1959 3097 
z
M 1959 3584 
Q 2709 3584 3137 3096 
Q 3566 2609 3566 1747 
Q 3566 888 3137 398 
Q 2709 -91 1959 -91 
Q 1206 -91 779 398 
Q 353 888 353 1747 
Q 353 2609 779 3096 
Q 1206 3584 1959 3584 
z
" transform="scale(0.015625)"/>
      </defs>
      <use xlink:href="#DejaVuSans-52"/>
      <use xlink:href="#DejaVuSans-65" x="64.982422"/>
      <use xlink:href="#DejaVuSans-61" x="126.505859"/>
      <use xlink:href="#DejaVuSans-64" x="187.785156"/>
      <use xlink:href="#DejaVuSans-20" x="251.261719"/>
      <use xlink:href="#DejaVuSans-43" x="283.048828"/>
      <use xlink:href="#DejaVuSans-6f" x="352.873047"/>
      <use xlink:href="#DejaVuSans-75" x="414.054688"/>
      <use xlink:href="#DejaVuSans-6e" x="477.433594"/>
      <use xlink:href="#DejaVuSans-74" x="540.8125"/>
     </g>
    </g>
    <g id="text_15">
     <!-- 1e7 -->
     <g transform="translate(32.968125 32.2559) scale(0.1 -0.1)">
      <defs>
       <path id="DejaVuSans-37" d="M 525 4666 
L 3525 4666 
L 3525 4397 
L 1831 0 
L 1172 0 
L 2766 4134 
L 525 4134 
L 525 4666 
z
" transform="scale(0.015625)"/>
      </defs>
      <use xlink:href="#DejaVuSans-31"/>
      <use xlink:href="#DejaVuSans-65" x="63.623047"/>
      <use xlink:href="#DejaVuSans-37" x="125.146484"/>
     </g>
    </g>
   </g>
   <g id="line2d_6">
    <path d="M 76.613125 352.995506 
L 110.446458 352.922973 
L 144.279792 352.931093 
L 178.113125 352.934814 
L 211.946458 352.924308 
L 245.779792 352.916745 
L 279.613125 352.883495 
L 313.446458 352.833021 
L 347.279792 352.780294 
L 381.113125 352.687701 
L 414.946458 352.548609 
L 448.779792 352.403925 
L 482.613125 352.327644 
L 516.446458 352.26421 
L 550.279792 352.098265 
L 584.113125 351.880612 
L 617.946458 351.80472 
L 651.779792 351.679373 
L 685.613125 351.537304 
L 719.446458 351.37148 
L 753.279792 351.247085 
L 787.113125 351.057566 
L 820.946458 350.925535 
L 854.779792 350.718952 
L 888.613125 350.49497 
L 922.446458 329.702225 
L 949.513125 199.081868 
" clip-path="url(#pb2df9de93f)" style="fill: none; stroke: #f0ad4e; stroke-linecap: square"/>
   </g>
   <g id="line2d_7">
    <path d="M 76.613125 352.982063 
L 110.446458 352.966582 
L 144.279792 352.968607 
L 178.113125 353.002761 
L 211.946458 352.947567 
L 245.779792 352.961714 
L 279.613125 352.936799 
L 313.446458 352.873519 
L 347.279792 352.823447 
L 381.113125 352.723799 
L 414.946458 352.600511 
L 448.779792 352.39946 
L 482.613125 352.109221 
L 516.446458 351.966045 
L 550.279792 351.931998 
L 584.113125 351.868128 
L 617.946458 351.794133 
L 651.779792 351.670282 
L 685.613125 351.588845 
L 719.446458 351.413949 
L 753.279792 351.294549 
L 787.113125 351.110072 
L 820.946458 350.95751 
L 854.779792 350.724477 
L 888.613125 350.342267 
L 922.446458 329.696827 
L 949.513125 199.299166 
" clip-path="url(#pb2df9de93f)" style="fill: none; stroke: #f0ad4e; stroke-linecap: square"/>
   </g>
   <g id="line2d_8">
    <path d="M 76.613125 352.91714 
L 110.446458 352.817795 
L 144.279792 352.833772 
L 178.113125 352.843836 
L 211.946458 352.829769 
L 245.779792 352.818693 
L 279.613125 352.75786 
L 313.446458 352.694546 
L 347.279792 352.584949 
L 381.113125 352.272255 
L 414.946458 352.226562 
L 448.779792 352.006636 
L 482.613125 351.879519 
L 516.446458 351.76012 
L 550.279792 351.518833 
L 584.113125 351.234091 
L 617.946458 351.065927 
L 651.779792 350.859566 
L 685.613125 350.640063 
L 719.446458 350.38436 
L 753.279792 350.155055 
L 787.113125 349.874632 
L 820.946458 349.631045 
L 854.779792 349.317641 
L 888.613125 348.905286 
L 922.446458 318.206228 
L 949.513125 128.968173 
" clip-path="url(#pb2df9de93f)" style="fill: none; stroke: #f0ad4e; stroke-linecap: square"/>
   </g>
   <g id="line2d_9">
    <path d="M 76.613125 352.911414 
L 110.446458 352.895812 
L 144.279792 352.888571 
L 178.113125 352.929491 
L 211.946458 352.872774 
L 245.779792 352.86619 
L 279.613125 352.829112 
L 313.446458 352.727152 
L 347.279792 352.636824 
L 381.113125 352.500441 
L 414.946458 352.300255 
L 448.779792 352.028709 
L 482.613125 351.635074 
L 516.446458 351.421659 
L 550.279792 351.326927 
L 584.113125 351.206105 
L 617.946458 351.065746 
L 651.779792 350.872359 
L 685.613125 350.711798 
L 719.446458 350.441365 
L 753.279792 350.213649 
L 787.113125 349.945462 
L 820.946458 349.670463 
L 854.779792 349.327416 
L 888.613125 348.740314 
L 922.446458 319.20769 
L 949.513125 127.831582 
" clip-path="url(#pb2df9de93f)" style="fill: none; stroke: #f0ad4e; stroke-linecap: square"/>
   </g>
   <g id="line2d_10">
    <path d="M 76.613125 353.08112 
L 110.446458 353.020991 
L 144.279792 353.021387 
L 178.113125 353.022326 
L 211.946458 352.912159 
L 245.779792 352.992275 
L 279.613125 352.930952 
L 313.446458 352.856012 
L 347.279792 352.641886 
L 381.113125 352.264491 
L 414.946458 352.397891 
L 448.779792 352.250431 
L 482.613125 352.315321 
L 516.446458 352.367652 
L 550.279792 352.202022 
L 584.113125 351.959977 
L 617.946458 352.019268 
L 651.779792 351.93993 
L 685.613125 351.814918 
L 719.446458 351.718395 
L 753.279792 351.632151 
L 787.113125 351.548817 
L 820.946458 351.448928 
L 854.779792 351.326296 
L 888.613125 351.144428 
L 922.446458 336.58501 
L 949.513125 246.517076 
" clip-path="url(#pb2df9de93f)" style="fill: none; stroke: #f0ad4e; stroke-linecap: square"/>
   </g>
   <g id="line2d_11">
    <path d="M 76.613125 353.076045 
L 110.446458 353.045404 
L 144.279792 353.03253 
L 178.113125 353.043131 
L 211.946458 352.980199 
L 245.779792 352.983478 
L 279.613125 352.940627 
L 313.446458 352.861262 
L 347.279792 352.736317 
L 381.113125 352.584714 
L 414.946458 352.413567 
L 448.779792 352.207956 
L 482.613125 352.099867 
L 516.446458 352.131326 
L 550.279792 352.113082 
L 584.113125 352.103609 
L 617.946458 352.014099 
L 651.779792 351.930362 
L 685.613125 351.873431 
L 719.446458 351.753026 
L 753.279792 351.685347 
L 787.113125 351.598976 
L 820.946458 351.483438 
L 854.779792 351.346129 
L 888.613125 351.078197 
L 922.446458 338.280557 
L 949.513125 244.535434 
" clip-path="url(#pb2df9de93f)" style="fill: none; stroke: #f0ad4e; stroke-linecap: square"/>
   </g>
   <g id="line2d_12">
    <path d="M 76.613125 353.130113 
L 110.446458 353.093886 
L 144.279792 353.089924 
L 178.113125 353.08521 
L 211.946458 353.076447 
L 245.779792 353.07225 
L 279.613125 353.038846 
L 313.446458 352.987212 
L 347.279792 352.927586 
L 381.113125 352.721433 
L 414.946458 352.742821 
L 448.779792 352.654364 
L 482.613125 352.66949 
L 516.446458 352.688083 
L 550.279792 352.584071 
L 584.113125 352.439816 
L 617.946458 352.471356 
L 651.779792 352.422518 
L 685.613125 352.364112 
L 719.446458 352.310124 
L 753.279792 352.269547 
L 787.113125 352.230806 
L 820.946458 352.191066 
L 854.779792 352.120116 
L 888.613125 352.004022 
L 922.446458 343.006349 
L 949.513125 284.722161 
" clip-path="url(#pb2df9de93f)" style="fill: none; stroke: #f0ad4e; stroke-linecap: square"/>
   </g>
   <g id="line2d_13">
    <path d="M 76.613125 353.129516 
L 110.446458 353.108516 
L 144.279792 353.107216 
L 178.113125 353.114397 
L 211.946458 353.07581 
L 245.779792 353.083474 
L 279.613125 353.056929 
L 313.446458 353.000153 
L 347.279792 352.939736 
L 381.113125 352.85856 
L 414.946458 352.767964 
L 448.779792 352.628007 
L 482.613125 352.515366 
L 516.446458 352.4968 
L 550.279792 352.502097 
L 584.113125 352.513656 
L 617.946458 352.457758 
L 651.779792 352.399004 
L 685.613125 352.397327 
L 719.446458 352.334101 
L 753.279792 352.302608 
L 787.113125 352.261038 
L 820.946458 352.213373 
L 854.779792 352.129114 
L 888.613125 351.933507 
L 922.446458 343.916477 
L 949.513125 283.871223 
" clip-path="url(#pb2df9de93f)" style="fill: none; stroke: #f0ad4e; stroke-linecap: square"/>
   </g>
   <g id="line2d_14">
    <path d="M 76.613125 353.104118 
L 110.446458 353.047945 
L 144.279792 353.042715 
L 178.113125 353.039001 
L 211.946458 353.011799 
L 245.779792 353.007213 
L 279.613125 352.923858 
L 313.446458 352.862643 
L 347.279792 352.708781 
L 381.113125 352.508997 
L 414.946458 352.345566 
L 448.779792 352.206407 
L 482.613125 352.242888 
L 516.446458 352.332425 
L 550.279792 352.091151 
L 584.113125 351.901411 
L 617.946458 351.964899 
L 651.779792 351.871635 
L 685.613125 351.714654 
L 719.446458 351.660613 
L 753.279792 351.555676 
L 787.113125 351.483089 
L 820.946458 351.366143 
L 854.779792 351.296225 
L 888.613125 351.043406 
L 922.446458 337.803474 
L 949.513125 254.295568 
" clip-path="url(#pb2df9de93f)" style="fill: none; stroke: #f0ad4e; stroke-linecap: square"/>
   </g>
   <g id="line2d_15">
    <path d="M 76.613125 353.103682 
L 110.446458 353.079203 
L 144.279792 353.050198 
L 178.113125 353.053745 
L 211.946458 352.992301 
L 245.779792 352.972623 
L 279.613125 352.933661 
L 313.446458 352.870481 
L 347.279792 352.7345 
L 381.113125 352.532068 
L 414.946458 352.380512 
L 448.779792 352.18996 
L 482.613125 352.104393 
L 516.446458 352.172159 
L 550.279792 352.123589 
L 584.113125 352.112627 
L 617.946458 351.980193 
L 651.779792 351.874565 
L 685.613125 351.779208 
L 719.446458 351.684107 
L 753.279792 351.605037 
L 787.113125 351.523077 
L 820.946458 351.388946 
L 854.779792 351.303507 
L 888.613125 350.951288 
L 922.446458 339.368933 
L 949.513125 252.567738 
" clip-path="url(#pb2df9de93f)" style="fill: none; stroke: #f0ad4e; stroke-linecap: square"/>
   </g>
   <g id="line2d_16">
    <path d="M 76.613125 353.141504 
L 110.446458 353.112057 
L 144.279792 353.108543 
L 178.113125 353.097842 
L 211.946458 353.08871 
L 245.779792 353.046711 
L 279.613125 353.027039 
L 313.446458 352.958067 
L 347.279792 352.90947 
L 381.113125 352.613445 
L 414.946458 352.751524 
L 448.779792 352.665588 
L 482.613125 352.605573 
L 516.446458 352.550439 
L 550.279792 352.424388 
L 584.113125 352.288119 
L 617.946458 352.205663 
L 651.779792 352.13895 
L 685.613125 352.022138 
L 719.446458 351.927104 
L 753.279792 351.858071 
L 787.113125 351.773368 
L 820.946458 351.685924 
L 854.779792 351.620015 
L 888.613125 351.476384 
L 922.446458 343.374988 
L 949.513125 286.13473 
" clip-path="url(#pb2df9de93f)" style="fill: none; stroke: #f0ad4e; stroke-linecap: square"/>
   </g>
   <g id="line2d_17">
    <path d="M 76.613125 353.136476 
L 110.446458 353.122952 
L 144.279792 353.121128 
L 178.113125 353.116602 
L 211.946458 353.085331 
L 245.779792 353.060007 
L 279.613125 353.041394 
L 313.446458 352.967802 
L 347.279792 352.926715 
L 381.113125 352.827932 
L 414.946458 352.76085 
L 448.779792 352.635416 
L 482.613125 352.467118 
L 516.446458 352.368725 
L 550.279792 352.324124 
L 584.113125 352.274448 
L 617.946458 352.17771 
L 651.779792 352.108322 
L 685.613125 352.038981 
L 719.446458 351.932092 
L 753.279792 351.875034 
L 787.113125 351.791948 
L 820.946458 351.701539 
L 854.779792 351.634551 
L 888.613125 351.43759 
L 922.446458 343.107143 
L 949.513125 286.564423 
" clip-path="url(#pb2df9de93f)" style="fill: none; stroke: #f0ad4e; stroke-linecap: square"/>
   </g>
   <g id="line2d_18">
    <path d="M 76.613125 352.83872 
L 110.446458 352.633948 
L 144.279792 352.685615 
L 178.113125 352.66949 
L 211.946458 352.556769 
L 245.779792 352.156429 
L 279.613125 352.110937 
L 313.446458 351.969934 
L 347.279792 350.672742 
L 381.113125 351.504759 
L 414.946458 351.423617 
L 448.779792 351.244001 
L 482.613125 350.642919 
L 516.446458 350.688137 
L 550.279792 350.27011 
L 584.113125 349.98736 
L 617.946458 349.47623 
L 651.779792 348.767669 
L 685.613125 348.420788 
L 719.446458 348.463672 
L 753.279792 347.283278 
L 787.113125 346.789574 
L 820.946458 347.08452 
L 854.779792 345.913842 
L 888.613125 346.471034 
L 922.446458 307.145718 
L 949.513125 50.396986 
" clip-path="url(#pb2df9de93f)" style="fill: none; stroke: #f0ad4e; stroke-linecap: square"/>
   </g>
   <g id="line2d_19">
    <path d="M 76.613125 352.704141 
L 110.446458 352.640995 
L 144.279792 352.694949 
L 178.113125 352.800577 
L 211.946458 352.703745 
L 245.779792 352.545136 
L 279.613125 352.368678 
L 313.446458 352.162886 
L 347.279792 351.639104 
L 381.113125 351.782145 
L 414.946458 351.564586 
L 448.779792 351.300577 
L 482.613125 350.425816 
L 516.446458 350.273395 
L 550.279792 349.997438 
L 584.113125 349.871561 
L 617.946458 349.579666 
L 651.779792 348.703504 
L 685.613125 347.571064 
L 719.446458 348.500267 
L 753.279792 347.241232 
L 787.113125 346.870622 
L 820.946458 347.069582 
L 854.779792 345.818942 
L 888.613125 346.152004 
L 922.446458 305.820386 
L 949.513125 51.465804 
" clip-path="url(#pb2df9de93f)" style="fill: none; stroke: #f0ad4e; stroke-linecap: square"/>
   </g>
   <g id="line2d_20">
    <path d="M 76.613125 352.968761 
L 110.446458 352.85034 
L 144.279792 352.885862 
L 178.113125 352.877381 
L 211.946458 352.830722 
L 245.779792 352.603065 
L 279.613125 352.497089 
L 313.446458 352.322401 
L 347.279792 351.434834 
L 381.113125 351.91476 
L 414.946458 351.798773 
L 448.779792 351.67462 
L 482.613125 351.159654 
L 516.446458 351.223002 
L 550.279792 350.962083 
L 584.113125 350.766603 
L 617.946458 350.333169 
L 651.779792 349.719334 
L 685.613125 349.355939 
L 719.446458 349.551935 
L 753.279792 348.451369 
L 787.113125 348.167653 
L 820.946458 348.55351 
L 854.779792 347.546665 
L 888.613125 348.308522 
L 922.446458 323.992592 
L 949.513125 164.332866 
" clip-path="url(#pb2df9de93f)" style="fill: none; stroke: #f0ad4e; stroke-linecap: square"/>
   </g>
   <g id="line2d_21">
    <path d="M 76.613125 352.939286 
L 110.446458 352.886526 
L 144.279792 352.930858 
L 178.113125 352.98685 
L 211.946458 352.931073 
L 245.779792 352.78356 
L 279.613125 352.627665 
L 313.446458 352.434311 
L 347.279792 351.96571 
L 381.113125 352.102288 
L 414.946458 351.896201 
L 448.779792 351.716518 
L 482.613125 351.046276 
L 516.446458 350.978496 
L 550.279792 350.804003 
L 584.113125 350.694379 
L 617.946458 350.415974 
L 651.779792 349.678039 
L 685.613125 348.633968 
L 719.446458 349.618105 
L 753.279792 348.409812 
L 787.113125 348.20107 
L 820.946458 348.537318 
L 854.779792 347.476861 
L 888.613125 348.137488 
L 922.446458 324.428024 
L 949.513125 163.822843 
" clip-path="url(#pb2df9de93f)" style="fill: none; stroke: #f0ad4e; stroke-linecap: square"/>
   </g>
   <g id="line2d_22">
    <path d="M 76.613125 352.984443 
L 110.446458 352.797834 
L 144.279792 352.837366 
L 178.113125 352.815857 
L 211.946458 352.704811 
L 245.779792 352.354262 
L 279.613125 352.146828 
L 313.446458 351.837299 
L 347.279792 350.374565 
L 381.113125 350.807322 
L 414.946458 349.777492 
L 448.779792 350.081577 
L 482.613125 349.417429 
L 516.446458 349.617394 
L 550.279792 349.43224 
L 584.113125 349.367585 
L 617.946458 348.494561 
L 651.779792 347.436705 
L 685.613125 346.808697 
L 719.446458 347.494166 
L 753.279792 345.114618 
L 787.113125 344.620887 
L 820.946458 345.5494 
L 854.779792 343.544298 
L 888.613125 345.843468 
L 922.446458 317.164652 
L 949.513125 126.661359 
" clip-path="url(#pb2df9de93f)" style="fill: none; stroke: #f0ad4e; stroke-linecap: square"/>
   </g>
   <g id="line2d_23">
    <path d="M 76.613125 352.792423 
L 110.446458 352.714942 
L 144.279792 352.79595 
L 178.113125 352.914438 
L 211.946458 352.789017 
L 245.779792 352.593692 
L 279.613125 352.275346 
L 313.446458 351.913272 
L 347.279792 351.022601 
L 381.113125 351.043004 
L 414.946458 349.915773 
L 448.779792 350.104494 
L 482.613125 349.200407 
L 516.446458 349.235701 
L 550.279792 349.231242 
L 584.113125 349.254709 
L 617.946458 348.547033 
L 651.779792 347.367438 
L 685.613125 346.040288 
L 719.446458 347.584949 
L 753.279792 345.052887 
L 787.113125 344.639574 
L 820.946458 345.532491 
L 854.779792 343.447252 
L 888.613125 345.582288 
L 922.446458 321.527725 
L 949.513125 122.96818 
" clip-path="url(#pb2df9de93f)" style="fill: none; stroke: #f0ad4e; stroke-linecap: square"/>
   </g>
   <g id="line2d_24">
    <path d="M 76.613125 352.988802 
L 110.446458 352.775715 
L 144.279792 352.899064 
L 178.113125 352.897421 
L 211.946458 352.851822 
L 245.779792 352.676993 
L 279.613125 352.553383 
L 313.446458 352.286818 
L 347.279792 351.208325 
L 381.113125 351.392916 
L 414.946458 350.439159 
L 448.779792 350.537439 
L 482.613125 349.482258 
L 516.446458 350.047134 
L 550.279792 349.853585 
L 584.113125 349.799068 
L 617.946458 349.070339 
L 651.779792 348.034703 
L 685.613125 347.33038 
L 719.446458 348.186963 
L 753.279792 345.528133 
L 787.113125 344.85854 
L 820.946458 345.961366 
L 854.779792 344.084058 
L 888.613125 346.329032 
L 922.446458 315.46468 
L 949.513125 109.592468 
" clip-path="url(#pb2df9de93f)" style="fill: none; stroke: #f0ad4e; stroke-linecap: square"/>
   </g>
   <g id="line2d_25">
    <path d="M 76.613125 352.785853 
L 110.446458 352.640626 
L 144.279792 352.808911 
L 178.113125 352.942458 
L 211.946458 352.829823 
L 245.779792 352.778417 
L 279.613125 352.581476 
L 313.446458 352.309883 
L 347.279792 351.716692 
L 381.113125 351.575475 
L 414.946458 350.520395 
L 448.779792 350.501051 
L 482.613125 349.135859 
L 516.446458 349.618876 
L 550.279792 349.663275 
L 584.113125 349.718483 
L 617.946458 349.111802 
L 651.779792 347.934942 
L 685.613125 346.809602 
L 719.446458 348.23493 
L 753.279792 345.426072 
L 787.113125 344.806906 
L 820.946458 345.898448 
L 854.779792 344.022346 
L 888.613125 346.164154 
L 922.446458 321.083349 
L 949.513125 105.510462 
" clip-path="url(#pb2df9de93f)" style="fill: none; stroke: #f0ad4e; stroke-linecap: square"/>
   </g>
   <g id="line2d_26">
    <path d="M 76.613125 353.043654 
L 110.446458 352.87848 
L 144.279792 352.918508 
L 178.113125 352.90597 
L 211.946458 352.804894 
L 245.779792 352.498544 
L 279.613125 352.330266 
L 313.446458 352.06405 
L 347.279792 350.956471 
L 381.113125 351.372647 
L 414.946458 350.784351 
L 448.779792 350.92933 
L 482.613125 350.088751 
L 516.446458 350.54641 
L 550.279792 350.243056 
L 584.113125 350.310326 
L 617.946458 349.761025 
L 651.779792 348.983907 
L 685.613125 348.522655 
L 719.446458 349.037184 
L 753.279792 347.232469 
L 787.113125 346.835824 
L 820.946458 347.649591 
L 854.779792 346.08971 
L 888.613125 347.60208 
L 922.446458 321.836188 
L 949.513125 149.1758 
" clip-path="url(#pb2df9de93f)" style="fill: none; stroke: #f0ad4e; stroke-linecap: square"/>
   </g>
   <g id="line2d_27">
    <path d="M 76.613125 352.852532 
L 110.446458 352.758014 
L 144.279792 352.849468 
L 178.113125 352.954406 
L 211.946458 352.84165 
L 245.779792 352.678716 
L 279.613125 352.422859 
L 313.446458 352.137998 
L 347.279792 351.475124 
L 381.113125 351.515172 
L 414.946458 350.881008 
L 448.779792 350.928284 
L 482.613125 349.884293 
L 516.446458 350.260388 
L 550.279792 350.149852 
L 584.113125 350.304908 
L 617.946458 349.838285 
L 651.779792 348.947493 
L 685.613125 348.007978 
L 719.446458 349.099861 
L 753.279792 347.190551 
L 787.113125 346.848805 
L 820.946458 347.637757 
L 854.779792 346.029071 
L 888.613125 347.447467 
L 922.446458 326.399039 
L 949.513125 145.061161 
" clip-path="url(#pb2df9de93f)" style="fill: none; stroke: #f0ad4e; stroke-linecap: square"/>
   </g>
   <g id="line2d_28">
    <path d="M 76.613125 353.218704 
L 110.446458 353.203316 
L 144.279792 353.182203 
L 178.113125 353.180184 
L 211.946458 353.126251 
L 245.779792 353.085713 
L 279.613125 352.980709 
L 313.446458 352.874001 
L 347.279792 352.595227 
L 381.113125 352.362469 
L 414.946458 351.94872 
L 448.779792 351.474413 
L 482.613125 350.534495 
L 516.446458 349.330232 
L 550.279792 348.074798 
L 584.113125 346.105077 
L 617.946458 344.188472 
L 651.779792 342.189968 
L 685.613125 340.460622 
L 719.446458 338.744176 
L 753.279792 339.367197 
L 787.113125 339.064507 
L 820.946458 340.349664 
L 854.779792 339.390335 
L 888.613125 340.689512 
L 922.446458 325.347559 
L 949.513125 220.497654 
" clip-path="url(#pb2df9de93f)" style="fill: none; stroke: #f0ad4e; stroke-linecap: square"/>
   </g>
   <g id="line2d_29">
    <path d="M 76.613125 353.210577 
L 110.446458 353.203014 
L 144.279792 353.194928 
L 178.113125 353.179715 
L 211.946458 353.129241 
L 245.779792 353.089374 
L 279.613125 352.97149 
L 313.446458 352.859867 
L 347.279792 352.58753 
L 381.113125 352.352713 
L 414.946458 351.945039 
L 448.779792 351.472723 
L 482.613125 350.522715 
L 516.446458 349.319096 
L 550.279792 348.071359 
L 584.113125 346.11667 
L 617.946458 344.221688 
L 651.779792 342.246395 
L 685.613125 340.54047 
L 719.446458 338.855249 
L 753.279792 339.505404 
L 787.113125 339.204926 
L 820.946458 340.464953 
L 854.779792 339.500556 
L 888.613125 340.673494 
L 922.446458 319.644269 
L 949.513125 225.482722 
" clip-path="url(#pb2df9de93f)" style="fill: none; stroke: #f0ad4e; stroke-linecap: square"/>
   </g>
   <g id="line2d_30">
    <path d="M 76.613125 353.212287 
L 110.446458 353.187238 
L 144.279792 353.144307 
L 178.113125 353.094919 
L 211.946458 352.894538 
L 245.779792 352.695143 
L 279.613125 352.061227 
L 313.446458 351.310131 
L 347.279792 349.47743 
L 381.113125 347.846056 
L 414.946458 345.578292 
L 448.779792 343.81278 
L 482.613125 340.413614 
L 516.446458 337.847853 
L 550.279792 336.766034 
L 584.113125 335.281616 
L 617.946458 334.453824 
L 651.779792 334.082785 
L 685.613125 334.034416 
L 719.446458 333.764063 
L 753.279792 336.272786 
L 787.113125 336.824366 
L 820.946458 338.958409 
L 854.779792 337.857917 
L 888.613125 339.49607 
L 922.446458 318.856946 
L 949.513125 168.979695 
" clip-path="url(#pb2df9de93f)" style="fill: none; stroke: #f0ad4e; stroke-linecap: square"/>
   </g>
   <g id="line2d_31">
    <path d="M 76.613125 353.201352 
L 110.446458 353.187882 
L 144.279792 353.159949 
L 178.113125 353.096488 
L 211.946458 352.903811 
L 245.779792 352.701673 
L 279.613125 352.054536 
L 313.446458 351.300932 
L 347.279792 349.482318 
L 381.113125 347.862168 
L 414.946458 345.62546 
L 448.779792 343.895752 
L 482.613125 340.491592 
L 516.446458 337.947414 
L 550.279792 336.846942 
L 584.113125 335.366453 
L 617.946458 334.555777 
L 651.779792 334.190189 
L 685.613125 334.157892 
L 719.446458 333.916391 
L 753.279792 336.458094 
L 787.113125 336.982929 
L 820.946458 339.084246 
L 854.779792 337.963123 
L 888.613125 339.396973 
L 922.446458 308.771145 
L 949.513125 177.603265 
" clip-path="url(#pb2df9de93f)" style="fill: none; stroke: #f0ad4e; stroke-linecap: square"/>
   </g>
   <g id="line2d_32">
    <path d="M 76.613125 353.217229 
L 110.446458 353.199488 
L 144.279792 353.169544 
L 178.113125 353.140324 
L 211.946458 353.020951 
L 245.779792 352.962981 
L 279.613125 352.747776 
L 313.446458 352.560396 
L 347.279792 352.050828 
L 381.113125 351.616207 
L 414.946458 350.972656 
L 448.779792 350.316481 
L 482.613125 348.69173 
L 516.446458 346.757733 
L 550.279792 345.125822 
L 584.113125 342.347216 
L 617.946458 339.853995 
L 651.779792 338.12068 
L 685.613125 335.9403 
L 719.446458 335.023333 
L 753.279792 336.797279 
L 787.113125 337.701312 
L 820.946458 339.373419 
L 854.779792 338.373258 
L 888.613125 339.807933 
L 922.446458 325.270695 
L 949.513125 213.402795 
" clip-path="url(#pb2df9de93f)" style="fill: none; stroke: #f0ad4e; stroke-linecap: square"/>
   </g>
   <g id="line2d_33">
    <path d="M 76.613125 353.210906 
L 110.446458 353.200587 
L 144.279792 353.180164 
L 178.113125 353.140934 
L 211.946458 353.023854 
L 245.779792 352.964698 
L 279.613125 352.741701 
L 313.446458 352.549896 
L 347.279792 352.044204 
L 381.113125 351.610052 
L 414.946458 350.976438 
L 448.779792 350.331774 
L 482.613125 348.701446 
L 516.446458 346.777506 
L 550.279792 345.152125 
L 584.113125 342.38776 
L 617.946458 339.900339 
L 651.779792 338.190095 
L 685.613125 336.040457 
L 719.446458 335.144382 
L 753.279792 336.945731 
L 787.113125 337.831205 
L 820.946458 339.491846 
L 854.779792 338.453341 
L 888.613125 339.739798 
L 922.446458 315.470775 
L 949.513125 222.360346 
" clip-path="url(#pb2df9de93f)" style="fill: none; stroke: #f0ad4e; stroke-linecap: square"/>
   </g>
   <g id="line2d_34">
    <path d="M 76.613125 353.209109 
L 110.446458 353.166768 
L 144.279792 353.116757 
L 178.113125 353.065726 
L 211.946458 352.851547 
L 245.779792 352.729948 
L 279.613125 352.275534 
L 313.446458 351.953299 
L 347.279792 350.896818 
L 381.113125 350.356964 
L 414.946458 349.219482 
L 448.779792 348.232489 
L 482.613125 345.522702 
L 516.446458 342.477397 
L 550.279792 339.918489 
L 584.113125 335.982936 
L 617.946458 332.906427 
L 651.779792 329.674956 
L 685.613125 328.528094 
L 719.446458 325.780021 
L 753.279792 329.423726 
L 787.113125 328.670719 
L 820.946458 332.163491 
L 854.779792 330.25575 
L 888.613125 333.024399 
L 922.446458 308.261021 
L 949.513125 122.767785 
" clip-path="url(#pb2df9de93f)" style="fill: none; stroke: #f0ad4e; stroke-linecap: square"/>
   </g>
   <g id="line2d_35">
    <path d="M 76.613125 353.197329 
L 110.446458 353.174626 
L 144.279792 353.138883 
L 178.113125 353.064707 
L 211.946458 352.851191 
L 245.779792 352.723934 
L 279.613125 352.262848 
L 313.446458 351.940909 
L 347.279792 350.892674 
L 381.113125 350.361068 
L 414.946458 349.241668 
L 448.779792 348.276902 
L 482.613125 345.553618 
L 516.446458 342.528508 
L 550.279792 339.99542 
L 584.113125 336.104743 
L 617.946458 333.103355 
L 651.779792 329.905985 
L 685.613125 328.852172 
L 719.446458 326.084555 
L 753.279792 329.749869 
L 787.113125 329.004432 
L 820.946458 332.433481 
L 854.779792 330.479416 
L 888.613125 332.912663 
L 922.446458 293.618236 
L 949.513125 134.979161 
" clip-path="url(#pb2df9de93f)" style="fill: none; stroke: #f0ad4e; stroke-linecap: square"/>
   </g>
   <g id="line2d_36">
    <path d="M 76.613125 353.209116 
L 110.446458 353.165883 
L 144.279792 353.088777 
L 178.113125 353.00266 
L 211.946458 352.702592 
L 245.779792 352.56405 
L 279.613125 352.01133 
L 313.446458 351.553416 
L 347.279792 350.246851 
L 381.113125 349.232905 
L 414.946458 347.65008 
L 448.779792 346.139212 
L 482.613125 342.101698 
L 516.446458 337.602718 
L 550.279792 334.126232 
L 584.113125 328.423625 
L 617.946458 323.904282 
L 651.779792 321.446603 
L 685.613125 318.286941 
L 719.446458 317.692276 
L 753.279792 322.116142 
L 787.113125 324.417933 
L 820.946458 327.771566 
L 854.779792 326.25286 
L 888.613125 328.862913 
L 922.446458 301.640274 
L 949.513125 90.256443 
" clip-path="url(#pb2df9de93f)" style="fill: none; stroke: #f0ad4e; stroke-linecap: square"/>
   </g>
   <g id="line2d_37">
    <path d="M 76.613125 353.192823 
L 110.446458 353.170094 
L 144.279792 353.113217 
L 178.113125 353.004967 
L 211.946458 352.713554 
L 245.779792 352.570802 
L 279.613125 351.999912 
L 313.446458 351.535407 
L 347.279792 350.238463 
L 381.113125 349.229613 
L 414.946458 347.671616 
L 448.779792 346.196149 
L 482.613125 342.170986 
L 516.446458 337.724256 
L 550.279792 334.232584 
L 584.113125 328.545633 
L 617.946458 324.084998 
L 651.779792 321.656143 
L 685.613125 318.534082 
L 719.446458 317.965122 
L 753.279792 322.460838 
L 787.113125 324.712926 
L 820.946458 328.020645 
L 854.779792 326.424102 
L 888.613125 328.759498 
L 922.446458 282.001867 
L 949.513125 107.539084 
" clip-path="url(#pb2df9de93f)" style="fill: none; stroke: #f0ad4e; stroke-linecap: square"/>
   </g>
   <g id="line2d_38">
    <path d="M 32.968125 353.2239 
L 993.158125 353.2239 
" clip-path="url(#pb2df9de93f)" style="fill: none; stroke: #dedede; stroke-width: 2; stroke-linecap: square"/>
   </g>
   <g id="text_16">
    <!-- FastQC: Sequence Length Distribution -->
    <g transform="translate(361.050625 19.3575) scale(0.16 -0.16)">
     <defs>
      <path id="DejaVuSans-46" d="M 628 4666 
L 3309 4666 
L 3309 4134 
L 1259 4134 
L 1259 2759 
L 3109 2759 
L 3109 2228 
L 1259 2228 
L 1259 0 
L 628 0 
L 628 4666 
z
" transform="scale(0.015625)"/>
      <path id="DejaVuSans-73" d="M 2834 3397 
L 2834 2853 
Q 2591 2978 2328 3040 
Q 2066 3103 1784 3103 
Q 1356 3103 1142 2972 
Q 928 2841 928 2578 
Q 928 2378 1081 2264 
Q 1234 2150 1697 2047 
L 1894 2003 
Q 2506 1872 2764 1633 
Q 3022 1394 3022 966 
Q 3022 478 2636 193 
Q 2250 -91 1575 -91 
Q 1294 -91 989 -36 
Q 684 19 347 128 
L 347 722 
Q 666 556 975 473 
Q 1284 391 1588 391 
Q 1994 391 2212 530 
Q 2431 669 2431 922 
Q 2431 1156 2273 1281 
Q 2116 1406 1581 1522 
L 1381 1569 
Q 847 1681 609 1914 
Q 372 2147 372 2553 
Q 372 3047 722 3315 
Q 1072 3584 1716 3584 
Q 2034 3584 2315 3537 
Q 2597 3491 2834 3397 
z
" transform="scale(0.015625)"/>
      <path id="DejaVuSans-51" d="M 2522 4238 
Q 1834 4238 1429 3725 
Q 1025 3213 1025 2328 
Q 1025 1447 1429 934 
Q 1834 422 2522 422 
Q 3209 422 3611 934 
Q 4013 1447 4013 2328 
Q 4013 3213 3611 3725 
Q 3209 4238 2522 4238 
z
M 3406 84 
L 4238 -825 
L 3475 -825 
L 2784 -78 
Q 2681 -84 2626 -87 
Q 2572 -91 2522 -91 
Q 1538 -91 948 567 
Q 359 1225 359 2328 
Q 359 3434 948 4092 
Q 1538 4750 2522 4750 
Q 3503 4750 4090 4092 
Q 4678 3434 4678 2328 
Q 4678 1516 4351 937 
Q 4025 359 3406 84 
z
" transform="scale(0.015625)"/>
      <path id="DejaVuSans-3a" d="M 750 794 
L 1409 794 
L 1409 0 
L 750 0 
L 750 794 
z
M 750 3309 
L 1409 3309 
L 1409 2516 
L 750 2516 
L 750 3309 
z
" transform="scale(0.015625)"/>
      <path id="DejaVuSans-44" d="M 1259 4147 
L 1259 519 
L 2022 519 
Q 2988 519 3436 956 
Q 3884 1394 3884 2338 
Q 3884 3275 3436 3711 
Q 2988 4147 2022 4147 
L 1259 4147 
z
M 628 4666 
L 1925 4666 
Q 3281 4666 3915 4102 
Q 4550 3538 4550 2338 
Q 4550 1131 3912 565 
Q 3275 0 1925 0 
L 628 0 
L 628 4666 
z
" transform="scale(0.015625)"/>
      <path id="DejaVuSans-69" d="M 603 3500 
L 1178 3500 
L 1178 0 
L 603 0 
L 603 3500 
z
M 603 4863 
L 1178 4863 
L 1178 4134 
L 603 4134 
L 603 4863 
z
" transform="scale(0.015625)"/>
      <path id="DejaVuSans-72" d="M 2631 2963 
Q 2534 3019 2420 3045 
Q 2306 3072 2169 3072 
Q 1681 3072 1420 2755 
Q 1159 2438 1159 1844 
L 1159 0 
L 581 0 
L 581 3500 
L 1159 3500 
L 1159 2956 
Q 1341 3275 1631 3429 
Q 1922 3584 2338 3584 
Q 2397 3584 2469 3576 
Q 2541 3569 2628 3553 
L 2631 2963 
z
" transform="scale(0.015625)"/>
     </defs>
     <use xlink:href="#DejaVuSans-46"/>
     <use xlink:href="#DejaVuSans-61" x="48.394531"/>
     <use xlink:href="#DejaVuSans-73" x="109.673828"/>
     <use xlink:href="#DejaVuSans-74" x="161.773438"/>
     <use xlink:href="#DejaVuSans-51" x="200.982422"/>
     <use xlink:href="#DejaVuSans-43" x="279.693359"/>
     <use xlink:href="#DejaVuSans-3a" x="349.517578"/>
     <use xlink:href="#DejaVuSans-20" x="383.208984"/>
     <use xlink:href="#DejaVuSans-53" x="414.996094"/>
     <use xlink:href="#DejaVuSans-65" x="478.472656"/>
     <use xlink:href="#DejaVuSans-71" x="539.996094"/>
     <use xlink:href="#DejaVuSans-75" x="603.472656"/>
     <use xlink:href="#DejaVuSans-65" x="666.851562"/>
     <use xlink:href="#DejaVuSans-6e" x="728.375"/>
     <use xlink:href="#DejaVuSans-63" x="791.753906"/>
     <use xlink:href="#DejaVuSans-65" x="846.734375"/>
     <use xlink:href="#DejaVuSans-20" x="908.257812"/>
     <use xlink:href="#DejaVuSans-4c" x="940.044922"/>
     <use xlink:href="#DejaVuSans-65" x="994.007812"/>
     <use xlink:href="#DejaVuSans-6e" x="1055.53125"/>
     <use xlink:href="#DejaVuSans-67" x="1118.910156"/>
     <use xlink:href="#DejaVuSans-74" x="1182.386719"/>
     <use xlink:href="#DejaVuSans-68" x="1221.595703"/>
     <use xlink:href="#DejaVuSans-20" x="1284.974609"/>
     <use xlink:href="#DejaVuSans-44" x="1316.761719"/>
     <use xlink:href="#DejaVuSans-69" x="1393.763672"/>
     <use xlink:href="#DejaVuSans-73" x="1421.546875"/>
     <use xlink:href="#DejaVuSans-74" x="1473.646484"/>
     <use xlink:href="#DejaVuSans-72" x="1512.855469"/>
     <use xlink:href="#DejaVuSans-69" x="1553.96875"/>
     <use xlink:href="#DejaVuSans-62" x="1581.751953"/>
     <use xlink:href="#DejaVuSans-75" x="1645.228516"/>
     <use xlink:href="#DejaVuSans-74" x="1708.607422"/>
     <use xlink:href="#DejaVuSans-69" x="1747.816406"/>
     <use xlink:href="#DejaVuSans-6f" x="1775.599609"/>
     <use xlink:href="#DejaVuSans-6e" x="1836.78125"/>
    </g>
   </g>
  </g>
 </g>
 <defs>
  <clipPath id="pb2df9de93f">
   <rect x="32.968125" y="35.2559" width="960.19" height="317.968"/>
  </clipPath>
 </defs>
</svg>
