<?xml version="1.0" encoding="utf-8" standalone="no"?>
<!DOCTYPE svg PUBLIC "-//W3C//DTD SVG 1.1//EN"
  "http://www.w3.org/Graphics/SVG/1.1/DTD/svg11.dtd">
<svg xmlns:xlink="http://www.w3.org/1999/xlink" width="1000.098125pt" height="388.844525pt" viewBox="0 0 1000.098125 388.844525" xmlns="http://www.w3.org/2000/svg" version="1.1">
 <metadata>
  <rdf:RDF xmlns:dc="http://purl.org/dc/elements/1.1/" xmlns:cc="http://creativecommons.org/ns#" xmlns:rdf="http://www.w3.org/1999/02/22-rdf-syntax-ns#">
   <cc:Work>
    <dc:type rdf:resource="http://purl.org/dc/dcmitype/StillImage"/>
    <dc:date>2024-09-01T20:20:49.252599</dc:date>
    <dc:format>image/svg+xml</dc:format>
    <dc:creator>
     <cc:Agent>
      <dc:title>Matplotlib v3.8.2, https://matplotlib.org/</dc:title>
     </cc:Agent>
    </dc:creator>
   </cc:Work>
  </rdf:RDF>
 </metadata>
 <defs>
  <style type="text/css">*{stroke-linejoin: round; stroke-linecap: butt}</style>
 </defs>
 <g id="figure_1">
  <g id="axes_1">
   <g id="patch_1">
    <path d="M 58.418125 353.2239 
L 985.263125 353.2239 
L 985.263125 35.2559 
L 58.418125 35.2559 
z
" style="fill: #ffffff"/>
   </g>
   <g id="matplotlib.axis_1">
    <g id="xtick_1">
     <g id="text_1">
      <!-- 0 -->
      <g transform="translate(55.873125 366.30265) scale(0.08 -0.08)">
       <defs>
        <path id="DejaVuSans-30" d="M 2034 4250 
Q 1547 4250 1301 3770 
Q 1056 3291 1056 2328 
Q 1056 1369 1301 889 
Q 1547 409 2034 409 
Q 2525 409 2770 889 
Q 3016 1369 3016 2328 
Q 3016 3291 2770 3770 
Q 2525 4250 2034 4250 
z
M 2034 4750 
Q 2819 4750 3233 4129 
Q 3647 3509 3647 2328 
Q 3647 1150 3233 529 
Q 2819 -91 2034 -91 
Q 1250 -91 836 529 
Q 422 1150 422 2328 
Q 422 3509 836 4129 
Q 1250 4750 2034 4750 
z
" transform="scale(0.015625)"/>
       </defs>
       <use xlink:href="#DejaVuSans-30"/>
      </g>
     </g>
    </g>
    <g id="xtick_2">
     <g id="text_2">
      <!-- 20 -->
      <g transform="translate(238.697125 366.30265) scale(0.08 -0.08)">
       <defs>
        <path id="DejaVuSans-32" d="M 1228 531 
L 3431 531 
L 3431 0 
L 469 0 
L 469 531 
Q 828 903 1448 1529 
Q 2069 2156 2228 2338 
Q 2531 2678 2651 2914 
Q 2772 3150 2772 3378 
Q 2772 3750 2511 3984 
Q 2250 4219 1831 4219 
Q 1534 4219 1204 4116 
Q 875 4013 500 3803 
L 500 4441 
Q 881 4594 1212 4672 
Q 1544 4750 1819 4750 
Q 2544 4750 2975 4387 
Q 3406 4025 3406 3419 
Q 3406 3131 3298 2873 
Q 3191 2616 2906 2266 
Q 2828 2175 2409 1742 
Q 1991 1309 1228 531 
z
" transform="scale(0.015625)"/>
       </defs>
       <use xlink:href="#DejaVuSans-32"/>
       <use xlink:href="#DejaVuSans-30" x="63.623047"/>
      </g>
     </g>
    </g>
    <g id="xtick_3">
     <g id="text_3">
      <!-- 40 -->
      <g transform="translate(424.066125 366.30265) scale(0.08 -0.08)">
       <defs>
        <path id="DejaVuSans-34" d="M 2419 4116 
L 825 1625 
L 2419 1625 
L 2419 4116 
z
M 2253 4666 
L 3047 4666 
L 3047 1625 
L 3713 1625 
L 3713 1100 
L 3047 1100 
L 3047 0 
L 2419 0 
L 2419 1100 
L 313 1100 
L 313 1709 
L 2253 4666 
z
" transform="scale(0.015625)"/>
       </defs>
       <use xlink:href="#DejaVuSans-34"/>
       <use xlink:href="#DejaVuSans-30" x="63.623047"/>
      </g>
     </g>
    </g>
    <g id="xtick_4">
     <g id="text_4">
      <!-- 60 -->
      <g transform="translate(609.435125 366.30265) scale(0.08 -0.08)">
       <defs>
        <path id="DejaVuSans-36" d="M 2113 2584 
Q 1688 2584 1439 2293 
Q 1191 2003 1191 1497 
Q 1191 994 1439 701 
Q 1688 409 2113 409 
Q 2538 409 2786 701 
Q 3034 994 3034 1497 
Q 3034 2003 2786 2293 
Q 2538 2584 2113 2584 
z
M 3366 4563 
L 3366 3988 
Q 3128 4100 2886 4159 
Q 2644 4219 2406 4219 
Q 1781 4219 1451 3797 
Q 1122 3375 1075 2522 
Q 1259 2794 1537 2939 
Q 1816 3084 2150 3084 
Q 2853 3084 3261 2657 
Q 3669 2231 3669 1497 
Q 3669 778 3244 343 
Q 2819 -91 2113 -91 
Q 1303 -91 875 529 
Q 447 1150 447 2328 
Q 447 3434 972 4092 
Q 1497 4750 2381 4750 
Q 2619 4750 2861 4703 
Q 3103 4656 3366 4563 
z
" transform="scale(0.015625)"/>
       </defs>
       <use xlink:href="#DejaVuSans-36"/>
       <use xlink:href="#DejaVuSans-30" x="63.623047"/>
      </g>
     </g>
    </g>
    <g id="xtick_5">
     <g id="text_5">
      <!-- 80 -->
      <g transform="translate(794.804125 366.30265) scale(0.08 -0.08)">
       <defs>
        <path id="DejaVuSans-38" d="M 2034 2216 
Q 1584 2216 1326 1975 
Q 1069 1734 1069 1313 
Q 1069 891 1326 650 
Q 1584 409 2034 409 
Q 2484 409 2743 651 
Q 3003 894 3003 1313 
Q 3003 1734 2745 1975 
Q 2488 2216 2034 2216 
z
M 1403 2484 
Q 997 2584 770 2862 
Q 544 3141 544 3541 
Q 544 4100 942 4425 
Q 1341 4750 2034 4750 
Q 2731 4750 3128 4425 
Q 3525 4100 3525 3541 
Q 3525 3141 3298 2862 
Q 3072 2584 2669 2484 
Q 3125 2378 3379 2068 
Q 3634 1759 3634 1313 
Q 3634 634 3220 271 
Q 2806 -91 2034 -91 
Q 1263 -91 848 271 
Q 434 634 434 1313 
Q 434 1759 690 2068 
Q 947 2378 1403 2484 
z
M 1172 3481 
Q 1172 3119 1398 2916 
Q 1625 2713 2034 2713 
Q 2441 2713 2670 2916 
Q 2900 3119 2900 3481 
Q 2900 3844 2670 4047 
Q 2441 4250 2034 4250 
Q 1625 4250 1398 4047 
Q 1172 3844 1172 3481 
z
" transform="scale(0.015625)"/>
       </defs>
       <use xlink:href="#DejaVuSans-38"/>
       <use xlink:href="#DejaVuSans-30" x="63.623047"/>
      </g>
     </g>
    </g>
    <g id="xtick_6">
     <g id="text_6">
      <!-- 100 -->
      <g transform="translate(977.628125 366.30265) scale(0.08 -0.08)">
       <defs>
        <path id="DejaVuSans-31" d="M 794 531 
L 1825 531 
L 1825 4091 
L 703 3866 
L 703 4441 
L 1819 4666 
L 2450 4666 
L 2450 531 
L 3481 531 
L 3481 0 
L 794 0 
L 794 531 
z
" transform="scale(0.015625)"/>
       </defs>
       <use xlink:href="#DejaVuSans-31"/>
       <use xlink:href="#DejaVuSans-30" x="63.623047"/>
       <use xlink:href="#DejaVuSans-30" x="127.246094"/>
      </g>
     </g>
    </g>
    <g id="text_7">
     <!-- Transcript Position (%) -->
     <g transform="translate(466.008594 379.564837) scale(0.1 -0.1)">
      <defs>
       <path id="DejaVuSans-54" d="M -19 4666 
L 3928 4666 
L 3928 4134 
L 2272 4134 
L 2272 0 
L 1638 0 
L 1638 4134 
L -19 4134 
L -19 4666 
z
" transform="scale(0.015625)"/>
       <path id="DejaVuSans-72" d="M 2631 2963 
Q 2534 3019 2420 3045 
Q 2306 3072 2169 3072 
Q 1681 3072 1420 2755 
Q 1159 2438 1159 1844 
L 1159 0 
L 581 0 
L 581 3500 
L 1159 3500 
L 1159 2956 
Q 1341 3275 1631 3429 
Q 1922 3584 2338 3584 
Q 2397 3584 2469 3576 
Q 2541 3569 2628 3553 
L 2631 2963 
z
" transform="scale(0.015625)"/>
       <path id="DejaVuSans-61" d="M 2194 1759 
Q 1497 1759 1228 1600 
Q 959 1441 959 1056 
Q 959 750 1161 570 
Q 1363 391 1709 391 
Q 2188 391 2477 730 
Q 2766 1069 2766 1631 
L 2766 1759 
L 2194 1759 
z
M 3341 1997 
L 3341 0 
L 2766 0 
L 2766 531 
Q 2569 213 2275 61 
Q 1981 -91 1556 -91 
Q 1019 -91 701 211 
Q 384 513 384 1019 
Q 384 1609 779 1909 
Q 1175 2209 1959 2209 
L 2766 2209 
L 2766 2266 
Q 2766 2663 2505 2880 
Q 2244 3097 1772 3097 
Q 1472 3097 1187 3025 
Q 903 2953 641 2809 
L 641 3341 
Q 956 3463 1253 3523 
Q 1550 3584 1831 3584 
Q 2591 3584 2966 3190 
Q 3341 2797 3341 1997 
z
" transform="scale(0.015625)"/>
       <path id="DejaVuSans-6e" d="M 3513 2113 
L 3513 0 
L 2938 0 
L 2938 2094 
Q 2938 2591 2744 2837 
Q 2550 3084 2163 3084 
Q 1697 3084 1428 2787 
Q 1159 2491 1159 1978 
L 1159 0 
L 581 0 
L 581 3500 
L 1159 3500 
L 1159 2956 
Q 1366 3272 1645 3428 
Q 1925 3584 2291 3584 
Q 2894 3584 3203 3211 
Q 3513 2838 3513 2113 
z
" transform="scale(0.015625)"/>
       <path id="DejaVuSans-73" d="M 2834 3397 
L 2834 2853 
Q 2591 2978 2328 3040 
Q 2066 3103 1784 3103 
Q 1356 3103 1142 2972 
Q 928 2841 928 2578 
Q 928 2378 1081 2264 
Q 1234 2150 1697 2047 
L 1894 2003 
Q 2506 1872 2764 1633 
Q 3022 1394 3022 966 
Q 3022 478 2636 193 
Q 2250 -91 1575 -91 
Q 1294 -91 989 -36 
Q 684 19 347 128 
L 347 722 
Q 666 556 975 473 
Q 1284 391 1588 391 
Q 1994 391 2212 530 
Q 2431 669 2431 922 
Q 2431 1156 2273 1281 
Q 2116 1406 1581 1522 
L 1381 1569 
Q 847 1681 609 1914 
Q 372 2147 372 2553 
Q 372 3047 722 3315 
Q 1072 3584 1716 3584 
Q 2034 3584 2315 3537 
Q 2597 3491 2834 3397 
z
" transform="scale(0.015625)"/>
       <path id="DejaVuSans-63" d="M 3122 3366 
L 3122 2828 
Q 2878 2963 2633 3030 
Q 2388 3097 2138 3097 
Q 1578 3097 1268 2742 
Q 959 2388 959 1747 
Q 959 1106 1268 751 
Q 1578 397 2138 397 
Q 2388 397 2633 464 
Q 2878 531 3122 666 
L 3122 134 
Q 2881 22 2623 -34 
Q 2366 -91 2075 -91 
Q 1284 -91 818 406 
Q 353 903 353 1747 
Q 353 2603 823 3093 
Q 1294 3584 2113 3584 
Q 2378 3584 2631 3529 
Q 2884 3475 3122 3366 
z
" transform="scale(0.015625)"/>
       <path id="DejaVuSans-69" d="M 603 3500 
L 1178 3500 
L 1178 0 
L 603 0 
L 603 3500 
z
M 603 4863 
L 1178 4863 
L 1178 4134 
L 603 4134 
L 603 4863 
z
" transform="scale(0.015625)"/>
       <path id="DejaVuSans-70" d="M 1159 525 
L 1159 -1331 
L 581 -1331 
L 581 3500 
L 1159 3500 
L 1159 2969 
Q 1341 3281 1617 3432 
Q 1894 3584 2278 3584 
Q 2916 3584 3314 3078 
Q 3713 2572 3713 1747 
Q 3713 922 3314 415 
Q 2916 -91 2278 -91 
Q 1894 -91 1617 61 
Q 1341 213 1159 525 
z
M 3116 1747 
Q 3116 2381 2855 2742 
Q 2594 3103 2138 3103 
Q 1681 3103 1420 2742 
Q 1159 2381 1159 1747 
Q 1159 1113 1420 752 
Q 1681 391 2138 391 
Q 2594 391 2855 752 
Q 3116 1113 3116 1747 
z
" transform="scale(0.015625)"/>
       <path id="DejaVuSans-74" d="M 1172 4494 
L 1172 3500 
L 2356 3500 
L 2356 3053 
L 1172 3053 
L 1172 1153 
Q 1172 725 1289 603 
Q 1406 481 1766 481 
L 2356 481 
L 2356 0 
L 1766 0 
Q 1100 0 847 248 
Q 594 497 594 1153 
L 594 3053 
L 172 3053 
L 172 3500 
L 594 3500 
L 594 4494 
L 1172 4494 
z
" transform="scale(0.015625)"/>
       <path id="DejaVuSans-20" transform="scale(0.015625)"/>
       <path id="DejaVuSans-50" d="M 1259 4147 
L 1259 2394 
L 2053 2394 
Q 2494 2394 2734 2622 
Q 2975 2850 2975 3272 
Q 2975 3691 2734 3919 
Q 2494 4147 2053 4147 
L 1259 4147 
z
M 628 4666 
L 2053 4666 
Q 2838 4666 3239 4311 
Q 3641 3956 3641 3272 
Q 3641 2581 3239 2228 
Q 2838 1875 2053 1875 
L 1259 1875 
L 1259 0 
L 628 0 
L 628 4666 
z
" transform="scale(0.015625)"/>
       <path id="DejaVuSans-6f" d="M 1959 3097 
Q 1497 3097 1228 2736 
Q 959 2375 959 1747 
Q 959 1119 1226 758 
Q 1494 397 1959 397 
Q 2419 397 2687 759 
Q 2956 1122 2956 1747 
Q 2956 2369 2687 2733 
Q 2419 3097 1959 3097 
z
M 1959 3584 
Q 2709 3584 3137 3096 
Q 3566 2609 3566 1747 
Q 3566 888 3137 398 
Q 2709 -91 1959 -91 
Q 1206 -91 779 398 
Q 353 888 353 1747 
Q 353 2609 779 3096 
Q 1206 3584 1959 3584 
z
" transform="scale(0.015625)"/>
       <path id="DejaVuSans-28" d="M 1984 4856 
Q 1566 4138 1362 3434 
Q 1159 2731 1159 2009 
Q 1159 1288 1364 580 
Q 1569 -128 1984 -844 
L 1484 -844 
Q 1016 -109 783 600 
Q 550 1309 550 2009 
Q 550 2706 781 3412 
Q 1013 4119 1484 4856 
L 1984 4856 
z
" transform="scale(0.015625)"/>
       <path id="DejaVuSans-25" d="M 4653 2053 
Q 4381 2053 4226 1822 
Q 4072 1591 4072 1178 
Q 4072 772 4226 539 
Q 4381 306 4653 306 
Q 4919 306 5073 539 
Q 5228 772 5228 1178 
Q 5228 1588 5073 1820 
Q 4919 2053 4653 2053 
z
M 4653 2450 
Q 5147 2450 5437 2106 
Q 5728 1763 5728 1178 
Q 5728 594 5436 251 
Q 5144 -91 4653 -91 
Q 4153 -91 3862 251 
Q 3572 594 3572 1178 
Q 3572 1766 3864 2108 
Q 4156 2450 4653 2450 
z
M 1428 4353 
Q 1159 4353 1004 4120 
Q 850 3888 850 3481 
Q 850 3069 1003 2837 
Q 1156 2606 1428 2606 
Q 1700 2606 1854 2837 
Q 2009 3069 2009 3481 
Q 2009 3884 1853 4118 
Q 1697 4353 1428 4353 
z
M 4250 4750 
L 4750 4750 
L 1831 -91 
L 1331 -91 
L 4250 4750 
z
M 1428 4750 
Q 1922 4750 2215 4408 
Q 2509 4066 2509 3481 
Q 2509 2891 2217 2550 
Q 1925 2209 1428 2209 
Q 931 2209 642 2551 
Q 353 2894 353 3481 
Q 353 4063 643 4406 
Q 934 4750 1428 4750 
z
" transform="scale(0.015625)"/>
       <path id="DejaVuSans-29" d="M 513 4856 
L 1013 4856 
Q 1481 4119 1714 3412 
Q 1947 2706 1947 2009 
Q 1947 1309 1714 600 
Q 1481 -109 1013 -844 
L 513 -844 
Q 928 -128 1133 580 
Q 1338 1288 1338 2009 
Q 1338 2731 1133 3434 
Q 928 4138 513 4856 
z
" transform="scale(0.015625)"/>
      </defs>
      <use xlink:href="#DejaVuSans-54"/>
      <use xlink:href="#DejaVuSans-72" x="46.333984"/>
      <use xlink:href="#DejaVuSans-61" x="87.447266"/>
      <use xlink:href="#DejaVuSans-6e" x="148.726562"/>
      <use xlink:href="#DejaVuSans-73" x="212.105469"/>
      <use xlink:href="#DejaVuSans-63" x="264.205078"/>
      <use xlink:href="#DejaVuSans-72" x="319.185547"/>
      <use xlink:href="#DejaVuSans-69" x="360.298828"/>
      <use xlink:href="#DejaVuSans-70" x="388.082031"/>
      <use xlink:href="#DejaVuSans-74" x="451.558594"/>
      <use xlink:href="#DejaVuSans-20" x="490.767578"/>
      <use xlink:href="#DejaVuSans-50" x="522.554688"/>
      <use xlink:href="#DejaVuSans-6f" x="579.232422"/>
      <use xlink:href="#DejaVuSans-73" x="640.414062"/>
      <use xlink:href="#DejaVuSans-69" x="692.513672"/>
      <use xlink:href="#DejaVuSans-74" x="720.296875"/>
      <use xlink:href="#DejaVuSans-69" x="759.505859"/>
      <use xlink:href="#DejaVuSans-6f" x="787.289062"/>
      <use xlink:href="#DejaVuSans-6e" x="848.470703"/>
      <use xlink:href="#DejaVuSans-20" x="911.849609"/>
      <use xlink:href="#DejaVuSans-28" x="943.636719"/>
      <use xlink:href="#DejaVuSans-25" x="982.650391"/>
      <use xlink:href="#DejaVuSans-29" x="1077.669922"/>
     </g>
    </g>
   </g>
   <g id="matplotlib.axis_2">
    <g id="ytick_1">
     <g id="line2d_1">
      <path d="M 58.418125 353.2239 
L 985.263125 353.2239 
" clip-path="url(#p9a104e2ee3)" style="fill: none; stroke: #dedede; stroke-linecap: square"/>
     </g>
     <g id="text_8">
      <!-- 0 -->
      <g transform="translate(46.328125 356.263275) scale(0.08 -0.08)">
       <use xlink:href="#DejaVuSans-30"/>
      </g>
     </g>
    </g>
    <g id="ytick_2">
     <g id="line2d_2">
      <path d="M 58.418125 315.657308 
L 985.263125 315.657308 
" clip-path="url(#p9a104e2ee3)" style="fill: none; stroke: #dedede; stroke-linecap: square"/>
     </g>
     <g id="text_9">
      <!-- 50000 -->
      <g transform="translate(25.968125 318.696683) scale(0.08 -0.08)">
       <defs>
        <path id="DejaVuSans-35" d="M 691 4666 
L 3169 4666 
L 3169 4134 
L 1269 4134 
L 1269 2991 
Q 1406 3038 1543 3061 
Q 1681 3084 1819 3084 
Q 2600 3084 3056 2656 
Q 3513 2228 3513 1497 
Q 3513 744 3044 326 
Q 2575 -91 1722 -91 
Q 1428 -91 1123 -41 
Q 819 9 494 109 
L 494 744 
Q 775 591 1075 516 
Q 1375 441 1709 441 
Q 2250 441 2565 725 
Q 2881 1009 2881 1497 
Q 2881 1984 2565 2268 
Q 2250 2553 1709 2553 
Q 1456 2553 1204 2497 
Q 953 2441 691 2322 
L 691 4666 
z
" transform="scale(0.015625)"/>
       </defs>
       <use xlink:href="#DejaVuSans-35"/>
       <use xlink:href="#DejaVuSans-30" x="63.623047"/>
       <use xlink:href="#DejaVuSans-30" x="127.246094"/>
       <use xlink:href="#DejaVuSans-30" x="190.869141"/>
       <use xlink:href="#DejaVuSans-30" x="254.492188"/>
      </g>
     </g>
    </g>
    <g id="ytick_3">
     <g id="line2d_3">
      <path d="M 58.418125 278.090715 
L 985.263125 278.090715 
" clip-path="url(#p9a104e2ee3)" style="fill: none; stroke: #dedede; stroke-linecap: square"/>
     </g>
     <g id="text_10">
      <!-- 100000 -->
      <g transform="translate(20.878125 281.13009) scale(0.08 -0.08)">
       <use xlink:href="#DejaVuSans-31"/>
       <use xlink:href="#DejaVuSans-30" x="63.623047"/>
       <use xlink:href="#DejaVuSans-30" x="127.246094"/>
       <use xlink:href="#DejaVuSans-30" x="190.869141"/>
       <use xlink:href="#DejaVuSans-30" x="254.492188"/>
       <use xlink:href="#DejaVuSans-30" x="318.115234"/>
      </g>
     </g>
    </g>
    <g id="ytick_4">
     <g id="line2d_4">
      <path d="M 58.418125 240.524123 
L 985.263125 240.524123 
" clip-path="url(#p9a104e2ee3)" style="fill: none; stroke: #dedede; stroke-linecap: square"/>
     </g>
     <g id="text_11">
      <!-- 150000 -->
      <g transform="translate(20.878125 243.563498) scale(0.08 -0.08)">
       <use xlink:href="#DejaVuSans-31"/>
       <use xlink:href="#DejaVuSans-35" x="63.623047"/>
       <use xlink:href="#DejaVuSans-30" x="127.246094"/>
       <use xlink:href="#DejaVuSans-30" x="190.869141"/>
       <use xlink:href="#DejaVuSans-30" x="254.492188"/>
       <use xlink:href="#DejaVuSans-30" x="318.115234"/>
      </g>
     </g>
    </g>
    <g id="ytick_5">
     <g id="line2d_5">
      <path d="M 58.418125 202.95753 
L 985.263125 202.95753 
" clip-path="url(#p9a104e2ee3)" style="fill: none; stroke: #dedede; stroke-linecap: square"/>
     </g>
     <g id="text_12">
      <!-- 200000 -->
      <g transform="translate(20.878125 205.996905) scale(0.08 -0.08)">
       <use xlink:href="#DejaVuSans-32"/>
       <use xlink:href="#DejaVuSans-30" x="63.623047"/>
       <use xlink:href="#DejaVuSans-30" x="127.246094"/>
       <use xlink:href="#DejaVuSans-30" x="190.869141"/>
       <use xlink:href="#DejaVuSans-30" x="254.492188"/>
       <use xlink:href="#DejaVuSans-30" x="318.115234"/>
      </g>
     </g>
    </g>
    <g id="ytick_6">
     <g id="line2d_6">
      <path d="M 58.418125 165.390938 
L 985.263125 165.390938 
" clip-path="url(#p9a104e2ee3)" style="fill: none; stroke: #dedede; stroke-linecap: square"/>
     </g>
     <g id="text_13">
      <!-- 250000 -->
      <g transform="translate(20.878125 168.430313) scale(0.08 -0.08)">
       <use xlink:href="#DejaVuSans-32"/>
       <use xlink:href="#DejaVuSans-35" x="63.623047"/>
       <use xlink:href="#DejaVuSans-30" x="127.246094"/>
       <use xlink:href="#DejaVuSans-30" x="190.869141"/>
       <use xlink:href="#DejaVuSans-30" x="254.492188"/>
       <use xlink:href="#DejaVuSans-30" x="318.115234"/>
      </g>
     </g>
    </g>
    <g id="ytick_7">
     <g id="line2d_7">
      <path d="M 58.418125 127.824346 
L 985.263125 127.824346 
" clip-path="url(#p9a104e2ee3)" style="fill: none; stroke: #dedede; stroke-linecap: square"/>
     </g>
     <g id="text_14">
      <!-- 300000 -->
      <g transform="translate(20.878125 130.863721) scale(0.08 -0.08)">
       <defs>
        <path id="DejaVuSans-33" d="M 2597 2516 
Q 3050 2419 3304 2112 
Q 3559 1806 3559 1356 
Q 3559 666 3084 287 
Q 2609 -91 1734 -91 
Q 1441 -91 1130 -33 
Q 819 25 488 141 
L 488 750 
Q 750 597 1062 519 
Q 1375 441 1716 441 
Q 2309 441 2620 675 
Q 2931 909 2931 1356 
Q 2931 1769 2642 2001 
Q 2353 2234 1838 2234 
L 1294 2234 
L 1294 2753 
L 1863 2753 
Q 2328 2753 2575 2939 
Q 2822 3125 2822 3475 
Q 2822 3834 2567 4026 
Q 2313 4219 1838 4219 
Q 1578 4219 1281 4162 
Q 984 4106 628 3988 
L 628 4550 
Q 988 4650 1302 4700 
Q 1616 4750 1894 4750 
Q 2613 4750 3031 4423 
Q 3450 4097 3450 3541 
Q 3450 3153 3228 2886 
Q 3006 2619 2597 2516 
z
" transform="scale(0.015625)"/>
       </defs>
       <use xlink:href="#DejaVuSans-33"/>
       <use xlink:href="#DejaVuSans-30" x="63.623047"/>
       <use xlink:href="#DejaVuSans-30" x="127.246094"/>
       <use xlink:href="#DejaVuSans-30" x="190.869141"/>
       <use xlink:href="#DejaVuSans-30" x="254.492188"/>
       <use xlink:href="#DejaVuSans-30" x="318.115234"/>
      </g>
     </g>
    </g>
    <g id="ytick_8">
     <g id="line2d_8">
      <path d="M 58.418125 90.257753 
L 985.263125 90.257753 
" clip-path="url(#p9a104e2ee3)" style="fill: none; stroke: #dedede; stroke-linecap: square"/>
     </g>
     <g id="text_15">
      <!-- 350000 -->
      <g transform="translate(20.878125 93.297128) scale(0.08 -0.08)">
       <use xlink:href="#DejaVuSans-33"/>
       <use xlink:href="#DejaVuSans-35" x="63.623047"/>
       <use xlink:href="#DejaVuSans-30" x="127.246094"/>
       <use xlink:href="#DejaVuSans-30" x="190.869141"/>
       <use xlink:href="#DejaVuSans-30" x="254.492188"/>
       <use xlink:href="#DejaVuSans-30" x="318.115234"/>
      </g>
     </g>
    </g>
    <g id="ytick_9">
     <g id="line2d_9">
      <path d="M 58.418125 52.691161 
L 985.263125 52.691161 
" clip-path="url(#p9a104e2ee3)" style="fill: none; stroke: #dedede; stroke-linecap: square"/>
     </g>
     <g id="text_16">
      <!-- 400000 -->
      <g transform="translate(20.878125 55.730536) scale(0.08 -0.08)">
       <use xlink:href="#DejaVuSans-34"/>
       <use xlink:href="#DejaVuSans-30" x="63.623047"/>
       <use xlink:href="#DejaVuSans-30" x="127.246094"/>
       <use xlink:href="#DejaVuSans-30" x="190.869141"/>
       <use xlink:href="#DejaVuSans-30" x="254.492188"/>
       <use xlink:href="#DejaVuSans-30" x="318.115234"/>
      </g>
     </g>
    </g>
    <g id="text_17">
     <!-- Cumulative mapped-read depth -->
     <g transform="translate(14.798437 274.104744) rotate(-90) scale(0.1 -0.1)">
      <defs>
       <path id="DejaVuSans-43" d="M 4122 4306 
L 4122 3641 
Q 3803 3938 3442 4084 
Q 3081 4231 2675 4231 
Q 1875 4231 1450 3742 
Q 1025 3253 1025 2328 
Q 1025 1406 1450 917 
Q 1875 428 2675 428 
Q 3081 428 3442 575 
Q 3803 722 4122 1019 
L 4122 359 
Q 3791 134 3420 21 
Q 3050 -91 2638 -91 
Q 1578 -91 968 557 
Q 359 1206 359 2328 
Q 359 3453 968 4101 
Q 1578 4750 2638 4750 
Q 3056 4750 3426 4639 
Q 3797 4528 4122 4306 
z
" transform="scale(0.015625)"/>
       <path id="DejaVuSans-75" d="M 544 1381 
L 544 3500 
L 1119 3500 
L 1119 1403 
Q 1119 906 1312 657 
Q 1506 409 1894 409 
Q 2359 409 2629 706 
Q 2900 1003 2900 1516 
L 2900 3500 
L 3475 3500 
L 3475 0 
L 2900 0 
L 2900 538 
Q 2691 219 2414 64 
Q 2138 -91 1772 -91 
Q 1169 -91 856 284 
Q 544 659 544 1381 
z
M 1991 3584 
L 1991 3584 
z
" transform="scale(0.015625)"/>
       <path id="DejaVuSans-6d" d="M 3328 2828 
Q 3544 3216 3844 3400 
Q 4144 3584 4550 3584 
Q 5097 3584 5394 3201 
Q 5691 2819 5691 2113 
L 5691 0 
L 5113 0 
L 5113 2094 
Q 5113 2597 4934 2840 
Q 4756 3084 4391 3084 
Q 3944 3084 3684 2787 
Q 3425 2491 3425 1978 
L 3425 0 
L 2847 0 
L 2847 2094 
Q 2847 2600 2669 2842 
Q 2491 3084 2119 3084 
Q 1678 3084 1418 2786 
Q 1159 2488 1159 1978 
L 1159 0 
L 581 0 
L 581 3500 
L 1159 3500 
L 1159 2956 
Q 1356 3278 1631 3431 
Q 1906 3584 2284 3584 
Q 2666 3584 2933 3390 
Q 3200 3197 3328 2828 
z
" transform="scale(0.015625)"/>
       <path id="DejaVuSans-6c" d="M 603 4863 
L 1178 4863 
L 1178 0 
L 603 0 
L 603 4863 
z
" transform="scale(0.015625)"/>
       <path id="DejaVuSans-76" d="M 191 3500 
L 800 3500 
L 1894 563 
L 2988 3500 
L 3597 3500 
L 2284 0 
L 1503 0 
L 191 3500 
z
" transform="scale(0.015625)"/>
       <path id="DejaVuSans-65" d="M 3597 1894 
L 3597 1613 
L 953 1613 
Q 991 1019 1311 708 
Q 1631 397 2203 397 
Q 2534 397 2845 478 
Q 3156 559 3463 722 
L 3463 178 
Q 3153 47 2828 -22 
Q 2503 -91 2169 -91 
Q 1331 -91 842 396 
Q 353 884 353 1716 
Q 353 2575 817 3079 
Q 1281 3584 2069 3584 
Q 2775 3584 3186 3129 
Q 3597 2675 3597 1894 
z
M 3022 2063 
Q 3016 2534 2758 2815 
Q 2500 3097 2075 3097 
Q 1594 3097 1305 2825 
Q 1016 2553 972 2059 
L 3022 2063 
z
" transform="scale(0.015625)"/>
       <path id="DejaVuSans-64" d="M 2906 2969 
L 2906 4863 
L 3481 4863 
L 3481 0 
L 2906 0 
L 2906 525 
Q 2725 213 2448 61 
Q 2172 -91 1784 -91 
Q 1150 -91 751 415 
Q 353 922 353 1747 
Q 353 2572 751 3078 
Q 1150 3584 1784 3584 
Q 2172 3584 2448 3432 
Q 2725 3281 2906 2969 
z
M 947 1747 
Q 947 1113 1208 752 
Q 1469 391 1925 391 
Q 2381 391 2643 752 
Q 2906 1113 2906 1747 
Q 2906 2381 2643 2742 
Q 2381 3103 1925 3103 
Q 1469 3103 1208 2742 
Q 947 2381 947 1747 
z
" transform="scale(0.015625)"/>
       <path id="DejaVuSans-2d" d="M 313 2009 
L 1997 2009 
L 1997 1497 
L 313 1497 
L 313 2009 
z
" transform="scale(0.015625)"/>
       <path id="DejaVuSans-68" d="M 3513 2113 
L 3513 0 
L 2938 0 
L 2938 2094 
Q 2938 2591 2744 2837 
Q 2550 3084 2163 3084 
Q 1697 3084 1428 2787 
Q 1159 2491 1159 1978 
L 1159 0 
L 581 0 
L 581 4863 
L 1159 4863 
L 1159 2956 
Q 1366 3272 1645 3428 
Q 1925 3584 2291 3584 
Q 2894 3584 3203 3211 
Q 3513 2838 3513 2113 
z
" transform="scale(0.015625)"/>
      </defs>
      <use xlink:href="#DejaVuSans-43"/>
      <use xlink:href="#DejaVuSans-75" x="69.824219"/>
      <use xlink:href="#DejaVuSans-6d" x="133.203125"/>
      <use xlink:href="#DejaVuSans-75" x="230.615234"/>
      <use xlink:href="#DejaVuSans-6c" x="293.994141"/>
      <use xlink:href="#DejaVuSans-61" x="321.777344"/>
      <use xlink:href="#DejaVuSans-74" x="383.056641"/>
      <use xlink:href="#DejaVuSans-69" x="422.265625"/>
      <use xlink:href="#DejaVuSans-76" x="450.048828"/>
      <use xlink:href="#DejaVuSans-65" x="509.228516"/>
      <use xlink:href="#DejaVuSans-20" x="570.751953"/>
      <use xlink:href="#DejaVuSans-6d" x="602.539062"/>
      <use xlink:href="#DejaVuSans-61" x="699.951172"/>
      <use xlink:href="#DejaVuSans-70" x="761.230469"/>
      <use xlink:href="#DejaVuSans-70" x="824.707031"/>
      <use xlink:href="#DejaVuSans-65" x="888.183594"/>
      <use xlink:href="#DejaVuSans-64" x="949.707031"/>
      <use xlink:href="#DejaVuSans-2d" x="1013.183594"/>
      <use xlink:href="#DejaVuSans-72" x="1049.267578"/>
      <use xlink:href="#DejaVuSans-65" x="1088.130859"/>
      <use xlink:href="#DejaVuSans-61" x="1149.654297"/>
      <use xlink:href="#DejaVuSans-64" x="1210.933594"/>
      <use xlink:href="#DejaVuSans-20" x="1274.410156"/>
      <use xlink:href="#DejaVuSans-64" x="1306.197266"/>
      <use xlink:href="#DejaVuSans-65" x="1369.673828"/>
      <use xlink:href="#DejaVuSans-70" x="1431.197266"/>
      <use xlink:href="#DejaVuSans-74" x="1494.673828"/>
      <use xlink:href="#DejaVuSans-68" x="1533.882812"/>
     </g>
    </g>
   </g>
   <g id="line2d_10">
    <path d="M 58.418125 324.501075 
L 67.686575 316.388769 
L 76.955025 309.873729 
L 86.223475 302.227923 
L 95.491925 295.545527 
L 104.760375 289.888472 
L 114.028825 284.592331 
L 123.297275 280.031131 
L 132.565725 276.754707 
L 141.834175 273.198714 
L 151.102625 269.974411 
L 160.371075 266.853829 
L 169.639525 265.190863 
L 178.907975 263.760078 
L 188.176425 262.151003 
L 197.444875 260.995048 
L 206.713325 259.902354 
L 215.981775 257.86362 
L 225.250225 256.068431 
L 234.518675 254.735902 
L 243.787125 253.610201 
L 253.055575 252.331808 
L 262.324025 251.566625 
L 271.592475 250.368785 
L 280.860925 248.478487 
L 290.129375 246.154318 
L 299.397825 245.457571 
L 308.666275 245.218459 
L 317.934725 245.234775 
L 327.203175 245.152096 
L 336.471625 244.664588 
L 345.740075 244.911111 
L 355.008525 244.896421 
L 364.276975 244.951812 
L 373.545425 245.659245 
L 382.813875 246.371396 
L 392.082325 246.086158 
L 401.350775 246.885876 
L 410.619225 247.052211 
L 419.887675 247.495276 
L 429.156125 247.53255 
L 438.424575 247.582092 
L 447.693025 247.475312 
L 456.961475 247.55788 
L 466.229925 247.51445 
L 475.498375 247.801223 
L 484.766825 248.034794 
L 494.035275 248.119873 
L 503.303725 247.542556 
L 512.572175 247.740221 
L 521.840625 248.200473 
L 531.109075 248.119898 
L 540.377525 248.25445 
L 549.645975 247.791745 
L 558.914425 247.946704 
L 568.182875 247.470098 
L 577.451325 247.204505 
L 586.719775 247.049357 
L 595.988225 246.82336 
L 605.256675 245.902754 
L 614.525125 245.019034 
L 623.793575 245.083566 
L 633.062025 244.599288 
L 642.330475 244.173028 
L 651.598925 243.213496 
L 660.867375 242.883873 
L 670.135825 242.869693 
L 679.404275 242.629974 
L 688.672725 243.212318 
L 697.941175 243.689654 
L 707.209625 243.984087 
L 716.478075 244.849433 
L 725.746525 245.374362 
L 735.014975 245.652135 
L 744.283425 245.698401 
L 753.551875 245.768709 
L 762.820325 245.94422 
L 772.088775 246.133902 
L 781.357225 246.205865 
L 790.625675 246.269176 
L 799.894125 246.874316 
L 809.162575 246.962684 
L 818.431025 247.43098 
L 827.699475 247.821909 
L 836.967925 248.511913 
L 846.236375 250.331226 
L 855.504825 252.282298 
L 864.773275 253.22705 
L 874.041725 255.284537 
L 883.310175 258.203248 
L 892.578625 262.759138 
L 901.847075 265.98241 
L 911.115525 270.019058 
L 920.383975 274.685489 
L 929.652425 280.675837 
L 938.920875 288.175157 
L 948.189325 297.776801 
L 957.457775 311.381269 
L 966.726225 328.783629 
L 975.994675 345.968434 
" clip-path="url(#p9a104e2ee3)" style="fill: none; stroke: #7cb5ec; stroke-linecap: square"/>
   </g>
   <g id="line2d_11">
    <path d="M 58.418125 306.206712 
L 67.686575 293.273688 
L 76.955025 283.11332 
L 86.223475 270.631341 
L 95.491925 260.307749 
L 104.760375 251.020063 
L 114.028825 242.522714 
L 123.297275 235.291634 
L 132.565725 230.263968 
L 141.834175 224.948332 
L 151.102625 219.916348 
L 160.371075 215.51688 
L 169.639525 213.113118 
L 178.907975 210.952701 
L 188.176425 208.495463 
L 197.444875 206.942759 
L 206.713325 205.547894 
L 215.981775 202.825797 
L 225.250225 200.264786 
L 234.518675 198.34868 
L 243.787125 197.059084 
L 253.055575 195.522468 
L 262.324025 194.524284 
L 271.592475 192.794677 
L 280.860925 189.922631 
L 290.129375 186.434133 
L 299.397825 185.990196 
L 308.666275 186.072705 
L 317.934725 186.496586 
L 327.203175 186.83497 
L 336.471625 186.718699 
L 345.740075 187.604559 
L 355.008525 188.089201 
L 364.276975 188.481799 
L 373.545425 189.945493 
L 382.813875 191.371652 
L 392.082325 191.350766 
L 401.350775 192.886599 
L 410.619225 193.661136 
L 419.887675 194.892378 
L 429.156125 195.348384 
L 438.424575 195.762058 
L 447.693025 196.046229 
L 456.961475 196.691137 
L 466.229925 197.015612 
L 475.498375 198.005449 
L 484.766825 198.79274 
L 494.035275 199.449801 
L 503.303725 198.977854 
L 512.572175 199.320854 
L 521.840625 200.103653 
L 531.109075 200.299972 
L 540.377525 201.184063 
L 549.645975 201.214956 
L 558.914425 201.927665 
L 568.182875 201.818788 
L 577.451325 202.02244 
L 586.719775 202.532335 
L 595.988225 202.616785 
L 605.256675 201.581536 
L 614.525125 200.891344 
L 623.793575 201.212133 
L 633.062025 200.655292 
L 642.330475 200.396759 
L 651.598925 199.366189 
L 660.867375 199.218547 
L 670.135825 199.549995 
L 679.404275 199.436856 
L 688.672725 200.481099 
L 697.941175 201.451207 
L 707.209625 202.246432 
L 716.478075 203.521177 
L 725.746525 204.375833 
L 735.014975 204.98802 
L 744.283425 205.3291 
L 753.551875 205.92908 
L 762.820325 206.262124 
L 772.088775 206.548101 
L 781.357225 207.001679 
L 790.625675 207.477776 
L 799.894125 208.774713 
L 809.162575 209.1233 
L 818.431025 209.985141 
L 827.699475 210.945114 
L 836.967925 212.579459 
L 846.236375 215.418728 
L 855.504825 218.054841 
L 864.773275 219.13603 
L 874.041725 222.122 
L 883.310175 226.765276 
L 892.578625 234.017377 
L 901.847075 238.591066 
L 911.115525 243.858345 
L 920.383975 249.923737 
L 929.652425 257.858056 
L 938.920875 267.700459 
L 948.189325 280.170779 
L 957.457775 297.836703 
L 966.726225 320.34647 
L 975.994675 343.230258 
" clip-path="url(#p9a104e2ee3)" style="fill: none; stroke: #434348; stroke-linecap: square"/>
   </g>
   <g id="line2d_12">
    <path d="M 58.418125 332.661271 
L 67.686575 324.354945 
L 76.955025 317.791246 
L 86.223475 310.322881 
L 95.491925 304.893669 
L 104.760375 300.32547 
L 114.028825 296.874878 
L 123.297275 293.269825 
L 132.565725 291.195173 
L 141.834175 288.401019 
L 151.102625 285.939628 
L 160.371075 284.343836 
L 169.639525 282.940466 
L 178.907975 282.369121 
L 188.176425 282.459701 
L 197.444875 283.089851 
L 206.713325 283.281438 
L 215.981775 282.9704 
L 225.250225 282.892317 
L 234.518675 282.530571 
L 243.787125 282.209337 
L 253.055575 281.729558 
L 262.324025 280.823823 
L 271.592475 279.268854 
L 280.860925 278.531567 
L 290.129375 278.699535 
L 299.397825 279.481685 
L 308.666275 279.924532 
L 317.934725 280.314284 
L 327.203175 280.500945 
L 336.471625 280.61171 
L 345.740075 281.180758 
L 355.008525 281.563092 
L 364.276975 281.189941 
L 373.545425 281.784913 
L 382.813875 282.448154 
L 392.082325 282.225139 
L 401.350775 282.589605 
L 410.619225 282.858646 
L 419.887675 283.62207 
L 429.156125 284.264746 
L 438.424575 284.456082 
L 447.693025 284.756979 
L 456.961475 285.787534 
L 466.229925 286.355948 
L 475.498375 286.908035 
L 484.766825 287.200337 
L 494.035275 288.605856 
L 503.303725 288.706184 
L 512.572175 288.196495 
L 521.840625 288.462894 
L 531.109075 288.484978 
L 540.377525 289.396459 
L 549.645975 290.042066 
L 558.914425 290.5212 
L 568.182875 290.90785 
L 577.451325 291.362902 
L 586.719775 291.915805 
L 595.988225 292.287814 
L 605.256675 291.391902 
L 614.525125 291.793177 
L 623.793575 292.560192 
L 633.062025 292.448073 
L 642.330475 292.201452 
L 651.598925 291.77128 
L 660.867375 291.675701 
L 670.135825 291.914994 
L 679.404275 291.967004 
L 688.672725 292.983276 
L 697.941175 293.474543 
L 707.209625 293.999885 
L 716.478075 294.38189 
L 725.746525 294.4904 
L 735.014975 294.704658 
L 744.283425 294.90347 
L 753.551875 296.199498 
L 762.820325 296.363384 
L 772.088775 296.661396 
L 781.357225 296.704508 
L 790.625675 296.952732 
L 799.894125 298.078695 
L 809.162575 297.835857 
L 818.431025 298.740062 
L 827.699475 299.717763 
L 836.967925 300.950609 
L 846.236375 302.963338 
L 855.504825 304.751859 
L 864.773275 306.233276 
L 874.041725 308.435595 
L 883.310175 310.971503 
L 892.578625 314.038029 
L 901.847075 316.608713 
L 911.115525 319.168057 
L 920.383975 321.42237 
L 929.652425 324.530859 
L 938.920875 328.121106 
L 948.189325 332.057146 
L 957.457775 337.391569 
L 966.726225 343.871849 
L 975.994675 350.282104 
" clip-path="url(#p9a104e2ee3)" style="fill: none; stroke: #90ed7d; stroke-linecap: square"/>
   </g>
   <g id="line2d_13">
    <path d="M 58.418125 343.480922 
L 67.686575 339.936532 
L 76.955025 337.083914 
L 86.223475 334.170397 
L 95.491925 331.791298 
L 104.760375 329.88129 
L 114.028825 328.23071 
L 123.297275 326.487316 
L 132.565725 325.299618 
L 141.834175 324.008417 
L 151.102625 322.980031 
L 160.371075 322.200137 
L 169.639525 321.53183 
L 178.907975 321.08626 
L 188.176425 320.91636 
L 197.444875 320.946736 
L 206.713325 320.91663 
L 215.981775 320.772594 
L 225.250225 320.701811 
L 234.518675 320.551083 
L 243.787125 320.363949 
L 253.055575 320.124285 
L 262.324025 319.763753 
L 271.592475 319.274751 
L 280.860925 319.058236 
L 290.129375 319.073345 
L 299.397825 319.18591 
L 308.666275 319.324046 
L 317.934725 319.402165 
L 327.203175 319.477689 
L 336.471625 319.465678 
L 345.740075 319.583906 
L 355.008525 319.628308 
L 364.276975 319.468137 
L 373.545425 319.657765 
L 382.813875 319.904896 
L 392.082325 319.806296 
L 401.350775 319.943587 
L 410.619225 320.047183 
L 419.887675 320.251663 
L 429.156125 320.465978 
L 438.424575 320.586914 
L 447.693025 320.690091 
L 456.961475 321.055279 
L 466.229925 321.239908 
L 475.498375 321.466462 
L 484.766825 321.626687 
L 494.035275 322.082783 
L 503.303725 322.093609 
L 512.572175 321.952396 
L 521.840625 322.068188 
L 531.109075 322.147865 
L 540.377525 322.437162 
L 549.645975 322.64955 
L 558.914425 322.83701 
L 568.182875 322.949129 
L 577.451325 323.163436 
L 586.719775 323.389355 
L 595.988225 323.545436 
L 605.256675 323.257001 
L 614.525125 323.408016 
L 623.793575 323.695902 
L 633.062025 323.620134 
L 642.330475 323.507129 
L 651.598925 323.358049 
L 660.867375 323.277764 
L 670.135825 323.296111 
L 679.404275 323.233384 
L 688.672725 323.540811 
L 697.941175 323.720601 
L 707.209625 323.906562 
L 716.478075 324.01272 
L 725.746525 324.001522 
L 735.014975 324.054086 
L 744.283425 324.052267 
L 753.551875 324.414091 
L 762.820325 324.496932 
L 772.088775 324.563469 
L 781.357225 324.499397 
L 790.625675 324.574796 
L 799.894125 324.985592 
L 809.162575 324.966505 
L 818.431025 325.365219 
L 827.699475 325.842444 
L 836.967925 326.355015 
L 846.236375 327.154698 
L 855.504825 327.929354 
L 864.773275 328.50256 
L 874.041725 329.395787 
L 883.310175 330.507699 
L 892.578625 331.91865 
L 901.847075 333.194171 
L 911.115525 334.488411 
L 920.383975 335.744073 
L 929.652425 337.387747 
L 938.920875 339.337154 
L 948.189325 341.568664 
L 957.457775 344.479454 
L 966.726225 348.017737 
L 975.994675 351.602633 
" clip-path="url(#p9a104e2ee3)" style="fill: none; stroke: #f7a35c; stroke-linecap: square"/>
   </g>
   <g id="line2d_14">
    <path d="M 58.418125 336.710168 
L 67.686575 328.433193 
L 76.955025 321.399536 
L 86.223475 313.320427 
L 95.491925 307.798649 
L 104.760375 303.3847 
L 114.028825 300.112886 
L 123.297275 296.280826 
L 132.565725 294.078151 
L 141.834175 291.032649 
L 151.102625 288.108148 
L 160.371075 286.315846 
L 169.639525 284.541512 
L 178.907975 284.123893 
L 188.176425 284.642089 
L 197.444875 285.685892 
L 206.713325 286.268672 
L 215.981775 286.552251 
L 225.250225 287.204611 
L 234.518675 287.154857 
L 243.787125 287.338313 
L 253.055575 286.846433 
L 262.324025 285.30088 
L 271.592475 283.170048 
L 280.860925 282.299123 
L 290.129375 283.354591 
L 299.397825 284.24708 
L 308.666275 284.747737 
L 317.934725 285.098167 
L 327.203175 285.19122 
L 336.471625 285.144007 
L 345.740075 285.622445 
L 355.008525 286.154946 
L 364.276975 285.365588 
L 373.545425 285.874656 
L 382.813875 286.420793 
L 392.082325 285.723253 
L 401.350775 285.572988 
L 410.619225 285.593368 
L 419.887675 286.323592 
L 429.156125 286.989152 
L 438.424575 286.919654 
L 447.693025 286.993023 
L 456.961475 288.199206 
L 466.229925 288.886725 
L 475.498375 289.411217 
L 484.766825 289.663728 
L 494.035275 291.905081 
L 503.303725 292.15184 
L 512.572175 291.189413 
L 521.840625 291.500911 
L 531.109075 291.605218 
L 540.377525 292.686253 
L 549.645975 293.52247 
L 558.914425 293.703798 
L 568.182875 294.109934 
L 577.451325 294.689083 
L 586.719775 295.360992 
L 595.988225 295.774928 
L 605.256675 294.017281 
L 614.525125 294.53565 
L 623.793575 295.524536 
L 633.062025 294.992284 
L 642.330475 294.205717 
L 651.598925 293.461372 
L 660.867375 293.044941 
L 670.135825 292.773041 
L 679.404275 292.09563 
L 688.672725 292.808878 
L 697.941175 292.761001 
L 707.209625 293.003671 
L 716.478075 292.88489 
L 725.746525 292.308865 
L 735.014975 292.111986 
L 744.283425 291.878939 
L 753.551875 293.747111 
L 762.820325 293.674679 
L 772.088775 293.806387 
L 781.357225 293.579984 
L 790.625675 293.780858 
L 799.894125 295.479627 
L 809.162575 294.852031 
L 818.431025 295.9483 
L 827.699475 297.375718 
L 836.967925 299.179659 
L 846.236375 302.286081 
L 855.504825 304.764539 
L 864.773275 307.008341 
L 874.041725 310.142244 
L 883.310175 313.25204 
L 892.578625 316.382781 
L 901.847075 319.42465 
L 911.115525 322.812178 
L 920.383975 325.48306 
L 929.652425 329.325981 
L 938.920875 333.398813 
L 948.189325 337.515827 
L 957.457775 342.023244 
L 966.726225 346.864072 
L 975.994675 351.237294 
" clip-path="url(#p9a104e2ee3)" style="fill: none; stroke: #8085e9; stroke-linecap: square"/>
   </g>
   <g id="line2d_15">
    <path d="M 58.418125 342.510994 
L 67.686575 339.826509 
L 76.955025 337.41828 
L 86.223475 334.690652 
L 95.491925 332.06985 
L 104.760375 329.658927 
L 114.028825 327.514052 
L 123.297275 326.180785 
L 132.565725 325.108593 
L 141.834175 323.743659 
L 151.102625 322.470229 
L 160.371075 321.492018 
L 169.639525 320.688864 
L 178.907975 320.202159 
L 188.176425 319.562329 
L 197.444875 319.060781 
L 206.713325 318.567981 
L 215.981775 317.668029 
L 225.250225 316.913098 
L 234.518675 316.291822 
L 243.787125 315.730057 
L 253.055575 315.055656 
L 262.324025 314.721596 
L 271.592475 314.128212 
L 280.860925 313.729719 
L 290.129375 312.886164 
L 299.397825 312.694813 
L 308.666275 312.461882 
L 317.934725 312.243142 
L 327.203175 312.071158 
L 336.471625 311.662323 
L 345.740075 311.451378 
L 355.008525 311.518453 
L 364.276975 311.526314 
L 373.545425 311.939863 
L 382.813875 312.155662 
L 392.082325 311.929866 
L 401.350775 312.145948 
L 410.619225 312.214065 
L 419.887675 312.442639 
L 429.156125 312.646168 
L 438.424575 312.88268 
L 447.693025 312.951553 
L 456.961475 313.076007 
L 466.229925 313.063835 
L 475.498375 313.115221 
L 484.766825 313.355792 
L 494.035275 313.464811 
L 503.303725 313.304467 
L 512.572175 313.331938 
L 521.840625 313.279406 
L 531.109075 313.233756 
L 540.377525 313.317242 
L 549.645975 313.033755 
L 558.914425 313.106035 
L 568.182875 312.899922 
L 577.451325 312.842837 
L 586.719775 312.853622 
L 595.988225 312.769805 
L 605.256675 312.489126 
L 614.525125 312.185331 
L 623.793575 312.279958 
L 633.062025 312.007614 
L 642.330475 311.751314 
L 651.598925 311.520148 
L 660.867375 311.337193 
L 670.135825 311.208265 
L 679.404275 311.02023 
L 688.672725 311.11219 
L 697.941175 311.204358 
L 707.209625 311.169203 
L 716.478075 311.349366 
L 725.746525 311.349672 
L 735.014975 311.424564 
L 744.283425 311.411957 
L 753.551875 311.592699 
L 762.820325 311.726528 
L 772.088775 311.878803 
L 781.357225 312.098102 
L 790.625675 312.360043 
L 799.894125 312.64675 
L 809.162575 312.662395 
L 818.431025 312.864163 
L 827.699475 313.196749 
L 836.967925 313.60264 
L 846.236375 314.188484 
L 855.504825 314.866532 
L 864.773275 315.059372 
L 874.041725 315.60754 
L 883.310175 316.731068 
L 892.578625 318.950964 
L 901.847075 320.291419 
L 911.115525 321.69762 
L 920.383975 323.544717 
L 929.652425 325.991094 
L 938.920875 328.828859 
L 948.189325 331.991394 
L 957.457775 336.799224 
L 966.726225 343.458366 
L 975.994675 350.251006 
" clip-path="url(#p9a104e2ee3)" style="fill: none; stroke: #f15c80; stroke-linecap: square"/>
   </g>
   <g id="line2d_16">
    <path d="M 58.418125 327.916589 
L 67.686575 320.07367 
L 76.955025 309.937282 
L 86.223475 300.021377 
L 95.491925 290.981987 
L 104.760375 283.216738 
L 114.028825 277.521896 
L 123.297275 271.070746 
L 132.565725 267.223894 
L 141.834175 266.983881 
L 151.102625 267.355261 
L 160.371075 267.850501 
L 169.639525 267.890444 
L 178.907975 267.632013 
L 188.176425 269.392053 
L 197.444875 269.140142 
L 206.713325 269.036577 
L 215.981775 269.293443 
L 225.250225 268.57197 
L 234.518675 267.344693 
L 243.787125 266.700452 
L 253.055575 265.810254 
L 262.324025 265.310535 
L 271.592475 264.503894 
L 280.860925 265.003307 
L 290.129375 265.259699 
L 299.397825 266.1587 
L 308.666275 267.021829 
L 317.934725 268.185619 
L 327.203175 269.167002 
L 336.471625 270.280983 
L 345.740075 270.098194 
L 355.008525 270.293926 
L 364.276975 270.369597 
L 373.545425 271.167348 
L 382.813875 271.158592 
L 392.082325 270.890844 
L 401.350775 271.676332 
L 410.619225 272.32997 
L 419.887675 273.184021 
L 429.156125 274.074503 
L 438.424575 274.672103 
L 447.693025 275.303032 
L 456.961475 276.280845 
L 466.229925 276.881576 
L 475.498375 277.558523 
L 484.766825 278.398424 
L 494.035275 278.631892 
L 503.303725 278.665104 
L 512.572175 278.989012 
L 521.840625 279.20882 
L 531.109075 279.624113 
L 540.377525 280.588064 
L 549.645975 281.140992 
L 558.914425 281.775099 
L 568.182875 281.951576 
L 577.451325 282.253664 
L 586.719775 282.950708 
L 595.988225 283.344952 
L 605.256675 283.464214 
L 614.525125 283.567309 
L 623.793575 283.918832 
L 633.062025 284.106835 
L 642.330475 284.216332 
L 651.598925 284.296975 
L 660.867375 284.504474 
L 670.135825 283.674485 
L 679.404275 282.957647 
L 688.672725 282.454733 
L 697.941175 282.164563 
L 707.209625 281.942821 
L 716.478075 281.963853 
L 725.746525 282.748191 
L 735.014975 284.541011 
L 744.283425 285.005533 
L 753.551875 285.821433 
L 762.820325 286.501601 
L 772.088775 287.014321 
L 781.357225 287.585077 
L 790.625675 287.797102 
L 799.894125 288.275293 
L 809.162575 288.642031 
L 818.431025 286.625175 
L 827.699475 286.352541 
L 836.967925 286.749116 
L 846.236375 287.208141 
L 855.504825 288.274785 
L 864.773275 288.043934 
L 874.041725 288.84083 
L 883.310175 292.151155 
L 892.578625 294.819936 
L 901.847075 296.048826 
L 911.115525 298.100076 
L 920.383975 301.038295 
L 929.652425 302.873006 
L 938.920875 303.226033 
L 948.189325 308.83741 
L 957.457775 323.189497 
L 966.726225 335.947516 
L 975.994675 347.758251 
" clip-path="url(#p9a104e2ee3)" style="fill: none; stroke: #e4d354; stroke-linecap: square"/>
   </g>
   <g id="line2d_17">
    <path d="M 58.418125 336.466006 
L 67.686575 331.387039 
L 76.955025 323.665279 
L 86.223475 316.288558 
L 95.491925 309.3559 
L 104.760375 303.140395 
L 114.028825 298.89097 
L 123.297275 293.412675 
L 132.565725 290.706201 
L 141.834175 291.351843 
L 151.102625 292.601424 
L 160.371075 293.732642 
L 169.639525 294.013333 
L 178.907975 293.91826 
L 188.176425 295.711936 
L 197.444875 295.716868 
L 206.713325 295.766797 
L 215.981775 296.096298 
L 225.250225 295.530442 
L 234.518675 294.545191 
L 243.787125 294.061081 
L 253.055575 293.549654 
L 262.324025 293.145564 
L 271.592475 292.433533 
L 280.860925 292.919337 
L 290.129375 293.111887 
L 299.397825 293.743627 
L 308.666275 294.382351 
L 317.934725 295.361371 
L 327.203175 296.108229 
L 336.471625 296.98849 
L 345.740075 296.771227 
L 355.008525 296.842222 
L 364.276975 296.813956 
L 373.545425 297.256433 
L 382.813875 297.122475 
L 392.082325 296.851617 
L 401.350775 297.608193 
L 410.619225 298.303602 
L 419.887675 298.956824 
L 429.156125 299.672594 
L 438.424575 300.15991 
L 447.693025 300.595097 
L 456.961475 301.295695 
L 466.229925 301.712944 
L 475.498375 302.187373 
L 484.766825 302.718473 
L 494.035275 302.894559 
L 503.303725 303.032611 
L 512.572175 303.229082 
L 521.840625 303.374046 
L 531.109075 303.678244 
L 540.377525 304.490899 
L 549.645975 305.021439 
L 558.914425 305.478856 
L 568.182875 305.554063 
L 577.451325 305.787075 
L 586.719775 306.287303 
L 595.988225 306.453681 
L 605.256675 306.322448 
L 614.525125 306.391252 
L 623.793575 306.735568 
L 633.062025 306.944045 
L 642.330475 307.080385 
L 651.598925 307.19119 
L 660.867375 307.420112 
L 670.135825 306.815709 
L 679.404275 306.192364 
L 688.672725 305.783056 
L 697.941175 305.473548 
L 707.209625 305.179757 
L 716.478075 305.110543 
L 725.746525 305.902929 
L 735.014975 307.578836 
L 744.283425 308.022767 
L 753.551875 308.733395 
L 762.820325 309.18871 
L 772.088775 309.690349 
L 781.357225 310.308282 
L 790.625675 310.505471 
L 799.894125 310.775364 
L 809.162575 311.089637 
L 818.431025 309.233724 
L 827.699475 308.876707 
L 836.967925 309.082439 
L 846.236375 309.321563 
L 855.504825 310.16884 
L 864.773275 310.048346 
L 874.041725 310.873705 
L 883.310175 313.780193 
L 892.578625 315.864742 
L 901.847075 316.604934 
L 911.115525 317.792993 
L 920.383975 319.548889 
L 929.652425 320.006072 
L 938.920875 319.117157 
L 948.189325 322.946565 
L 957.457775 334.094902 
L 966.726225 342.893975 
L 975.994675 349.945746 
" clip-path="url(#p9a104e2ee3)" style="fill: none; stroke: #2b908f; stroke-linecap: square"/>
   </g>
   <g id="line2d_18">
    <path d="M 58.418125 340.465062 
L 67.686575 336.764314 
L 76.955025 325.019965 
L 86.223475 312.946505 
L 95.491925 301.624939 
L 104.760375 292.217035 
L 114.028825 287.500014 
L 123.297275 276.939644 
L 132.565725 271.540901 
L 141.834175 274.47046 
L 151.102625 278.150807 
L 160.371075 282.312268 
L 169.639525 283.86479 
L 178.907975 285.005925 
L 188.176425 291.937123 
L 197.444875 292.474474 
L 206.713325 293.43187 
L 215.981775 295.345554 
L 225.250225 294.553601 
L 234.518675 292.729812 
L 243.787125 291.838764 
L 253.055575 291.071165 
L 262.324025 290.093972 
L 271.592475 288.335239 
L 280.860925 289.818222 
L 290.129375 291.386829 
L 299.397825 292.689639 
L 308.666275 294.328925 
L 317.934725 296.655698 
L 327.203175 298.715179 
L 336.471625 301.348911 
L 345.740075 300.875646 
L 355.008525 300.748098 
L 364.276975 299.985228 
L 373.545425 300.254958 
L 382.813875 300.515759 
L 392.082325 300.731684 
L 401.350775 302.155893 
L 410.619225 303.640611 
L 419.887675 304.396481 
L 429.156125 305.334296 
L 438.424575 305.960265 
L 447.693025 306.495056 
L 456.961475 307.322508 
L 466.229925 307.927438 
L 475.498375 308.513408 
L 484.766825 308.879363 
L 494.035275 309.020441 
L 503.303725 309.011785 
L 512.572175 308.778365 
L 521.840625 308.779587 
L 531.109075 309.233662 
L 540.377525 310.891376 
L 549.645975 312.191754 
L 558.914425 313.101671 
L 568.182875 313.494519 
L 577.451325 314.025073 
L 586.719775 314.869572 
L 595.988225 315.034385 
L 605.256675 314.324635 
L 614.525125 314.531782 
L 623.793575 315.180497 
L 633.062025 315.742645 
L 642.330475 315.714694 
L 651.598925 316.030643 
L 660.867375 316.77995 
L 670.135825 314.999977 
L 679.404275 313.281645 
L 688.672725 311.953093 
L 697.941175 310.659411 
L 707.209625 309.469666 
L 716.478075 308.048969 
L 725.746525 307.851456 
L 735.014975 311.120313 
L 744.283425 312.195527 
L 753.551875 314.161363 
L 762.820325 315.235026 
L 772.088775 316.429379 
L 781.357225 317.642286 
L 790.625675 317.201167 
L 799.894125 316.497314 
L 809.162575 316.406614 
L 818.431025 309.903321 
L 827.699475 308.055099 
L 836.967925 307.976844 
L 846.236375 307.982671 
L 855.504825 309.079311 
L 864.773275 308.466754 
L 874.041725 309.879003 
L 883.310175 316.858328 
L 892.578625 318.906584 
L 901.847075 318.57155 
L 911.115525 319.833157 
L 920.383975 322.011697 
L 929.652425 321.562172 
L 938.920875 320.746359 
L 948.189325 323.754602 
L 957.457775 337.632937 
L 966.726225 346.689963 
L 975.994675 350.942597 
" clip-path="url(#p9a104e2ee3)" style="fill: none; stroke: #f45b5b; stroke-linecap: square"/>
   </g>
   <g id="line2d_19">
    <path d="M 58.418125 340.880326 
L 67.686575 337.504706 
L 76.955025 326.744938 
L 86.223475 315.728791 
L 95.491925 305.717231 
L 104.760375 298.190683 
L 114.028825 295.418245 
L 123.297275 287.122083 
L 132.565725 283.308488 
L 141.834175 287.057785 
L 151.102625 289.017028 
L 160.371075 291.907412 
L 169.639525 293.751501 
L 178.907975 295.363242 
L 188.176425 302.585117 
L 197.444875 303.233146 
L 206.713325 304.204102 
L 215.981775 306.301631 
L 225.250225 305.53349 
L 234.518675 303.739647 
L 243.787125 302.498729 
L 253.055575 301.102607 
L 262.324025 299.784476 
L 271.592475 297.055336 
L 280.860925 298.18909 
L 290.129375 299.5918 
L 299.397825 301.060478 
L 308.666275 302.848712 
L 317.934725 305.073314 
L 327.203175 307.446267 
L 336.471625 310.561732 
L 345.740075 310.030779 
L 355.008525 310.162864 
L 364.276975 309.61163 
L 373.545425 309.771113 
L 382.813875 309.963194 
L 392.082325 310.152229 
L 401.350775 311.29939 
L 410.619225 312.632542 
L 419.887675 313.189188 
L 429.156125 313.874592 
L 438.424575 314.524155 
L 447.693025 315.100496 
L 456.961475 315.64352 
L 466.229925 315.948541 
L 475.498375 316.372327 
L 484.766825 316.741028 
L 494.035275 317.033876 
L 503.303725 317.213876 
L 512.572175 317.123776 
L 521.840625 317.090916 
L 531.109075 317.353012 
L 540.377525 318.3744 
L 549.645975 319.277291 
L 558.914425 319.823629 
L 568.182875 320.008841 
L 577.451325 320.391657 
L 586.719775 320.980794 
L 595.988225 320.97079 
L 605.256675 320.222808 
L 614.525125 320.242059 
L 623.793575 320.628512 
L 633.062025 320.987479 
L 642.330475 321.124603 
L 651.598925 321.448469 
L 660.867375 322.180916 
L 670.135825 319.644683 
L 679.404275 317.501791 
L 688.672725 315.964706 
L 697.941175 314.295158 
L 707.209625 312.90715 
L 716.478075 311.258641 
L 725.746525 310.679908 
L 735.014975 314.283003 
L 744.283425 315.42476 
L 753.551875 317.285201 
L 762.820325 318.475331 
L 772.088775 319.717662 
L 781.357225 320.943737 
L 790.625675 320.174904 
L 799.894125 319.174778 
L 809.162575 318.798293 
L 818.431025 312.050312 
L 827.699475 310.181253 
L 836.967925 309.829274 
L 846.236375 309.32487 
L 855.504825 310.244046 
L 864.773275 308.712401 
L 874.041725 309.62959 
L 883.310175 316.149006 
L 892.578625 317.438649 
L 901.847075 316.590514 
L 911.115525 318.187655 
L 920.383975 321.127181 
L 929.652425 321.530392 
L 938.920875 321.016409 
L 948.189325 324.738715 
L 957.457775 337.357964 
L 966.726225 346.577012 
L 975.994675 350.973357 
" clip-path="url(#p9a104e2ee3)" style="fill: none; stroke: #91e8e1; stroke-linecap: square"/>
   </g>
   <g id="line2d_20">
    <path d="M 58.418125 340.466546 
L 67.686575 337.125503 
L 76.955025 325.621744 
L 86.223475 313.658358 
L 95.491925 302.05891 
L 104.760375 292.505339 
L 114.028825 287.933132 
L 123.297275 277.2471 
L 132.565725 271.879681 
L 141.834175 274.909666 
L 151.102625 278.194962 
L 160.371075 282.251251 
L 169.639525 283.626656 
L 178.907975 284.679545 
L 188.176425 291.56225 
L 197.444875 292.229265 
L 206.713325 293.202866 
L 215.981775 295.437011 
L 225.250225 295.053378 
L 234.518675 293.502462 
L 243.787125 292.811701 
L 253.055575 292.409039 
L 262.324025 291.666791 
L 271.592475 289.678386 
L 280.860925 291.341863 
L 290.129375 293.064866 
L 299.397825 294.655348 
L 308.666275 296.492093 
L 317.934725 298.815952 
L 327.203175 300.964857 
L 336.471625 303.824071 
L 345.740075 303.419464 
L 355.008525 303.335889 
L 364.276975 302.545482 
L 373.545425 302.740212 
L 382.813875 303.21441 
L 392.082325 303.587783 
L 401.350775 305.04189 
L 410.619225 306.566491 
L 419.887675 307.373431 
L 429.156125 308.481653 
L 438.424575 309.190386 
L 447.693025 309.785186 
L 456.961475 310.613844 
L 466.229925 311.144098 
L 475.498375 311.781891 
L 484.766825 312.077219 
L 494.035275 312.190849 
L 503.303725 312.093215 
L 512.572175 311.650085 
L 521.840625 311.467464 
L 531.109075 311.773904 
L 540.377525 313.448653 
L 549.645975 314.909106 
L 558.914425 315.87591 
L 568.182875 316.324699 
L 577.451325 316.964341 
L 586.719775 317.815343 
L 595.988225 318.052893 
L 605.256675 317.293335 
L 614.525125 317.463844 
L 623.793575 318.145204 
L 633.062025 318.686107 
L 642.330475 318.732618 
L 651.598925 319.127201 
L 660.867375 319.74812 
L 670.135825 317.708246 
L 679.404275 315.892566 
L 688.672725 314.796654 
L 697.941175 313.35137 
L 707.209625 311.996113 
L 716.478075 310.455749 
L 725.746525 310.030049 
L 735.014975 313.29053 
L 744.283425 314.207639 
L 753.551875 316.021376 
L 762.820325 316.950648 
L 772.088775 317.988191 
L 781.357225 319.054643 
L 790.625675 318.436011 
L 799.894125 317.800965 
L 809.162575 317.572144 
L 818.431025 311.364072 
L 827.699475 309.658252 
L 836.967925 309.574254 
L 846.236375 309.387802 
L 855.504825 310.467453 
L 864.773275 309.689759 
L 874.041725 311.143364 
L 883.310175 317.946757 
L 892.578625 319.639716 
L 901.847075 319.405186 
L 911.115525 321.04544 
L 920.383975 323.763825 
L 929.652425 323.363064 
L 938.920875 321.067362 
L 948.189325 324.810871 
L 957.457775 338.857917 
L 966.726225 347.36938 
L 975.994675 351.120658 
" clip-path="url(#p9a104e2ee3)" style="fill: none; stroke: #7cb5ec; stroke-linecap: square"/>
   </g>
   <g id="line2d_21">
    <path d="M 58.418125 302.496743 
L 67.686575 292.798386 
L 76.955025 287.982532 
L 86.223475 284.153032 
L 95.491925 282.090583 
L 104.760375 281.663323 
L 114.028825 281.835186 
L 123.297275 280.970264 
L 132.565725 281.001743 
L 141.834175 281.711461 
L 151.102625 283.101433 
L 160.371075 282.873022 
L 169.639525 284.392514 
L 178.907975 285.401836 
L 188.176425 286.235813 
L 197.444875 287.951497 
L 206.713325 290.550471 
L 215.981775 295.392099 
L 225.250225 301.653938 
L 234.518675 303.193969 
L 243.787125 276.56139 
L 253.055575 262.619401 
L 262.324025 264.113106 
L 271.592475 262.480287 
L 280.860925 257.874058 
L 290.129375 256.442892 
L 299.397825 258.186783 
L 308.666275 259.072085 
L 317.934725 259.191661 
L 327.203175 259.972269 
L 336.471625 260.617549 
L 345.740075 261.976796 
L 355.008525 265.543008 
L 364.276975 266.653056 
L 373.545425 268.417955 
L 382.813875 268.287946 
L 392.082325 267.324767 
L 401.350775 267.588356 
L 410.619225 269.099624 
L 419.887675 270.592517 
L 429.156125 271.151918 
L 438.424575 271.909186 
L 447.693025 273.523592 
L 456.961475 273.28332 
L 466.229925 274.228859 
L 475.498375 277.214688 
L 484.766825 277.878629 
L 494.035275 277.717902 
L 503.303725 277.754537 
L 512.572175 277.640765 
L 521.840625 278.791951 
L 531.109075 280.616657 
L 540.377525 297.372714 
L 549.645975 294.999164 
L 558.914425 293.791143 
L 568.182875 292.961752 
L 577.451325 286.534206 
L 586.719775 281.150118 
L 595.988225 279.114738 
L 605.256675 277.279618 
L 614.525125 275.87019 
L 623.793575 274.170449 
L 633.062025 269.847202 
L 642.330475 263.77684 
L 651.598925 256.21948 
L 660.867375 250.228089 
L 670.135825 246.337345 
L 679.404275 241.097347 
L 688.672725 236.543373 
L 697.941175 227.829848 
L 707.209625 222.268842 
L 716.478075 219.093844 
L 725.746525 217.623843 
L 735.014975 218.198759 
L 744.283425 218.088605 
L 753.551875 217.995695 
L 762.820325 218.453889 
L 772.088775 219.674084 
L 781.357225 220.724823 
L 790.625675 222.020452 
L 799.894125 222.14159 
L 809.162575 222.933056 
L 818.431025 224.21484 
L 827.699475 228.163765 
L 836.967925 231.267956 
L 846.236375 235.809998 
L 855.504825 239.927233 
L 864.773275 248.767909 
L 874.041725 258.714535 
L 883.310175 277.925228 
L 892.578625 297.557264 
L 901.847075 301.01285 
L 911.115525 303.291311 
L 920.383975 305.918749 
L 929.652425 309.526422 
L 938.920875 314.587925 
L 948.189325 321.125791 
L 957.457775 329.797146 
L 966.726225 339.944774 
L 975.994675 349.357427 
" clip-path="url(#p9a104e2ee3)" style="fill: none; stroke: #434348; stroke-linecap: square"/>
   </g>
   <g id="line2d_22">
    <path d="M 58.418125 281.147622 
L 67.686575 265.59787 
L 76.955025 257.07006 
L 86.223475 250.743124 
L 95.491925 247.106894 
L 104.760375 246.253444 
L 114.028825 247.306492 
L 123.297275 245.584849 
L 132.565725 244.740996 
L 141.834175 245.533327 
L 151.102625 248.642026 
L 160.371075 248.924541 
L 169.639525 251.839134 
L 178.907975 254.694861 
L 188.176425 257.427741 
L 197.444875 261.625529 
L 206.713325 267.651992 
L 215.981775 277.739994 
L 225.250225 289.321978 
L 234.518675 292.290559 
L 243.787125 250.642727 
L 253.055575 229.059586 
L 262.324025 232.175891 
L 271.592475 230.138635 
L 280.860925 223.109495 
L 290.129375 221.042348 
L 299.397825 224.075005 
L 308.666275 225.355306 
L 317.934725 225.220693 
L 327.203175 226.160629 
L 336.471625 226.662071 
L 345.740075 227.665038 
L 355.008525 232.370223 
L 364.276975 233.823398 
L 373.545425 236.69459 
L 382.813875 236.288592 
L 392.082325 234.391251 
L 401.350775 235.43985 
L 410.619225 238.99304 
L 419.887675 241.638524 
L 429.156125 242.441884 
L 438.424575 243.791999 
L 447.693025 246.574925 
L 456.961475 246.24572 
L 466.229925 248.03132 
L 475.498375 253.534117 
L 484.766825 255.000627 
L 494.035275 255.048338 
L 503.303725 255.739881 
L 512.572175 255.977654 
L 521.840625 258.153682 
L 531.109075 261.397961 
L 540.377525 287.047196 
L 549.645975 283.675224 
L 558.914425 281.89208 
L 568.182875 281.016409 
L 577.451325 270.295651 
L 586.719775 261.189706 
L 595.988225 258.164258 
L 605.256675 255.736339 
L 614.525125 254.069278 
L 623.793575 251.896661 
L 633.062025 245.590365 
L 642.330475 235.925093 
L 651.598925 224.27389 
L 660.867375 214.824481 
L 670.135825 208.849504 
L 679.404275 200.816022 
L 688.672725 193.41507 
L 697.941175 176.827455 
L 707.209625 166.609817 
L 716.478075 160.290977 
L 725.746525 156.662961 
L 735.014975 156.350852 
L 744.283425 154.374315 
L 753.551875 153.317901 
L 762.820325 153.440485 
L 772.088775 154.636609 
L 781.357225 156.714812 
L 790.625675 159.566605 
L 799.894125 160.992935 
L 809.162575 163.4339 
L 818.431025 166.169944 
L 827.699475 173.993659 
L 836.967925 179.356034 
L 846.236375 186.722269 
L 855.504825 193.254215 
L 864.773275 209.85426 
L 874.041725 227.106103 
L 883.310175 258.056091 
L 892.578625 289.015323 
L 901.847075 294.130215 
L 911.115525 297.226444 
L 920.383975 300.577706 
L 929.652425 304.823762 
L 938.920875 310.534862 
L 948.189325 317.740217 
L 957.457775 327.203564 
L 966.726225 338.447111 
L 975.994675 348.890007 
" clip-path="url(#p9a104e2ee3)" style="fill: none; stroke: #90ed7d; stroke-linecap: square"/>
   </g>
   <g id="line2d_23">
    <path d="M 58.418125 284.341137 
L 67.686575 269.573213 
L 76.955025 262.427406 
L 86.223475 258.73438 
L 95.491925 258.172895 
L 104.760375 261.836093 
L 114.028825 266.454703 
L 123.297275 267.605447 
L 132.565725 269.41104 
L 141.834175 273.072922 
L 151.102625 277.737896 
L 160.371075 279.658768 
L 169.639525 283.603177 
L 178.907975 287.477212 
L 188.176425 291.270574 
L 197.444875 296.62225 
L 206.713325 304.177441 
L 215.981775 317.358204 
L 225.250225 334.318875 
L 234.518675 338.636718 
L 243.787125 286.648053 
L 253.055575 260.026325 
L 262.324025 263.785777 
L 271.592475 261.676205 
L 280.860925 254.494584 
L 290.129375 253.670555 
L 299.397825 257.122889 
L 308.666275 258.98169 
L 317.934725 259.542986 
L 327.203175 261.549187 
L 336.471625 262.988077 
L 345.740075 265.032813 
L 355.008525 271.801125 
L 364.276975 274.418095 
L 373.545425 277.54667 
L 382.813875 276.95991 
L 392.082325 275.323203 
L 401.350775 275.730693 
L 410.619225 279.861705 
L 419.887675 282.589512 
L 429.156125 283.245129 
L 438.424575 284.589678 
L 447.693025 287.804109 
L 456.961475 287.477097 
L 466.229925 289.782616 
L 475.498375 295.96157 
L 484.766825 297.672981 
L 494.035275 298.007072 
L 503.303725 298.948282 
L 512.572175 299.030474 
L 521.840625 301.607093 
L 531.109075 304.986133 
L 540.377525 337.906615 
L 549.645975 334.111643 
L 558.914425 331.950676 
L 568.182875 331.071558 
L 577.451325 319.299662 
L 586.719775 308.943957 
L 595.988225 305.541539 
L 605.256675 303.547045 
L 614.525125 302.161294 
L 623.793575 299.722245 
L 633.062025 292.902194 
L 642.330475 282.865695 
L 651.598925 270.587431 
L 660.867375 260.321093 
L 670.135825 253.461944 
L 679.404275 244.277513 
L 688.672725 235.85197 
L 697.941175 217.668494 
L 707.209625 206.568947 
L 716.478075 200.222844 
L 725.746525 197.991693 
L 735.014975 199.200996 
L 744.283425 198.412258 
L 753.551875 198.069783 
L 762.820325 198.86285 
L 772.088775 200.756964 
L 781.357225 203.367178 
L 790.625675 206.439038 
L 799.894125 206.930076 
L 809.162575 208.806828 
L 818.431025 211.254337 
L 827.699475 219.418018 
L 836.967925 224.81194 
L 846.236375 232.156296 
L 855.504825 238.32235 
L 864.773275 254.400261 
L 874.041725 271.604259 
L 883.310175 304.892343 
L 892.578625 337.556472 
L 901.847075 341.432192 
L 911.115525 342.546416 
L 920.383975 343.487949 
L 929.652425 344.619755 
L 938.920875 346.201988 
L 948.189325 347.893033 
L 957.457775 349.414216 
L 966.726225 351.093877 
L 975.994675 352.57847 
" clip-path="url(#p9a104e2ee3)" style="fill: none; stroke: #f7a35c; stroke-linecap: square"/>
   </g>
   <g id="line2d_24">
    <path d="M 58.418125 259.919704 
L 67.686575 241.611316 
L 76.955025 233.737311 
L 86.223475 229.0074 
L 95.491925 227.471555 
L 104.760375 231.436109 
L 114.028825 236.467195 
L 123.297275 237.199208 
L 132.565725 238.859445 
L 141.834175 243.439706 
L 151.102625 248.854237 
L 160.371075 250.928508 
L 169.639525 255.885986 
L 178.907975 261.268214 
L 188.176425 265.594585 
L 197.444875 271.74865 
L 206.713325 280.68602 
L 215.981775 297.504666 
L 225.250225 315.03489 
L 234.518675 319.748484 
L 243.787125 252.906104 
L 253.055575 219.489683 
L 262.324025 223.30782 
L 271.592475 220.455547 
L 280.860925 211.75371 
L 290.129375 210.506424 
L 299.397825 215.002272 
L 308.666275 217.505838 
L 317.934725 217.381411 
L 327.203175 220.051185 
L 336.471625 222.142488 
L 345.740075 224.45304 
L 355.008525 232.905321 
L 364.276975 236.521416 
L 373.545425 240.545104 
L 382.813875 239.977453 
L 392.082325 238.183071 
L 401.350775 238.684951 
L 410.619225 243.943471 
L 419.887675 247.308747 
L 429.156125 248.239196 
L 438.424575 250.654863 
L 447.693025 254.677337 
L 456.961475 253.731012 
L 466.229925 256.267927 
L 475.498375 264.100329 
L 484.766825 266.292687 
L 494.035275 266.606684 
L 503.303725 267.248333 
L 512.572175 267.140597 
L 521.840625 270.253747 
L 531.109075 274.643511 
L 540.377525 318.243578 
L 549.645975 313.472202 
L 558.914425 310.539534 
L 568.182875 309.258216 
L 577.451325 292.44471 
L 586.719775 278.264026 
L 595.988225 273.460675 
L 605.256675 270.360456 
L 614.525125 268.163729 
L 623.793575 264.530896 
L 633.062025 254.048583 
L 642.330475 239.527673 
L 651.598925 221.302148 
L 660.867375 205.537672 
L 670.135825 195.821763 
L 679.404275 182.833331 
L 688.672725 172.297827 
L 697.941175 151.678668 
L 707.209625 135.946104 
L 716.478075 127.227591 
L 725.746525 123.088433 
L 735.014975 123.330192 
L 744.283425 121.400044 
L 753.551875 120.996157 
L 762.820325 122.41696 
L 772.088775 125.110267 
L 781.357225 128.225016 
L 790.625675 132.186053 
L 799.894125 133.094123 
L 809.162575 136.190708 
L 818.431025 139.52207 
L 827.699475 148.407397 
L 836.967925 155.145941 
L 846.236375 164.44787 
L 855.504825 173.678125 
L 864.773275 200.233387 
L 874.041725 226.367649 
L 883.310175 274.602478 
L 892.578625 319.371446 
L 901.847075 325.705127 
L 911.115525 327.738173 
L 920.383975 329.637146 
L 929.652425 331.994799 
L 938.920875 335.450418 
L 948.189325 339.328709 
L 957.457775 343.109548 
L 966.726225 347.476932 
L 975.994675 351.482495 
" clip-path="url(#p9a104e2ee3)" style="fill: none; stroke: #8085e9; stroke-linecap: square"/>
   </g>
   <g id="line2d_25">
    <path d="M 58.418125 222.625229 
L 67.686575 193.35571 
L 76.955025 178.416448 
L 86.223475 170.650429 
L 95.491925 169.135257 
L 104.760375 176.455845 
L 114.028825 186.201984 
L 123.297275 188.555215 
L 132.565725 191.762818 
L 141.834175 199.047853 
L 151.102625 208.374197 
L 160.371075 212.277583 
L 169.639525 220.083398 
L 178.907975 228.41197 
L 188.176425 236.647251 
L 197.444875 248.063553 
L 206.713325 263.978867 
L 215.981775 291.437347 
L 225.250225 325.555364 
L 234.518675 334.23778 
L 243.787125 232.400815 
L 253.055575 179.998379 
L 262.324025 187.419248 
L 271.592475 183.359345 
L 280.860925 169.015067 
L 290.129375 167.488791 
L 299.397825 174.739651 
L 308.666275 178.647186 
L 317.934725 179.430401 
L 327.203175 183.153034 
L 336.471625 185.475657 
L 345.740075 188.402277 
L 355.008525 201.175604 
L 364.276975 206.151857 
L 373.545425 212.190499 
L 382.813875 210.79224 
L 392.082325 207.206517 
L 401.350775 208.25428 
L 410.619225 217.123931 
L 419.887675 222.759865 
L 429.156125 224.031906 
L 438.424575 226.80084 
L 447.693025 233.245581 
L 456.961475 232.598835 
L 466.229925 237.222852 
L 475.498375 249.570264 
L 484.766825 253.009568 
L 494.035275 253.7918 
L 503.303725 255.889196 
L 512.572175 256.25744 
L 521.840625 261.475149 
L 531.109075 268.243417 
L 540.377525 332.32411 
L 549.645975 324.698378 
L 558.914425 320.333748 
L 568.182875 318.591681 
L 577.451325 295.137172 
L 586.719775 274.439646 
L 595.988225 267.621687 
L 605.256675 263.717151 
L 614.525125 261.017884 
L 623.793575 256.387912 
L 633.062025 243.486396 
L 642.330475 223.900678 
L 651.598925 199.638452 
L 660.867375 179.576447 
L 670.135825 165.907671 
L 679.404275 147.79964 
L 688.672725 131.216244 
L 697.941175 93.588201 
L 707.209625 70.664221 
L 716.478075 57.067912 
L 725.746525 52.02823 
L 735.014975 53.887912 
L 744.283425 51.391423 
L 753.551875 50.369522 
L 762.820325 51.856924 
L 772.088775 55.619014 
L 781.357225 61.119635 
L 790.625675 67.604324 
L 799.894125 69.320573 
L 809.162575 73.724425 
L 818.431025 78.88182 
L 827.699475 95.884062 
L 836.967925 106.862457 
L 846.236375 121.432806 
L 855.504825 133.76082 
L 864.773275 166.291476 
L 874.041725 200.461623 
L 883.310175 266.208999 
L 892.578625 329.995787 
L 901.847075 337.494991 
L 911.115525 339.428081 
L 920.383975 340.896269 
L 929.652425 342.673815 
L 938.920875 345.192814 
L 948.189325 347.787187 
L 957.457775 349.620604 
L 966.726225 351.313062 
L 975.994675 352.64196 
" clip-path="url(#p9a104e2ee3)" style="fill: none; stroke: #f15c80; stroke-linecap: square"/>
   </g>
   <g id="line2d_26">
    <path d="M 58.418125 353.2239 
L 985.263125 353.2239 
" clip-path="url(#p9a104e2ee3)" style="fill: none; stroke: #dedede; stroke-width: 2; stroke-linecap: square"/>
   </g>
   <g id="text_18">
    <!-- Qualimap RNAseq: Coverage Profile Along Genes (total) -->
    <g transform="translate(298.459375 19.3575) scale(0.16 -0.16)">
     <defs>
      <path id="DejaVuSans-51" d="M 2522 4238 
Q 1834 4238 1429 3725 
Q 1025 3213 1025 2328 
Q 1025 1447 1429 934 
Q 1834 422 2522 422 
Q 3209 422 3611 934 
Q 4013 1447 4013 2328 
Q 4013 3213 3611 3725 
Q 3209 4238 2522 4238 
z
M 3406 84 
L 4238 -825 
L 3475 -825 
L 2784 -78 
Q 2681 -84 2626 -87 
Q 2572 -91 2522 -91 
Q 1538 -91 948 567 
Q 359 1225 359 2328 
Q 359 3434 948 4092 
Q 1538 4750 2522 4750 
Q 3503 4750 4090 4092 
Q 4678 3434 4678 2328 
Q 4678 1516 4351 937 
Q 4025 359 3406 84 
z
" transform="scale(0.015625)"/>
      <path id="DejaVuSans-52" d="M 2841 2188 
Q 3044 2119 3236 1894 
Q 3428 1669 3622 1275 
L 4263 0 
L 3584 0 
L 2988 1197 
Q 2756 1666 2539 1819 
Q 2322 1972 1947 1972 
L 1259 1972 
L 1259 0 
L 628 0 
L 628 4666 
L 2053 4666 
Q 2853 4666 3247 4331 
Q 3641 3997 3641 3322 
Q 3641 2881 3436 2590 
Q 3231 2300 2841 2188 
z
M 1259 4147 
L 1259 2491 
L 2053 2491 
Q 2509 2491 2742 2702 
Q 2975 2913 2975 3322 
Q 2975 3731 2742 3939 
Q 2509 4147 2053 4147 
L 1259 4147 
z
" transform="scale(0.015625)"/>
      <path id="DejaVuSans-4e" d="M 628 4666 
L 1478 4666 
L 3547 763 
L 3547 4666 
L 4159 4666 
L 4159 0 
L 3309 0 
L 1241 3903 
L 1241 0 
L 628 0 
L 628 4666 
z
" transform="scale(0.015625)"/>
      <path id="DejaVuSans-41" d="M 2188 4044 
L 1331 1722 
L 3047 1722 
L 2188 4044 
z
M 1831 4666 
L 2547 4666 
L 4325 0 
L 3669 0 
L 3244 1197 
L 1141 1197 
L 716 0 
L 50 0 
L 1831 4666 
z
" transform="scale(0.015625)"/>
      <path id="DejaVuSans-71" d="M 947 1747 
Q 947 1113 1208 752 
Q 1469 391 1925 391 
Q 2381 391 2643 752 
Q 2906 1113 2906 1747 
Q 2906 2381 2643 2742 
Q 2381 3103 1925 3103 
Q 1469 3103 1208 2742 
Q 947 2381 947 1747 
z
M 2906 525 
Q 2725 213 2448 61 
Q 2172 -91 1784 -91 
Q 1150 -91 751 415 
Q 353 922 353 1747 
Q 353 2572 751 3078 
Q 1150 3584 1784 3584 
Q 2172 3584 2448 3432 
Q 2725 3281 2906 2969 
L 2906 3500 
L 3481 3500 
L 3481 -1331 
L 2906 -1331 
L 2906 525 
z
" transform="scale(0.015625)"/>
      <path id="DejaVuSans-3a" d="M 750 794 
L 1409 794 
L 1409 0 
L 750 0 
L 750 794 
z
M 750 3309 
L 1409 3309 
L 1409 2516 
L 750 2516 
L 750 3309 
z
" transform="scale(0.015625)"/>
      <path id="DejaVuSans-67" d="M 2906 1791 
Q 2906 2416 2648 2759 
Q 2391 3103 1925 3103 
Q 1463 3103 1205 2759 
Q 947 2416 947 1791 
Q 947 1169 1205 825 
Q 1463 481 1925 481 
Q 2391 481 2648 825 
Q 2906 1169 2906 1791 
z
M 3481 434 
Q 3481 -459 3084 -895 
Q 2688 -1331 1869 -1331 
Q 1566 -1331 1297 -1286 
Q 1028 -1241 775 -1147 
L 775 -588 
Q 1028 -725 1275 -790 
Q 1522 -856 1778 -856 
Q 2344 -856 2625 -561 
Q 2906 -266 2906 331 
L 2906 616 
Q 2728 306 2450 153 
Q 2172 0 1784 0 
Q 1141 0 747 490 
Q 353 981 353 1791 
Q 353 2603 747 3093 
Q 1141 3584 1784 3584 
Q 2172 3584 2450 3431 
Q 2728 3278 2906 2969 
L 2906 3500 
L 3481 3500 
L 3481 434 
z
" transform="scale(0.015625)"/>
      <path id="DejaVuSans-66" d="M 2375 4863 
L 2375 4384 
L 1825 4384 
Q 1516 4384 1395 4259 
Q 1275 4134 1275 3809 
L 1275 3500 
L 2222 3500 
L 2222 3053 
L 1275 3053 
L 1275 0 
L 697 0 
L 697 3053 
L 147 3053 
L 147 3500 
L 697 3500 
L 697 3744 
Q 697 4328 969 4595 
Q 1241 4863 1831 4863 
L 2375 4863 
z
" transform="scale(0.015625)"/>
      <path id="DejaVuSans-47" d="M 3809 666 
L 3809 1919 
L 2778 1919 
L 2778 2438 
L 4434 2438 
L 4434 434 
Q 4069 175 3628 42 
Q 3188 -91 2688 -91 
Q 1594 -91 976 548 
Q 359 1188 359 2328 
Q 359 3472 976 4111 
Q 1594 4750 2688 4750 
Q 3144 4750 3555 4637 
Q 3966 4525 4313 4306 
L 4313 3634 
Q 3963 3931 3569 4081 
Q 3175 4231 2741 4231 
Q 1884 4231 1454 3753 
Q 1025 3275 1025 2328 
Q 1025 1384 1454 906 
Q 1884 428 2741 428 
Q 3075 428 3337 486 
Q 3600 544 3809 666 
z
" transform="scale(0.015625)"/>
     </defs>
     <use xlink:href="#DejaVuSans-51"/>
     <use xlink:href="#DejaVuSans-75" x="78.710938"/>
     <use xlink:href="#DejaVuSans-61" x="142.089844"/>
     <use xlink:href="#DejaVuSans-6c" x="203.369141"/>
     <use xlink:href="#DejaVuSans-69" x="231.152344"/>
     <use xlink:href="#DejaVuSans-6d" x="258.935547"/>
     <use xlink:href="#DejaVuSans-61" x="356.347656"/>
     <use xlink:href="#DejaVuSans-70" x="417.626953"/>
     <use xlink:href="#DejaVuSans-20" x="481.103516"/>
     <use xlink:href="#DejaVuSans-52" x="512.890625"/>
     <use xlink:href="#DejaVuSans-4e" x="582.373047"/>
     <use xlink:href="#DejaVuSans-41" x="657.177734"/>
     <use xlink:href="#DejaVuSans-73" x="725.585938"/>
     <use xlink:href="#DejaVuSans-65" x="777.685547"/>
     <use xlink:href="#DejaVuSans-71" x="839.208984"/>
     <use xlink:href="#DejaVuSans-3a" x="902.685547"/>
     <use xlink:href="#DejaVuSans-20" x="936.376953"/>
     <use xlink:href="#DejaVuSans-43" x="968.164062"/>
     <use xlink:href="#DejaVuSans-6f" x="1037.988281"/>
     <use xlink:href="#DejaVuSans-76" x="1099.169922"/>
     <use xlink:href="#DejaVuSans-65" x="1158.349609"/>
     <use xlink:href="#DejaVuSans-72" x="1219.873047"/>
     <use xlink:href="#DejaVuSans-61" x="1260.986328"/>
     <use xlink:href="#DejaVuSans-67" x="1322.265625"/>
     <use xlink:href="#DejaVuSans-65" x="1385.742188"/>
     <use xlink:href="#DejaVuSans-20" x="1447.265625"/>
     <use xlink:href="#DejaVuSans-50" x="1479.052734"/>
     <use xlink:href="#DejaVuSans-72" x="1537.605469"/>
     <use xlink:href="#DejaVuSans-6f" x="1576.46875"/>
     <use xlink:href="#DejaVuSans-66" x="1637.650391"/>
     <use xlink:href="#DejaVuSans-69" x="1672.855469"/>
     <use xlink:href="#DejaVuSans-6c" x="1700.638672"/>
     <use xlink:href="#DejaVuSans-65" x="1728.421875"/>
     <use xlink:href="#DejaVuSans-20" x="1789.945312"/>
     <use xlink:href="#DejaVuSans-41" x="1821.732422"/>
     <use xlink:href="#DejaVuSans-6c" x="1890.140625"/>
     <use xlink:href="#DejaVuSans-6f" x="1917.923828"/>
     <use xlink:href="#DejaVuSans-6e" x="1979.105469"/>
     <use xlink:href="#DejaVuSans-67" x="2042.484375"/>
     <use xlink:href="#DejaVuSans-20" x="2105.960938"/>
     <use xlink:href="#DejaVuSans-47" x="2137.748047"/>
     <use xlink:href="#DejaVuSans-65" x="2215.238281"/>
     <use xlink:href="#DejaVuSans-6e" x="2276.761719"/>
     <use xlink:href="#DejaVuSans-65" x="2340.140625"/>
     <use xlink:href="#DejaVuSans-73" x="2401.664062"/>
     <use xlink:href="#DejaVuSans-20" x="2453.763672"/>
     <use xlink:href="#DejaVuSans-28" x="2485.550781"/>
     <use xlink:href="#DejaVuSans-74" x="2524.564453"/>
     <use xlink:href="#DejaVuSans-6f" x="2563.773438"/>
     <use xlink:href="#DejaVuSans-74" x="2624.955078"/>
     <use xlink:href="#DejaVuSans-61" x="2664.164062"/>
     <use xlink:href="#DejaVuSans-6c" x="2725.443359"/>
     <use xlink:href="#DejaVuSans-29" x="2753.226562"/>
    </g>
   </g>
  </g>
 </g>
 <defs>
  <clipPath id="p9a104e2ee3">
   <rect x="58.418125" y="35.2559" width="926.845" height="317.968"/>
  </clipPath>
 </defs>
</svg>
