<?xml version="1.0" encoding="utf-8" standalone="no"?>
<!DOCTYPE svg PUBLIC "-//W3C//DTD SVG 1.1//EN"
  "http://www.w3.org/Graphics/SVG/1.1/DTD/svg11.dtd">
<svg xmlns:xlink="http://www.w3.org/1999/xlink" width="1000.318125pt" height="388.844525pt" viewBox="0 0 1000.318125 388.844525" xmlns="http://www.w3.org/2000/svg" version="1.1">
 <metadata>
  <rdf:RDF xmlns:dc="http://purl.org/dc/elements/1.1/" xmlns:cc="http://creativecommons.org/ns#" xmlns:rdf="http://www.w3.org/1999/02/22-rdf-syntax-ns#">
   <cc:Work>
    <dc:type rdf:resource="http://purl.org/dc/dcmitype/StillImage"/>
    <dc:date>2024-09-01T20:21:30.984444</dc:date>
    <dc:format>image/svg+xml</dc:format>
    <dc:creator>
     <cc:Agent>
      <dc:title>Matplotlib v3.8.2, https://matplotlib.org/</dc:title>
     </cc:Agent>
    </dc:creator>
   </cc:Work>
  </rdf:RDF>
 </metadata>
 <defs>
  <style type="text/css">*{stroke-linejoin: round; stroke-linecap: butt}</style>
 </defs>
 <g id="figure_1">
  <g id="axes_1">
   <g id="patch_1">
    <path d="M 38.058125 353.2239 
L 993.118125 353.2239 
L 993.118125 35.2559 
L 38.058125 35.2559 
z
" style="fill: #ffffff"/>
   </g>
   <g id="patch_2">
    <path d="M 38.058125 114.998375 
L 955.533397 114.998375 
L 955.533397 -497.581547 
L 38.058125 -497.581547 
z
" clip-path="url(#pfb8251af4e)" style="fill: #c3e6c3"/>
   </g>
   <g id="patch_3">
    <path d="M 38.058125 183.062811 
L 955.533397 183.062811 
L 955.533397 114.998375 
L 38.058125 114.998375 
z
" clip-path="url(#pfb8251af4e)" style="fill: #e6dcc3"/>
   </g>
   <g id="patch_4">
    <path d="M 38.058125 353.2239 
L 955.533397 353.2239 
L 955.533397 183.062811 
L 38.058125 183.062811 
z
" clip-path="url(#pfb8251af4e)" style="fill: #e6c3c3"/>
   </g>
   <g id="matplotlib.axis_1">
    <g id="xtick_1">
     <g id="text_1">
      <!-- 0 -->
      <g transform="translate(73.097853 366.30265) scale(0.08 -0.08)">
       <defs>
        <path id="DejaVuSans-30" d="M 2034 4250 
Q 1547 4250 1301 3770 
Q 1056 3291 1056 2328 
Q 1056 1369 1301 889 
Q 1547 409 2034 409 
Q 2525 409 2770 889 
Q 3016 1369 3016 2328 
Q 3016 3291 2770 3770 
Q 2525 4250 2034 4250 
z
M 2034 4750 
Q 2819 4750 3233 4129 
Q 3647 3509 3647 2328 
Q 3647 1150 3233 529 
Q 2819 -91 2034 -91 
Q 1250 -91 836 529 
Q 422 1150 422 2328 
Q 422 3509 836 4129 
Q 1250 4750 2034 4750 
z
" transform="scale(0.015625)"/>
       </defs>
       <use xlink:href="#DejaVuSans-30"/>
      </g>
     </g>
    </g>
    <g id="xtick_2">
     <g id="text_2">
      <!-- 20 -->
      <g transform="translate(187.094647 366.30265) scale(0.08 -0.08)">
       <defs>
        <path id="DejaVuSans-32" d="M 1228 531 
L 3431 531 
L 3431 0 
L 469 0 
L 469 531 
Q 828 903 1448 1529 
Q 2069 2156 2228 2338 
Q 2531 2678 2651 2914 
Q 2772 3150 2772 3378 
Q 2772 3750 2511 3984 
Q 2250 4219 1831 4219 
Q 1534 4219 1204 4116 
Q 875 4013 500 3803 
L 500 4441 
Q 881 4594 1212 4672 
Q 1544 4750 1819 4750 
Q 2544 4750 2975 4387 
Q 3406 4025 3406 3419 
Q 3406 3131 3298 2873 
Q 3191 2616 2906 2266 
Q 2828 2175 2409 1742 
Q 1991 1309 1228 531 
z
" transform="scale(0.015625)"/>
       </defs>
       <use xlink:href="#DejaVuSans-32"/>
       <use xlink:href="#DejaVuSans-30" x="63.623047"/>
      </g>
     </g>
    </g>
    <g id="xtick_3">
     <g id="text_3">
      <!-- 40 -->
      <g transform="translate(303.636441 366.30265) scale(0.08 -0.08)">
       <defs>
        <path id="DejaVuSans-34" d="M 2419 4116 
L 825 1625 
L 2419 1625 
L 2419 4116 
z
M 2253 4666 
L 3047 4666 
L 3047 1625 
L 3713 1625 
L 3713 1100 
L 3047 1100 
L 3047 0 
L 2419 0 
L 2419 1100 
L 313 1100 
L 313 1709 
L 2253 4666 
z
" transform="scale(0.015625)"/>
       </defs>
       <use xlink:href="#DejaVuSans-34"/>
       <use xlink:href="#DejaVuSans-30" x="63.623047"/>
      </g>
     </g>
    </g>
    <g id="xtick_4">
     <g id="text_4">
      <!-- 60 -->
      <g transform="translate(420.178235 366.30265) scale(0.08 -0.08)">
       <defs>
        <path id="DejaVuSans-36" d="M 2113 2584 
Q 1688 2584 1439 2293 
Q 1191 2003 1191 1497 
Q 1191 994 1439 701 
Q 1688 409 2113 409 
Q 2538 409 2786 701 
Q 3034 994 3034 1497 
Q 3034 2003 2786 2293 
Q 2538 2584 2113 2584 
z
M 3366 4563 
L 3366 3988 
Q 3128 4100 2886 4159 
Q 2644 4219 2406 4219 
Q 1781 4219 1451 3797 
Q 1122 3375 1075 2522 
Q 1259 2794 1537 2939 
Q 1816 3084 2150 3084 
Q 2853 3084 3261 2657 
Q 3669 2231 3669 1497 
Q 3669 778 3244 343 
Q 2819 -91 2113 -91 
Q 1303 -91 875 529 
Q 447 1150 447 2328 
Q 447 3434 972 4092 
Q 1497 4750 2381 4750 
Q 2619 4750 2861 4703 
Q 3103 4656 3366 4563 
z
" transform="scale(0.015625)"/>
       </defs>
       <use xlink:href="#DejaVuSans-36"/>
       <use xlink:href="#DejaVuSans-30" x="63.623047"/>
      </g>
     </g>
    </g>
    <g id="xtick_5">
     <g id="text_5">
      <!-- 80 -->
      <g transform="translate(536.720029 366.30265) scale(0.08 -0.08)">
       <defs>
        <path id="DejaVuSans-38" d="M 2034 2216 
Q 1584 2216 1326 1975 
Q 1069 1734 1069 1313 
Q 1069 891 1326 650 
Q 1584 409 2034 409 
Q 2484 409 2743 651 
Q 3003 894 3003 1313 
Q 3003 1734 2745 1975 
Q 2488 2216 2034 2216 
z
M 1403 2484 
Q 997 2584 770 2862 
Q 544 3141 544 3541 
Q 544 4100 942 4425 
Q 1341 4750 2034 4750 
Q 2731 4750 3128 4425 
Q 3525 4100 3525 3541 
Q 3525 3141 3298 2862 
Q 3072 2584 2669 2484 
Q 3125 2378 3379 2068 
Q 3634 1759 3634 1313 
Q 3634 634 3220 271 
Q 2806 -91 2034 -91 
Q 1263 -91 848 271 
Q 434 634 434 1313 
Q 434 1759 690 2068 
Q 947 2378 1403 2484 
z
M 1172 3481 
Q 1172 3119 1398 2916 
Q 1625 2713 2034 2713 
Q 2441 2713 2670 2916 
Q 2900 3119 2900 3481 
Q 2900 3844 2670 4047 
Q 2441 4250 2034 4250 
Q 1625 4250 1398 4047 
Q 1172 3844 1172 3481 
z
" transform="scale(0.015625)"/>
       </defs>
       <use xlink:href="#DejaVuSans-38"/>
       <use xlink:href="#DejaVuSans-30" x="63.623047"/>
      </g>
     </g>
    </g>
    <g id="xtick_6">
     <g id="text_6">
      <!-- 100 -->
      <g transform="translate(650.716822 366.30265) scale(0.08 -0.08)">
       <defs>
        <path id="DejaVuSans-31" d="M 794 531 
L 1825 531 
L 1825 4091 
L 703 3866 
L 703 4441 
L 1819 4666 
L 2450 4666 
L 2450 531 
L 3481 531 
L 3481 0 
L 794 0 
L 794 531 
z
" transform="scale(0.015625)"/>
       </defs>
       <use xlink:href="#DejaVuSans-31"/>
       <use xlink:href="#DejaVuSans-30" x="63.623047"/>
       <use xlink:href="#DejaVuSans-30" x="127.246094"/>
      </g>
     </g>
    </g>
    <g id="xtick_7">
     <g id="text_7">
      <!-- 120 -->
      <g transform="translate(767.258616 366.30265) scale(0.08 -0.08)">
       <use xlink:href="#DejaVuSans-31"/>
       <use xlink:href="#DejaVuSans-32" x="63.623047"/>
       <use xlink:href="#DejaVuSans-30" x="127.246094"/>
      </g>
     </g>
    </g>
    <g id="xtick_8">
     <g id="text_8">
      <!-- 140 -->
      <g transform="translate(883.80041 366.30265) scale(0.08 -0.08)">
       <use xlink:href="#DejaVuSans-31"/>
       <use xlink:href="#DejaVuSans-34" x="63.623047"/>
       <use xlink:href="#DejaVuSans-30" x="127.246094"/>
      </g>
     </g>
    </g>
    <g id="text_9">
     <!-- Position (bp) -->
     <g transform="translate(484.285 379.564837) scale(0.1 -0.1)">
      <defs>
       <path id="DejaVuSans-50" d="M 1259 4147 
L 1259 2394 
L 2053 2394 
Q 2494 2394 2734 2622 
Q 2975 2850 2975 3272 
Q 2975 3691 2734 3919 
Q 2494 4147 2053 4147 
L 1259 4147 
z
M 628 4666 
L 2053 4666 
Q 2838 4666 3239 4311 
Q 3641 3956 3641 3272 
Q 3641 2581 3239 2228 
Q 2838 1875 2053 1875 
L 1259 1875 
L 1259 0 
L 628 0 
L 628 4666 
z
" transform="scale(0.015625)"/>
       <path id="DejaVuSans-6f" d="M 1959 3097 
Q 1497 3097 1228 2736 
Q 959 2375 959 1747 
Q 959 1119 1226 758 
Q 1494 397 1959 397 
Q 2419 397 2687 759 
Q 2956 1122 2956 1747 
Q 2956 2369 2687 2733 
Q 2419 3097 1959 3097 
z
M 1959 3584 
Q 2709 3584 3137 3096 
Q 3566 2609 3566 1747 
Q 3566 888 3137 398 
Q 2709 -91 1959 -91 
Q 1206 -91 779 398 
Q 353 888 353 1747 
Q 353 2609 779 3096 
Q 1206 3584 1959 3584 
z
" transform="scale(0.015625)"/>
       <path id="DejaVuSans-73" d="M 2834 3397 
L 2834 2853 
Q 2591 2978 2328 3040 
Q 2066 3103 1784 3103 
Q 1356 3103 1142 2972 
Q 928 2841 928 2578 
Q 928 2378 1081 2264 
Q 1234 2150 1697 2047 
L 1894 2003 
Q 2506 1872 2764 1633 
Q 3022 1394 3022 966 
Q 3022 478 2636 193 
Q 2250 -91 1575 -91 
Q 1294 -91 989 -36 
Q 684 19 347 128 
L 347 722 
Q 666 556 975 473 
Q 1284 391 1588 391 
Q 1994 391 2212 530 
Q 2431 669 2431 922 
Q 2431 1156 2273 1281 
Q 2116 1406 1581 1522 
L 1381 1569 
Q 847 1681 609 1914 
Q 372 2147 372 2553 
Q 372 3047 722 3315 
Q 1072 3584 1716 3584 
Q 2034 3584 2315 3537 
Q 2597 3491 2834 3397 
z
" transform="scale(0.015625)"/>
       <path id="DejaVuSans-69" d="M 603 3500 
L 1178 3500 
L 1178 0 
L 603 0 
L 603 3500 
z
M 603 4863 
L 1178 4863 
L 1178 4134 
L 603 4134 
L 603 4863 
z
" transform="scale(0.015625)"/>
       <path id="DejaVuSans-74" d="M 1172 4494 
L 1172 3500 
L 2356 3500 
L 2356 3053 
L 1172 3053 
L 1172 1153 
Q 1172 725 1289 603 
Q 1406 481 1766 481 
L 2356 481 
L 2356 0 
L 1766 0 
Q 1100 0 847 248 
Q 594 497 594 1153 
L 594 3053 
L 172 3053 
L 172 3500 
L 594 3500 
L 594 4494 
L 1172 4494 
z
" transform="scale(0.015625)"/>
       <path id="DejaVuSans-6e" d="M 3513 2113 
L 3513 0 
L 2938 0 
L 2938 2094 
Q 2938 2591 2744 2837 
Q 2550 3084 2163 3084 
Q 1697 3084 1428 2787 
Q 1159 2491 1159 1978 
L 1159 0 
L 581 0 
L 581 3500 
L 1159 3500 
L 1159 2956 
Q 1366 3272 1645 3428 
Q 1925 3584 2291 3584 
Q 2894 3584 3203 3211 
Q 3513 2838 3513 2113 
z
" transform="scale(0.015625)"/>
       <path id="DejaVuSans-20" transform="scale(0.015625)"/>
       <path id="DejaVuSans-28" d="M 1984 4856 
Q 1566 4138 1362 3434 
Q 1159 2731 1159 2009 
Q 1159 1288 1364 580 
Q 1569 -128 1984 -844 
L 1484 -844 
Q 1016 -109 783 600 
Q 550 1309 550 2009 
Q 550 2706 781 3412 
Q 1013 4119 1484 4856 
L 1984 4856 
z
" transform="scale(0.015625)"/>
       <path id="DejaVuSans-62" d="M 3116 1747 
Q 3116 2381 2855 2742 
Q 2594 3103 2138 3103 
Q 1681 3103 1420 2742 
Q 1159 2381 1159 1747 
Q 1159 1113 1420 752 
Q 1681 391 2138 391 
Q 2594 391 2855 752 
Q 3116 1113 3116 1747 
z
M 1159 2969 
Q 1341 3281 1617 3432 
Q 1894 3584 2278 3584 
Q 2916 3584 3314 3078 
Q 3713 2572 3713 1747 
Q 3713 922 3314 415 
Q 2916 -91 2278 -91 
Q 1894 -91 1617 61 
Q 1341 213 1159 525 
L 1159 0 
L 581 0 
L 581 4863 
L 1159 4863 
L 1159 2969 
z
" transform="scale(0.015625)"/>
       <path id="DejaVuSans-70" d="M 1159 525 
L 1159 -1331 
L 581 -1331 
L 581 3500 
L 1159 3500 
L 1159 2969 
Q 1341 3281 1617 3432 
Q 1894 3584 2278 3584 
Q 2916 3584 3314 3078 
Q 3713 2572 3713 1747 
Q 3713 922 3314 415 
Q 2916 -91 2278 -91 
Q 1894 -91 1617 61 
Q 1341 213 1159 525 
z
M 3116 1747 
Q 3116 2381 2855 2742 
Q 2594 3103 2138 3103 
Q 1681 3103 1420 2742 
Q 1159 2381 1159 1747 
Q 1159 1113 1420 752 
Q 1681 391 2138 391 
Q 2594 391 2855 752 
Q 3116 1113 3116 1747 
z
" transform="scale(0.015625)"/>
       <path id="DejaVuSans-29" d="M 513 4856 
L 1013 4856 
Q 1481 4119 1714 3412 
Q 1947 2706 1947 2009 
Q 1947 1309 1714 600 
Q 1481 -109 1013 -844 
L 513 -844 
Q 928 -128 1133 580 
Q 1338 1288 1338 2009 
Q 1338 2731 1133 3434 
Q 928 4138 513 4856 
z
" transform="scale(0.015625)"/>
      </defs>
      <use xlink:href="#DejaVuSans-50"/>
      <use xlink:href="#DejaVuSans-6f" x="56.677734"/>
      <use xlink:href="#DejaVuSans-73" x="117.859375"/>
      <use xlink:href="#DejaVuSans-69" x="169.958984"/>
      <use xlink:href="#DejaVuSans-74" x="197.742188"/>
      <use xlink:href="#DejaVuSans-69" x="236.951172"/>
      <use xlink:href="#DejaVuSans-6f" x="264.734375"/>
      <use xlink:href="#DejaVuSans-6e" x="325.916016"/>
      <use xlink:href="#DejaVuSans-20" x="389.294922"/>
      <use xlink:href="#DejaVuSans-28" x="421.082031"/>
      <use xlink:href="#DejaVuSans-62" x="460.095703"/>
      <use xlink:href="#DejaVuSans-70" x="523.572266"/>
      <use xlink:href="#DejaVuSans-29" x="587.048828"/>
     </g>
    </g>
   </g>
   <g id="matplotlib.axis_2">
    <g id="ytick_1">
     <g id="line2d_1">
      <path d="M 38.058125 353.2239 
L 993.118125 353.2239 
" clip-path="url(#pfb8251af4e)" style="fill: none; stroke: #dedede; stroke-linecap: square"/>
     </g>
     <g id="text_10">
      <!-- 0 -->
      <g transform="translate(25.968125 356.263275) scale(0.08 -0.08)">
       <use xlink:href="#DejaVuSans-30"/>
      </g>
     </g>
    </g>
    <g id="ytick_2">
     <g id="line2d_2">
      <path d="M 38.058125 310.683628 
L 993.118125 310.683628 
" clip-path="url(#pfb8251af4e)" style="fill: none; stroke: #dedede; stroke-linecap: square"/>
     </g>
     <g id="text_11">
      <!-- 5 -->
      <g transform="translate(25.968125 313.723003) scale(0.08 -0.08)">
       <defs>
        <path id="DejaVuSans-35" d="M 691 4666 
L 3169 4666 
L 3169 4134 
L 1269 4134 
L 1269 2991 
Q 1406 3038 1543 3061 
Q 1681 3084 1819 3084 
Q 2600 3084 3056 2656 
Q 3513 2228 3513 1497 
Q 3513 744 3044 326 
Q 2575 -91 1722 -91 
Q 1428 -91 1123 -41 
Q 819 9 494 109 
L 494 744 
Q 775 591 1075 516 
Q 1375 441 1709 441 
Q 2250 441 2565 725 
Q 2881 1009 2881 1497 
Q 2881 1984 2565 2268 
Q 2250 2553 1709 2553 
Q 1456 2553 1204 2497 
Q 953 2441 691 2322 
L 691 4666 
z
" transform="scale(0.015625)"/>
       </defs>
       <use xlink:href="#DejaVuSans-35"/>
      </g>
     </g>
    </g>
    <g id="ytick_3">
     <g id="line2d_3">
      <path d="M 38.058125 268.143355 
L 993.118125 268.143355 
" clip-path="url(#pfb8251af4e)" style="fill: none; stroke: #dedede; stroke-linecap: square"/>
     </g>
     <g id="text_12">
      <!-- 10 -->
      <g transform="translate(20.878125 271.18273) scale(0.08 -0.08)">
       <use xlink:href="#DejaVuSans-31"/>
       <use xlink:href="#DejaVuSans-30" x="63.623047"/>
      </g>
     </g>
    </g>
    <g id="ytick_4">
     <g id="line2d_4">
      <path d="M 38.058125 225.603083 
L 993.118125 225.603083 
" clip-path="url(#pfb8251af4e)" style="fill: none; stroke: #dedede; stroke-linecap: square"/>
     </g>
     <g id="text_13">
      <!-- 15 -->
      <g transform="translate(20.878125 228.642458) scale(0.08 -0.08)">
       <use xlink:href="#DejaVuSans-31"/>
       <use xlink:href="#DejaVuSans-35" x="63.623047"/>
      </g>
     </g>
    </g>
    <g id="ytick_5">
     <g id="line2d_5">
      <path d="M 38.058125 183.062811 
L 993.118125 183.062811 
" clip-path="url(#pfb8251af4e)" style="fill: none; stroke: #dedede; stroke-linecap: square"/>
     </g>
     <g id="text_14">
      <!-- 20 -->
      <g transform="translate(20.878125 186.102186) scale(0.08 -0.08)">
       <use xlink:href="#DejaVuSans-32"/>
       <use xlink:href="#DejaVuSans-30" x="63.623047"/>
      </g>
     </g>
    </g>
    <g id="ytick_6">
     <g id="line2d_6">
      <path d="M 38.058125 140.522538 
L 993.118125 140.522538 
" clip-path="url(#pfb8251af4e)" style="fill: none; stroke: #dedede; stroke-linecap: square"/>
     </g>
     <g id="text_15">
      <!-- 25 -->
      <g transform="translate(20.878125 143.561913) scale(0.08 -0.08)">
       <use xlink:href="#DejaVuSans-32"/>
       <use xlink:href="#DejaVuSans-35" x="63.623047"/>
      </g>
     </g>
    </g>
    <g id="ytick_7">
     <g id="line2d_7">
      <path d="M 38.058125 97.982266 
L 993.118125 97.982266 
" clip-path="url(#pfb8251af4e)" style="fill: none; stroke: #dedede; stroke-linecap: square"/>
     </g>
     <g id="text_16">
      <!-- 30 -->
      <g transform="translate(20.878125 101.021641) scale(0.08 -0.08)">
       <defs>
        <path id="DejaVuSans-33" d="M 2597 2516 
Q 3050 2419 3304 2112 
Q 3559 1806 3559 1356 
Q 3559 666 3084 287 
Q 2609 -91 1734 -91 
Q 1441 -91 1130 -33 
Q 819 25 488 141 
L 488 750 
Q 750 597 1062 519 
Q 1375 441 1716 441 
Q 2309 441 2620 675 
Q 2931 909 2931 1356 
Q 2931 1769 2642 2001 
Q 2353 2234 1838 2234 
L 1294 2234 
L 1294 2753 
L 1863 2753 
Q 2328 2753 2575 2939 
Q 2822 3125 2822 3475 
Q 2822 3834 2567 4026 
Q 2313 4219 1838 4219 
Q 1578 4219 1281 4162 
Q 984 4106 628 3988 
L 628 4550 
Q 988 4650 1302 4700 
Q 1616 4750 1894 4750 
Q 2613 4750 3031 4423 
Q 3450 4097 3450 3541 
Q 3450 3153 3228 2886 
Q 3006 2619 2597 2516 
z
" transform="scale(0.015625)"/>
       </defs>
       <use xlink:href="#DejaVuSans-33"/>
       <use xlink:href="#DejaVuSans-30" x="63.623047"/>
      </g>
     </g>
    </g>
    <g id="ytick_8">
     <g id="line2d_8">
      <path d="M 38.058125 55.441994 
L 993.118125 55.441994 
" clip-path="url(#pfb8251af4e)" style="fill: none; stroke: #dedede; stroke-linecap: square"/>
     </g>
     <g id="text_17">
      <!-- 35 -->
      <g transform="translate(20.878125 58.481369) scale(0.08 -0.08)">
       <use xlink:href="#DejaVuSans-33"/>
       <use xlink:href="#DejaVuSans-35" x="63.623047"/>
      </g>
     </g>
    </g>
    <g id="text_18">
     <!-- Phred Score -->
     <g transform="translate(14.798438 224.20865) rotate(-90) scale(0.1 -0.1)">
      <defs>
       <path id="DejaVuSans-68" d="M 3513 2113 
L 3513 0 
L 2938 0 
L 2938 2094 
Q 2938 2591 2744 2837 
Q 2550 3084 2163 3084 
Q 1697 3084 1428 2787 
Q 1159 2491 1159 1978 
L 1159 0 
L 581 0 
L 581 4863 
L 1159 4863 
L 1159 2956 
Q 1366 3272 1645 3428 
Q 1925 3584 2291 3584 
Q 2894 3584 3203 3211 
Q 3513 2838 3513 2113 
z
" transform="scale(0.015625)"/>
       <path id="DejaVuSans-72" d="M 2631 2963 
Q 2534 3019 2420 3045 
Q 2306 3072 2169 3072 
Q 1681 3072 1420 2755 
Q 1159 2438 1159 1844 
L 1159 0 
L 581 0 
L 581 3500 
L 1159 3500 
L 1159 2956 
Q 1341 3275 1631 3429 
Q 1922 3584 2338 3584 
Q 2397 3584 2469 3576 
Q 2541 3569 2628 3553 
L 2631 2963 
z
" transform="scale(0.015625)"/>
       <path id="DejaVuSans-65" d="M 3597 1894 
L 3597 1613 
L 953 1613 
Q 991 1019 1311 708 
Q 1631 397 2203 397 
Q 2534 397 2845 478 
Q 3156 559 3463 722 
L 3463 178 
Q 3153 47 2828 -22 
Q 2503 -91 2169 -91 
Q 1331 -91 842 396 
Q 353 884 353 1716 
Q 353 2575 817 3079 
Q 1281 3584 2069 3584 
Q 2775 3584 3186 3129 
Q 3597 2675 3597 1894 
z
M 3022 2063 
Q 3016 2534 2758 2815 
Q 2500 3097 2075 3097 
Q 1594 3097 1305 2825 
Q 1016 2553 972 2059 
L 3022 2063 
z
" transform="scale(0.015625)"/>
       <path id="DejaVuSans-64" d="M 2906 2969 
L 2906 4863 
L 3481 4863 
L 3481 0 
L 2906 0 
L 2906 525 
Q 2725 213 2448 61 
Q 2172 -91 1784 -91 
Q 1150 -91 751 415 
Q 353 922 353 1747 
Q 353 2572 751 3078 
Q 1150 3584 1784 3584 
Q 2172 3584 2448 3432 
Q 2725 3281 2906 2969 
z
M 947 1747 
Q 947 1113 1208 752 
Q 1469 391 1925 391 
Q 2381 391 2643 752 
Q 2906 1113 2906 1747 
Q 2906 2381 2643 2742 
Q 2381 3103 1925 3103 
Q 1469 3103 1208 2742 
Q 947 2381 947 1747 
z
" transform="scale(0.015625)"/>
       <path id="DejaVuSans-53" d="M 3425 4513 
L 3425 3897 
Q 3066 4069 2747 4153 
Q 2428 4238 2131 4238 
Q 1616 4238 1336 4038 
Q 1056 3838 1056 3469 
Q 1056 3159 1242 3001 
Q 1428 2844 1947 2747 
L 2328 2669 
Q 3034 2534 3370 2195 
Q 3706 1856 3706 1288 
Q 3706 609 3251 259 
Q 2797 -91 1919 -91 
Q 1588 -91 1214 -16 
Q 841 59 441 206 
L 441 856 
Q 825 641 1194 531 
Q 1563 422 1919 422 
Q 2459 422 2753 634 
Q 3047 847 3047 1241 
Q 3047 1584 2836 1778 
Q 2625 1972 2144 2069 
L 1759 2144 
Q 1053 2284 737 2584 
Q 422 2884 422 3419 
Q 422 4038 858 4394 
Q 1294 4750 2059 4750 
Q 2388 4750 2728 4690 
Q 3069 4631 3425 4513 
z
" transform="scale(0.015625)"/>
       <path id="DejaVuSans-63" d="M 3122 3366 
L 3122 2828 
Q 2878 2963 2633 3030 
Q 2388 3097 2138 3097 
Q 1578 3097 1268 2742 
Q 959 2388 959 1747 
Q 959 1106 1268 751 
Q 1578 397 2138 397 
Q 2388 397 2633 464 
Q 2878 531 3122 666 
L 3122 134 
Q 2881 22 2623 -34 
Q 2366 -91 2075 -91 
Q 1284 -91 818 406 
Q 353 903 353 1747 
Q 353 2603 823 3093 
Q 1294 3584 2113 3584 
Q 2378 3584 2631 3529 
Q 2884 3475 3122 3366 
z
" transform="scale(0.015625)"/>
      </defs>
      <use xlink:href="#DejaVuSans-50"/>
      <use xlink:href="#DejaVuSans-68" x="60.302734"/>
      <use xlink:href="#DejaVuSans-72" x="123.681641"/>
      <use xlink:href="#DejaVuSans-65" x="162.544922"/>
      <use xlink:href="#DejaVuSans-64" x="224.068359"/>
      <use xlink:href="#DejaVuSans-20" x="287.544922"/>
      <use xlink:href="#DejaVuSans-53" x="319.332031"/>
      <use xlink:href="#DejaVuSans-63" x="382.808594"/>
      <use xlink:href="#DejaVuSans-6f" x="437.789062"/>
      <use xlink:href="#DejaVuSans-72" x="498.970703"/>
      <use xlink:href="#DejaVuSans-65" x="537.833984"/>
     </g>
    </g>
   </g>
   <g id="line2d_9">
    <path d="M 81.469943 50.67678 
L 87.297033 46.415724 
L 93.124123 43.944897 
L 98.951212 42.838525 
L 104.778302 42.83282 
L 110.605392 42.555282 
L 116.432481 41.772906 
L 122.259571 42.023949 
L 128.086661 42.496485 
L 145.56793 41.925219 
L 174.703378 41.714726 
L 203.838827 41.885895 
L 232.974275 42.405491 
L 262.109724 42.952576 
L 291.245172 44.09687 
L 320.38062 47.325946 
L 349.516069 53.514919 
L 378.651517 47.495371 
L 407.786966 50.107839 
L 436.922414 55.92797 
L 466.057863 57.409966 
L 495.193311 75.088347 
L 524.32876 49.604849 
L 553.464208 46.990436 
L 582.599656 46.620681 
L 611.735105 46.760093 
L 640.870553 46.895671 
L 670.006002 46.442076 
L 699.14145 46.664883 
L 728.276899 46.940936 
L 757.412347 47.288648 
L 786.547796 47.702749 
L 815.683244 47.985674 
L 844.818692 48.594493 
L 873.954141 48.996521 
L 903.089589 49.372154 
L 932.225038 49.862363 
L 949.706307 51.028078 
" clip-path="url(#pfb8251af4e)" style="fill: none; stroke: #5cb85c; stroke-linecap: square"/>
   </g>
   <g id="line2d_10">
    <path d="M 81.469943 49.769388 
L 87.297033 46.107695 
L 93.124123 47.182936 
L 98.951212 47.546996 
L 104.778302 46.983767 
L 110.605392 46.536088 
L 116.432481 49.627781 
L 122.259571 53.956575 
L 128.086661 52.754347 
L 145.56793 58.545669 
L 174.703378 59.474698 
L 203.838827 62.061218 
L 232.974275 74.081747 
L 262.109724 86.902841 
L 291.245172 91.485402 
L 320.38062 88.019032 
L 349.516069 90.328194 
L 378.651517 97.037501 
L 407.786966 87.888399 
L 436.922414 79.573585 
L 466.057863 81.178132 
L 495.193311 92.426453 
L 524.32876 102.188237 
L 553.464208 89.670411 
L 582.599656 75.900111 
L 611.735105 63.975906 
L 640.870553 57.455188 
L 670.006002 54.250094 
L 699.14145 53.266318 
L 728.276899 53.194137 
L 757.412347 52.922763 
L 786.547796 52.621142 
L 815.683244 52.861116 
L 844.818692 53.120067 
L 873.954141 53.636105 
L 903.089589 54.008926 
L 932.225038 54.660896 
L 949.706307 55.925301 
" clip-path="url(#pfb8251af4e)" style="fill: none; stroke: #5cb85c; stroke-linecap: square"/>
   </g>
   <g id="line2d_11">
    <path d="M 81.469943 49.207775 
L 87.297033 47.246439 
L 93.124123 44.708327 
L 98.951212 43.724623 
L 104.778302 43.421416 
L 110.605392 43.118624 
L 116.432481 42.925947 
L 122.259571 43.220669 
L 128.086661 43.022358 
L 145.56793 42.7244 
L 174.703378 42.645564 
L 203.838827 43.012576 
L 232.974275 43.492225 
L 262.109724 43.896616 
L 291.245172 44.596783 
L 320.38062 46.182123 
L 349.516069 51.970243 
L 378.651517 53.325928 
L 407.786966 54.866603 
L 436.922414 58.520033 
L 466.057863 60.793995 
L 495.193311 65.331991 
L 524.32876 50.12127 
L 553.464208 48.909405 
L 582.599656 48.746082 
L 611.735105 49.193942 
L 640.870553 49.659576 
L 670.006002 49.517689 
L 699.14145 49.96559 
L 728.276899 50.374039 
L 757.412347 50.903267 
L 786.547796 51.468077 
L 815.683244 51.978463 
L 844.818692 52.774131 
L 873.954141 53.477152 
L 903.089589 53.977009 
L 932.225038 54.693175 
L 949.706307 56.380112 
" clip-path="url(#pfb8251af4e)" style="fill: none; stroke: #5cb85c; stroke-linecap: square"/>
   </g>
   <g id="line2d_12">
    <path d="M 81.469943 48.935745 
L 87.297033 46.031602 
L 93.124123 46.3473 
L 98.951212 46.323249 
L 104.778302 46.137288 
L 110.605392 46.071489 
L 116.432481 48.100902 
L 122.259571 50.534729 
L 128.086661 50.705401 
L 145.56793 54.020505 
L 174.703378 54.592332 
L 203.838827 56.527377 
L 232.974275 65.03938 
L 262.109724 70.403976 
L 291.245172 72.574132 
L 320.38062 70.45488 
L 349.516069 73.132799 
L 378.651517 79.296844 
L 407.786966 74.452261 
L 436.922414 68.201947 
L 466.057863 68.787443 
L 495.193311 77.120322 
L 524.32876 85.236413 
L 553.464208 76.493579 
L 582.599656 67.558894 
L 611.735105 60.606983 
L 640.870553 56.968718 
L 670.006002 55.400412 
L 699.14145 55.017344 
L 728.276899 55.028568 
L 757.412347 55.29316 
L 786.547796 55.385815 
L 815.683244 55.96985 
L 844.818692 56.643923 
L 873.954141 57.523508 
L 903.089589 58.125852 
L 932.225038 58.948188 
L 949.706307 60.664952 
" clip-path="url(#pfb8251af4e)" style="fill: none; stroke: #5cb85c; stroke-linecap: square"/>
   </g>
   <g id="line2d_13">
    <path d="M 81.469943 52.413343 
L 87.297033 46.693119 
L 93.124123 43.880832 
L 98.951212 42.550831 
L 104.778302 42.758253 
L 110.605392 42.413152 
L 116.432481 41.180369 
L 122.259571 41.863407 
L 128.086661 42.156111 
L 145.56793 41.562038 
L 174.703378 41.309117 
L 203.838827 41.472487 
L 232.974275 41.823375 
L 262.109724 41.812699 
L 291.245172 42.866627 
L 320.38062 44.188533 
L 349.516069 55.333742 
L 378.651517 46.238751 
L 407.786966 48.69898 
L 436.922414 54.018599 
L 466.057863 55.003511 
L 495.193311 77.823754 
L 524.32876 49.076163 
L 553.464208 46.385478 
L 582.599656 45.843531 
L 611.735105 45.842597 
L 640.870553 45.703945 
L 670.006002 45.256204 
L 699.14145 45.337889 
L 728.276899 45.785516 
L 757.412347 46.025514 
L 786.547796 46.353285 
L 815.683244 46.740094 
L 844.818692 47.105325 
L 873.954141 47.596859 
L 903.089589 47.571263 
L 932.225038 47.873207 
L 949.706307 48.581658 
" clip-path="url(#pfb8251af4e)" style="fill: none; stroke: #5cb85c; stroke-linecap: square"/>
   </g>
   <g id="line2d_14">
    <path d="M 81.469943 49.474222 
L 87.297033 45.760443 
L 93.124123 46.608872 
L 98.951212 47.012423 
L 104.778302 46.479762 
L 110.605392 45.819192 
L 116.432481 49.297966 
L 122.259571 55.297745 
L 128.086661 54.232249 
L 145.56793 62.229527 
L 174.703378 62.398106 
L 203.838827 64.388885 
L 232.974275 78.175994 
L 262.109724 97.330577 
L 291.245172 104.082303 
L 320.38062 119.759115 
L 349.516069 119.681009 
L 378.651517 119.217986 
L 407.786966 103.091648 
L 436.922414 86.411567 
L 466.057863 85.484675 
L 495.193311 99.792903 
L 524.32876 111.888894 
L 553.464208 95.205144 
L 582.599656 78.809457 
L 611.735105 64.835052 
L 640.870553 56.772672 
L 670.006002 52.811483 
L 699.14145 51.693713 
L 728.276899 51.109133 
L 757.412347 50.418761 
L 786.547796 49.970586 
L 815.683244 50.193425 
L 844.818692 50.347883 
L 873.954141 50.772408 
L 903.089589 51.04574 
L 932.225038 51.551397 
L 949.706307 52.290632 
" clip-path="url(#pfb8251af4e)" style="fill: none; stroke: #5cb85c; stroke-linecap: square"/>
   </g>
   <g id="line2d_15">
    <path d="M 81.469943 55.172905 
L 87.297033 47.416363 
L 93.124123 43.44515 
L 98.951212 41.788664 
L 104.778302 42.550486 
L 110.605392 42.285138 
L 116.432481 40.887083 
L 122.259571 41.382434 
L 128.086661 41.814235 
L 145.56793 41.053155 
L 174.703378 40.754603 
L 203.838827 40.828548 
L 232.974275 40.978634 
L 262.109724 41.387307 
L 291.245172 41.825181 
L 320.38062 43.690181 
L 349.516069 51.762295 
L 378.651517 109.481156 
L 407.786966 104.344445 
L 436.922414 100.409112 
L 466.057863 103.68404 
L 495.193311 74.594618 
L 524.32876 52.685351 
L 553.464208 45.76621 
L 582.599656 44.754413 
L 611.735105 44.220123 
L 640.870553 43.822985 
L 670.006002 42.837372 
L 699.14145 42.885929 
L 728.276899 43.204821 
L 757.412347 43.456851 
L 786.547796 43.796064 
L 815.683244 43.985 
L 844.818692 44.384973 
L 873.954141 44.6414 
L 903.089589 44.63591 
L 932.225038 44.84329 
L 949.706307 45.141977 
" clip-path="url(#pfb8251af4e)" style="fill: none; stroke: #5cb85c; stroke-linecap: square"/>
   </g>
   <g id="line2d_16">
    <path d="M 81.469943 48.675623 
L 87.297033 45.203245 
L 93.124123 46.182063 
L 98.951212 46.391278 
L 104.778302 45.908871 
L 110.605392 45.043933 
L 116.432481 48.472257 
L 122.259571 53.497179 
L 128.086661 52.883062 
L 145.56793 57.881778 
L 174.703378 57.456402 
L 203.838827 59.474009 
L 232.974275 70.846296 
L 262.109724 84.608568 
L 291.245172 101.881273 
L 320.38062 77.350123 
L 349.516069 94.655321 
L 378.651517 102.810412 
L 407.786966 87.810441 
L 436.922414 74.664761 
L 466.057863 77.402434 
L 495.193311 93.656018 
L 524.32876 105.764237 
L 553.464208 89.139759 
L 582.599656 71.986425 
L 611.735105 58.997039 
L 640.870553 51.62554 
L 670.006002 48.16368 
L 699.14145 47.497999 
L 728.276899 47.53547 
L 757.412347 46.857325 
L 786.547796 46.035772 
L 815.683244 46.135445 
L 844.818692 46.183553 
L 873.954141 46.534472 
L 903.089589 46.689292 
L 932.225038 47.072747 
L 949.706307 47.347837 
" clip-path="url(#pfb8251af4e)" style="fill: none; stroke: #5cb85c; stroke-linecap: square"/>
   </g>
   <g id="line2d_17">
    <path d="M 81.469943 53.202458 
L 87.297033 46.58935 
L 93.124123 43.063539 
L 98.951212 41.711633 
L 104.778302 41.969214 
L 110.605392 41.731647 
L 116.432481 41.088896 
L 122.259571 40.881827 
L 128.086661 41.431858 
L 145.56793 41.023983 
L 174.703378 40.76972 
L 203.838827 40.866882 
L 232.974275 41.217743 
L 262.109724 41.831545 
L 291.245172 42.207484 
L 320.38062 43.189717 
L 349.516069 51.393933 
L 378.651517 44.230348 
L 407.786966 45.493187 
L 436.922414 48.636814 
L 466.057863 49.938222 
L 495.193311 73.397148 
L 524.32876 48.194559 
L 553.464208 45.50629 
L 582.599656 45.073324 
L 611.735105 44.965602 
L 640.870553 44.956539 
L 670.006002 44.244787 
L 699.14145 44.376633 
L 728.276899 44.75612 
L 757.412347 45.039519 
L 786.547796 45.429622 
L 815.683244 45.737561 
L 844.818692 46.22068 
L 873.954141 46.625048 
L 903.089589 46.793065 
L 932.225038 47.182852 
L 949.706307 47.934196 
" clip-path="url(#pfb8251af4e)" style="fill: none; stroke: #5cb85c; stroke-linecap: square"/>
   </g>
   <g id="line2d_18">
    <path d="M 81.469943 51.454678 
L 87.297033 47.121568 
L 93.124123 49.570647 
L 98.951212 50.02368 
L 104.778302 49.120333 
L 110.605392 47.870963 
L 116.432481 53.007172 
L 122.259571 60.512517 
L 128.086661 59.300456 
L 145.56793 65.062821 
L 174.703378 65.192759 
L 203.838827 71.832566 
L 232.974275 82.19941 
L 262.109724 100.472853 
L 291.245172 148.699516 
L 320.38062 135.505793 
L 349.516069 136.55226 
L 378.651517 126.123925 
L 407.786966 109.790318 
L 436.922414 89.527099 
L 466.057863 89.303977 
L 495.193311 110.602771 
L 524.32876 126.174132 
L 553.464208 102.79651 
L 582.599656 83.373233 
L 611.735105 67.20616 
L 640.870553 57.266853 
L 670.006002 52.504898 
L 699.14145 51.718389 
L 728.276899 51.447791 
L 757.412347 50.592812 
L 786.547796 50.493476 
L 815.683244 50.765897 
L 844.818692 50.825029 
L 873.954141 51.292616 
L 903.089589 51.614141 
L 932.225038 52.287413 
L 949.706307 52.940607 
" clip-path="url(#pfb8251af4e)" style="fill: none; stroke: #5cb85c; stroke-linecap: square"/>
   </g>
   <g id="line2d_19">
    <path d="M 81.469943 54.514116 
L 87.297033 46.979653 
L 93.124123 43.375333 
L 98.951212 41.78976 
L 104.778302 42.435415 
L 110.605392 42.169932 
L 116.432481 40.88556 
L 122.259571 40.87461 
L 128.086661 41.786886 
L 145.56793 40.975646 
L 174.703378 40.657977 
L 203.838827 40.773072 
L 232.974275 40.818554 
L 262.109724 41.103302 
L 291.245172 42.67007 
L 320.38062 45.147412 
L 349.516069 51.676963 
L 378.651517 46.721008 
L 407.786966 48.477163 
L 436.922414 52.253153 
L 466.057863 52.942682 
L 495.193311 75.488182 
L 524.32876 48.080802 
L 553.464208 44.735092 
L 582.599656 44.070673 
L 611.735105 43.6995 
L 640.870553 43.377581 
L 670.006002 42.383153 
L 699.14145 42.472309 
L 728.276899 42.675031 
L 757.412347 42.854335 
L 786.547796 43.081668 
L 815.683244 43.272729 
L 844.818692 43.594486 
L 873.954141 43.902054 
L 903.089589 43.834001 
L 932.225038 44.020331 
L 949.706307 44.473306 
" clip-path="url(#pfb8251af4e)" style="fill: none; stroke: #5cb85c; stroke-linecap: square"/>
   </g>
   <g id="line2d_20">
    <path d="M 81.469943 47.519855 
L 87.297033 44.369787 
L 93.124123 45.148538 
L 98.951212 45.313555 
L 104.778302 44.861232 
L 110.605392 44.136759 
L 116.432481 47.100331 
L 122.259571 51.452975 
L 128.086661 50.98034 
L 145.56793 55.535235 
L 174.703378 59.030221 
L 203.838827 62.909566 
L 232.974275 74.237424 
L 262.109724 84.321409 
L 291.245172 93.73053 
L 320.38062 85.02449 
L 349.516069 93.551744 
L 378.651517 100.06149 
L 407.786966 85.109166 
L 436.922414 72.137214 
L 466.057863 74.022831 
L 495.193311 88.149072 
L 524.32876 98.99721 
L 553.464208 84.381771 
L 582.599656 68.565047 
L 611.735105 56.801609 
L 640.870553 50.08845 
L 670.006002 47.09259 
L 699.14145 46.46871 
L 728.276899 46.335013 
L 757.412347 46.046154 
L 786.547796 45.335551 
L 815.683244 45.325609 
L 844.818692 45.329406 
L 873.954141 45.635512 
L 903.089589 45.747971 
L 932.225038 46.094787 
L 949.706307 46.501302 
" clip-path="url(#pfb8251af4e)" style="fill: none; stroke: #5cb85c; stroke-linecap: square"/>
   </g>
   <g id="line2d_21">
    <path d="M 81.469943 48.209324 
L 87.297033 47.563419 
L 93.124123 45.181143 
L 98.951212 44.30971 
L 104.778302 43.766181 
L 110.605392 43.463287 
L 116.432481 43.691037 
L 122.259571 43.891796 
L 128.086661 43.434921 
L 145.56793 43.417578 
L 174.703378 43.357921 
L 203.838827 44.185888 
L 232.974275 45.218799 
L 262.109724 45.566887 
L 291.245172 46.75897 
L 320.38062 47.316376 
L 349.516069 52.627692 
L 378.651517 51.595207 
L 407.786966 53.37454 
L 436.922414 57.411013 
L 466.057863 59.506376 
L 495.193311 65.780886 
L 524.32876 52.987523 
L 553.464208 52.032548 
L 582.599656 51.91207 
L 611.735105 52.959889 
L 640.870553 53.312112 
L 670.006002 53.575198 
L 699.14145 54.428107 
L 728.276899 54.969864 
L 757.412347 55.986862 
L 786.547796 56.787777 
L 815.683244 57.399241 
L 844.818692 58.459561 
L 873.954141 59.330531 
L 903.089589 60.175147 
L 932.225038 61.03792 
L 949.706307 63.186844 
" clip-path="url(#pfb8251af4e)" style="fill: none; stroke: #5cb85c; stroke-linecap: square"/>
   </g>
   <g id="line2d_22">
    <path d="M 81.469943 50.614227 
L 87.297033 46.931307 
L 93.124123 47.362711 
L 98.951212 47.458872 
L 104.778302 47.023809 
L 110.605392 47.062182 
L 116.432481 48.74769 
L 122.259571 50.537769 
L 128.086661 49.719929 
L 145.56793 52.882483 
L 174.703378 54.083264 
L 203.838827 55.744664 
L 232.974275 62.185135 
L 262.109724 65.871105 
L 291.245172 69.942839 
L 320.38062 71.563802 
L 349.516069 71.739034 
L 378.651517 74.931372 
L 407.786966 71.174377 
L 436.922414 67.324132 
L 466.057863 68.355737 
L 495.193311 73.702543 
L 524.32876 78.537552 
L 553.464208 73.122165 
L 582.599656 66.983698 
L 611.735105 61.168934 
L 640.870553 58.49704 
L 670.006002 57.762775 
L 699.14145 57.338763 
L 728.276899 57.531838 
L 757.412347 58.342346 
L 786.547796 58.938911 
L 815.683244 60.068917 
L 844.818692 60.906538 
L 873.954141 61.881731 
L 903.089589 62.912368 
L 932.225038 63.621551 
L 949.706307 65.749255 
" clip-path="url(#pfb8251af4e)" style="fill: none; stroke: #5cb85c; stroke-linecap: square"/>
   </g>
   <g id="line2d_23">
    <path d="M 81.469943 49.379882 
L 87.297033 47.841749 
L 93.124123 45.064082 
L 98.951212 44.122929 
L 104.778302 43.659157 
L 110.605392 43.302913 
L 116.432481 43.336564 
L 122.259571 43.395246 
L 128.086661 43.134872 
L 145.56793 43.118284 
L 174.703378 42.995039 
L 203.838827 43.376691 
L 232.974275 44.296274 
L 262.109724 45.034204 
L 291.245172 45.52556 
L 320.38062 46.70139 
L 349.516069 51.7855 
L 378.651517 88.55825 
L 407.786966 87.011477 
L 436.922414 86.52214 
L 466.057863 88.453095 
L 495.193311 69.900188 
L 524.32876 56.362874 
L 553.464208 52.380101 
L 582.599656 51.546304 
L 611.735105 52.19867 
L 640.870553 52.624751 
L 670.006002 52.643241 
L 699.14145 53.792888 
L 728.276899 54.622478 
L 757.412347 56.035359 
L 786.547796 57.067472 
L 815.683244 57.902751 
L 844.818692 59.174115 
L 873.954141 60.295666 
L 903.089589 61.319802 
L 932.225038 62.328169 
L 949.706307 64.436619 
" clip-path="url(#pfb8251af4e)" style="fill: none; stroke: #5cb85c; stroke-linecap: square"/>
   </g>
   <g id="line2d_24">
    <path d="M 81.469943 49.127421 
L 87.297033 46.057199 
L 93.124123 46.29798 
L 98.951212 46.083393 
L 104.778302 45.928169 
L 110.605392 45.867609 
L 116.432481 47.504201 
L 122.259571 48.847022 
L 128.086661 48.863182 
L 145.56793 51.272597 
L 174.703378 51.815368 
L 203.838827 53.279684 
L 232.974275 59.95891 
L 262.109724 65.984162 
L 291.245172 64.535717 
L 320.38062 65.305295 
L 349.516069 71.444617 
L 378.651517 75.993602 
L 407.786966 70.803021 
L 436.922414 65.30865 
L 466.057863 65.933402 
L 495.193311 73.399373 
L 524.32876 80.64185 
L 553.464208 72.169442 
L 582.599656 64.452338 
L 611.735105 58.757479 
L 640.870553 55.739141 
L 670.006002 54.825906 
L 699.14145 54.43777 
L 728.276899 54.664921 
L 757.412347 55.435741 
L 786.547796 55.774948 
L 815.683244 56.907082 
L 844.818692 57.862182 
L 873.954141 59.036744 
L 903.089589 60.101507 
L 932.225038 60.799792 
L 949.706307 62.706717 
" clip-path="url(#pfb8251af4e)" style="fill: none; stroke: #5cb85c; stroke-linecap: square"/>
   </g>
   <g id="line2d_25">
    <path d="M 81.469943 48.714995 
L 87.297033 47.222621 
L 93.124123 44.556324 
L 98.951212 43.726487 
L 104.778302 43.422773 
L 110.605392 43.034314 
L 116.432481 43.106722 
L 122.259571 43.189574 
L 128.086661 42.891347 
L 145.56793 43.003013 
L 174.703378 42.812089 
L 203.838827 43.198672 
L 232.974275 44.029332 
L 262.109724 44.779042 
L 291.245172 45.943989 
L 320.38062 47.671808 
L 349.516069 51.324762 
L 378.651517 49.638927 
L 407.786966 51.511299 
L 436.922414 54.680511 
L 466.057863 57.53737 
L 495.193311 65.202295 
L 524.32876 51.708288 
L 553.464208 51.339698 
L 582.599656 51.021281 
L 611.735105 51.843124 
L 640.870553 52.474057 
L 670.006002 52.441818 
L 699.14145 53.81744 
L 728.276899 54.243841 
L 757.412347 55.365387 
L 786.547796 56.387109 
L 815.683244 57.148414 
L 844.818692 58.094671 
L 873.954141 59.225675 
L 903.089589 60.015535 
L 932.225038 60.903424 
L 949.706307 62.858006 
" clip-path="url(#pfb8251af4e)" style="fill: none; stroke: #5cb85c; stroke-linecap: square"/>
   </g>
   <g id="line2d_26">
    <path d="M 81.469943 48.097021 
L 87.297033 45.293888 
L 93.124123 45.617573 
L 98.951212 45.745286 
L 104.778302 45.581921 
L 110.605392 45.399485 
L 116.432481 47.08156 
L 122.259571 48.856119 
L 128.086661 48.803761 
L 145.56793 51.867689 
L 174.703378 52.616631 
L 203.838827 54.37185 
L 232.974275 60.604691 
L 262.109724 63.796498 
L 291.245172 71.09324 
L 320.38062 63.761593 
L 349.516069 69.069253 
L 378.651517 73.829887 
L 407.786966 69.532976 
L 436.922414 64.959402 
L 466.057863 65.955047 
L 495.193311 74.152356 
L 524.32876 82.351495 
L 553.464208 73.170376 
L 582.599656 65.177424 
L 611.735105 59.231599 
L 640.870553 55.975964 
L 670.006002 54.967147 
L 699.14145 54.286136 
L 728.276899 54.467553 
L 757.412347 55.317797 
L 786.547796 55.428717 
L 815.683244 56.746987 
L 844.818692 57.641295 
L 873.954141 59.096533 
L 903.089589 60.376585 
L 932.225038 60.813141 
L 949.706307 62.570938 
" clip-path="url(#pfb8251af4e)" style="fill: none; stroke: #5cb85c; stroke-linecap: square"/>
   </g>
   <g id="line2d_27">
    <path d="M 81.469943 47.916994 
L 87.297033 47.093133 
L 93.124123 44.405073 
L 98.951212 43.642369 
L 104.778302 43.227087 
L 110.605392 42.923465 
L 116.432481 43.353231 
L 122.259571 43.385233 
L 128.086661 42.909144 
L 145.56793 43.153403 
L 174.703378 42.954693 
L 203.838827 43.39643 
L 232.974275 44.226281 
L 262.109724 44.837948 
L 291.245172 45.781262 
L 320.38062 46.804039 
L 349.516069 51.226075 
L 378.651517 49.881405 
L 407.786966 51.390065 
L 436.922414 54.464236 
L 466.057863 56.873806 
L 495.193311 63.453302 
L 524.32876 51.759111 
L 553.464208 51.236137 
L 582.599656 51.0687 
L 611.735105 51.928389 
L 640.870553 52.570702 
L 670.006002 52.471123 
L 699.14145 53.694381 
L 728.276899 53.92308 
L 757.412347 55.130988 
L 786.547796 56.031681 
L 815.683244 56.787512 
L 844.818692 57.782681 
L 873.954141 58.866915 
L 903.089589 59.956049 
L 932.225038 60.962606 
L 949.706307 63.152589 
" clip-path="url(#pfb8251af4e)" style="fill: none; stroke: #5cb85c; stroke-linecap: square"/>
   </g>
   <g id="line2d_28">
    <path d="M 81.469943 47.940725 
L 87.297033 45.572875 
L 93.124123 45.770913 
L 98.951212 45.498041 
L 104.778302 45.238419 
L 110.605392 45.115735 
L 116.432481 46.240493 
L 122.259571 47.230967 
L 128.086661 46.918769 
L 145.56793 49.049426 
L 174.703378 50.587791 
L 203.838827 52.304712 
L 232.974275 56.979658 
L 262.109724 65.280537 
L 291.245172 74.314026 
L 320.38062 74.790187 
L 349.516069 72.878778 
L 378.651517 73.178428 
L 407.786966 67.886917 
L 436.922414 63.553267 
L 466.057863 63.851995 
L 495.193311 68.954049 
L 524.32876 73.80025 
L 553.464208 67.128705 
L 582.599656 61.306668 
L 611.735105 56.867619 
L 640.870553 54.682445 
L 670.006002 54.413079 
L 699.14145 53.690645 
L 728.276899 53.828354 
L 757.412347 54.808869 
L 786.547796 55.089437 
L 815.683244 56.446661 
L 844.818692 57.449467 
L 873.954141 58.994269 
L 903.089589 60.217303 
L 932.225038 60.875585 
L 949.706307 62.894152 
" clip-path="url(#pfb8251af4e)" style="fill: none; stroke: #5cb85c; stroke-linecap: square"/>
   </g>
   <g id="line2d_29">
    <path d="M 81.469943 48.966684 
L 87.297033 46.623618 
L 93.124123 44.341718 
L 98.951212 43.486676 
L 104.778302 43.246586 
L 110.605392 42.940533 
L 116.432481 42.637577 
L 122.259571 43.050764 
L 128.086661 42.940997 
L 145.56793 42.719233 
L 174.703378 42.508556 
L 203.838827 42.846242 
L 232.974275 43.644827 
L 262.109724 44.257668 
L 291.245172 44.845566 
L 320.38062 46.097968 
L 349.516069 54.379941 
L 378.651517 59.448363 
L 407.786966 60.724995 
L 436.922414 65.261966 
L 466.057863 68.283818 
L 495.193311 72.418796 
L 524.32876 52.655021 
L 553.464208 50.148046 
L 582.599656 49.617911 
L 611.735105 50.209889 
L 640.870553 50.595772 
L 670.006002 50.52274 
L 699.14145 51.553444 
L 728.276899 51.93262 
L 757.412347 52.972026 
L 786.547796 53.844458 
L 815.683244 54.625057 
L 844.818692 55.436359 
L 873.954141 56.356515 
L 903.089589 57.151331 
L 932.225038 57.831808 
L 949.706307 59.500762 
" clip-path="url(#pfb8251af4e)" style="fill: none; stroke: #5cb85c; stroke-linecap: square"/>
   </g>
   <g id="line2d_30">
    <path d="M 81.469943 49.008736 
L 87.297033 45.444449 
L 93.124123 46.304336 
L 98.951212 46.404867 
L 104.778302 45.966051 
L 110.605392 45.659575 
L 116.432481 47.76489 
L 122.259571 50.498513 
L 128.086661 49.407715 
L 145.56793 53.918045 
L 174.703378 55.045537 
L 203.838827 56.982619 
L 232.974275 65.826818 
L 262.109724 73.234231 
L 291.245172 81.893741 
L 320.38062 84.972799 
L 349.516069 84.523082 
L 378.651517 86.703127 
L 407.786966 78.829651 
L 436.922414 72.221105 
L 466.057863 73.327082 
L 495.193311 81.200783 
L 524.32876 88.478127 
L 553.464208 79.278819 
L 582.599656 68.888836 
L 611.735105 60.25135 
L 640.870553 55.746534 
L 670.006002 54.081238 
L 699.14145 52.964444 
L 728.276899 52.735514 
L 757.412347 53.288664 
L 786.547796 53.460799 
L 815.683244 54.520466 
L 844.818692 55.169287 
L 873.954141 56.288213 
L 903.089589 57.336166 
L 932.225038 57.716551 
L 949.706307 59.199052 
" clip-path="url(#pfb8251af4e)" style="fill: none; stroke: #5cb85c; stroke-linecap: square"/>
   </g>
   <g id="line2d_31">
    <path d="M 81.469943 47.077323 
L 87.297033 45.420171 
L 93.124123 44.773919 
L 98.951212 43.811605 
L 104.778302 43.310015 
L 110.605392 43.067433 
L 116.432481 44.138096 
L 122.259571 44.055346 
L 128.086661 43.001021 
L 145.56793 43.44824 
L 174.703378 43.527191 
L 203.838827 43.398471 
L 232.974275 43.757281 
L 262.109724 44.065337 
L 291.245172 44.119341 
L 320.38062 44.39982 
L 349.516069 45.907409 
L 378.651517 46.877276 
L 407.786966 48.218424 
L 436.922414 49.385766 
L 466.057863 49.528612 
L 495.193311 50.766674 
L 524.32876 46.295358 
L 553.464208 45.500481 
L 582.599656 45.400451 
L 611.735105 45.788686 
L 640.870553 46.693221 
L 670.006002 46.239377 
L 699.14145 46.960876 
L 728.276899 47.232543 
L 757.412347 47.909845 
L 786.547796 48.710788 
L 815.683244 49.536127 
L 844.818692 51.05736 
L 873.954141 52.652474 
L 903.089589 54.422793 
L 932.225038 56.924229 
L 949.706307 60.772303 
" clip-path="url(#pfb8251af4e)" style="fill: none; stroke: #5cb85c; stroke-linecap: square"/>
   </g>
   <g id="line2d_32">
    <path d="M 81.469943 46.051785 
L 87.297033 42.361441 
L 93.124123 43.108953 
L 98.951212 42.569614 
L 104.778302 43.004335 
L 110.605392 42.886461 
L 116.432481 43.482196 
L 122.259571 43.025904 
L 128.086661 43.114283 
L 145.56793 43.720444 
L 174.703378 43.771781 
L 203.838827 44.001708 
L 232.974275 45.877816 
L 262.109724 46.341881 
L 291.245172 46.852274 
L 320.38062 47.345087 
L 349.516069 47.91284 
L 378.651517 49.499265 
L 407.786966 48.18872 
L 436.922414 47.391131 
L 466.057863 48.994204 
L 495.193311 51.809159 
L 524.32876 56.907426 
L 553.464208 50.482551 
L 582.599656 47.943222 
L 611.735105 46.780126 
L 640.870553 46.65688 
L 670.006002 46.790647 
L 699.14145 46.955328 
L 728.276899 47.112827 
L 757.412347 47.869095 
L 786.547796 48.316293 
L 815.683244 48.857821 
L 844.818692 49.656222 
L 873.954141 50.605665 
L 903.089589 51.510648 
L 932.225038 52.576051 
L 949.706307 54.957181 
" clip-path="url(#pfb8251af4e)" style="fill: none; stroke: #5cb85c; stroke-linecap: square"/>
   </g>
   <g id="line2d_33">
    <path d="M 81.469943 45.461373 
L 87.297033 44.483369 
L 93.124123 44.032226 
L 98.951212 43.221845 
L 104.778302 43.051434 
L 110.605392 42.801011 
L 116.432481 43.5896 
L 122.259571 43.62408 
L 128.086661 42.777276 
L 145.56793 43.128989 
L 174.703378 43.276762 
L 203.838827 43.140163 
L 232.974275 43.562711 
L 262.109724 43.808999 
L 291.245172 43.902683 
L 320.38062 44.227611 
L 349.516069 45.91019 
L 378.651517 46.318425 
L 407.786966 47.405741 
L 436.922414 49.505655 
L 466.057863 49.573022 
L 495.193311 50.821749 
L 524.32876 46.2168 
L 553.464208 45.209621 
L 582.599656 45.120642 
L 611.735105 45.481582 
L 640.870553 46.092216 
L 670.006002 46.137912 
L 699.14145 47.003424 
L 728.276899 47.383996 
L 757.412347 48.528219 
L 786.547796 49.920473 
L 815.683244 51.661982 
L 844.818692 54.155578 
L 873.954141 56.771721 
L 903.089589 59.405202 
L 932.225038 61.985287 
L 949.706307 64.914405 
" clip-path="url(#pfb8251af4e)" style="fill: none; stroke: #5cb85c; stroke-linecap: square"/>
   </g>
   <g id="line2d_34">
    <path d="M 81.469943 45.822097 
L 87.297033 43.623646 
L 93.124123 43.980577 
L 98.951212 43.279595 
L 104.778302 43.459733 
L 110.605392 43.404457 
L 116.432481 43.695789 
L 122.259571 43.69936 
L 128.086661 43.547527 
L 145.56793 43.55609 
L 174.703378 43.828862 
L 203.838827 44.07636 
L 232.974275 45.515227 
L 262.109724 46.030685 
L 291.245172 46.579231 
L 320.38062 46.925616 
L 349.516069 47.339703 
L 378.651517 48.658296 
L 407.786966 47.574882 
L 436.922414 47.163829 
L 466.057863 48.744876 
L 495.193311 50.717063 
L 524.32876 55.769258 
L 553.464208 50.128321 
L 582.599656 48.181099 
L 611.735105 47.099282 
L 640.870553 47.044549 
L 670.006002 47.225232 
L 699.14145 47.546642 
L 728.276899 47.932377 
L 757.412347 48.801295 
L 786.547796 49.764671 
L 815.683244 50.680692 
L 844.818692 51.84209 
L 873.954141 53.349193 
L 903.089589 54.972909 
L 932.225038 56.818269 
L 949.706307 59.668801 
" clip-path="url(#pfb8251af4e)" style="fill: none; stroke: #5cb85c; stroke-linecap: square"/>
   </g>
   <g id="line2d_35">
    <path d="M 81.469943 46.701364 
L 87.297033 44.982984 
L 93.124123 44.121652 
L 98.951212 43.332803 
L 104.778302 42.909777 
L 110.605392 42.618389 
L 116.432481 43.50505 
L 122.259571 43.449588 
L 128.086661 42.48069 
L 145.56793 42.827303 
L 174.703378 43.340187 
L 203.838827 42.593602 
L 232.974275 42.961803 
L 262.109724 43.197906 
L 291.245172 43.844808 
L 320.38062 43.853722 
L 349.516069 46.895199 
L 378.651517 45.348672 
L 407.786966 45.58455 
L 436.922414 48.601047 
L 466.057863 49.683208 
L 495.193311 52.82355 
L 524.32876 46.021793 
L 553.464208 44.323698 
L 582.599656 44.114497 
L 611.735105 44.265361 
L 640.870553 45.188664 
L 670.006002 44.517998 
L 699.14145 45.258986 
L 728.276899 45.297399 
L 757.412347 45.781793 
L 786.547796 46.308059 
L 815.683244 46.98023 
L 844.818692 48.134153 
L 873.954141 49.266899 
L 903.089589 50.397675 
L 932.225038 51.939913 
L 949.706307 54.640253 
" clip-path="url(#pfb8251af4e)" style="fill: none; stroke: #5cb85c; stroke-linecap: square"/>
   </g>
   <g id="line2d_36">
    <path d="M 81.469943 43.737626 
L 87.297033 42.179707 
L 93.124123 42.066087 
L 98.951212 41.533275 
L 104.778302 41.945868 
L 110.605392 41.837888 
L 116.432481 42.259999 
L 122.259571 41.964185 
L 128.086661 42.028356 
L 145.56793 42.632191 
L 174.703378 42.569618 
L 203.838827 42.777652 
L 232.974275 44.236996 
L 262.109724 44.842881 
L 291.245172 45.758473 
L 320.38062 46.098833 
L 349.516069 45.922522 
L 378.651517 47.637162 
L 407.786966 46.12235 
L 436.922414 45.663201 
L 466.057863 48.749514 
L 495.193311 51.6548 
L 524.32876 60.69347 
L 553.464208 48.848172 
L 582.599656 46.179041 
L 611.735105 44.954326 
L 640.870553 44.759599 
L 670.006002 44.767938 
L 699.14145 44.914847 
L 728.276899 45.084851 
L 757.412347 45.878292 
L 786.547796 46.417927 
L 815.683244 47.138166 
L 844.818692 48.164203 
L 873.954141 49.545029 
L 903.089589 50.95307 
L 932.225038 52.529845 
L 949.706307 55.274288 
" clip-path="url(#pfb8251af4e)" style="fill: none; stroke: #5cb85c; stroke-linecap: square"/>
   </g>
   <g id="line2d_37">
    <path d="M 81.469943 47.244466 
L 87.297033 45.503904 
L 93.124123 44.784042 
L 98.951212 43.794881 
L 104.778302 43.398375 
L 110.605392 43.114401 
L 116.432481 43.919727 
L 122.259571 43.988706 
L 128.086661 42.88215 
L 145.56793 43.275507 
L 174.703378 43.834685 
L 203.838827 43.162625 
L 232.974275 43.611735 
L 262.109724 43.85581 
L 291.245172 43.889491 
L 320.38062 44.598514 
L 349.516069 47.080732 
L 378.651517 47.616378 
L 407.786966 47.951943 
L 436.922414 51.135667 
L 466.057863 51.431804 
L 495.193311 53.128551 
L 524.32876 46.714587 
L 553.464208 45.221265 
L 582.599656 45.024295 
L 611.735105 45.26495 
L 640.870553 46.140945 
L 670.006002 45.769157 
L 699.14145 46.649693 
L 728.276899 46.744555 
L 757.412347 47.426737 
L 786.547796 48.124378 
L 815.683244 49.03022 
L 844.818692 50.418872 
L 873.954141 51.896394 
L 903.089589 53.267373 
L 932.225038 55.190128 
L 949.706307 58.352477 
" clip-path="url(#pfb8251af4e)" style="fill: none; stroke: #5cb85c; stroke-linecap: square"/>
   </g>
   <g id="line2d_38">
    <path d="M 81.469943 44.808801 
L 87.297033 42.229725 
L 93.124123 42.711589 
L 98.951212 42.145278 
L 104.778302 42.636202 
L 110.605392 42.453717 
L 116.432481 42.933502 
L 122.259571 42.57253 
L 128.086661 42.586597 
L 145.56793 43.278382 
L 174.703378 43.213094 
L 203.838827 43.408274 
L 232.974275 45.020639 
L 262.109724 45.74224 
L 291.245172 45.913229 
L 320.38062 46.666736 
L 349.516069 47.151986 
L 378.651517 48.661487 
L 407.786966 47.26501 
L 436.922414 46.771446 
L 466.057863 49.135701 
L 495.193311 51.841928 
L 524.32876 60.101413 
L 553.464208 49.943636 
L 582.599656 47.45865 
L 611.735105 46.383276 
L 640.870553 46.408585 
L 670.006002 46.452912 
L 699.14145 46.732206 
L 728.276899 46.810071 
L 757.412347 47.682216 
L 786.547796 48.082572 
L 815.683244 48.619815 
L 844.818692 49.640479 
L 873.954141 50.485685 
L 903.089589 51.4891 
L 932.225038 52.659927 
L 949.706307 55.048876 
" clip-path="url(#pfb8251af4e)" style="fill: none; stroke: #5cb85c; stroke-linecap: square"/>
   </g>
   <g id="line2d_39">
    <path d="M 81.469943 47.370357 
L 87.297033 44.44155 
L 93.124123 44.409711 
L 98.951212 43.511777 
L 104.778302 43.115702 
L 110.605392 43.019575 
L 116.432481 43.82893 
L 122.259571 43.787474 
L 128.086661 43.02991 
L 145.56793 43.204125 
L 174.703378 43.011523 
L 203.838827 43.12067 
L 232.974275 43.605035 
L 262.109724 43.789666 
L 291.245172 44.246295 
L 320.38062 44.561394 
L 349.516069 45.897549 
L 378.651517 45.740228 
L 407.786966 46.907505 
L 436.922414 48.834431 
L 466.057863 49.1133 
L 495.193311 50.943162 
L 524.32876 46.68307 
L 553.464208 44.826035 
L 582.599656 44.565329 
L 611.735105 44.904145 
L 640.870553 45.536019 
L 670.006002 45.369534 
L 699.14145 45.95078 
L 728.276899 46.134397 
L 757.412347 46.969989 
L 786.547796 47.811985 
L 815.683244 48.922087 
L 844.818692 50.567739 
L 873.954141 52.387839 
L 903.089589 54.671218 
L 932.225038 57.129909 
L 949.706307 60.654109 
" clip-path="url(#pfb8251af4e)" style="fill: none; stroke: #5cb85c; stroke-linecap: square"/>
   </g>
   <g id="line2d_40">
    <path d="M 81.469943 47.17445 
L 87.297033 43.448276 
L 93.124123 44.307022 
L 98.951212 43.582438 
L 104.778302 43.621338 
L 110.605392 43.699224 
L 116.432481 43.878015 
L 122.259571 44.306921 
L 128.086661 43.822631 
L 145.56793 43.658557 
L 174.703378 44.006175 
L 203.838827 44.144816 
L 232.974275 45.290549 
L 262.109724 46.008822 
L 291.245172 46.230585 
L 320.38062 46.94898 
L 349.516069 46.908895 
L 378.651517 47.968131 
L 407.786966 47.123559 
L 436.922414 46.807628 
L 466.057863 48.860314 
L 495.193311 50.327381 
L 524.32876 55.265427 
L 553.464208 49.597233 
L 582.599656 47.730149 
L 611.735105 47.012202 
L 640.870553 46.621967 
L 670.006002 46.620702 
L 699.14145 46.674536 
L 728.276899 46.913524 
L 757.412347 47.606068 
L 786.547796 48.494468 
L 815.683244 49.348932 
L 844.818692 50.281068 
L 873.954141 51.48038 
L 903.089589 52.952908 
L 932.225038 54.466312 
L 949.706307 57.792309 
" clip-path="url(#pfb8251af4e)" style="fill: none; stroke: #5cb85c; stroke-linecap: square"/>
   </g>
   <g id="line2d_41">
    <path d="M 38.058125 353.2239 
L 993.118125 353.2239 
" clip-path="url(#pfb8251af4e)" style="fill: none; stroke: #dedede; stroke-width: 2; stroke-linecap: square"/>
   </g>
   <g id="text_19">
    <!-- FastQC: Mean Quality Scores -->
    <g transform="translate(400.349375 19.3575) scale(0.16 -0.16)">
     <defs>
      <path id="DejaVuSans-46" d="M 628 4666 
L 3309 4666 
L 3309 4134 
L 1259 4134 
L 1259 2759 
L 3109 2759 
L 3109 2228 
L 1259 2228 
L 1259 0 
L 628 0 
L 628 4666 
z
" transform="scale(0.015625)"/>
      <path id="DejaVuSans-61" d="M 2194 1759 
Q 1497 1759 1228 1600 
Q 959 1441 959 1056 
Q 959 750 1161 570 
Q 1363 391 1709 391 
Q 2188 391 2477 730 
Q 2766 1069 2766 1631 
L 2766 1759 
L 2194 1759 
z
M 3341 1997 
L 3341 0 
L 2766 0 
L 2766 531 
Q 2569 213 2275 61 
Q 1981 -91 1556 -91 
Q 1019 -91 701 211 
Q 384 513 384 1019 
Q 384 1609 779 1909 
Q 1175 2209 1959 2209 
L 2766 2209 
L 2766 2266 
Q 2766 2663 2505 2880 
Q 2244 3097 1772 3097 
Q 1472 3097 1187 3025 
Q 903 2953 641 2809 
L 641 3341 
Q 956 3463 1253 3523 
Q 1550 3584 1831 3584 
Q 2591 3584 2966 3190 
Q 3341 2797 3341 1997 
z
" transform="scale(0.015625)"/>
      <path id="DejaVuSans-51" d="M 2522 4238 
Q 1834 4238 1429 3725 
Q 1025 3213 1025 2328 
Q 1025 1447 1429 934 
Q 1834 422 2522 422 
Q 3209 422 3611 934 
Q 4013 1447 4013 2328 
Q 4013 3213 3611 3725 
Q 3209 4238 2522 4238 
z
M 3406 84 
L 4238 -825 
L 3475 -825 
L 2784 -78 
Q 2681 -84 2626 -87 
Q 2572 -91 2522 -91 
Q 1538 -91 948 567 
Q 359 1225 359 2328 
Q 359 3434 948 4092 
Q 1538 4750 2522 4750 
Q 3503 4750 4090 4092 
Q 4678 3434 4678 2328 
Q 4678 1516 4351 937 
Q 4025 359 3406 84 
z
" transform="scale(0.015625)"/>
      <path id="DejaVuSans-43" d="M 4122 4306 
L 4122 3641 
Q 3803 3938 3442 4084 
Q 3081 4231 2675 4231 
Q 1875 4231 1450 3742 
Q 1025 3253 1025 2328 
Q 1025 1406 1450 917 
Q 1875 428 2675 428 
Q 3081 428 3442 575 
Q 3803 722 4122 1019 
L 4122 359 
Q 3791 134 3420 21 
Q 3050 -91 2638 -91 
Q 1578 -91 968 557 
Q 359 1206 359 2328 
Q 359 3453 968 4101 
Q 1578 4750 2638 4750 
Q 3056 4750 3426 4639 
Q 3797 4528 4122 4306 
z
" transform="scale(0.015625)"/>
      <path id="DejaVuSans-3a" d="M 750 794 
L 1409 794 
L 1409 0 
L 750 0 
L 750 794 
z
M 750 3309 
L 1409 3309 
L 1409 2516 
L 750 2516 
L 750 3309 
z
" transform="scale(0.015625)"/>
      <path id="DejaVuSans-4d" d="M 628 4666 
L 1569 4666 
L 2759 1491 
L 3956 4666 
L 4897 4666 
L 4897 0 
L 4281 0 
L 4281 4097 
L 3078 897 
L 2444 897 
L 1241 4097 
L 1241 0 
L 628 0 
L 628 4666 
z
" transform="scale(0.015625)"/>
      <path id="DejaVuSans-75" d="M 544 1381 
L 544 3500 
L 1119 3500 
L 1119 1403 
Q 1119 906 1312 657 
Q 1506 409 1894 409 
Q 2359 409 2629 706 
Q 2900 1003 2900 1516 
L 2900 3500 
L 3475 3500 
L 3475 0 
L 2900 0 
L 2900 538 
Q 2691 219 2414 64 
Q 2138 -91 1772 -91 
Q 1169 -91 856 284 
Q 544 659 544 1381 
z
M 1991 3584 
L 1991 3584 
z
" transform="scale(0.015625)"/>
      <path id="DejaVuSans-6c" d="M 603 4863 
L 1178 4863 
L 1178 0 
L 603 0 
L 603 4863 
z
" transform="scale(0.015625)"/>
      <path id="DejaVuSans-79" d="M 2059 -325 
Q 1816 -950 1584 -1140 
Q 1353 -1331 966 -1331 
L 506 -1331 
L 506 -850 
L 844 -850 
Q 1081 -850 1212 -737 
Q 1344 -625 1503 -206 
L 1606 56 
L 191 3500 
L 800 3500 
L 1894 763 
L 2988 3500 
L 3597 3500 
L 2059 -325 
z
" transform="scale(0.015625)"/>
     </defs>
     <use xlink:href="#DejaVuSans-46"/>
     <use xlink:href="#DejaVuSans-61" x="48.394531"/>
     <use xlink:href="#DejaVuSans-73" x="109.673828"/>
     <use xlink:href="#DejaVuSans-74" x="161.773438"/>
     <use xlink:href="#DejaVuSans-51" x="200.982422"/>
     <use xlink:href="#DejaVuSans-43" x="279.693359"/>
     <use xlink:href="#DejaVuSans-3a" x="349.517578"/>
     <use xlink:href="#DejaVuSans-20" x="383.208984"/>
     <use xlink:href="#DejaVuSans-4d" x="414.996094"/>
     <use xlink:href="#DejaVuSans-65" x="501.275391"/>
     <use xlink:href="#DejaVuSans-61" x="562.798828"/>
     <use xlink:href="#DejaVuSans-6e" x="624.078125"/>
     <use xlink:href="#DejaVuSans-20" x="687.457031"/>
     <use xlink:href="#DejaVuSans-51" x="719.244141"/>
     <use xlink:href="#DejaVuSans-75" x="797.955078"/>
     <use xlink:href="#DejaVuSans-61" x="861.333984"/>
     <use xlink:href="#DejaVuSans-6c" x="922.613281"/>
     <use xlink:href="#DejaVuSans-69" x="950.396484"/>
     <use xlink:href="#DejaVuSans-74" x="978.179688"/>
     <use xlink:href="#DejaVuSans-79" x="1017.388672"/>
     <use xlink:href="#DejaVuSans-20" x="1076.568359"/>
     <use xlink:href="#DejaVuSans-53" x="1108.355469"/>
     <use xlink:href="#DejaVuSans-63" x="1171.832031"/>
     <use xlink:href="#DejaVuSans-6f" x="1226.8125"/>
     <use xlink:href="#DejaVuSans-72" x="1287.994141"/>
     <use xlink:href="#DejaVuSans-65" x="1326.857422"/>
     <use xlink:href="#DejaVuSans-73" x="1388.380859"/>
    </g>
   </g>
  </g>
 </g>
 <defs>
  <clipPath id="pfb8251af4e">
   <rect x="38.058125" y="35.2559" width="955.06" height="317.968"/>
  </clipPath>
 </defs>
</svg>
