<?xml version="1.0" encoding="utf-8" standalone="no"?>
<!DOCTYPE svg PUBLIC "-//W3C//DTD SVG 1.1//EN"
  "http://www.w3.org/Graphics/SVG/1.1/DTD/svg11.dtd">
<svg xmlns:xlink="http://www.w3.org/1999/xlink" width="1000.340625pt" height="388.24065pt" viewBox="0 0 1000.340625 388.24065" xmlns="http://www.w3.org/2000/svg" version="1.1">
 <metadata>
  <rdf:RDF xmlns:dc="http://purl.org/dc/elements/1.1/" xmlns:cc="http://creativecommons.org/ns#" xmlns:rdf="http://www.w3.org/1999/02/22-rdf-syntax-ns#">
   <cc:Work>
    <dc:type rdf:resource="http://purl.org/dc/dcmitype/StillImage"/>
    <dc:date>2024-09-01T20:21:13.548528</dc:date>
    <dc:format>image/svg+xml</dc:format>
    <dc:creator>
     <cc:Agent>
      <dc:title>Matplotlib v3.8.2, https://matplotlib.org/</dc:title>
     </cc:Agent>
    </dc:creator>
   </cc:Work>
  </rdf:RDF>
 </metadata>
 <defs>
  <style type="text/css">*{stroke-linejoin: round; stroke-linecap: butt}</style>
 </defs>
 <g id="figure_1">
  <g id="axes_1">
   <g id="patch_1">
    <path d="M 40.600625 352.538775 
L 993.140625 352.538775 
L 993.140625 35.223275 
L 40.600625 35.223275 
z
" style="fill: #ffffff"/>
   </g>
   <g id="matplotlib.axis_1">
    <g id="xtick_1">
     <g id="text_1">
      <!-- NC_011902.2 -->
      <g transform="translate(57.026023 365.476275) scale(0.08 -0.08)">
       <defs>
        <path id="DejaVuSans-4e" d="M 628 4666 
L 1478 4666 
L 3547 763 
L 3547 4666 
L 4159 4666 
L 4159 0 
L 3309 0 
L 1241 3903 
L 1241 0 
L 628 0 
L 628 4666 
z
" transform="scale(0.015625)"/>
        <path id="DejaVuSans-43" d="M 4122 4306 
L 4122 3641 
Q 3803 3938 3442 4084 
Q 3081 4231 2675 4231 
Q 1875 4231 1450 3742 
Q 1025 3253 1025 2328 
Q 1025 1406 1450 917 
Q 1875 428 2675 428 
Q 3081 428 3442 575 
Q 3803 722 4122 1019 
L 4122 359 
Q 3791 134 3420 21 
Q 3050 -91 2638 -91 
Q 1578 -91 968 557 
Q 359 1206 359 2328 
Q 359 3453 968 4101 
Q 1578 4750 2638 4750 
Q 3056 4750 3426 4639 
Q 3797 4528 4122 4306 
z
" transform="scale(0.015625)"/>
        <path id="DejaVuSans-5f" d="M 3263 -1063 
L 3263 -1509 
L -63 -1509 
L -63 -1063 
L 3263 -1063 
z
" transform="scale(0.015625)"/>
        <path id="DejaVuSans-30" d="M 2034 4250 
Q 1547 4250 1301 3770 
Q 1056 3291 1056 2328 
Q 1056 1369 1301 889 
Q 1547 409 2034 409 
Q 2525 409 2770 889 
Q 3016 1369 3016 2328 
Q 3016 3291 2770 3770 
Q 2525 4250 2034 4250 
z
M 2034 4750 
Q 2819 4750 3233 4129 
Q 3647 3509 3647 2328 
Q 3647 1150 3233 529 
Q 2819 -91 2034 -91 
Q 1250 -91 836 529 
Q 422 1150 422 2328 
Q 422 3509 836 4129 
Q 1250 4750 2034 4750 
z
" transform="scale(0.015625)"/>
        <path id="DejaVuSans-31" d="M 794 531 
L 1825 531 
L 1825 4091 
L 703 3866 
L 703 4441 
L 1819 4666 
L 2450 4666 
L 2450 531 
L 3481 531 
L 3481 0 
L 794 0 
L 794 531 
z
" transform="scale(0.015625)"/>
        <path id="DejaVuSans-39" d="M 703 97 
L 703 672 
Q 941 559 1184 500 
Q 1428 441 1663 441 
Q 2288 441 2617 861 
Q 2947 1281 2994 2138 
Q 2813 1869 2534 1725 
Q 2256 1581 1919 1581 
Q 1219 1581 811 2004 
Q 403 2428 403 3163 
Q 403 3881 828 4315 
Q 1253 4750 1959 4750 
Q 2769 4750 3195 4129 
Q 3622 3509 3622 2328 
Q 3622 1225 3098 567 
Q 2575 -91 1691 -91 
Q 1453 -91 1209 -44 
Q 966 3 703 97 
z
M 1959 2075 
Q 2384 2075 2632 2365 
Q 2881 2656 2881 3163 
Q 2881 3666 2632 3958 
Q 2384 4250 1959 4250 
Q 1534 4250 1286 3958 
Q 1038 3666 1038 3163 
Q 1038 2656 1286 2365 
Q 1534 2075 1959 2075 
z
" transform="scale(0.015625)"/>
        <path id="DejaVuSans-32" d="M 1228 531 
L 3431 531 
L 3431 0 
L 469 0 
L 469 531 
Q 828 903 1448 1529 
Q 2069 2156 2228 2338 
Q 2531 2678 2651 2914 
Q 2772 3150 2772 3378 
Q 2772 3750 2511 3984 
Q 2250 4219 1831 4219 
Q 1534 4219 1204 4116 
Q 875 4013 500 3803 
L 500 4441 
Q 881 4594 1212 4672 
Q 1544 4750 1819 4750 
Q 2544 4750 2975 4387 
Q 3406 4025 3406 3419 
Q 3406 3131 3298 2873 
Q 3191 2616 2906 2266 
Q 2828 2175 2409 1742 
Q 1991 1309 1228 531 
z
" transform="scale(0.015625)"/>
        <path id="DejaVuSans-2e" d="M 684 794 
L 1344 794 
L 1344 0 
L 684 0 
L 684 794 
z
" transform="scale(0.015625)"/>
       </defs>
       <use xlink:href="#DejaVuSans-4e"/>
       <use xlink:href="#DejaVuSans-43" x="74.804688"/>
       <use xlink:href="#DejaVuSans-5f" x="144.628906"/>
       <use xlink:href="#DejaVuSans-30" x="194.628906"/>
       <use xlink:href="#DejaVuSans-31" x="258.251953"/>
       <use xlink:href="#DejaVuSans-31" x="321.875"/>
       <use xlink:href="#DejaVuSans-39" x="385.498047"/>
       <use xlink:href="#DejaVuSans-30" x="449.121094"/>
       <use xlink:href="#DejaVuSans-32" x="512.744141"/>
       <use xlink:href="#DejaVuSans-2e" x="576.367188"/>
       <use xlink:href="#DejaVuSans-32" x="608.154297"/>
      </g>
     </g>
    </g>
    <g id="xtick_2">
     <g id="text_2">
      <!-- NC_011903.2 -->
      <g transform="translate(75.450394 365.476275) scale(0.08 -0.08)">
       <defs>
        <path id="DejaVuSans-33" d="M 2597 2516 
Q 3050 2419 3304 2112 
Q 3559 1806 3559 1356 
Q 3559 666 3084 287 
Q 2609 -91 1734 -91 
Q 1441 -91 1130 -33 
Q 819 25 488 141 
L 488 750 
Q 750 597 1062 519 
Q 1375 441 1716 441 
Q 2309 441 2620 675 
Q 2931 909 2931 1356 
Q 2931 1769 2642 2001 
Q 2353 2234 1838 2234 
L 1294 2234 
L 1294 2753 
L 1863 2753 
Q 2328 2753 2575 2939 
Q 2822 3125 2822 3475 
Q 2822 3834 2567 4026 
Q 2313 4219 1838 4219 
Q 1578 4219 1281 4162 
Q 984 4106 628 3988 
L 628 4550 
Q 988 4650 1302 4700 
Q 1616 4750 1894 4750 
Q 2613 4750 3031 4423 
Q 3450 4097 3450 3541 
Q 3450 3153 3228 2886 
Q 3006 2619 2597 2516 
z
" transform="scale(0.015625)"/>
       </defs>
       <use xlink:href="#DejaVuSans-4e"/>
       <use xlink:href="#DejaVuSans-43" x="74.804688"/>
       <use xlink:href="#DejaVuSans-5f" x="144.628906"/>
       <use xlink:href="#DejaVuSans-30" x="194.628906"/>
       <use xlink:href="#DejaVuSans-31" x="258.251953"/>
       <use xlink:href="#DejaVuSans-31" x="321.875"/>
       <use xlink:href="#DejaVuSans-39" x="385.498047"/>
       <use xlink:href="#DejaVuSans-30" x="449.121094"/>
       <use xlink:href="#DejaVuSans-33" x="512.744141"/>
       <use xlink:href="#DejaVuSans-2e" x="576.367188"/>
       <use xlink:href="#DejaVuSans-32" x="608.154297"/>
      </g>
     </g>
    </g>
    <g id="xtick_3">
     <g id="text_3">
      <!-- NC_011904.2 -->
      <g transform="translate(93.874765 365.476275) scale(0.08 -0.08)">
       <defs>
        <path id="DejaVuSans-34" d="M 2419 4116 
L 825 1625 
L 2419 1625 
L 2419 4116 
z
M 2253 4666 
L 3047 4666 
L 3047 1625 
L 3713 1625 
L 3713 1100 
L 3047 1100 
L 3047 0 
L 2419 0 
L 2419 1100 
L 313 1100 
L 313 1709 
L 2253 4666 
z
" transform="scale(0.015625)"/>
       </defs>
       <use xlink:href="#DejaVuSans-4e"/>
       <use xlink:href="#DejaVuSans-43" x="74.804688"/>
       <use xlink:href="#DejaVuSans-5f" x="144.628906"/>
       <use xlink:href="#DejaVuSans-30" x="194.628906"/>
       <use xlink:href="#DejaVuSans-31" x="258.251953"/>
       <use xlink:href="#DejaVuSans-31" x="321.875"/>
       <use xlink:href="#DejaVuSans-39" x="385.498047"/>
       <use xlink:href="#DejaVuSans-30" x="449.121094"/>
       <use xlink:href="#DejaVuSans-34" x="512.744141"/>
       <use xlink:href="#DejaVuSans-2e" x="576.367188"/>
       <use xlink:href="#DejaVuSans-32" x="608.154297"/>
      </g>
     </g>
    </g>
    <g id="xtick_4">
     <g id="text_4">
      <!-- NC_011905.2 -->
      <g transform="translate(112.299137 365.476275) scale(0.08 -0.08)">
       <defs>
        <path id="DejaVuSans-35" d="M 691 4666 
L 3169 4666 
L 3169 4134 
L 1269 4134 
L 1269 2991 
Q 1406 3038 1543 3061 
Q 1681 3084 1819 3084 
Q 2600 3084 3056 2656 
Q 3513 2228 3513 1497 
Q 3513 744 3044 326 
Q 2575 -91 1722 -91 
Q 1428 -91 1123 -41 
Q 819 9 494 109 
L 494 744 
Q 775 591 1075 516 
Q 1375 441 1709 441 
Q 2250 441 2565 725 
Q 2881 1009 2881 1497 
Q 2881 1984 2565 2268 
Q 2250 2553 1709 2553 
Q 1456 2553 1204 2497 
Q 953 2441 691 2322 
L 691 4666 
z
" transform="scale(0.015625)"/>
       </defs>
       <use xlink:href="#DejaVuSans-4e"/>
       <use xlink:href="#DejaVuSans-43" x="74.804688"/>
       <use xlink:href="#DejaVuSans-5f" x="144.628906"/>
       <use xlink:href="#DejaVuSans-30" x="194.628906"/>
       <use xlink:href="#DejaVuSans-31" x="258.251953"/>
       <use xlink:href="#DejaVuSans-31" x="321.875"/>
       <use xlink:href="#DejaVuSans-39" x="385.498047"/>
       <use xlink:href="#DejaVuSans-30" x="449.121094"/>
       <use xlink:href="#DejaVuSans-35" x="512.744141"/>
       <use xlink:href="#DejaVuSans-2e" x="576.367188"/>
       <use xlink:href="#DejaVuSans-32" x="608.154297"/>
      </g>
     </g>
    </g>
    <g id="xtick_5">
     <g id="text_5">
      <!-- NC_011906.2 -->
      <g transform="translate(130.723508 365.476275) scale(0.08 -0.08)">
       <defs>
        <path id="DejaVuSans-36" d="M 2113 2584 
Q 1688 2584 1439 2293 
Q 1191 2003 1191 1497 
Q 1191 994 1439 701 
Q 1688 409 2113 409 
Q 2538 409 2786 701 
Q 3034 994 3034 1497 
Q 3034 2003 2786 2293 
Q 2538 2584 2113 2584 
z
M 3366 4563 
L 3366 3988 
Q 3128 4100 2886 4159 
Q 2644 4219 2406 4219 
Q 1781 4219 1451 3797 
Q 1122 3375 1075 2522 
Q 1259 2794 1537 2939 
Q 1816 3084 2150 3084 
Q 2853 3084 3261 2657 
Q 3669 2231 3669 1497 
Q 3669 778 3244 343 
Q 2819 -91 2113 -91 
Q 1303 -91 875 529 
Q 447 1150 447 2328 
Q 447 3434 972 4092 
Q 1497 4750 2381 4750 
Q 2619 4750 2861 4703 
Q 3103 4656 3366 4563 
z
" transform="scale(0.015625)"/>
       </defs>
       <use xlink:href="#DejaVuSans-4e"/>
       <use xlink:href="#DejaVuSans-43" x="74.804688"/>
       <use xlink:href="#DejaVuSans-5f" x="144.628906"/>
       <use xlink:href="#DejaVuSans-30" x="194.628906"/>
       <use xlink:href="#DejaVuSans-31" x="258.251953"/>
       <use xlink:href="#DejaVuSans-31" x="321.875"/>
       <use xlink:href="#DejaVuSans-39" x="385.498047"/>
       <use xlink:href="#DejaVuSans-30" x="449.121094"/>
       <use xlink:href="#DejaVuSans-36" x="512.744141"/>
       <use xlink:href="#DejaVuSans-2e" x="576.367188"/>
       <use xlink:href="#DejaVuSans-32" x="608.154297"/>
      </g>
     </g>
    </g>
    <g id="xtick_6">
     <g id="text_6">
      <!-- NC_011907.2 -->
      <g transform="translate(149.14788 365.476275) scale(0.08 -0.08)">
       <defs>
        <path id="DejaVuSans-37" d="M 525 4666 
L 3525 4666 
L 3525 4397 
L 1831 0 
L 1172 0 
L 2766 4134 
L 525 4134 
L 525 4666 
z
" transform="scale(0.015625)"/>
       </defs>
       <use xlink:href="#DejaVuSans-4e"/>
       <use xlink:href="#DejaVuSans-43" x="74.804688"/>
       <use xlink:href="#DejaVuSans-5f" x="144.628906"/>
       <use xlink:href="#DejaVuSans-30" x="194.628906"/>
       <use xlink:href="#DejaVuSans-31" x="258.251953"/>
       <use xlink:href="#DejaVuSans-31" x="321.875"/>
       <use xlink:href="#DejaVuSans-39" x="385.498047"/>
       <use xlink:href="#DejaVuSans-30" x="449.121094"/>
       <use xlink:href="#DejaVuSans-37" x="512.744141"/>
       <use xlink:href="#DejaVuSans-2e" x="576.367188"/>
       <use xlink:href="#DejaVuSans-32" x="608.154297"/>
      </g>
     </g>
    </g>
    <g id="xtick_7">
     <g id="text_7">
      <!-- NC_011908.2 -->
      <g transform="translate(167.572251 365.476275) scale(0.08 -0.08)">
       <defs>
        <path id="DejaVuSans-38" d="M 2034 2216 
Q 1584 2216 1326 1975 
Q 1069 1734 1069 1313 
Q 1069 891 1326 650 
Q 1584 409 2034 409 
Q 2484 409 2743 651 
Q 3003 894 3003 1313 
Q 3003 1734 2745 1975 
Q 2488 2216 2034 2216 
z
M 1403 2484 
Q 997 2584 770 2862 
Q 544 3141 544 3541 
Q 544 4100 942 4425 
Q 1341 4750 2034 4750 
Q 2731 4750 3128 4425 
Q 3525 4100 3525 3541 
Q 3525 3141 3298 2862 
Q 3072 2584 2669 2484 
Q 3125 2378 3379 2068 
Q 3634 1759 3634 1313 
Q 3634 634 3220 271 
Q 2806 -91 2034 -91 
Q 1263 -91 848 271 
Q 434 634 434 1313 
Q 434 1759 690 2068 
Q 947 2378 1403 2484 
z
M 1172 3481 
Q 1172 3119 1398 2916 
Q 1625 2713 2034 2713 
Q 2441 2713 2670 2916 
Q 2900 3119 2900 3481 
Q 2900 3844 2670 4047 
Q 2441 4250 2034 4250 
Q 1625 4250 1398 4047 
Q 1172 3844 1172 3481 
z
" transform="scale(0.015625)"/>
       </defs>
       <use xlink:href="#DejaVuSans-4e"/>
       <use xlink:href="#DejaVuSans-43" x="74.804688"/>
       <use xlink:href="#DejaVuSans-5f" x="144.628906"/>
       <use xlink:href="#DejaVuSans-30" x="194.628906"/>
       <use xlink:href="#DejaVuSans-31" x="258.251953"/>
       <use xlink:href="#DejaVuSans-31" x="321.875"/>
       <use xlink:href="#DejaVuSans-39" x="385.498047"/>
       <use xlink:href="#DejaVuSans-30" x="449.121094"/>
       <use xlink:href="#DejaVuSans-38" x="512.744141"/>
       <use xlink:href="#DejaVuSans-2e" x="576.367188"/>
       <use xlink:href="#DejaVuSans-32" x="608.154297"/>
      </g>
     </g>
    </g>
    <g id="xtick_8">
     <g id="text_8">
      <!-- NC_011909.2 -->
      <g transform="translate(185.996622 365.476275) scale(0.08 -0.08)">
       <use xlink:href="#DejaVuSans-4e"/>
       <use xlink:href="#DejaVuSans-43" x="74.804688"/>
       <use xlink:href="#DejaVuSans-5f" x="144.628906"/>
       <use xlink:href="#DejaVuSans-30" x="194.628906"/>
       <use xlink:href="#DejaVuSans-31" x="258.251953"/>
       <use xlink:href="#DejaVuSans-31" x="321.875"/>
       <use xlink:href="#DejaVuSans-39" x="385.498047"/>
       <use xlink:href="#DejaVuSans-30" x="449.121094"/>
       <use xlink:href="#DejaVuSans-39" x="512.744141"/>
       <use xlink:href="#DejaVuSans-2e" x="576.367188"/>
       <use xlink:href="#DejaVuSans-32" x="608.154297"/>
      </g>
     </g>
    </g>
    <g id="xtick_9">
     <g id="text_9">
      <!-- NC_011910.2 -->
      <g transform="translate(204.420994 365.476275) scale(0.08 -0.08)">
       <use xlink:href="#DejaVuSans-4e"/>
       <use xlink:href="#DejaVuSans-43" x="74.804688"/>
       <use xlink:href="#DejaVuSans-5f" x="144.628906"/>
       <use xlink:href="#DejaVuSans-30" x="194.628906"/>
       <use xlink:href="#DejaVuSans-31" x="258.251953"/>
       <use xlink:href="#DejaVuSans-31" x="321.875"/>
       <use xlink:href="#DejaVuSans-39" x="385.498047"/>
       <use xlink:href="#DejaVuSans-31" x="449.121094"/>
       <use xlink:href="#DejaVuSans-30" x="512.744141"/>
       <use xlink:href="#DejaVuSans-2e" x="576.367188"/>
       <use xlink:href="#DejaVuSans-32" x="608.154297"/>
      </g>
     </g>
    </g>
    <g id="xtick_10">
     <g id="text_10">
      <!-- NC_011911.2 -->
      <g transform="translate(222.845365 365.476275) scale(0.08 -0.08)">
       <use xlink:href="#DejaVuSans-4e"/>
       <use xlink:href="#DejaVuSans-43" x="74.804688"/>
       <use xlink:href="#DejaVuSans-5f" x="144.628906"/>
       <use xlink:href="#DejaVuSans-30" x="194.628906"/>
       <use xlink:href="#DejaVuSans-31" x="258.251953"/>
       <use xlink:href="#DejaVuSans-31" x="321.875"/>
       <use xlink:href="#DejaVuSans-39" x="385.498047"/>
       <use xlink:href="#DejaVuSans-31" x="449.121094"/>
       <use xlink:href="#DejaVuSans-31" x="512.744141"/>
       <use xlink:href="#DejaVuSans-2e" x="576.367188"/>
       <use xlink:href="#DejaVuSans-32" x="608.154297"/>
      </g>
     </g>
    </g>
    <g id="xtick_11">
     <g id="text_11">
      <!-- NC_011912.2 -->
      <g transform="translate(241.269736 365.476275) scale(0.08 -0.08)">
       <use xlink:href="#DejaVuSans-4e"/>
       <use xlink:href="#DejaVuSans-43" x="74.804688"/>
       <use xlink:href="#DejaVuSans-5f" x="144.628906"/>
       <use xlink:href="#DejaVuSans-30" x="194.628906"/>
       <use xlink:href="#DejaVuSans-31" x="258.251953"/>
       <use xlink:href="#DejaVuSans-31" x="321.875"/>
       <use xlink:href="#DejaVuSans-39" x="385.498047"/>
       <use xlink:href="#DejaVuSans-31" x="449.121094"/>
       <use xlink:href="#DejaVuSans-32" x="512.744141"/>
       <use xlink:href="#DejaVuSans-2e" x="576.367188"/>
       <use xlink:href="#DejaVuSans-32" x="608.154297"/>
      </g>
     </g>
    </g>
    <g id="xtick_12">
     <g id="text_12">
      <!-- NC_011913.2 -->
      <g transform="translate(259.694108 365.476275) scale(0.08 -0.08)">
       <use xlink:href="#DejaVuSans-4e"/>
       <use xlink:href="#DejaVuSans-43" x="74.804688"/>
       <use xlink:href="#DejaVuSans-5f" x="144.628906"/>
       <use xlink:href="#DejaVuSans-30" x="194.628906"/>
       <use xlink:href="#DejaVuSans-31" x="258.251953"/>
       <use xlink:href="#DejaVuSans-31" x="321.875"/>
       <use xlink:href="#DejaVuSans-39" x="385.498047"/>
       <use xlink:href="#DejaVuSans-31" x="449.121094"/>
       <use xlink:href="#DejaVuSans-33" x="512.744141"/>
       <use xlink:href="#DejaVuSans-2e" x="576.367188"/>
       <use xlink:href="#DejaVuSans-32" x="608.154297"/>
      </g>
     </g>
    </g>
    <g id="xtick_13">
     <g id="text_13">
      <!-- NC_011914.2 -->
      <g transform="translate(278.118479 365.476275) scale(0.08 -0.08)">
       <use xlink:href="#DejaVuSans-4e"/>
       <use xlink:href="#DejaVuSans-43" x="74.804688"/>
       <use xlink:href="#DejaVuSans-5f" x="144.628906"/>
       <use xlink:href="#DejaVuSans-30" x="194.628906"/>
       <use xlink:href="#DejaVuSans-31" x="258.251953"/>
       <use xlink:href="#DejaVuSans-31" x="321.875"/>
       <use xlink:href="#DejaVuSans-39" x="385.498047"/>
       <use xlink:href="#DejaVuSans-31" x="449.121094"/>
       <use xlink:href="#DejaVuSans-34" x="512.744141"/>
       <use xlink:href="#DejaVuSans-2e" x="576.367188"/>
       <use xlink:href="#DejaVuSans-32" x="608.154297"/>
      </g>
     </g>
    </g>
    <g id="xtick_14">
     <g id="text_14">
      <!-- NC_011915.2 -->
      <g transform="translate(296.542851 365.476275) scale(0.08 -0.08)">
       <use xlink:href="#DejaVuSans-4e"/>
       <use xlink:href="#DejaVuSans-43" x="74.804688"/>
       <use xlink:href="#DejaVuSans-5f" x="144.628906"/>
       <use xlink:href="#DejaVuSans-30" x="194.628906"/>
       <use xlink:href="#DejaVuSans-31" x="258.251953"/>
       <use xlink:href="#DejaVuSans-31" x="321.875"/>
       <use xlink:href="#DejaVuSans-39" x="385.498047"/>
       <use xlink:href="#DejaVuSans-31" x="449.121094"/>
       <use xlink:href="#DejaVuSans-35" x="512.744141"/>
       <use xlink:href="#DejaVuSans-2e" x="576.367188"/>
       <use xlink:href="#DejaVuSans-32" x="608.154297"/>
      </g>
     </g>
    </g>
    <g id="xtick_15">
     <g id="text_15">
      <!-- NC_000001.11 -->
      <g transform="translate(312.422222 365.476275) scale(0.08 -0.08)">
       <use xlink:href="#DejaVuSans-4e"/>
       <use xlink:href="#DejaVuSans-43" x="74.804688"/>
       <use xlink:href="#DejaVuSans-5f" x="144.628906"/>
       <use xlink:href="#DejaVuSans-30" x="194.628906"/>
       <use xlink:href="#DejaVuSans-30" x="258.251953"/>
       <use xlink:href="#DejaVuSans-30" x="321.875"/>
       <use xlink:href="#DejaVuSans-30" x="385.498047"/>
       <use xlink:href="#DejaVuSans-30" x="449.121094"/>
       <use xlink:href="#DejaVuSans-31" x="512.744141"/>
       <use xlink:href="#DejaVuSans-2e" x="576.367188"/>
       <use xlink:href="#DejaVuSans-31" x="608.154297"/>
       <use xlink:href="#DejaVuSans-31" x="671.777344"/>
      </g>
     </g>
    </g>
    <g id="xtick_16">
     <g id="text_16">
      <!-- NC_000002.12 -->
      <g transform="translate(330.846593 365.476275) scale(0.08 -0.08)">
       <use xlink:href="#DejaVuSans-4e"/>
       <use xlink:href="#DejaVuSans-43" x="74.804688"/>
       <use xlink:href="#DejaVuSans-5f" x="144.628906"/>
       <use xlink:href="#DejaVuSans-30" x="194.628906"/>
       <use xlink:href="#DejaVuSans-30" x="258.251953"/>
       <use xlink:href="#DejaVuSans-30" x="321.875"/>
       <use xlink:href="#DejaVuSans-30" x="385.498047"/>
       <use xlink:href="#DejaVuSans-30" x="449.121094"/>
       <use xlink:href="#DejaVuSans-32" x="512.744141"/>
       <use xlink:href="#DejaVuSans-2e" x="576.367188"/>
       <use xlink:href="#DejaVuSans-31" x="608.154297"/>
       <use xlink:href="#DejaVuSans-32" x="671.777344"/>
      </g>
     </g>
    </g>
    <g id="xtick_17">
     <g id="text_17">
      <!-- NC_000003.12 -->
      <g transform="translate(349.270965 365.476275) scale(0.08 -0.08)">
       <use xlink:href="#DejaVuSans-4e"/>
       <use xlink:href="#DejaVuSans-43" x="74.804688"/>
       <use xlink:href="#DejaVuSans-5f" x="144.628906"/>
       <use xlink:href="#DejaVuSans-30" x="194.628906"/>
       <use xlink:href="#DejaVuSans-30" x="258.251953"/>
       <use xlink:href="#DejaVuSans-30" x="321.875"/>
       <use xlink:href="#DejaVuSans-30" x="385.498047"/>
       <use xlink:href="#DejaVuSans-30" x="449.121094"/>
       <use xlink:href="#DejaVuSans-33" x="512.744141"/>
       <use xlink:href="#DejaVuSans-2e" x="576.367188"/>
       <use xlink:href="#DejaVuSans-31" x="608.154297"/>
       <use xlink:href="#DejaVuSans-32" x="671.777344"/>
      </g>
     </g>
    </g>
    <g id="xtick_18">
     <g id="text_18">
      <!-- NC_000004.12 -->
      <g transform="translate(367.695336 365.476275) scale(0.08 -0.08)">
       <use xlink:href="#DejaVuSans-4e"/>
       <use xlink:href="#DejaVuSans-43" x="74.804688"/>
       <use xlink:href="#DejaVuSans-5f" x="144.628906"/>
       <use xlink:href="#DejaVuSans-30" x="194.628906"/>
       <use xlink:href="#DejaVuSans-30" x="258.251953"/>
       <use xlink:href="#DejaVuSans-30" x="321.875"/>
       <use xlink:href="#DejaVuSans-30" x="385.498047"/>
       <use xlink:href="#DejaVuSans-30" x="449.121094"/>
       <use xlink:href="#DejaVuSans-34" x="512.744141"/>
       <use xlink:href="#DejaVuSans-2e" x="576.367188"/>
       <use xlink:href="#DejaVuSans-31" x="608.154297"/>
       <use xlink:href="#DejaVuSans-32" x="671.777344"/>
      </g>
     </g>
    </g>
    <g id="xtick_19">
     <g id="text_19">
      <!-- NC_000005.10 -->
      <g transform="translate(386.119707 365.476275) scale(0.08 -0.08)">
       <use xlink:href="#DejaVuSans-4e"/>
       <use xlink:href="#DejaVuSans-43" x="74.804688"/>
       <use xlink:href="#DejaVuSans-5f" x="144.628906"/>
       <use xlink:href="#DejaVuSans-30" x="194.628906"/>
       <use xlink:href="#DejaVuSans-30" x="258.251953"/>
       <use xlink:href="#DejaVuSans-30" x="321.875"/>
       <use xlink:href="#DejaVuSans-30" x="385.498047"/>
       <use xlink:href="#DejaVuSans-30" x="449.121094"/>
       <use xlink:href="#DejaVuSans-35" x="512.744141"/>
       <use xlink:href="#DejaVuSans-2e" x="576.367188"/>
       <use xlink:href="#DejaVuSans-31" x="608.154297"/>
       <use xlink:href="#DejaVuSans-30" x="671.777344"/>
      </g>
     </g>
    </g>
    <g id="xtick_20">
     <g id="text_20">
      <!-- NC_000006.12 -->
      <g transform="translate(404.544079 365.476275) scale(0.08 -0.08)">
       <use xlink:href="#DejaVuSans-4e"/>
       <use xlink:href="#DejaVuSans-43" x="74.804688"/>
       <use xlink:href="#DejaVuSans-5f" x="144.628906"/>
       <use xlink:href="#DejaVuSans-30" x="194.628906"/>
       <use xlink:href="#DejaVuSans-30" x="258.251953"/>
       <use xlink:href="#DejaVuSans-30" x="321.875"/>
       <use xlink:href="#DejaVuSans-30" x="385.498047"/>
       <use xlink:href="#DejaVuSans-30" x="449.121094"/>
       <use xlink:href="#DejaVuSans-36" x="512.744141"/>
       <use xlink:href="#DejaVuSans-2e" x="576.367188"/>
       <use xlink:href="#DejaVuSans-31" x="608.154297"/>
       <use xlink:href="#DejaVuSans-32" x="671.777344"/>
      </g>
     </g>
    </g>
    <g id="xtick_21">
     <g id="text_21">
      <!-- NC_000007.14 -->
      <g transform="translate(422.96845 365.476275) scale(0.08 -0.08)">
       <use xlink:href="#DejaVuSans-4e"/>
       <use xlink:href="#DejaVuSans-43" x="74.804688"/>
       <use xlink:href="#DejaVuSans-5f" x="144.628906"/>
       <use xlink:href="#DejaVuSans-30" x="194.628906"/>
       <use xlink:href="#DejaVuSans-30" x="258.251953"/>
       <use xlink:href="#DejaVuSans-30" x="321.875"/>
       <use xlink:href="#DejaVuSans-30" x="385.498047"/>
       <use xlink:href="#DejaVuSans-30" x="449.121094"/>
       <use xlink:href="#DejaVuSans-37" x="512.744141"/>
       <use xlink:href="#DejaVuSans-2e" x="576.367188"/>
       <use xlink:href="#DejaVuSans-31" x="608.154297"/>
       <use xlink:href="#DejaVuSans-34" x="671.777344"/>
      </g>
     </g>
    </g>
    <g id="xtick_22">
     <g id="text_22">
      <!-- NC_000008.11 -->
      <g transform="translate(441.392822 365.476275) scale(0.08 -0.08)">
       <use xlink:href="#DejaVuSans-4e"/>
       <use xlink:href="#DejaVuSans-43" x="74.804688"/>
       <use xlink:href="#DejaVuSans-5f" x="144.628906"/>
       <use xlink:href="#DejaVuSans-30" x="194.628906"/>
       <use xlink:href="#DejaVuSans-30" x="258.251953"/>
       <use xlink:href="#DejaVuSans-30" x="321.875"/>
       <use xlink:href="#DejaVuSans-30" x="385.498047"/>
       <use xlink:href="#DejaVuSans-30" x="449.121094"/>
       <use xlink:href="#DejaVuSans-38" x="512.744141"/>
       <use xlink:href="#DejaVuSans-2e" x="576.367188"/>
       <use xlink:href="#DejaVuSans-31" x="608.154297"/>
       <use xlink:href="#DejaVuSans-31" x="671.777344"/>
      </g>
     </g>
    </g>
    <g id="xtick_23">
     <g id="text_23">
      <!-- NC_000009.12 -->
      <g transform="translate(459.817193 365.476275) scale(0.08 -0.08)">
       <use xlink:href="#DejaVuSans-4e"/>
       <use xlink:href="#DejaVuSans-43" x="74.804688"/>
       <use xlink:href="#DejaVuSans-5f" x="144.628906"/>
       <use xlink:href="#DejaVuSans-30" x="194.628906"/>
       <use xlink:href="#DejaVuSans-30" x="258.251953"/>
       <use xlink:href="#DejaVuSans-30" x="321.875"/>
       <use xlink:href="#DejaVuSans-30" x="385.498047"/>
       <use xlink:href="#DejaVuSans-30" x="449.121094"/>
       <use xlink:href="#DejaVuSans-39" x="512.744141"/>
       <use xlink:href="#DejaVuSans-2e" x="576.367188"/>
       <use xlink:href="#DejaVuSans-31" x="608.154297"/>
       <use xlink:href="#DejaVuSans-32" x="671.777344"/>
      </g>
     </g>
    </g>
    <g id="xtick_24">
     <g id="text_24">
      <!-- NC_000010.11 -->
      <g transform="translate(478.241564 365.476275) scale(0.08 -0.08)">
       <use xlink:href="#DejaVuSans-4e"/>
       <use xlink:href="#DejaVuSans-43" x="74.804688"/>
       <use xlink:href="#DejaVuSans-5f" x="144.628906"/>
       <use xlink:href="#DejaVuSans-30" x="194.628906"/>
       <use xlink:href="#DejaVuSans-30" x="258.251953"/>
       <use xlink:href="#DejaVuSans-30" x="321.875"/>
       <use xlink:href="#DejaVuSans-30" x="385.498047"/>
       <use xlink:href="#DejaVuSans-31" x="449.121094"/>
       <use xlink:href="#DejaVuSans-30" x="512.744141"/>
       <use xlink:href="#DejaVuSans-2e" x="576.367188"/>
       <use xlink:href="#DejaVuSans-31" x="608.154297"/>
       <use xlink:href="#DejaVuSans-31" x="671.777344"/>
      </g>
     </g>
    </g>
    <g id="xtick_25">
     <g id="text_25">
      <!-- NC_000011.10 -->
      <g transform="translate(496.665936 365.476275) scale(0.08 -0.08)">
       <use xlink:href="#DejaVuSans-4e"/>
       <use xlink:href="#DejaVuSans-43" x="74.804688"/>
       <use xlink:href="#DejaVuSans-5f" x="144.628906"/>
       <use xlink:href="#DejaVuSans-30" x="194.628906"/>
       <use xlink:href="#DejaVuSans-30" x="258.251953"/>
       <use xlink:href="#DejaVuSans-30" x="321.875"/>
       <use xlink:href="#DejaVuSans-30" x="385.498047"/>
       <use xlink:href="#DejaVuSans-31" x="449.121094"/>
       <use xlink:href="#DejaVuSans-31" x="512.744141"/>
       <use xlink:href="#DejaVuSans-2e" x="576.367188"/>
       <use xlink:href="#DejaVuSans-31" x="608.154297"/>
       <use xlink:href="#DejaVuSans-30" x="671.777344"/>
      </g>
     </g>
    </g>
    <g id="xtick_26">
     <g id="text_26">
      <!-- NC_000012.12 -->
      <g transform="translate(515.090307 365.476275) scale(0.08 -0.08)">
       <use xlink:href="#DejaVuSans-4e"/>
       <use xlink:href="#DejaVuSans-43" x="74.804688"/>
       <use xlink:href="#DejaVuSans-5f" x="144.628906"/>
       <use xlink:href="#DejaVuSans-30" x="194.628906"/>
       <use xlink:href="#DejaVuSans-30" x="258.251953"/>
       <use xlink:href="#DejaVuSans-30" x="321.875"/>
       <use xlink:href="#DejaVuSans-30" x="385.498047"/>
       <use xlink:href="#DejaVuSans-31" x="449.121094"/>
       <use xlink:href="#DejaVuSans-32" x="512.744141"/>
       <use xlink:href="#DejaVuSans-2e" x="576.367188"/>
       <use xlink:href="#DejaVuSans-31" x="608.154297"/>
       <use xlink:href="#DejaVuSans-32" x="671.777344"/>
      </g>
     </g>
    </g>
    <g id="xtick_27">
     <g id="text_27">
      <!-- NC_000013.11 -->
      <g transform="translate(533.514678 365.476275) scale(0.08 -0.08)">
       <use xlink:href="#DejaVuSans-4e"/>
       <use xlink:href="#DejaVuSans-43" x="74.804688"/>
       <use xlink:href="#DejaVuSans-5f" x="144.628906"/>
       <use xlink:href="#DejaVuSans-30" x="194.628906"/>
       <use xlink:href="#DejaVuSans-30" x="258.251953"/>
       <use xlink:href="#DejaVuSans-30" x="321.875"/>
       <use xlink:href="#DejaVuSans-30" x="385.498047"/>
       <use xlink:href="#DejaVuSans-31" x="449.121094"/>
       <use xlink:href="#DejaVuSans-33" x="512.744141"/>
       <use xlink:href="#DejaVuSans-2e" x="576.367188"/>
       <use xlink:href="#DejaVuSans-31" x="608.154297"/>
       <use xlink:href="#DejaVuSans-31" x="671.777344"/>
      </g>
     </g>
    </g>
    <g id="xtick_28">
     <g id="text_28">
      <!-- NC_000014.9 -->
      <g transform="translate(554.48405 365.476275) scale(0.08 -0.08)">
       <use xlink:href="#DejaVuSans-4e"/>
       <use xlink:href="#DejaVuSans-43" x="74.804688"/>
       <use xlink:href="#DejaVuSans-5f" x="144.628906"/>
       <use xlink:href="#DejaVuSans-30" x="194.628906"/>
       <use xlink:href="#DejaVuSans-30" x="258.251953"/>
       <use xlink:href="#DejaVuSans-30" x="321.875"/>
       <use xlink:href="#DejaVuSans-30" x="385.498047"/>
       <use xlink:href="#DejaVuSans-31" x="449.121094"/>
       <use xlink:href="#DejaVuSans-34" x="512.744141"/>
       <use xlink:href="#DejaVuSans-2e" x="576.367188"/>
       <use xlink:href="#DejaVuSans-39" x="608.154297"/>
      </g>
     </g>
    </g>
    <g id="xtick_29">
     <g id="text_29">
      <!-- NC_000015.10 -->
      <g transform="translate(570.363421 365.476275) scale(0.08 -0.08)">
       <use xlink:href="#DejaVuSans-4e"/>
       <use xlink:href="#DejaVuSans-43" x="74.804688"/>
       <use xlink:href="#DejaVuSans-5f" x="144.628906"/>
       <use xlink:href="#DejaVuSans-30" x="194.628906"/>
       <use xlink:href="#DejaVuSans-30" x="258.251953"/>
       <use xlink:href="#DejaVuSans-30" x="321.875"/>
       <use xlink:href="#DejaVuSans-30" x="385.498047"/>
       <use xlink:href="#DejaVuSans-31" x="449.121094"/>
       <use xlink:href="#DejaVuSans-35" x="512.744141"/>
       <use xlink:href="#DejaVuSans-2e" x="576.367188"/>
       <use xlink:href="#DejaVuSans-31" x="608.154297"/>
       <use xlink:href="#DejaVuSans-30" x="671.777344"/>
      </g>
     </g>
    </g>
    <g id="xtick_30">
     <g id="text_30">
      <!-- NC_000016.10 -->
      <g transform="translate(588.787793 365.476275) scale(0.08 -0.08)">
       <use xlink:href="#DejaVuSans-4e"/>
       <use xlink:href="#DejaVuSans-43" x="74.804688"/>
       <use xlink:href="#DejaVuSans-5f" x="144.628906"/>
       <use xlink:href="#DejaVuSans-30" x="194.628906"/>
       <use xlink:href="#DejaVuSans-30" x="258.251953"/>
       <use xlink:href="#DejaVuSans-30" x="321.875"/>
       <use xlink:href="#DejaVuSans-30" x="385.498047"/>
       <use xlink:href="#DejaVuSans-31" x="449.121094"/>
       <use xlink:href="#DejaVuSans-36" x="512.744141"/>
       <use xlink:href="#DejaVuSans-2e" x="576.367188"/>
       <use xlink:href="#DejaVuSans-31" x="608.154297"/>
       <use xlink:href="#DejaVuSans-30" x="671.777344"/>
      </g>
     </g>
    </g>
    <g id="xtick_31">
     <g id="text_31">
      <!-- NC_000017.11 -->
      <g transform="translate(607.212164 365.476275) scale(0.08 -0.08)">
       <use xlink:href="#DejaVuSans-4e"/>
       <use xlink:href="#DejaVuSans-43" x="74.804688"/>
       <use xlink:href="#DejaVuSans-5f" x="144.628906"/>
       <use xlink:href="#DejaVuSans-30" x="194.628906"/>
       <use xlink:href="#DejaVuSans-30" x="258.251953"/>
       <use xlink:href="#DejaVuSans-30" x="321.875"/>
       <use xlink:href="#DejaVuSans-30" x="385.498047"/>
       <use xlink:href="#DejaVuSans-31" x="449.121094"/>
       <use xlink:href="#DejaVuSans-37" x="512.744141"/>
       <use xlink:href="#DejaVuSans-2e" x="576.367188"/>
       <use xlink:href="#DejaVuSans-31" x="608.154297"/>
       <use xlink:href="#DejaVuSans-31" x="671.777344"/>
      </g>
     </g>
    </g>
    <g id="xtick_32">
     <g id="text_32">
      <!-- NC_000018.10 -->
      <g transform="translate(625.636535 365.476275) scale(0.08 -0.08)">
       <use xlink:href="#DejaVuSans-4e"/>
       <use xlink:href="#DejaVuSans-43" x="74.804688"/>
       <use xlink:href="#DejaVuSans-5f" x="144.628906"/>
       <use xlink:href="#DejaVuSans-30" x="194.628906"/>
       <use xlink:href="#DejaVuSans-30" x="258.251953"/>
       <use xlink:href="#DejaVuSans-30" x="321.875"/>
       <use xlink:href="#DejaVuSans-30" x="385.498047"/>
       <use xlink:href="#DejaVuSans-31" x="449.121094"/>
       <use xlink:href="#DejaVuSans-38" x="512.744141"/>
       <use xlink:href="#DejaVuSans-2e" x="576.367188"/>
       <use xlink:href="#DejaVuSans-31" x="608.154297"/>
       <use xlink:href="#DejaVuSans-30" x="671.777344"/>
      </g>
     </g>
    </g>
    <g id="xtick_33">
     <g id="text_33">
      <!-- NC_000019.10 -->
      <g transform="translate(644.060907 365.476275) scale(0.08 -0.08)">
       <use xlink:href="#DejaVuSans-4e"/>
       <use xlink:href="#DejaVuSans-43" x="74.804688"/>
       <use xlink:href="#DejaVuSans-5f" x="144.628906"/>
       <use xlink:href="#DejaVuSans-30" x="194.628906"/>
       <use xlink:href="#DejaVuSans-30" x="258.251953"/>
       <use xlink:href="#DejaVuSans-30" x="321.875"/>
       <use xlink:href="#DejaVuSans-30" x="385.498047"/>
       <use xlink:href="#DejaVuSans-31" x="449.121094"/>
       <use xlink:href="#DejaVuSans-39" x="512.744141"/>
       <use xlink:href="#DejaVuSans-2e" x="576.367188"/>
       <use xlink:href="#DejaVuSans-31" x="608.154297"/>
       <use xlink:href="#DejaVuSans-30" x="671.777344"/>
      </g>
     </g>
    </g>
    <g id="xtick_34">
     <g id="text_34">
      <!-- NC_000020.11 -->
      <g transform="translate(662.485278 365.476275) scale(0.08 -0.08)">
       <use xlink:href="#DejaVuSans-4e"/>
       <use xlink:href="#DejaVuSans-43" x="74.804688"/>
       <use xlink:href="#DejaVuSans-5f" x="144.628906"/>
       <use xlink:href="#DejaVuSans-30" x="194.628906"/>
       <use xlink:href="#DejaVuSans-30" x="258.251953"/>
       <use xlink:href="#DejaVuSans-30" x="321.875"/>
       <use xlink:href="#DejaVuSans-30" x="385.498047"/>
       <use xlink:href="#DejaVuSans-32" x="449.121094"/>
       <use xlink:href="#DejaVuSans-30" x="512.744141"/>
       <use xlink:href="#DejaVuSans-2e" x="576.367188"/>
       <use xlink:href="#DejaVuSans-31" x="608.154297"/>
       <use xlink:href="#DejaVuSans-31" x="671.777344"/>
      </g>
     </g>
    </g>
    <g id="xtick_35">
     <g id="text_35">
      <!-- NC_000021.9 -->
      <g transform="translate(683.454649 365.476275) scale(0.08 -0.08)">
       <use xlink:href="#DejaVuSans-4e"/>
       <use xlink:href="#DejaVuSans-43" x="74.804688"/>
       <use xlink:href="#DejaVuSans-5f" x="144.628906"/>
       <use xlink:href="#DejaVuSans-30" x="194.628906"/>
       <use xlink:href="#DejaVuSans-30" x="258.251953"/>
       <use xlink:href="#DejaVuSans-30" x="321.875"/>
       <use xlink:href="#DejaVuSans-30" x="385.498047"/>
       <use xlink:href="#DejaVuSans-32" x="449.121094"/>
       <use xlink:href="#DejaVuSans-31" x="512.744141"/>
       <use xlink:href="#DejaVuSans-2e" x="576.367188"/>
       <use xlink:href="#DejaVuSans-39" x="608.154297"/>
      </g>
     </g>
    </g>
    <g id="xtick_36">
     <g id="text_36">
      <!-- NC_000022.11 -->
      <g transform="translate(699.334021 365.476275) scale(0.08 -0.08)">
       <use xlink:href="#DejaVuSans-4e"/>
       <use xlink:href="#DejaVuSans-43" x="74.804688"/>
       <use xlink:href="#DejaVuSans-5f" x="144.628906"/>
       <use xlink:href="#DejaVuSans-30" x="194.628906"/>
       <use xlink:href="#DejaVuSans-30" x="258.251953"/>
       <use xlink:href="#DejaVuSans-30" x="321.875"/>
       <use xlink:href="#DejaVuSans-30" x="385.498047"/>
       <use xlink:href="#DejaVuSans-32" x="449.121094"/>
       <use xlink:href="#DejaVuSans-32" x="512.744141"/>
       <use xlink:href="#DejaVuSans-2e" x="576.367188"/>
       <use xlink:href="#DejaVuSans-31" x="608.154297"/>
       <use xlink:href="#DejaVuSans-31" x="671.777344"/>
      </g>
     </g>
    </g>
    <g id="xtick_37">
     <g id="text_37">
      <!-- NT_187388.1 -->
      <g transform="translate(720.653392 365.476275) scale(0.08 -0.08)">
       <defs>
        <path id="DejaVuSans-54" d="M -19 4666 
L 3928 4666 
L 3928 4134 
L 2272 4134 
L 2272 0 
L 1638 0 
L 1638 4134 
L -19 4134 
L -19 4666 
z
" transform="scale(0.015625)"/>
       </defs>
       <use xlink:href="#DejaVuSans-4e"/>
       <use xlink:href="#DejaVuSans-54" x="74.804688"/>
       <use xlink:href="#DejaVuSans-5f" x="135.888672"/>
       <use xlink:href="#DejaVuSans-31" x="185.888672"/>
       <use xlink:href="#DejaVuSans-38" x="249.511719"/>
       <use xlink:href="#DejaVuSans-37" x="313.134766"/>
       <use xlink:href="#DejaVuSans-33" x="376.757812"/>
       <use xlink:href="#DejaVuSans-38" x="440.380859"/>
       <use xlink:href="#DejaVuSans-38" x="504.003906"/>
       <use xlink:href="#DejaVuSans-2e" x="567.626953"/>
       <use xlink:href="#DejaVuSans-31" x="599.414062"/>
      </g>
     </g>
    </g>
    <g id="xtick_38">
     <g id="text_38">
      <!-- NC_000023.11 -->
      <g transform="translate(736.182764 365.476275) scale(0.08 -0.08)">
       <use xlink:href="#DejaVuSans-4e"/>
       <use xlink:href="#DejaVuSans-43" x="74.804688"/>
       <use xlink:href="#DejaVuSans-5f" x="144.628906"/>
       <use xlink:href="#DejaVuSans-30" x="194.628906"/>
       <use xlink:href="#DejaVuSans-30" x="258.251953"/>
       <use xlink:href="#DejaVuSans-30" x="321.875"/>
       <use xlink:href="#DejaVuSans-30" x="385.498047"/>
       <use xlink:href="#DejaVuSans-32" x="449.121094"/>
       <use xlink:href="#DejaVuSans-33" x="512.744141"/>
       <use xlink:href="#DejaVuSans-2e" x="576.367188"/>
       <use xlink:href="#DejaVuSans-31" x="608.154297"/>
       <use xlink:href="#DejaVuSans-31" x="671.777344"/>
      </g>
     </g>
    </g>
    <g id="xtick_39">
     <g id="text_39">
      <!-- NT_167214.1 -->
      <g transform="translate(757.502135 365.476275) scale(0.08 -0.08)">
       <use xlink:href="#DejaVuSans-4e"/>
       <use xlink:href="#DejaVuSans-54" x="74.804688"/>
       <use xlink:href="#DejaVuSans-5f" x="135.888672"/>
       <use xlink:href="#DejaVuSans-31" x="185.888672"/>
       <use xlink:href="#DejaVuSans-36" x="249.511719"/>
       <use xlink:href="#DejaVuSans-37" x="313.134766"/>
       <use xlink:href="#DejaVuSans-32" x="376.757812"/>
       <use xlink:href="#DejaVuSans-31" x="440.380859"/>
       <use xlink:href="#DejaVuSans-34" x="504.003906"/>
       <use xlink:href="#DejaVuSans-2e" x="567.626953"/>
       <use xlink:href="#DejaVuSans-31" x="599.414062"/>
      </g>
     </g>
    </g>
    <g id="xtick_40">
     <g id="text_40">
      <!-- NW_021160023.1 -->
      <g transform="translate(766.779631 365.476275) scale(0.08 -0.08)">
       <defs>
        <path id="DejaVuSans-57" d="M 213 4666 
L 850 4666 
L 1831 722 
L 2809 4666 
L 3519 4666 
L 4500 722 
L 5478 4666 
L 6119 4666 
L 4947 0 
L 4153 0 
L 3169 4050 
L 2175 0 
L 1381 0 
L 213 4666 
z
" transform="scale(0.015625)"/>
       </defs>
       <use xlink:href="#DejaVuSans-4e"/>
       <use xlink:href="#DejaVuSans-57" x="74.804688"/>
       <use xlink:href="#DejaVuSans-5f" x="173.681641"/>
       <use xlink:href="#DejaVuSans-30" x="223.681641"/>
       <use xlink:href="#DejaVuSans-32" x="287.304688"/>
       <use xlink:href="#DejaVuSans-31" x="350.927734"/>
       <use xlink:href="#DejaVuSans-31" x="414.550781"/>
       <use xlink:href="#DejaVuSans-36" x="478.173828"/>
       <use xlink:href="#DejaVuSans-30" x="541.796875"/>
       <use xlink:href="#DejaVuSans-30" x="605.419922"/>
       <use xlink:href="#DejaVuSans-32" x="669.042969"/>
       <use xlink:href="#DejaVuSans-33" x="732.666016"/>
       <use xlink:href="#DejaVuSans-2e" x="796.289062"/>
       <use xlink:href="#DejaVuSans-31" x="828.076172"/>
      </g>
     </g>
    </g>
    <g id="xtick_41">
     <g id="text_41">
      <!-- NT_187605.1 -->
      <g transform="translate(794.350878 365.476275) scale(0.08 -0.08)">
       <use xlink:href="#DejaVuSans-4e"/>
       <use xlink:href="#DejaVuSans-54" x="74.804688"/>
       <use xlink:href="#DejaVuSans-5f" x="135.888672"/>
       <use xlink:href="#DejaVuSans-31" x="185.888672"/>
       <use xlink:href="#DejaVuSans-38" x="249.511719"/>
       <use xlink:href="#DejaVuSans-37" x="313.134766"/>
       <use xlink:href="#DejaVuSans-36" x="376.757812"/>
       <use xlink:href="#DejaVuSans-30" x="440.380859"/>
       <use xlink:href="#DejaVuSans-35" x="504.003906"/>
       <use xlink:href="#DejaVuSans-2e" x="567.626953"/>
       <use xlink:href="#DejaVuSans-31" x="599.414062"/>
      </g>
     </g>
    </g>
    <g id="xtick_42">
     <g id="text_42">
      <!-- NT_113891.3 -->
      <g transform="translate(812.775249 365.476275) scale(0.08 -0.08)">
       <use xlink:href="#DejaVuSans-4e"/>
       <use xlink:href="#DejaVuSans-54" x="74.804688"/>
       <use xlink:href="#DejaVuSans-5f" x="135.888672"/>
       <use xlink:href="#DejaVuSans-31" x="185.888672"/>
       <use xlink:href="#DejaVuSans-31" x="249.511719"/>
       <use xlink:href="#DejaVuSans-33" x="313.134766"/>
       <use xlink:href="#DejaVuSans-38" x="376.757812"/>
       <use xlink:href="#DejaVuSans-39" x="440.380859"/>
       <use xlink:href="#DejaVuSans-31" x="504.003906"/>
       <use xlink:href="#DejaVuSans-2e" x="567.626953"/>
       <use xlink:href="#DejaVuSans-33" x="599.414062"/>
      </g>
     </g>
    </g>
    <g id="xtick_43">
     <g id="text_43">
      <!-- NT_167245.2 -->
      <g transform="translate(831.19962 365.476275) scale(0.08 -0.08)">
       <use xlink:href="#DejaVuSans-4e"/>
       <use xlink:href="#DejaVuSans-54" x="74.804688"/>
       <use xlink:href="#DejaVuSans-5f" x="135.888672"/>
       <use xlink:href="#DejaVuSans-31" x="185.888672"/>
       <use xlink:href="#DejaVuSans-36" x="249.511719"/>
       <use xlink:href="#DejaVuSans-37" x="313.134766"/>
       <use xlink:href="#DejaVuSans-32" x="376.757812"/>
       <use xlink:href="#DejaVuSans-34" x="440.380859"/>
       <use xlink:href="#DejaVuSans-35" x="504.003906"/>
       <use xlink:href="#DejaVuSans-2e" x="567.626953"/>
       <use xlink:href="#DejaVuSans-32" x="599.414062"/>
      </g>
     </g>
    </g>
    <g id="xtick_44">
     <g id="text_44">
      <!-- NT_167246.2 -->
      <g transform="translate(849.623992 365.476275) scale(0.08 -0.08)">
       <use xlink:href="#DejaVuSans-4e"/>
       <use xlink:href="#DejaVuSans-54" x="74.804688"/>
       <use xlink:href="#DejaVuSans-5f" x="135.888672"/>
       <use xlink:href="#DejaVuSans-31" x="185.888672"/>
       <use xlink:href="#DejaVuSans-36" x="249.511719"/>
       <use xlink:href="#DejaVuSans-37" x="313.134766"/>
       <use xlink:href="#DejaVuSans-32" x="376.757812"/>
       <use xlink:href="#DejaVuSans-34" x="440.380859"/>
       <use xlink:href="#DejaVuSans-36" x="504.003906"/>
       <use xlink:href="#DejaVuSans-2e" x="567.626953"/>
       <use xlink:href="#DejaVuSans-32" x="599.414062"/>
      </g>
     </g>
    </g>
    <g id="xtick_45">
     <g id="text_45">
      <!-- NT_167247.2 -->
      <g transform="translate(868.048363 365.476275) scale(0.08 -0.08)">
       <use xlink:href="#DejaVuSans-4e"/>
       <use xlink:href="#DejaVuSans-54" x="74.804688"/>
       <use xlink:href="#DejaVuSans-5f" x="135.888672"/>
       <use xlink:href="#DejaVuSans-31" x="185.888672"/>
       <use xlink:href="#DejaVuSans-36" x="249.511719"/>
       <use xlink:href="#DejaVuSans-37" x="313.134766"/>
       <use xlink:href="#DejaVuSans-32" x="376.757812"/>
       <use xlink:href="#DejaVuSans-34" x="440.380859"/>
       <use xlink:href="#DejaVuSans-37" x="504.003906"/>
       <use xlink:href="#DejaVuSans-2e" x="567.626953"/>
       <use xlink:href="#DejaVuSans-32" x="599.414062"/>
      </g>
     </g>
    </g>
    <g id="xtick_46">
     <g id="text_46">
      <!-- NT_167248.2 -->
      <g transform="translate(886.472735 365.476275) scale(0.08 -0.08)">
       <use xlink:href="#DejaVuSans-4e"/>
       <use xlink:href="#DejaVuSans-54" x="74.804688"/>
       <use xlink:href="#DejaVuSans-5f" x="135.888672"/>
       <use xlink:href="#DejaVuSans-31" x="185.888672"/>
       <use xlink:href="#DejaVuSans-36" x="249.511719"/>
       <use xlink:href="#DejaVuSans-37" x="313.134766"/>
       <use xlink:href="#DejaVuSans-32" x="376.757812"/>
       <use xlink:href="#DejaVuSans-34" x="440.380859"/>
       <use xlink:href="#DejaVuSans-38" x="504.003906"/>
       <use xlink:href="#DejaVuSans-2e" x="567.626953"/>
       <use xlink:href="#DejaVuSans-32" x="599.414062"/>
      </g>
     </g>
    </g>
    <g id="xtick_47">
     <g id="text_47">
      <!-- NT_167249.2 -->
      <g transform="translate(904.897106 365.476275) scale(0.08 -0.08)">
       <use xlink:href="#DejaVuSans-4e"/>
       <use xlink:href="#DejaVuSans-54" x="74.804688"/>
       <use xlink:href="#DejaVuSans-5f" x="135.888672"/>
       <use xlink:href="#DejaVuSans-31" x="185.888672"/>
       <use xlink:href="#DejaVuSans-36" x="249.511719"/>
       <use xlink:href="#DejaVuSans-37" x="313.134766"/>
       <use xlink:href="#DejaVuSans-32" x="376.757812"/>
       <use xlink:href="#DejaVuSans-34" x="440.380859"/>
       <use xlink:href="#DejaVuSans-39" x="504.003906"/>
       <use xlink:href="#DejaVuSans-2e" x="567.626953"/>
       <use xlink:href="#DejaVuSans-32" x="599.414062"/>
      </g>
     </g>
    </g>
    <g id="xtick_48">
     <g id="text_48">
      <!-- NC_012920.1 -->
      <g transform="translate(922.971477 365.476275) scale(0.08 -0.08)">
       <use xlink:href="#DejaVuSans-4e"/>
       <use xlink:href="#DejaVuSans-43" x="74.804688"/>
       <use xlink:href="#DejaVuSans-5f" x="144.628906"/>
       <use xlink:href="#DejaVuSans-30" x="194.628906"/>
       <use xlink:href="#DejaVuSans-31" x="258.251953"/>
       <use xlink:href="#DejaVuSans-32" x="321.875"/>
       <use xlink:href="#DejaVuSans-39" x="385.498047"/>
       <use xlink:href="#DejaVuSans-32" x="449.121094"/>
       <use xlink:href="#DejaVuSans-30" x="512.744141"/>
       <use xlink:href="#DejaVuSans-2e" x="576.367188"/>
       <use xlink:href="#DejaVuSans-31" x="608.154297"/>
      </g>
     </g>
    </g>
    <g id="text_49">
     <!-- Chromosome Name -->
     <g transform="translate(467.326875 378.960962) scale(0.1 -0.1)">
      <defs>
       <path id="DejaVuSans-68" d="M 3513 2113 
L 3513 0 
L 2938 0 
L 2938 2094 
Q 2938 2591 2744 2837 
Q 2550 3084 2163 3084 
Q 1697 3084 1428 2787 
Q 1159 2491 1159 1978 
L 1159 0 
L 581 0 
L 581 4863 
L 1159 4863 
L 1159 2956 
Q 1366 3272 1645 3428 
Q 1925 3584 2291 3584 
Q 2894 3584 3203 3211 
Q 3513 2838 3513 2113 
z
" transform="scale(0.015625)"/>
       <path id="DejaVuSans-72" d="M 2631 2963 
Q 2534 3019 2420 3045 
Q 2306 3072 2169 3072 
Q 1681 3072 1420 2755 
Q 1159 2438 1159 1844 
L 1159 0 
L 581 0 
L 581 3500 
L 1159 3500 
L 1159 2956 
Q 1341 3275 1631 3429 
Q 1922 3584 2338 3584 
Q 2397 3584 2469 3576 
Q 2541 3569 2628 3553 
L 2631 2963 
z
" transform="scale(0.015625)"/>
       <path id="DejaVuSans-6f" d="M 1959 3097 
Q 1497 3097 1228 2736 
Q 959 2375 959 1747 
Q 959 1119 1226 758 
Q 1494 397 1959 397 
Q 2419 397 2687 759 
Q 2956 1122 2956 1747 
Q 2956 2369 2687 2733 
Q 2419 3097 1959 3097 
z
M 1959 3584 
Q 2709 3584 3137 3096 
Q 3566 2609 3566 1747 
Q 3566 888 3137 398 
Q 2709 -91 1959 -91 
Q 1206 -91 779 398 
Q 353 888 353 1747 
Q 353 2609 779 3096 
Q 1206 3584 1959 3584 
z
" transform="scale(0.015625)"/>
       <path id="DejaVuSans-6d" d="M 3328 2828 
Q 3544 3216 3844 3400 
Q 4144 3584 4550 3584 
Q 5097 3584 5394 3201 
Q 5691 2819 5691 2113 
L 5691 0 
L 5113 0 
L 5113 2094 
Q 5113 2597 4934 2840 
Q 4756 3084 4391 3084 
Q 3944 3084 3684 2787 
Q 3425 2491 3425 1978 
L 3425 0 
L 2847 0 
L 2847 2094 
Q 2847 2600 2669 2842 
Q 2491 3084 2119 3084 
Q 1678 3084 1418 2786 
Q 1159 2488 1159 1978 
L 1159 0 
L 581 0 
L 581 3500 
L 1159 3500 
L 1159 2956 
Q 1356 3278 1631 3431 
Q 1906 3584 2284 3584 
Q 2666 3584 2933 3390 
Q 3200 3197 3328 2828 
z
" transform="scale(0.015625)"/>
       <path id="DejaVuSans-73" d="M 2834 3397 
L 2834 2853 
Q 2591 2978 2328 3040 
Q 2066 3103 1784 3103 
Q 1356 3103 1142 2972 
Q 928 2841 928 2578 
Q 928 2378 1081 2264 
Q 1234 2150 1697 2047 
L 1894 2003 
Q 2506 1872 2764 1633 
Q 3022 1394 3022 966 
Q 3022 478 2636 193 
Q 2250 -91 1575 -91 
Q 1294 -91 989 -36 
Q 684 19 347 128 
L 347 722 
Q 666 556 975 473 
Q 1284 391 1588 391 
Q 1994 391 2212 530 
Q 2431 669 2431 922 
Q 2431 1156 2273 1281 
Q 2116 1406 1581 1522 
L 1381 1569 
Q 847 1681 609 1914 
Q 372 2147 372 2553 
Q 372 3047 722 3315 
Q 1072 3584 1716 3584 
Q 2034 3584 2315 3537 
Q 2597 3491 2834 3397 
z
" transform="scale(0.015625)"/>
       <path id="DejaVuSans-65" d="M 3597 1894 
L 3597 1613 
L 953 1613 
Q 991 1019 1311 708 
Q 1631 397 2203 397 
Q 2534 397 2845 478 
Q 3156 559 3463 722 
L 3463 178 
Q 3153 47 2828 -22 
Q 2503 -91 2169 -91 
Q 1331 -91 842 396 
Q 353 884 353 1716 
Q 353 2575 817 3079 
Q 1281 3584 2069 3584 
Q 2775 3584 3186 3129 
Q 3597 2675 3597 1894 
z
M 3022 2063 
Q 3016 2534 2758 2815 
Q 2500 3097 2075 3097 
Q 1594 3097 1305 2825 
Q 1016 2553 972 2059 
L 3022 2063 
z
" transform="scale(0.015625)"/>
       <path id="DejaVuSans-20" transform="scale(0.015625)"/>
       <path id="DejaVuSans-61" d="M 2194 1759 
Q 1497 1759 1228 1600 
Q 959 1441 959 1056 
Q 959 750 1161 570 
Q 1363 391 1709 391 
Q 2188 391 2477 730 
Q 2766 1069 2766 1631 
L 2766 1759 
L 2194 1759 
z
M 3341 1997 
L 3341 0 
L 2766 0 
L 2766 531 
Q 2569 213 2275 61 
Q 1981 -91 1556 -91 
Q 1019 -91 701 211 
Q 384 513 384 1019 
Q 384 1609 779 1909 
Q 1175 2209 1959 2209 
L 2766 2209 
L 2766 2266 
Q 2766 2663 2505 2880 
Q 2244 3097 1772 3097 
Q 1472 3097 1187 3025 
Q 903 2953 641 2809 
L 641 3341 
Q 956 3463 1253 3523 
Q 1550 3584 1831 3584 
Q 2591 3584 2966 3190 
Q 3341 2797 3341 1997 
z
" transform="scale(0.015625)"/>
      </defs>
      <use xlink:href="#DejaVuSans-43"/>
      <use xlink:href="#DejaVuSans-68" x="69.824219"/>
      <use xlink:href="#DejaVuSans-72" x="133.203125"/>
      <use xlink:href="#DejaVuSans-6f" x="172.066406"/>
      <use xlink:href="#DejaVuSans-6d" x="233.248047"/>
      <use xlink:href="#DejaVuSans-6f" x="330.660156"/>
      <use xlink:href="#DejaVuSans-73" x="391.841797"/>
      <use xlink:href="#DejaVuSans-6f" x="443.941406"/>
      <use xlink:href="#DejaVuSans-6d" x="505.123047"/>
      <use xlink:href="#DejaVuSans-65" x="602.535156"/>
      <use xlink:href="#DejaVuSans-20" x="664.058594"/>
      <use xlink:href="#DejaVuSans-4e" x="695.845703"/>
      <use xlink:href="#DejaVuSans-61" x="770.650391"/>
      <use xlink:href="#DejaVuSans-6d" x="831.929688"/>
      <use xlink:href="#DejaVuSans-65" x="929.341797"/>
     </g>
    </g>
   </g>
   <g id="matplotlib.axis_2">
    <g id="ytick_1">
     <g id="line2d_1">
      <path d="M 40.600625 338.119804 
L 993.140625 338.119804 
" clip-path="url(#p95d80db0d7)" style="fill: none; stroke: #dedede; stroke-linecap: square"/>
     </g>
     <g id="text_50">
      <!-- 0.0 -->
      <g transform="translate(20.878125 341.159179) scale(0.08 -0.08)">
       <use xlink:href="#DejaVuSans-30"/>
       <use xlink:href="#DejaVuSans-2e" x="63.623047"/>
       <use xlink:href="#DejaVuSans-30" x="95.410156"/>
      </g>
     </g>
    </g>
    <g id="ytick_2">
     <g id="line2d_2">
      <path d="M 40.600625 288.631824 
L 993.140625 288.631824 
" clip-path="url(#p95d80db0d7)" style="fill: none; stroke: #dedede; stroke-linecap: square"/>
     </g>
     <g id="text_51">
      <!-- 0.1 -->
      <g transform="translate(20.878125 291.671199) scale(0.08 -0.08)">
       <use xlink:href="#DejaVuSans-30"/>
       <use xlink:href="#DejaVuSans-2e" x="63.623047"/>
       <use xlink:href="#DejaVuSans-31" x="95.410156"/>
      </g>
     </g>
    </g>
    <g id="ytick_3">
     <g id="line2d_3">
      <path d="M 40.600625 239.143843 
L 993.140625 239.143843 
" clip-path="url(#p95d80db0d7)" style="fill: none; stroke: #dedede; stroke-linecap: square"/>
     </g>
     <g id="text_52">
      <!-- 0.2 -->
      <g transform="translate(20.878125 242.183218) scale(0.08 -0.08)">
       <use xlink:href="#DejaVuSans-30"/>
       <use xlink:href="#DejaVuSans-2e" x="63.623047"/>
       <use xlink:href="#DejaVuSans-32" x="95.410156"/>
      </g>
     </g>
    </g>
    <g id="ytick_4">
     <g id="line2d_4">
      <path d="M 40.600625 189.655862 
L 993.140625 189.655862 
" clip-path="url(#p95d80db0d7)" style="fill: none; stroke: #dedede; stroke-linecap: square"/>
     </g>
     <g id="text_53">
      <!-- 0.3 -->
      <g transform="translate(20.878125 192.695237) scale(0.08 -0.08)">
       <use xlink:href="#DejaVuSans-30"/>
       <use xlink:href="#DejaVuSans-2e" x="63.623047"/>
       <use xlink:href="#DejaVuSans-33" x="95.410156"/>
      </g>
     </g>
    </g>
    <g id="ytick_5">
     <g id="line2d_5">
      <path d="M 40.600625 140.167882 
L 993.140625 140.167882 
" clip-path="url(#p95d80db0d7)" style="fill: none; stroke: #dedede; stroke-linecap: square"/>
     </g>
     <g id="text_54">
      <!-- 0.4 -->
      <g transform="translate(20.878125 143.207257) scale(0.08 -0.08)">
       <use xlink:href="#DejaVuSans-30"/>
       <use xlink:href="#DejaVuSans-2e" x="63.623047"/>
       <use xlink:href="#DejaVuSans-34" x="95.410156"/>
      </g>
     </g>
    </g>
    <g id="ytick_6">
     <g id="line2d_6">
      <path d="M 40.600625 90.679901 
L 993.140625 90.679901 
" clip-path="url(#p95d80db0d7)" style="fill: none; stroke: #dedede; stroke-linecap: square"/>
     </g>
     <g id="text_55">
      <!-- 0.5 -->
      <g transform="translate(20.878125 93.719276) scale(0.08 -0.08)">
       <use xlink:href="#DejaVuSans-30"/>
       <use xlink:href="#DejaVuSans-2e" x="63.623047"/>
       <use xlink:href="#DejaVuSans-35" x="95.410156"/>
      </g>
     </g>
    </g>
    <g id="ytick_7">
     <g id="line2d_7">
      <path d="M 40.600625 41.191921 
L 993.140625 41.191921 
" clip-path="url(#p95d80db0d7)" style="fill: none; stroke: #dedede; stroke-linecap: square"/>
     </g>
     <g id="text_56">
      <!-- 0.6 -->
      <g transform="translate(20.878125 44.231296) scale(0.08 -0.08)">
       <use xlink:href="#DejaVuSans-30"/>
       <use xlink:href="#DejaVuSans-2e" x="63.623047"/>
       <use xlink:href="#DejaVuSans-36" x="95.410156"/>
      </g>
     </g>
    </g>
    <g id="text_57">
     <!-- Fraction of total count -->
     <g transform="translate(14.798438 248.966181) rotate(-90) scale(0.1 -0.1)">
      <defs>
       <path id="DejaVuSans-46" d="M 628 4666 
L 3309 4666 
L 3309 4134 
L 1259 4134 
L 1259 2759 
L 3109 2759 
L 3109 2228 
L 1259 2228 
L 1259 0 
L 628 0 
L 628 4666 
z
" transform="scale(0.015625)"/>
       <path id="DejaVuSans-63" d="M 3122 3366 
L 3122 2828 
Q 2878 2963 2633 3030 
Q 2388 3097 2138 3097 
Q 1578 3097 1268 2742 
Q 959 2388 959 1747 
Q 959 1106 1268 751 
Q 1578 397 2138 397 
Q 2388 397 2633 464 
Q 2878 531 3122 666 
L 3122 134 
Q 2881 22 2623 -34 
Q 2366 -91 2075 -91 
Q 1284 -91 818 406 
Q 353 903 353 1747 
Q 353 2603 823 3093 
Q 1294 3584 2113 3584 
Q 2378 3584 2631 3529 
Q 2884 3475 3122 3366 
z
" transform="scale(0.015625)"/>
       <path id="DejaVuSans-74" d="M 1172 4494 
L 1172 3500 
L 2356 3500 
L 2356 3053 
L 1172 3053 
L 1172 1153 
Q 1172 725 1289 603 
Q 1406 481 1766 481 
L 2356 481 
L 2356 0 
L 1766 0 
Q 1100 0 847 248 
Q 594 497 594 1153 
L 594 3053 
L 172 3053 
L 172 3500 
L 594 3500 
L 594 4494 
L 1172 4494 
z
" transform="scale(0.015625)"/>
       <path id="DejaVuSans-69" d="M 603 3500 
L 1178 3500 
L 1178 0 
L 603 0 
L 603 3500 
z
M 603 4863 
L 1178 4863 
L 1178 4134 
L 603 4134 
L 603 4863 
z
" transform="scale(0.015625)"/>
       <path id="DejaVuSans-6e" d="M 3513 2113 
L 3513 0 
L 2938 0 
L 2938 2094 
Q 2938 2591 2744 2837 
Q 2550 3084 2163 3084 
Q 1697 3084 1428 2787 
Q 1159 2491 1159 1978 
L 1159 0 
L 581 0 
L 581 3500 
L 1159 3500 
L 1159 2956 
Q 1366 3272 1645 3428 
Q 1925 3584 2291 3584 
Q 2894 3584 3203 3211 
Q 3513 2838 3513 2113 
z
" transform="scale(0.015625)"/>
       <path id="DejaVuSans-66" d="M 2375 4863 
L 2375 4384 
L 1825 4384 
Q 1516 4384 1395 4259 
Q 1275 4134 1275 3809 
L 1275 3500 
L 2222 3500 
L 2222 3053 
L 1275 3053 
L 1275 0 
L 697 0 
L 697 3053 
L 147 3053 
L 147 3500 
L 697 3500 
L 697 3744 
Q 697 4328 969 4595 
Q 1241 4863 1831 4863 
L 2375 4863 
z
" transform="scale(0.015625)"/>
       <path id="DejaVuSans-6c" d="M 603 4863 
L 1178 4863 
L 1178 0 
L 603 0 
L 603 4863 
z
" transform="scale(0.015625)"/>
       <path id="DejaVuSans-75" d="M 544 1381 
L 544 3500 
L 1119 3500 
L 1119 1403 
Q 1119 906 1312 657 
Q 1506 409 1894 409 
Q 2359 409 2629 706 
Q 2900 1003 2900 1516 
L 2900 3500 
L 3475 3500 
L 3475 0 
L 2900 0 
L 2900 538 
Q 2691 219 2414 64 
Q 2138 -91 1772 -91 
Q 1169 -91 856 284 
Q 544 659 544 1381 
z
M 1991 3584 
L 1991 3584 
z
" transform="scale(0.015625)"/>
      </defs>
      <use xlink:href="#DejaVuSans-46"/>
      <use xlink:href="#DejaVuSans-72" x="50.269531"/>
      <use xlink:href="#DejaVuSans-61" x="91.382812"/>
      <use xlink:href="#DejaVuSans-63" x="152.662109"/>
      <use xlink:href="#DejaVuSans-74" x="207.642578"/>
      <use xlink:href="#DejaVuSans-69" x="246.851562"/>
      <use xlink:href="#DejaVuSans-6f" x="274.634766"/>
      <use xlink:href="#DejaVuSans-6e" x="335.816406"/>
      <use xlink:href="#DejaVuSans-20" x="399.195312"/>
      <use xlink:href="#DejaVuSans-6f" x="430.982422"/>
      <use xlink:href="#DejaVuSans-66" x="492.164062"/>
      <use xlink:href="#DejaVuSans-20" x="527.369141"/>
      <use xlink:href="#DejaVuSans-74" x="559.15625"/>
      <use xlink:href="#DejaVuSans-6f" x="598.365234"/>
      <use xlink:href="#DejaVuSans-74" x="659.546875"/>
      <use xlink:href="#DejaVuSans-61" x="698.755859"/>
      <use xlink:href="#DejaVuSans-6c" x="760.035156"/>
      <use xlink:href="#DejaVuSans-20" x="787.818359"/>
      <use xlink:href="#DejaVuSans-63" x="819.605469"/>
      <use xlink:href="#DejaVuSans-6f" x="874.585938"/>
      <use xlink:href="#DejaVuSans-75" x="935.767578"/>
      <use xlink:href="#DejaVuSans-6e" x="999.146484"/>
      <use xlink:href="#DejaVuSans-74" x="1062.525391"/>
     </g>
    </g>
   </g>
   <g id="line2d_8">
    <path d="M 83.897898 337.311263 
L 102.322269 337.586622 
L 120.74664 337.164739 
L 139.171012 336.911076 
L 157.595383 337.355923 
L 176.019755 337.105731 
L 194.444126 336.883829 
L 212.868497 336.093353 
L 231.292869 335.991308 
L 249.71724 336.681536 
L 268.141611 334.639273 
L 286.565983 335.361458 
L 304.990354 335.379552 
L 323.414726 335.477503 
L 341.839097 293.95984 
L 360.263468 318.134253 
L 378.68784 322.369665 
L 397.112211 328.593123 
L 415.536582 323.790752 
L 433.960954 311.268177 
L 452.385325 323.343064 
L 470.809697 326.497576 
L 489.234068 326.052866 
L 507.658439 327.144006 
L 526.082811 316.879777 
L 544.507182 316.517887 
L 562.931553 329.885092 
L 581.355925 329.604399 
L 599.780296 323.784303 
L 618.204668 322.064588 
L 636.629039 317.334472 
L 655.05341 334.782268 
L 673.477782 308.431597 
L 691.902153 330.276388 
L 710.326524 330.354041 
L 728.750896 330.763496 
L 747.175267 335.132998 
L 765.599639 327.364778 
L 784.02401 335.204644 
L 802.448381 335.179462 
L 820.872753 334.056003 
L 839.297124 331.304802 
L 857.721495 331.65759 
L 876.145867 333.642222 
L 894.570238 332.097539 
L 912.99461 331.591726 
L 931.418981 332.992407 
L 949.843352 306.553851 
" clip-path="url(#p95d80db0d7)" style="fill: none; stroke: #7cb5ec; stroke-linecap: square"/>
   </g>
   <g id="line2d_9">
    <path d="M 83.897898 336.914317 
L 102.322269 337.312611 
L 120.74664 336.765527 
L 139.171012 336.283606 
L 157.595383 336.972823 
L 176.019755 336.643612 
L 194.444126 336.283056 
L 212.868497 335.160594 
L 231.292869 335.0006 
L 249.71724 335.975332 
L 268.141611 333.763777 
L 286.565983 334.056648 
L 304.990354 334.230074 
L 323.414726 334.126266 
L 341.839097 293.699404 
L 360.263468 319.07762 
L 378.68784 323.428475 
L 397.112211 329.057891 
L 415.536582 325.17017 
L 433.960954 312.085292 
L 452.385325 324.13687 
L 470.809697 326.807673 
L 489.234068 326.876968 
L 507.658439 327.347473 
L 526.082811 318.076267 
L 544.507182 317.925028 
L 562.931553 330.020094 
L 581.355925 330.234578 
L 599.780296 323.596939 
L 618.204668 322.282622 
L 636.629039 318.370956 
L 655.05341 334.891851 
L 673.477782 309.130531 
L 691.902153 330.651953 
L 710.326524 328.469593 
L 728.750896 331.321308 
L 747.175267 333.982287 
L 765.599639 328.102702 
L 784.02401 334.112464 
L 802.448381 334.048916 
L 820.872753 333.221591 
L 839.297124 331.525732 
L 857.721495 331.754997 
L 876.145867 333.724584 
L 894.570238 332.296055 
L 912.99461 331.79042 
L 931.418981 333.061948 
L 949.843352 306.263717 
" clip-path="url(#p95d80db0d7)" style="fill: none; stroke: #434348; stroke-linecap: square"/>
   </g>
   <g id="line2d_10">
    <path d="M 83.897898 332.536496 
L 102.322269 334.201962 
L 120.74664 331.677885 
L 139.171012 329.584334 
L 157.595383 332.51005 
L 176.019755 331.227915 
L 194.444126 329.751321 
L 212.868497 323.811527 
L 231.292869 323.326239 
L 249.71724 327.417142 
L 268.141611 319.565418 
L 286.565983 318.065447 
L 304.990354 319.647598 
L 323.414726 319.036381 
L 341.839097 312.523629 
L 360.263468 322.658542 
L 378.68784 328.561211 
L 397.112211 332.563363 
L 415.536582 330.476719 
L 433.960954 323.436184 
L 452.385325 330.180432 
L 470.809697 327.899761 
L 489.234068 329.912741 
L 507.658439 331.653708 
L 526.082811 324.088902 
L 544.507182 323.244361 
L 562.931553 329.228293 
L 581.355925 333.41736 
L 599.780296 330.25951 
L 618.204668 312.383823 
L 636.629039 318.696205 
L 655.05341 336.218898 
L 673.477782 303.553298 
L 691.902153 331.906647 
L 710.326524 328.910444 
L 728.750896 333.35552 
L 747.175267 333.580077 
L 765.599639 331.511806 
L 784.02401 333.765869 
L 802.448381 333.689114 
L 820.872753 336.242869 
L 839.297124 335.301872 
L 857.721495 335.416766 
L 876.145867 336.336018 
L 894.570238 335.634451 
L 912.99461 335.426061 
L 931.418981 336.015803 
L 949.843352 322.539713 
" clip-path="url(#p95d80db0d7)" style="fill: none; stroke: #90ed7d; stroke-linecap: square"/>
   </g>
   <g id="line2d_11">
    <path d="M 83.897898 329.551794 
L 102.322269 332.411631 
L 120.74664 330.101541 
L 139.171012 326.709854 
L 157.595383 330.685224 
L 176.019755 327.811463 
L 194.444126 325.484606 
L 212.868497 319.923984 
L 231.292869 318.681367 
L 249.71724 324.65829 
L 268.141611 315.838006 
L 286.565983 310.939544 
L 304.990354 313.743557 
L 323.414726 311.107144 
L 341.839097 314.731713 
L 360.263468 324.979091 
L 378.68784 329.795867 
L 397.112211 333.12526 
L 415.536582 330.696833 
L 433.960954 325.906466 
L 452.385325 330.012328 
L 470.809697 329.965234 
L 489.234068 331.182847 
L 507.658439 331.587593 
L 526.082811 326.021486 
L 544.507182 325.607371 
L 562.931553 332.693667 
L 581.355925 333.263097 
L 599.780296 331.756615 
L 618.204668 315.319223 
L 636.629039 323.514053 
L 655.05341 336.199572 
L 673.477782 314.406429 
L 691.902153 332.748671 
L 710.326524 330.506543 
L 728.750896 333.652207 
L 747.175267 334.562377 
L 765.599639 332.189046 
L 784.02401 334.68445 
L 802.448381 334.636918 
L 820.872753 336.926067 
L 839.297124 335.522466 
L 857.721495 335.693055 
L 876.145867 336.355124 
L 894.570238 335.883691 
L 912.99461 335.63406 
L 931.418981 336.144549 
L 949.843352 327.037691 
" clip-path="url(#p95d80db0d7)" style="fill: none; stroke: #f7a35c; stroke-linecap: square"/>
   </g>
   <g id="line2d_12">
    <path d="M 83.897898 329.503362 
L 102.322269 332.496506 
L 120.74664 328.879665 
L 139.171012 326.098527 
L 157.595383 329.749916 
L 176.019755 327.938504 
L 194.444126 325.646793 
L 212.868497 316.544967 
L 231.292869 315.831859 
L 249.71724 321.963005 
L 268.141611 309.419341 
L 286.565983 307.028084 
L 304.990354 310.12366 
L 323.414726 309.533799 
L 341.839097 324.948493 
L 360.263468 326.64284 
L 378.68784 333.21907 
L 397.112211 335.630195 
L 415.536582 334.948141 
L 433.960954 331.820202 
L 452.385325 334.676797 
L 470.809697 328.760672 
L 489.234068 332.692931 
L 507.658439 334.556623 
L 526.082811 330.035543 
L 544.507182 326.87482 
L 562.931553 328.224447 
L 581.355925 336.056485 
L 599.780296 334.892566 
L 618.204668 312.945729 
L 636.629039 318.914952 
L 655.05341 337.381228 
L 673.477782 295.895338 
L 691.902153 332.774161 
L 710.326524 327.797654 
L 728.750896 334.999077 
L 747.175267 332.415077 
L 765.599639 334.084692 
L 784.02401 332.676872 
L 802.448381 332.545606 
L 820.872753 337.957624 
L 839.297124 337.478798 
L 857.721495 337.390403 
L 876.145867 337.736701 
L 894.570238 337.511571 
L 912.99461 337.478366 
L 931.418981 337.555762 
L 949.843352 323.260656 
" clip-path="url(#p95d80db0d7)" style="fill: none; stroke: #8085e9; stroke-linecap: square"/>
   </g>
   <g id="line2d_13">
    <path d="M 83.897898 337.271499 
L 102.322269 337.540006 
L 120.74664 337.032381 
L 139.171012 336.786815 
L 157.595383 337.305342 
L 176.019755 337.078537 
L 194.444126 336.852299 
L 212.868497 336.042497 
L 231.292869 335.882517 
L 249.71724 336.624754 
L 268.141611 333.619264 
L 286.565983 335.267156 
L 304.990354 335.143479 
L 323.414726 335.35326 
L 341.839097 293.840245 
L 360.263468 315.874034 
L 378.68784 320.852432 
L 397.112211 325.915661 
L 415.536582 321.215434 
L 433.960954 310.490571 
L 452.385325 321.24496 
L 470.809697 325.407813 
L 489.234068 325.308279 
L 507.658439 325.935196 
L 526.082811 317.078978 
L 544.507182 316.139927 
L 562.931553 328.715722 
L 581.355925 328.345326 
L 599.780296 324.131898 
L 618.204668 323.070889 
L 636.629039 317.009332 
L 655.05341 333.643253 
L 673.477782 309.840301 
L 691.902153 329.791813 
L 710.326524 334.303428 
L 728.750896 330.386606 
L 747.175267 337.916713 
L 765.599639 325.590148 
L 784.02401 337.886619 
L 802.448381 337.772366 
L 820.872753 333.985189 
L 839.297124 331.933556 
L 857.721495 332.444551 
L 876.145867 333.985206 
L 894.570238 332.480904 
L 912.99461 332.227771 
L 931.418981 333.082147 
L 949.843352 314.594594 
" clip-path="url(#p95d80db0d7)" style="fill: none; stroke: #f15c80; stroke-linecap: square"/>
   </g>
   <g id="line2d_14">
    <path d="M 83.897898 337.786806 
L 102.322269 337.896648 
L 120.74664 266.395915 
L 139.171012 337.626518 
L 157.595383 337.863532 
L 176.019755 337.775793 
L 194.444126 337.649649 
L 212.868497 337.470715 
L 231.292869 337.251946 
L 249.71724 266.854419 
L 268.141611 337.022694 
L 286.565983 337.065514 
L 304.990354 335.898907 
L 323.414726 337.098764 
L 341.839097 314.041354 
L 360.263468 320.422912 
L 378.68784 324.063345 
L 397.112211 328.950385 
L 415.536582 325.884197 
L 433.960954 323.505692 
L 452.385325 326.712701 
L 470.809697 329.37634 
L 489.234068 328.36527 
L 507.658439 328.753014 
L 526.082811 324.750107 
L 544.507182 326.164322 
L 562.931553 332.963409 
L 581.355925 325.078898 
L 599.780296 330.648964 
L 618.204668 329.832034 
L 636.629039 327.358708 
L 655.05341 334.498085 
L 673.477782 329.1158 
L 691.902153 332.98082 
L 710.326524 303.210787 
L 728.750896 334.147842 
L 747.175267 321.957975 
L 765.599639 332.150362 
L 784.02401 322.71004 
L 802.448381 321.13641 
L 820.872753 337.384635 
L 839.297124 336.757546 
L 857.721495 336.866098 
L 876.145867 337.150145 
L 894.570238 336.907652 
L 912.99461 336.816837 
L 931.418981 336.98611 
L 949.843352 333.56879 
" clip-path="url(#p95d80db0d7)" style="fill: none; stroke: #e4d354; stroke-linecap: square"/>
   </g>
   <g id="line2d_15">
    <path d="M 83.897898 337.69075 
L 102.322269 337.837711 
L 120.74664 238.781478 
L 139.171012 337.473021 
L 157.595383 337.783743 
L 176.019755 337.683309 
L 194.444126 337.51886 
L 212.868497 337.253009 
L 231.292869 336.947095 
L 249.71724 239.483221 
L 268.141611 336.772855 
L 286.565983 336.751688 
L 304.990354 335.087806 
L 323.414726 336.798685 
L 341.839097 318.865512 
L 360.263468 325.357683 
L 378.68784 326.832677 
L 397.112211 331.412122 
L 415.536582 329.554576 
L 433.960954 326.306946 
L 452.385325 329.759085 
L 470.809697 331.457059 
L 489.234068 329.532043 
L 507.658439 331.25598 
L 526.082811 328.192202 
L 544.507182 329.046201 
L 562.931553 334.270416 
L 581.355925 323.199871 
L 599.780296 332.332678 
L 618.204668 331.753427 
L 636.629039 329.359754 
L 655.05341 335.512011 
L 673.477782 329.940275 
L 691.902153 334.050042 
L 710.326524 306.360177 
L 728.750896 335.009461 
L 747.175267 322.533228 
L 765.599639 333.457522 
L 784.02401 324.076423 
L 802.448381 322.302524 
L 820.872753 337.315551 
L 839.297124 336.88824 
L 857.721495 336.973639 
L 876.145867 337.240084 
L 894.570238 337.017373 
L 912.99461 336.946028 
L 931.418981 337.087671 
L 949.843352 333.69611 
" clip-path="url(#p95d80db0d7)" style="fill: none; stroke: #2b908f; stroke-linecap: square"/>
   </g>
   <g id="line2d_16">
    <path d="M 83.897898 337.38999 
L 102.322269 337.639258 
L 120.74664 161.730839 
L 139.171012 337.007814 
L 157.595383 337.526529 
L 176.019755 337.362569 
L 194.444126 337.114959 
L 212.868497 336.558224 
L 231.292869 336.016364 
L 249.71724 163.417479 
L 268.141611 335.78492 
L 286.565983 335.716039 
L 304.990354 331.293554 
L 323.414726 335.884192 
L 341.839097 331.773739 
L 360.263468 333.890307 
L 378.68784 332.924109 
L 397.112211 335.908719 
L 415.536582 335.924121 
L 433.960954 335.205089 
L 452.385325 335.841754 
L 470.809697 335.279979 
L 489.234068 333.262005 
L 507.658439 336.038707 
L 526.082811 335.245155 
L 544.507182 335.220106 
L 562.931553 336.809037 
L 581.355925 324.467059 
L 599.780296 336.513247 
L 618.204668 335.879778 
L 636.629039 334.508735 
L 655.05341 337.372161 
L 673.477782 334.514912 
L 691.902153 336.599812 
L 710.326524 320.830734 
L 728.750896 337.094509 
L 747.175267 329.041532 
L 765.599639 336.526115 
L 784.02401 330.07175 
L 802.448381 328.82499 
L 820.872753 338.00411 
L 839.297124 337.901479 
L 857.721495 337.912041 
L 876.145867 337.963671 
L 894.570238 337.919026 
L 912.99461 337.909693 
L 931.418981 337.936214 
L 949.843352 337.405948 
" clip-path="url(#p95d80db0d7)" style="fill: none; stroke: #f45b5b; stroke-linecap: square"/>
   </g>
   <g id="line2d_17">
    <path d="M 83.897898 336.95327 
L 102.322269 337.347512 
L 120.74664 152.774513 
L 139.171012 336.512187 
L 157.595383 337.208345 
L 176.019755 336.880224 
L 194.444126 336.436853 
L 212.868497 335.971512 
L 231.292869 335.131312 
L 249.71724 153.706627 
L 268.141611 334.804157 
L 286.565983 334.515423 
L 304.990354 331.145185 
L 323.414726 334.6279 
L 341.839097 332.545059 
L 360.263468 334.592962 
L 378.68784 334.958952 
L 397.112211 336.39913 
L 415.536582 336.239829 
L 433.960954 335.722943 
L 452.385325 336.042082 
L 470.809697 335.683485 
L 489.234068 335.20318 
L 507.658439 336.246603 
L 526.082811 335.69007 
L 544.507182 335.493269 
L 562.931553 337.161983 
L 581.355925 332.046007 
L 599.780296 336.807544 
L 618.204668 335.666945 
L 636.629039 335.130085 
L 655.05341 337.498228 
L 673.477782 335.086243 
L 691.902153 336.807489 
L 710.326524 324.15553 
L 728.750896 337.128416 
L 747.175267 330.39737 
L 765.599639 336.697589 
L 784.02401 331.649415 
L 802.448381 330.589775 
L 820.872753 338.034968 
L 839.297124 337.895595 
L 857.721495 337.910637 
L 876.145867 337.958842 
L 894.570238 337.921031 
L 912.99461 337.904591 
L 931.418981 337.937865 
L 949.843352 337.189218 
" clip-path="url(#p95d80db0d7)" style="fill: none; stroke: #91e8e1; stroke-linecap: square"/>
   </g>
   <g id="line2d_18">
    <path d="M 83.897898 337.1746 
L 102.322269 337.52141 
L 120.74664 153.931715 
L 139.171012 336.73731 
L 157.595383 337.324349 
L 176.019755 337.085432 
L 194.444126 336.81805 
L 212.868497 336.087153 
L 231.292869 335.602259 
L 249.71724 156.066474 
L 268.141611 334.797667 
L 286.565983 334.899637 
L 304.990354 331.410213 
L 323.414726 335.169757 
L 341.839097 332.921761 
L 360.263468 334.826345 
L 378.68784 333.956948 
L 397.112211 336.420071 
L 415.536582 336.900321 
L 433.960954 336.56902 
L 452.385325 336.681195 
L 470.809697 335.401612 
L 489.234068 333.788053 
L 507.658439 336.60783 
L 526.082811 336.324315 
L 544.507182 335.833891 
L 562.931553 337.098206 
L 581.355925 324.89639 
L 599.780296 337.056531 
L 618.204668 336.416235 
L 636.629039 334.742771 
L 655.05341 337.633293 
L 673.477782 334.418594 
L 691.902153 336.789231 
L 710.326524 322.694229 
L 728.750896 337.329584 
L 747.175267 329.420816 
L 765.599639 336.772761 
L 784.02401 331.249534 
L 802.448381 329.694374 
L 820.872753 338.108686 
L 839.297124 338.044173 
L 857.721495 338.042775 
L 876.145867 338.061663 
L 894.570238 338.047673 
L 912.99461 338.043022 
L 931.418981 338.051942 
L 949.843352 337.917076 
" clip-path="url(#p95d80db0d7)" style="fill: none; stroke: #7cb5ec; stroke-linecap: square"/>
   </g>
   <g id="line2d_19">
    <path d="M 83.897898 337.965243 
L 102.322269 338.012912 
L 120.74664 337.806349 
L 139.171012 337.905346 
L 157.595383 337.970123 
L 176.019755 337.93696 
L 194.444126 337.889155 
L 212.868497 337.748453 
L 231.292869 337.740203 
L 249.71724 337.701709 
L 268.141611 337.732717 
L 286.565983 337.611944 
L 304.990354 337.636545 
L 323.414726 337.638031 
L 341.839097 325.913842 
L 360.263468 333.306513 
L 378.68784 334.083795 
L 397.112211 335.908644 
L 415.536582 334.288585 
L 433.960954 331.02037 
L 452.385325 333.860206 
L 470.809697 335.193511 
L 489.234068 334.721474 
L 507.658439 335.430391 
L 526.082811 276.410221 
L 544.507182 332.454342 
L 562.931553 336.187992 
L 581.355925 335.799855 
L 599.780296 334.727533 
L 618.204668 150.380921 
L 636.629039 332.25685 
L 655.05341 337.312292 
L 673.477782 329.119305 
L 691.902153 335.916424 
L 710.326524 288.889143 
L 728.750896 335.841057 
L 747.175267 311.911511 
L 765.599639 335.237332 
L 784.02401 312.418446 
L 802.448381 311.863262 
L 820.872753 337.270383 
L 839.297124 335.923109 
L 857.721495 336.068287 
L 876.145867 336.578538 
L 894.570238 336.139929 
L 912.99461 336.03372 
L 931.418981 336.350179 
L 949.843352 330.834951 
" clip-path="url(#p95d80db0d7)" style="fill: none; stroke: #434348; stroke-linecap: square"/>
   </g>
   <g id="line2d_20">
    <path d="M 83.897898 337.926 
L 102.322269 337.982305 
L 120.74664 337.749929 
L 139.171012 337.847362 
L 157.595383 337.928212 
L 176.019755 337.890093 
L 194.444126 337.82685 
L 212.868497 337.65059 
L 231.292869 337.641131 
L 249.71724 337.612658 
L 268.141611 337.630429 
L 286.565983 337.473499 
L 304.990354 337.510149 
L 323.414726 337.503914 
L 341.839097 327.040033 
L 360.263468 333.988411 
L 378.68784 334.712611 
L 397.112211 336.218169 
L 415.536582 334.927258 
L 433.960954 332.000915 
L 452.385325 334.483014 
L 470.809697 335.584626 
L 489.234068 335.244737 
L 507.658439 335.788249 
L 526.082811 265.491573 
L 544.507182 333.334111 
L 562.931553 336.38077 
L 581.355925 336.23804 
L 599.780296 335.109531 
L 618.204668 99.311397 
L 636.629039 333.09499 
L 655.05341 337.435049 
L 673.477782 330.13443 
L 691.902153 336.217315 
L 710.326524 307.478646 
L 728.750896 336.240386 
L 747.175267 321.932511 
L 765.599639 335.684755 
L 784.02401 322.29014 
L 802.448381 321.830518 
L 820.872753 337.234145 
L 839.297124 336.202174 
L 857.721495 336.316091 
L 876.145867 336.738779 
L 894.570238 336.385489 
L 912.99461 336.287197 
L 931.418981 336.536758 
L 949.843352 331.217471 
" clip-path="url(#p95d80db0d7)" style="fill: none; stroke: #90ed7d; stroke-linecap: square"/>
   </g>
   <g id="line2d_21">
    <path d="M 83.897898 337.876104 
L 102.322269 337.940337 
L 120.74664 337.537799 
L 139.171012 337.768683 
L 157.595383 337.873957 
L 176.019755 337.825189 
L 194.444126 337.752797 
L 212.868497 337.509662 
L 231.292869 337.50636 
L 249.71724 337.356981 
L 268.141611 337.467272 
L 286.565983 337.269226 
L 304.990354 337.298772 
L 323.414726 337.322308 
L 341.839097 336.234336 
L 360.263468 337.22197 
L 378.68784 337.560124 
L 397.112211 337.808903 
L 415.536582 337.618648 
L 433.960954 337.249658 
L 452.385325 337.58938 
L 470.809697 337.406156 
L 489.234068 337.582408 
L 507.658439 337.728919 
L 526.082811 241.621673 
L 544.507182 337.19795 
L 562.931553 337.676643 
L 581.355925 337.787566 
L 599.780296 337.668907 
L 618.204668 49.646707 
L 636.629039 336.907602 
L 655.05341 338.012015 
L 673.477782 335.732487 
L 691.902153 337.697295 
L 710.326524 305.450369 
L 728.750896 337.780215 
L 747.175267 320.538275 
L 765.599639 337.69587 
L 784.02401 320.964597 
L 802.448381 320.54467 
L 820.872753 338.027124 
L 839.297124 337.91314 
L 857.721495 337.925358 
L 876.145867 337.979997 
L 894.570238 337.935743 
L 912.99461 337.924378 
L 931.418981 337.953916 
L 949.843352 337.231775 
" clip-path="url(#p95d80db0d7)" style="fill: none; stroke: #f7a35c; stroke-linecap: square"/>
   </g>
   <g id="line2d_22">
    <path d="M 83.897898 337.470452 
L 102.322269 337.662905 
L 120.74664 336.938927 
L 139.171012 337.280286 
L 157.595383 337.544478 
L 176.019755 337.353971 
L 194.444126 337.163862 
L 212.868497 336.760137 
L 231.292869 336.704689 
L 249.71724 336.547306 
L 268.141611 336.605307 
L 286.565983 336.110804 
L 304.990354 336.226659 
L 323.414726 336.125759 
L 341.839097 335.278425 
L 360.263468 336.858528 
L 378.68784 337.291683 
L 397.112211 337.673461 
L 415.536582 337.35848 
L 433.960954 336.868859 
L 452.385325 337.260925 
L 470.809697 337.182381 
L 489.234068 337.372747 
L 507.658439 337.488944 
L 526.082811 266.358003 
L 544.507182 336.801959 
L 562.931553 337.647532 
L 581.355925 337.584762 
L 599.780296 337.497628 
L 618.204668 64.231696 
L 636.629039 336.512025 
L 655.05341 337.952981 
L 673.477782 335.303731 
L 691.902153 337.524893 
L 710.326524 296.80361 
L 728.750896 337.597372 
L 747.175267 315.888947 
L 765.599639 337.485907 
L 784.02401 316.374804 
L 802.448381 315.952957 
L 820.872753 338.01771 
L 839.297124 337.78644 
L 857.721495 337.812156 
L 876.145867 337.881917 
L 894.570238 337.827698 
L 912.99461 337.803365 
L 931.418981 337.849194 
L 949.843352 337.077184 
" clip-path="url(#p95d80db0d7)" style="fill: none; stroke: #8085e9; stroke-linecap: square"/>
   </g>
   <g id="line2d_23">
    <path d="M 83.897898 337.878647 
L 102.322269 337.955131 
L 120.74664 337.521566 
L 139.171012 337.79827 
L 157.595383 337.883614 
L 176.019755 337.836911 
L 194.444126 337.770607 
L 212.868497 337.528517 
L 231.292869 337.525303 
L 249.71724 337.339682 
L 268.141611 337.488205 
L 286.565983 337.275661 
L 304.990354 337.30214 
L 323.414726 337.349865 
L 341.839097 337.261665 
L 360.263468 337.687936 
L 378.68784 337.944726 
L 397.112211 338.031786 
L 415.536582 337.972435 
L 433.960954 337.898788 
L 452.385325 337.972569 
L 470.809697 337.634471 
L 489.234068 337.891057 
L 507.658439 337.981174 
L 526.082811 242.834879 
L 544.507182 337.65849 
L 562.931553 337.839943 
L 581.355925 337.996141 
L 599.780296 337.997974 
L 618.204668 54.360226 
L 636.629039 337.404908 
L 655.05341 338.092952 
L 673.477782 336.424296 
L 691.902153 337.880924 
L 710.326524 299.419967 
L 728.750896 337.982181 
L 747.175267 317.265843 
L 765.599639 337.939918 
L 784.02401 317.797886 
L 802.448381 317.295429 
L 820.872753 338.115343 
L 839.297124 338.091622 
L 857.721495 338.088911 
L 876.145867 338.101615 
L 894.570238 338.092838 
L 912.99461 338.092296 
L 931.418981 338.093891 
L 949.843352 337.628753 
" clip-path="url(#p95d80db0d7)" style="fill: none; stroke: #f15c80; stroke-linecap: square"/>
   </g>
   <g id="line2d_24">
    <path d="M 40.600625 338.119804 
L 993.140625 338.119804 
" clip-path="url(#p95d80db0d7)" style="fill: none; stroke: #dedede; stroke-width: 2; stroke-linecap: square"/>
   </g>
   <g id="text_58">
    <!-- Samtools idxstats: Mapped reads per contig -->
    <g transform="translate(340.591875 19.3575) scale(0.16 -0.16)">
     <defs>
      <path id="DejaVuSans-53" d="M 3425 4513 
L 3425 3897 
Q 3066 4069 2747 4153 
Q 2428 4238 2131 4238 
Q 1616 4238 1336 4038 
Q 1056 3838 1056 3469 
Q 1056 3159 1242 3001 
Q 1428 2844 1947 2747 
L 2328 2669 
Q 3034 2534 3370 2195 
Q 3706 1856 3706 1288 
Q 3706 609 3251 259 
Q 2797 -91 1919 -91 
Q 1588 -91 1214 -16 
Q 841 59 441 206 
L 441 856 
Q 825 641 1194 531 
Q 1563 422 1919 422 
Q 2459 422 2753 634 
Q 3047 847 3047 1241 
Q 3047 1584 2836 1778 
Q 2625 1972 2144 2069 
L 1759 2144 
Q 1053 2284 737 2584 
Q 422 2884 422 3419 
Q 422 4038 858 4394 
Q 1294 4750 2059 4750 
Q 2388 4750 2728 4690 
Q 3069 4631 3425 4513 
z
" transform="scale(0.015625)"/>
      <path id="DejaVuSans-64" d="M 2906 2969 
L 2906 4863 
L 3481 4863 
L 3481 0 
L 2906 0 
L 2906 525 
Q 2725 213 2448 61 
Q 2172 -91 1784 -91 
Q 1150 -91 751 415 
Q 353 922 353 1747 
Q 353 2572 751 3078 
Q 1150 3584 1784 3584 
Q 2172 3584 2448 3432 
Q 2725 3281 2906 2969 
z
M 947 1747 
Q 947 1113 1208 752 
Q 1469 391 1925 391 
Q 2381 391 2643 752 
Q 2906 1113 2906 1747 
Q 2906 2381 2643 2742 
Q 2381 3103 1925 3103 
Q 1469 3103 1208 2742 
Q 947 2381 947 1747 
z
" transform="scale(0.015625)"/>
      <path id="DejaVuSans-78" d="M 3513 3500 
L 2247 1797 
L 3578 0 
L 2900 0 
L 1881 1375 
L 863 0 
L 184 0 
L 1544 1831 
L 300 3500 
L 978 3500 
L 1906 2253 
L 2834 3500 
L 3513 3500 
z
" transform="scale(0.015625)"/>
      <path id="DejaVuSans-3a" d="M 750 794 
L 1409 794 
L 1409 0 
L 750 0 
L 750 794 
z
M 750 3309 
L 1409 3309 
L 1409 2516 
L 750 2516 
L 750 3309 
z
" transform="scale(0.015625)"/>
      <path id="DejaVuSans-4d" d="M 628 4666 
L 1569 4666 
L 2759 1491 
L 3956 4666 
L 4897 4666 
L 4897 0 
L 4281 0 
L 4281 4097 
L 3078 897 
L 2444 897 
L 1241 4097 
L 1241 0 
L 628 0 
L 628 4666 
z
" transform="scale(0.015625)"/>
      <path id="DejaVuSans-70" d="M 1159 525 
L 1159 -1331 
L 581 -1331 
L 581 3500 
L 1159 3500 
L 1159 2969 
Q 1341 3281 1617 3432 
Q 1894 3584 2278 3584 
Q 2916 3584 3314 3078 
Q 3713 2572 3713 1747 
Q 3713 922 3314 415 
Q 2916 -91 2278 -91 
Q 1894 -91 1617 61 
Q 1341 213 1159 525 
z
M 3116 1747 
Q 3116 2381 2855 2742 
Q 2594 3103 2138 3103 
Q 1681 3103 1420 2742 
Q 1159 2381 1159 1747 
Q 1159 1113 1420 752 
Q 1681 391 2138 391 
Q 2594 391 2855 752 
Q 3116 1113 3116 1747 
z
" transform="scale(0.015625)"/>
      <path id="DejaVuSans-67" d="M 2906 1791 
Q 2906 2416 2648 2759 
Q 2391 3103 1925 3103 
Q 1463 3103 1205 2759 
Q 947 2416 947 1791 
Q 947 1169 1205 825 
Q 1463 481 1925 481 
Q 2391 481 2648 825 
Q 2906 1169 2906 1791 
z
M 3481 434 
Q 3481 -459 3084 -895 
Q 2688 -1331 1869 -1331 
Q 1566 -1331 1297 -1286 
Q 1028 -1241 775 -1147 
L 775 -588 
Q 1028 -725 1275 -790 
Q 1522 -856 1778 -856 
Q 2344 -856 2625 -561 
Q 2906 -266 2906 331 
L 2906 616 
Q 2728 306 2450 153 
Q 2172 0 1784 0 
Q 1141 0 747 490 
Q 353 981 353 1791 
Q 353 2603 747 3093 
Q 1141 3584 1784 3584 
Q 2172 3584 2450 3431 
Q 2728 3278 2906 2969 
L 2906 3500 
L 3481 3500 
L 3481 434 
z
" transform="scale(0.015625)"/>
     </defs>
     <use xlink:href="#DejaVuSans-53"/>
     <use xlink:href="#DejaVuSans-61" x="63.476562"/>
     <use xlink:href="#DejaVuSans-6d" x="124.755859"/>
     <use xlink:href="#DejaVuSans-74" x="222.167969"/>
     <use xlink:href="#DejaVuSans-6f" x="261.376953"/>
     <use xlink:href="#DejaVuSans-6f" x="322.558594"/>
     <use xlink:href="#DejaVuSans-6c" x="383.740234"/>
     <use xlink:href="#DejaVuSans-73" x="411.523438"/>
     <use xlink:href="#DejaVuSans-20" x="463.623047"/>
     <use xlink:href="#DejaVuSans-69" x="495.410156"/>
     <use xlink:href="#DejaVuSans-64" x="523.193359"/>
     <use xlink:href="#DejaVuSans-78" x="586.669922"/>
     <use xlink:href="#DejaVuSans-73" x="645.849609"/>
     <use xlink:href="#DejaVuSans-74" x="697.949219"/>
     <use xlink:href="#DejaVuSans-61" x="737.158203"/>
     <use xlink:href="#DejaVuSans-74" x="798.4375"/>
     <use xlink:href="#DejaVuSans-73" x="837.646484"/>
     <use xlink:href="#DejaVuSans-3a" x="889.746094"/>
     <use xlink:href="#DejaVuSans-20" x="923.4375"/>
     <use xlink:href="#DejaVuSans-4d" x="955.224609"/>
     <use xlink:href="#DejaVuSans-61" x="1041.503906"/>
     <use xlink:href="#DejaVuSans-70" x="1102.783203"/>
     <use xlink:href="#DejaVuSans-70" x="1166.259766"/>
     <use xlink:href="#DejaVuSans-65" x="1229.736328"/>
     <use xlink:href="#DejaVuSans-64" x="1291.259766"/>
     <use xlink:href="#DejaVuSans-20" x="1354.736328"/>
     <use xlink:href="#DejaVuSans-72" x="1386.523438"/>
     <use xlink:href="#DejaVuSans-65" x="1425.386719"/>
     <use xlink:href="#DejaVuSans-61" x="1486.910156"/>
     <use xlink:href="#DejaVuSans-64" x="1548.189453"/>
     <use xlink:href="#DejaVuSans-73" x="1611.666016"/>
     <use xlink:href="#DejaVuSans-20" x="1663.765625"/>
     <use xlink:href="#DejaVuSans-70" x="1695.552734"/>
     <use xlink:href="#DejaVuSans-65" x="1759.029297"/>
     <use xlink:href="#DejaVuSans-72" x="1820.552734"/>
     <use xlink:href="#DejaVuSans-20" x="1861.666016"/>
     <use xlink:href="#DejaVuSans-63" x="1893.453125"/>
     <use xlink:href="#DejaVuSans-6f" x="1948.433594"/>
     <use xlink:href="#DejaVuSans-6e" x="2009.615234"/>
     <use xlink:href="#DejaVuSans-74" x="2072.994141"/>
     <use xlink:href="#DejaVuSans-69" x="2112.203125"/>
     <use xlink:href="#DejaVuSans-67" x="2139.986328"/>
    </g>
   </g>
  </g>
 </g>
 <defs>
  <clipPath id="p95d80db0d7">
   <rect x="40.600625" y="35.223275" width="952.54" height="317.3155"/>
  </clipPath>
 </defs>
</svg>
