<?xml version="1.0" encoding="utf-8" standalone="no"?>
<!DOCTYPE svg PUBLIC "-//W3C//DTD SVG 1.1//EN"
  "http://www.w3.org/Graphics/SVG/1.1/DTD/svg11.dtd">
<svg xmlns:xlink="http://www.w3.org/1999/xlink" width="1000.198125pt" height="388.844525pt" viewBox="0 0 1000.198125 388.844525" xmlns="http://www.w3.org/2000/svg" version="1.1">
 <metadata>
  <rdf:RDF xmlns:dc="http://purl.org/dc/elements/1.1/" xmlns:cc="http://creativecommons.org/ns#" xmlns:rdf="http://www.w3.org/1999/02/22-rdf-syntax-ns#">
   <cc:Work>
    <dc:type rdf:resource="http://purl.org/dc/dcmitype/StillImage"/>
    <dc:date>2024-09-01T20:20:55.435817</dc:date>
    <dc:format>image/svg+xml</dc:format>
    <dc:creator>
     <cc:Agent>
      <dc:title>Matplotlib v3.8.2, https://matplotlib.org/</dc:title>
     </cc:Agent>
    </dc:creator>
   </cc:Work>
  </rdf:RDF>
 </metadata>
 <defs>
  <style type="text/css">*{stroke-linejoin: round; stroke-linecap: butt}</style>
 </defs>
 <g id="figure_1">
  <g id="axes_1">
   <g id="patch_1">
    <path d="M 53.328125 353.2239 
L 992.998125 353.2239 
L 992.998125 35.2559 
L 53.328125 35.2559 
z
" style="fill: #ffffff"/>
   </g>
   <g id="matplotlib.axis_1">
    <g id="xtick_1">
     <g id="text_1">
      <!-- −200 -->
      <g transform="translate(167.026571 366.30265) scale(0.08 -0.08)">
       <defs>
        <path id="DejaVuSans-2212" d="M 678 2272 
L 4684 2272 
L 4684 1741 
L 678 1741 
L 678 2272 
z
" transform="scale(0.015625)"/>
        <path id="DejaVuSans-32" d="M 1228 531 
L 3431 531 
L 3431 0 
L 469 0 
L 469 531 
Q 828 903 1448 1529 
Q 2069 2156 2228 2338 
Q 2531 2678 2651 2914 
Q 2772 3150 2772 3378 
Q 2772 3750 2511 3984 
Q 2250 4219 1831 4219 
Q 1534 4219 1204 4116 
Q 875 4013 500 3803 
L 500 4441 
Q 881 4594 1212 4672 
Q 1544 4750 1819 4750 
Q 2544 4750 2975 4387 
Q 3406 4025 3406 3419 
Q 3406 3131 3298 2873 
Q 3191 2616 2906 2266 
Q 2828 2175 2409 1742 
Q 1991 1309 1228 531 
z
" transform="scale(0.015625)"/>
        <path id="DejaVuSans-30" d="M 2034 4250 
Q 1547 4250 1301 3770 
Q 1056 3291 1056 2328 
Q 1056 1369 1301 889 
Q 1547 409 2034 409 
Q 2525 409 2770 889 
Q 3016 1369 3016 2328 
Q 3016 3291 2770 3770 
Q 2525 4250 2034 4250 
z
M 2034 4750 
Q 2819 4750 3233 4129 
Q 3647 3509 3647 2328 
Q 3647 1150 3233 529 
Q 2819 -91 2034 -91 
Q 1250 -91 836 529 
Q 422 1150 422 2328 
Q 422 3509 836 4129 
Q 1250 4750 2034 4750 
z
" transform="scale(0.015625)"/>
       </defs>
       <use xlink:href="#DejaVuSans-2212"/>
       <use xlink:href="#DejaVuSans-32" x="83.789062"/>
       <use xlink:href="#DejaVuSans-30" x="147.412109"/>
       <use xlink:href="#DejaVuSans-30" x="211.035156"/>
      </g>
     </g>
    </g>
    <g id="xtick_2">
     <g id="text_2">
      <!-- −100 -->
      <g transform="translate(339.601411 366.30265) scale(0.08 -0.08)">
       <defs>
        <path id="DejaVuSans-31" d="M 794 531 
L 1825 531 
L 1825 4091 
L 703 3866 
L 703 4441 
L 1819 4666 
L 2450 4666 
L 2450 531 
L 3481 531 
L 3481 0 
L 794 0 
L 794 531 
z
" transform="scale(0.015625)"/>
       </defs>
       <use xlink:href="#DejaVuSans-2212"/>
       <use xlink:href="#DejaVuSans-31" x="83.789062"/>
       <use xlink:href="#DejaVuSans-30" x="147.412109"/>
       <use xlink:href="#DejaVuSans-30" x="211.035156"/>
      </g>
     </g>
    </g>
    <g id="xtick_3">
     <g id="text_3">
      <!-- 0 -->
      <g transform="translate(520.618125 366.30265) scale(0.08 -0.08)">
       <use xlink:href="#DejaVuSans-30"/>
      </g>
     </g>
    </g>
    <g id="xtick_4">
     <g id="text_4">
      <!-- 100 -->
      <g transform="translate(688.102964 366.30265) scale(0.08 -0.08)">
       <use xlink:href="#DejaVuSans-31"/>
       <use xlink:href="#DejaVuSans-30" x="63.623047"/>
       <use xlink:href="#DejaVuSans-30" x="127.246094"/>
      </g>
     </g>
    </g>
    <g id="xtick_5">
     <g id="text_5">
      <!-- 200 -->
      <g transform="translate(860.677804 366.30265) scale(0.08 -0.08)">
       <use xlink:href="#DejaVuSans-32"/>
       <use xlink:href="#DejaVuSans-30" x="63.623047"/>
       <use xlink:href="#DejaVuSans-30" x="127.246094"/>
      </g>
     </g>
    </g>
    <g id="text_6">
     <!-- Inner Distance (bp) -->
     <g transform="translate(474.927969 379.564837) scale(0.1 -0.1)">
      <defs>
       <path id="DejaVuSans-49" d="M 628 4666 
L 1259 4666 
L 1259 0 
L 628 0 
L 628 4666 
z
" transform="scale(0.015625)"/>
       <path id="DejaVuSans-6e" d="M 3513 2113 
L 3513 0 
L 2938 0 
L 2938 2094 
Q 2938 2591 2744 2837 
Q 2550 3084 2163 3084 
Q 1697 3084 1428 2787 
Q 1159 2491 1159 1978 
L 1159 0 
L 581 0 
L 581 3500 
L 1159 3500 
L 1159 2956 
Q 1366 3272 1645 3428 
Q 1925 3584 2291 3584 
Q 2894 3584 3203 3211 
Q 3513 2838 3513 2113 
z
" transform="scale(0.015625)"/>
       <path id="DejaVuSans-65" d="M 3597 1894 
L 3597 1613 
L 953 1613 
Q 991 1019 1311 708 
Q 1631 397 2203 397 
Q 2534 397 2845 478 
Q 3156 559 3463 722 
L 3463 178 
Q 3153 47 2828 -22 
Q 2503 -91 2169 -91 
Q 1331 -91 842 396 
Q 353 884 353 1716 
Q 353 2575 817 3079 
Q 1281 3584 2069 3584 
Q 2775 3584 3186 3129 
Q 3597 2675 3597 1894 
z
M 3022 2063 
Q 3016 2534 2758 2815 
Q 2500 3097 2075 3097 
Q 1594 3097 1305 2825 
Q 1016 2553 972 2059 
L 3022 2063 
z
" transform="scale(0.015625)"/>
       <path id="DejaVuSans-72" d="M 2631 2963 
Q 2534 3019 2420 3045 
Q 2306 3072 2169 3072 
Q 1681 3072 1420 2755 
Q 1159 2438 1159 1844 
L 1159 0 
L 581 0 
L 581 3500 
L 1159 3500 
L 1159 2956 
Q 1341 3275 1631 3429 
Q 1922 3584 2338 3584 
Q 2397 3584 2469 3576 
Q 2541 3569 2628 3553 
L 2631 2963 
z
" transform="scale(0.015625)"/>
       <path id="DejaVuSans-20" transform="scale(0.015625)"/>
       <path id="DejaVuSans-44" d="M 1259 4147 
L 1259 519 
L 2022 519 
Q 2988 519 3436 956 
Q 3884 1394 3884 2338 
Q 3884 3275 3436 3711 
Q 2988 4147 2022 4147 
L 1259 4147 
z
M 628 4666 
L 1925 4666 
Q 3281 4666 3915 4102 
Q 4550 3538 4550 2338 
Q 4550 1131 3912 565 
Q 3275 0 1925 0 
L 628 0 
L 628 4666 
z
" transform="scale(0.015625)"/>
       <path id="DejaVuSans-69" d="M 603 3500 
L 1178 3500 
L 1178 0 
L 603 0 
L 603 3500 
z
M 603 4863 
L 1178 4863 
L 1178 4134 
L 603 4134 
L 603 4863 
z
" transform="scale(0.015625)"/>
       <path id="DejaVuSans-73" d="M 2834 3397 
L 2834 2853 
Q 2591 2978 2328 3040 
Q 2066 3103 1784 3103 
Q 1356 3103 1142 2972 
Q 928 2841 928 2578 
Q 928 2378 1081 2264 
Q 1234 2150 1697 2047 
L 1894 2003 
Q 2506 1872 2764 1633 
Q 3022 1394 3022 966 
Q 3022 478 2636 193 
Q 2250 -91 1575 -91 
Q 1294 -91 989 -36 
Q 684 19 347 128 
L 347 722 
Q 666 556 975 473 
Q 1284 391 1588 391 
Q 1994 391 2212 530 
Q 2431 669 2431 922 
Q 2431 1156 2273 1281 
Q 2116 1406 1581 1522 
L 1381 1569 
Q 847 1681 609 1914 
Q 372 2147 372 2553 
Q 372 3047 722 3315 
Q 1072 3584 1716 3584 
Q 2034 3584 2315 3537 
Q 2597 3491 2834 3397 
z
" transform="scale(0.015625)"/>
       <path id="DejaVuSans-74" d="M 1172 4494 
L 1172 3500 
L 2356 3500 
L 2356 3053 
L 1172 3053 
L 1172 1153 
Q 1172 725 1289 603 
Q 1406 481 1766 481 
L 2356 481 
L 2356 0 
L 1766 0 
Q 1100 0 847 248 
Q 594 497 594 1153 
L 594 3053 
L 172 3053 
L 172 3500 
L 594 3500 
L 594 4494 
L 1172 4494 
z
" transform="scale(0.015625)"/>
       <path id="DejaVuSans-61" d="M 2194 1759 
Q 1497 1759 1228 1600 
Q 959 1441 959 1056 
Q 959 750 1161 570 
Q 1363 391 1709 391 
Q 2188 391 2477 730 
Q 2766 1069 2766 1631 
L 2766 1759 
L 2194 1759 
z
M 3341 1997 
L 3341 0 
L 2766 0 
L 2766 531 
Q 2569 213 2275 61 
Q 1981 -91 1556 -91 
Q 1019 -91 701 211 
Q 384 513 384 1019 
Q 384 1609 779 1909 
Q 1175 2209 1959 2209 
L 2766 2209 
L 2766 2266 
Q 2766 2663 2505 2880 
Q 2244 3097 1772 3097 
Q 1472 3097 1187 3025 
Q 903 2953 641 2809 
L 641 3341 
Q 956 3463 1253 3523 
Q 1550 3584 1831 3584 
Q 2591 3584 2966 3190 
Q 3341 2797 3341 1997 
z
" transform="scale(0.015625)"/>
       <path id="DejaVuSans-63" d="M 3122 3366 
L 3122 2828 
Q 2878 2963 2633 3030 
Q 2388 3097 2138 3097 
Q 1578 3097 1268 2742 
Q 959 2388 959 1747 
Q 959 1106 1268 751 
Q 1578 397 2138 397 
Q 2388 397 2633 464 
Q 2878 531 3122 666 
L 3122 134 
Q 2881 22 2623 -34 
Q 2366 -91 2075 -91 
Q 1284 -91 818 406 
Q 353 903 353 1747 
Q 353 2603 823 3093 
Q 1294 3584 2113 3584 
Q 2378 3584 2631 3529 
Q 2884 3475 3122 3366 
z
" transform="scale(0.015625)"/>
       <path id="DejaVuSans-28" d="M 1984 4856 
Q 1566 4138 1362 3434 
Q 1159 2731 1159 2009 
Q 1159 1288 1364 580 
Q 1569 -128 1984 -844 
L 1484 -844 
Q 1016 -109 783 600 
Q 550 1309 550 2009 
Q 550 2706 781 3412 
Q 1013 4119 1484 4856 
L 1984 4856 
z
" transform="scale(0.015625)"/>
       <path id="DejaVuSans-62" d="M 3116 1747 
Q 3116 2381 2855 2742 
Q 2594 3103 2138 3103 
Q 1681 3103 1420 2742 
Q 1159 2381 1159 1747 
Q 1159 1113 1420 752 
Q 1681 391 2138 391 
Q 2594 391 2855 752 
Q 3116 1113 3116 1747 
z
M 1159 2969 
Q 1341 3281 1617 3432 
Q 1894 3584 2278 3584 
Q 2916 3584 3314 3078 
Q 3713 2572 3713 1747 
Q 3713 922 3314 415 
Q 2916 -91 2278 -91 
Q 1894 -91 1617 61 
Q 1341 213 1159 525 
L 1159 0 
L 581 0 
L 581 4863 
L 1159 4863 
L 1159 2969 
z
" transform="scale(0.015625)"/>
       <path id="DejaVuSans-70" d="M 1159 525 
L 1159 -1331 
L 581 -1331 
L 581 3500 
L 1159 3500 
L 1159 2969 
Q 1341 3281 1617 3432 
Q 1894 3584 2278 3584 
Q 2916 3584 3314 3078 
Q 3713 2572 3713 1747 
Q 3713 922 3314 415 
Q 2916 -91 2278 -91 
Q 1894 -91 1617 61 
Q 1341 213 1159 525 
z
M 3116 1747 
Q 3116 2381 2855 2742 
Q 2594 3103 2138 3103 
Q 1681 3103 1420 2742 
Q 1159 2381 1159 1747 
Q 1159 1113 1420 752 
Q 1681 391 2138 391 
Q 2594 391 2855 752 
Q 3116 1113 3116 1747 
z
" transform="scale(0.015625)"/>
       <path id="DejaVuSans-29" d="M 513 4856 
L 1013 4856 
Q 1481 4119 1714 3412 
Q 1947 2706 1947 2009 
Q 1947 1309 1714 600 
Q 1481 -109 1013 -844 
L 513 -844 
Q 928 -128 1133 580 
Q 1338 1288 1338 2009 
Q 1338 2731 1133 3434 
Q 928 4138 513 4856 
z
" transform="scale(0.015625)"/>
      </defs>
      <use xlink:href="#DejaVuSans-49"/>
      <use xlink:href="#DejaVuSans-6e" x="29.492188"/>
      <use xlink:href="#DejaVuSans-6e" x="92.871094"/>
      <use xlink:href="#DejaVuSans-65" x="156.25"/>
      <use xlink:href="#DejaVuSans-72" x="217.773438"/>
      <use xlink:href="#DejaVuSans-20" x="258.886719"/>
      <use xlink:href="#DejaVuSans-44" x="290.673828"/>
      <use xlink:href="#DejaVuSans-69" x="367.675781"/>
      <use xlink:href="#DejaVuSans-73" x="395.458984"/>
      <use xlink:href="#DejaVuSans-74" x="447.558594"/>
      <use xlink:href="#DejaVuSans-61" x="486.767578"/>
      <use xlink:href="#DejaVuSans-6e" x="548.046875"/>
      <use xlink:href="#DejaVuSans-63" x="611.425781"/>
      <use xlink:href="#DejaVuSans-65" x="666.40625"/>
      <use xlink:href="#DejaVuSans-20" x="727.929688"/>
      <use xlink:href="#DejaVuSans-28" x="759.716797"/>
      <use xlink:href="#DejaVuSans-62" x="798.730469"/>
      <use xlink:href="#DejaVuSans-70" x="862.207031"/>
      <use xlink:href="#DejaVuSans-29" x="925.683594"/>
     </g>
    </g>
   </g>
   <g id="matplotlib.axis_2">
    <g id="ytick_1">
     <g id="line2d_1">
      <path d="M 53.328125 338.770809 
L 992.998125 338.770809 
" clip-path="url(#pfd24df8cdd)" style="fill: none; stroke: #dedede; stroke-linecap: square"/>
     </g>
     <g id="text_7">
      <!-- 0 -->
      <g transform="translate(41.238125 341.810184) scale(0.08 -0.08)">
       <use xlink:href="#DejaVuSans-30"/>
      </g>
     </g>
    </g>
    <g id="ytick_2">
     <g id="line2d_2">
      <path d="M 53.328125 300.31742 
L 992.998125 300.31742 
" clip-path="url(#pfd24df8cdd)" style="fill: none; stroke: #dedede; stroke-linecap: square"/>
     </g>
     <g id="text_8">
      <!-- 10000 -->
      <g transform="translate(20.878125 303.356795) scale(0.08 -0.08)">
       <use xlink:href="#DejaVuSans-31"/>
       <use xlink:href="#DejaVuSans-30" x="63.623047"/>
       <use xlink:href="#DejaVuSans-30" x="127.246094"/>
       <use xlink:href="#DejaVuSans-30" x="190.869141"/>
       <use xlink:href="#DejaVuSans-30" x="254.492188"/>
      </g>
     </g>
    </g>
    <g id="ytick_3">
     <g id="line2d_3">
      <path d="M 53.328125 261.86403 
L 992.998125 261.86403 
" clip-path="url(#pfd24df8cdd)" style="fill: none; stroke: #dedede; stroke-linecap: square"/>
     </g>
     <g id="text_9">
      <!-- 20000 -->
      <g transform="translate(20.878125 264.903405) scale(0.08 -0.08)">
       <use xlink:href="#DejaVuSans-32"/>
       <use xlink:href="#DejaVuSans-30" x="63.623047"/>
       <use xlink:href="#DejaVuSans-30" x="127.246094"/>
       <use xlink:href="#DejaVuSans-30" x="190.869141"/>
       <use xlink:href="#DejaVuSans-30" x="254.492188"/>
      </g>
     </g>
    </g>
    <g id="ytick_4">
     <g id="line2d_4">
      <path d="M 53.328125 223.410641 
L 992.998125 223.410641 
" clip-path="url(#pfd24df8cdd)" style="fill: none; stroke: #dedede; stroke-linecap: square"/>
     </g>
     <g id="text_10">
      <!-- 30000 -->
      <g transform="translate(20.878125 226.450016) scale(0.08 -0.08)">
       <defs>
        <path id="DejaVuSans-33" d="M 2597 2516 
Q 3050 2419 3304 2112 
Q 3559 1806 3559 1356 
Q 3559 666 3084 287 
Q 2609 -91 1734 -91 
Q 1441 -91 1130 -33 
Q 819 25 488 141 
L 488 750 
Q 750 597 1062 519 
Q 1375 441 1716 441 
Q 2309 441 2620 675 
Q 2931 909 2931 1356 
Q 2931 1769 2642 2001 
Q 2353 2234 1838 2234 
L 1294 2234 
L 1294 2753 
L 1863 2753 
Q 2328 2753 2575 2939 
Q 2822 3125 2822 3475 
Q 2822 3834 2567 4026 
Q 2313 4219 1838 4219 
Q 1578 4219 1281 4162 
Q 984 4106 628 3988 
L 628 4550 
Q 988 4650 1302 4700 
Q 1616 4750 1894 4750 
Q 2613 4750 3031 4423 
Q 3450 4097 3450 3541 
Q 3450 3153 3228 2886 
Q 3006 2619 2597 2516 
z
" transform="scale(0.015625)"/>
       </defs>
       <use xlink:href="#DejaVuSans-33"/>
       <use xlink:href="#DejaVuSans-30" x="63.623047"/>
       <use xlink:href="#DejaVuSans-30" x="127.246094"/>
       <use xlink:href="#DejaVuSans-30" x="190.869141"/>
       <use xlink:href="#DejaVuSans-30" x="254.492188"/>
      </g>
     </g>
    </g>
    <g id="ytick_5">
     <g id="line2d_5">
      <path d="M 53.328125 184.957252 
L 992.998125 184.957252 
" clip-path="url(#pfd24df8cdd)" style="fill: none; stroke: #dedede; stroke-linecap: square"/>
     </g>
     <g id="text_11">
      <!-- 40000 -->
      <g transform="translate(20.878125 187.996627) scale(0.08 -0.08)">
       <defs>
        <path id="DejaVuSans-34" d="M 2419 4116 
L 825 1625 
L 2419 1625 
L 2419 4116 
z
M 2253 4666 
L 3047 4666 
L 3047 1625 
L 3713 1625 
L 3713 1100 
L 3047 1100 
L 3047 0 
L 2419 0 
L 2419 1100 
L 313 1100 
L 313 1709 
L 2253 4666 
z
" transform="scale(0.015625)"/>
       </defs>
       <use xlink:href="#DejaVuSans-34"/>
       <use xlink:href="#DejaVuSans-30" x="63.623047"/>
       <use xlink:href="#DejaVuSans-30" x="127.246094"/>
       <use xlink:href="#DejaVuSans-30" x="190.869141"/>
       <use xlink:href="#DejaVuSans-30" x="254.492188"/>
      </g>
     </g>
    </g>
    <g id="ytick_6">
     <g id="line2d_6">
      <path d="M 53.328125 146.503863 
L 992.998125 146.503863 
" clip-path="url(#pfd24df8cdd)" style="fill: none; stroke: #dedede; stroke-linecap: square"/>
     </g>
     <g id="text_12">
      <!-- 50000 -->
      <g transform="translate(20.878125 149.543238) scale(0.08 -0.08)">
       <defs>
        <path id="DejaVuSans-35" d="M 691 4666 
L 3169 4666 
L 3169 4134 
L 1269 4134 
L 1269 2991 
Q 1406 3038 1543 3061 
Q 1681 3084 1819 3084 
Q 2600 3084 3056 2656 
Q 3513 2228 3513 1497 
Q 3513 744 3044 326 
Q 2575 -91 1722 -91 
Q 1428 -91 1123 -41 
Q 819 9 494 109 
L 494 744 
Q 775 591 1075 516 
Q 1375 441 1709 441 
Q 2250 441 2565 725 
Q 2881 1009 2881 1497 
Q 2881 1984 2565 2268 
Q 2250 2553 1709 2553 
Q 1456 2553 1204 2497 
Q 953 2441 691 2322 
L 691 4666 
z
" transform="scale(0.015625)"/>
       </defs>
       <use xlink:href="#DejaVuSans-35"/>
       <use xlink:href="#DejaVuSans-30" x="63.623047"/>
       <use xlink:href="#DejaVuSans-30" x="127.246094"/>
       <use xlink:href="#DejaVuSans-30" x="190.869141"/>
       <use xlink:href="#DejaVuSans-30" x="254.492188"/>
      </g>
     </g>
    </g>
    <g id="ytick_7">
     <g id="line2d_7">
      <path d="M 53.328125 108.050473 
L 992.998125 108.050473 
" clip-path="url(#pfd24df8cdd)" style="fill: none; stroke: #dedede; stroke-linecap: square"/>
     </g>
     <g id="text_13">
      <!-- 60000 -->
      <g transform="translate(20.878125 111.089848) scale(0.08 -0.08)">
       <defs>
        <path id="DejaVuSans-36" d="M 2113 2584 
Q 1688 2584 1439 2293 
Q 1191 2003 1191 1497 
Q 1191 994 1439 701 
Q 1688 409 2113 409 
Q 2538 409 2786 701 
Q 3034 994 3034 1497 
Q 3034 2003 2786 2293 
Q 2538 2584 2113 2584 
z
M 3366 4563 
L 3366 3988 
Q 3128 4100 2886 4159 
Q 2644 4219 2406 4219 
Q 1781 4219 1451 3797 
Q 1122 3375 1075 2522 
Q 1259 2794 1537 2939 
Q 1816 3084 2150 3084 
Q 2853 3084 3261 2657 
Q 3669 2231 3669 1497 
Q 3669 778 3244 343 
Q 2819 -91 2113 -91 
Q 1303 -91 875 529 
Q 447 1150 447 2328 
Q 447 3434 972 4092 
Q 1497 4750 2381 4750 
Q 2619 4750 2861 4703 
Q 3103 4656 3366 4563 
z
" transform="scale(0.015625)"/>
       </defs>
       <use xlink:href="#DejaVuSans-36"/>
       <use xlink:href="#DejaVuSans-30" x="63.623047"/>
       <use xlink:href="#DejaVuSans-30" x="127.246094"/>
       <use xlink:href="#DejaVuSans-30" x="190.869141"/>
       <use xlink:href="#DejaVuSans-30" x="254.492188"/>
      </g>
     </g>
    </g>
    <g id="ytick_8">
     <g id="line2d_8">
      <path d="M 53.328125 69.597084 
L 992.998125 69.597084 
" clip-path="url(#pfd24df8cdd)" style="fill: none; stroke: #dedede; stroke-linecap: square"/>
     </g>
     <g id="text_14">
      <!-- 70000 -->
      <g transform="translate(20.878125 72.636459) scale(0.08 -0.08)">
       <defs>
        <path id="DejaVuSans-37" d="M 525 4666 
L 3525 4666 
L 3525 4397 
L 1831 0 
L 1172 0 
L 2766 4134 
L 525 4134 
L 525 4666 
z
" transform="scale(0.015625)"/>
       </defs>
       <use xlink:href="#DejaVuSans-37"/>
       <use xlink:href="#DejaVuSans-30" x="63.623047"/>
       <use xlink:href="#DejaVuSans-30" x="127.246094"/>
       <use xlink:href="#DejaVuSans-30" x="190.869141"/>
       <use xlink:href="#DejaVuSans-30" x="254.492188"/>
      </g>
     </g>
    </g>
    <g id="text_15">
     <!-- Counts -->
     <g transform="translate(14.798437 211.693025) rotate(-90) scale(0.1 -0.1)">
      <defs>
       <path id="DejaVuSans-43" d="M 4122 4306 
L 4122 3641 
Q 3803 3938 3442 4084 
Q 3081 4231 2675 4231 
Q 1875 4231 1450 3742 
Q 1025 3253 1025 2328 
Q 1025 1406 1450 917 
Q 1875 428 2675 428 
Q 3081 428 3442 575 
Q 3803 722 4122 1019 
L 4122 359 
Q 3791 134 3420 21 
Q 3050 -91 2638 -91 
Q 1578 -91 968 557 
Q 359 1206 359 2328 
Q 359 3453 968 4101 
Q 1578 4750 2638 4750 
Q 3056 4750 3426 4639 
Q 3797 4528 4122 4306 
z
" transform="scale(0.015625)"/>
       <path id="DejaVuSans-6f" d="M 1959 3097 
Q 1497 3097 1228 2736 
Q 959 2375 959 1747 
Q 959 1119 1226 758 
Q 1494 397 1959 397 
Q 2419 397 2687 759 
Q 2956 1122 2956 1747 
Q 2956 2369 2687 2733 
Q 2419 3097 1959 3097 
z
M 1959 3584 
Q 2709 3584 3137 3096 
Q 3566 2609 3566 1747 
Q 3566 888 3137 398 
Q 2709 -91 1959 -91 
Q 1206 -91 779 398 
Q 353 888 353 1747 
Q 353 2609 779 3096 
Q 1206 3584 1959 3584 
z
" transform="scale(0.015625)"/>
       <path id="DejaVuSans-75" d="M 544 1381 
L 544 3500 
L 1119 3500 
L 1119 1403 
Q 1119 906 1312 657 
Q 1506 409 1894 409 
Q 2359 409 2629 706 
Q 2900 1003 2900 1516 
L 2900 3500 
L 3475 3500 
L 3475 0 
L 2900 0 
L 2900 538 
Q 2691 219 2414 64 
Q 2138 -91 1772 -91 
Q 1169 -91 856 284 
Q 544 659 544 1381 
z
M 1991 3584 
L 1991 3584 
z
" transform="scale(0.015625)"/>
      </defs>
      <use xlink:href="#DejaVuSans-43"/>
      <use xlink:href="#DejaVuSans-6f" x="69.824219"/>
      <use xlink:href="#DejaVuSans-75" x="131.005859"/>
      <use xlink:href="#DejaVuSans-6e" x="194.384766"/>
      <use xlink:href="#DejaVuSans-74" x="257.763672"/>
      <use xlink:href="#DejaVuSans-73" x="296.972656"/>
     </g>
    </g>
   </g>
   <g id="line2d_9">
    <path d="M 96.040398 338.770809 
L 104.66914 338.770809 
L 113.297882 338.770809 
L 121.926624 338.770809 
L 130.555366 338.770809 
L 139.184108 338.770809 
L 147.81285 338.770809 
L 156.441591 338.770809 
L 165.070333 338.770809 
L 173.699075 338.770809 
L 182.327817 338.770809 
L 190.956559 338.770809 
L 199.585301 338.770809 
L 208.214043 338.770809 
L 216.842785 338.770809 
L 225.471527 338.770809 
L 234.100269 338.770809 
L 242.729011 338.770809 
L 251.357753 338.770809 
L 259.986495 329.788097 
L 268.615237 254.650175 
L 277.243979 243.183374 
L 285.872721 241.706764 
L 294.501463 240.522399 
L 303.130205 238.445916 
L 311.758947 237.40383 
L 320.387689 235.661891 
L 329.016431 235.092781 
L 337.645173 234.562124 
L 346.273915 234.185281 
L 354.902657 236.603999 
L 363.531399 237.307696 
L 372.160141 238.0883 
L 380.788883 240.187855 
L 389.417625 242.406615 
L 398.046367 244.95223 
L 406.675108 248.0708 
L 415.30385 252.642908 
L 423.932592 253.219709 
L 432.561334 256.718967 
L 441.190076 259.022325 
L 449.818818 261.494878 
L 458.44756 263.61366 
L 467.076302 264.709581 
L 475.705044 265.051816 
L 484.333786 268.124242 
L 492.962528 274.261403 
L 501.59127 276.260979 
L 510.220012 279.644878 
L 518.848754 276.514772 
L 527.477496 284.463087 
L 536.106238 285.501329 
L 544.73498 287.374009 
L 553.363722 290.465661 
L 561.992464 292.572907 
L 570.621206 294.41867 
L 579.249948 297.156551 
L 587.87869 298.38706 
L 596.507432 301.278755 
L 605.136174 301.828638 
L 613.764916 303.174507 
L 622.393658 305.427875 
L 631.0224 307.327473 
L 639.651142 308.192674 
L 648.279883 309.488553 
L 656.908625 311.003617 
L 665.537367 313.283903 
L 674.166109 313.806869 
L 682.794851 315.46421 
L 691.423593 316.66011 
L 700.052335 318.321297 
L 708.681077 319.090364 
L 717.309819 319.517197 
L 725.938561 320.997653 
L 734.567303 321.820555 
L 743.196045 323.066445 
L 751.824787 323.520195 
L 760.453529 323.908574 
L 769.082271 324.981424 
L 777.711013 325.892769 
L 786.339755 325.996593 
L 794.968497 326.942547 
L 803.597239 327.484739 
L 812.225981 328.161519 
L 820.854723 328.453765 
L 829.483465 329.265131 
L 838.112207 329.872695 
L 846.740949 329.938066 
L 855.369691 330.545629 
L 863.998433 330.914782 
L 872.627175 331.503119 
L 881.255917 332.026085 
L 889.884659 331.853044 
L 898.5134 332.664411 
L 907.142142 332.910513 
L 915.770884 332.998955 
L 924.399626 333.529612 
L 933.028368 333.414252 
L 941.65711 333.625746 
L 950.285852 333.994898 
" clip-path="url(#pfd24df8cdd)" style="fill: none; stroke: #7cb5ec; stroke-linecap: square"/>
   </g>
   <g id="line2d_10">
    <path d="M 96.040398 338.770809 
L 104.66914 338.770809 
L 113.297882 338.770809 
L 121.926624 338.770809 
L 130.555366 338.770809 
L 139.184108 338.770809 
L 147.81285 338.770809 
L 156.441591 338.770809 
L 165.070333 338.770809 
L 173.699075 338.770809 
L 182.327817 338.770809 
L 190.956559 338.770809 
L 199.585301 338.770809 
L 208.214043 338.770809 
L 216.842785 338.770809 
L 225.471527 338.770809 
L 234.100269 338.770809 
L 242.729011 338.770809 
L 251.357753 338.770809 
L 259.986495 330.007282 
L 268.615237 253.827272 
L 277.243979 240.560853 
L 285.872721 240.30706 
L 294.501463 237.653777 
L 303.130205 237.223099 
L 311.758947 236.027198 
L 320.387689 232.893247 
L 329.016431 233.454666 
L 337.645173 233.670005 
L 346.273915 234.819762 
L 354.902657 235.996435 
L 363.531399 237.011605 
L 372.160141 237.811435 
L 380.788883 241.349147 
L 389.417625 242.768077 
L 398.046367 246.063533 
L 406.675108 248.774497 
L 415.30385 252.439105 
L 423.932592 257.049666 
L 432.561334 258.418607 
L 441.190076 261.214168 
L 449.818818 262.337007 
L 458.44756 264.698045 
L 467.076302 264.494242 
L 475.705044 267.116763 
L 484.333786 269.358596 
L 492.962528 275.388087 
L 501.59127 279.433384 
L 510.220012 281.348363 
L 518.848754 278.325926 
L 527.477496 286.524189 
L 536.106238 287.44707 
L 544.73498 289.685058 
L 553.363722 291.203967 
L 561.992464 293.757272 
L 570.621206 296.137536 
L 579.249948 298.283235 
L 587.87869 300.071318 
L 596.507432 301.22492 
L 605.136174 303.112981 
L 613.764916 305.112557 
L 622.393658 306.739136 
L 631.0224 307.931191 
L 639.651142 309.938458 
L 648.279883 310.830576 
L 656.908625 312.295651 
L 665.537367 312.434083 
L 674.166109 314.202939 
L 682.794851 316.067928 
L 691.423593 316.506297 
L 700.052335 318.048278 
L 708.681077 318.936551 
L 717.309819 319.88635 
L 725.938561 321.289898 
L 734.567303 321.720576 
L 743.196045 322.835725 
L 751.824787 323.57403 
L 760.453529 324.193129 
L 769.082271 324.981424 
L 777.711013 325.738955 
L 786.339755 326.29653 
L 794.968497 326.857949 
L 803.597239 327.569337 
L 812.225981 328.180746 
L 820.854723 328.74601 
L 829.483465 328.796 
L 838.112207 329.203606 
L 846.740949 329.718881 
L 855.369691 330.403352 
L 863.998433 330.710979 
L 872.627175 331.053214 
L 881.255917 331.522345 
L 889.884659 331.876116 
L 898.5134 332.256805 
L 907.142142 332.306794 
L 915.770884 332.960502 
L 924.399626 333.437324 
L 933.028368 333.421943 
L 941.65711 333.67189 
L 950.285852 333.641127 
" clip-path="url(#pfd24df8cdd)" style="fill: none; stroke: #434348; stroke-linecap: square"/>
   </g>
   <g id="line2d_11">
    <path d="M 96.040398 338.770809 
L 104.66914 338.770809 
L 113.297882 338.770809 
L 121.926624 338.770809 
L 130.555366 338.770809 
L 139.184108 338.770809 
L 147.81285 338.770809 
L 156.441591 338.770809 
L 165.070333 338.770809 
L 173.699075 338.770809 
L 182.327817 338.770809 
L 190.956559 338.770809 
L 199.585301 338.770809 
L 208.214043 338.770809 
L 216.842785 338.770809 
L 225.471527 338.770809 
L 234.100269 338.770809 
L 242.729011 338.770809 
L 251.357753 338.770809 
L 259.986495 329.988055 
L 268.615237 258.164814 
L 277.243979 245.709762 
L 285.872721 245.217558 
L 294.501463 242.129751 
L 303.130205 240.949232 
L 311.758947 238.395927 
L 320.387689 238.349783 
L 329.016431 237.319232 
L 337.645173 235.688808 
L 346.273915 237.919105 
L 354.902657 236.723205 
L 363.531399 239.872537 
L 372.160141 239.876382 
L 380.788883 242.656562 
L 389.417625 245.040673 
L 398.046367 248.043882 
L 406.675108 251.239359 
L 415.30385 254.234878 
L 423.932592 257.207325 
L 432.561334 259.860609 
L 441.190076 260.848861 
L 449.818818 263.179136 
L 458.44756 265.963162 
L 467.076302 266.040069 
L 475.705044 266.501509 
L 484.333786 268.435715 
L 492.962528 275.115068 
L 501.59127 278.76045 
L 510.220012 281.875174 
L 518.848754 277.030047 
L 527.477496 286.181954 
L 536.106238 287.597039 
L 544.73498 289.062113 
L 553.363722 292.711339 
L 561.992464 294.53403 
L 570.621206 295.656869 
L 579.249948 296.768172 
L 587.87869 299.136901 
L 596.507432 300.990354 
L 605.136174 303.224496 
L 613.764916 303.920502 
L 622.393658 305.750884 
L 631.0224 307.57742 
L 639.651142 308.965587 
L 648.279883 309.580841 
L 656.908625 310.988235 
L 665.537367 312.23028 
L 674.166109 314.50672 
L 682.794851 315.175809 
L 691.423593 316.60243 
L 700.052335 317.352271 
L 708.681077 318.048278 
L 717.309819 319.644093 
L 725.938561 320.028627 
L 734.567303 321.186074 
L 743.196045 322.178172 
L 751.824787 322.658839 
L 760.453529 323.101053 
L 769.082271 324.277727 
L 777.711013 325.289051 
L 786.339755 326.173479 
L 794.968497 326.150407 
L 803.597239 326.500333 
L 812.225981 327.350152 
L 820.854723 328.065386 
L 829.483465 328.146138 
L 838.112207 329.130544 
L 846.740949 329.507388 
L 855.369691 329.888076 
L 863.998433 330.299527 
L 872.627175 330.337981 
L 881.255917 331.314697 
L 889.884659 331.333924 
L 898.5134 331.753066 
L 907.142142 331.991477 
L 915.770884 332.19528 
L 924.399626 332.722091 
L 933.028368 332.895131 
L 941.65711 333.060481 
L 950.285852 333.345036 
" clip-path="url(#pfd24df8cdd)" style="fill: none; stroke: #90ed7d; stroke-linecap: square"/>
   </g>
   <g id="line2d_12">
    <path d="M 96.040398 338.770809 
L 104.66914 338.770809 
L 113.297882 338.770809 
L 121.926624 338.770809 
L 130.555366 338.770809 
L 139.184108 338.770809 
L 147.81285 338.770809 
L 156.441591 338.770809 
L 165.070333 338.770809 
L 173.699075 338.770809 
L 182.327817 338.770809 
L 190.956559 338.770809 
L 199.585301 338.770809 
L 208.214043 338.770809 
L 216.842785 338.770809 
L 225.471527 338.770809 
L 234.100269 338.770809 
L 242.729011 338.770809 
L 251.357753 338.770809 
L 259.986495 331.226254 
L 268.615237 267.612812 
L 277.243979 256.084486 
L 285.872721 254.834751 
L 294.501463 253.00437 
L 303.130205 250.962495 
L 311.758947 249.055206 
L 320.387689 247.943904 
L 329.016431 245.6367 
L 337.645173 245.455969 
L 346.273915 244.544624 
L 354.902657 245.467505 
L 363.531399 245.417516 
L 372.160141 245.552103 
L 380.788883 247.244052 
L 389.417625 249.235937 
L 398.046367 251.689264 
L 406.675108 253.538872 
L 415.30385 256.30367 
L 423.932592 258.087908 
L 432.561334 261.175715 
L 441.190076 262.179348 
L 449.818818 264.898003 
L 458.44756 266.409221 
L 467.076302 265.790122 
L 475.705044 266.132357 
L 484.333786 268.866393 
L 492.962528 273.923013 
L 501.59127 276.237907 
L 510.220012 277.649147 
L 518.848754 274.768988 
L 527.477496 283.367166 
L 536.106238 284.355418 
L 544.73498 284.363109 
L 553.363722 287.262494 
L 561.992464 288.627589 
L 570.621206 291.834602 
L 579.249948 292.94206 
L 587.87869 294.572483 
L 596.507432 295.918352 
L 605.136174 297.644909 
L 613.764916 300.090545 
L 622.393658 302.286233 
L 631.0224 302.970704 
L 639.651142 305.031805 
L 648.279883 305.71243 
L 656.908625 307.362081 
L 665.537367 308.611816 
L 674.166109 310.273002 
L 682.794851 312.084157 
L 691.423593 312.530216 
L 700.052335 313.653055 
L 708.681077 315.048913 
L 717.309819 316.648574 
L 725.938561 317.629136 
L 734.567303 318.336678 
L 743.196045 319.201879 
L 751.824787 320.536212 
L 760.453529 321.132239 
L 769.082271 322.378129 
L 777.711013 322.885714 
L 786.339755 323.374072 
L 794.968497 324.208511 
L 803.597239 324.962197 
L 812.225981 325.85047 
L 820.854723 326.400354 
L 829.483465 326.850258 
L 838.112207 327.207875 
L 846.740949 327.346307 
L 855.369691 328.496063 
L 863.998433 329.157462 
L 872.627175 329.699655 
L 881.255917 329.880385 
L 889.884659 330.195703 
L 898.5134 330.507176 
L 907.142142 331.049369 
L 915.770884 331.391604 
L 924.399626 331.610788 
L 933.028368 332.129909 
L 941.65711 332.133754 
L 950.285852 332.395237 
" clip-path="url(#pfd24df8cdd)" style="fill: none; stroke: #f7a35c; stroke-linecap: square"/>
   </g>
   <g id="line2d_13">
    <path d="M 96.040398 338.770809 
L 104.66914 338.770809 
L 113.297882 338.770809 
L 121.926624 338.770809 
L 130.555366 338.770809 
L 139.184108 338.770809 
L 147.81285 338.770809 
L 156.441591 338.770809 
L 165.070333 338.770809 
L 173.699075 338.770809 
L 182.327817 338.770809 
L 190.956559 338.770809 
L 199.585301 338.770809 
L 208.214043 338.770809 
L 216.842785 338.770809 
L 225.471527 338.770809 
L 234.100269 338.770809 
L 242.729011 338.770809 
L 251.357753 338.770809 
L 259.986495 329.24975 
L 268.615237 253.492728 
L 277.243979 239.799476 
L 285.872721 236.830874 
L 294.501463 234.346785 
L 303.130205 232.112643 
L 311.758947 230.166902 
L 320.387689 229.990016 
L 329.016431 229.532421 
L 337.645173 228.644147 
L 346.273915 231.062866 
L 354.902657 231.043639 
L 363.531399 233.37776 
L 372.160141 235.500387 
L 380.788883 240.003279 
L 389.417625 241.672156 
L 398.046367 244.244687 
L 406.675108 248.889857 
L 415.30385 252.815948 
L 423.932592 256.63437 
L 432.561334 258.295556 
L 441.190076 261.491033 
L 449.818818 264.624984 
L 458.44756 266.097749 
L 467.076302 267.143681 
L 475.705044 268.128088 
L 484.333786 270.408374 
L 492.962528 279.110376 
L 501.59127 282.690386 
L 510.220012 284.801477 
L 518.848754 281.09457 
L 527.477496 291.046308 
L 536.106238 290.823278 
L 544.73498 293.561159 
L 553.363722 296.833543 
L 561.992464 297.502632 
L 570.621206 300.102081 
L 579.249948 301.17493 
L 587.87869 303.166816 
L 596.507432 304.835693 
L 605.136174 305.635524 
L 613.764916 308.746403 
L 622.393658 309.480862 
L 631.0224 311.741922 
L 639.651142 311.991869 
L 648.279883 313.076254 
L 656.908625 315.056604 
L 665.537367 315.668013 
L 674.166109 317.16385 
L 682.794851 318.613542 
L 691.423593 319.155735 
L 700.052335 320.078617 
L 708.681077 320.601583 
L 717.309819 321.685968 
L 725.938561 322.578087 
L 734.567303 323.812441 
L 743.196045 324.404623 
L 751.824787 324.866064 
L 760.453529 325.808172 
L 769.082271 326.319602 
L 777.711013 327.546265 
L 786.339755 327.734686 
L 794.968497 327.784676 
L 803.597239 328.026932 
L 812.225981 328.995958 
L 820.854723 329.726572 
L 829.483465 329.98421 
L 838.112207 330.287991 
L 846.740949 330.564856 
L 855.369691 330.687907 
L 863.998433 331.310852 
L 872.627175 331.97225 
L 881.255917 332.14529 
L 889.884659 332.687483 
L 898.5134 332.406773 
L 907.142142 332.618267 
L 915.770884 333.39118 
L 924.399626 333.529612 
L 933.028368 333.445015 
L 941.65711 333.991053 
L 950.285852 334.214082 
" clip-path="url(#pfd24df8cdd)" style="fill: none; stroke: #8085e9; stroke-linecap: square"/>
   </g>
   <g id="line2d_14">
    <path d="M 96.040398 338.770809 
L 104.66914 338.770809 
L 113.297882 338.770809 
L 121.926624 338.770809 
L 130.555366 338.770809 
L 139.184108 338.770809 
L 147.81285 338.770809 
L 156.441591 338.770809 
L 165.070333 338.770809 
L 173.699075 338.770809 
L 182.327817 338.770809 
L 190.956559 338.770809 
L 199.585301 338.770809 
L 208.214043 338.770809 
L 216.842785 338.770809 
L 225.471527 338.770809 
L 234.100269 338.770809 
L 242.729011 338.770809 
L 251.357753 338.770809 
L 259.986495 320.716943 
L 268.615237 214.21259 
L 277.243979 202.415091 
L 285.872721 203.580228 
L 294.501463 201.919042 
L 303.130205 204.914561 
L 311.758947 205.86436 
L 320.387689 208.752209 
L 329.016431 211.99383 
L 337.645173 215.354656 
L 346.273915 219.303819 
L 354.902657 224.229698 
L 363.531399 227.852008 
L 372.160141 232.451033 
L 380.788883 236.480948 
L 389.417625 241.360683 
L 398.046367 246.14813 
L 406.675108 249.120577 
L 415.30385 255.276965 
L 423.932592 258.460906 
L 432.561334 262.71385 
L 441.190076 265.340217 
L 449.818818 270.366075 
L 458.44756 273.153946 
L 467.076302 274.33831 
L 475.705044 275.345789 
L 484.333786 276.707039 
L 492.962528 282.617325 
L 501.59127 286.42421 
L 510.220012 288.254592 
L 518.848754 284.347727 
L 527.477496 292.876689 
L 536.106238 294.118733 
L 544.73498 295.206964 
L 553.363722 297.667981 
L 561.992464 298.948479 
L 570.621206 301.974761 
L 579.249948 304.251202 
L 587.87869 305.254835 
L 596.507432 306.469962 
L 605.136174 307.658172 
L 613.764916 310.180714 
L 622.393658 310.503723 
L 631.0224 312.776318 
L 639.651142 313.999136 
L 648.279883 314.8951 
L 656.908625 316.848532 
L 665.537367 317.894464 
L 674.166109 318.932706 
L 682.794851 319.628712 
L 691.423593 321.320661 
L 700.052335 322.078193 
L 708.681077 323.047218 
L 717.309819 323.839358 
L 725.938561 324.158521 
L 734.567303 325.335195 
L 743.196045 326.427271 
L 751.824787 326.904093 
L 760.453529 327.438595 
L 769.082271 327.826974 
L 777.711013 328.642186 
L 786.339755 329.24975 
L 794.968497 329.634284 
L 803.597239 330.118796 
L 812.225981 330.549474 
L 820.854723 331.091667 
L 829.483465 331.272398 
L 838.112207 331.995322 
L 846.740949 332.08761 
L 855.369691 332.410618 
L 863.998433 332.948966 
L 872.627175 333.029718 
L 881.255917 333.675735 
L 889.884659 334.156402 
L 898.5134 334.071805 
L 907.142142 334.19101 
L 915.770884 334.490947 
L 924.399626 334.756275 
L 933.028368 334.871635 
L 941.65711 335.102356 
L 950.285852 335.236943 
" clip-path="url(#pfd24df8cdd)" style="fill: none; stroke: #f15c80; stroke-linecap: square"/>
   </g>
   <g id="line2d_15">
    <path d="M 96.040398 338.770809 
L 104.66914 338.770809 
L 113.297882 338.770809 
L 121.926624 338.770809 
L 130.555366 338.770809 
L 139.184108 338.770809 
L 147.81285 338.770809 
L 156.441591 338.770809 
L 165.070333 338.770809 
L 173.699075 338.770809 
L 182.327817 338.770809 
L 190.956559 338.770809 
L 199.585301 338.770809 
L 208.214043 338.770809 
L 216.842785 338.770809 
L 225.471527 338.770809 
L 234.100269 338.770809 
L 242.729011 338.770809 
L 251.357753 338.770809 
L 259.986495 326.515714 
L 268.615237 243.241054 
L 277.243979 232.839412 
L 285.872721 231.128236 
L 294.501463 230.543745 
L 303.130205 233.312389 
L 311.758947 232.208777 
L 320.387689 234.838988 
L 329.016431 237.038522 
L 337.645173 238.807378 
L 346.273915 242.102834 
L 354.902657 244.848406 
L 363.531399 248.178469 
L 372.160141 250.674094 
L 380.788883 253.454274 
L 389.417625 257.680302 
L 398.046367 261.129571 
L 406.675108 262.140895 
L 415.30385 265.04028 
L 423.932592 267.147526 
L 432.561334 268.289592 
L 441.190076 269.597007 
L 449.818818 271.396626 
L 458.44756 271.065927 
L 467.076302 271.419698 
L 475.705044 271.019782 
L 484.333786 273.77689 
L 492.962528 276.933914 
L 501.59127 278.498967 
L 510.220012 279.852526 
L 518.848754 275.503448 
L 527.477496 283.321022 
L 536.106238 283.171053 
L 544.73498 284.374645 
L 553.363722 286.508808 
L 561.992464 288.712187 
L 570.621206 290.008066 
L 579.249948 291.400079 
L 587.87869 293.188161 
L 596.507432 295.529973 
L 605.136174 296.898913 
L 613.764916 299.163818 
L 622.393658 300.705799 
L 631.0224 302.505418 
L 639.651142 304.674189 
L 648.279883 305.881625 
L 656.908625 307.612028 
L 665.537367 309.16939 
L 674.166109 310.111498 
L 682.794851 310.857494 
L 691.423593 312.487917 
L 700.052335 313.829941 
L 708.681077 315.494973 
L 717.309819 316.575513 
L 725.938561 318.282843 
L 734.567303 318.478956 
L 743.196045 319.536424 
L 751.824787 320.044008 
L 760.453529 321.359114 
L 769.082271 322.435809 
L 777.711013 323.508659 
L 786.339755 324.154676 
L 794.968497 324.823765 
L 803.597239 325.219835 
L 812.225981 326.254231 
L 820.854723 326.823341 
L 829.483465 327.746222 
L 838.112207 328.672949 
L 846.740949 329.07671 
L 855.369691 329.122854 
L 863.998433 330.057271 
L 872.627175 330.195703 
L 881.255917 330.672525 
L 889.884659 331.580025 
L 898.5134 331.426212 
L 907.142142 331.941487 
L 915.770884 332.149135 
L 924.399626 332.549051 
L 933.028368 332.70671 
L 941.65711 332.845142 
L 950.285852 333.298892 
" clip-path="url(#pfd24df8cdd)" style="fill: none; stroke: #e4d354; stroke-linecap: square"/>
   </g>
   <g id="line2d_16">
    <path d="M 96.040398 338.770809 
L 104.66914 338.770809 
L 113.297882 338.770809 
L 121.926624 338.770809 
L 130.555366 338.770809 
L 139.184108 338.770809 
L 147.81285 338.770809 
L 156.441591 338.770809 
L 165.070333 338.770809 
L 173.699075 338.770809 
L 182.327817 338.770809 
L 190.956559 338.770809 
L 199.585301 338.770809 
L 208.214043 338.770809 
L 216.842785 338.770809 
L 225.471527 338.770809 
L 234.100269 338.770809 
L 242.729011 338.770809 
L 251.357753 338.770809 
L 259.986495 325.112165 
L 268.615237 233.635397 
L 277.243979 221.999402 
L 285.872721 221.937876 
L 294.501463 221.741764 
L 303.130205 223.464476 
L 311.758947 223.499084 
L 320.387689 226.34848 
L 329.016431 227.671277 
L 337.645173 229.578565 
L 346.273915 233.854582 
L 354.902657 236.650143 
L 363.531399 241.649084 
L 372.160141 243.840927 
L 380.788883 248.659137 
L 389.417625 252.093024 
L 398.046367 257.072738 
L 406.675108 259.47223 
L 415.30385 263.386785 
L 423.932592 265.082579 
L 432.561334 267.355174 
L 441.190076 268.608755 
L 449.818818 270.777526 
L 458.44756 271.223585 
L 467.076302 271.312028 
L 475.705044 271.415852 
L 484.333786 273.803808 
L 492.962528 278.210566 
L 501.59127 280.356265 
L 510.220012 282.521191 
L 518.848754 277.510715 
L 527.477496 285.039888 
L 536.106238 285.166784 
L 544.73498 286.674157 
L 553.363722 289.442801 
L 561.992464 292.238363 
L 570.621206 292.449856 
L 579.249948 295.049305 
L 587.87869 297.098871 
L 596.507432 298.27939 
L 605.136174 300.65581 
L 613.764916 302.197791 
L 622.393658 304.166604 
L 631.0224 305.227918 
L 639.651142 307.023691 
L 648.279883 308.511837 
L 656.908625 310.446043 
L 665.537367 311.565036 
L 674.166109 312.745555 
L 682.794851 313.860703 
L 691.423593 315.402684 
L 700.052335 316.383246 
L 708.681077 317.863701 
L 717.309819 318.382822 
L 725.938561 320.159369 
L 734.567303 321.355269 
L 743.196045 321.905153 
L 751.824787 322.481953 
L 760.453529 323.593256 
L 769.082271 324.293108 
L 777.711013 325.335195 
L 786.339755 326.204241 
L 794.968497 327.057907 
L 803.597239 327.769294 
L 812.225981 327.627017 
L 820.854723 328.599888 
L 829.483465 329.115163 
L 838.112207 329.98421 
L 846.740949 330.349517 
L 855.369691 330.614845 
L 863.998433 331.264707 
L 872.627175 331.626169 
L 881.255917 331.829972 
L 889.884659 332.049157 
L 898.5134 332.54136 
L 907.142142 333.091243 
L 915.770884 333.306582 
L 924.399626 333.598828 
L 933.028368 334.052578 
L 941.65711 334.025661 
L 950.285852 334.306371 
" clip-path="url(#pfd24df8cdd)" style="fill: none; stroke: #2b908f; stroke-linecap: square"/>
   </g>
   <g id="line2d_17">
    <path d="M 96.040398 338.770809 
L 104.66914 338.770809 
L 113.297882 338.770809 
L 121.926624 338.770809 
L 130.555366 338.770809 
L 139.184108 338.770809 
L 147.81285 338.770809 
L 156.441591 338.770809 
L 165.070333 338.770809 
L 173.699075 338.770809 
L 182.327817 338.770809 
L 190.956559 338.770809 
L 199.585301 338.770809 
L 208.214043 338.770809 
L 216.842785 338.770809 
L 225.471527 338.770809 
L 234.100269 338.770809 
L 242.729011 338.770809 
L 251.357753 338.770809 
L 259.986495 324.735322 
L 268.615237 230.289952 
L 277.243979 218.673184 
L 285.872721 218.400165 
L 294.501463 217.881044 
L 303.130205 218.046393 
L 311.758947 217.95026 
L 320.387689 220.107495 
L 329.016431 221.207262 
L 337.645173 224.810345 
L 346.273915 226.602272 
L 354.902657 231.801171 
L 363.531399 235.181224 
L 372.160141 239.122696 
L 380.788883 243.721721 
L 389.417625 248.30152 
L 398.046367 254.969338 
L 406.675108 257.741827 
L 415.30385 261.333374 
L 423.932592 265.244083 
L 432.561334 267.18598 
L 441.190076 271.900365 
L 449.818818 273.703829 
L 458.44756 274.157579 
L 467.076302 274.445979 
L 475.705044 275.861064 
L 484.333786 278.060598 
L 492.962528 281.013818 
L 501.59127 284.190068 
L 510.220012 285.101414 
L 518.848754 280.713882 
L 527.477496 289.327441 
L 536.106238 288.958289 
L 544.73498 290.384909 
L 553.363722 293.126636 
L 561.992464 294.295619 
L 570.621206 297.079644 
L 579.249948 298.313998 
L 587.87869 299.779072 
L 596.507432 300.513532 
L 605.136174 303.44368 
L 613.764916 304.958744 
L 622.393658 306.246932 
L 631.0224 307.096752 
L 639.651142 309.296286 
L 648.279883 310.322992 
L 656.908625 311.984178 
L 665.537367 312.887833 
L 674.166109 314.572091 
L 682.794851 315.556498 
L 691.423593 316.702409 
L 700.052335 317.767568 
L 708.681077 319.171117 
L 717.309819 319.759453 
L 725.938561 321.336042 
L 734.567303 321.832091 
L 743.196045 323.031837 
L 751.824787 324.031625 
L 760.453529 324.519983 
L 769.082271 325.142928 
L 777.711013 326.227313 
L 786.339755 326.981 
L 794.968497 327.496275 
L 803.597239 327.950025 
L 812.225981 328.68833 
L 820.854723 329.322811 
L 829.483465 329.549686 
L 838.112207 330.38797 
L 846.740949 330.699443 
L 855.369691 330.972462 
L 863.998433 331.480046 
L 872.627175 331.906879 
L 881.255917 332.54136 
L 889.884659 332.941275 
L 898.5134 333.145078 
L 907.142142 333.171996 
L 915.770884 333.533457 
L 924.399626 333.871847 
L 933.028368 334.002589 
L 941.65711 334.094877 
L 950.285852 334.417885 
" clip-path="url(#pfd24df8cdd)" style="fill: none; stroke: #f45b5b; stroke-linecap: square"/>
   </g>
   <g id="line2d_18">
    <path d="M 96.040398 338.770809 
L 104.66914 338.770809 
L 113.297882 338.770809 
L 121.926624 338.770809 
L 130.555366 338.770809 
L 139.184108 338.770809 
L 147.81285 338.770809 
L 156.441591 338.770809 
L 165.070333 338.770809 
L 173.699075 338.770809 
L 182.327817 338.770809 
L 190.956559 338.770809 
L 199.585301 338.770809 
L 208.214043 338.770809 
L 216.842785 338.770809 
L 225.471527 338.770809 
L 234.100269 338.770809 
L 242.729011 338.770809 
L 251.357753 338.770809 
L 259.986495 325.769718 
L 268.615237 239.372643 
L 277.243979 229.109433 
L 285.872721 227.871234 
L 294.501463 227.994285 
L 303.130205 228.586467 
L 311.758947 228.95562 
L 320.387689 229.947717 
L 329.016431 231.508925 
L 337.645173 234.596732 
L 346.273915 236.361743 
L 354.902657 240.856944 
L 363.531399 243.414094 
L 372.160141 246.76723 
L 380.788883 251.020175 
L 389.417625 255.284656 
L 398.046367 260.149009 
L 406.675108 262.225492 
L 415.30385 266.39384 
L 423.932592 268.712579 
L 432.561334 271.000556 
L 441.190076 272.884772 
L 449.818818 273.657685 
L 458.44756 274.034528 
L 467.076302 273.234698 
L 475.705044 273.219316 
L 484.333786 275.730323 
L 492.962528 279.437229 
L 501.59127 280.925376 
L 510.220012 282.817282 
L 518.848754 277.51456 
L 527.477496 284.986053 
L 536.106238 286.485736 
L 544.73498 287.112526 
L 553.363722 289.358204 
L 561.992464 291.142441 
L 570.621206 292.730566 
L 579.249948 294.314846 
L 587.87869 295.256954 
L 596.507432 296.472081 
L 605.136174 299.159973 
L 613.764916 300.909602 
L 622.393658 302.1901 
L 631.0224 303.578267 
L 639.651142 305.354814 
L 648.279883 307.158278 
L 656.908625 308.411858 
L 665.537367 309.619295 
L 674.166109 311.199729 
L 682.794851 312.368712 
L 691.423593 313.829941 
L 700.052335 314.822038 
L 708.681077 315.864125 
L 717.309819 316.852377 
L 725.938561 318.198246 
L 734.567303 318.744284 
L 743.196045 320.574665 
L 751.824787 320.882292 
L 760.453529 321.978214 
L 769.082271 322.843415 
L 777.711013 323.339464 
L 786.339755 324.766085 
L 794.968497 325.635131 
L 803.597239 325.988902 
L 812.225981 326.650301 
L 820.854723 327.284782 
L 829.483465 328.030777 
L 838.112207 328.988267 
L 846.740949 329.292049 
L 855.369691 329.342038 
L 863.998433 329.76118 
L 872.627175 330.249538 
L 881.255917 330.718669 
L 889.884659 331.46082 
L 898.5134 331.533881 
L 907.142142 332.510597 
L 915.770884 332.399082 
L 924.399626 332.595195 
L 933.028368 332.583659 
L 941.65711 333.418097 
L 950.285852 333.521921 
" clip-path="url(#pfd24df8cdd)" style="fill: none; stroke: #91e8e1; stroke-linecap: square"/>
   </g>
   <g id="line2d_19">
    <path d="M 96.040398 338.770809 
L 104.66914 338.770809 
L 113.297882 338.770809 
L 121.926624 338.770809 
L 130.555366 338.770809 
L 139.184108 338.770809 
L 147.81285 338.770809 
L 156.441591 338.770809 
L 165.070333 338.770809 
L 173.699075 338.770809 
L 182.327817 338.770809 
L 190.956559 338.770809 
L 199.585301 338.770809 
L 208.214043 338.770809 
L 216.842785 338.770809 
L 225.471527 338.770809 
L 234.100269 338.770809 
L 242.729011 338.770809 
L 251.357753 338.770809 
L 259.986495 326.334983 
L 268.615237 244.552315 
L 277.243979 233.996859 
L 285.872721 232.204931 
L 294.501463 231.893459 
L 303.130205 231.416637 
L 311.758947 230.466838 
L 320.387689 232.108798 
L 329.016431 233.15473 
L 337.645173 234.223734 
L 346.273915 235.961827 
L 354.902657 240.091721 
L 363.531399 243.129539 
L 372.160141 245.725143 
L 380.788883 247.767018 
L 389.417625 252.431414 
L 398.046367 256.330588 
L 406.675108 259.929825 
L 415.30385 262.083215 
L 423.932592 266.663013 
L 432.561334 267.293649 
L 441.190076 269.573935 
L 449.818818 271.446615 
L 458.44756 272.450249 
L 467.076302 272.669433 
L 475.705044 273.484645 
L 484.333786 274.553649 
L 492.962528 278.914263 
L 501.59127 281.54832 
L 510.220012 283.078765 
L 518.848754 273.576933 
L 527.477496 286.451128 
L 536.106238 286.274242 
L 544.73498 287.647028 
L 553.363722 289.277452 
L 561.992464 292.146075 
L 570.621206 293.641911 
L 579.249948 294.003373 
L 587.87869 295.945269 
L 596.507432 297.721816 
L 605.136174 300.286657 
L 613.764916 301.613299 
L 622.393658 302.370831 
L 631.0224 303.670555 
L 639.651142 305.535545 
L 648.279883 307.823521 
L 656.908625 309.000195 
L 665.537367 310.880566 
L 674.166109 312.014941 
L 682.794851 313.014729 
L 691.423593 314.352907 
L 700.052335 315.864125 
L 708.681077 316.517833 
L 717.309819 317.459941 
L 725.938561 319.082674 
L 734.567303 320.263193 
L 743.196045 320.036318 
L 751.824787 321.635979 
L 760.453529 322.024358 
L 769.082271 322.866487 
L 777.711013 323.816286 
L 786.339755 325.319814 
L 794.968497 326.158097 
L 803.597239 326.707981 
L 812.225981 327.346307 
L 820.854723 327.407833 
L 829.483465 328.611424 
L 838.112207 328.553744 
L 846.740949 329.103627 
L 855.369691 329.449708 
L 863.998433 330.453341 
L 872.627175 330.757123 
L 881.255917 331.453129 
L 889.884659 331.310852 
L 898.5134 332.041466 
L 907.142142 332.383701 
L 915.770884 332.679792 
L 924.399626 332.622112 
L 933.028368 333.264284 
L 941.65711 333.544993 
L 950.285852 333.625746 
" clip-path="url(#pfd24df8cdd)" style="fill: none; stroke: #7cb5ec; stroke-linecap: square"/>
   </g>
   <g id="line2d_20">
    <path d="M 96.040398 338.770809 
L 104.66914 338.770809 
L 113.297882 338.770809 
L 121.926624 338.770809 
L 130.555366 338.770809 
L 139.184108 338.770809 
L 147.81285 338.770809 
L 156.441591 338.770809 
L 165.070333 338.770809 
L 173.699075 338.770809 
L 182.327817 338.770809 
L 190.956559 338.770809 
L 199.585301 338.770809 
L 208.214043 338.770809 
L 216.842785 338.770809 
L 225.471527 338.770809 
L 234.100269 338.770809 
L 242.729011 338.770809 
L 251.357753 338.770809 
L 259.986495 323.251021 
L 268.615237 84.367031 
L 277.243979 58.510972 
L 285.872721 53.804277 
L 294.501463 49.708991 
L 303.130205 55.54237 
L 311.758947 54.823292 
L 320.387689 67.635961 
L 329.016431 76.980135 
L 337.645173 104.801162 
L 346.273915 127.538651 
L 354.902657 161.919826 
L 363.531399 186.837623 
L 372.160141 218.569359 
L 380.788883 238.553586 
L 389.417625 259.314571 
L 398.046367 272.792484 
L 406.675108 286.005068 
L 415.30385 293.607303 
L 423.932592 300.344337 
L 432.561334 306.204634 
L 441.190076 309.819252 
L 449.818818 314.083733 
L 458.44756 315.983331 
L 467.076302 318.090576 
L 475.705044 318.732748 
L 484.333786 321.36296 
L 492.962528 322.908786 
L 501.59127 324.966042 
L 510.220012 325.577451 
L 518.848754 319.351847 
L 527.477496 328.311487 
L 536.106238 329.13439 
L 544.73498 330.280301 
L 553.363722 330.764813 
L 561.992464 331.872271 
L 570.621206 332.26065 
L 579.249948 332.737472 
L 587.87869 333.268129 
L 596.507432 334.252536 
L 605.136174 334.498638 
L 613.764916 334.775502 
L 622.393658 335.394602 
L 631.0224 335.217716 
L 639.651142 335.83297 
L 648.279883 336.159824 
L 656.908625 336.348246 
L 665.537367 336.494368 
L 674.166109 336.813532 
L 682.794851 337.013489 
L 691.423593 337.228828 
L 700.052335 337.321116 
L 708.681077 337.471085 
L 717.309819 337.524919 
L 725.938561 337.609517 
L 734.567303 337.736413 
L 743.196045 337.786402 
L 751.824787 337.944061 
L 760.453529 338.009432 
L 769.082271 337.994051 
L 777.711013 338.028659 
L 786.339755 338.240152 
L 794.968497 338.251688 
L 803.597239 338.293987 
L 812.225981 338.33244 
L 820.854723 338.386275 
L 829.483465 338.405502 
L 838.112207 338.540089 
L 846.740949 338.501635 
L 855.369691 338.459337 
L 863.998433 338.532398 
L 872.627175 338.524707 
L 881.255917 338.601614 
L 889.884659 338.620841 
L 898.5134 338.578542 
L 907.142142 338.61315 
L 915.770884 338.624686 
L 924.399626 338.647758 
L 933.028368 338.666985 
L 941.65711 338.659294 
L 950.285852 338.636222 
" clip-path="url(#pfd24df8cdd)" style="fill: none; stroke: #434348; stroke-linecap: square"/>
   </g>
   <g id="line2d_21">
    <path d="M 96.040398 338.770809 
L 104.66914 338.770809 
L 113.297882 338.770809 
L 121.926624 338.770809 
L 130.555366 338.770809 
L 139.184108 338.770809 
L 147.81285 338.770809 
L 156.441591 338.770809 
L 165.070333 338.770809 
L 173.699075 338.770809 
L 182.327817 338.770809 
L 190.956559 338.770809 
L 199.585301 338.770809 
L 208.214043 338.770809 
L 216.842785 338.770809 
L 225.471527 338.770809 
L 234.100269 338.770809 
L 242.729011 338.770809 
L 251.357753 338.770809 
L 259.986495 327.488585 
L 268.615237 159.843343 
L 277.243979 142.739276 
L 285.872721 136.978958 
L 294.501463 131.668545 
L 303.130205 131.157115 
L 311.758947 122.916553 
L 320.387689 119.313471 
L 329.016431 111.768916 
L 337.645173 117.913768 
L 346.273915 108.311956 
L 354.902657 120.105611 
L 363.531399 118.382899 
L 372.160141 140.032157 
L 380.788883 153.421627 
L 389.417625 185.760928 
L 398.046367 208.929095 
L 406.675108 240.610842 
L 415.30385 263.098384 
L 423.932592 283.224888 
L 432.561334 297.833331 
L 441.190076 306.731445 
L 449.818818 312.726329 
L 458.44756 314.55671 
L 467.076302 317.55992 
L 475.705044 318.290534 
L 484.333786 320.659263 
L 492.962528 322.232006 
L 501.59127 323.997017 
L 510.220012 324.681487 
L 518.848754 309.327049 
L 527.477496 327.069443 
L 536.106238 328.315333 
L 544.73498 328.51529 
L 553.363722 329.845777 
L 561.992464 330.587928 
L 570.621206 331.326233 
L 579.249948 331.768447 
L 587.87869 332.702864 
L 596.507432 333.183532 
L 605.136174 333.6219 
L 613.764916 334.171784 
L 622.393658 334.490947 
L 631.0224 334.817801 
L 639.651142 335.113892 
L 648.279883 335.398447 
L 656.908625 335.60225 
L 665.537367 336.179051 
L 674.166109 336.255957 
L 682.794851 336.578966 
L 691.423593 336.890438 
L 700.052335 336.925046 
L 708.681077 336.948118 
L 717.309819 337.278818 
L 725.938561 337.398023 
L 734.567303 337.636434 
L 743.196045 337.667197 
L 751.824787 337.721032 
L 760.453529 337.913299 
L 769.082271 337.905608 
L 777.711013 337.894072 
L 786.339755 338.078648 
L 794.968497 338.109411 
L 803.597239 338.213235 
L 812.225981 338.186318 
L 820.854723 338.26707 
L 829.483465 338.297832 
L 838.112207 338.467027 
L 846.740949 338.455491 
L 855.369691 338.478563 
L 863.998433 338.513171 
L 872.627175 338.493945 
L 881.255917 338.513171 
L 889.884659 338.567006 
L 898.5134 338.563161 
L 907.142142 338.543934 
L 915.770884 338.601614 
L 924.399626 338.601614 
L 933.028368 338.647758 
L 941.65711 338.66314 
L 950.285852 338.624686 
" clip-path="url(#pfd24df8cdd)" style="fill: none; stroke: #90ed7d; stroke-linecap: square"/>
   </g>
   <g id="line2d_22">
    <path d="M 96.040398 338.770809 
L 104.66914 338.770809 
L 113.297882 338.770809 
L 121.926624 338.770809 
L 130.555366 338.770809 
L 139.184108 338.770809 
L 147.81285 338.770809 
L 156.441591 338.770809 
L 165.070333 338.770809 
L 173.699075 338.770809 
L 182.327817 338.770809 
L 190.956559 338.770809 
L 199.585301 338.770809 
L 208.214043 338.770809 
L 216.842785 338.770809 
L 225.471527 338.770809 
L 234.100269 338.770809 
L 242.729011 338.770809 
L 251.357753 338.770809 
L 259.986495 324.289263 
L 268.615237 111.741999 
L 277.243979 94.238016 
L 285.872721 85.586003 
L 294.501463 81.909859 
L 303.130205 80.014107 
L 311.758947 71.189054 
L 320.387689 73.215548 
L 329.016431 72.788715 
L 337.645173 88.712264 
L 346.273915 102.617009 
L 354.902657 133.152846 
L 363.531399 157.413089 
L 372.160141 193.16705 
L 380.788883 217.04276 
L 389.417625 245.805895 
L 398.046367 263.056086 
L 406.675108 279.452611 
L 415.30385 290.008066 
L 423.932592 298.879263 
L 432.561334 305.777801 
L 441.190076 310.176869 
L 449.818818 314.860492 
L 458.44756 316.913903 
L 467.076302 318.055968 
L 475.705044 319.509506 
L 484.333786 321.416794 
L 492.962528 323.147197 
L 501.59127 325.150619 
L 510.220012 326.281148 
L 518.848754 321.505237 
L 527.477496 328.376858 
L 536.106238 329.48047 
L 544.73498 330.407197 
L 553.363722 331.130121 
L 561.992464 331.79921 
L 570.621206 332.460608 
L 579.249948 333.083553 
L 587.87869 333.464241 
L 596.507432 334.179474 
L 605.136174 334.510174 
L 613.764916 334.887017 
L 622.393658 335.110046 
L 631.0224 335.886805 
L 639.651142 335.840661 
L 648.279883 336.202123 
L 656.908625 336.371318 
L 665.537367 336.736625 
L 674.166109 336.85583 
L 682.794851 337.19422 
L 691.423593 337.340343 
L 700.052335 337.471085 
L 708.681077 337.471085 
L 717.309819 337.663351 
L 725.938561 337.721032 
L 734.567303 337.87869 
L 743.196045 337.913299 
L 751.824787 338.051731 
L 760.453529 338.15171 
L 769.082271 338.190163 
L 777.711013 338.205544 
L 786.339755 338.282451 
L 794.968497 338.278606 
L 803.597239 338.397811 
L 812.225981 338.367049 
L 820.854723 338.474718 
L 829.483465 338.397811 
L 838.112207 338.478563 
L 846.740949 338.563161 
L 855.369691 338.547779 
L 863.998433 338.586233 
L 872.627175 338.582387 
L 881.255917 338.609305 
L 889.884659 338.582387 
L 898.5134 338.647758 
L 907.142142 338.643913 
L 915.770884 338.67083 
L 924.399626 338.655449 
L 933.028368 338.686212 
L 941.65711 338.678521 
L 950.285852 338.72082 
" clip-path="url(#pfd24df8cdd)" style="fill: none; stroke: #f7a35c; stroke-linecap: square"/>
   </g>
   <g id="line2d_23">
    <path d="M 96.040398 338.770809 
L 104.66914 338.770809 
L 113.297882 338.770809 
L 121.926624 338.770809 
L 130.555366 338.770809 
L 139.184108 338.770809 
L 147.81285 338.770809 
L 156.441591 338.770809 
L 165.070333 338.770809 
L 173.699075 338.770809 
L 182.327817 338.770809 
L 190.956559 338.770809 
L 199.585301 338.770809 
L 208.214043 338.770809 
L 216.842785 338.770809 
L 225.471527 338.770809 
L 234.100269 338.770809 
L 242.729011 338.770809 
L 251.357753 338.770809 
L 259.986495 323.92011 
L 268.615237 115.360462 
L 277.243979 95.257031 
L 285.872721 89.589001 
L 294.501463 86.108969 
L 303.130205 83.955579 
L 311.758947 78.610558 
L 320.387689 85.48987 
L 329.016431 81.113874 
L 337.645173 98.552486 
L 346.273915 104.078238 
L 354.902657 139.309233 
L 363.531399 155.190483 
L 372.160141 191.413576 
L 380.788883 211.467018 
L 389.417625 240.049423 
L 398.046367 256.219073 
L 406.675108 273.757664 
L 415.30385 283.517134 
L 423.932592 293.949539 
L 432.561334 302.286233 
L 441.190076 306.866032 
L 449.818818 312.341795 
L 458.44756 314.329835 
L 467.076302 316.783161 
L 475.705044 318.559708 
L 484.333786 321.170693 
L 492.962528 322.870333 
L 501.59127 324.677642 
L 510.220012 325.415947 
L 518.848754 320.220894 
L 527.477496 328.215354 
L 536.106238 329.030566 
L 544.73498 329.822705 
L 553.363722 330.945544 
L 561.992464 331.418521 
L 570.621206 332.210661 
L 579.249948 332.683638 
L 587.87869 333.464241 
L 596.507432 333.852621 
L 605.136174 334.025661 
L 613.764916 334.490947 
L 622.393658 335.163881 
L 631.0224 335.452282 
L 639.651142 335.790671 
L 648.279883 335.994474 
L 656.908625 336.313638 
L 665.537367 336.555894 
L 674.166109 336.809686 
L 682.794851 337.101932 
L 691.423593 337.086551 
L 700.052335 337.348034 
L 708.681077 337.547991 
L 717.309819 337.609517 
L 725.938561 337.721032 
L 734.567303 337.81332 
L 743.196045 337.832546 
L 751.824787 337.905608 
L 760.453529 338.013277 
L 769.082271 338.105565 
L 777.711013 338.240152 
L 786.339755 338.232462 
L 794.968497 338.370894 
L 803.597239 338.305523 
L 812.225981 338.390121 
L 820.854723 338.370894 
L 829.483465 338.417038 
L 838.112207 338.424729 
L 846.740949 338.493945 
L 855.369691 338.517017 
L 863.998433 338.547779 
L 872.627175 338.570851 
L 881.255917 338.636222 
L 889.884659 338.61315 
L 898.5134 338.647758 
L 907.142142 338.601614 
L 915.770884 338.643913 
L 924.399626 338.651604 
L 933.028368 338.674676 
L 941.65711 338.682366 
L 950.285852 338.651604 
" clip-path="url(#pfd24df8cdd)" style="fill: none; stroke: #8085e9; stroke-linecap: square"/>
   </g>
   <g id="line2d_24">
    <path d="M 96.040398 338.770809 
L 104.66914 338.770809 
L 113.297882 338.770809 
L 121.926624 338.770809 
L 130.555366 338.770809 
L 139.184108 338.770809 
L 147.81285 338.770809 
L 156.441591 338.770809 
L 165.070333 338.770809 
L 173.699075 338.770809 
L 182.327817 338.770809 
L 190.956559 338.770809 
L 199.585301 338.770809 
L 208.214043 338.770809 
L 216.842785 338.770809 
L 225.471527 338.770809 
L 234.100269 338.770809 
L 242.729011 338.770809 
L 251.357753 338.770809 
L 259.986495 325.415947 
L 268.615237 131.091744 
L 277.243979 112.476458 
L 285.872721 105.120325 
L 294.501463 98.214096 
L 303.130205 95.803069 
L 311.758947 85.959001 
L 320.387689 85.828259 
L 329.016431 79.121988 
L 337.645173 89.339054 
L 346.273915 94.076512 
L 354.902657 121.047719 
L 363.531399 138.755505 
L 372.160141 174.886309 
L 380.788883 202.053629 
L 389.417625 233.873808 
L 398.046367 252.796721 
L 406.675108 273.526943 
L 415.30385 285.405195 
L 423.932592 295.080068 
L 432.561334 302.789973 
L 441.190076 308.211901 
L 449.818818 313.587684 
L 458.44756 315.906424 
L 467.076302 317.6176 
L 475.705044 318.471265 
L 484.333786 322.120492 
L 492.962528 323.354845 
L 501.59127 324.700714 
L 510.220012 325.796636 
L 518.848754 318.875025 
L 527.477496 328.326869 
L 536.106238 328.999803 
L 544.73498 329.638129 
L 553.363722 330.914782 
L 561.992464 331.406985 
L 570.621206 332.276032 
L 579.249948 332.837451 
L 587.87869 333.356572 
L 596.507432 333.987207 
L 605.136174 334.387123 
L 613.764916 334.787038 
L 622.393658 335.160036 
L 631.0224 335.42921 
L 639.651142 335.740682 
L 648.279883 336.179051 
L 656.908625 336.359782 
L 665.537367 336.686635 
L 674.166109 336.782769 
L 682.794851 337.013489 
L 691.423593 337.30958 
L 700.052335 337.305735 
L 708.681077 337.478775 
L 717.309819 337.678733 
L 725.938561 337.759485 
L 734.567303 337.871 
L 743.196045 337.901762 
L 751.824787 337.978669 
L 760.453529 338.205544 
L 769.082271 338.078648 
L 777.711013 338.178627 
L 786.339755 338.228616 
L 794.968497 338.309368 
L 803.597239 338.309368 
L 812.225981 338.290142 
L 820.854723 338.428574 
L 829.483465 338.447801 
L 838.112207 338.528553 
L 846.740949 338.524707 
L 855.369691 338.551625 
L 863.998433 338.551625 
L 872.627175 338.60546 
L 881.255917 338.624686 
L 889.884659 338.616996 
L 898.5134 338.66314 
L 907.142142 338.643913 
L 915.770884 338.624686 
L 924.399626 338.701593 
L 933.028368 338.659294 
L 941.65711 338.666985 
L 950.285852 338.682366 
" clip-path="url(#pfd24df8cdd)" style="fill: none; stroke: #f15c80; stroke-linecap: square"/>
   </g>
   <g id="line2d_25">
    <path d="M 53.328125 338.770809 
L 992.998125 338.770809 
" clip-path="url(#pfd24df8cdd)" style="fill: none; stroke: #dedede; stroke-width: 2; stroke-linecap: square"/>
   </g>
   <g id="text_16">
    <!-- RSeQC: Inner Distance -->
    <g transform="translate(432.248125 19.3575) scale(0.16 -0.16)">
     <defs>
      <path id="DejaVuSans-52" d="M 2841 2188 
Q 3044 2119 3236 1894 
Q 3428 1669 3622 1275 
L 4263 0 
L 3584 0 
L 2988 1197 
Q 2756 1666 2539 1819 
Q 2322 1972 1947 1972 
L 1259 1972 
L 1259 0 
L 628 0 
L 628 4666 
L 2053 4666 
Q 2853 4666 3247 4331 
Q 3641 3997 3641 3322 
Q 3641 2881 3436 2590 
Q 3231 2300 2841 2188 
z
M 1259 4147 
L 1259 2491 
L 2053 2491 
Q 2509 2491 2742 2702 
Q 2975 2913 2975 3322 
Q 2975 3731 2742 3939 
Q 2509 4147 2053 4147 
L 1259 4147 
z
" transform="scale(0.015625)"/>
      <path id="DejaVuSans-53" d="M 3425 4513 
L 3425 3897 
Q 3066 4069 2747 4153 
Q 2428 4238 2131 4238 
Q 1616 4238 1336 4038 
Q 1056 3838 1056 3469 
Q 1056 3159 1242 3001 
Q 1428 2844 1947 2747 
L 2328 2669 
Q 3034 2534 3370 2195 
Q 3706 1856 3706 1288 
Q 3706 609 3251 259 
Q 2797 -91 1919 -91 
Q 1588 -91 1214 -16 
Q 841 59 441 206 
L 441 856 
Q 825 641 1194 531 
Q 1563 422 1919 422 
Q 2459 422 2753 634 
Q 3047 847 3047 1241 
Q 3047 1584 2836 1778 
Q 2625 1972 2144 2069 
L 1759 2144 
Q 1053 2284 737 2584 
Q 422 2884 422 3419 
Q 422 4038 858 4394 
Q 1294 4750 2059 4750 
Q 2388 4750 2728 4690 
Q 3069 4631 3425 4513 
z
" transform="scale(0.015625)"/>
      <path id="DejaVuSans-51" d="M 2522 4238 
Q 1834 4238 1429 3725 
Q 1025 3213 1025 2328 
Q 1025 1447 1429 934 
Q 1834 422 2522 422 
Q 3209 422 3611 934 
Q 4013 1447 4013 2328 
Q 4013 3213 3611 3725 
Q 3209 4238 2522 4238 
z
M 3406 84 
L 4238 -825 
L 3475 -825 
L 2784 -78 
Q 2681 -84 2626 -87 
Q 2572 -91 2522 -91 
Q 1538 -91 948 567 
Q 359 1225 359 2328 
Q 359 3434 948 4092 
Q 1538 4750 2522 4750 
Q 3503 4750 4090 4092 
Q 4678 3434 4678 2328 
Q 4678 1516 4351 937 
Q 4025 359 3406 84 
z
" transform="scale(0.015625)"/>
      <path id="DejaVuSans-3a" d="M 750 794 
L 1409 794 
L 1409 0 
L 750 0 
L 750 794 
z
M 750 3309 
L 1409 3309 
L 1409 2516 
L 750 2516 
L 750 3309 
z
" transform="scale(0.015625)"/>
     </defs>
     <use xlink:href="#DejaVuSans-52"/>
     <use xlink:href="#DejaVuSans-53" x="69.482422"/>
     <use xlink:href="#DejaVuSans-65" x="132.958984"/>
     <use xlink:href="#DejaVuSans-51" x="194.482422"/>
     <use xlink:href="#DejaVuSans-43" x="273.193359"/>
     <use xlink:href="#DejaVuSans-3a" x="343.017578"/>
     <use xlink:href="#DejaVuSans-20" x="376.708984"/>
     <use xlink:href="#DejaVuSans-49" x="408.496094"/>
     <use xlink:href="#DejaVuSans-6e" x="437.988281"/>
     <use xlink:href="#DejaVuSans-6e" x="501.367188"/>
     <use xlink:href="#DejaVuSans-65" x="564.746094"/>
     <use xlink:href="#DejaVuSans-72" x="626.269531"/>
     <use xlink:href="#DejaVuSans-20" x="667.382812"/>
     <use xlink:href="#DejaVuSans-44" x="699.169922"/>
     <use xlink:href="#DejaVuSans-69" x="776.171875"/>
     <use xlink:href="#DejaVuSans-73" x="803.955078"/>
     <use xlink:href="#DejaVuSans-74" x="856.054688"/>
     <use xlink:href="#DejaVuSans-61" x="895.263672"/>
     <use xlink:href="#DejaVuSans-6e" x="956.542969"/>
     <use xlink:href="#DejaVuSans-63" x="1019.921875"/>
     <use xlink:href="#DejaVuSans-65" x="1074.902344"/>
    </g>
   </g>
  </g>
 </g>
 <defs>
  <clipPath id="pfd24df8cdd">
   <rect x="53.328125" y="35.2559" width="939.67" height="317.968"/>
  </clipPath>
 </defs>
</svg>
