<?xml version="1.0" encoding="utf-8" standalone="no"?>
<!DOCTYPE svg PUBLIC "-//W3C//DTD SVG 1.1//EN"
  "http://www.w3.org/Graphics/SVG/1.1/DTD/svg11.dtd">
<svg xmlns:xlink="http://www.w3.org/1999/xlink" width="1000.358125pt" height="388.844525pt" viewBox="0 0 1000.358125 388.844525" xmlns="http://www.w3.org/2000/svg" version="1.1">
 <metadata>
  <rdf:RDF xmlns:dc="http://purl.org/dc/elements/1.1/" xmlns:cc="http://creativecommons.org/ns#" xmlns:rdf="http://www.w3.org/1999/02/22-rdf-syntax-ns#">
   <cc:Work>
    <dc:type rdf:resource="http://purl.org/dc/dcmitype/StillImage"/>
    <dc:date>2024-09-01T20:21:54.980819</dc:date>
    <dc:format>image/svg+xml</dc:format>
    <dc:creator>
     <cc:Agent>
      <dc:title>Matplotlib v3.8.2, https://matplotlib.org/</dc:title>
     </cc:Agent>
    </dc:creator>
   </cc:Work>
  </rdf:RDF>
 </metadata>
 <defs>
  <style type="text/css">*{stroke-linejoin: round; stroke-linecap: butt}</style>
 </defs>
 <g id="figure_1">
  <g id="axes_1">
   <g id="patch_1">
    <path d="M 32.968125 353.2239 
L 993.158125 353.2239 
L 993.158125 35.2559 
L 32.968125 35.2559 
z
" style="fill: #ffffff"/>
   </g>
   <g id="patch_2">
    <path d="M 734.934705 353.2239 
L 2539.991624 353.2239 
L 2539.991624 35.2559 
L 734.934705 35.2559 
z
" clip-path="url(#pdf606f3cd8)" style="fill: #c3e6c3"/>
   </g>
   <g id="patch_3">
    <path d="M 534.372825 353.2239 
L 734.934705 353.2239 
L 734.934705 35.2559 
L 534.372825 35.2559 
z
" clip-path="url(#pdf606f3cd8)" style="fill: #e6dcc3"/>
   </g>
   <g id="patch_4">
    <path d="M 32.968125 353.2239 
L 534.372825 353.2239 
L 534.372825 35.2559 
L 32.968125 35.2559 
z
" clip-path="url(#pdf606f3cd8)" style="fill: #e6c3c3"/>
   </g>
   <g id="matplotlib.axis_1">
    <g id="xtick_1">
     <g id="text_1">
      <!-- 0 -->
      <g transform="translate(30.423125 366.30265) scale(0.08 -0.08)">
       <defs>
        <path id="DejaVuSans-30" d="M 2034 4250 
Q 1547 4250 1301 3770 
Q 1056 3291 1056 2328 
Q 1056 1369 1301 889 
Q 1547 409 2034 409 
Q 2525 409 2770 889 
Q 3016 1369 3016 2328 
Q 3016 3291 2770 3770 
Q 2525 4250 2034 4250 
z
M 2034 4750 
Q 2819 4750 3233 4129 
Q 3647 3509 3647 2328 
Q 3647 1150 3233 529 
Q 2819 -91 2034 -91 
Q 1250 -91 836 529 
Q 422 1150 422 2328 
Q 422 3509 836 4129 
Q 1250 4750 2034 4750 
z
" transform="scale(0.015625)"/>
       </defs>
       <use xlink:href="#DejaVuSans-30"/>
      </g>
     </g>
    </g>
    <g id="xtick_2">
     <g id="text_2">
      <!-- 5 -->
      <g transform="translate(155.7743 366.30265) scale(0.08 -0.08)">
       <defs>
        <path id="DejaVuSans-35" d="M 691 4666 
L 3169 4666 
L 3169 4134 
L 1269 4134 
L 1269 2991 
Q 1406 3038 1543 3061 
Q 1681 3084 1819 3084 
Q 2600 3084 3056 2656 
Q 3513 2228 3513 1497 
Q 3513 744 3044 326 
Q 2575 -91 1722 -91 
Q 1428 -91 1123 -41 
Q 819 9 494 109 
L 494 744 
Q 775 591 1075 516 
Q 1375 441 1709 441 
Q 2250 441 2565 725 
Q 2881 1009 2881 1497 
Q 2881 1984 2565 2268 
Q 2250 2553 1709 2553 
Q 1456 2553 1204 2497 
Q 953 2441 691 2322 
L 691 4666 
z
" transform="scale(0.015625)"/>
       </defs>
       <use xlink:href="#DejaVuSans-35"/>
      </g>
     </g>
    </g>
    <g id="xtick_3">
     <g id="text_3">
      <!-- 10 -->
      <g transform="translate(278.580475 366.30265) scale(0.08 -0.08)">
       <defs>
        <path id="DejaVuSans-31" d="M 794 531 
L 1825 531 
L 1825 4091 
L 703 3866 
L 703 4441 
L 1819 4666 
L 2450 4666 
L 2450 531 
L 3481 531 
L 3481 0 
L 794 0 
L 794 531 
z
" transform="scale(0.015625)"/>
       </defs>
       <use xlink:href="#DejaVuSans-31"/>
       <use xlink:href="#DejaVuSans-30" x="63.623047"/>
      </g>
     </g>
    </g>
    <g id="xtick_4">
     <g id="text_4">
      <!-- 15 -->
      <g transform="translate(403.93165 366.30265) scale(0.08 -0.08)">
       <use xlink:href="#DejaVuSans-31"/>
       <use xlink:href="#DejaVuSans-35" x="63.623047"/>
      </g>
     </g>
    </g>
    <g id="xtick_5">
     <g id="text_5">
      <!-- 20 -->
      <g transform="translate(529.282825 366.30265) scale(0.08 -0.08)">
       <defs>
        <path id="DejaVuSans-32" d="M 1228 531 
L 3431 531 
L 3431 0 
L 469 0 
L 469 531 
Q 828 903 1448 1529 
Q 2069 2156 2228 2338 
Q 2531 2678 2651 2914 
Q 2772 3150 2772 3378 
Q 2772 3750 2511 3984 
Q 2250 4219 1831 4219 
Q 1534 4219 1204 4116 
Q 875 4013 500 3803 
L 500 4441 
Q 881 4594 1212 4672 
Q 1544 4750 1819 4750 
Q 2544 4750 2975 4387 
Q 3406 4025 3406 3419 
Q 3406 3131 3298 2873 
Q 3191 2616 2906 2266 
Q 2828 2175 2409 1742 
Q 1991 1309 1228 531 
z
" transform="scale(0.015625)"/>
       </defs>
       <use xlink:href="#DejaVuSans-32"/>
       <use xlink:href="#DejaVuSans-30" x="63.623047"/>
      </g>
     </g>
    </g>
    <g id="xtick_6">
     <g id="text_6">
      <!-- 25 -->
      <g transform="translate(654.634 366.30265) scale(0.08 -0.08)">
       <use xlink:href="#DejaVuSans-32"/>
       <use xlink:href="#DejaVuSans-35" x="63.623047"/>
      </g>
     </g>
    </g>
    <g id="xtick_7">
     <g id="text_7">
      <!-- 30 -->
      <g transform="translate(779.985175 366.30265) scale(0.08 -0.08)">
       <defs>
        <path id="DejaVuSans-33" d="M 2597 2516 
Q 3050 2419 3304 2112 
Q 3559 1806 3559 1356 
Q 3559 666 3084 287 
Q 2609 -91 1734 -91 
Q 1441 -91 1130 -33 
Q 819 25 488 141 
L 488 750 
Q 750 597 1062 519 
Q 1375 441 1716 441 
Q 2309 441 2620 675 
Q 2931 909 2931 1356 
Q 2931 1769 2642 2001 
Q 2353 2234 1838 2234 
L 1294 2234 
L 1294 2753 
L 1863 2753 
Q 2328 2753 2575 2939 
Q 2822 3125 2822 3475 
Q 2822 3834 2567 4026 
Q 2313 4219 1838 4219 
Q 1578 4219 1281 4162 
Q 984 4106 628 3988 
L 628 4550 
Q 988 4650 1302 4700 
Q 1616 4750 1894 4750 
Q 2613 4750 3031 4423 
Q 3450 4097 3450 3541 
Q 3450 3153 3228 2886 
Q 3006 2619 2597 2516 
z
" transform="scale(0.015625)"/>
       </defs>
       <use xlink:href="#DejaVuSans-33"/>
       <use xlink:href="#DejaVuSans-30" x="63.623047"/>
      </g>
     </g>
    </g>
    <g id="xtick_8">
     <g id="text_8">
      <!-- 35 -->
      <g transform="translate(905.33635 366.30265) scale(0.08 -0.08)">
       <use xlink:href="#DejaVuSans-33"/>
       <use xlink:href="#DejaVuSans-35" x="63.623047"/>
      </g>
     </g>
    </g>
    <g id="text_9">
     <!-- Mean Sequence Quality (Phred Score) -->
     <g transform="translate(418.270938 379.564837) scale(0.1 -0.1)">
      <defs>
       <path id="DejaVuSans-4d" d="M 628 4666 
L 1569 4666 
L 2759 1491 
L 3956 4666 
L 4897 4666 
L 4897 0 
L 4281 0 
L 4281 4097 
L 3078 897 
L 2444 897 
L 1241 4097 
L 1241 0 
L 628 0 
L 628 4666 
z
" transform="scale(0.015625)"/>
       <path id="DejaVuSans-65" d="M 3597 1894 
L 3597 1613 
L 953 1613 
Q 991 1019 1311 708 
Q 1631 397 2203 397 
Q 2534 397 2845 478 
Q 3156 559 3463 722 
L 3463 178 
Q 3153 47 2828 -22 
Q 2503 -91 2169 -91 
Q 1331 -91 842 396 
Q 353 884 353 1716 
Q 353 2575 817 3079 
Q 1281 3584 2069 3584 
Q 2775 3584 3186 3129 
Q 3597 2675 3597 1894 
z
M 3022 2063 
Q 3016 2534 2758 2815 
Q 2500 3097 2075 3097 
Q 1594 3097 1305 2825 
Q 1016 2553 972 2059 
L 3022 2063 
z
" transform="scale(0.015625)"/>
       <path id="DejaVuSans-61" d="M 2194 1759 
Q 1497 1759 1228 1600 
Q 959 1441 959 1056 
Q 959 750 1161 570 
Q 1363 391 1709 391 
Q 2188 391 2477 730 
Q 2766 1069 2766 1631 
L 2766 1759 
L 2194 1759 
z
M 3341 1997 
L 3341 0 
L 2766 0 
L 2766 531 
Q 2569 213 2275 61 
Q 1981 -91 1556 -91 
Q 1019 -91 701 211 
Q 384 513 384 1019 
Q 384 1609 779 1909 
Q 1175 2209 1959 2209 
L 2766 2209 
L 2766 2266 
Q 2766 2663 2505 2880 
Q 2244 3097 1772 3097 
Q 1472 3097 1187 3025 
Q 903 2953 641 2809 
L 641 3341 
Q 956 3463 1253 3523 
Q 1550 3584 1831 3584 
Q 2591 3584 2966 3190 
Q 3341 2797 3341 1997 
z
" transform="scale(0.015625)"/>
       <path id="DejaVuSans-6e" d="M 3513 2113 
L 3513 0 
L 2938 0 
L 2938 2094 
Q 2938 2591 2744 2837 
Q 2550 3084 2163 3084 
Q 1697 3084 1428 2787 
Q 1159 2491 1159 1978 
L 1159 0 
L 581 0 
L 581 3500 
L 1159 3500 
L 1159 2956 
Q 1366 3272 1645 3428 
Q 1925 3584 2291 3584 
Q 2894 3584 3203 3211 
Q 3513 2838 3513 2113 
z
" transform="scale(0.015625)"/>
       <path id="DejaVuSans-20" transform="scale(0.015625)"/>
       <path id="DejaVuSans-53" d="M 3425 4513 
L 3425 3897 
Q 3066 4069 2747 4153 
Q 2428 4238 2131 4238 
Q 1616 4238 1336 4038 
Q 1056 3838 1056 3469 
Q 1056 3159 1242 3001 
Q 1428 2844 1947 2747 
L 2328 2669 
Q 3034 2534 3370 2195 
Q 3706 1856 3706 1288 
Q 3706 609 3251 259 
Q 2797 -91 1919 -91 
Q 1588 -91 1214 -16 
Q 841 59 441 206 
L 441 856 
Q 825 641 1194 531 
Q 1563 422 1919 422 
Q 2459 422 2753 634 
Q 3047 847 3047 1241 
Q 3047 1584 2836 1778 
Q 2625 1972 2144 2069 
L 1759 2144 
Q 1053 2284 737 2584 
Q 422 2884 422 3419 
Q 422 4038 858 4394 
Q 1294 4750 2059 4750 
Q 2388 4750 2728 4690 
Q 3069 4631 3425 4513 
z
" transform="scale(0.015625)"/>
       <path id="DejaVuSans-71" d="M 947 1747 
Q 947 1113 1208 752 
Q 1469 391 1925 391 
Q 2381 391 2643 752 
Q 2906 1113 2906 1747 
Q 2906 2381 2643 2742 
Q 2381 3103 1925 3103 
Q 1469 3103 1208 2742 
Q 947 2381 947 1747 
z
M 2906 525 
Q 2725 213 2448 61 
Q 2172 -91 1784 -91 
Q 1150 -91 751 415 
Q 353 922 353 1747 
Q 353 2572 751 3078 
Q 1150 3584 1784 3584 
Q 2172 3584 2448 3432 
Q 2725 3281 2906 2969 
L 2906 3500 
L 3481 3500 
L 3481 -1331 
L 2906 -1331 
L 2906 525 
z
" transform="scale(0.015625)"/>
       <path id="DejaVuSans-75" d="M 544 1381 
L 544 3500 
L 1119 3500 
L 1119 1403 
Q 1119 906 1312 657 
Q 1506 409 1894 409 
Q 2359 409 2629 706 
Q 2900 1003 2900 1516 
L 2900 3500 
L 3475 3500 
L 3475 0 
L 2900 0 
L 2900 538 
Q 2691 219 2414 64 
Q 2138 -91 1772 -91 
Q 1169 -91 856 284 
Q 544 659 544 1381 
z
M 1991 3584 
L 1991 3584 
z
" transform="scale(0.015625)"/>
       <path id="DejaVuSans-63" d="M 3122 3366 
L 3122 2828 
Q 2878 2963 2633 3030 
Q 2388 3097 2138 3097 
Q 1578 3097 1268 2742 
Q 959 2388 959 1747 
Q 959 1106 1268 751 
Q 1578 397 2138 397 
Q 2388 397 2633 464 
Q 2878 531 3122 666 
L 3122 134 
Q 2881 22 2623 -34 
Q 2366 -91 2075 -91 
Q 1284 -91 818 406 
Q 353 903 353 1747 
Q 353 2603 823 3093 
Q 1294 3584 2113 3584 
Q 2378 3584 2631 3529 
Q 2884 3475 3122 3366 
z
" transform="scale(0.015625)"/>
       <path id="DejaVuSans-51" d="M 2522 4238 
Q 1834 4238 1429 3725 
Q 1025 3213 1025 2328 
Q 1025 1447 1429 934 
Q 1834 422 2522 422 
Q 3209 422 3611 934 
Q 4013 1447 4013 2328 
Q 4013 3213 3611 3725 
Q 3209 4238 2522 4238 
z
M 3406 84 
L 4238 -825 
L 3475 -825 
L 2784 -78 
Q 2681 -84 2626 -87 
Q 2572 -91 2522 -91 
Q 1538 -91 948 567 
Q 359 1225 359 2328 
Q 359 3434 948 4092 
Q 1538 4750 2522 4750 
Q 3503 4750 4090 4092 
Q 4678 3434 4678 2328 
Q 4678 1516 4351 937 
Q 4025 359 3406 84 
z
" transform="scale(0.015625)"/>
       <path id="DejaVuSans-6c" d="M 603 4863 
L 1178 4863 
L 1178 0 
L 603 0 
L 603 4863 
z
" transform="scale(0.015625)"/>
       <path id="DejaVuSans-69" d="M 603 3500 
L 1178 3500 
L 1178 0 
L 603 0 
L 603 3500 
z
M 603 4863 
L 1178 4863 
L 1178 4134 
L 603 4134 
L 603 4863 
z
" transform="scale(0.015625)"/>
       <path id="DejaVuSans-74" d="M 1172 4494 
L 1172 3500 
L 2356 3500 
L 2356 3053 
L 1172 3053 
L 1172 1153 
Q 1172 725 1289 603 
Q 1406 481 1766 481 
L 2356 481 
L 2356 0 
L 1766 0 
Q 1100 0 847 248 
Q 594 497 594 1153 
L 594 3053 
L 172 3053 
L 172 3500 
L 594 3500 
L 594 4494 
L 1172 4494 
z
" transform="scale(0.015625)"/>
       <path id="DejaVuSans-79" d="M 2059 -325 
Q 1816 -950 1584 -1140 
Q 1353 -1331 966 -1331 
L 506 -1331 
L 506 -850 
L 844 -850 
Q 1081 -850 1212 -737 
Q 1344 -625 1503 -206 
L 1606 56 
L 191 3500 
L 800 3500 
L 1894 763 
L 2988 3500 
L 3597 3500 
L 2059 -325 
z
" transform="scale(0.015625)"/>
       <path id="DejaVuSans-28" d="M 1984 4856 
Q 1566 4138 1362 3434 
Q 1159 2731 1159 2009 
Q 1159 1288 1364 580 
Q 1569 -128 1984 -844 
L 1484 -844 
Q 1016 -109 783 600 
Q 550 1309 550 2009 
Q 550 2706 781 3412 
Q 1013 4119 1484 4856 
L 1984 4856 
z
" transform="scale(0.015625)"/>
       <path id="DejaVuSans-50" d="M 1259 4147 
L 1259 2394 
L 2053 2394 
Q 2494 2394 2734 2622 
Q 2975 2850 2975 3272 
Q 2975 3691 2734 3919 
Q 2494 4147 2053 4147 
L 1259 4147 
z
M 628 4666 
L 2053 4666 
Q 2838 4666 3239 4311 
Q 3641 3956 3641 3272 
Q 3641 2581 3239 2228 
Q 2838 1875 2053 1875 
L 1259 1875 
L 1259 0 
L 628 0 
L 628 4666 
z
" transform="scale(0.015625)"/>
       <path id="DejaVuSans-68" d="M 3513 2113 
L 3513 0 
L 2938 0 
L 2938 2094 
Q 2938 2591 2744 2837 
Q 2550 3084 2163 3084 
Q 1697 3084 1428 2787 
Q 1159 2491 1159 1978 
L 1159 0 
L 581 0 
L 581 4863 
L 1159 4863 
L 1159 2956 
Q 1366 3272 1645 3428 
Q 1925 3584 2291 3584 
Q 2894 3584 3203 3211 
Q 3513 2838 3513 2113 
z
" transform="scale(0.015625)"/>
       <path id="DejaVuSans-72" d="M 2631 2963 
Q 2534 3019 2420 3045 
Q 2306 3072 2169 3072 
Q 1681 3072 1420 2755 
Q 1159 2438 1159 1844 
L 1159 0 
L 581 0 
L 581 3500 
L 1159 3500 
L 1159 2956 
Q 1341 3275 1631 3429 
Q 1922 3584 2338 3584 
Q 2397 3584 2469 3576 
Q 2541 3569 2628 3553 
L 2631 2963 
z
" transform="scale(0.015625)"/>
       <path id="DejaVuSans-64" d="M 2906 2969 
L 2906 4863 
L 3481 4863 
L 3481 0 
L 2906 0 
L 2906 525 
Q 2725 213 2448 61 
Q 2172 -91 1784 -91 
Q 1150 -91 751 415 
Q 353 922 353 1747 
Q 353 2572 751 3078 
Q 1150 3584 1784 3584 
Q 2172 3584 2448 3432 
Q 2725 3281 2906 2969 
z
M 947 1747 
Q 947 1113 1208 752 
Q 1469 391 1925 391 
Q 2381 391 2643 752 
Q 2906 1113 2906 1747 
Q 2906 2381 2643 2742 
Q 2381 3103 1925 3103 
Q 1469 3103 1208 2742 
Q 947 2381 947 1747 
z
" transform="scale(0.015625)"/>
       <path id="DejaVuSans-6f" d="M 1959 3097 
Q 1497 3097 1228 2736 
Q 959 2375 959 1747 
Q 959 1119 1226 758 
Q 1494 397 1959 397 
Q 2419 397 2687 759 
Q 2956 1122 2956 1747 
Q 2956 2369 2687 2733 
Q 2419 3097 1959 3097 
z
M 1959 3584 
Q 2709 3584 3137 3096 
Q 3566 2609 3566 1747 
Q 3566 888 3137 398 
Q 2709 -91 1959 -91 
Q 1206 -91 779 398 
Q 353 888 353 1747 
Q 353 2609 779 3096 
Q 1206 3584 1959 3584 
z
" transform="scale(0.015625)"/>
       <path id="DejaVuSans-29" d="M 513 4856 
L 1013 4856 
Q 1481 4119 1714 3412 
Q 1947 2706 1947 2009 
Q 1947 1309 1714 600 
Q 1481 -109 1013 -844 
L 513 -844 
Q 928 -128 1133 580 
Q 1338 1288 1338 2009 
Q 1338 2731 1133 3434 
Q 928 4138 513 4856 
z
" transform="scale(0.015625)"/>
      </defs>
      <use xlink:href="#DejaVuSans-4d"/>
      <use xlink:href="#DejaVuSans-65" x="86.279297"/>
      <use xlink:href="#DejaVuSans-61" x="147.802734"/>
      <use xlink:href="#DejaVuSans-6e" x="209.082031"/>
      <use xlink:href="#DejaVuSans-20" x="272.460938"/>
      <use xlink:href="#DejaVuSans-53" x="304.248047"/>
      <use xlink:href="#DejaVuSans-65" x="367.724609"/>
      <use xlink:href="#DejaVuSans-71" x="429.248047"/>
      <use xlink:href="#DejaVuSans-75" x="492.724609"/>
      <use xlink:href="#DejaVuSans-65" x="556.103516"/>
      <use xlink:href="#DejaVuSans-6e" x="617.626953"/>
      <use xlink:href="#DejaVuSans-63" x="681.005859"/>
      <use xlink:href="#DejaVuSans-65" x="735.986328"/>
      <use xlink:href="#DejaVuSans-20" x="797.509766"/>
      <use xlink:href="#DejaVuSans-51" x="829.296875"/>
      <use xlink:href="#DejaVuSans-75" x="908.007812"/>
      <use xlink:href="#DejaVuSans-61" x="971.386719"/>
      <use xlink:href="#DejaVuSans-6c" x="1032.666016"/>
      <use xlink:href="#DejaVuSans-69" x="1060.449219"/>
      <use xlink:href="#DejaVuSans-74" x="1088.232422"/>
      <use xlink:href="#DejaVuSans-79" x="1127.441406"/>
      <use xlink:href="#DejaVuSans-20" x="1186.621094"/>
      <use xlink:href="#DejaVuSans-28" x="1218.408203"/>
      <use xlink:href="#DejaVuSans-50" x="1257.421875"/>
      <use xlink:href="#DejaVuSans-68" x="1317.724609"/>
      <use xlink:href="#DejaVuSans-72" x="1381.103516"/>
      <use xlink:href="#DejaVuSans-65" x="1419.966797"/>
      <use xlink:href="#DejaVuSans-64" x="1481.490234"/>
      <use xlink:href="#DejaVuSans-20" x="1544.966797"/>
      <use xlink:href="#DejaVuSans-53" x="1576.753906"/>
      <use xlink:href="#DejaVuSans-63" x="1640.230469"/>
      <use xlink:href="#DejaVuSans-6f" x="1695.210938"/>
      <use xlink:href="#DejaVuSans-72" x="1756.392578"/>
      <use xlink:href="#DejaVuSans-65" x="1795.255859"/>
      <use xlink:href="#DejaVuSans-29" x="1856.779297"/>
     </g>
    </g>
   </g>
   <g id="matplotlib.axis_2">
    <g id="ytick_1">
     <g id="line2d_1">
      <path d="M 32.968125 353.2239 
L 993.158125 353.2239 
" clip-path="url(#pdf606f3cd8)" style="fill: none; stroke: #dedede; stroke-linecap: square"/>
     </g>
     <g id="text_10">
      <!-- 0 -->
      <g transform="translate(20.878125 356.263275) scale(0.08 -0.08)">
       <use xlink:href="#DejaVuSans-30"/>
      </g>
     </g>
    </g>
    <g id="ytick_2">
     <g id="line2d_2">
      <path d="M 32.968125 306.855757 
L 993.158125 306.855757 
" clip-path="url(#pdf606f3cd8)" style="fill: none; stroke: #dedede; stroke-linecap: square"/>
     </g>
     <g id="text_11">
      <!-- 1 -->
      <g transform="translate(20.878125 309.895132) scale(0.08 -0.08)">
       <use xlink:href="#DejaVuSans-31"/>
      </g>
     </g>
    </g>
    <g id="ytick_3">
     <g id="line2d_3">
      <path d="M 32.968125 260.487615 
L 993.158125 260.487615 
" clip-path="url(#pdf606f3cd8)" style="fill: none; stroke: #dedede; stroke-linecap: square"/>
     </g>
     <g id="text_12">
      <!-- 2 -->
      <g transform="translate(20.878125 263.52699) scale(0.08 -0.08)">
       <use xlink:href="#DejaVuSans-32"/>
      </g>
     </g>
    </g>
    <g id="ytick_4">
     <g id="line2d_4">
      <path d="M 32.968125 214.119472 
L 993.158125 214.119472 
" clip-path="url(#pdf606f3cd8)" style="fill: none; stroke: #dedede; stroke-linecap: square"/>
     </g>
     <g id="text_13">
      <!-- 3 -->
      <g transform="translate(20.878125 217.158847) scale(0.08 -0.08)">
       <use xlink:href="#DejaVuSans-33"/>
      </g>
     </g>
    </g>
    <g id="ytick_5">
     <g id="line2d_5">
      <path d="M 32.968125 167.75133 
L 993.158125 167.75133 
" clip-path="url(#pdf606f3cd8)" style="fill: none; stroke: #dedede; stroke-linecap: square"/>
     </g>
     <g id="text_14">
      <!-- 4 -->
      <g transform="translate(20.878125 170.790705) scale(0.08 -0.08)">
       <defs>
        <path id="DejaVuSans-34" d="M 2419 4116 
L 825 1625 
L 2419 1625 
L 2419 4116 
z
M 2253 4666 
L 3047 4666 
L 3047 1625 
L 3713 1625 
L 3713 1100 
L 3047 1100 
L 3047 0 
L 2419 0 
L 2419 1100 
L 313 1100 
L 313 1709 
L 2253 4666 
z
" transform="scale(0.015625)"/>
       </defs>
       <use xlink:href="#DejaVuSans-34"/>
      </g>
     </g>
    </g>
    <g id="ytick_6">
     <g id="line2d_6">
      <path d="M 32.968125 121.383187 
L 993.158125 121.383187 
" clip-path="url(#pdf606f3cd8)" style="fill: none; stroke: #dedede; stroke-linecap: square"/>
     </g>
     <g id="text_15">
      <!-- 5 -->
      <g transform="translate(20.878125 124.422562) scale(0.08 -0.08)">
       <use xlink:href="#DejaVuSans-35"/>
      </g>
     </g>
    </g>
    <g id="ytick_7">
     <g id="line2d_7">
      <path d="M 32.968125 75.015044 
L 993.158125 75.015044 
" clip-path="url(#pdf606f3cd8)" style="fill: none; stroke: #dedede; stroke-linecap: square"/>
     </g>
     <g id="text_16">
      <!-- 6 -->
      <g transform="translate(20.878125 78.054419) scale(0.08 -0.08)">
       <defs>
        <path id="DejaVuSans-36" d="M 2113 2584 
Q 1688 2584 1439 2293 
Q 1191 2003 1191 1497 
Q 1191 994 1439 701 
Q 1688 409 2113 409 
Q 2538 409 2786 701 
Q 3034 994 3034 1497 
Q 3034 2003 2786 2293 
Q 2538 2584 2113 2584 
z
M 3366 4563 
L 3366 3988 
Q 3128 4100 2886 4159 
Q 2644 4219 2406 4219 
Q 1781 4219 1451 3797 
Q 1122 3375 1075 2522 
Q 1259 2794 1537 2939 
Q 1816 3084 2150 3084 
Q 2853 3084 3261 2657 
Q 3669 2231 3669 1497 
Q 3669 778 3244 343 
Q 2819 -91 2113 -91 
Q 1303 -91 875 529 
Q 447 1150 447 2328 
Q 447 3434 972 4092 
Q 1497 4750 2381 4750 
Q 2619 4750 2861 4703 
Q 3103 4656 3366 4563 
z
" transform="scale(0.015625)"/>
       </defs>
       <use xlink:href="#DejaVuSans-36"/>
      </g>
     </g>
    </g>
    <g id="text_17">
     <!-- Count -->
     <g transform="translate(14.798437 209.088338) rotate(-90) scale(0.1 -0.1)">
      <defs>
       <path id="DejaVuSans-43" d="M 4122 4306 
L 4122 3641 
Q 3803 3938 3442 4084 
Q 3081 4231 2675 4231 
Q 1875 4231 1450 3742 
Q 1025 3253 1025 2328 
Q 1025 1406 1450 917 
Q 1875 428 2675 428 
Q 3081 428 3442 575 
Q 3803 722 4122 1019 
L 4122 359 
Q 3791 134 3420 21 
Q 3050 -91 2638 -91 
Q 1578 -91 968 557 
Q 359 1206 359 2328 
Q 359 3453 968 4101 
Q 1578 4750 2638 4750 
Q 3056 4750 3426 4639 
Q 3797 4528 4122 4306 
z
" transform="scale(0.015625)"/>
      </defs>
      <use xlink:href="#DejaVuSans-43"/>
      <use xlink:href="#DejaVuSans-6f" x="69.824219"/>
      <use xlink:href="#DejaVuSans-75" x="131.005859"/>
      <use xlink:href="#DejaVuSans-6e" x="194.384766"/>
      <use xlink:href="#DejaVuSans-74" x="257.763672"/>
     </g>
    </g>
    <g id="text_18">
     <!-- 1e7 -->
     <g transform="translate(32.968125 32.2559) scale(0.1 -0.1)">
      <defs>
       <path id="DejaVuSans-37" d="M 525 4666 
L 3525 4666 
L 3525 4397 
L 1831 0 
L 1172 0 
L 2766 4134 
L 525 4134 
L 525 4666 
z
" transform="scale(0.015625)"/>
      </defs>
      <use xlink:href="#DejaVuSans-31"/>
      <use xlink:href="#DejaVuSans-65" x="63.623047"/>
      <use xlink:href="#DejaVuSans-37" x="125.146484"/>
     </g>
    </g>
   </g>
   <g id="line2d_8">
    <path d="M 358.88118 353.223872 
L 383.951415 353.2232 
L 409.02165 353.218869 
L 434.091885 353.207008 
L 459.16212 353.187955 
L 484.232355 353.165745 
L 509.30259 353.142283 
L 534.372825 353.112941 
L 559.44306 353.077789 
L 584.513295 353.026798 
L 609.58353 352.959342 
L 634.653765 352.885181 
L 659.724 352.787585 
L 684.794235 352.672179 
L 709.86447 352.501586 
L 734.934705 352.295364 
L 760.00494 352.015926 
L 785.075175 351.684371 
L 810.14541 351.229931 
L 835.215645 350.623537 
L 860.28588 349.573364 
L 885.356115 347.518648 
L 910.42635 340.675011 
L 935.496585 263.191286 
L 960.56682 334.564511 
" clip-path="url(#pdf606f3cd8)" style="fill: none; stroke: #5cb85c; stroke-linecap: square"/>
   </g>
   <g id="line2d_9">
    <path d="M 308.74071 353.223886 
L 333.810945 353.223752 
L 358.88118 353.221818 
L 383.951415 353.212804 
L 409.02165 353.187946 
L 434.091885 353.146646 
L 459.16212 353.083312 
L 484.232355 353.001667 
L 509.30259 352.893954 
L 534.372825 352.739307 
L 559.44306 352.550018 
L 584.513295 352.375576 
L 609.58353 352.272579 
L 634.653765 352.237459 
L 659.724 352.182077 
L 684.794235 352.110267 
L 709.86447 351.968487 
L 734.934705 351.807061 
L 760.00494 351.526181 
L 785.075175 351.133633 
L 810.14541 350.452991 
L 835.215645 349.364216 
L 860.28588 347.07994 
L 885.356115 341.636696 
L 910.42635 322.729242 
L 935.496585 282.464941 
L 960.56682 350.385627 
" clip-path="url(#pdf606f3cd8)" style="fill: none; stroke: #5cb85c; stroke-linecap: square"/>
   </g>
   <g id="line2d_10">
    <path d="M 358.88118 353.223858 
L 383.951415 353.222704 
L 409.02165 353.217399 
L 434.091885 353.202051 
L 459.16212 353.176873 
L 484.232355 353.147889 
L 509.30259 353.113757 
L 534.372825 353.075684 
L 559.44306 353.018114 
L 584.513295 352.9427 
L 609.58353 352.843895 
L 634.653765 352.73148 
L 659.724 352.581302 
L 684.794235 352.393859 
L 709.86447 352.108621 
L 734.934705 351.75345 
L 760.00494 351.282317 
L 785.075175 350.736203 
L 810.14541 349.979669 
L 835.215645 348.981563 
L 860.28588 347.239966 
L 885.356115 343.983717 
L 910.42635 333.239249 
L 935.496585 221.785605 
L 960.56682 329.42699 
" clip-path="url(#pdf606f3cd8)" style="fill: none; stroke: #5cb85c; stroke-linecap: square"/>
   </g>
   <g id="line2d_11">
    <path d="M 308.74071 353.223895 
L 333.810945 353.223775 
L 358.88118 353.222198 
L 383.951415 353.213546 
L 409.02165 353.188521 
L 434.091885 353.140896 
L 459.16212 353.066137 
L 484.232355 352.963807 
L 509.30259 352.81618 
L 534.372825 352.629808 
L 559.44306 352.38938 
L 584.513295 352.159672 
L 609.58353 351.996804 
L 634.653765 351.917042 
L 659.724 351.803472 
L 684.794235 351.692509 
L 709.86447 351.497345 
L 734.934705 351.264137 
L 760.00494 350.854196 
L 785.075175 350.284586 
L 810.14541 349.306803 
L 835.215645 347.748295 
L 860.28588 344.521916 
L 885.356115 336.816412 
L 910.42635 309.362595 
L 935.496585 246.009793 
L 960.56682 348.542994 
" clip-path="url(#pdf606f3cd8)" style="fill: none; stroke: #5cb85c; stroke-linecap: square"/>
   </g>
   <g id="line2d_12">
    <path d="M 358.88118 353.223868 
L 383.951415 353.223446 
L 409.02165 353.221072 
L 434.091885 353.214121 
L 459.16212 353.202636 
L 484.232355 353.189156 
L 509.30259 353.169955 
L 534.372825 353.143122 
L 559.44306 353.099119 
L 584.513295 353.040857 
L 609.58353 352.965884 
L 634.653765 352.89495 
L 659.724 352.822834 
L 684.794235 352.744741 
L 709.86447 352.61682 
L 734.934705 352.461075 
L 760.00494 352.24601 
L 785.075175 351.972549 
L 810.14541 351.598089 
L 835.215645 351.112244 
L 860.28588 350.356944 
L 885.356115 348.916759 
L 910.42635 343.939125 
L 935.496585 290.604642 
L 960.56682 339.879543 
" clip-path="url(#pdf606f3cd8)" style="fill: none; stroke: #5cb85c; stroke-linecap: square"/>
   </g>
   <g id="line2d_13">
    <path d="M 333.810945 353.223844 
L 358.88118 353.222982 
L 383.951415 353.218531 
L 409.02165 353.205501 
L 434.091885 353.181139 
L 459.16212 353.143539 
L 484.232355 353.092483 
L 509.30259 353.020502 
L 534.372825 352.930909 
L 559.44306 352.818012 
L 584.513295 352.704442 
L 609.58353 352.60106 
L 634.653765 352.525772 
L 659.724 352.414873 
L 684.794235 352.285682 
L 709.86447 352.122652 
L 734.934705 352.034743 
L 760.00494 351.822404 
L 785.075175 351.509614 
L 810.14541 350.986577 
L 835.215645 350.233118 
L 860.28588 348.686805 
L 885.356115 345.111107 
L 910.42635 332.343347 
L 935.496585 302.688091 
L 960.56682 350.955728 
" clip-path="url(#pdf606f3cd8)" style="fill: none; stroke: #5cb85c; stroke-linecap: square"/>
   </g>
   <g id="line2d_14">
    <path d="M 358.88118 353.223891 
L 383.951415 353.223728 
L 409.02165 353.222101 
L 434.091885 353.217478 
L 459.16212 353.209512 
L 484.232355 353.199357 
L 509.30259 353.187 
L 534.372825 353.170442 
L 559.44306 353.142913 
L 584.513295 353.107428 
L 609.58353 353.063967 
L 634.653765 353.022783 
L 659.724 352.974903 
L 684.794235 352.919419 
L 709.86447 352.841887 
L 734.934705 352.744388 
L 760.00494 352.61976 
L 785.075175 352.468452 
L 810.14541 352.236745 
L 835.215645 351.874647 
L 860.28588 351.076679 
L 885.356115 350.117146 
L 910.42635 347.360444 
L 935.496585 314.578715 
L 960.56682 344.525737 
" clip-path="url(#pdf606f3cd8)" style="fill: none; stroke: #5cb85c; stroke-linecap: square"/>
   </g>
   <g id="line2d_15">
    <path d="M 333.810945 353.22384 
L 358.88118 353.223367 
L 383.951415 353.220914 
L 409.02165 353.213286 
L 434.091885 353.198101 
L 459.16212 353.171671 
L 484.232355 353.135142 
L 509.30259 353.084888 
L 534.372825 353.018679 
L 559.44306 352.930237 
L 584.513295 352.844284 
L 609.58353 352.769093 
L 634.653765 352.718946 
L 659.724 352.644544 
L 684.794235 352.566965 
L 709.86447 352.445268 
L 734.934705 352.36238 
L 760.00494 352.226952 
L 785.075175 352.029211 
L 810.14541 351.699724 
L 835.215645 351.173593 
L 860.28588 350.092947 
L 885.356115 347.596518 
L 910.42635 339.245486 
L 935.496585 323.642467 
L 960.56682 352.074921 
" clip-path="url(#pdf606f3cd8)" style="fill: none; stroke: #5cb85c; stroke-linecap: square"/>
   </g>
   <g id="line2d_16">
    <path d="M 358.88118 353.223881 
L 383.951415 353.223552 
L 409.02165 353.221623 
L 434.091885 353.216189 
L 459.16212 353.206591 
L 484.232355 353.194994 
L 509.30259 353.180133 
L 534.372825 353.16122 
L 559.44306 353.128224 
L 584.513295 353.085245 
L 609.58353 353.026316 
L 634.653765 352.963895 
L 659.724 352.893499 
L 684.794235 352.811103 
L 709.86447 352.689799 
L 734.934705 352.550398 
L 760.00494 352.358017 
L 785.075175 352.136623 
L 810.14541 351.827227 
L 835.215645 351.413261 
L 860.28588 350.702053 
L 885.356115 349.43349 
L 910.42635 345.141084 
L 935.496585 294.797676 
L 960.56682 338.151875 
" clip-path="url(#pdf606f3cd8)" style="fill: none; stroke: #5cb85c; stroke-linecap: square"/>
   </g>
   <g id="line2d_17">
    <path d="M 308.74071 353.223895 
L 333.810945 353.22383 
L 358.88118 353.223033 
L 383.951415 353.219838 
L 409.02165 353.210003 
L 434.091885 353.19052 
L 459.16212 353.158563 
L 484.232355 353.110303 
L 509.30259 353.046125 
L 534.372825 352.968286 
L 559.44306 352.868335 
L 584.513295 352.755981 
L 609.58353 352.658742 
L 634.653765 352.571681 
L 659.724 352.456118 
L 684.794235 352.323213 
L 709.86447 352.146499 
L 734.934705 351.975707 
L 760.00494 351.728676 
L 785.075175 351.387907 
L 810.14541 350.84789 
L 835.215645 350.043681 
L 860.28588 348.480573 
L 885.356115 344.753377 
L 910.42635 331.872404 
L 935.496585 309.320864 
L 960.56682 351.419725 
" clip-path="url(#pdf606f3cd8)" style="fill: none; stroke: #5cb85c; stroke-linecap: square"/>
   </g>
   <g id="line2d_18">
    <path d="M 358.88118 353.223868 
L 383.951415 353.223733 
L 409.02165 353.222611 
L 434.091885 353.219597 
L 459.16212 353.213541 
L 484.232355 353.206744 
L 509.30259 353.198722 
L 534.372825 353.18751 
L 559.44306 353.170229 
L 584.513295 353.145195 
L 609.58353 353.111633 
L 634.653765 353.077043 
L 659.724 353.035497 
L 684.794235 352.992829 
L 709.86447 352.929379 
L 734.934705 352.853349 
L 760.00494 352.752897 
L 785.075175 352.632725 
L 810.14541 352.456257 
L 835.215645 352.204023 
L 860.28588 351.72275 
L 885.356115 350.843132 
L 910.42635 347.898463 
L 935.496585 311.980629 
L 960.56682 342.093162 
" clip-path="url(#pdf606f3cd8)" style="fill: none; stroke: #5cb85c; stroke-linecap: square"/>
   </g>
   <g id="line2d_19">
    <path d="M 333.810945 353.223844 
L 358.88118 353.223413 
L 383.951415 353.221725 
L 409.02165 353.216463 
L 434.091885 353.204843 
L 459.16212 353.185169 
L 484.232355 353.159175 
L 509.30259 353.121723 
L 534.372825 353.072689 
L 559.44306 353.007454 
L 584.513295 352.943804 
L 609.58353 352.886729 
L 634.653765 352.842197 
L 659.724 352.777254 
L 684.794235 352.712631 
L 709.86447 352.627953 
L 734.934705 352.60668 
L 760.00494 352.512274 
L 785.075175 352.363683 
L 810.14541 352.104545 
L 835.215645 351.680578 
L 860.28588 350.765554 
L 885.356115 348.527067 
L 910.42635 340.001282 
L 935.496585 317.266412 
L 960.56682 351.564278 
" clip-path="url(#pdf606f3cd8)" style="fill: none; stroke: #5cb85c; stroke-linecap: square"/>
   </g>
   <g id="line2d_20">
    <path d="M 358.88118 353.223835 
L 383.951415 353.223075 
L 409.02165 353.215874 
L 434.091885 353.193594 
L 459.16212 353.161651 
L 484.232355 353.118329 
L 509.30259 353.051392 
L 534.372825 352.983082 
L 559.44306 352.905509 
L 584.513295 352.803485 
L 609.58353 352.642708 
L 634.653765 352.4091 
L 659.724 352.064089 
L 684.794235 351.610942 
L 709.86447 351.015404 
L 734.934705 350.366435 
L 760.00494 349.508449 
L 785.075175 348.519212 
L 810.14541 347.142764 
L 835.215645 345.426948 
L 860.28588 342.563929 
L 885.356115 337.474107 
L 910.42635 319.14976 
L 935.496585 176.453689 
L 960.56682 329.610705 
" clip-path="url(#pdf606f3cd8)" style="fill: none; stroke: #5cb85c; stroke-linecap: square"/>
   </g>
   <g id="line2d_21">
    <path d="M 308.74071 353.223895 
L 333.810945 353.223752 
L 358.88118 353.221201 
L 383.951415 353.205826 
L 409.02165 353.157264 
L 434.091885 353.07057 
L 459.16212 352.967934 
L 484.232355 352.872926 
L 509.30259 352.74545 
L 534.372825 352.555169 
L 559.44306 352.272773 
L 584.513295 351.944557 
L 609.58353 351.641573 
L 634.653765 351.44513 
L 659.724 351.245891 
L 684.794235 350.993416 
L 709.86447 350.60001 
L 734.934705 350.167502 
L 760.00494 349.358179 
L 785.075175 348.383451 
L 810.14541 347.023571 
L 835.215645 344.549691 
L 860.28588 339.124841 
L 885.356115 327.255691 
L 910.42635 287.555519 
L 935.496585 212.842308 
L 960.56682 346.637778 
" clip-path="url(#pdf606f3cd8)" style="fill: none; stroke: #5cb85c; stroke-linecap: square"/>
   </g>
   <g id="line2d_22">
    <path d="M 358.88118 353.223886 
L 383.951415 353.223376 
L 409.02165 353.219834 
L 434.091885 353.208455 
L 459.16212 353.187886 
L 484.232355 353.161104 
L 509.30259 353.116975 
L 534.372825 353.06336 
L 559.44306 352.992662 
L 584.513295 352.915408 
L 609.58353 352.809814 
L 634.653765 352.664399 
L 659.724 352.438465 
L 684.794235 352.144111 
L 709.86447 351.76226 
L 734.934705 351.34446 
L 760.00494 350.798962 
L 785.075175 350.175719 
L 810.14541 349.312868 
L 835.215645 348.14229 
L 860.28588 346.280892 
L 885.356115 343.425746 
L 910.42635 332.735348 
L 935.496585 239.757466 
L 960.56682 334.646967 
" clip-path="url(#pdf606f3cd8)" style="fill: none; stroke: #5cb85c; stroke-linecap: square"/>
   </g>
   <g id="line2d_23">
    <path d="M 333.810945 353.22383 
L 358.88118 353.222931 
L 383.951415 353.218136 
L 409.02165 353.200785 
L 434.091885 353.16626 
L 459.16212 353.118612 
L 484.232355 353.071205 
L 509.30259 353.001991 
L 534.372825 352.900371 
L 559.44306 352.74443 
L 584.513295 352.563984 
L 609.58353 352.394508 
L 634.653765 352.277457 
L 659.724 352.142224 
L 684.794235 351.9795 
L 709.86447 351.733313 
L 734.934705 351.449604 
L 760.00494 350.955598 
L 785.075175 350.311253 
L 810.14541 349.473056 
L 835.215645 347.94963 
L 860.28588 344.411987 
L 885.356115 336.50837 
L 910.42635 308.916464 
L 935.496585 260.10434 
L 960.56682 348.936771 
" clip-path="url(#pdf606f3cd8)" style="fill: none; stroke: #5cb85c; stroke-linecap: square"/>
   </g>
   <g id="line2d_24">
    <path d="M 358.88118 353.223891 
L 383.951415 353.223297 
L 409.02165 353.218498 
L 434.091885 353.201365 
L 459.16212 353.17354 
L 484.232355 353.141759 
L 509.30259 353.094806 
L 534.372825 353.04356 
L 559.44306 352.98228 
L 584.513295 352.910507 
L 609.58353 352.800619 
L 634.653765 352.633856 
L 659.724 352.345247 
L 684.794235 351.945354 
L 709.86447 351.403171 
L 734.934705 350.798123 
L 760.00494 350.023418 
L 785.075175 349.113684 
L 810.14541 347.816317 
L 835.215645 346.272402 
L 860.28588 343.903036 
L 885.356115 340.280966 
L 910.42635 326.569966 
L 935.496585 204.767588 
L 960.56682 330.468284 
" clip-path="url(#pdf606f3cd8)" style="fill: none; stroke: #5cb85c; stroke-linecap: square"/>
   </g>
   <g id="line2d_25">
    <path d="M 333.810945 353.223798 
L 358.88118 353.222416 
L 383.951415 353.213217 
L 409.02165 353.173391 
L 434.091885 353.079227 
L 459.16212 352.966102 
L 484.232355 352.895887 
L 509.30259 352.837255 
L 534.372825 352.717755 
L 559.44306 352.504109 
L 584.513295 352.2462 
L 609.58353 352.067089 
L 634.653765 352.024115 
L 659.724 351.956084 
L 684.794235 351.832406 
L 709.86447 351.596183 
L 734.934705 351.283741 
L 760.00494 350.663989 
L 785.075175 349.99951 
L 810.14541 349.174213 
L 835.215645 347.545884 
L 860.28588 343.740738 
L 885.356115 334.574703 
L 910.42635 298.081096 
L 935.496585 222.472123 
L 960.56682 346.488204 
" clip-path="url(#pdf606f3cd8)" style="fill: none; stroke: #5cb85c; stroke-linecap: square"/>
   </g>
   <g id="line2d_26">
    <path d="M 358.88118 353.223891 
L 383.951415 353.223357 
L 409.02165 353.219602 
L 434.091885 353.205724 
L 459.16212 353.181144 
L 484.232355 353.152762 
L 509.30259 353.114972 
L 534.372825 353.069114 
L 559.44306 353.014979 
L 584.513295 352.953351 
L 609.58353 352.858779 
L 634.653765 352.705833 
L 659.724 352.442592 
L 684.794235 352.074749 
L 709.86447 351.553655 
L 734.934705 350.939708 
L 760.00494 350.114049 
L 785.075175 349.125916 
L 810.14541 347.776603 
L 835.215645 346.13378 
L 860.28588 343.639132 
L 885.356115 339.733098 
L 910.42635 324.721718 
L 935.496585 197.934143 
L 960.56682 333.048871 
" clip-path="url(#pdf606f3cd8)" style="fill: none; stroke: #5cb85c; stroke-linecap: square"/>
   </g>
   <g id="line2d_27">
    <path d="M 333.810945 353.223849 
L 358.88118 353.222625 
L 383.951415 353.213731 
L 409.02165 353.179503 
L 434.091885 353.118691 
L 459.16212 353.058157 
L 484.232355 353.011896 
L 509.30259 352.955906 
L 534.372825 352.85646 
L 559.44306 352.679538 
L 584.513295 352.44728 
L 609.58353 352.250109 
L 634.653765 352.163405 
L 659.724 352.066649 
L 684.794235 351.912386 
L 709.86447 351.656592 
L 734.934705 351.338237 
L 760.00494 350.728084 
L 785.075175 349.97334 
L 810.14541 349.026549 
L 835.215645 347.270778 
L 860.28588 343.203962 
L 885.356115 333.126686 
L 910.42635 293.820346 
L 935.496585 220.558329 
L 960.56682 347.322334 
" clip-path="url(#pdf606f3cd8)" style="fill: none; stroke: #5cb85c; stroke-linecap: square"/>
   </g>
   <g id="line2d_28">
    <path d="M 358.88118 353.223891 
L 383.951415 353.223631 
L 409.02165 353.220752 
L 434.091885 353.20922 
L 459.16212 353.193329 
L 484.232355 353.176187 
L 509.30259 353.150221 
L 534.372825 353.120661 
L 559.44306 353.074098 
L 584.513295 353.010797 
L 609.58353 352.913312 
L 634.653765 352.768259 
L 659.724 352.529593 
L 684.794235 352.199155 
L 709.86447 351.75416 
L 734.934705 351.247263 
L 760.00494 350.585613 
L 785.075175 349.794656 
L 810.14541 348.715113 
L 835.215645 347.383749 
L 860.28588 345.25068 
L 885.356115 342.037998 
L 910.42635 329.725272 
L 935.496585 224.000027 
L 960.56682 335.335437 
" clip-path="url(#pdf606f3cd8)" style="fill: none; stroke: #5cb85c; stroke-linecap: square"/>
   </g>
   <g id="line2d_29">
    <path d="M 308.74071 353.223895 
L 333.810945 353.22383 
L 358.88118 353.222727 
L 383.951415 353.213347 
L 409.02165 353.176308 
L 434.091885 353.103565 
L 459.16212 353.0345 
L 484.232355 352.992022 
L 509.30259 352.941717 
L 534.372825 352.858255 
L 559.44306 352.707744 
L 584.513295 352.523778 
L 609.58353 352.37406 
L 634.653765 352.333812 
L 659.724 352.264186 
L 684.794235 352.140244 
L 709.86447 351.923436 
L 734.934705 351.63696 
L 760.00494 351.088967 
L 785.075175 350.463122 
L 810.14541 349.651717 
L 835.215645 348.145049 
L 860.28588 344.62809 
L 885.356115 336.138779 
L 910.42635 303.537565 
L 935.496585 243.566387 
L 960.56682 348.176811 
" clip-path="url(#pdf606f3cd8)" style="fill: none; stroke: #5cb85c; stroke-linecap: square"/>
   </g>
   <g id="line2d_30">
    <path d="M 409.02165 353.223877 
L 434.091885 353.223789 
L 459.16212 353.223427 
L 484.232355 353.222004 
L 509.30259 353.217983 
L 534.372825 353.210105 
L 559.44306 353.19958 
L 584.513295 353.184747 
L 609.58353 353.151881 
L 634.653765 353.098864 
L 659.724 353.006841 
L 684.794235 352.866425 
L 709.86447 352.644284 
L 734.934705 352.354553 
L 760.00494 351.974867 
L 785.075175 351.533475 
L 810.14541 350.933648 
L 835.215645 350.135902 
L 860.28588 348.741269 
L 885.356115 345.825951 
L 910.42635 335.147762 
L 935.496585 219.282412 
L 960.56682 320.63757 
" clip-path="url(#pdf606f3cd8)" style="fill: none; stroke: #5cb85c; stroke-linecap: square"/>
   </g>
   <g id="line2d_31">
    <path d="M 333.810945 353.223895 
L 358.88118 353.223858 
L 383.951415 353.223557 
L 409.02165 353.222439 
L 434.091885 353.219894 
L 459.16212 353.21675 
L 484.232355 353.212447 
L 509.30259 353.206136 
L 534.372825 353.194915 
L 559.44306 353.172853 
L 584.513295 353.139199 
L 609.58353 353.091853 
L 634.653765 353.024721 
L 659.724 352.941101 
L 684.794235 352.841344 
L 709.86447 352.702713 
L 734.934705 352.517203 
L 760.00494 352.241915 
L 785.075175 351.85815 
L 810.14541 351.221065 
L 835.215645 350.171995 
L 860.28588 347.918035 
L 885.356115 342.159923 
L 910.42635 317.412388 
L 935.496585 218.682107 
L 960.56682 342.672458 
" clip-path="url(#pdf606f3cd8)" style="fill: none; stroke: #5cb85c; stroke-linecap: square"/>
   </g>
   <g id="line2d_32">
    <path d="M 383.951415 353.223895 
L 409.02165 353.22383 
L 434.091885 353.223668 
L 459.16212 353.223116 
L 484.232355 353.221322 
L 509.30259 353.215572 
L 534.372825 353.205246 
L 559.44306 353.191493 
L 584.513295 353.166232 
L 609.58353 353.120365 
L 634.653765 353.047497 
L 659.724 352.921065 
L 684.794235 352.725892 
L 709.86447 352.419788 
L 734.934705 352.012579 
L 760.00494 351.454417 
L 785.075175 350.790523 
L 810.14541 349.900143 
L 835.215645 348.739247 
L 860.28588 346.758113 
L 885.356115 342.762334 
L 910.42635 328.200233 
L 935.496585 150.539702 
L 960.56682 291.621101 
" clip-path="url(#pdf606f3cd8)" style="fill: none; stroke: #5cb85c; stroke-linecap: square"/>
   </g>
   <g id="line2d_33">
    <path d="M 358.88118 353.223779 
L 383.951415 353.222574 
L 409.02165 353.220362 
L 434.091885 353.216699 
L 459.16212 353.211742 
L 484.232355 353.205413 
L 509.30259 353.195147 
L 534.372825 353.174379 
L 559.44306 353.134363 
L 584.513295 353.076667 
L 609.58353 352.993098 
L 634.653765 352.887369 
L 659.724 352.759175 
L 684.794235 352.605326 
L 709.86447 352.384817 
L 734.934705 352.092327 
L 760.00494 351.644416 
L 785.075175 351.024812 
L 810.14541 349.990506 
L 835.215645 348.289249 
L 860.28588 344.871797 
L 885.356115 336.567972 
L 910.42635 302.603242 
L 935.496585 148.755544 
L 960.56682 327.780499 
" clip-path="url(#pdf606f3cd8)" style="fill: none; stroke: #5cb85c; stroke-linecap: square"/>
   </g>
   <g id="line2d_34">
    <path d="M 383.951415 353.223891 
L 409.02165 353.223877 
L 434.091885 353.223761 
L 459.16212 353.223626 
L 484.232355 353.222676 
L 509.30259 353.219773 
L 534.372825 353.213954 
L 559.44306 353.205371 
L 584.513295 353.191827 
L 609.58353 353.165833 
L 634.653765 353.123235 
L 659.724 353.041316 
L 684.794235 352.914982 
L 709.86447 352.70313 
L 734.934705 352.430379 
L 760.00494 352.063393 
L 785.075175 351.642626 
L 810.14541 351.082169 
L 835.215645 350.329132 
L 860.28588 349.008586 
L 885.356115 346.29349 
L 910.42635 336.304128 
L 935.496585 201.50494 
L 960.56682 303.894512 
" clip-path="url(#pdf606f3cd8)" style="fill: none; stroke: #5cb85c; stroke-linecap: square"/>
   </g>
   <g id="line2d_35">
    <path d="M 333.810945 353.223895 
L 358.88118 353.223877 
L 383.951415 353.223422 
L 409.02165 353.221721 
L 434.091885 353.218874 
L 459.16212 353.215461 
L 484.232355 353.211872 
L 509.30259 353.206943 
L 534.372825 353.197646 
L 559.44306 353.181455 
L 584.513295 353.158238 
L 609.58353 353.121853 
L 634.653765 353.068989 
L 659.724 353.001797 
L 684.794235 352.924339 
L 709.86447 352.808752 
L 734.934705 352.656405 
L 760.00494 352.416028 
L 785.075175 352.082219 
L 810.14541 351.552602 
L 835.215645 350.61585 
L 860.28588 348.68183 
L 885.356115 343.855082 
L 910.42635 321.385586 
L 935.496585 186.278189 
L 960.56682 335.165484 
" clip-path="url(#pdf606f3cd8)" style="fill: none; stroke: #5cb85c; stroke-linecap: square"/>
   </g>
   <g id="line2d_36">
    <path d="M 383.951415 353.223895 
L 409.02165 353.223854 
L 434.091885 353.223696 
L 459.16212 353.223014 
L 484.232355 353.220673 
L 509.30259 353.213829 
L 534.372825 353.199826 
L 559.44306 353.179289 
L 584.513295 353.149029 
L 609.58353 353.089664 
L 634.653765 352.993376 
L 659.724 352.823404 
L 684.794235 352.554497 
L 709.86447 352.162445 
L 734.934705 351.653244 
L 760.00494 350.998433 
L 785.075175 350.245517 
L 810.14541 349.233536 
L 835.215645 347.882679 
L 860.28588 345.530869 
L 885.356115 340.659028 
L 910.42635 322.803218 
L 935.496585 111.481924 
L 960.56682 283.621479 
" clip-path="url(#pdf606f3cd8)" style="fill: none; stroke: #5cb85c; stroke-linecap: square"/>
   </g>
   <g id="line2d_37">
    <path d="M 333.810945 353.223891 
L 358.88118 353.223807 
L 383.951415 353.22314 
L 409.02165 353.220812 
L 434.091885 353.215841 
L 459.16212 353.209915 
L 484.232355 353.201824 
L 509.30259 353.190547 
L 534.372825 353.166923 
L 559.44306 353.125159 
L 584.513295 353.06156 
L 609.58353 352.960362 
L 634.653765 352.828417 
L 659.724 352.664019 
L 684.794235 352.488872 
L 709.86447 352.221931 
L 734.934705 351.882066 
L 760.00494 351.41359 
L 785.075175 350.801791 
L 810.14541 349.787928 
L 835.215645 348.091345 
L 860.28588 344.514368 
L 885.356115 335.585255 
L 910.42635 295.204069 
L 935.496585 97.06234 
L 960.56682 330.468447 
" clip-path="url(#pdf606f3cd8)" style="fill: none; stroke: #5cb85c; stroke-linecap: square"/>
   </g>
   <g id="line2d_38">
    <path d="M 383.951415 353.223895 
L 409.02165 353.223849 
L 434.091885 353.223691 
L 459.16212 353.222857 
L 484.232355 353.220186 
L 509.30259 353.214599 
L 534.372825 353.202956 
L 559.44306 353.187408 
L 584.513295 353.160056 
L 609.58353 353.109644 
L 634.653765 353.025927 
L 659.724 352.874344 
L 684.794235 352.626627 
L 709.86447 352.229776 
L 734.934705 351.683082 
L 760.00494 350.929989 
L 785.075175 349.986124 
L 810.14541 348.687621 
L 835.215645 346.976882 
L 860.28588 344.08173 
L 885.356115 338.374878 
L 910.42635 317.771254 
L 935.496585 54.187523 
L 960.56682 263.362709 
" clip-path="url(#pdf606f3cd8)" style="fill: none; stroke: #5cb85c; stroke-linecap: square"/>
   </g>
   <g id="line2d_39">
    <path d="M 333.810945 353.223872 
L 358.88118 353.223223 
L 383.951415 353.220784 
L 409.02165 353.215531 
L 434.091885 353.208404 
L 459.16212 353.201365 
L 484.232355 353.194428 
L 509.30259 353.183221 
L 534.372825 353.163487 
L 559.44306 353.124561 
L 584.513295 353.066411 
L 609.58353 352.9713 
L 634.653765 352.83355 
L 659.724 352.653479 
L 684.794235 352.454509 
L 709.86447 352.151558 
L 734.934705 351.752681 
L 760.00494 351.13974 
L 785.075175 350.267708 
L 810.14541 348.871146 
L 835.215645 346.560728 
L 860.28588 341.760601 
L 885.356115 329.743439 
L 910.42635 279.954519 
L 935.496585 50.397233 
L 960.56682 316.697929 
" clip-path="url(#pdf606f3cd8)" style="fill: none; stroke: #5cb85c; stroke-linecap: square"/>
   </g>
   <g id="line2d_40">
    <path d="M 32.968125 353.2239 
L 993.158125 353.2239 
" clip-path="url(#pdf606f3cd8)" style="fill: none; stroke: #dedede; stroke-width: 2; stroke-linecap: square"/>
   </g>
   <g id="text_19">
    <!-- FastQC: Per Sequence Quality Scores -->
    <g transform="translate(364.870625 19.3575) scale(0.16 -0.16)">
     <defs>
      <path id="DejaVuSans-46" d="M 628 4666 
L 3309 4666 
L 3309 4134 
L 1259 4134 
L 1259 2759 
L 3109 2759 
L 3109 2228 
L 1259 2228 
L 1259 0 
L 628 0 
L 628 4666 
z
" transform="scale(0.015625)"/>
      <path id="DejaVuSans-73" d="M 2834 3397 
L 2834 2853 
Q 2591 2978 2328 3040 
Q 2066 3103 1784 3103 
Q 1356 3103 1142 2972 
Q 928 2841 928 2578 
Q 928 2378 1081 2264 
Q 1234 2150 1697 2047 
L 1894 2003 
Q 2506 1872 2764 1633 
Q 3022 1394 3022 966 
Q 3022 478 2636 193 
Q 2250 -91 1575 -91 
Q 1294 -91 989 -36 
Q 684 19 347 128 
L 347 722 
Q 666 556 975 473 
Q 1284 391 1588 391 
Q 1994 391 2212 530 
Q 2431 669 2431 922 
Q 2431 1156 2273 1281 
Q 2116 1406 1581 1522 
L 1381 1569 
Q 847 1681 609 1914 
Q 372 2147 372 2553 
Q 372 3047 722 3315 
Q 1072 3584 1716 3584 
Q 2034 3584 2315 3537 
Q 2597 3491 2834 3397 
z
" transform="scale(0.015625)"/>
      <path id="DejaVuSans-3a" d="M 750 794 
L 1409 794 
L 1409 0 
L 750 0 
L 750 794 
z
M 750 3309 
L 1409 3309 
L 1409 2516 
L 750 2516 
L 750 3309 
z
" transform="scale(0.015625)"/>
     </defs>
     <use xlink:href="#DejaVuSans-46"/>
     <use xlink:href="#DejaVuSans-61" x="48.394531"/>
     <use xlink:href="#DejaVuSans-73" x="109.673828"/>
     <use xlink:href="#DejaVuSans-74" x="161.773438"/>
     <use xlink:href="#DejaVuSans-51" x="200.982422"/>
     <use xlink:href="#DejaVuSans-43" x="279.693359"/>
     <use xlink:href="#DejaVuSans-3a" x="349.517578"/>
     <use xlink:href="#DejaVuSans-20" x="383.208984"/>
     <use xlink:href="#DejaVuSans-50" x="414.996094"/>
     <use xlink:href="#DejaVuSans-65" x="471.673828"/>
     <use xlink:href="#DejaVuSans-72" x="533.197266"/>
     <use xlink:href="#DejaVuSans-20" x="574.310547"/>
     <use xlink:href="#DejaVuSans-53" x="606.097656"/>
     <use xlink:href="#DejaVuSans-65" x="669.574219"/>
     <use xlink:href="#DejaVuSans-71" x="731.097656"/>
     <use xlink:href="#DejaVuSans-75" x="794.574219"/>
     <use xlink:href="#DejaVuSans-65" x="857.953125"/>
     <use xlink:href="#DejaVuSans-6e" x="919.476562"/>
     <use xlink:href="#DejaVuSans-63" x="982.855469"/>
     <use xlink:href="#DejaVuSans-65" x="1037.835938"/>
     <use xlink:href="#DejaVuSans-20" x="1099.359375"/>
     <use xlink:href="#DejaVuSans-51" x="1131.146484"/>
     <use xlink:href="#DejaVuSans-75" x="1209.857422"/>
     <use xlink:href="#DejaVuSans-61" x="1273.236328"/>
     <use xlink:href="#DejaVuSans-6c" x="1334.515625"/>
     <use xlink:href="#DejaVuSans-69" x="1362.298828"/>
     <use xlink:href="#DejaVuSans-74" x="1390.082031"/>
     <use xlink:href="#DejaVuSans-79" x="1429.291016"/>
     <use xlink:href="#DejaVuSans-20" x="1488.470703"/>
     <use xlink:href="#DejaVuSans-53" x="1520.257812"/>
     <use xlink:href="#DejaVuSans-63" x="1583.734375"/>
     <use xlink:href="#DejaVuSans-6f" x="1638.714844"/>
     <use xlink:href="#DejaVuSans-72" x="1699.896484"/>
     <use xlink:href="#DejaVuSans-65" x="1738.759766"/>
     <use xlink:href="#DejaVuSans-73" x="1800.283203"/>
    </g>
   </g>
  </g>
 </g>
 <defs>
  <clipPath id="pdf606f3cd8">
   <rect x="32.968125" y="35.2559" width="960.19" height="317.968"/>
  </clipPath>
 </defs>
</svg>
