<?xml version="1.0" encoding="utf-8" standalone="no"?>
<!DOCTYPE svg PUBLIC "-//W3C//DTD SVG 1.1//EN"
  "http://www.w3.org/Graphics/SVG/1.1/DTD/svg11.dtd">
<svg xmlns:xlink="http://www.w3.org/1999/xlink" width="1000.358125pt" height="388.844525pt" viewBox="0 0 1000.358125 388.844525" xmlns="http://www.w3.org/2000/svg" version="1.1">
 <metadata>
  <rdf:RDF xmlns:dc="http://purl.org/dc/elements/1.1/" xmlns:cc="http://creativecommons.org/ns#" xmlns:rdf="http://www.w3.org/1999/02/22-rdf-syntax-ns#">
   <cc:Work>
    <dc:type rdf:resource="http://purl.org/dc/dcmitype/StillImage"/>
    <dc:date>2024-09-01T20:21:43.979159</dc:date>
    <dc:format>image/svg+xml</dc:format>
    <dc:creator>
     <cc:Agent>
      <dc:title>Matplotlib v3.8.2, https://matplotlib.org/</dc:title>
     </cc:Agent>
    </dc:creator>
   </cc:Work>
  </rdf:RDF>
 </metadata>
 <defs>
  <style type="text/css">*{stroke-linejoin: round; stroke-linecap: butt}</style>
 </defs>
 <g id="figure_1">
  <g id="axes_1">
   <g id="patch_1">
    <path d="M 32.968125 353.2239 
L 993.158125 353.2239 
L 993.158125 35.2559 
L 32.968125 35.2559 
z
" style="fill: #ffffff"/>
   </g>
   <g id="matplotlib.axis_1">
    <g id="xtick_1">
     <g id="text_1">
      <!-- 0 -->
      <g transform="translate(68.248792 366.30265) scale(0.08 -0.08)">
       <defs>
        <path id="DejaVuSans-30" d="M 2034 4250 
Q 1547 4250 1301 3770 
Q 1056 3291 1056 2328 
Q 1056 1369 1301 889 
Q 1547 409 2034 409 
Q 2525 409 2770 889 
Q 3016 1369 3016 2328 
Q 3016 3291 2770 3770 
Q 2525 4250 2034 4250 
z
M 2034 4750 
Q 2819 4750 3233 4129 
Q 3647 3509 3647 2328 
Q 3647 1150 3233 529 
Q 2819 -91 2034 -91 
Q 1250 -91 836 529 
Q 422 1150 422 2328 
Q 422 3509 836 4129 
Q 1250 4750 2034 4750 
z
" transform="scale(0.015625)"/>
       </defs>
       <use xlink:href="#DejaVuSans-30"/>
      </g>
     </g>
    </g>
    <g id="xtick_2">
     <g id="text_2">
      <!-- 20 -->
      <g transform="translate(182.090458 366.30265) scale(0.08 -0.08)">
       <defs>
        <path id="DejaVuSans-32" d="M 1228 531 
L 3431 531 
L 3431 0 
L 469 0 
L 469 531 
Q 828 903 1448 1529 
Q 2069 2156 2228 2338 
Q 2531 2678 2651 2914 
Q 2772 3150 2772 3378 
Q 2772 3750 2511 3984 
Q 2250 4219 1831 4219 
Q 1534 4219 1204 4116 
Q 875 4013 500 3803 
L 500 4441 
Q 881 4594 1212 4672 
Q 1544 4750 1819 4750 
Q 2544 4750 2975 4387 
Q 3406 4025 3406 3419 
Q 3406 3131 3298 2873 
Q 3191 2616 2906 2266 
Q 2828 2175 2409 1742 
Q 1991 1309 1228 531 
z
" transform="scale(0.015625)"/>
       </defs>
       <use xlink:href="#DejaVuSans-32"/>
       <use xlink:href="#DejaVuSans-30" x="63.623047"/>
      </g>
     </g>
    </g>
    <g id="xtick_3">
     <g id="text_3">
      <!-- 40 -->
      <g transform="translate(298.477125 366.30265) scale(0.08 -0.08)">
       <defs>
        <path id="DejaVuSans-34" d="M 2419 4116 
L 825 1625 
L 2419 1625 
L 2419 4116 
z
M 2253 4666 
L 3047 4666 
L 3047 1625 
L 3713 1625 
L 3713 1100 
L 3047 1100 
L 3047 0 
L 2419 0 
L 2419 1100 
L 313 1100 
L 313 1709 
L 2253 4666 
z
" transform="scale(0.015625)"/>
       </defs>
       <use xlink:href="#DejaVuSans-34"/>
       <use xlink:href="#DejaVuSans-30" x="63.623047"/>
      </g>
     </g>
    </g>
    <g id="xtick_4">
     <g id="text_4">
      <!-- 60 -->
      <g transform="translate(414.863792 366.30265) scale(0.08 -0.08)">
       <defs>
        <path id="DejaVuSans-36" d="M 2113 2584 
Q 1688 2584 1439 2293 
Q 1191 2003 1191 1497 
Q 1191 994 1439 701 
Q 1688 409 2113 409 
Q 2538 409 2786 701 
Q 3034 994 3034 1497 
Q 3034 2003 2786 2293 
Q 2538 2584 2113 2584 
z
M 3366 4563 
L 3366 3988 
Q 3128 4100 2886 4159 
Q 2644 4219 2406 4219 
Q 1781 4219 1451 3797 
Q 1122 3375 1075 2522 
Q 1259 2794 1537 2939 
Q 1816 3084 2150 3084 
Q 2853 3084 3261 2657 
Q 3669 2231 3669 1497 
Q 3669 778 3244 343 
Q 2819 -91 2113 -91 
Q 1303 -91 875 529 
Q 447 1150 447 2328 
Q 447 3434 972 4092 
Q 1497 4750 2381 4750 
Q 2619 4750 2861 4703 
Q 3103 4656 3366 4563 
z
" transform="scale(0.015625)"/>
       </defs>
       <use xlink:href="#DejaVuSans-36"/>
       <use xlink:href="#DejaVuSans-30" x="63.623047"/>
      </g>
     </g>
    </g>
    <g id="xtick_5">
     <g id="text_5">
      <!-- 80 -->
      <g transform="translate(531.250458 366.30265) scale(0.08 -0.08)">
       <defs>
        <path id="DejaVuSans-38" d="M 2034 2216 
Q 1584 2216 1326 1975 
Q 1069 1734 1069 1313 
Q 1069 891 1326 650 
Q 1584 409 2034 409 
Q 2484 409 2743 651 
Q 3003 894 3003 1313 
Q 3003 1734 2745 1975 
Q 2488 2216 2034 2216 
z
M 1403 2484 
Q 997 2584 770 2862 
Q 544 3141 544 3541 
Q 544 4100 942 4425 
Q 1341 4750 2034 4750 
Q 2731 4750 3128 4425 
Q 3525 4100 3525 3541 
Q 3525 3141 3298 2862 
Q 3072 2584 2669 2484 
Q 3125 2378 3379 2068 
Q 3634 1759 3634 1313 
Q 3634 634 3220 271 
Q 2806 -91 2034 -91 
Q 1263 -91 848 271 
Q 434 634 434 1313 
Q 434 1759 690 2068 
Q 947 2378 1403 2484 
z
M 1172 3481 
Q 1172 3119 1398 2916 
Q 1625 2713 2034 2713 
Q 2441 2713 2670 2916 
Q 2900 3119 2900 3481 
Q 2900 3844 2670 4047 
Q 2441 4250 2034 4250 
Q 1625 4250 1398 4047 
Q 1172 3844 1172 3481 
z
" transform="scale(0.015625)"/>
       </defs>
       <use xlink:href="#DejaVuSans-38"/>
       <use xlink:href="#DejaVuSans-30" x="63.623047"/>
      </g>
     </g>
    </g>
    <g id="xtick_6">
     <g id="text_6">
      <!-- 100 -->
      <g transform="translate(645.092125 366.30265) scale(0.08 -0.08)">
       <defs>
        <path id="DejaVuSans-31" d="M 794 531 
L 1825 531 
L 1825 4091 
L 703 3866 
L 703 4441 
L 1819 4666 
L 2450 4666 
L 2450 531 
L 3481 531 
L 3481 0 
L 794 0 
L 794 531 
z
" transform="scale(0.015625)"/>
       </defs>
       <use xlink:href="#DejaVuSans-31"/>
       <use xlink:href="#DejaVuSans-30" x="63.623047"/>
       <use xlink:href="#DejaVuSans-30" x="127.246094"/>
      </g>
     </g>
    </g>
    <g id="xtick_7">
     <g id="text_7">
      <!-- 120 -->
      <g transform="translate(761.478792 366.30265) scale(0.08 -0.08)">
       <use xlink:href="#DejaVuSans-31"/>
       <use xlink:href="#DejaVuSans-32" x="63.623047"/>
       <use xlink:href="#DejaVuSans-30" x="127.246094"/>
      </g>
     </g>
    </g>
    <g id="xtick_8">
     <g id="text_8">
      <!-- 140 -->
      <g transform="translate(877.865458 366.30265) scale(0.08 -0.08)">
       <use xlink:href="#DejaVuSans-31"/>
       <use xlink:href="#DejaVuSans-34" x="63.623047"/>
       <use xlink:href="#DejaVuSans-30" x="127.246094"/>
      </g>
     </g>
    </g>
    <g id="text_9">
     <!-- Length Trimmed (bp) -->
     <g transform="translate(460.635781 379.564837) scale(0.1 -0.1)">
      <defs>
       <path id="DejaVuSans-4c" d="M 628 4666 
L 1259 4666 
L 1259 531 
L 3531 531 
L 3531 0 
L 628 0 
L 628 4666 
z
" transform="scale(0.015625)"/>
       <path id="DejaVuSans-65" d="M 3597 1894 
L 3597 1613 
L 953 1613 
Q 991 1019 1311 708 
Q 1631 397 2203 397 
Q 2534 397 2845 478 
Q 3156 559 3463 722 
L 3463 178 
Q 3153 47 2828 -22 
Q 2503 -91 2169 -91 
Q 1331 -91 842 396 
Q 353 884 353 1716 
Q 353 2575 817 3079 
Q 1281 3584 2069 3584 
Q 2775 3584 3186 3129 
Q 3597 2675 3597 1894 
z
M 3022 2063 
Q 3016 2534 2758 2815 
Q 2500 3097 2075 3097 
Q 1594 3097 1305 2825 
Q 1016 2553 972 2059 
L 3022 2063 
z
" transform="scale(0.015625)"/>
       <path id="DejaVuSans-6e" d="M 3513 2113 
L 3513 0 
L 2938 0 
L 2938 2094 
Q 2938 2591 2744 2837 
Q 2550 3084 2163 3084 
Q 1697 3084 1428 2787 
Q 1159 2491 1159 1978 
L 1159 0 
L 581 0 
L 581 3500 
L 1159 3500 
L 1159 2956 
Q 1366 3272 1645 3428 
Q 1925 3584 2291 3584 
Q 2894 3584 3203 3211 
Q 3513 2838 3513 2113 
z
" transform="scale(0.015625)"/>
       <path id="DejaVuSans-67" d="M 2906 1791 
Q 2906 2416 2648 2759 
Q 2391 3103 1925 3103 
Q 1463 3103 1205 2759 
Q 947 2416 947 1791 
Q 947 1169 1205 825 
Q 1463 481 1925 481 
Q 2391 481 2648 825 
Q 2906 1169 2906 1791 
z
M 3481 434 
Q 3481 -459 3084 -895 
Q 2688 -1331 1869 -1331 
Q 1566 -1331 1297 -1286 
Q 1028 -1241 775 -1147 
L 775 -588 
Q 1028 -725 1275 -790 
Q 1522 -856 1778 -856 
Q 2344 -856 2625 -561 
Q 2906 -266 2906 331 
L 2906 616 
Q 2728 306 2450 153 
Q 2172 0 1784 0 
Q 1141 0 747 490 
Q 353 981 353 1791 
Q 353 2603 747 3093 
Q 1141 3584 1784 3584 
Q 2172 3584 2450 3431 
Q 2728 3278 2906 2969 
L 2906 3500 
L 3481 3500 
L 3481 434 
z
" transform="scale(0.015625)"/>
       <path id="DejaVuSans-74" d="M 1172 4494 
L 1172 3500 
L 2356 3500 
L 2356 3053 
L 1172 3053 
L 1172 1153 
Q 1172 725 1289 603 
Q 1406 481 1766 481 
L 2356 481 
L 2356 0 
L 1766 0 
Q 1100 0 847 248 
Q 594 497 594 1153 
L 594 3053 
L 172 3053 
L 172 3500 
L 594 3500 
L 594 4494 
L 1172 4494 
z
" transform="scale(0.015625)"/>
       <path id="DejaVuSans-68" d="M 3513 2113 
L 3513 0 
L 2938 0 
L 2938 2094 
Q 2938 2591 2744 2837 
Q 2550 3084 2163 3084 
Q 1697 3084 1428 2787 
Q 1159 2491 1159 1978 
L 1159 0 
L 581 0 
L 581 4863 
L 1159 4863 
L 1159 2956 
Q 1366 3272 1645 3428 
Q 1925 3584 2291 3584 
Q 2894 3584 3203 3211 
Q 3513 2838 3513 2113 
z
" transform="scale(0.015625)"/>
       <path id="DejaVuSans-20" transform="scale(0.015625)"/>
       <path id="DejaVuSans-54" d="M -19 4666 
L 3928 4666 
L 3928 4134 
L 2272 4134 
L 2272 0 
L 1638 0 
L 1638 4134 
L -19 4134 
L -19 4666 
z
" transform="scale(0.015625)"/>
       <path id="DejaVuSans-72" d="M 2631 2963 
Q 2534 3019 2420 3045 
Q 2306 3072 2169 3072 
Q 1681 3072 1420 2755 
Q 1159 2438 1159 1844 
L 1159 0 
L 581 0 
L 581 3500 
L 1159 3500 
L 1159 2956 
Q 1341 3275 1631 3429 
Q 1922 3584 2338 3584 
Q 2397 3584 2469 3576 
Q 2541 3569 2628 3553 
L 2631 2963 
z
" transform="scale(0.015625)"/>
       <path id="DejaVuSans-69" d="M 603 3500 
L 1178 3500 
L 1178 0 
L 603 0 
L 603 3500 
z
M 603 4863 
L 1178 4863 
L 1178 4134 
L 603 4134 
L 603 4863 
z
" transform="scale(0.015625)"/>
       <path id="DejaVuSans-6d" d="M 3328 2828 
Q 3544 3216 3844 3400 
Q 4144 3584 4550 3584 
Q 5097 3584 5394 3201 
Q 5691 2819 5691 2113 
L 5691 0 
L 5113 0 
L 5113 2094 
Q 5113 2597 4934 2840 
Q 4756 3084 4391 3084 
Q 3944 3084 3684 2787 
Q 3425 2491 3425 1978 
L 3425 0 
L 2847 0 
L 2847 2094 
Q 2847 2600 2669 2842 
Q 2491 3084 2119 3084 
Q 1678 3084 1418 2786 
Q 1159 2488 1159 1978 
L 1159 0 
L 581 0 
L 581 3500 
L 1159 3500 
L 1159 2956 
Q 1356 3278 1631 3431 
Q 1906 3584 2284 3584 
Q 2666 3584 2933 3390 
Q 3200 3197 3328 2828 
z
" transform="scale(0.015625)"/>
       <path id="DejaVuSans-64" d="M 2906 2969 
L 2906 4863 
L 3481 4863 
L 3481 0 
L 2906 0 
L 2906 525 
Q 2725 213 2448 61 
Q 2172 -91 1784 -91 
Q 1150 -91 751 415 
Q 353 922 353 1747 
Q 353 2572 751 3078 
Q 1150 3584 1784 3584 
Q 2172 3584 2448 3432 
Q 2725 3281 2906 2969 
z
M 947 1747 
Q 947 1113 1208 752 
Q 1469 391 1925 391 
Q 2381 391 2643 752 
Q 2906 1113 2906 1747 
Q 2906 2381 2643 2742 
Q 2381 3103 1925 3103 
Q 1469 3103 1208 2742 
Q 947 2381 947 1747 
z
" transform="scale(0.015625)"/>
       <path id="DejaVuSans-28" d="M 1984 4856 
Q 1566 4138 1362 3434 
Q 1159 2731 1159 2009 
Q 1159 1288 1364 580 
Q 1569 -128 1984 -844 
L 1484 -844 
Q 1016 -109 783 600 
Q 550 1309 550 2009 
Q 550 2706 781 3412 
Q 1013 4119 1484 4856 
L 1984 4856 
z
" transform="scale(0.015625)"/>
       <path id="DejaVuSans-62" d="M 3116 1747 
Q 3116 2381 2855 2742 
Q 2594 3103 2138 3103 
Q 1681 3103 1420 2742 
Q 1159 2381 1159 1747 
Q 1159 1113 1420 752 
Q 1681 391 2138 391 
Q 2594 391 2855 752 
Q 3116 1113 3116 1747 
z
M 1159 2969 
Q 1341 3281 1617 3432 
Q 1894 3584 2278 3584 
Q 2916 3584 3314 3078 
Q 3713 2572 3713 1747 
Q 3713 922 3314 415 
Q 2916 -91 2278 -91 
Q 1894 -91 1617 61 
Q 1341 213 1159 525 
L 1159 0 
L 581 0 
L 581 4863 
L 1159 4863 
L 1159 2969 
z
" transform="scale(0.015625)"/>
       <path id="DejaVuSans-70" d="M 1159 525 
L 1159 -1331 
L 581 -1331 
L 581 3500 
L 1159 3500 
L 1159 2969 
Q 1341 3281 1617 3432 
Q 1894 3584 2278 3584 
Q 2916 3584 3314 3078 
Q 3713 2572 3713 1747 
Q 3713 922 3314 415 
Q 2916 -91 2278 -91 
Q 1894 -91 1617 61 
Q 1341 213 1159 525 
z
M 3116 1747 
Q 3116 2381 2855 2742 
Q 2594 3103 2138 3103 
Q 1681 3103 1420 2742 
Q 1159 2381 1159 1747 
Q 1159 1113 1420 752 
Q 1681 391 2138 391 
Q 2594 391 2855 752 
Q 3116 1113 3116 1747 
z
" transform="scale(0.015625)"/>
       <path id="DejaVuSans-29" d="M 513 4856 
L 1013 4856 
Q 1481 4119 1714 3412 
Q 1947 2706 1947 2009 
Q 1947 1309 1714 600 
Q 1481 -109 1013 -844 
L 513 -844 
Q 928 -128 1133 580 
Q 1338 1288 1338 2009 
Q 1338 2731 1133 3434 
Q 928 4138 513 4856 
z
" transform="scale(0.015625)"/>
      </defs>
      <use xlink:href="#DejaVuSans-4c"/>
      <use xlink:href="#DejaVuSans-65" x="53.962891"/>
      <use xlink:href="#DejaVuSans-6e" x="115.486328"/>
      <use xlink:href="#DejaVuSans-67" x="178.865234"/>
      <use xlink:href="#DejaVuSans-74" x="242.341797"/>
      <use xlink:href="#DejaVuSans-68" x="281.550781"/>
      <use xlink:href="#DejaVuSans-20" x="344.929688"/>
      <use xlink:href="#DejaVuSans-54" x="376.716797"/>
      <use xlink:href="#DejaVuSans-72" x="423.050781"/>
      <use xlink:href="#DejaVuSans-69" x="464.164062"/>
      <use xlink:href="#DejaVuSans-6d" x="491.947266"/>
      <use xlink:href="#DejaVuSans-6d" x="589.359375"/>
      <use xlink:href="#DejaVuSans-65" x="686.771484"/>
      <use xlink:href="#DejaVuSans-64" x="748.294922"/>
      <use xlink:href="#DejaVuSans-20" x="811.771484"/>
      <use xlink:href="#DejaVuSans-28" x="843.558594"/>
      <use xlink:href="#DejaVuSans-62" x="882.572266"/>
      <use xlink:href="#DejaVuSans-70" x="946.048828"/>
      <use xlink:href="#DejaVuSans-29" x="1009.525391"/>
     </g>
    </g>
   </g>
   <g id="matplotlib.axis_2">
    <g id="ytick_1">
     <g id="line2d_1">
      <path d="M 32.968125 353.2239 
L 993.158125 353.2239 
" clip-path="url(#p6f7310ed9c)" style="fill: none; stroke: #dedede; stroke-linecap: square"/>
     </g>
     <g id="text_10">
      <!-- 0 -->
      <g transform="translate(20.878125 356.263275) scale(0.08 -0.08)">
       <use xlink:href="#DejaVuSans-30"/>
      </g>
     </g>
    </g>
    <g id="ytick_2">
     <g id="line2d_2">
      <path d="M 32.968125 298.766125 
L 993.158125 298.766125 
" clip-path="url(#p6f7310ed9c)" style="fill: none; stroke: #dedede; stroke-linecap: square"/>
     </g>
     <g id="text_11">
      <!-- 1 -->
      <g transform="translate(20.878125 301.8055) scale(0.08 -0.08)">
       <use xlink:href="#DejaVuSans-31"/>
      </g>
     </g>
    </g>
    <g id="ytick_3">
     <g id="line2d_3">
      <path d="M 32.968125 244.30835 
L 993.158125 244.30835 
" clip-path="url(#p6f7310ed9c)" style="fill: none; stroke: #dedede; stroke-linecap: square"/>
     </g>
     <g id="text_12">
      <!-- 2 -->
      <g transform="translate(20.878125 247.347725) scale(0.08 -0.08)">
       <use xlink:href="#DejaVuSans-32"/>
      </g>
     </g>
    </g>
    <g id="ytick_4">
     <g id="line2d_4">
      <path d="M 32.968125 189.850575 
L 993.158125 189.850575 
" clip-path="url(#p6f7310ed9c)" style="fill: none; stroke: #dedede; stroke-linecap: square"/>
     </g>
     <g id="text_13">
      <!-- 3 -->
      <g transform="translate(20.878125 192.88995) scale(0.08 -0.08)">
       <defs>
        <path id="DejaVuSans-33" d="M 2597 2516 
Q 3050 2419 3304 2112 
Q 3559 1806 3559 1356 
Q 3559 666 3084 287 
Q 2609 -91 1734 -91 
Q 1441 -91 1130 -33 
Q 819 25 488 141 
L 488 750 
Q 750 597 1062 519 
Q 1375 441 1716 441 
Q 2309 441 2620 675 
Q 2931 909 2931 1356 
Q 2931 1769 2642 2001 
Q 2353 2234 1838 2234 
L 1294 2234 
L 1294 2753 
L 1863 2753 
Q 2328 2753 2575 2939 
Q 2822 3125 2822 3475 
Q 2822 3834 2567 4026 
Q 2313 4219 1838 4219 
Q 1578 4219 1281 4162 
Q 984 4106 628 3988 
L 628 4550 
Q 988 4650 1302 4700 
Q 1616 4750 1894 4750 
Q 2613 4750 3031 4423 
Q 3450 4097 3450 3541 
Q 3450 3153 3228 2886 
Q 3006 2619 2597 2516 
z
" transform="scale(0.015625)"/>
       </defs>
       <use xlink:href="#DejaVuSans-33"/>
      </g>
     </g>
    </g>
    <g id="ytick_5">
     <g id="line2d_5">
      <path d="M 32.968125 135.3928 
L 993.158125 135.3928 
" clip-path="url(#p6f7310ed9c)" style="fill: none; stroke: #dedede; stroke-linecap: square"/>
     </g>
     <g id="text_14">
      <!-- 4 -->
      <g transform="translate(20.878125 138.432175) scale(0.08 -0.08)">
       <use xlink:href="#DejaVuSans-34"/>
      </g>
     </g>
    </g>
    <g id="ytick_6">
     <g id="line2d_6">
      <path d="M 32.968125 80.935025 
L 993.158125 80.935025 
" clip-path="url(#p6f7310ed9c)" style="fill: none; stroke: #dedede; stroke-linecap: square"/>
     </g>
     <g id="text_15">
      <!-- 5 -->
      <g transform="translate(20.878125 83.9744) scale(0.08 -0.08)">
       <defs>
        <path id="DejaVuSans-35" d="M 691 4666 
L 3169 4666 
L 3169 4134 
L 1269 4134 
L 1269 2991 
Q 1406 3038 1543 3061 
Q 1681 3084 1819 3084 
Q 2600 3084 3056 2656 
Q 3513 2228 3513 1497 
Q 3513 744 3044 326 
Q 2575 -91 1722 -91 
Q 1428 -91 1123 -41 
Q 819 9 494 109 
L 494 744 
Q 775 591 1075 516 
Q 1375 441 1709 441 
Q 2250 441 2565 725 
Q 2881 1009 2881 1497 
Q 2881 1984 2565 2268 
Q 2250 2553 1709 2553 
Q 1456 2553 1204 2497 
Q 953 2441 691 2322 
L 691 4666 
z
" transform="scale(0.015625)"/>
       </defs>
       <use xlink:href="#DejaVuSans-35"/>
      </g>
     </g>
    </g>
    <g id="text_16">
     <!-- Count -->
     <g transform="translate(14.798437 209.088338) rotate(-90) scale(0.1 -0.1)">
      <defs>
       <path id="DejaVuSans-43" d="M 4122 4306 
L 4122 3641 
Q 3803 3938 3442 4084 
Q 3081 4231 2675 4231 
Q 1875 4231 1450 3742 
Q 1025 3253 1025 2328 
Q 1025 1406 1450 917 
Q 1875 428 2675 428 
Q 3081 428 3442 575 
Q 3803 722 4122 1019 
L 4122 359 
Q 3791 134 3420 21 
Q 3050 -91 2638 -91 
Q 1578 -91 968 557 
Q 359 1206 359 2328 
Q 359 3453 968 4101 
Q 1578 4750 2638 4750 
Q 3056 4750 3426 4639 
Q 3797 4528 4122 4306 
z
" transform="scale(0.015625)"/>
       <path id="DejaVuSans-6f" d="M 1959 3097 
Q 1497 3097 1228 2736 
Q 959 2375 959 1747 
Q 959 1119 1226 758 
Q 1494 397 1959 397 
Q 2419 397 2687 759 
Q 2956 1122 2956 1747 
Q 2956 2369 2687 2733 
Q 2419 3097 1959 3097 
z
M 1959 3584 
Q 2709 3584 3137 3096 
Q 3566 2609 3566 1747 
Q 3566 888 3137 398 
Q 2709 -91 1959 -91 
Q 1206 -91 779 398 
Q 353 888 353 1747 
Q 353 2609 779 3096 
Q 1206 3584 1959 3584 
z
" transform="scale(0.015625)"/>
       <path id="DejaVuSans-75" d="M 544 1381 
L 544 3500 
L 1119 3500 
L 1119 1403 
Q 1119 906 1312 657 
Q 1506 409 1894 409 
Q 2359 409 2629 706 
Q 2900 1003 2900 1516 
L 2900 3500 
L 3475 3500 
L 3475 0 
L 2900 0 
L 2900 538 
Q 2691 219 2414 64 
Q 2138 -91 1772 -91 
Q 1169 -91 856 284 
Q 544 659 544 1381 
z
M 1991 3584 
L 1991 3584 
z
" transform="scale(0.015625)"/>
      </defs>
      <use xlink:href="#DejaVuSans-43"/>
      <use xlink:href="#DejaVuSans-6f" x="69.824219"/>
      <use xlink:href="#DejaVuSans-75" x="131.005859"/>
      <use xlink:href="#DejaVuSans-6e" x="194.384766"/>
      <use xlink:href="#DejaVuSans-74" x="257.763672"/>
     </g>
    </g>
    <g id="text_17">
     <!-- 1e7 -->
     <g transform="translate(32.968125 32.2559) scale(0.1 -0.1)">
      <defs>
       <path id="DejaVuSans-37" d="M 525 4666 
L 3525 4666 
L 3525 4397 
L 1831 0 
L 1172 0 
L 2766 4134 
L 525 4134 
L 525 4666 
z
" transform="scale(0.015625)"/>
      </defs>
      <use xlink:href="#DejaVuSans-31"/>
      <use xlink:href="#DejaVuSans-65" x="63.623047"/>
      <use xlink:href="#DejaVuSans-37" x="125.146484"/>
     </g>
    </g>
   </g>
   <g id="line2d_7">
    <path d="M 76.613125 316.837627 
L 82.432458 342.932497 
L 88.251792 349.501684 
L 94.071125 352.157993 
L 99.890458 352.653199 
L 105.709792 352.825879 
L 117.348458 352.830274 
L 140.625792 352.843311 
L 163.903125 352.868351 
L 169.722458 352.809465 
L 181.361125 352.93193 
L 198.819125 352.912657 
L 222.096458 352.932072 
L 245.373792 352.924714 
L 257.012458 352.9472 
L 338.483125 353.010409 
L 344.302458 352.932437 
L 350.121792 353.120098 
L 361.760458 353.046063 
L 402.495792 353.053883 
L 437.411792 353.115055 
L 454.869792 353.101021 
L 472.327792 353.068968 
L 478.147125 353.037039 
L 495.605125 353.213749 
L 577.075792 353.171822 
L 914.597125 353.210727 
L 937.874458 353.175079 
L 943.693792 352.897333 
L 949.513125 179.422505 
L 949.513125 179.422505 
" clip-path="url(#p6f7310ed9c)" style="fill: none; stroke: #7cb5ec; stroke-linecap: square"/>
   </g>
   <g id="line2d_8">
    <path d="M 76.613125 318.911276 
L 82.432458 343.555069 
L 88.251792 350.341532 
L 94.071125 352.258979 
L 99.890458 352.639895 
L 105.709792 352.851643 
L 140.625792 352.847232 
L 169.722458 352.87183 
L 175.541792 352.93077 
L 187.180458 352.873432 
L 192.999792 352.943192 
L 216.277125 352.872675 
L 227.915792 352.938242 
L 344.302458 353.020037 
L 367.579792 353.037447 
L 402.495792 353.076178 
L 449.050458 353.075192 
L 466.508458 353.127352 
L 513.063125 353.111679 
L 547.979125 353.164329 
L 693.462458 353.208156 
L 949.513125 353.210901 
L 949.513125 353.210901 
" clip-path="url(#p6f7310ed9c)" style="fill: none; stroke: #434348; stroke-linecap: square"/>
   </g>
   <g id="line2d_9">
    <path d="M 76.613125 299.585627 
L 82.432458 338.240159 
L 88.251792 347.676782 
L 94.071125 351.612701 
L 99.890458 352.344347 
L 105.709792 352.586417 
L 111.529125 352.656406 
L 117.348458 352.574001 
L 128.987125 352.647726 
L 140.625792 352.62793 
L 163.903125 352.658421 
L 169.722458 352.580443 
L 181.361125 352.754545 
L 192.999792 352.678805 
L 204.638458 352.699412 
L 239.554458 352.75094 
L 338.483125 352.917123 
L 344.302458 352.745461 
L 350.121792 353.063369 
L 361.760458 352.899615 
L 390.857125 352.986878 
L 402.495792 352.907593 
L 408.315125 353.020625 
L 419.953792 352.986671 
L 489.785792 353.115137 
L 495.605125 353.212355 
L 565.437125 352.975001 
L 571.256458 353.14517 
L 937.874458 353.178923 
L 943.693792 352.952325 
L 949.513125 246.752519 
L 949.513125 246.752519 
" clip-path="url(#p6f7310ed9c)" style="fill: none; stroke: #90ed7d; stroke-linecap: square"/>
   </g>
   <g id="line2d_10">
    <path d="M 76.613125 303.615492 
L 82.432458 339.156607 
L 88.251792 349.033619 
L 94.071125 351.774969 
L 99.890458 352.333445 
L 105.709792 352.624064 
L 111.529125 352.650111 
L 117.348458 352.513694 
L 123.167792 352.701879 
L 134.806458 352.633736 
L 169.722458 352.662527 
L 175.541792 352.748576 
L 187.180458 352.669275 
L 192.999792 352.760029 
L 216.277125 352.691913 
L 227.915792 352.75088 
L 257.012458 352.811252 
L 280.289792 352.794778 
L 291.928458 352.863019 
L 315.205792 352.875071 
L 379.218458 352.962356 
L 437.411792 353.02654 
L 483.966458 353.070487 
L 518.882458 353.102252 
L 530.521125 353.149669 
L 565.437125 353.146477 
L 710.920458 353.201665 
L 949.513125 353.213346 
L 949.513125 353.213346 
" clip-path="url(#p6f7310ed9c)" style="fill: none; stroke: #f7a35c; stroke-linecap: square"/>
   </g>
   <g id="line2d_11">
    <path d="M 76.613125 326.132856 
L 82.432458 346.265754 
L 88.251792 350.615661 
L 94.071125 352.484162 
L 99.890458 352.828591 
L 111.529125 352.965498 
L 123.167792 352.947924 
L 158.083792 352.956725 
L 216.277125 352.98305 
L 297.747792 353.046858 
L 315.205792 353.000492 
L 321.025125 353.086051 
L 332.663792 353.037382 
L 338.483125 353.073504 
L 344.302458 352.966091 
L 350.121792 353.153268 
L 361.760458 353.073253 
L 489.785792 353.107202 
L 495.605125 353.208984 
L 559.617792 353.143106 
L 565.437125 352.855553 
L 571.256458 353.149375 
L 699.281792 353.207122 
L 705.101125 353.138924 
L 716.739792 353.205526 
L 873.861792 353.214141 
L 937.874458 353.176407 
L 943.693792 352.89051 
L 949.513125 131.056856 
L 949.513125 131.056856 
" clip-path="url(#p6f7310ed9c)" style="fill: none; stroke: #8085e9; stroke-linecap: square"/>
   </g>
   <g id="line2d_12">
    <path d="M 76.613125 329.661034 
L 82.432458 347.475735 
L 88.251792 351.477984 
L 94.071125 352.591923 
L 105.709792 352.955592 
L 210.457792 352.984934 
L 227.915792 352.993081 
L 291.928458 353.039936 
L 396.676458 353.0886 
L 518.882458 353.113356 
L 530.521125 353.16227 
L 553.798458 353.153829 
L 949.513125 353.212017 
L 949.513125 353.212017 
" clip-path="url(#p6f7310ed9c)" style="fill: none; stroke: #f15c80; stroke-linecap: square"/>
   </g>
   <g id="line2d_13">
    <path d="M 76.613125 335.840962 
L 82.432458 348.951949 
L 88.251792 351.643083 
L 94.071125 352.772151 
L 99.890458 352.999518 
L 111.529125 353.080883 
L 134.806458 353.062307 
L 338.483125 353.115807 
L 344.302458 353.060892 
L 350.121792 353.171588 
L 367.579792 353.090217 
L 373.399125 353.183345 
L 379.218458 353.01018 
L 385.037792 353.177616 
L 425.773125 353.076265 
L 431.592458 353.199824 
L 466.508458 353.115747 
L 472.327792 353.201491 
L 489.785792 353.139409 
L 501.424458 353.218155 
L 536.340458 353.163506 
L 635.269125 353.203032 
L 937.874458 353.170101 
L 943.693792 352.821729 
L 949.513125 50.397224 
L 949.513125 50.397224 
" clip-path="url(#p6f7310ed9c)" style="fill: none; stroke: #e4d354; stroke-linecap: square"/>
   </g>
   <g id="line2d_14">
    <path d="M 76.613125 338.016152 
L 82.432458 349.808112 
L 88.251792 352.157933 
L 94.071125 352.843507 
L 105.709792 353.071494 
L 204.638458 353.084532 
L 280.289792 353.095804 
L 338.483125 353.125021 
L 396.676458 353.136719 
L 646.907792 353.20778 
L 943.693792 353.222451 
L 949.513125 353.213755 
L 949.513125 353.213755 
" clip-path="url(#p6f7310ed9c)" style="fill: none; stroke: #2b908f; stroke-linecap: square"/>
   </g>
   <g id="line2d_15">
    <path d="M 76.613125 327.270664 
L 82.432458 346.979679 
L 88.251792 350.798536 
L 94.071125 352.522277 
L 99.890458 352.829152 
L 111.529125 352.963853 
L 128.987125 352.937861 
L 158.083792 352.947837 
L 472.327792 353.006096 
L 478.147125 352.928085 
L 489.785792 353.119156 
L 501.424458 353.195854 
L 513.063125 353.073308 
L 559.617792 353.140808 
L 565.437125 353.056061 
L 577.075792 353.158169 
L 588.714458 353.144299 
L 623.630458 353.175209 
L 681.823792 353.201572 
L 815.668458 353.212872 
L 937.874458 353.188296 
L 943.693792 352.960934 
L 949.513125 123.541699 
L 949.513125 123.541699 
" clip-path="url(#p6f7310ed9c)" style="fill: none; stroke: #f45b5b; stroke-linecap: square"/>
   </g>
   <g id="line2d_16">
    <path d="M 76.613125 330.800323 
L 82.432458 348.344347 
L 88.251792 351.703706 
L 94.071125 352.608369 
L 105.709792 352.956142 
L 128.987125 352.944363 
L 163.903125 352.922182 
L 175.541792 352.96797 
L 216.277125 352.937011 
L 227.915792 353.000106 
L 332.663792 353.034305 
L 344.302458 353.056464 
L 350.121792 353.013873 
L 361.760458 353.07089 
L 408.315125 353.069071 
L 431.592458 353.089994 
L 501.424458 353.074893 
L 507.243792 352.966004 
L 530.521125 353.160233 
L 547.979125 353.129154 
L 594.533792 353.171729 
L 687.643125 353.208902 
L 949.513125 353.209795 
L 949.513125 353.209795 
" clip-path="url(#p6f7310ed9c)" style="fill: none; stroke: #91e8e1; stroke-linecap: square"/>
   </g>
   <g id="line2d_17">
    <path d="M 76.613125 337.93702 
L 82.432458 349.155376 
L 88.251792 351.645262 
L 94.071125 352.686429 
L 99.890458 352.878077 
L 111.529125 352.991654 
L 134.806458 352.965226 
L 187.180458 352.990287 
L 245.373792 352.992318 
L 257.012458 353.020261 
L 559.617792 353.169954 
L 565.437125 352.997481 
L 571.256458 353.171234 
L 780.752458 353.216368 
L 937.874458 353.181314 
L 943.693792 352.897126 
L 949.513125 86.366562 
L 949.513125 86.366562 
" clip-path="url(#p6f7310ed9c)" style="fill: none; stroke: #7cb5ec; stroke-linecap: square"/>
   </g>
   <g id="line2d_18">
    <path d="M 76.613125 338.901151 
L 82.432458 349.073068 
L 88.251792 351.872345 
L 94.071125 352.71558 
L 105.709792 352.976123 
L 158.083792 353.00822 
L 163.903125 352.927786 
L 169.722458 353.044037 
L 187.180458 352.962884 
L 198.819125 352.998091 
L 483.966458 353.133936 
L 577.075792 353.181249 
L 792.391125 353.216592 
L 920.416458 353.218247 
L 949.513125 353.21559 
L 949.513125 353.21559 
" clip-path="url(#p6f7310ed9c)" style="fill: none; stroke: #434348; stroke-linecap: square"/>
   </g>
   <g id="line2d_19">
    <path d="M 76.613125 282.000232 
L 82.432458 335.704387 
L 88.251792 346.561873 
L 94.071125 350.903906 
L 99.890458 351.852778 
L 105.709792 352.289018 
L 111.529125 352.367797 
L 117.348458 352.240638 
L 128.987125 352.35837 
L 140.625792 352.10769 
L 146.445125 352.033448 
L 163.903125 352.220456 
L 169.722458 352.079399 
L 175.541792 352.406347 
L 181.361125 352.439746 
L 187.180458 352.244575 
L 192.999792 352.207446 
L 198.819125 352.348137 
L 204.638458 352.168857 
L 222.096458 352.319128 
L 227.915792 352.130546 
L 251.193125 352.523796 
L 268.651125 352.454836 
L 274.470458 352.56049 
L 297.747792 352.533762 
L 303.567125 352.633191 
L 309.386458 352.518247 
L 332.663792 352.543053 
L 338.483125 352.662898 
L 344.302458 352.392667 
L 350.121792 352.966429 
L 355.941125 352.734787 
L 379.218458 352.681865 
L 385.037792 352.823309 
L 425.773125 352.833585 
L 437.411792 352.947532 
L 443.231125 352.791876 
L 460.689125 352.928597 
L 466.508458 352.58566 
L 472.327792 352.782095 
L 478.147125 352.717274 
L 483.966458 352.966228 
L 489.785792 353.012489 
L 495.605125 353.198719 
L 507.243792 353.074108 
L 518.882458 352.95563 
L 757.475125 353.187087 
L 844.765125 353.186504 
L 914.597125 353.207922 
L 937.874458 353.181793 
L 943.693792 353.009565 
L 949.513125 271.667675 
L 949.513125 271.667675 
" clip-path="url(#p6f7310ed9c)" style="fill: none; stroke: #90ed7d; stroke-linecap: square"/>
   </g>
   <g id="line2d_20">
    <path d="M 76.613125 273.119067 
L 82.432458 335.707992 
L 88.251792 347.223132 
L 94.071125 351.147055 
L 105.709792 352.295749 
L 111.529125 352.309293 
L 117.348458 352.117737 
L 123.167792 352.410143 
L 146.445125 351.926928 
L 158.083792 352.251023 
L 163.903125 352.158858 
L 175.541792 352.473646 
L 181.361125 352.202087 
L 187.180458 352.181589 
L 192.999792 352.395401 
L 204.638458 352.236406 
L 239.554458 352.341352 
L 280.289792 352.528469 
L 286.109125 352.476957 
L 291.928458 352.294741 
L 297.747792 352.457608 
L 303.567125 352.10726 
L 309.386458 352.426769 
L 315.205792 352.550301 
L 326.844458 352.601371 
L 344.302458 352.615982 
L 350.121792 352.592163 
L 355.941125 352.800262 
L 367.579792 352.693449 
L 379.218458 352.750629 
L 449.050458 352.702712 
L 454.869792 352.886545 
L 466.508458 352.917531 
L 478.147125 352.813572 
L 483.966458 352.926299 
L 518.882458 352.899746 
L 524.701792 353.129056 
L 542.159792 353.046112 
L 635.269125 353.112839 
L 745.836458 353.192173 
L 833.126458 353.188459 
L 949.513125 353.212153 
L 949.513125 353.212153 
" clip-path="url(#p6f7310ed9c)" style="fill: none; stroke: #f7a35c; stroke-linecap: square"/>
   </g>
   <g id="line2d_21">
    <path d="M 76.613125 308.900347 
L 82.432458 342.37852 
L 88.251792 348.946977 
L 94.071125 351.675665 
L 99.890458 352.212064 
L 105.709792 352.524058 
L 111.529125 352.58443 
L 123.167792 352.530843 
L 128.987125 352.584326 
L 146.445125 352.247586 
L 163.903125 352.461393 
L 169.722458 352.354433 
L 175.541792 352.6187 
L 181.361125 352.626547 
L 187.180458 352.451711 
L 192.999792 352.419069 
L 198.819125 352.546429 
L 210.457792 352.35684 
L 222.096458 352.488132 
L 227.915792 352.303792 
L 239.554458 352.470999 
L 257.012458 352.667151 
L 268.651125 352.668491 
L 274.470458 352.598387 
L 280.289792 352.762561 
L 286.109125 352.609812 
L 291.928458 352.717944 
L 315.205792 352.648004 
L 321.025125 352.731286 
L 326.844458 352.61418 
L 338.483125 352.75528 
L 344.302458 352.418502 
L 350.121792 353.009734 
L 355.941125 352.732037 
L 361.760458 349.482319 
L 367.579792 352.47889 
L 373.399125 353.157434 
L 379.218458 352.551031 
L 390.857125 353.16239 
L 396.676458 352.900508 
L 402.495792 352.955434 
L 408.315125 353.142998 
L 495.605125 353.210803 
L 507.243792 353.183923 
L 524.701792 353.022575 
L 559.617792 353.062471 
L 571.256458 353.015697 
L 937.874458 353.188508 
L 943.693792 353.029676 
L 949.513125 280.320433 
L 949.513125 280.320433 
" clip-path="url(#p6f7310ed9c)" style="fill: none; stroke: #8085e9; stroke-linecap: square"/>
   </g>
   <g id="line2d_22">
    <path d="M 76.613125 302.538524 
L 82.432458 342.634499 
L 88.251792 349.627204 
L 94.071125 351.880514 
L 99.890458 352.083276 
L 105.709792 352.529814 
L 111.529125 352.544801 
L 117.348458 352.355157 
L 123.167792 352.686505 
L 128.987125 352.521749 
L 134.806458 352.481483 
L 146.445125 352.166406 
L 158.083792 352.452124 
L 163.903125 352.407916 
L 175.541792 352.658334 
L 181.361125 352.438581 
L 187.180458 352.39135 
L 192.999792 352.567166 
L 204.638458 352.439534 
L 210.457792 352.440514 
L 216.277125 352.289704 
L 222.096458 352.462613 
L 227.915792 352.333118 
L 245.373792 352.577268 
L 251.193125 352.573091 
L 257.012458 352.687916 
L 268.651125 352.630386 
L 280.289792 352.669444 
L 291.928458 352.50399 
L 297.747792 352.582464 
L 303.567125 352.459825 
L 321.025125 352.706431 
L 344.302458 352.729995 
L 350.121792 352.700114 
L 355.941125 352.916012 
L 367.579792 352.803132 
L 385.037792 352.857083 
L 402.495792 352.87292 
L 414.134458 352.857949 
L 425.773125 352.914455 
L 489.785792 352.976634 
L 501.424458 352.999131 
L 507.243792 352.87439 
L 518.882458 352.936374 
L 524.701792 353.14394 
L 547.979125 353.080012 
L 577.075792 353.025009 
L 588.714458 353.036222 
L 705.101125 353.196508 
L 926.235792 353.216853 
L 949.513125 353.215639 
L 949.513125 353.215639 
" clip-path="url(#p6f7310ed9c)" style="fill: none; stroke: #f15c80; stroke-linecap: square"/>
   </g>
   <g id="line2d_23">
    <path d="M 76.613125 297.80073 
L 82.432458 340.918828 
L 88.251792 348.256098 
L 94.071125 351.00718 
L 99.890458 351.679222 
L 105.709792 352.166281 
L 111.529125 352.251311 
L 123.167792 352.13274 
L 128.987125 352.224714 
L 134.806458 351.908576 
L 146.445125 351.465295 
L 152.264458 351.703798 
L 163.903125 351.901567 
L 169.722458 351.730156 
L 175.541792 352.293837 
L 181.361125 352.22112 
L 187.180458 351.870074 
L 192.999792 351.846118 
L 198.819125 352.137838 
L 210.457792 351.590651 
L 222.096458 352.050727 
L 227.915792 351.604832 
L 233.735125 351.863752 
L 239.554458 351.867466 
L 251.193125 352.329322 
L 262.831792 352.357275 
L 268.651125 352.199789 
L 274.470458 352.494313 
L 280.289792 352.287477 
L 286.109125 352.364012 
L 303.567125 352.169962 
L 321.025125 352.386655 
L 338.483125 352.329676 
L 344.302458 352.062773 
L 350.121792 352.867087 
L 355.941125 352.596013 
L 367.579792 352.556046 
L 373.399125 352.683379 
L 379.218458 352.508341 
L 385.037792 352.743795 
L 396.676458 352.624298 
L 402.495792 352.56055 
L 408.315125 352.69768 
L 419.953792 352.598915 
L 437.411792 352.793705 
L 443.231125 352.599155 
L 460.689125 352.714006 
L 466.508458 352.288506 
L 472.327792 352.466283 
L 478.147125 352.371456 
L 483.966458 352.788374 
L 489.785792 352.822486 
L 495.605125 353.189183 
L 501.424458 353.154336 
L 518.882458 352.556171 
L 524.701792 352.588013 
L 536.340458 352.847738 
L 553.798458 352.932976 
L 582.895125 352.819932 
L 611.991792 353.026109 
L 646.907792 353.11072 
L 681.823792 353.159063 
L 792.391125 353.203173 
L 798.210458 353.134791 
L 809.849125 353.178488 
L 833.126458 353.204704 
L 920.416458 353.213804 
L 937.874458 353.190561 
L 943.693792 353.008313 
L 949.513125 258.767984 
L 949.513125 258.767984 
" clip-path="url(#p6f7310ed9c)" style="fill: none; stroke: #e4d354; stroke-linecap: square"/>
   </g>
   <g id="line2d_24">
    <path d="M 76.613125 283.976058 
L 82.432458 342.529444 
L 88.251792 349.712288 
L 94.071125 351.542081 
L 99.890458 351.374661 
L 105.709792 352.166711 
L 111.529125 352.200197 
L 117.348458 351.998791 
L 123.167792 352.280915 
L 134.806458 352.013151 
L 146.445125 351.324004 
L 152.264458 351.734257 
L 158.083792 351.848362 
L 163.903125 351.845792 
L 175.541792 352.315207 
L 181.361125 351.932445 
L 187.180458 351.717767 
L 192.999792 352.124408 
L 198.819125 351.931252 
L 210.457792 351.863011 
L 216.277125 351.52363 
L 222.096458 351.871191 
L 227.915792 351.767677 
L 233.735125 351.825724 
L 239.554458 352.047623 
L 251.193125 352.204096 
L 257.012458 352.367551 
L 268.651125 352.362454 
L 274.470458 352.246535 
L 280.289792 352.362498 
L 291.928458 352.16523 
L 297.747792 352.166455 
L 303.567125 351.996449 
L 315.205792 352.084349 
L 321.025125 352.430733 
L 332.663792 352.393408 
L 338.483125 352.449342 
L 344.302458 352.346476 
L 350.121792 352.379543 
L 355.941125 352.681533 
L 367.579792 352.533185 
L 373.399125 352.631149 
L 385.037792 352.648178 
L 390.857125 352.694026 
L 396.676458 352.620867 
L 402.495792 352.67032 
L 408.315125 352.587986 
L 431.592458 352.672384 
L 443.231125 352.664363 
L 449.050458 352.437704 
L 454.869792 352.667151 
L 466.508458 352.716855 
L 472.327792 352.55304 
L 478.147125 352.589189 
L 483.966458 352.807832 
L 489.785792 352.722812 
L 501.424458 352.788908 
L 507.243792 352.441048 
L 513.063125 352.32013 
L 518.882458 352.324181 
L 524.701792 353.032677 
L 536.340458 352.914008 
L 565.437125 352.887999 
L 582.895125 352.836624 
L 617.811125 353.058207 
L 780.752458 353.206533 
L 868.042458 353.216015 
L 949.513125 353.217779 
L 949.513125 353.217779 
" clip-path="url(#p6f7310ed9c)" style="fill: none; stroke: #2b908f; stroke-linecap: square"/>
   </g>
   <g id="line2d_25">
    <path d="M 76.613125 295.022382 
L 82.432458 340.113 
L 88.251792 347.867564 
L 94.071125 350.906226 
L 99.890458 351.690113 
L 105.709792 352.170033 
L 111.529125 352.281693 
L 117.348458 352.175675 
L 128.987125 352.300361 
L 146.445125 351.597094 
L 163.903125 351.956096 
L 169.722458 351.783574 
L 175.541792 352.329987 
L 181.361125 352.303351 
L 187.180458 351.951423 
L 192.999792 351.93232 
L 198.819125 352.106601 
L 210.457792 351.666827 
L 216.277125 351.786868 
L 222.096458 352.110772 
L 227.915792 351.597121 
L 251.193125 352.428648 
L 268.651125 352.489973 
L 280.289792 352.221855 
L 286.109125 352.434894 
L 291.928458 352.469616 
L 297.747792 352.360047 
L 303.567125 352.083189 
L 309.386458 352.281928 
L 315.205792 352.312713 
L 321.025125 352.499851 
L 326.844458 352.558878 
L 332.663792 352.393947 
L 338.483125 352.490484 
L 344.302458 352.138426 
L 350.121792 352.920113 
L 355.941125 352.719659 
L 367.579792 352.632135 
L 373.399125 352.764195 
L 379.218458 352.600843 
L 385.037792 352.781654 
L 396.676458 352.689691 
L 402.495792 352.613641 
L 408.315125 352.750313 
L 419.953792 352.646403 
L 437.411792 352.855515 
L 443.231125 352.659957 
L 460.689125 352.778795 
L 466.508458 352.255211 
L 472.327792 352.442415 
L 478.147125 352.391099 
L 483.966458 352.850706 
L 489.785792 352.908633 
L 495.605125 353.191775 
L 501.424458 353.159204 
L 518.882458 352.664428 
L 530.521125 352.84024 
L 542.159792 352.968852 
L 600.353125 353.055059 
L 652.727125 353.154385 
L 943.693792 353.055266 
L 949.513125 284.536172 
L 949.513125 284.536172 
" clip-path="url(#p6f7310ed9c)" style="fill: none; stroke: #f45b5b; stroke-linecap: square"/>
   </g>
   <g id="line2d_26">
    <path d="M 76.613125 278.837106 
L 82.432458 342.007014 
L 88.251792 349.896584 
L 94.071125 351.625319 
L 99.890458 351.396422 
L 105.709792 352.180516 
L 111.529125 352.234272 
L 117.348458 352.033235 
L 123.167792 352.378683 
L 140.625792 351.785338 
L 146.445125 351.409411 
L 152.264458 351.828381 
L 158.083792 351.879697 
L 163.903125 351.809648 
L 169.722458 352.323506 
L 181.361125 352.035185 
L 187.180458 351.833397 
L 192.999792 352.09493 
L 198.819125 351.949517 
L 210.457792 351.924113 
L 216.277125 351.593102 
L 222.096458 351.899863 
L 227.915792 351.667001 
L 239.554458 352.086849 
L 245.373792 352.30034 
L 251.193125 352.263368 
L 257.012458 352.509719 
L 268.651125 352.48035 
L 274.470458 352.334234 
L 291.928458 352.304114 
L 303.567125 352.115031 
L 315.205792 352.252782 
L 326.844458 352.508869 
L 332.663792 352.433696 
L 338.483125 352.549424 
L 344.302458 352.42636 
L 350.121792 352.455261 
L 355.941125 352.767419 
L 367.579792 352.596851 
L 373.399125 352.707673 
L 385.037792 352.705734 
L 402.495792 352.714954 
L 408.315125 352.643897 
L 419.953792 352.735637 
L 443.231125 352.737652 
L 449.050458 352.493186 
L 454.869792 352.721396 
L 460.689125 352.787241 
L 466.508458 352.724969 
L 472.327792 352.507279 
L 478.147125 352.531551 
L 483.966458 352.812629 
L 489.785792 352.735027 
L 501.424458 352.857356 
L 507.243792 352.549887 
L 513.063125 352.475699 
L 518.882458 352.539251 
L 524.701792 353.071293 
L 536.340458 352.979314 
L 565.437125 352.977043 
L 588.714458 353.001625 
L 641.088458 353.153143 
L 792.391125 353.206593 
L 798.210458 353.079756 
L 804.029792 353.212159 
L 815.668458 353.20667 
L 949.513125 353.219473 
L 949.513125 353.219473 
" clip-path="url(#p6f7310ed9c)" style="fill: none; stroke: #91e8e1; stroke-linecap: square"/>
   </g>
   <g id="line2d_27">
    <path d="M 76.613125 303.525201 
L 82.432458 342.173454 
L 88.251792 348.878306 
L 94.071125 351.402418 
L 99.890458 352.014834 
L 105.709792 352.412005 
L 111.529125 352.467215 
L 123.167792 352.416738 
L 128.987125 352.468108 
L 146.445125 351.951227 
L 163.903125 352.259377 
L 169.722458 352.124931 
L 175.541792 352.545737 
L 181.361125 352.512567 
L 187.180458 352.281388 
L 192.999792 352.227056 
L 198.819125 352.405852 
L 210.457792 352.081779 
L 216.277125 352.147117 
L 222.096458 352.341096 
L 227.915792 352.014698 
L 233.735125 352.191871 
L 239.554458 352.2505 
L 245.373792 352.461121 
L 262.831792 352.610204 
L 274.470458 352.556117 
L 280.289792 352.640793 
L 286.109125 352.450561 
L 291.928458 352.630419 
L 297.747792 352.494814 
L 303.567125 352.61956 
L 309.386458 352.430439 
L 315.205792 352.436402 
L 321.025125 352.664134 
L 332.663792 352.502269 
L 338.483125 352.703997 
L 344.302458 352.327193 
L 350.121792 352.985653 
L 355.941125 352.765404 
L 361.760458 352.681887 
L 367.579792 352.713587 
L 373.399125 352.892971 
L 379.218458 352.636034 
L 385.037792 352.890733 
L 390.857125 352.865083 
L 402.495792 352.629259 
L 408.315125 352.813915 
L 414.134458 352.720084 
L 425.773125 352.714714 
L 431.592458 352.955227 
L 437.411792 352.949395 
L 443.231125 352.710167 
L 454.869792 352.893156 
L 460.689125 352.825345 
L 466.508458 352.353082 
L 472.327792 352.794604 
L 478.147125 352.662609 
L 483.966458 352.897611 
L 489.785792 352.919018 
L 495.605125 353.202754 
L 507.243792 353.054542 
L 518.882458 352.772325 
L 530.521125 352.88844 
L 547.979125 352.974777 
L 559.617792 352.981922 
L 571.256458 352.919258 
L 681.823792 353.168282 
L 792.391125 353.206822 
L 798.210458 353.129035 
L 804.029792 353.212006 
L 821.487792 353.212752 
L 937.874458 353.180873 
L 943.693792 352.916529 
L 949.513125 218.102076 
L 949.513125 218.102076 
" clip-path="url(#p6f7310ed9c)" style="fill: none; stroke: #7cb5ec; stroke-linecap: square"/>
   </g>
   <g id="line2d_28">
    <path d="M 76.613125 290.497965 
L 82.432458 343.770008 
L 88.251792 350.448743 
L 94.071125 351.921875 
L 99.890458 351.779179 
L 105.709792 352.41169 
L 111.529125 352.425228 
L 117.348458 352.268863 
L 123.167792 352.545362 
L 146.445125 351.848068 
L 158.083792 352.224273 
L 163.903125 352.209787 
L 175.541792 352.572983 
L 181.361125 352.27799 
L 187.180458 352.178795 
L 192.999792 352.433189 
L 204.638458 352.241591 
L 210.457792 352.233046 
L 216.277125 351.962206 
L 222.096458 352.234729 
L 227.915792 352.09041 
L 257.012458 352.617649 
L 274.470458 352.529155 
L 280.289792 352.654653 
L 286.109125 352.409696 
L 291.928458 352.509174 
L 297.747792 352.445949 
L 303.567125 352.197578 
L 309.386458 352.434491 
L 326.844458 352.599999 
L 338.483125 352.667396 
L 344.302458 352.58279 
L 350.121792 352.613178 
L 355.941125 352.825944 
L 373.399125 352.796504 
L 443.231125 352.80341 
L 449.050458 352.611038 
L 454.869792 352.813343 
L 466.508458 352.823989 
L 472.327792 352.626732 
L 478.147125 352.640973 
L 483.966458 352.868035 
L 495.605125 352.888407 
L 501.424458 352.899136 
L 507.243792 352.668109 
L 518.882458 352.637913 
L 524.701792 353.088306 
L 542.159792 353.003417 
L 600.353125 353.024802 
L 646.907792 353.125849 
L 681.823792 353.17149 
L 792.391125 353.208298 
L 798.210458 353.129846 
L 804.029792 353.213096 
L 821.487792 353.213793 
L 949.513125 353.218786 
L 949.513125 353.218786 
" clip-path="url(#p6f7310ed9c)" style="fill: none; stroke: #434348; stroke-linecap: square"/>
   </g>
   <g id="line2d_29">
    <path d="M 76.613125 316.914015 
L 82.432458 342.429912 
L 88.251792 349.040296 
L 94.071125 351.163757 
L 105.709792 351.354615 
L 117.348458 351.292299 
L 123.167792 351.344012 
L 128.987125 351.076543 
L 152.264458 351.034692 
L 158.083792 351.052794 
L 163.903125 350.665468 
L 169.722458 351.377781 
L 175.541792 351.1914 
L 181.361125 351.262364 
L 187.180458 351.026643 
L 192.999792 350.952118 
L 198.819125 351.361618 
L 204.638458 350.792731 
L 210.457792 350.98092 
L 222.096458 350.818173 
L 227.915792 351.063713 
L 233.735125 350.967137 
L 239.554458 350.728808 
L 245.373792 351.166191 
L 251.193125 350.854938 
L 257.012458 350.967186 
L 262.831792 350.914161 
L 268.651125 350.455387 
L 274.470458 351.179294 
L 280.289792 350.680716 
L 286.109125 351.28486 
L 291.928458 351.011738 
L 297.747792 351.021671 
L 303.567125 351.401759 
L 309.386458 351.300321 
L 315.205792 351.401155 
L 321.025125 351.285748 
L 326.844458 351.488451 
L 332.663792 351.338648 
L 338.483125 351.596576 
L 344.302458 350.577813 
L 350.121792 352.518792 
L 361.760458 350.854731 
L 367.579792 351.822821 
L 373.399125 352.52024 
L 379.218458 351.305135 
L 385.037792 352.400765 
L 390.857125 352.361392 
L 396.676458 351.718998 
L 402.495792 351.792249 
L 408.315125 352.566279 
L 414.134458 352.332459 
L 419.953792 352.592903 
L 425.773125 352.268988 
L 431.592458 352.900682 
L 437.411792 352.883081 
L 443.231125 352.387717 
L 454.869792 352.913033 
L 466.508458 352.518089 
L 472.327792 353.043607 
L 478.147125 352.893695 
L 489.785792 352.937354 
L 495.605125 353.205542 
L 507.243792 353.111162 
L 518.882458 353.022902 
L 937.874458 353.210482 
L 943.693792 347.485265 
L 949.513125 353.148923 
L 949.513125 353.148923 
" clip-path="url(#p6f7310ed9c)" style="fill: none; stroke: #90ed7d; stroke-linecap: square"/>
   </g>
   <g id="line2d_30">
    <path d="M 76.613125 312.487061 
L 82.432458 340.049301 
L 88.251792 348.01491 
L 94.071125 350.640461 
L 99.890458 351.129503 
L 105.709792 351.401089 
L 111.529125 351.286412 
L 123.167792 351.381735 
L 128.987125 351.110127 
L 134.806458 351.024481 
L 140.625792 351.082315 
L 146.445125 350.863096 
L 152.264458 351.090282 
L 163.903125 350.904696 
L 169.722458 351.297827 
L 181.361125 351.125843 
L 187.180458 351.270467 
L 192.999792 351.07663 
L 204.638458 351.024394 
L 210.457792 350.932502 
L 216.277125 350.637101 
L 222.096458 351.127227 
L 227.915792 351.092308 
L 233.735125 350.91312 
L 239.554458 351.054177 
L 251.193125 350.873252 
L 262.831792 350.959992 
L 268.651125 350.690481 
L 274.470458 350.992792 
L 297.747792 351.148993 
L 303.567125 351.295735 
L 309.386458 351.274508 
L 315.205792 351.444116 
L 321.025125 351.373425 
L 332.663792 351.570981 
L 344.302458 351.482231 
L 361.760458 351.907737 
L 385.037792 352.013309 
L 396.676458 352.185227 
L 408.315125 352.306385 
L 414.134458 352.361915 
L 419.953792 352.553536 
L 425.773125 352.495947 
L 443.231125 352.611555 
L 449.050458 352.485278 
L 460.689125 352.784578 
L 466.508458 352.840746 
L 478.147125 352.80286 
L 489.785792 352.910746 
L 501.424458 352.907876 
L 507.243792 352.778136 
L 524.701792 353.156318 
L 536.340458 353.055865 
L 710.920458 353.213428 
L 937.874458 353.208919 
L 943.693792 347.514759 
L 949.513125 353.152108 
L 949.513125 353.152108 
" clip-path="url(#p6f7310ed9c)" style="fill: none; stroke: #f7a35c; stroke-linecap: square"/>
   </g>
   <g id="line2d_31">
    <path d="M 76.613125 303.388441 
L 82.432458 339.11523 
L 88.251792 348.20707 
L 94.071125 350.937196 
L 105.709792 351.200625 
L 111.529125 351.109806 
L 123.167792 351.163893 
L 128.987125 350.873557 
L 140.625792 350.733976 
L 146.445125 350.555464 
L 152.264458 350.835115 
L 158.083792 350.844956 
L 163.903125 350.43332 
L 169.722458 351.137988 
L 175.541792 350.970481 
L 181.361125 351.086432 
L 187.180458 350.767048 
L 192.999792 350.715368 
L 198.819125 351.134649 
L 204.638458 350.42446 
L 210.457792 350.602913 
L 222.096458 350.377817 
L 227.915792 350.661264 
L 233.735125 350.495625 
L 239.554458 350.194338 
L 245.373792 350.586363 
L 251.193125 350.323479 
L 262.831792 350.223533 
L 268.651125 349.677996 
L 274.470458 350.010042 
L 280.289792 350.000942 
L 286.109125 350.294703 
L 291.928458 350.060584 
L 303.567125 350.082122 
L 309.386458 350.36662 
L 321.025125 349.937744 
L 326.844458 350.206384 
L 332.663792 350.015618 
L 338.483125 349.952033 
L 344.302458 348.437121 
L 350.121792 351.531401 
L 355.941125 350.085139 
L 361.760458 350.016942 
L 367.579792 349.824613 
L 373.399125 350.974669 
L 379.218458 349.308402 
L 385.037792 350.755699 
L 390.857125 350.496382 
L 396.676458 349.831938 
L 402.495792 349.394838 
L 408.315125 350.793215 
L 414.134458 350.011915 
L 419.953792 350.335618 
L 425.773125 350.067228 
L 431.592458 351.419736 
L 437.411792 351.545435 
L 443.231125 349.712866 
L 449.050458 350.391638 
L 454.869792 351.197445 
L 460.689125 351.139638 
L 466.508458 349.173227 
L 472.327792 351.608094 
L 478.147125 350.906052 
L 483.966458 351.719695 
L 489.785792 351.964542 
L 495.605125 353.102693 
L 501.424458 352.940333 
L 507.243792 352.383431 
L 513.063125 352.058852 
L 530.521125 352.016724 
L 542.159792 352.117607 
L 553.798458 352.293151 
L 571.256458 352.462962 
L 600.353125 352.768513 
L 629.449792 352.969152 
L 745.836458 353.212502 
L 937.874458 353.19452 
L 943.693792 341.428384 
L 949.513125 352.466926 
L 949.513125 352.466926 
" clip-path="url(#p6f7310ed9c)" style="fill: none; stroke: #8085e9; stroke-linecap: square"/>
   </g>
   <g id="line2d_32">
    <path d="M 76.613125 295.675494 
L 82.432458 335.138664 
L 88.251792 346.2949 
L 94.071125 350.081136 
L 99.890458 350.841759 
L 105.709792 351.234176 
L 111.529125 351.116449 
L 123.167792 351.179299 
L 134.806458 350.745167 
L 140.625792 350.881056 
L 146.445125 350.564476 
L 152.264458 350.896288 
L 158.083792 350.849432 
L 163.903125 350.639405 
L 169.722458 351.074931 
L 181.361125 350.946732 
L 187.180458 351.018747 
L 192.999792 350.833095 
L 198.819125 350.868819 
L 216.277125 350.200922 
L 222.096458 350.720901 
L 227.915792 350.69982 
L 233.735125 350.435765 
L 239.554458 350.529416 
L 257.012458 350.263853 
L 262.831792 349.954871 
L 268.651125 349.845476 
L 274.470458 350.307022 
L 286.109125 350.124136 
L 291.928458 349.605268 
L 297.747792 350.586456 
L 303.567125 350.147744 
L 309.386458 350.133225 
L 315.205792 350.435586 
L 321.025125 349.932772 
L 326.844458 350.388191 
L 344.302458 349.845078 
L 350.121792 349.905238 
L 355.941125 350.554903 
L 367.579792 350.285805 
L 373.399125 350.490343 
L 385.037792 350.089746 
L 390.857125 350.479038 
L 396.676458 350.365542 
L 402.495792 350.457358 
L 408.315125 350.312925 
L 414.134458 350.519483 
L 419.953792 350.948071 
L 425.773125 350.662941 
L 431.592458 350.869794 
L 437.411792 350.630986 
L 443.231125 350.811785 
L 449.050458 350.217618 
L 460.689125 351.199857 
L 466.508458 351.37782 
L 472.327792 351.068314 
L 478.147125 351.142546 
L 483.966458 351.490809 
L 489.785792 351.636309 
L 495.605125 351.498955 
L 501.424458 351.518119 
L 507.243792 350.722409 
L 513.063125 351.363851 
L 518.882458 351.731305 
L 524.701792 352.757012 
L 530.521125 352.415943 
L 536.340458 352.20976 
L 658.546458 353.093239 
L 710.920458 353.182392 
L 809.849125 353.221662 
L 937.874458 353.178575 
L 943.693792 341.488903 
L 949.513125 352.486721 
L 949.513125 352.486721 
" clip-path="url(#p6f7310ed9c)" style="fill: none; stroke: #f15c80; stroke-linecap: square"/>
   </g>
   <g id="line2d_33">
    <path d="M 76.613125 313.317891 
L 82.432458 341.880318 
L 88.251792 349.154009 
L 94.071125 351.361444 
L 117.348458 351.205913 
L 123.167792 351.18719 
L 128.987125 350.909379 
L 140.625792 350.842314 
L 146.445125 350.544877 
L 152.264458 350.963363 
L 158.083792 350.929474 
L 163.903125 350.596764 
L 169.722458 351.20771 
L 175.541792 350.980408 
L 181.361125 351.150371 
L 187.180458 350.858586 
L 192.999792 350.770479 
L 198.819125 351.225665 
L 204.638458 350.617709 
L 210.457792 350.723014 
L 222.096458 350.499367 
L 227.915792 350.826021 
L 239.554458 350.244085 
L 245.373792 350.654397 
L 251.193125 350.356312 
L 262.831792 350.393174 
L 268.651125 349.845351 
L 274.470458 350.28635 
L 280.289792 350.293816 
L 286.109125 350.690699 
L 291.928458 350.17836 
L 297.747792 350.455098 
L 303.567125 350.343459 
L 315.205792 350.762093 
L 321.025125 350.696585 
L 332.663792 350.916666 
L 338.483125 350.700882 
L 344.302458 349.64976 
L 350.121792 352.056369 
L 355.941125 351.037115 
L 361.760458 351.314316 
L 367.579792 351.17277 
L 373.399125 351.5105 
L 379.218458 351.210199 
L 385.037792 351.519796 
L 402.495792 351.618479 
L 408.315125 351.959363 
L 419.953792 351.744397 
L 425.773125 352.194926 
L 431.592458 352.180974 
L 437.411792 352.302747 
L 443.231125 352.015433 
L 454.869792 352.1871 
L 460.689125 352.524847 
L 466.508458 352.016571 
L 472.327792 352.172963 
L 478.147125 352.152781 
L 483.966458 352.748985 
L 489.785792 352.866581 
L 495.605125 353.177153 
L 501.424458 353.131382 
L 513.063125 352.867507 
L 577.075792 353.007899 
L 740.017125 353.214969 
L 937.874458 353.178705 
L 943.693792 332.063983 
L 949.513125 352.531072 
L 949.513125 352.531072 
" clip-path="url(#p6f7310ed9c)" style="fill: none; stroke: #e4d354; stroke-linecap: square"/>
   </g>
   <g id="line2d_34">
    <path d="M 76.613125 307.1069 
L 82.432458 337.252889 
L 88.251792 347.52967 
L 94.071125 350.414848 
L 99.890458 351.045605 
L 105.709792 351.365975 
L 111.529125 351.159231 
L 123.167792 351.194722 
L 128.987125 350.947739 
L 134.806458 350.831014 
L 140.625792 350.905066 
L 146.445125 350.566497 
L 152.264458 350.999289 
L 158.083792 350.933106 
L 163.903125 350.755155 
L 169.722458 351.127357 
L 181.361125 351.02874 
L 187.180458 351.078329 
L 192.999792 350.870758 
L 198.819125 351.024252 
L 216.277125 350.34951 
L 222.096458 350.822764 
L 227.915792 350.847924 
L 233.735125 350.513335 
L 239.554458 350.582246 
L 257.012458 350.379505 
L 262.831792 349.97062 
L 268.651125 350.400705 
L 274.470458 350.377888 
L 280.289792 350.483775 
L 286.109125 348.865372 
L 291.928458 351.759171 
L 297.747792 350.414821 
L 303.567125 350.232191 
L 309.386458 350.905311 
L 315.205792 350.670849 
L 332.663792 350.96106 
L 338.483125 350.76334 
L 344.302458 350.696259 
L 350.121792 350.812875 
L 355.941125 351.347699 
L 367.579792 351.230381 
L 373.399125 351.423439 
L 385.037792 351.348706 
L 390.857125 351.602131 
L 414.134458 351.876843 
L 419.953792 352.15906 
L 425.773125 352.041257 
L 431.592458 352.177118 
L 437.411792 352.112553 
L 443.231125 352.188162 
L 449.050458 352.025241 
L 466.508458 352.557729 
L 472.327792 352.46813 
L 483.966458 352.641583 
L 489.785792 352.717867 
L 501.424458 352.70134 
L 507.243792 352.483743 
L 524.701792 353.101125 
L 536.340458 352.912973 
L 600.353125 353.080126 
L 693.462458 353.188252 
L 937.874458 353.181374 
L 943.693792 332.143905 
L 949.513125 352.557729 
L 949.513125 352.557729 
" clip-path="url(#p6f7310ed9c)" style="fill: none; stroke: #2b908f; stroke-linecap: square"/>
   </g>
   <g id="line2d_35">
    <path d="M 76.613125 289.590633 
L 82.432458 335.124978 
L 88.251792 346.827061 
L 94.071125 350.154616 
L 105.709792 350.338019 
L 111.529125 350.151964 
L 123.167792 350.242222 
L 128.987125 349.661158 
L 140.625792 349.545125 
L 146.445125 349.133184 
L 152.264458 349.616508 
L 158.083792 349.672975 
L 163.903125 349.135586 
L 169.722458 350.223772 
L 175.541792 349.755375 
L 181.361125 350.111328 
L 187.180458 349.60383 
L 192.999792 349.510653 
L 198.819125 350.105975 
L 204.638458 349.066485 
L 216.277125 349.122037 
L 222.096458 349.043079 
L 227.915792 349.545806 
L 233.735125 349.449513 
L 239.554458 349.060178 
L 245.373792 349.423374 
L 257.012458 348.974157 
L 262.831792 349.061322 
L 268.651125 348.303477 
L 274.470458 348.591749 
L 280.289792 348.674307 
L 286.109125 349.642523 
L 291.928458 348.779024 
L 297.747792 349.31008 
L 303.567125 349.131039 
L 309.386458 349.169611 
L 315.205792 349.634201 
L 321.025125 348.721206 
L 326.844458 350.129854 
L 332.663792 349.267967 
L 338.483125 349.465224 
L 344.302458 347.642278 
L 350.121792 351.217349 
L 355.941125 350.076224 
L 361.760458 350.195661 
L 367.579792 350.123581 
L 373.399125 350.838502 
L 379.218458 349.776461 
L 385.037792 350.745303 
L 396.676458 350.364066 
L 402.495792 350.271385 
L 408.315125 351.155735 
L 414.134458 350.883958 
L 419.953792 350.953937 
L 425.773125 351.257713 
L 431.592458 351.728571 
L 437.411792 351.890904 
L 443.231125 351.041428 
L 454.869792 351.645414 
L 460.689125 351.937744 
L 466.508458 350.955396 
L 472.327792 351.960572 
L 478.147125 351.702257 
L 483.966458 352.359579 
L 489.785792 352.513945 
L 495.605125 353.159656 
L 501.424458 353.084608 
L 507.243792 352.776312 
L 513.063125 352.598632 
L 536.340458 352.596862 
L 565.437125 352.784682 
L 600.353125 352.929033 
L 629.449792 353.047027 
L 664.365792 353.129971 
L 710.920458 353.174452 
L 792.391125 353.220812 
L 937.874458 353.153922 
L 943.693792 327.400453 
L 949.513125 351.033461 
L 949.513125 351.033461 
" clip-path="url(#p6f7310ed9c)" style="fill: none; stroke: #f45b5b; stroke-linecap: square"/>
   </g>
   <g id="line2d_36">
    <path d="M 76.613125 275.958566 
L 82.432458 329.053623 
L 88.251792 344.106111 
L 94.071125 348.744236 
L 99.890458 349.857424 
L 105.709792 350.439376 
L 111.529125 350.171471 
L 123.167792 350.313361 
L 128.987125 349.703613 
L 134.806458 349.632698 
L 140.625792 349.762095 
L 146.445125 349.137487 
L 152.264458 349.719248 
L 158.083792 349.665466 
L 163.903125 349.45418 
L 169.722458 350.179896 
L 175.541792 349.794879 
L 181.361125 349.968855 
L 187.180458 349.973974 
L 192.999792 349.718001 
L 198.819125 349.755686 
L 216.277125 348.807031 
L 222.096458 349.536118 
L 227.915792 349.665596 
L 233.735125 349.350008 
L 239.554458 349.529043 
L 245.373792 349.26122 
L 262.831792 349.153677 
L 268.651125 348.335443 
L 274.470458 348.478869 
L 280.289792 349.436934 
L 286.109125 349.22982 
L 291.928458 348.704449 
L 297.747792 349.449274 
L 303.567125 349.133059 
L 309.386458 349.881968 
L 315.205792 349.155632 
L 321.025125 349.446398 
L 326.844458 349.498416 
L 332.663792 349.712256 
L 344.302458 349.192734 
L 350.121792 349.859172 
L 355.941125 350.187639 
L 361.760458 350.374511 
L 367.579792 350.326757 
L 373.399125 350.528943 
L 379.218458 350.380496 
L 385.037792 350.375786 
L 414.134458 350.990843 
L 419.953792 351.574058 
L 425.773125 351.363192 
L 431.592458 351.515353 
L 437.411792 351.409302 
L 443.231125 351.552564 
L 449.050458 351.051961 
L 460.689125 351.991695 
L 466.508458 352.14678 
L 472.327792 351.94637 
L 478.147125 351.977182 
L 483.966458 352.273977 
L 489.785792 352.388338 
L 501.424458 352.303967 
L 507.243792 351.872884 
L 524.701792 353.082484 
L 530.521125 352.791053 
L 536.340458 352.67209 
L 641.088458 353.060499 
L 734.197792 353.20472 
L 932.055125 353.218558 
L 937.874458 353.161186 
L 943.693792 327.485064 
L 949.513125 351.100809 
L 949.513125 351.100809 
" clip-path="url(#p6f7310ed9c)" style="fill: none; stroke: #91e8e1; stroke-linecap: square"/>
   </g>
   <g id="line2d_37">
    <path d="M 76.613125 277.809875 
L 82.432458 332.081393 
L 88.251792 345.905674 
L 94.071125 349.846004 
L 99.890458 349.748024 
L 105.709792 349.814048 
L 111.529125 349.44904 
L 123.167792 349.575605 
L 128.987125 349.004452 
L 134.806458 348.876688 
L 140.625792 349.038657 
L 146.445125 348.34994 
L 152.264458 349.148536 
L 158.083792 349.044652 
L 163.903125 348.594842 
L 169.722458 349.39175 
L 175.541792 349.045279 
L 181.361125 349.444498 
L 187.180458 348.911917 
L 192.999792 348.730954 
L 198.819125 349.482635 
L 204.638458 348.471659 
L 210.457792 348.566497 
L 222.096458 348.105702 
L 227.915792 348.68839 
L 239.554458 347.713459 
L 245.373792 348.185456 
L 251.193125 347.827761 
L 257.012458 347.686279 
L 262.831792 347.777981 
L 268.651125 346.365444 
L 274.470458 347.860561 
L 280.289792 346.663198 
L 286.109125 348.305786 
L 291.928458 346.694963 
L 297.747792 348.284852 
L 303.567125 347.646678 
L 315.205792 347.999706 
L 321.025125 347.814424 
L 326.844458 348.21617 
L 332.663792 348.222041 
L 338.483125 347.803478 
L 344.302458 345.37837 
L 350.121792 350.792921 
L 355.941125 348.430107 
L 361.760458 348.417707 
L 367.579792 348.274227 
L 373.399125 350.003785 
L 379.218458 348.036525 
L 385.037792 349.592449 
L 390.857125 349.530851 
L 402.495792 348.689675 
L 408.315125 350.383851 
L 414.134458 349.602262 
L 419.953792 349.933703 
L 425.773125 350.077019 
L 431.592458 351.273576 
L 437.411792 351.469842 
L 443.231125 349.673275 
L 454.869792 351.272852 
L 460.689125 351.502767 
L 466.508458 349.66979 
L 472.327792 351.733195 
L 478.147125 351.322294 
L 483.966458 352.140098 
L 489.785792 352.427401 
L 495.605125 353.109092 
L 501.424458 352.974483 
L 507.243792 352.562461 
L 513.063125 352.335661 
L 542.159792 352.378933 
L 553.798458 352.535494 
L 571.256458 352.64148 
L 676.004458 353.123692 
L 774.933125 353.215922 
L 937.874458 353.162199 
L 943.693792 334.070354 
L 949.513125 351.423123 
L 949.513125 351.423123 
" clip-path="url(#p6f7310ed9c)" style="fill: none; stroke: #7cb5ec; stroke-linecap: square"/>
   </g>
   <g id="line2d_38">
    <path d="M 76.613125 265.565463 
L 82.432458 323.313675 
L 88.251792 342.691614 
L 94.071125 348.118892 
L 99.890458 349.24576 
L 105.709792 349.862358 
L 111.529125 349.467419 
L 117.348458 349.481676 
L 123.167792 349.717413 
L 128.987125 349.040955 
L 134.806458 348.743844 
L 140.625792 349.206871 
L 146.445125 348.404953 
L 152.264458 349.213619 
L 158.083792 349.057553 
L 163.903125 348.611479 
L 169.722458 349.481763 
L 175.541792 349.14865 
L 187.180458 349.322006 
L 192.999792 348.904151 
L 198.819125 349.171986 
L 204.638458 348.79553 
L 210.457792 348.542759 
L 216.277125 347.755032 
L 222.096458 348.833563 
L 227.915792 348.766863 
L 233.735125 348.109455 
L 245.373792 348.085253 
L 257.012458 347.591975 
L 262.831792 346.500434 
L 268.651125 348.314325 
L 274.470458 347.347732 
L 280.289792 347.96891 
L 286.109125 347.527546 
L 291.928458 346.385343 
L 297.747792 348.269691 
L 303.567125 347.38607 
L 309.386458 348.497401 
L 315.205792 348.131951 
L 321.025125 347.900631 
L 326.844458 348.315839 
L 332.663792 348.420915 
L 338.483125 347.958661 
L 344.302458 347.745186 
L 350.121792 348.108093 
L 355.941125 348.950756 
L 367.579792 348.834358 
L 373.399125 349.211511 
L 385.037792 348.867017 
L 390.857125 349.541525 
L 396.676458 349.497801 
L 402.495792 349.880051 
L 408.315125 349.80137 
L 414.134458 350.069172 
L 419.953792 350.675156 
L 425.773125 350.403782 
L 431.592458 350.725671 
L 437.411792 350.535946 
L 443.231125 350.743691 
L 449.050458 350.255178 
L 460.689125 351.368502 
L 466.508458 351.609314 
L 472.327792 351.352115 
L 478.147125 351.458793 
L 483.966458 351.796888 
L 489.785792 352.004983 
L 495.605125 351.906142 
L 501.424458 351.975368 
L 507.243792 351.468056 
L 513.063125 351.88316 
L 518.882458 351.978674 
L 524.701792 352.782945 
L 536.340458 352.487016 
L 594.533792 352.797343 
L 617.811125 352.972724 
L 827.307125 353.222528 
L 937.874458 353.145094 
L 943.693792 334.176607 
L 949.513125 351.474542 
L 949.513125 351.474542 
" clip-path="url(#p6f7310ed9c)" style="fill: none; stroke: #434348; stroke-linecap: square"/>
   </g>
   <g id="line2d_39">
    <path d="M 32.968125 353.2239 
L 993.158125 353.2239 
" clip-path="url(#p6f7310ed9c)" style="fill: none; stroke: #dedede; stroke-width: 2; stroke-linecap: square"/>
   </g>
   <g id="text_18">
    <!-- Cutadapt: Lengths of Trimmed Sequences (3' end) -->
    <g transform="translate(311.710625 19.3575) scale(0.16 -0.16)">
     <defs>
      <path id="DejaVuSans-61" d="M 2194 1759 
Q 1497 1759 1228 1600 
Q 959 1441 959 1056 
Q 959 750 1161 570 
Q 1363 391 1709 391 
Q 2188 391 2477 730 
Q 2766 1069 2766 1631 
L 2766 1759 
L 2194 1759 
z
M 3341 1997 
L 3341 0 
L 2766 0 
L 2766 531 
Q 2569 213 2275 61 
Q 1981 -91 1556 -91 
Q 1019 -91 701 211 
Q 384 513 384 1019 
Q 384 1609 779 1909 
Q 1175 2209 1959 2209 
L 2766 2209 
L 2766 2266 
Q 2766 2663 2505 2880 
Q 2244 3097 1772 3097 
Q 1472 3097 1187 3025 
Q 903 2953 641 2809 
L 641 3341 
Q 956 3463 1253 3523 
Q 1550 3584 1831 3584 
Q 2591 3584 2966 3190 
Q 3341 2797 3341 1997 
z
" transform="scale(0.015625)"/>
      <path id="DejaVuSans-3a" d="M 750 794 
L 1409 794 
L 1409 0 
L 750 0 
L 750 794 
z
M 750 3309 
L 1409 3309 
L 1409 2516 
L 750 2516 
L 750 3309 
z
" transform="scale(0.015625)"/>
      <path id="DejaVuSans-73" d="M 2834 3397 
L 2834 2853 
Q 2591 2978 2328 3040 
Q 2066 3103 1784 3103 
Q 1356 3103 1142 2972 
Q 928 2841 928 2578 
Q 928 2378 1081 2264 
Q 1234 2150 1697 2047 
L 1894 2003 
Q 2506 1872 2764 1633 
Q 3022 1394 3022 966 
Q 3022 478 2636 193 
Q 2250 -91 1575 -91 
Q 1294 -91 989 -36 
Q 684 19 347 128 
L 347 722 
Q 666 556 975 473 
Q 1284 391 1588 391 
Q 1994 391 2212 530 
Q 2431 669 2431 922 
Q 2431 1156 2273 1281 
Q 2116 1406 1581 1522 
L 1381 1569 
Q 847 1681 609 1914 
Q 372 2147 372 2553 
Q 372 3047 722 3315 
Q 1072 3584 1716 3584 
Q 2034 3584 2315 3537 
Q 2597 3491 2834 3397 
z
" transform="scale(0.015625)"/>
      <path id="DejaVuSans-66" d="M 2375 4863 
L 2375 4384 
L 1825 4384 
Q 1516 4384 1395 4259 
Q 1275 4134 1275 3809 
L 1275 3500 
L 2222 3500 
L 2222 3053 
L 1275 3053 
L 1275 0 
L 697 0 
L 697 3053 
L 147 3053 
L 147 3500 
L 697 3500 
L 697 3744 
Q 697 4328 969 4595 
Q 1241 4863 1831 4863 
L 2375 4863 
z
" transform="scale(0.015625)"/>
      <path id="DejaVuSans-53" d="M 3425 4513 
L 3425 3897 
Q 3066 4069 2747 4153 
Q 2428 4238 2131 4238 
Q 1616 4238 1336 4038 
Q 1056 3838 1056 3469 
Q 1056 3159 1242 3001 
Q 1428 2844 1947 2747 
L 2328 2669 
Q 3034 2534 3370 2195 
Q 3706 1856 3706 1288 
Q 3706 609 3251 259 
Q 2797 -91 1919 -91 
Q 1588 -91 1214 -16 
Q 841 59 441 206 
L 441 856 
Q 825 641 1194 531 
Q 1563 422 1919 422 
Q 2459 422 2753 634 
Q 3047 847 3047 1241 
Q 3047 1584 2836 1778 
Q 2625 1972 2144 2069 
L 1759 2144 
Q 1053 2284 737 2584 
Q 422 2884 422 3419 
Q 422 4038 858 4394 
Q 1294 4750 2059 4750 
Q 2388 4750 2728 4690 
Q 3069 4631 3425 4513 
z
" transform="scale(0.015625)"/>
      <path id="DejaVuSans-71" d="M 947 1747 
Q 947 1113 1208 752 
Q 1469 391 1925 391 
Q 2381 391 2643 752 
Q 2906 1113 2906 1747 
Q 2906 2381 2643 2742 
Q 2381 3103 1925 3103 
Q 1469 3103 1208 2742 
Q 947 2381 947 1747 
z
M 2906 525 
Q 2725 213 2448 61 
Q 2172 -91 1784 -91 
Q 1150 -91 751 415 
Q 353 922 353 1747 
Q 353 2572 751 3078 
Q 1150 3584 1784 3584 
Q 2172 3584 2448 3432 
Q 2725 3281 2906 2969 
L 2906 3500 
L 3481 3500 
L 3481 -1331 
L 2906 -1331 
L 2906 525 
z
" transform="scale(0.015625)"/>
      <path id="DejaVuSans-63" d="M 3122 3366 
L 3122 2828 
Q 2878 2963 2633 3030 
Q 2388 3097 2138 3097 
Q 1578 3097 1268 2742 
Q 959 2388 959 1747 
Q 959 1106 1268 751 
Q 1578 397 2138 397 
Q 2388 397 2633 464 
Q 2878 531 3122 666 
L 3122 134 
Q 2881 22 2623 -34 
Q 2366 -91 2075 -91 
Q 1284 -91 818 406 
Q 353 903 353 1747 
Q 353 2603 823 3093 
Q 1294 3584 2113 3584 
Q 2378 3584 2631 3529 
Q 2884 3475 3122 3366 
z
" transform="scale(0.015625)"/>
      <path id="DejaVuSans-27" d="M 1147 4666 
L 1147 2931 
L 616 2931 
L 616 4666 
L 1147 4666 
z
" transform="scale(0.015625)"/>
     </defs>
     <use xlink:href="#DejaVuSans-43"/>
     <use xlink:href="#DejaVuSans-75" x="69.824219"/>
     <use xlink:href="#DejaVuSans-74" x="133.203125"/>
     <use xlink:href="#DejaVuSans-61" x="172.412109"/>
     <use xlink:href="#DejaVuSans-64" x="233.691406"/>
     <use xlink:href="#DejaVuSans-61" x="297.167969"/>
     <use xlink:href="#DejaVuSans-70" x="358.447266"/>
     <use xlink:href="#DejaVuSans-74" x="421.923828"/>
     <use xlink:href="#DejaVuSans-3a" x="461.132812"/>
     <use xlink:href="#DejaVuSans-20" x="494.824219"/>
     <use xlink:href="#DejaVuSans-4c" x="526.611328"/>
     <use xlink:href="#DejaVuSans-65" x="580.574219"/>
     <use xlink:href="#DejaVuSans-6e" x="642.097656"/>
     <use xlink:href="#DejaVuSans-67" x="705.476562"/>
     <use xlink:href="#DejaVuSans-74" x="768.953125"/>
     <use xlink:href="#DejaVuSans-68" x="808.162109"/>
     <use xlink:href="#DejaVuSans-73" x="871.541016"/>
     <use xlink:href="#DejaVuSans-20" x="923.640625"/>
     <use xlink:href="#DejaVuSans-6f" x="955.427734"/>
     <use xlink:href="#DejaVuSans-66" x="1016.609375"/>
     <use xlink:href="#DejaVuSans-20" x="1051.814453"/>
     <use xlink:href="#DejaVuSans-54" x="1083.601562"/>
     <use xlink:href="#DejaVuSans-72" x="1129.935547"/>
     <use xlink:href="#DejaVuSans-69" x="1171.048828"/>
     <use xlink:href="#DejaVuSans-6d" x="1198.832031"/>
     <use xlink:href="#DejaVuSans-6d" x="1296.244141"/>
     <use xlink:href="#DejaVuSans-65" x="1393.65625"/>
     <use xlink:href="#DejaVuSans-64" x="1455.179688"/>
     <use xlink:href="#DejaVuSans-20" x="1518.65625"/>
     <use xlink:href="#DejaVuSans-53" x="1550.443359"/>
     <use xlink:href="#DejaVuSans-65" x="1613.919922"/>
     <use xlink:href="#DejaVuSans-71" x="1675.443359"/>
     <use xlink:href="#DejaVuSans-75" x="1738.919922"/>
     <use xlink:href="#DejaVuSans-65" x="1802.298828"/>
     <use xlink:href="#DejaVuSans-6e" x="1863.822266"/>
     <use xlink:href="#DejaVuSans-63" x="1927.201172"/>
     <use xlink:href="#DejaVuSans-65" x="1982.181641"/>
     <use xlink:href="#DejaVuSans-73" x="2043.705078"/>
     <use xlink:href="#DejaVuSans-20" x="2095.804688"/>
     <use xlink:href="#DejaVuSans-28" x="2127.591797"/>
     <use xlink:href="#DejaVuSans-33" x="2166.605469"/>
     <use xlink:href="#DejaVuSans-27" x="2230.228516"/>
     <use xlink:href="#DejaVuSans-20" x="2257.71875"/>
     <use xlink:href="#DejaVuSans-65" x="2289.505859"/>
     <use xlink:href="#DejaVuSans-6e" x="2351.029297"/>
     <use xlink:href="#DejaVuSans-64" x="2414.408203"/>
     <use xlink:href="#DejaVuSans-29" x="2477.884766"/>
    </g>
   </g>
  </g>
 </g>
 <defs>
  <clipPath id="p6f7310ed9c">
   <rect x="32.968125" y="35.2559" width="960.19" height="317.968"/>
  </clipPath>
 </defs>
</svg>
