<?xml version="1.0" encoding="utf-8" standalone="no"?>
<!DOCTYPE svg PUBLIC "-//W3C//DTD SVG 1.1//EN"
  "http://www.w3.org/Graphics/SVG/1.1/DTD/svg11.dtd">
<svg xmlns:xlink="http://www.w3.org/1999/xlink" width="1000.240625pt" height="388.844525pt" viewBox="0 0 1000.240625 388.844525" xmlns="http://www.w3.org/2000/svg" version="1.1">
 <metadata>
  <rdf:RDF xmlns:dc="http://purl.org/dc/elements/1.1/" xmlns:cc="http://creativecommons.org/ns#" xmlns:rdf="http://www.w3.org/1999/02/22-rdf-syntax-ns#">
   <cc:Work>
    <dc:type rdf:resource="http://purl.org/dc/dcmitype/StillImage"/>
    <dc:date>2024-09-01T20:20:50.265020</dc:date>
    <dc:format>image/svg+xml</dc:format>
    <dc:creator>
     <cc:Agent>
      <dc:title>Matplotlib v3.8.2, https://matplotlib.org/</dc:title>
     </cc:Agent>
    </dc:creator>
   </cc:Work>
  </rdf:RDF>
 </metadata>
 <defs>
  <style type="text/css">*{stroke-linejoin: round; stroke-linecap: butt}</style>
 </defs>
 <g id="figure_1">
  <g id="axes_1">
   <g id="patch_1">
    <path d="M 45.690625 353.2239 
L 985.405625 353.2239 
L 985.405625 35.2559 
L 45.690625 35.2559 
z
" style="fill: #ffffff"/>
   </g>
   <g id="matplotlib.axis_1">
    <g id="xtick_1">
     <g id="text_1">
      <!-- 0 -->
      <g transform="translate(43.145625 366.30265) scale(0.08 -0.08)">
       <defs>
        <path id="DejaVuSans-30" d="M 2034 4250 
Q 1547 4250 1301 3770 
Q 1056 3291 1056 2328 
Q 1056 1369 1301 889 
Q 1547 409 2034 409 
Q 2525 409 2770 889 
Q 3016 1369 3016 2328 
Q 3016 3291 2770 3770 
Q 2525 4250 2034 4250 
z
M 2034 4750 
Q 2819 4750 3233 4129 
Q 3647 3509 3647 2328 
Q 3647 1150 3233 529 
Q 2819 -91 2034 -91 
Q 1250 -91 836 529 
Q 422 1150 422 2328 
Q 422 3509 836 4129 
Q 1250 4750 2034 4750 
z
" transform="scale(0.015625)"/>
       </defs>
       <use xlink:href="#DejaVuSans-30"/>
      </g>
     </g>
    </g>
    <g id="xtick_2">
     <g id="text_2">
      <!-- 20 -->
      <g transform="translate(228.543625 366.30265) scale(0.08 -0.08)">
       <defs>
        <path id="DejaVuSans-32" d="M 1228 531 
L 3431 531 
L 3431 0 
L 469 0 
L 469 531 
Q 828 903 1448 1529 
Q 2069 2156 2228 2338 
Q 2531 2678 2651 2914 
Q 2772 3150 2772 3378 
Q 2772 3750 2511 3984 
Q 2250 4219 1831 4219 
Q 1534 4219 1204 4116 
Q 875 4013 500 3803 
L 500 4441 
Q 881 4594 1212 4672 
Q 1544 4750 1819 4750 
Q 2544 4750 2975 4387 
Q 3406 4025 3406 3419 
Q 3406 3131 3298 2873 
Q 3191 2616 2906 2266 
Q 2828 2175 2409 1742 
Q 1991 1309 1228 531 
z
" transform="scale(0.015625)"/>
       </defs>
       <use xlink:href="#DejaVuSans-32"/>
       <use xlink:href="#DejaVuSans-30" x="63.623047"/>
      </g>
     </g>
    </g>
    <g id="xtick_3">
     <g id="text_3">
      <!-- 40 -->
      <g transform="translate(416.486625 366.30265) scale(0.08 -0.08)">
       <defs>
        <path id="DejaVuSans-34" d="M 2419 4116 
L 825 1625 
L 2419 1625 
L 2419 4116 
z
M 2253 4666 
L 3047 4666 
L 3047 1625 
L 3713 1625 
L 3713 1100 
L 3047 1100 
L 3047 0 
L 2419 0 
L 2419 1100 
L 313 1100 
L 313 1709 
L 2253 4666 
z
" transform="scale(0.015625)"/>
       </defs>
       <use xlink:href="#DejaVuSans-34"/>
       <use xlink:href="#DejaVuSans-30" x="63.623047"/>
      </g>
     </g>
    </g>
    <g id="xtick_4">
     <g id="text_4">
      <!-- 60 -->
      <g transform="translate(604.429625 366.30265) scale(0.08 -0.08)">
       <defs>
        <path id="DejaVuSans-36" d="M 2113 2584 
Q 1688 2584 1439 2293 
Q 1191 2003 1191 1497 
Q 1191 994 1439 701 
Q 1688 409 2113 409 
Q 2538 409 2786 701 
Q 3034 994 3034 1497 
Q 3034 2003 2786 2293 
Q 2538 2584 2113 2584 
z
M 3366 4563 
L 3366 3988 
Q 3128 4100 2886 4159 
Q 2644 4219 2406 4219 
Q 1781 4219 1451 3797 
Q 1122 3375 1075 2522 
Q 1259 2794 1537 2939 
Q 1816 3084 2150 3084 
Q 2853 3084 3261 2657 
Q 3669 2231 3669 1497 
Q 3669 778 3244 343 
Q 2819 -91 2113 -91 
Q 1303 -91 875 529 
Q 447 1150 447 2328 
Q 447 3434 972 4092 
Q 1497 4750 2381 4750 
Q 2619 4750 2861 4703 
Q 3103 4656 3366 4563 
z
" transform="scale(0.015625)"/>
       </defs>
       <use xlink:href="#DejaVuSans-36"/>
       <use xlink:href="#DejaVuSans-30" x="63.623047"/>
      </g>
     </g>
    </g>
    <g id="xtick_5">
     <g id="text_5">
      <!-- 80 -->
      <g transform="translate(792.372625 366.30265) scale(0.08 -0.08)">
       <defs>
        <path id="DejaVuSans-38" d="M 2034 2216 
Q 1584 2216 1326 1975 
Q 1069 1734 1069 1313 
Q 1069 891 1326 650 
Q 1584 409 2034 409 
Q 2484 409 2743 651 
Q 3003 894 3003 1313 
Q 3003 1734 2745 1975 
Q 2488 2216 2034 2216 
z
M 1403 2484 
Q 997 2584 770 2862 
Q 544 3141 544 3541 
Q 544 4100 942 4425 
Q 1341 4750 2034 4750 
Q 2731 4750 3128 4425 
Q 3525 4100 3525 3541 
Q 3525 3141 3298 2862 
Q 3072 2584 2669 2484 
Q 3125 2378 3379 2068 
Q 3634 1759 3634 1313 
Q 3634 634 3220 271 
Q 2806 -91 2034 -91 
Q 1263 -91 848 271 
Q 434 634 434 1313 
Q 434 1759 690 2068 
Q 947 2378 1403 2484 
z
M 1172 3481 
Q 1172 3119 1398 2916 
Q 1625 2713 2034 2713 
Q 2441 2713 2670 2916 
Q 2900 3119 2900 3481 
Q 2900 3844 2670 4047 
Q 2441 4250 2034 4250 
Q 1625 4250 1398 4047 
Q 1172 3844 1172 3481 
z
" transform="scale(0.015625)"/>
       </defs>
       <use xlink:href="#DejaVuSans-38"/>
       <use xlink:href="#DejaVuSans-30" x="63.623047"/>
      </g>
     </g>
    </g>
    <g id="xtick_6">
     <g id="text_6">
      <!-- 100 -->
      <g transform="translate(977.770625 366.30265) scale(0.08 -0.08)">
       <defs>
        <path id="DejaVuSans-31" d="M 794 531 
L 1825 531 
L 1825 4091 
L 703 3866 
L 703 4441 
L 1819 4666 
L 2450 4666 
L 2450 531 
L 3481 531 
L 3481 0 
L 794 0 
L 794 531 
z
" transform="scale(0.015625)"/>
       </defs>
       <use xlink:href="#DejaVuSans-31"/>
       <use xlink:href="#DejaVuSans-30" x="63.623047"/>
       <use xlink:href="#DejaVuSans-30" x="127.246094"/>
      </g>
     </g>
    </g>
    <g id="text_7">
     <!-- Transcript Position (%) -->
     <g transform="translate(459.716094 379.564837) scale(0.1 -0.1)">
      <defs>
       <path id="DejaVuSans-54" d="M -19 4666 
L 3928 4666 
L 3928 4134 
L 2272 4134 
L 2272 0 
L 1638 0 
L 1638 4134 
L -19 4134 
L -19 4666 
z
" transform="scale(0.015625)"/>
       <path id="DejaVuSans-72" d="M 2631 2963 
Q 2534 3019 2420 3045 
Q 2306 3072 2169 3072 
Q 1681 3072 1420 2755 
Q 1159 2438 1159 1844 
L 1159 0 
L 581 0 
L 581 3500 
L 1159 3500 
L 1159 2956 
Q 1341 3275 1631 3429 
Q 1922 3584 2338 3584 
Q 2397 3584 2469 3576 
Q 2541 3569 2628 3553 
L 2631 2963 
z
" transform="scale(0.015625)"/>
       <path id="DejaVuSans-61" d="M 2194 1759 
Q 1497 1759 1228 1600 
Q 959 1441 959 1056 
Q 959 750 1161 570 
Q 1363 391 1709 391 
Q 2188 391 2477 730 
Q 2766 1069 2766 1631 
L 2766 1759 
L 2194 1759 
z
M 3341 1997 
L 3341 0 
L 2766 0 
L 2766 531 
Q 2569 213 2275 61 
Q 1981 -91 1556 -91 
Q 1019 -91 701 211 
Q 384 513 384 1019 
Q 384 1609 779 1909 
Q 1175 2209 1959 2209 
L 2766 2209 
L 2766 2266 
Q 2766 2663 2505 2880 
Q 2244 3097 1772 3097 
Q 1472 3097 1187 3025 
Q 903 2953 641 2809 
L 641 3341 
Q 956 3463 1253 3523 
Q 1550 3584 1831 3584 
Q 2591 3584 2966 3190 
Q 3341 2797 3341 1997 
z
" transform="scale(0.015625)"/>
       <path id="DejaVuSans-6e" d="M 3513 2113 
L 3513 0 
L 2938 0 
L 2938 2094 
Q 2938 2591 2744 2837 
Q 2550 3084 2163 3084 
Q 1697 3084 1428 2787 
Q 1159 2491 1159 1978 
L 1159 0 
L 581 0 
L 581 3500 
L 1159 3500 
L 1159 2956 
Q 1366 3272 1645 3428 
Q 1925 3584 2291 3584 
Q 2894 3584 3203 3211 
Q 3513 2838 3513 2113 
z
" transform="scale(0.015625)"/>
       <path id="DejaVuSans-73" d="M 2834 3397 
L 2834 2853 
Q 2591 2978 2328 3040 
Q 2066 3103 1784 3103 
Q 1356 3103 1142 2972 
Q 928 2841 928 2578 
Q 928 2378 1081 2264 
Q 1234 2150 1697 2047 
L 1894 2003 
Q 2506 1872 2764 1633 
Q 3022 1394 3022 966 
Q 3022 478 2636 193 
Q 2250 -91 1575 -91 
Q 1294 -91 989 -36 
Q 684 19 347 128 
L 347 722 
Q 666 556 975 473 
Q 1284 391 1588 391 
Q 1994 391 2212 530 
Q 2431 669 2431 922 
Q 2431 1156 2273 1281 
Q 2116 1406 1581 1522 
L 1381 1569 
Q 847 1681 609 1914 
Q 372 2147 372 2553 
Q 372 3047 722 3315 
Q 1072 3584 1716 3584 
Q 2034 3584 2315 3537 
Q 2597 3491 2834 3397 
z
" transform="scale(0.015625)"/>
       <path id="DejaVuSans-63" d="M 3122 3366 
L 3122 2828 
Q 2878 2963 2633 3030 
Q 2388 3097 2138 3097 
Q 1578 3097 1268 2742 
Q 959 2388 959 1747 
Q 959 1106 1268 751 
Q 1578 397 2138 397 
Q 2388 397 2633 464 
Q 2878 531 3122 666 
L 3122 134 
Q 2881 22 2623 -34 
Q 2366 -91 2075 -91 
Q 1284 -91 818 406 
Q 353 903 353 1747 
Q 353 2603 823 3093 
Q 1294 3584 2113 3584 
Q 2378 3584 2631 3529 
Q 2884 3475 3122 3366 
z
" transform="scale(0.015625)"/>
       <path id="DejaVuSans-69" d="M 603 3500 
L 1178 3500 
L 1178 0 
L 603 0 
L 603 3500 
z
M 603 4863 
L 1178 4863 
L 1178 4134 
L 603 4134 
L 603 4863 
z
" transform="scale(0.015625)"/>
       <path id="DejaVuSans-70" d="M 1159 525 
L 1159 -1331 
L 581 -1331 
L 581 3500 
L 1159 3500 
L 1159 2969 
Q 1341 3281 1617 3432 
Q 1894 3584 2278 3584 
Q 2916 3584 3314 3078 
Q 3713 2572 3713 1747 
Q 3713 922 3314 415 
Q 2916 -91 2278 -91 
Q 1894 -91 1617 61 
Q 1341 213 1159 525 
z
M 3116 1747 
Q 3116 2381 2855 2742 
Q 2594 3103 2138 3103 
Q 1681 3103 1420 2742 
Q 1159 2381 1159 1747 
Q 1159 1113 1420 752 
Q 1681 391 2138 391 
Q 2594 391 2855 752 
Q 3116 1113 3116 1747 
z
" transform="scale(0.015625)"/>
       <path id="DejaVuSans-74" d="M 1172 4494 
L 1172 3500 
L 2356 3500 
L 2356 3053 
L 1172 3053 
L 1172 1153 
Q 1172 725 1289 603 
Q 1406 481 1766 481 
L 2356 481 
L 2356 0 
L 1766 0 
Q 1100 0 847 248 
Q 594 497 594 1153 
L 594 3053 
L 172 3053 
L 172 3500 
L 594 3500 
L 594 4494 
L 1172 4494 
z
" transform="scale(0.015625)"/>
       <path id="DejaVuSans-20" transform="scale(0.015625)"/>
       <path id="DejaVuSans-50" d="M 1259 4147 
L 1259 2394 
L 2053 2394 
Q 2494 2394 2734 2622 
Q 2975 2850 2975 3272 
Q 2975 3691 2734 3919 
Q 2494 4147 2053 4147 
L 1259 4147 
z
M 628 4666 
L 2053 4666 
Q 2838 4666 3239 4311 
Q 3641 3956 3641 3272 
Q 3641 2581 3239 2228 
Q 2838 1875 2053 1875 
L 1259 1875 
L 1259 0 
L 628 0 
L 628 4666 
z
" transform="scale(0.015625)"/>
       <path id="DejaVuSans-6f" d="M 1959 3097 
Q 1497 3097 1228 2736 
Q 959 2375 959 1747 
Q 959 1119 1226 758 
Q 1494 397 1959 397 
Q 2419 397 2687 759 
Q 2956 1122 2956 1747 
Q 2956 2369 2687 2733 
Q 2419 3097 1959 3097 
z
M 1959 3584 
Q 2709 3584 3137 3096 
Q 3566 2609 3566 1747 
Q 3566 888 3137 398 
Q 2709 -91 1959 -91 
Q 1206 -91 779 398 
Q 353 888 353 1747 
Q 353 2609 779 3096 
Q 1206 3584 1959 3584 
z
" transform="scale(0.015625)"/>
       <path id="DejaVuSans-28" d="M 1984 4856 
Q 1566 4138 1362 3434 
Q 1159 2731 1159 2009 
Q 1159 1288 1364 580 
Q 1569 -128 1984 -844 
L 1484 -844 
Q 1016 -109 783 600 
Q 550 1309 550 2009 
Q 550 2706 781 3412 
Q 1013 4119 1484 4856 
L 1984 4856 
z
" transform="scale(0.015625)"/>
       <path id="DejaVuSans-25" d="M 4653 2053 
Q 4381 2053 4226 1822 
Q 4072 1591 4072 1178 
Q 4072 772 4226 539 
Q 4381 306 4653 306 
Q 4919 306 5073 539 
Q 5228 772 5228 1178 
Q 5228 1588 5073 1820 
Q 4919 2053 4653 2053 
z
M 4653 2450 
Q 5147 2450 5437 2106 
Q 5728 1763 5728 1178 
Q 5728 594 5436 251 
Q 5144 -91 4653 -91 
Q 4153 -91 3862 251 
Q 3572 594 3572 1178 
Q 3572 1766 3864 2108 
Q 4156 2450 4653 2450 
z
M 1428 4353 
Q 1159 4353 1004 4120 
Q 850 3888 850 3481 
Q 850 3069 1003 2837 
Q 1156 2606 1428 2606 
Q 1700 2606 1854 2837 
Q 2009 3069 2009 3481 
Q 2009 3884 1853 4118 
Q 1697 4353 1428 4353 
z
M 4250 4750 
L 4750 4750 
L 1831 -91 
L 1331 -91 
L 4250 4750 
z
M 1428 4750 
Q 1922 4750 2215 4408 
Q 2509 4066 2509 3481 
Q 2509 2891 2217 2550 
Q 1925 2209 1428 2209 
Q 931 2209 642 2551 
Q 353 2894 353 3481 
Q 353 4063 643 4406 
Q 934 4750 1428 4750 
z
" transform="scale(0.015625)"/>
       <path id="DejaVuSans-29" d="M 513 4856 
L 1013 4856 
Q 1481 4119 1714 3412 
Q 1947 2706 1947 2009 
Q 1947 1309 1714 600 
Q 1481 -109 1013 -844 
L 513 -844 
Q 928 -128 1133 580 
Q 1338 1288 1338 2009 
Q 1338 2731 1133 3434 
Q 928 4138 513 4856 
z
" transform="scale(0.015625)"/>
      </defs>
      <use xlink:href="#DejaVuSans-54"/>
      <use xlink:href="#DejaVuSans-72" x="46.333984"/>
      <use xlink:href="#DejaVuSans-61" x="87.447266"/>
      <use xlink:href="#DejaVuSans-6e" x="148.726562"/>
      <use xlink:href="#DejaVuSans-73" x="212.105469"/>
      <use xlink:href="#DejaVuSans-63" x="264.205078"/>
      <use xlink:href="#DejaVuSans-72" x="319.185547"/>
      <use xlink:href="#DejaVuSans-69" x="360.298828"/>
      <use xlink:href="#DejaVuSans-70" x="388.082031"/>
      <use xlink:href="#DejaVuSans-74" x="451.558594"/>
      <use xlink:href="#DejaVuSans-20" x="490.767578"/>
      <use xlink:href="#DejaVuSans-50" x="522.554688"/>
      <use xlink:href="#DejaVuSans-6f" x="579.232422"/>
      <use xlink:href="#DejaVuSans-73" x="640.414062"/>
      <use xlink:href="#DejaVuSans-69" x="692.513672"/>
      <use xlink:href="#DejaVuSans-74" x="720.296875"/>
      <use xlink:href="#DejaVuSans-69" x="759.505859"/>
      <use xlink:href="#DejaVuSans-6f" x="787.289062"/>
      <use xlink:href="#DejaVuSans-6e" x="848.470703"/>
      <use xlink:href="#DejaVuSans-20" x="911.849609"/>
      <use xlink:href="#DejaVuSans-28" x="943.636719"/>
      <use xlink:href="#DejaVuSans-25" x="982.650391"/>
      <use xlink:href="#DejaVuSans-29" x="1077.669922"/>
     </g>
    </g>
   </g>
   <g id="matplotlib.axis_2">
    <g id="ytick_1">
     <g id="line2d_1">
      <path d="M 45.690625 353.2239 
L 985.405625 353.2239 
" clip-path="url(#pa6f6954e12)" style="fill: none; stroke: #dedede; stroke-linecap: square"/>
     </g>
     <g id="text_8">
      <!-- 0.00 -->
      <g transform="translate(20.878125 356.263275) scale(0.08 -0.08)">
       <defs>
        <path id="DejaVuSans-2e" d="M 684 794 
L 1344 794 
L 1344 0 
L 684 0 
L 684 794 
z
" transform="scale(0.015625)"/>
       </defs>
       <use xlink:href="#DejaVuSans-30"/>
       <use xlink:href="#DejaVuSans-2e" x="63.623047"/>
       <use xlink:href="#DejaVuSans-30" x="95.410156"/>
       <use xlink:href="#DejaVuSans-30" x="159.033203"/>
      </g>
     </g>
    </g>
    <g id="ytick_2">
     <g id="line2d_2">
      <path d="M 45.690625 317.201579 
L 985.405625 317.201579 
" clip-path="url(#pa6f6954e12)" style="fill: none; stroke: #dedede; stroke-linecap: square"/>
     </g>
     <g id="text_9">
      <!-- 0.25 -->
      <g transform="translate(20.878125 320.240954) scale(0.08 -0.08)">
       <defs>
        <path id="DejaVuSans-35" d="M 691 4666 
L 3169 4666 
L 3169 4134 
L 1269 4134 
L 1269 2991 
Q 1406 3038 1543 3061 
Q 1681 3084 1819 3084 
Q 2600 3084 3056 2656 
Q 3513 2228 3513 1497 
Q 3513 744 3044 326 
Q 2575 -91 1722 -91 
Q 1428 -91 1123 -41 
Q 819 9 494 109 
L 494 744 
Q 775 591 1075 516 
Q 1375 441 1709 441 
Q 2250 441 2565 725 
Q 2881 1009 2881 1497 
Q 2881 1984 2565 2268 
Q 2250 2553 1709 2553 
Q 1456 2553 1204 2497 
Q 953 2441 691 2322 
L 691 4666 
z
" transform="scale(0.015625)"/>
       </defs>
       <use xlink:href="#DejaVuSans-30"/>
       <use xlink:href="#DejaVuSans-2e" x="63.623047"/>
       <use xlink:href="#DejaVuSans-32" x="95.410156"/>
       <use xlink:href="#DejaVuSans-35" x="159.033203"/>
      </g>
     </g>
    </g>
    <g id="ytick_3">
     <g id="line2d_3">
      <path d="M 45.690625 281.179257 
L 985.405625 281.179257 
" clip-path="url(#pa6f6954e12)" style="fill: none; stroke: #dedede; stroke-linecap: square"/>
     </g>
     <g id="text_10">
      <!-- 0.50 -->
      <g transform="translate(20.878125 284.218632) scale(0.08 -0.08)">
       <use xlink:href="#DejaVuSans-30"/>
       <use xlink:href="#DejaVuSans-2e" x="63.623047"/>
       <use xlink:href="#DejaVuSans-35" x="95.410156"/>
       <use xlink:href="#DejaVuSans-30" x="159.033203"/>
      </g>
     </g>
    </g>
    <g id="ytick_4">
     <g id="line2d_4">
      <path d="M 45.690625 245.156936 
L 985.405625 245.156936 
" clip-path="url(#pa6f6954e12)" style="fill: none; stroke: #dedede; stroke-linecap: square"/>
     </g>
     <g id="text_11">
      <!-- 0.75 -->
      <g transform="translate(20.878125 248.196311) scale(0.08 -0.08)">
       <defs>
        <path id="DejaVuSans-37" d="M 525 4666 
L 3525 4666 
L 3525 4397 
L 1831 0 
L 1172 0 
L 2766 4134 
L 525 4134 
L 525 4666 
z
" transform="scale(0.015625)"/>
       </defs>
       <use xlink:href="#DejaVuSans-30"/>
       <use xlink:href="#DejaVuSans-2e" x="63.623047"/>
       <use xlink:href="#DejaVuSans-37" x="95.410156"/>
       <use xlink:href="#DejaVuSans-35" x="159.033203"/>
      </g>
     </g>
    </g>
    <g id="ytick_5">
     <g id="line2d_5">
      <path d="M 45.690625 209.134614 
L 985.405625 209.134614 
" clip-path="url(#pa6f6954e12)" style="fill: none; stroke: #dedede; stroke-linecap: square"/>
     </g>
     <g id="text_12">
      <!-- 1.00 -->
      <g transform="translate(20.878125 212.173989) scale(0.08 -0.08)">
       <use xlink:href="#DejaVuSans-31"/>
       <use xlink:href="#DejaVuSans-2e" x="63.623047"/>
       <use xlink:href="#DejaVuSans-30" x="95.410156"/>
       <use xlink:href="#DejaVuSans-30" x="159.033203"/>
      </g>
     </g>
    </g>
    <g id="ytick_6">
     <g id="line2d_6">
      <path d="M 45.690625 173.112293 
L 985.405625 173.112293 
" clip-path="url(#pa6f6954e12)" style="fill: none; stroke: #dedede; stroke-linecap: square"/>
     </g>
     <g id="text_13">
      <!-- 1.25 -->
      <g transform="translate(20.878125 176.151668) scale(0.08 -0.08)">
       <use xlink:href="#DejaVuSans-31"/>
       <use xlink:href="#DejaVuSans-2e" x="63.623047"/>
       <use xlink:href="#DejaVuSans-32" x="95.410156"/>
       <use xlink:href="#DejaVuSans-35" x="159.033203"/>
      </g>
     </g>
    </g>
    <g id="ytick_7">
     <g id="line2d_7">
      <path d="M 45.690625 137.089972 
L 985.405625 137.089972 
" clip-path="url(#pa6f6954e12)" style="fill: none; stroke: #dedede; stroke-linecap: square"/>
     </g>
     <g id="text_14">
      <!-- 1.50 -->
      <g transform="translate(20.878125 140.129347) scale(0.08 -0.08)">
       <use xlink:href="#DejaVuSans-31"/>
       <use xlink:href="#DejaVuSans-2e" x="63.623047"/>
       <use xlink:href="#DejaVuSans-35" x="95.410156"/>
       <use xlink:href="#DejaVuSans-30" x="159.033203"/>
      </g>
     </g>
    </g>
    <g id="ytick_8">
     <g id="line2d_8">
      <path d="M 45.690625 101.06765 
L 985.405625 101.06765 
" clip-path="url(#pa6f6954e12)" style="fill: none; stroke: #dedede; stroke-linecap: square"/>
     </g>
     <g id="text_15">
      <!-- 1.75 -->
      <g transform="translate(20.878125 104.107025) scale(0.08 -0.08)">
       <use xlink:href="#DejaVuSans-31"/>
       <use xlink:href="#DejaVuSans-2e" x="63.623047"/>
       <use xlink:href="#DejaVuSans-37" x="95.410156"/>
       <use xlink:href="#DejaVuSans-35" x="159.033203"/>
      </g>
     </g>
    </g>
    <g id="ytick_9">
     <g id="line2d_9">
      <path d="M 45.690625 65.045329 
L 985.405625 65.045329 
" clip-path="url(#pa6f6954e12)" style="fill: none; stroke: #dedede; stroke-linecap: square"/>
     </g>
     <g id="text_16">
      <!-- 2.00 -->
      <g transform="translate(20.878125 68.084704) scale(0.08 -0.08)">
       <use xlink:href="#DejaVuSans-32"/>
       <use xlink:href="#DejaVuSans-2e" x="63.623047"/>
       <use xlink:href="#DejaVuSans-30" x="95.410156"/>
       <use xlink:href="#DejaVuSans-30" x="159.033203"/>
      </g>
     </g>
    </g>
    <g id="text_17">
     <!-- Percentage total cumulative mapped-read depth -->
     <g transform="translate(14.798438 316.09615) rotate(-90) scale(0.1 -0.1)">
      <defs>
       <path id="DejaVuSans-65" d="M 3597 1894 
L 3597 1613 
L 953 1613 
Q 991 1019 1311 708 
Q 1631 397 2203 397 
Q 2534 397 2845 478 
Q 3156 559 3463 722 
L 3463 178 
Q 3153 47 2828 -22 
Q 2503 -91 2169 -91 
Q 1331 -91 842 396 
Q 353 884 353 1716 
Q 353 2575 817 3079 
Q 1281 3584 2069 3584 
Q 2775 3584 3186 3129 
Q 3597 2675 3597 1894 
z
M 3022 2063 
Q 3016 2534 2758 2815 
Q 2500 3097 2075 3097 
Q 1594 3097 1305 2825 
Q 1016 2553 972 2059 
L 3022 2063 
z
" transform="scale(0.015625)"/>
       <path id="DejaVuSans-67" d="M 2906 1791 
Q 2906 2416 2648 2759 
Q 2391 3103 1925 3103 
Q 1463 3103 1205 2759 
Q 947 2416 947 1791 
Q 947 1169 1205 825 
Q 1463 481 1925 481 
Q 2391 481 2648 825 
Q 2906 1169 2906 1791 
z
M 3481 434 
Q 3481 -459 3084 -895 
Q 2688 -1331 1869 -1331 
Q 1566 -1331 1297 -1286 
Q 1028 -1241 775 -1147 
L 775 -588 
Q 1028 -725 1275 -790 
Q 1522 -856 1778 -856 
Q 2344 -856 2625 -561 
Q 2906 -266 2906 331 
L 2906 616 
Q 2728 306 2450 153 
Q 2172 0 1784 0 
Q 1141 0 747 490 
Q 353 981 353 1791 
Q 353 2603 747 3093 
Q 1141 3584 1784 3584 
Q 2172 3584 2450 3431 
Q 2728 3278 2906 2969 
L 2906 3500 
L 3481 3500 
L 3481 434 
z
" transform="scale(0.015625)"/>
       <path id="DejaVuSans-6c" d="M 603 4863 
L 1178 4863 
L 1178 0 
L 603 0 
L 603 4863 
z
" transform="scale(0.015625)"/>
       <path id="DejaVuSans-75" d="M 544 1381 
L 544 3500 
L 1119 3500 
L 1119 1403 
Q 1119 906 1312 657 
Q 1506 409 1894 409 
Q 2359 409 2629 706 
Q 2900 1003 2900 1516 
L 2900 3500 
L 3475 3500 
L 3475 0 
L 2900 0 
L 2900 538 
Q 2691 219 2414 64 
Q 2138 -91 1772 -91 
Q 1169 -91 856 284 
Q 544 659 544 1381 
z
M 1991 3584 
L 1991 3584 
z
" transform="scale(0.015625)"/>
       <path id="DejaVuSans-6d" d="M 3328 2828 
Q 3544 3216 3844 3400 
Q 4144 3584 4550 3584 
Q 5097 3584 5394 3201 
Q 5691 2819 5691 2113 
L 5691 0 
L 5113 0 
L 5113 2094 
Q 5113 2597 4934 2840 
Q 4756 3084 4391 3084 
Q 3944 3084 3684 2787 
Q 3425 2491 3425 1978 
L 3425 0 
L 2847 0 
L 2847 2094 
Q 2847 2600 2669 2842 
Q 2491 3084 2119 3084 
Q 1678 3084 1418 2786 
Q 1159 2488 1159 1978 
L 1159 0 
L 581 0 
L 581 3500 
L 1159 3500 
L 1159 2956 
Q 1356 3278 1631 3431 
Q 1906 3584 2284 3584 
Q 2666 3584 2933 3390 
Q 3200 3197 3328 2828 
z
" transform="scale(0.015625)"/>
       <path id="DejaVuSans-76" d="M 191 3500 
L 800 3500 
L 1894 563 
L 2988 3500 
L 3597 3500 
L 2284 0 
L 1503 0 
L 191 3500 
z
" transform="scale(0.015625)"/>
       <path id="DejaVuSans-64" d="M 2906 2969 
L 2906 4863 
L 3481 4863 
L 3481 0 
L 2906 0 
L 2906 525 
Q 2725 213 2448 61 
Q 2172 -91 1784 -91 
Q 1150 -91 751 415 
Q 353 922 353 1747 
Q 353 2572 751 3078 
Q 1150 3584 1784 3584 
Q 2172 3584 2448 3432 
Q 2725 3281 2906 2969 
z
M 947 1747 
Q 947 1113 1208 752 
Q 1469 391 1925 391 
Q 2381 391 2643 752 
Q 2906 1113 2906 1747 
Q 2906 2381 2643 2742 
Q 2381 3103 1925 3103 
Q 1469 3103 1208 2742 
Q 947 2381 947 1747 
z
" transform="scale(0.015625)"/>
       <path id="DejaVuSans-2d" d="M 313 2009 
L 1997 2009 
L 1997 1497 
L 313 1497 
L 313 2009 
z
" transform="scale(0.015625)"/>
       <path id="DejaVuSans-68" d="M 3513 2113 
L 3513 0 
L 2938 0 
L 2938 2094 
Q 2938 2591 2744 2837 
Q 2550 3084 2163 3084 
Q 1697 3084 1428 2787 
Q 1159 2491 1159 1978 
L 1159 0 
L 581 0 
L 581 4863 
L 1159 4863 
L 1159 2956 
Q 1366 3272 1645 3428 
Q 1925 3584 2291 3584 
Q 2894 3584 3203 3211 
Q 3513 2838 3513 2113 
z
" transform="scale(0.015625)"/>
      </defs>
      <use xlink:href="#DejaVuSans-50"/>
      <use xlink:href="#DejaVuSans-65" x="56.677734"/>
      <use xlink:href="#DejaVuSans-72" x="118.201172"/>
      <use xlink:href="#DejaVuSans-63" x="157.064453"/>
      <use xlink:href="#DejaVuSans-65" x="212.044922"/>
      <use xlink:href="#DejaVuSans-6e" x="273.568359"/>
      <use xlink:href="#DejaVuSans-74" x="336.947266"/>
      <use xlink:href="#DejaVuSans-61" x="376.15625"/>
      <use xlink:href="#DejaVuSans-67" x="437.435547"/>
      <use xlink:href="#DejaVuSans-65" x="500.912109"/>
      <use xlink:href="#DejaVuSans-20" x="562.435547"/>
      <use xlink:href="#DejaVuSans-74" x="594.222656"/>
      <use xlink:href="#DejaVuSans-6f" x="633.431641"/>
      <use xlink:href="#DejaVuSans-74" x="694.613281"/>
      <use xlink:href="#DejaVuSans-61" x="733.822266"/>
      <use xlink:href="#DejaVuSans-6c" x="795.101562"/>
      <use xlink:href="#DejaVuSans-20" x="822.884766"/>
      <use xlink:href="#DejaVuSans-63" x="854.671875"/>
      <use xlink:href="#DejaVuSans-75" x="909.652344"/>
      <use xlink:href="#DejaVuSans-6d" x="973.03125"/>
      <use xlink:href="#DejaVuSans-75" x="1070.443359"/>
      <use xlink:href="#DejaVuSans-6c" x="1133.822266"/>
      <use xlink:href="#DejaVuSans-61" x="1161.605469"/>
      <use xlink:href="#DejaVuSans-74" x="1222.884766"/>
      <use xlink:href="#DejaVuSans-69" x="1262.09375"/>
      <use xlink:href="#DejaVuSans-76" x="1289.876953"/>
      <use xlink:href="#DejaVuSans-65" x="1349.056641"/>
      <use xlink:href="#DejaVuSans-20" x="1410.580078"/>
      <use xlink:href="#DejaVuSans-6d" x="1442.367188"/>
      <use xlink:href="#DejaVuSans-61" x="1539.779297"/>
      <use xlink:href="#DejaVuSans-70" x="1601.058594"/>
      <use xlink:href="#DejaVuSans-70" x="1664.535156"/>
      <use xlink:href="#DejaVuSans-65" x="1728.011719"/>
      <use xlink:href="#DejaVuSans-64" x="1789.535156"/>
      <use xlink:href="#DejaVuSans-2d" x="1853.011719"/>
      <use xlink:href="#DejaVuSans-72" x="1889.095703"/>
      <use xlink:href="#DejaVuSans-65" x="1927.958984"/>
      <use xlink:href="#DejaVuSans-61" x="1989.482422"/>
      <use xlink:href="#DejaVuSans-64" x="2050.761719"/>
      <use xlink:href="#DejaVuSans-20" x="2114.238281"/>
      <use xlink:href="#DejaVuSans-64" x="2146.025391"/>
      <use xlink:href="#DejaVuSans-65" x="2209.501953"/>
      <use xlink:href="#DejaVuSans-70" x="2271.025391"/>
      <use xlink:href="#DejaVuSans-74" x="2334.501953"/>
      <use xlink:href="#DejaVuSans-68" x="2373.710938"/>
     </g>
    </g>
   </g>
   <g id="line2d_10">
    <path d="M 45.690625 309.802162 
L 55.087775 297.538382 
L 64.484925 287.689268 
L 73.882075 276.130718 
L 83.279225 266.028604 
L 92.676375 257.47655 
L 102.073525 249.470108 
L 111.470675 242.574713 
L 120.867825 237.621577 
L 130.264975 232.245804 
L 139.662125 227.371463 
L 149.059275 222.653923 
L 158.456425 220.139934 
L 167.853575 217.976945 
L 177.250725 215.544424 
L 186.647875 213.796909 
L 196.045025 212.145028 
L 205.442175 209.062972 
L 214.839325 206.349094 
L 224.236475 204.334643 
L 233.633625 202.632865 
L 243.030775 200.700254 
L 252.427925 199.543488 
L 261.825075 197.732654 
L 271.222225 194.874995 
L 280.619375 191.361432 
L 290.016525 190.308125 
L 299.413675 189.946646 
L 308.810825 189.971312 
L 318.207975 189.846323 
L 327.605125 189.109333 
L 337.002275 189.482013 
L 346.399425 189.459805 
L 355.796575 189.543544 
L 365.193725 190.613005 
L 374.590875 191.689599 
L 383.988025 191.258391 
L 393.385175 192.467364 
L 402.782325 192.718821 
L 412.179475 193.388625 
L 421.576625 193.444974 
L 430.973775 193.519869 
L 440.370925 193.358446 
L 449.768075 193.483267 
L 459.165225 193.417612 
L 468.562375 193.851142 
L 477.959525 194.204241 
L 487.356675 194.33286 
L 496.753825 193.460101 
L 506.150975 193.758921 
L 515.548125 194.454707 
L 524.945275 194.332898 
L 534.342425 194.536306 
L 543.739575 193.836813 
L 553.136725 194.071072 
L 562.533875 193.350562 
L 571.931025 192.949052 
L 581.328175 192.714507 
L 590.725325 192.372856 
L 600.122475 190.981129 
L 609.519625 189.645165 
L 618.916775 189.742722 
L 628.313925 189.010614 
L 637.711075 188.366216 
L 647.108225 186.915644 
L 656.505375 186.417336 
L 665.902525 186.395899 
L 675.299675 186.033504 
L 684.696825 186.913863 
L 694.093975 187.635475 
L 703.491125 188.080585 
L 712.888275 189.388772 
L 722.285425 190.182333 
L 731.682575 190.602257 
L 741.079725 190.672199 
L 750.476875 190.778488 
L 759.874025 191.043816 
L 769.271175 191.330568 
L 778.668325 191.439358 
L 788.065475 191.535068 
L 797.462625 192.449888 
L 806.859775 192.583479 
L 816.256925 193.291425 
L 825.654075 193.882413 
L 835.051225 194.925526 
L 844.448375 197.675874 
L 853.845525 200.625408 
L 863.242675 202.053636 
L 872.639825 205.164043 
L 882.036975 209.576405 
L 891.434125 216.463773 
L 900.831275 221.336555 
L 910.228425 227.438959 
L 919.625575 234.493437 
L 929.022725 243.549346 
L 938.419875 254.886447 
L 947.817025 269.401733 
L 957.214175 289.968292 
L 966.611325 316.276314 
L 976.008475 342.255448 
" clip-path="url(#pa6f6954e12)" style="fill: none; stroke: #7cb5ec; stroke-linecap: square"/>
   </g>
   <g id="line2d_11">
    <path d="M 45.690625 304.494862 
L 55.087775 291.090958 
L 64.484925 280.560661 
L 73.882075 267.624226 
L 83.279225 256.924762 
L 92.676375 247.29892 
L 102.073525 238.492191 
L 111.470675 230.997834 
L 120.867825 225.787115 
L 130.264975 220.277943 
L 139.662125 215.062749 
L 149.059275 210.503101 
L 158.456425 208.01182 
L 167.853575 205.772745 
L 177.250725 203.226041 
L 186.647875 201.616804 
L 196.045025 200.171154 
L 205.442175 197.349948 
L 214.839325 194.695692 
L 224.236475 192.709823 
L 233.633625 191.373274 
L 243.030775 189.780711 
L 252.427925 188.746184 
L 261.825075 186.953604 
L 271.222225 183.97699 
L 280.619375 180.361479 
L 290.016525 179.901379 
L 299.413675 179.986892 
L 308.810825 180.426206 
L 318.207975 180.77691 
L 327.605125 180.656406 
L 337.002275 181.574519 
L 346.399425 182.076806 
L 355.796575 182.483698 
L 365.193725 184.000684 
L 374.590875 185.478768 
L 383.988025 185.457122 
L 393.385175 187.048873 
L 402.782325 187.851611 
L 412.179475 189.12768 
L 421.576625 189.600289 
L 430.973775 190.029024 
L 440.370925 190.323542 
L 449.768075 190.99193 
L 459.165225 191.32822 
L 468.562375 192.354095 
L 477.959525 193.170051 
L 487.356675 193.851035 
L 496.753825 193.361905 
L 506.150975 193.717393 
L 515.548125 194.528693 
L 524.945275 194.73216 
L 534.342425 195.64844 
L 543.739575 195.680457 
L 553.136725 196.419116 
L 562.533875 196.306274 
L 571.931025 196.517341 
L 581.328175 197.045801 
L 590.725325 197.133325 
L 600.122475 196.060385 
L 609.519625 195.345063 
L 618.916775 195.677532 
L 628.313925 195.100417 
L 637.711075 194.83247 
L 647.108225 193.764379 
L 656.505375 193.611361 
L 665.902525 193.954877 
L 675.299675 193.837619 
L 684.696825 194.919881 
L 694.093975 195.92531 
L 703.491125 196.749488 
L 712.888275 198.070645 
L 722.285425 198.956419 
L 731.682575 199.590895 
L 741.079725 199.944393 
L 750.476875 200.566218 
L 759.874025 200.911388 
L 769.271175 201.207777 
L 778.668325 201.677869 
L 788.065475 202.1713 
L 797.462625 203.515458 
L 806.859775 203.876737 
L 816.256925 204.769957 
L 825.654075 205.764881 
L 835.051225 207.458731 
L 844.448375 210.401375 
L 853.845525 213.133467 
L 863.242675 214.25402 
L 872.639825 217.348706 
L 882.036975 222.16104 
L 891.434125 229.677183 
L 900.831275 234.417395 
L 910.228425 239.876451 
L 919.625575 246.162678 
L 929.022725 254.385878 
L 938.419875 264.586633 
L 947.817025 277.510986 
L 957.214175 295.820108 
L 966.611325 319.149435 
L 976.008475 342.866399 
" clip-path="url(#pa6f6954e12)" style="fill: none; stroke: #434348; stroke-linecap: square"/>
   </g>
   <g id="line2d_12">
    <path d="M 45.690625 302.52126 
L 55.087775 282.039799 
L 64.484925 265.855251 
L 73.882075 247.440007 
L 83.279225 234.052838 
L 92.676375 222.788728 
L 102.073525 214.280374 
L 111.470675 205.391156 
L 120.867825 200.275547 
L 130.264975 193.385817 
L 139.662125 187.316602 
L 149.059275 183.381752 
L 158.456425 179.921369 
L 167.853575 178.512564 
L 177.250725 178.735915 
L 186.647875 180.289716 
L 196.045025 180.762126 
L 205.442175 179.995178 
L 214.839325 179.802644 
L 224.236475 178.910664 
L 233.633625 178.118574 
L 243.030775 176.935551 
L 252.427925 174.70222 
L 261.825075 170.86803 
L 271.222225 169.050054 
L 280.619375 169.464222 
L 290.016525 171.392821 
L 299.413675 172.484779 
L 308.810825 173.445816 
L 318.207975 173.906079 
L 327.605125 174.179201 
L 337.002275 175.582338 
L 346.399425 176.525085 
L 355.796575 175.604982 
L 365.193725 177.072044 
L 374.590875 178.707443 
L 383.988025 178.157539 
L 393.385175 179.056226 
L 402.782325 179.719619 
L 412.179475 181.602045 
L 421.576625 183.186733 
L 430.973775 183.658523 
L 440.370925 184.400465 
L 449.768075 186.941572 
L 459.165225 188.343148 
L 468.562375 189.704465 
L 477.959525 190.425216 
L 487.356675 193.890896 
L 496.753825 194.138282 
L 506.150975 192.881507 
L 515.548125 193.538386 
L 524.945275 193.592839 
L 534.342425 195.84034 
L 543.739575 197.432254 
L 553.136725 198.613686 
L 562.533875 199.567076 
L 571.931025 200.689129 
L 581.328175 202.052458 
L 590.725325 202.969744 
L 600.122475 200.760634 
L 609.519625 201.750085 
L 618.916775 203.641365 
L 628.313925 203.364906 
L 637.711075 202.756797 
L 647.108225 201.696092 
L 656.505375 201.460416 
L 665.902525 202.050457 
L 675.299675 202.178703 
L 684.696825 204.684593 
L 694.093975 205.895941 
L 703.491125 207.191313 
L 712.888275 208.133247 
L 722.285425 208.400806 
L 731.682575 208.929117 
L 741.079725 209.419341 
L 750.476875 212.615045 
L 759.874025 213.019149 
L 769.271175 213.753977 
L 778.668325 213.86028 
L 788.065475 214.472342 
L 797.462625 217.248705 
L 806.859775 216.649923 
L 816.256925 218.87948 
L 825.654075 221.290263 
L 835.051225 224.330173 
L 844.448375 229.293093 
L 853.845525 233.703169 
L 863.242675 237.355997 
L 872.639825 242.786402 
L 882.036975 249.039357 
L 891.434125 256.600695 
L 900.831275 262.939401 
L 910.228425 269.250145 
L 919.625575 274.808755 
L 929.022725 282.473562 
L 938.419875 291.326274 
L 947.817025 301.031629 
L 957.214175 314.185071 
L 966.611325 330.163926 
L 976.008475 345.970117 
" clip-path="url(#pa6f6954e12)" style="fill: none; stroke: #90ed7d; stroke-linecap: square"/>
   </g>
   <g id="line2d_13">
    <path d="M 45.690625 303.245466 
L 55.087775 285.06385 
L 64.484925 270.430813 
L 73.882075 255.485382 
L 83.279225 243.281347 
L 92.676375 233.4836 
L 102.073525 225.016641 
L 111.470675 216.073576 
L 120.867825 209.981053 
L 130.264975 203.357598 
L 139.662125 198.082296 
L 149.059275 194.081684 
L 158.456425 190.653479 
L 167.853575 188.367844 
L 177.250725 187.496309 
L 186.647875 187.65213 
L 196.045025 187.497697 
L 205.442175 186.758833 
L 214.839325 186.39574 
L 224.236475 185.622555 
L 233.633625 184.662616 
L 243.030775 183.433213 
L 252.427925 181.583795 
L 261.825075 179.075369 
L 271.222225 177.964712 
L 280.619375 178.042217 
L 290.016525 178.619642 
L 299.413675 179.328236 
L 308.810825 179.728963 
L 318.207975 180.116377 
L 327.605125 180.054762 
L 337.002275 180.661236 
L 346.399425 180.889005 
L 355.796575 180.067377 
L 365.193725 181.040113 
L 374.590875 182.307816 
L 383.988025 181.802029 
L 393.385175 182.506289 
L 402.782325 183.037705 
L 412.179475 184.08662 
L 421.576625 185.185992 
L 430.973775 185.806355 
L 440.370925 186.335619 
L 449.768075 188.208922 
L 459.165225 189.156008 
L 468.562375 190.318163 
L 477.959525 191.140064 
L 487.356675 193.479698 
L 496.753825 193.535231 
L 506.150975 192.810853 
L 515.548125 193.404826 
L 524.945275 193.813547 
L 534.342425 195.297551 
L 543.739575 196.387035 
L 553.136725 197.348645 
L 562.533875 197.923779 
L 571.931025 199.02311 
L 581.328175 200.182001 
L 590.725325 200.98265 
L 600.122475 199.503067 
L 609.519625 200.27773 
L 618.916775 201.754491 
L 628.313925 201.365826 
L 637.711075 200.786147 
L 647.108225 200.021412 
L 656.505375 199.609574 
L 665.902525 199.703691 
L 675.299675 199.38192 
L 684.696825 200.958924 
L 694.093975 201.881191 
L 703.491125 202.835114 
L 712.888275 203.379669 
L 722.285425 203.32223 
L 731.682575 203.591863 
L 741.079725 203.582534 
L 750.476875 205.438576 
L 759.874025 205.863527 
L 769.271175 206.204842 
L 778.668325 205.876172 
L 788.065475 206.262946 
L 797.462625 208.3702 
L 806.859775 208.272292 
L 816.256925 210.317569 
L 825.654075 212.765583 
L 835.051225 215.394913 
L 844.448375 219.497036 
L 853.845525 223.470778 
L 863.242675 226.411149 
L 872.639825 230.993124 
L 882.036975 236.696882 
L 891.434125 243.934623 
L 900.831275 250.477644 
L 910.228425 257.116695 
L 919.625575 263.557845 
L 929.022725 271.989379 
L 938.419875 281.989232 
L 947.817025 293.436179 
L 957.214175 308.367624 
L 966.611325 326.517909 
L 976.008475 344.907305 
" clip-path="url(#pa6f6954e12)" style="fill: none; stroke: #f7a35c; stroke-linecap: square"/>
   </g>
   <g id="line2d_14">
    <path d="M 45.690625 310.906245 
L 55.087775 289.695888 
L 64.484925 271.671625 
L 73.882075 250.968313 
L 83.279225 236.81835 
L 92.676375 225.507282 
L 102.073525 217.123018 
L 111.470675 207.303082 
L 120.867825 201.658566 
L 130.264975 193.854242 
L 139.662125 186.359993 
L 149.059275 181.767087 
L 158.456425 177.220226 
L 167.853575 176.150047 
L 177.250725 177.477961 
L 186.647875 180.152782 
L 196.045025 181.6462 
L 205.442175 182.372891 
L 214.839325 184.044613 
L 224.236475 183.917114 
L 233.633625 184.387234 
L 243.030775 183.126755 
L 252.427925 179.166161 
L 261.825075 173.705747 
L 271.222225 171.47394 
L 280.619375 174.178653 
L 290.016525 176.465723 
L 299.413675 177.748691 
L 308.810825 178.646694 
L 318.207975 178.885151 
L 327.605125 178.764164 
L 337.002275 179.990196 
L 346.399425 181.35477 
L 355.796575 179.331982 
L 365.193725 180.636506 
L 374.590875 182.036022 
L 383.988025 180.248523 
L 393.385175 179.863458 
L 402.782325 179.915685 
L 412.179475 181.786936 
L 421.576625 183.492484 
L 430.973775 183.31439 
L 440.370925 183.502404 
L 449.768075 186.593335 
L 459.165225 188.355155 
L 468.562375 189.699203 
L 477.959525 190.346281 
L 487.356675 196.089913 
L 496.753825 196.722251 
L 506.150975 194.255962 
L 515.548125 195.054197 
L 524.945275 195.321493 
L 534.342425 198.091723 
L 543.739575 200.234591 
L 553.136725 200.699257 
L 562.533875 201.740011 
L 571.931025 203.224123 
L 581.328175 204.94594 
L 590.725325 206.006681 
L 600.122475 201.50258 
L 609.519625 202.830941 
L 618.916775 205.365033 
L 628.313925 204.001098 
L 637.711075 201.985462 
L 647.108225 200.078024 
L 656.505375 199.010887 
L 665.902525 198.314125 
L 675.299675 196.57821 
L 684.696825 198.40596 
L 694.093975 198.283272 
L 703.491125 198.905131 
L 712.888275 198.600745 
L 722.285425 197.12464 
L 731.682575 196.620121 
L 741.079725 196.022922 
L 750.476875 200.81025 
L 759.874025 200.624639 
L 769.271175 200.962149 
L 778.668325 200.381976 
L 788.065475 200.896731 
L 797.462625 205.24995 
L 806.859775 203.641689 
L 816.256925 206.45096 
L 825.654075 210.108824 
L 835.051225 214.731554 
L 844.448375 222.69199 
L 853.845525 229.043221 
L 863.242675 234.793128 
L 872.639825 242.823985 
L 882.036975 250.793067 
L 891.434125 258.81582 
L 900.831275 266.610835 
L 910.228425 275.291624 
L 919.625575 282.135955 
L 929.022725 291.983725 
L 938.419875 302.420656 
L 947.817025 312.970807 
L 957.214175 324.521395 
L 966.611325 336.926372 
L 976.008475 348.133076 
" clip-path="url(#pa6f6954e12)" style="fill: none; stroke: #8085e9; stroke-linecap: square"/>
   </g>
   <g id="line2d_15">
    <path d="M 45.690625 310.580313 
L 55.087775 299.894503 
L 64.484925 290.308352 
L 73.882075 279.450811 
L 83.279225 269.018494 
L 92.676375 259.421623 
L 102.073525 250.883774 
L 111.470675 245.576597 
L 120.867825 241.308652 
L 130.264975 235.875421 
L 139.662125 230.806428 
L 149.059275 226.912582 
L 158.456425 223.715561 
L 167.853575 221.778193 
L 177.250725 219.231298 
L 186.647875 217.234845 
L 196.045025 215.273216 
L 205.442175 211.690884 
L 214.839325 208.68582 
L 224.236475 206.212779 
L 233.633625 203.976631 
L 243.030775 201.292124 
L 252.427925 199.96237 
L 261.825075 197.600358 
L 271.222225 196.014122 
L 280.619375 192.656282 
L 290.016525 191.894595 
L 299.413675 190.967394 
L 308.810825 190.096683 
L 318.207975 189.412085 
L 327.605125 187.784685 
L 337.002275 186.945004 
L 346.399425 187.212 
L 355.796575 187.243291 
L 365.193725 188.889455 
L 374.590875 189.74846 
L 383.988025 188.849662 
L 393.385175 189.709796 
L 402.782325 189.98094 
L 412.179475 190.890795 
L 421.576625 191.700962 
L 430.973775 192.642415 
L 440.370925 192.916572 
L 449.768075 193.411971 
L 459.165225 193.363517 
L 468.562375 193.568064 
L 477.959525 194.525677 
L 487.356675 194.959635 
L 496.753825 194.321371 
L 506.150975 194.430724 
L 515.548125 194.221614 
L 524.945275 194.0399 
L 534.342425 194.372226 
L 543.739575 193.243783 
L 553.136725 193.531499 
L 562.533875 192.71105 
L 571.931025 192.483816 
L 581.328175 192.526747 
L 590.725325 192.193109 
L 600.122475 191.075843 
L 609.519625 189.866562 
L 618.916775 190.243231 
L 628.313925 189.159143 
L 637.711075 188.13892 
L 647.108225 187.218747 
L 656.505375 186.490481 
L 665.902525 185.977272 
L 675.299675 185.228781 
L 684.696825 185.594839 
L 694.093975 185.96172 
L 703.491125 185.821783 
L 712.888275 186.538936 
L 722.285425 186.540153 
L 731.682575 186.838268 
L 741.079725 186.788085 
L 750.476875 187.507541 
L 759.874025 188.040258 
L 769.271175 188.646403 
L 778.668325 189.519341 
L 788.065475 190.562018 
L 797.462625 191.703277 
L 806.859775 191.765552 
L 816.256925 192.568708 
L 825.654075 193.892593 
L 835.051225 195.508275 
L 844.448375 197.840273 
L 853.845525 200.539299 
L 863.242675 201.306915 
L 872.639825 203.48894 
L 882.036975 207.961236 
L 891.434125 216.797711 
L 900.831275 222.133502 
L 910.228425 227.730997 
L 919.625575 235.083513 
L 929.022725 244.821515 
L 938.419875 256.117469 
L 947.817025 268.706195 
L 957.214175 287.844151 
L 966.611325 314.351404 
L 976.008475 341.390057 
" clip-path="url(#pa6f6954e12)" style="fill: none; stroke: #f15c80; stroke-linecap: square"/>
   </g>
   <g id="line2d_16">
    <path d="M 45.690625 301.747274 
L 55.087775 285.794295 
L 64.484925 265.176257 
L 73.882075 245.006697 
L 83.279225 226.620022 
L 92.676375 210.825029 
L 102.073525 199.24137 
L 111.470675 186.119334 
L 120.867825 178.2946 
L 130.264975 177.8064 
L 139.662125 178.561809 
L 149.059275 179.569157 
L 158.456425 179.650405 
L 167.853575 179.124739 
L 177.250725 182.704769 
L 186.647875 182.192366 
L 196.045025 181.981709 
L 205.442175 182.504191 
L 214.839325 181.036669 
L 224.236475 178.540314 
L 233.633625 177.229887 
L 243.030775 175.41917 
L 252.427925 174.402711 
L 261.825075 172.761953 
L 271.222225 173.777789 
L 280.619375 174.299307 
L 290.016525 176.127931 
L 299.413675 177.883588 
L 308.810825 180.250809 
L 318.207975 182.247002 
L 327.605125 184.512908 
L 337.002275 184.141103 
L 346.399425 184.539234 
L 355.796575 184.693154 
L 365.193725 186.315828 
L 374.590875 186.298018 
L 383.988025 185.753402 
L 393.385175 187.351134 
L 402.782325 188.680672 
L 412.179475 190.417865 
L 421.576625 192.229161 
L 430.973775 193.444715 
L 440.370925 194.728063 
L 449.768075 196.716996 
L 459.165225 197.93892 
L 468.562375 199.315871 
L 477.959525 201.024281 
L 487.356675 201.499169 
L 496.753825 201.566726 
L 506.150975 202.225575 
L 515.548125 202.672676 
L 524.945275 203.517409 
L 534.342425 205.478145 
L 543.739575 206.602833 
L 553.136725 207.892646 
L 562.533875 208.251612 
L 571.931025 208.866077 
L 581.328175 210.283908 
L 590.725325 211.085824 
L 600.122475 211.328409 
L 609.519625 211.53811 
L 618.916775 212.253131 
L 628.313925 212.63554 
L 637.711075 212.858263 
L 647.108225 213.022296 
L 656.505375 213.444363 
L 665.902525 211.756114 
L 675.299675 210.298021 
L 684.696825 209.275063 
L 694.093975 208.68484 
L 703.491125 208.233803 
L 712.888275 208.276582 
L 722.285425 209.871975 
L 731.682575 213.51868 
L 741.079725 214.463548 
L 750.476875 216.123138 
L 759.874025 217.506642 
L 769.271175 218.549545 
L 778.668325 219.710498 
L 788.065475 220.14177 
L 797.462625 221.11444 
L 806.859775 221.860407 
L 816.256925 217.757998 
L 825.654075 217.203444 
L 835.051225 218.010103 
L 844.448375 218.943788 
L 853.845525 221.113406 
L 863.242675 220.643841 
L 872.639825 222.264777 
L 882.036975 228.998181 
L 891.434125 234.426646 
L 900.831275 236.926284 
L 910.228425 241.098653 
L 919.625575 247.075172 
L 929.022725 250.807086 
L 938.419875 251.525164 
L 947.817025 262.939051 
L 957.214175 292.132078 
L 966.611325 318.082673 
L 976.008475 342.106434 
" clip-path="url(#pa6f6954e12)" style="fill: none; stroke: #e4d354; stroke-linecap: square"/>
   </g>
   <g id="line2d_17">
    <path d="M 45.690625 302.808753 
L 55.087775 287.528978 
L 64.484925 264.298514 
L 73.882075 242.106078 
L 83.279225 221.249583 
L 92.676375 202.550599 
L 102.073525 189.766451 
L 111.470675 173.285322 
L 120.867825 165.143053 
L 130.264975 167.085428 
L 139.662125 170.844719 
L 149.059275 174.247922 
L 158.456425 175.092365 
L 167.853575 174.806343 
L 177.250725 180.202513 
L 186.647875 180.21735 
L 196.045025 180.367559 
L 205.442175 181.358843 
L 214.839325 179.656498 
L 224.236475 176.69243 
L 233.633625 175.236013 
L 243.030775 173.697415 
L 252.427925 172.481733 
L 261.825075 170.339627 
L 271.222225 171.801141 
L 280.619375 172.380418 
L 290.016525 174.280971 
L 299.413675 176.202535 
L 308.810825 179.147859 
L 318.207975 181.394738 
L 327.605125 184.04295 
L 337.002275 183.389328 
L 346.399425 183.602914 
L 355.796575 183.517875 
L 365.193725 184.849042 
L 374.590875 184.446037 
L 383.988025 183.631177 
L 393.385175 185.907291 
L 402.782325 187.999389 
L 412.179475 189.964568 
L 421.576625 192.117921 
L 430.973775 193.583984 
L 440.370925 194.893217 
L 449.768075 197.000926 
L 459.165225 198.256197 
L 468.562375 199.683487 
L 477.959525 201.281272 
L 487.356675 201.811014 
L 496.753825 202.226337 
L 506.150975 202.817409 
L 515.548125 203.253523 
L 524.945275 204.168684 
L 534.342425 206.613512 
L 543.739575 208.20961 
L 553.136725 209.585721 
L 562.533875 209.811976 
L 571.931025 210.512979 
L 581.328175 212.017887 
L 590.725325 212.518427 
L 600.122475 212.12362 
L 609.519625 212.330613 
L 618.916775 213.366466 
L 628.313925 213.993658 
L 637.711075 214.40383 
L 647.108225 214.737178 
L 656.505375 215.425876 
L 665.902525 213.607566 
L 675.299675 211.732268 
L 684.696825 210.50089 
L 694.093975 209.569751 
L 703.491125 208.685899 
L 712.888275 208.477673 
L 722.285425 210.861521 
L 731.682575 215.903388 
L 741.079725 217.238929 
L 750.476875 219.376812 
L 759.874025 220.746601 
L 769.271175 222.255753 
L 778.668325 224.114768 
L 788.065475 224.707998 
L 797.462625 225.519958 
L 806.859775 226.465429 
L 816.256925 220.882023 
L 825.654075 219.807958 
L 835.051225 220.426891 
L 844.448375 221.146283 
L 853.845525 223.695266 
L 863.242675 223.332767 
L 872.639825 225.815811 
L 882.036975 234.559809 
L 891.434125 240.831053 
L 900.831275 243.057877 
L 910.228425 246.632084 
L 919.625575 251.914594 
L 929.022725 253.290003 
L 938.419875 250.615753 
L 947.817025 262.136303 
L 957.214175 295.675425 
L 966.611325 322.146923 
L 976.008475 343.361765 
" clip-path="url(#pa6f6954e12)" style="fill: none; stroke: #2b908f; stroke-linecap: square"/>
   </g>
   <g id="line2d_18">
    <path d="M 45.690625 313.29603 
L 55.087775 301.714805 
L 64.484925 264.961707 
L 73.882075 227.178679 
L 83.279225 191.748651 
L 92.676375 162.307288 
L 102.073525 147.545709 
L 111.470675 114.497789 
L 120.867825 97.602808 
L 130.264975 106.770655 
L 139.662125 118.288038 
L 149.059275 131.31103 
L 158.456425 136.169537 
L 167.853575 139.740638 
L 177.250725 161.431324 
L 186.647875 163.112925 
L 196.045025 166.109028 
L 205.442175 172.097765 
L 214.839325 169.619406 
L 224.236475 163.911987 
L 233.633625 161.123515 
L 243.030775 158.721372 
L 252.427925 155.663315 
L 261.825075 150.159488 
L 271.222225 154.800375 
L 280.619375 159.709219 
L 290.016525 163.78627 
L 299.413675 168.916298 
L 308.810825 176.197766 
L 318.207975 182.642763 
L 327.605125 190.884839 
L 337.002275 189.40379 
L 346.399425 189.00464 
L 355.796575 186.617293 
L 365.193725 187.461391 
L 374.590875 188.277551 
L 383.988025 188.953273 
L 393.385175 193.410233 
L 402.782325 198.056551 
L 412.179475 200.421993 
L 421.576625 203.356817 
L 430.973775 205.315742 
L 440.370925 206.989331 
L 449.768075 209.578784 
L 459.165225 211.471868 
L 468.562375 213.30562 
L 477.959525 214.45085 
L 487.356675 214.892344 
L 496.753825 214.865256 
L 506.150975 214.134784 
L 515.548125 214.138609 
L 524.945275 215.559603 
L 534.342425 220.747301 
L 543.739575 224.816741 
L 553.136725 227.664259 
L 562.533875 228.893649 
L 571.931025 230.553981 
L 581.328175 233.196781 
L 590.725325 233.71255 
L 600.122475 231.491439 
L 609.519625 232.139692 
L 618.916775 234.169798 
L 628.313925 235.928998 
L 637.711075 235.841529 
L 647.108225 236.830268 
L 656.505375 239.175172 
L 665.902525 233.604874 
L 675.299675 228.227475 
L 684.696825 224.069867 
L 694.093975 220.021382 
L 703.491125 216.298161 
L 712.888275 211.852192 
L 722.285425 211.23409 
L 731.682575 221.463742 
L 741.079725 224.828548 
L 750.476875 230.980492 
L 759.874025 234.340442 
L 769.271175 238.078082 
L 778.668325 241.873789 
L 788.065475 240.493338 
L 797.462625 238.29068 
L 806.859775 238.006843 
L 816.256925 217.655252 
L 825.654075 211.871376 
L 835.051225 211.626482 
L 844.448375 211.644716 
L 853.845525 215.076573 
L 863.242675 213.15962 
L 872.639825 217.579153 
L 882.036975 239.420449 
L 891.434125 245.830318 
L 900.831275 244.781855 
L 910.228425 248.729964 
L 919.625575 255.547548 
L 929.022725 254.140792 
L 938.419875 251.587763 
L 947.817025 261.001844 
L 957.214175 304.433098 
L 966.611325 332.776413 
L 976.008475 346.084727 
" clip-path="url(#pa6f6954e12)" style="fill: none; stroke: #f45b5b; stroke-linecap: square"/>
   </g>
   <g id="line2d_19">
    <path d="M 45.690625 308.960705 
L 55.087775 296.855967 
L 64.484925 258.272188 
L 73.882075 218.769055 
L 83.279225 182.868297 
L 92.676375 155.878621 
L 102.073525 145.936852 
L 111.470675 116.187395 
L 120.867825 102.512108 
L 130.264975 115.956827 
L 139.662125 122.982536 
L 149.059275 133.34725 
L 158.456425 139.960025 
L 167.853575 145.739616 
L 177.250725 171.636756 
L 186.647875 173.960544 
L 196.045025 177.442322 
L 205.442175 184.963914 
L 214.839325 182.209415 
L 224.236475 175.77682 
L 233.633625 171.326974 
L 243.030775 166.320579 
L 252.427925 161.593853 
L 261.825075 151.807346 
L 271.222225 155.872909 
L 280.619375 160.90293 
L 290.016525 166.169508 
L 299.413675 172.581989 
L 308.810825 180.559255 
L 318.207975 189.068502 
L 327.605125 200.240341 
L 337.002275 198.336381 
L 346.399425 198.810027 
L 355.796575 196.833342 
L 365.193725 197.405235 
L 374.590875 198.094025 
L 383.988025 198.771892 
L 393.385175 202.885529 
L 402.782325 207.666122 
L 412.179475 209.662216 
L 421.576625 212.120025 
L 430.973775 214.449313 
L 440.370925 216.516031 
L 449.768075 218.463278 
L 459.165225 219.557063 
L 468.562375 221.07673 
L 477.959525 222.398865 
L 487.356675 223.448999 
L 496.753825 224.094466 
L 506.150975 223.771375 
L 515.548125 223.653538 
L 524.945275 224.593399 
L 534.342425 228.256023 
L 543.739575 231.493729 
L 553.136725 233.452856 
L 562.533875 234.117013 
L 571.931025 235.489765 
L 581.328175 237.602369 
L 590.725325 237.566496 
L 600.122475 234.884287 
L 609.519625 234.953319 
L 618.916775 236.339113 
L 628.313925 237.626344 
L 637.711075 238.118061 
L 647.108225 239.279422 
L 656.505375 241.905925 
L 665.902525 232.811171 
L 675.299675 225.126907 
L 684.696825 219.615028 
L 694.093975 213.628146 
L 703.491125 208.650846 
L 712.888275 202.739409 
L 722.285425 200.664111 
L 731.682575 213.584558 
L 741.079725 217.678819 
L 750.476875 224.350231 
L 759.874025 228.617954 
L 769.271175 233.072866 
L 778.668325 237.469485 
L 788.065475 234.712505 
L 797.462625 231.126124 
L 806.859775 229.776072 
L 816.256925 205.578284 
L 825.654075 198.875971 
L 835.051225 197.613797 
L 844.448375 195.80504 
L 853.845525 199.10114 
L 863.242675 193.608768 
L 872.639825 196.897744 
L 882.036975 220.275917 
L 891.434125 224.900485 
L 900.831275 221.859131 
L 910.228425 227.586368 
L 919.625575 238.127303 
L 929.022725 239.573192 
L 938.419875 237.730084 
L 947.817025 251.078014 
L 957.214175 296.329761 
L 966.611325 329.388624 
L 976.008475 345.153609 
" clip-path="url(#pa6f6954e12)" style="fill: none; stroke: #91e8e1; stroke-linecap: square"/>
   </g>
   <g id="line2d_20">
    <path d="M 45.690625 311.688607 
L 55.087775 300.810867 
L 64.484925 263.357019 
L 73.882075 224.40672 
L 83.279225 186.641328 
L 92.676375 155.536888 
L 102.073525 140.650731 
L 111.470675 105.859232 
L 120.867825 88.384034 
L 130.264975 98.249035 
L 139.662125 108.945274 
L 149.059275 122.151708 
L 158.456425 126.629741 
L 167.853575 130.057729 
L 177.250725 152.466385 
L 186.647875 154.638049 
L 196.045025 157.807892 
L 205.442175 165.081803 
L 214.839325 163.832774 
L 224.236475 158.783312 
L 233.633625 156.534337 
L 243.030775 155.223355 
L 252.427925 152.806751 
L 261.825075 146.332917 
L 271.222225 151.74885 
L 280.619375 157.358593 
L 290.016525 162.536869 
L 299.413675 168.516928 
L 308.810825 176.082932 
L 318.207975 183.079319 
L 327.605125 192.388326 
L 337.002275 191.071008 
L 346.399425 190.798908 
L 355.796575 188.225508 
L 365.193725 188.859505 
L 374.590875 190.403396 
L 383.988025 191.61902 
L 393.385175 196.353292 
L 402.782325 201.317076 
L 412.179475 203.944306 
L 421.576625 207.552444 
L 430.973775 209.859931 
L 440.370925 211.796478 
L 449.768075 214.494414 
L 459.165225 216.220813 
L 468.562375 218.297333 
L 477.959525 219.25886 
L 487.356675 219.628814 
L 496.753825 219.310941 
L 506.150975 217.868201 
L 515.548125 217.273626 
L 524.945275 218.271331 
L 534.342425 223.723965 
L 543.739575 228.478895 
L 553.136725 231.62661 
L 562.533875 233.087772 
L 571.931025 235.170313 
L 581.328175 237.940998 
L 590.725325 238.714413 
L 600.122475 236.241449 
L 609.519625 236.796591 
L 618.916775 239.014958 
L 628.313925 240.776025 
L 637.711075 240.927456 
L 647.108225 242.212137 
L 656.505375 244.233719 
L 665.902525 237.592312 
L 675.299675 231.680836 
L 684.696825 228.112774 
L 694.093975 223.40723 
L 703.491125 218.994796 
L 712.888275 213.979692 
L 722.285425 212.593701 
L 731.682575 223.209149 
L 741.079725 226.195066 
L 750.476875 232.100216 
L 759.874025 235.125731 
L 769.271175 238.503757 
L 778.668325 241.975903 
L 788.065475 239.961764 
L 797.462625 237.894187 
L 806.859775 237.149195 
L 816.256925 216.937001 
L 825.654075 211.383207 
L 835.051225 211.109725 
L 844.448375 210.502677 
L 853.845525 214.017798 
L 863.242675 211.485786 
L 872.639825 216.218423 
L 882.036975 238.368856 
L 891.434125 243.880778 
L 900.831275 243.117197 
L 910.228425 248.457524 
L 919.625575 257.308018 
L 929.022725 256.003224 
L 938.419875 248.528896 
L 947.817025 260.716984 
L 957.214175 306.451247 
L 966.611325 334.1628 
L 976.008475 346.37618 
" clip-path="url(#pa6f6954e12)" style="fill: none; stroke: #7cb5ec; stroke-linecap: square"/>
   </g>
   <g id="line2d_21">
    <path d="M 45.690625 265.890586 
L 55.087775 249.193618 
L 64.484925 240.902508 
L 73.882075 234.309533 
L 83.279225 230.758761 
L 92.676375 230.023179 
L 102.073525 230.319063 
L 111.470675 228.829988 
L 120.867825 228.884184 
L 130.264975 230.106054 
L 139.662125 232.49907 
L 149.059275 232.10583 
L 158.456425 234.721832 
L 167.853575 236.459509 
L 177.250725 237.895307 
L 186.647875 240.849077 
L 196.045025 245.323545 
L 205.442175 253.659029 
L 214.839325 264.439589 
L 224.236475 267.09095 
L 233.633625 221.239546 
L 243.030775 197.236622 
L 252.427925 199.808227 
L 261.825075 196.997119 
L 271.222225 189.066904 
L 280.619375 186.602969 
L 290.016525 189.605301 
L 299.413675 191.129462 
L 308.810825 191.335327 
L 318.207975 192.679244 
L 327.605125 193.790177 
L 337.002275 196.130295 
L 346.399425 202.269987 
L 355.796575 204.181077 
L 365.193725 207.219577 
L 374.590875 206.99575 
L 383.988025 205.337514 
L 393.385175 205.791316 
L 402.782325 208.393158 
L 412.179475 210.963365 
L 421.576625 211.926446 
L 430.973775 213.23018 
L 440.370925 216.009586 
L 449.768075 215.595928 
L 459.165225 217.223795 
L 468.562375 222.364283 
L 477.959525 223.507342 
L 487.356675 223.230629 
L 496.753825 223.293702 
L 506.150975 223.097828 
L 515.548125 225.079743 
L 524.945275 228.221209 
L 534.342425 257.068913 
L 543.739575 252.982542 
L 553.136725 250.902778 
L 562.533875 249.474875 
L 571.931025 238.409029 
L 581.328175 229.139631 
L 590.725325 225.635463 
L 600.122475 222.476067 
L 609.519625 220.049556 
L 618.916775 217.123235 
L 628.313925 209.680209 
L 637.711075 199.229301 
L 647.108225 186.218336 
L 656.505375 175.903387 
L 665.902525 169.204973 
L 675.299675 160.183643 
L 684.696825 152.343391 
L 694.093975 137.341939 
L 703.491125 127.767954 
L 712.888275 122.301786 
L 722.285425 119.770992 
L 731.682575 120.760782 
L 741.079725 120.571138 
L 750.476875 120.411182 
L 759.874025 121.200022 
L 769.271175 123.300745 
L 778.668325 125.109727 
L 788.065475 127.340318 
L 797.462625 127.548873 
L 806.859775 128.911483 
L 816.256925 131.118238 
L 825.654075 137.91682 
L 835.051225 143.261084 
L 844.448375 151.080792 
L 853.845525 158.169141 
L 863.242675 173.389501 
L 872.639825 190.513894 
L 882.036975 223.587568 
L 891.434125 257.386639 
L 900.831275 263.335873 
L 910.228425 267.258536 
L 919.625575 271.782008 
L 929.022725 277.993082 
L 938.419875 286.707108 
L 947.817025 297.962883 
L 957.214175 312.891735 
L 966.611325 330.362179 
L 976.008475 346.56727 
" clip-path="url(#pa6f6954e12)" style="fill: none; stroke: #434348; stroke-linecap: square"/>
   </g>
   <g id="line2d_22">
    <path d="M 45.690625 262.784283 
L 55.087775 243.272819 
L 64.484925 232.572325 
L 73.882075 224.633434 
L 83.279225 220.070778 
L 92.676375 218.99989 
L 102.073525 220.32123 
L 111.470675 218.160952 
L 120.867825 217.102105 
L 130.264975 218.096303 
L 139.662125 221.997026 
L 149.059275 222.351519 
L 158.456425 226.008682 
L 167.853575 229.591981 
L 177.250725 233.021134 
L 186.647875 238.28842 
L 196.045025 245.850284 
L 205.442175 258.508472 
L 214.839325 273.041272 
L 224.236475 276.766178 
L 233.633625 224.507459 
L 243.030775 197.425442 
L 252.427925 201.335707 
L 261.825075 198.779406 
L 271.222225 189.959407 
L 280.619375 187.365599 
L 290.016525 191.170906 
L 299.413675 192.777397 
L 308.810825 192.608489 
L 318.207975 193.787898 
L 327.605125 194.417096 
L 337.002275 195.675595 
L 346.399425 201.57955 
L 355.796575 203.40296 
L 365.193725 207.005665 
L 374.590875 206.496227 
L 383.988025 204.115489 
L 393.385175 205.431246 
L 402.782325 209.889705 
L 412.179475 213.209196 
L 421.576625 214.217234 
L 430.973775 215.911327 
L 440.370925 219.403277 
L 449.768075 218.990198 
L 459.165225 221.230726 
L 468.562375 228.135506 
L 477.959525 229.975649 
L 487.356675 230.035516 
L 496.753825 230.903247 
L 506.150975 231.201599 
L 515.548125 233.932028 
L 524.945275 238.002873 
L 534.342425 270.18693 
L 543.739575 265.955858 
L 553.136725 263.718411 
L 562.533875 262.61964 
L 571.931025 249.167485 
L 581.328175 237.741559 
L 590.725325 233.945299 
L 600.122475 230.898803 
L 609.519625 228.807015 
L 618.916775 226.080865 
L 628.313925 218.167873 
L 637.711075 206.040117 
L 647.108225 191.420463 
L 656.505375 179.563567 
L 665.902525 172.066305 
L 675.299675 161.986081 
L 684.696825 152.699541 
L 694.093975 131.885792 
L 703.491125 119.06494 
L 712.888275 111.136209 
L 722.285425 106.58386 
L 731.682575 106.192233 
L 741.079725 103.712121 
L 750.476875 102.386558 
L 759.874025 102.540372 
L 769.271175 104.041241 
L 778.668325 106.648921 
L 788.065475 110.227284 
L 797.462625 112.017009 
L 806.859775 115.079875 
L 816.256925 118.512998 
L 825.654075 128.330011 
L 835.051225 135.058594 
L 844.448375 144.301572 
L 853.845525 152.497705 
L 863.242675 173.32705 
L 872.639825 194.974257 
L 882.036975 233.809573 
L 891.434125 272.656488 
L 900.831275 279.074535 
L 910.228425 282.95961 
L 919.625575 287.164695 
L 929.022725 292.492546 
L 938.419875 299.658699 
L 947.817025 308.69981 
L 957.214175 320.574195 
L 966.611325 334.682333 
L 976.008475 347.785833 
" clip-path="url(#pa6f6954e12)" style="fill: none; stroke: #90ed7d; stroke-linecap: square"/>
   </g>
   <g id="line2d_23">
    <path d="M 45.690625 223.980749 
L 55.087775 196.272031 
L 64.484925 182.864516 
L 73.882075 175.935376 
L 83.279225 174.881875 
L 92.676375 181.755049 
L 102.073525 190.420842 
L 111.470675 192.579956 
L 120.867825 195.96775 
L 130.264975 202.838454 
L 139.662125 211.591238 
L 149.059275 215.195327 
L 158.456425 222.596131 
L 167.853575 229.864894 
L 177.250725 236.982293 
L 186.647875 247.023519 
L 196.045025 261.199152 
L 205.442175 285.929915 
L 214.839325 317.752835 
L 224.236475 325.854304 
L 233.633625 228.309162 
L 243.030775 178.359423 
L 252.427925 185.413196 
L 261.825075 181.455055 
L 271.222225 167.980344 
L 280.619375 166.434237 
L 290.016525 172.911773 
L 299.413675 176.399399 
L 308.810825 177.452544 
L 318.207975 181.216734 
L 327.605125 183.91649 
L 337.002275 187.752982 
L 346.399425 200.45221 
L 355.796575 205.362371 
L 365.193725 211.232446 
L 374.590875 210.131521 
L 383.988025 207.060605 
L 393.385175 207.825169 
L 402.782325 215.576093 
L 412.179475 220.694214 
L 421.576625 221.924334 
L 430.973775 224.447081 
L 440.370925 230.478244 
L 449.768075 229.864678 
L 459.165225 234.190471 
L 468.562375 245.783901 
L 477.959525 248.994982 
L 487.356675 249.62183 
L 496.753825 251.3878 
L 506.150975 251.542015 
L 515.548125 256.376466 
L 524.945275 262.716481 
L 534.342425 324.484429 
L 543.739575 317.36401 
L 553.136725 313.309438 
L 562.533875 311.659967 
L 571.931025 289.572628 
L 581.328175 270.142457 
L 590.725325 263.758577 
L 600.122475 260.016355 
L 609.519625 257.416301 
L 618.916775 252.839969 
L 628.313925 240.043664 
L 637.711075 221.21241 
L 647.108225 198.174985 
L 656.505375 178.91249 
L 665.902525 166.042826 
L 675.299675 148.810288 
L 684.696825 133.001635 
L 694.093975 98.884394 
L 703.491125 78.058569 
L 712.888275 66.151519 
L 722.285425 61.965263 
L 731.682575 64.23425 
L 741.079725 62.75436 
L 750.476875 62.111781 
L 759.874025 63.599795 
L 769.271175 67.153678 
L 778.668325 72.051162 
L 788.065475 77.814823 
L 797.462625 78.736146 
L 806.859775 82.257453 
L 816.256925 86.849658 
L 825.654075 102.166985 
L 835.051225 112.287479 
L 844.448375 126.067526 
L 853.845525 137.636752 
L 863.242675 167.803368 
L 872.639825 200.082836 
L 882.036975 262.540506 
L 891.434125 323.827463 
L 900.831275 331.099389 
L 910.228425 333.189981 
L 919.625575 334.956559 
L 929.022725 337.080139 
L 938.419875 340.048848 
L 947.817025 343.221716 
L 957.214175 346.075877 
L 966.611325 349.227387 
L 976.008475 352.012894 
" clip-path="url(#pa6f6954e12)" style="fill: none; stroke: #f7a35c; stroke-linecap: square"/>
   </g>
   <g id="line2d_24">
    <path d="M 45.690625 237.110058 
L 55.087775 214.325903 
L 64.484925 204.526977 
L 73.882075 198.640765 
L 83.279225 196.72946 
L 92.676375 201.66321 
L 102.073525 207.924222 
L 111.470675 208.835187 
L 120.867825 210.901295 
L 130.264975 216.601271 
L 139.662125 223.339468 
L 149.059275 225.920826 
L 158.456425 232.090235 
L 167.853575 238.788232 
L 177.250725 244.172251 
L 186.647875 251.830771 
L 196.045025 262.953019 
L 205.442175 283.883242 
L 214.839325 305.698999 
L 224.236475 311.564904 
L 233.633625 228.381876 
L 243.030775 186.796297 
L 252.427925 191.547836 
L 261.825075 187.998281 
L 271.222225 177.169145 
L 280.619375 175.616942 
L 290.016525 181.211868 
L 299.413675 184.327469 
L 308.810825 184.172625 
L 318.207975 187.495067 
L 327.605125 190.09762 
L 337.002275 192.973022 
L 346.399425 203.491593 
L 355.796575 207.991699 
L 365.193725 212.999039 
L 374.590875 212.292617 
L 383.988025 210.059571 
L 393.385175 210.684143 
L 402.782325 217.228188 
L 412.179475 221.416158 
L 421.576625 222.57407 
L 430.973775 225.580284 
L 440.370925 230.586114 
L 449.768075 229.408445 
L 459.165225 232.565548 
L 468.562375 242.312701 
L 477.959525 245.041015 
L 487.356675 245.431773 
L 496.753825 246.230283 
L 506.150975 246.096209 
L 515.548125 249.970417 
L 524.945275 255.433327 
L 534.342425 309.692101 
L 543.739575 303.754288 
L 553.136725 300.104683 
L 562.533875 298.510128 
L 571.931025 277.586302 
L 581.328175 259.938931 
L 590.725325 253.961328 
L 600.122475 250.103212 
L 609.519625 247.369461 
L 618.916775 242.848527 
L 628.313925 229.803651 
L 637.711075 211.732881 
L 647.108225 189.051846 
L 656.505375 169.433501 
L 665.902525 157.34239 
L 675.299675 141.178735 
L 684.696825 128.067665 
L 694.093975 102.407835 
L 703.491125 82.829204 
L 712.888275 71.979316 
L 722.285425 66.828277 
L 731.682575 67.129138 
L 741.079725 64.727136 
L 750.476875 64.224513 
L 759.874025 65.992652 
L 769.271175 69.34438 
L 778.668325 73.220577 
L 788.065475 78.149951 
L 797.462625 79.280012 
L 806.859775 83.133606 
L 816.256925 87.27937 
L 825.654075 98.336851 
L 835.051225 106.722736 
L 844.448375 118.298665 
L 853.845525 129.785399 
L 863.242675 162.832503 
L 872.639825 195.355687 
L 882.036975 255.382261 
L 891.434125 311.095693 
L 900.831275 318.97774 
L 910.228425 321.507795 
L 919.625575 323.871001 
L 929.022725 326.805019 
L 938.419875 331.105417 
L 947.817025 335.931816 
L 957.214175 340.636939 
L 966.611325 346.071997 
L 976.008475 351.056782 
" clip-path="url(#pa6f6954e12)" style="fill: none; stroke: #8085e9; stroke-linecap: square"/>
   </g>
   <g id="line2d_25">
    <path d="M 45.690625 222.625229 
L 55.087775 193.35571 
L 64.484925 178.416448 
L 73.882075 170.650429 
L 83.279225 169.135257 
L 92.676375 176.455845 
L 102.073525 186.201984 
L 111.470675 188.555215 
L 120.867825 191.762818 
L 130.264975 199.047853 
L 139.662125 208.374197 
L 149.059275 212.277583 
L 158.456425 220.083398 
L 167.853575 228.41197 
L 177.250725 236.647251 
L 186.647875 248.063553 
L 196.045025 263.978867 
L 205.442175 291.437347 
L 214.839325 325.555364 
L 224.236475 334.23778 
L 233.633625 232.400815 
L 243.030775 179.998379 
L 252.427925 187.419248 
L 261.825075 183.359345 
L 271.222225 169.015067 
L 280.619375 167.488791 
L 290.016525 174.739651 
L 299.413675 178.647186 
L 308.810825 179.430401 
L 318.207975 183.153034 
L 327.605125 185.475657 
L 337.002275 188.402277 
L 346.399425 201.175604 
L 355.796575 206.151857 
L 365.193725 212.190499 
L 374.590875 210.79224 
L 383.988025 207.206517 
L 393.385175 208.25428 
L 402.782325 217.123931 
L 412.179475 222.759865 
L 421.576625 224.031906 
L 430.973775 226.80084 
L 440.370925 233.245581 
L 449.768075 232.598835 
L 459.165225 237.222852 
L 468.562375 249.570264 
L 477.959525 253.009568 
L 487.356675 253.7918 
L 496.753825 255.889196 
L 506.150975 256.25744 
L 515.548125 261.475149 
L 524.945275 268.243417 
L 534.342425 332.32411 
L 543.739575 324.698378 
L 553.136725 320.333748 
L 562.533875 318.591681 
L 571.931025 295.137172 
L 581.328175 274.439646 
L 590.725325 267.621687 
L 600.122475 263.717151 
L 609.519625 261.017884 
L 618.916775 256.387912 
L 628.313925 243.486396 
L 637.711075 223.900678 
L 647.108225 199.638452 
L 656.505375 179.576447 
L 665.902525 165.907671 
L 675.299675 147.79964 
L 684.696825 131.216244 
L 694.093975 93.588201 
L 703.491125 70.664221 
L 712.888275 57.067912 
L 722.285425 52.02823 
L 731.682575 53.887912 
L 741.079725 51.391423 
L 750.476875 50.369522 
L 759.874025 51.856924 
L 769.271175 55.619014 
L 778.668325 61.119635 
L 788.065475 67.604324 
L 797.462625 69.320573 
L 806.859775 73.724425 
L 816.256925 78.88182 
L 825.654075 95.884062 
L 835.051225 106.862457 
L 844.448375 121.432806 
L 853.845525 133.76082 
L 863.242675 166.291476 
L 872.639825 200.461623 
L 882.036975 266.208999 
L 891.434125 329.995787 
L 900.831275 337.494991 
L 910.228425 339.428081 
L 919.625575 340.896269 
L 929.022725 342.673815 
L 938.419875 345.192814 
L 947.817025 347.787187 
L 957.214175 349.620604 
L 966.611325 351.313062 
L 976.008475 352.64196 
" clip-path="url(#pa6f6954e12)" style="fill: none; stroke: #f15c80; stroke-linecap: square"/>
   </g>
   <g id="line2d_26">
    <path d="M 45.690625 353.2239 
L 985.405625 353.2239 
" clip-path="url(#pa6f6954e12)" style="fill: none; stroke: #dedede; stroke-width: 2; stroke-linecap: square"/>
   </g>
   <g id="text_18">
    <!-- Qualimap RNAseq: Coverage Profile Along Genes (total) -->
    <g transform="translate(292.166875 19.3575) scale(0.16 -0.16)">
     <defs>
      <path id="DejaVuSans-51" d="M 2522 4238 
Q 1834 4238 1429 3725 
Q 1025 3213 1025 2328 
Q 1025 1447 1429 934 
Q 1834 422 2522 422 
Q 3209 422 3611 934 
Q 4013 1447 4013 2328 
Q 4013 3213 3611 3725 
Q 3209 4238 2522 4238 
z
M 3406 84 
L 4238 -825 
L 3475 -825 
L 2784 -78 
Q 2681 -84 2626 -87 
Q 2572 -91 2522 -91 
Q 1538 -91 948 567 
Q 359 1225 359 2328 
Q 359 3434 948 4092 
Q 1538 4750 2522 4750 
Q 3503 4750 4090 4092 
Q 4678 3434 4678 2328 
Q 4678 1516 4351 937 
Q 4025 359 3406 84 
z
" transform="scale(0.015625)"/>
      <path id="DejaVuSans-52" d="M 2841 2188 
Q 3044 2119 3236 1894 
Q 3428 1669 3622 1275 
L 4263 0 
L 3584 0 
L 2988 1197 
Q 2756 1666 2539 1819 
Q 2322 1972 1947 1972 
L 1259 1972 
L 1259 0 
L 628 0 
L 628 4666 
L 2053 4666 
Q 2853 4666 3247 4331 
Q 3641 3997 3641 3322 
Q 3641 2881 3436 2590 
Q 3231 2300 2841 2188 
z
M 1259 4147 
L 1259 2491 
L 2053 2491 
Q 2509 2491 2742 2702 
Q 2975 2913 2975 3322 
Q 2975 3731 2742 3939 
Q 2509 4147 2053 4147 
L 1259 4147 
z
" transform="scale(0.015625)"/>
      <path id="DejaVuSans-4e" d="M 628 4666 
L 1478 4666 
L 3547 763 
L 3547 4666 
L 4159 4666 
L 4159 0 
L 3309 0 
L 1241 3903 
L 1241 0 
L 628 0 
L 628 4666 
z
" transform="scale(0.015625)"/>
      <path id="DejaVuSans-41" d="M 2188 4044 
L 1331 1722 
L 3047 1722 
L 2188 4044 
z
M 1831 4666 
L 2547 4666 
L 4325 0 
L 3669 0 
L 3244 1197 
L 1141 1197 
L 716 0 
L 50 0 
L 1831 4666 
z
" transform="scale(0.015625)"/>
      <path id="DejaVuSans-71" d="M 947 1747 
Q 947 1113 1208 752 
Q 1469 391 1925 391 
Q 2381 391 2643 752 
Q 2906 1113 2906 1747 
Q 2906 2381 2643 2742 
Q 2381 3103 1925 3103 
Q 1469 3103 1208 2742 
Q 947 2381 947 1747 
z
M 2906 525 
Q 2725 213 2448 61 
Q 2172 -91 1784 -91 
Q 1150 -91 751 415 
Q 353 922 353 1747 
Q 353 2572 751 3078 
Q 1150 3584 1784 3584 
Q 2172 3584 2448 3432 
Q 2725 3281 2906 2969 
L 2906 3500 
L 3481 3500 
L 3481 -1331 
L 2906 -1331 
L 2906 525 
z
" transform="scale(0.015625)"/>
      <path id="DejaVuSans-3a" d="M 750 794 
L 1409 794 
L 1409 0 
L 750 0 
L 750 794 
z
M 750 3309 
L 1409 3309 
L 1409 2516 
L 750 2516 
L 750 3309 
z
" transform="scale(0.015625)"/>
      <path id="DejaVuSans-43" d="M 4122 4306 
L 4122 3641 
Q 3803 3938 3442 4084 
Q 3081 4231 2675 4231 
Q 1875 4231 1450 3742 
Q 1025 3253 1025 2328 
Q 1025 1406 1450 917 
Q 1875 428 2675 428 
Q 3081 428 3442 575 
Q 3803 722 4122 1019 
L 4122 359 
Q 3791 134 3420 21 
Q 3050 -91 2638 -91 
Q 1578 -91 968 557 
Q 359 1206 359 2328 
Q 359 3453 968 4101 
Q 1578 4750 2638 4750 
Q 3056 4750 3426 4639 
Q 3797 4528 4122 4306 
z
" transform="scale(0.015625)"/>
      <path id="DejaVuSans-66" d="M 2375 4863 
L 2375 4384 
L 1825 4384 
Q 1516 4384 1395 4259 
Q 1275 4134 1275 3809 
L 1275 3500 
L 2222 3500 
L 2222 3053 
L 1275 3053 
L 1275 0 
L 697 0 
L 697 3053 
L 147 3053 
L 147 3500 
L 697 3500 
L 697 3744 
Q 697 4328 969 4595 
Q 1241 4863 1831 4863 
L 2375 4863 
z
" transform="scale(0.015625)"/>
      <path id="DejaVuSans-47" d="M 3809 666 
L 3809 1919 
L 2778 1919 
L 2778 2438 
L 4434 2438 
L 4434 434 
Q 4069 175 3628 42 
Q 3188 -91 2688 -91 
Q 1594 -91 976 548 
Q 359 1188 359 2328 
Q 359 3472 976 4111 
Q 1594 4750 2688 4750 
Q 3144 4750 3555 4637 
Q 3966 4525 4313 4306 
L 4313 3634 
Q 3963 3931 3569 4081 
Q 3175 4231 2741 4231 
Q 1884 4231 1454 3753 
Q 1025 3275 1025 2328 
Q 1025 1384 1454 906 
Q 1884 428 2741 428 
Q 3075 428 3337 486 
Q 3600 544 3809 666 
z
" transform="scale(0.015625)"/>
     </defs>
     <use xlink:href="#DejaVuSans-51"/>
     <use xlink:href="#DejaVuSans-75" x="78.710938"/>
     <use xlink:href="#DejaVuSans-61" x="142.089844"/>
     <use xlink:href="#DejaVuSans-6c" x="203.369141"/>
     <use xlink:href="#DejaVuSans-69" x="231.152344"/>
     <use xlink:href="#DejaVuSans-6d" x="258.935547"/>
     <use xlink:href="#DejaVuSans-61" x="356.347656"/>
     <use xlink:href="#DejaVuSans-70" x="417.626953"/>
     <use xlink:href="#DejaVuSans-20" x="481.103516"/>
     <use xlink:href="#DejaVuSans-52" x="512.890625"/>
     <use xlink:href="#DejaVuSans-4e" x="582.373047"/>
     <use xlink:href="#DejaVuSans-41" x="657.177734"/>
     <use xlink:href="#DejaVuSans-73" x="725.585938"/>
     <use xlink:href="#DejaVuSans-65" x="777.685547"/>
     <use xlink:href="#DejaVuSans-71" x="839.208984"/>
     <use xlink:href="#DejaVuSans-3a" x="902.685547"/>
     <use xlink:href="#DejaVuSans-20" x="936.376953"/>
     <use xlink:href="#DejaVuSans-43" x="968.164062"/>
     <use xlink:href="#DejaVuSans-6f" x="1037.988281"/>
     <use xlink:href="#DejaVuSans-76" x="1099.169922"/>
     <use xlink:href="#DejaVuSans-65" x="1158.349609"/>
     <use xlink:href="#DejaVuSans-72" x="1219.873047"/>
     <use xlink:href="#DejaVuSans-61" x="1260.986328"/>
     <use xlink:href="#DejaVuSans-67" x="1322.265625"/>
     <use xlink:href="#DejaVuSans-65" x="1385.742188"/>
     <use xlink:href="#DejaVuSans-20" x="1447.265625"/>
     <use xlink:href="#DejaVuSans-50" x="1479.052734"/>
     <use xlink:href="#DejaVuSans-72" x="1537.605469"/>
     <use xlink:href="#DejaVuSans-6f" x="1576.46875"/>
     <use xlink:href="#DejaVuSans-66" x="1637.650391"/>
     <use xlink:href="#DejaVuSans-69" x="1672.855469"/>
     <use xlink:href="#DejaVuSans-6c" x="1700.638672"/>
     <use xlink:href="#DejaVuSans-65" x="1728.421875"/>
     <use xlink:href="#DejaVuSans-20" x="1789.945312"/>
     <use xlink:href="#DejaVuSans-41" x="1821.732422"/>
     <use xlink:href="#DejaVuSans-6c" x="1890.140625"/>
     <use xlink:href="#DejaVuSans-6f" x="1917.923828"/>
     <use xlink:href="#DejaVuSans-6e" x="1979.105469"/>
     <use xlink:href="#DejaVuSans-67" x="2042.484375"/>
     <use xlink:href="#DejaVuSans-20" x="2105.960938"/>
     <use xlink:href="#DejaVuSans-47" x="2137.748047"/>
     <use xlink:href="#DejaVuSans-65" x="2215.238281"/>
     <use xlink:href="#DejaVuSans-6e" x="2276.761719"/>
     <use xlink:href="#DejaVuSans-65" x="2340.140625"/>
     <use xlink:href="#DejaVuSans-73" x="2401.664062"/>
     <use xlink:href="#DejaVuSans-20" x="2453.763672"/>
     <use xlink:href="#DejaVuSans-28" x="2485.550781"/>
     <use xlink:href="#DejaVuSans-74" x="2524.564453"/>
     <use xlink:href="#DejaVuSans-6f" x="2563.773438"/>
     <use xlink:href="#DejaVuSans-74" x="2624.955078"/>
     <use xlink:href="#DejaVuSans-61" x="2664.164062"/>
     <use xlink:href="#DejaVuSans-6c" x="2725.443359"/>
     <use xlink:href="#DejaVuSans-29" x="2753.226562"/>
    </g>
   </g>
  </g>
 </g>
 <defs>
  <clipPath id="pa6f6954e12">
   <rect x="45.690625" y="35.2559" width="939.715" height="317.968"/>
  </clipPath>
 </defs>
</svg>
